  0
SECTION
  2
HEADER
  9
$ACADVER
  1
AC1015
  9
$ACADMAINTVER
 70
     6
  9
$DWGCODEPAGE
  3
ANSI_1252
  9
$INSBASE
 10
0.0
 20
0.0
 30
0.0
  9
$EXTMIN
 10
0.128809
 20
0.128795
 30
0.0
  9
$EXTMAX
 10
435.850674
 20
621.563691
 30
0.0
  9
$LIMMIN
 10
0.0
 20
0.0
  9
$LIMMAX
 10
420.0
 20
297.0
  9
$ORTHOMODE
 70
     0
  9
$REGENMODE
 70
     1
  9
$FILLMODE
 70
     1
  9
$QTEXTMODE
 70
     0
  9
$MIRRTEXT
 70
     1
  9
$LTSCALE
 40
1.0
  9
$ATTMODE
 70
     1
  9
$TEXTSIZE
 40
3.5
  9
$TRACEWID
 40
1.0
  9
$TEXTSTYLE
  7
Standard
  9
$CLAYER
  8
0
  9
$CELTYPE
  6
ByLayer
  9
$CECOLOR
 62
   256
  9
$CELTSCALE
 40
1.0
  9
$DISPSILH
 70
     0
  9
$DIMSCALE
 40
1.0
  9
$DIMASZ
 40
3.302
  9
$DIMEXO
 40
1.0
  9
$DIMDLI
 40
3.75
  9
$DIMRND
 40
0.0
  9
$DIMDLE
 40
0.0
  9
$DIMEXE
 40
1.0
  9
$DIMTP
 40
0.0
  9
$DIMTM
 40
0.0
  9
$DIMTXT
 40
3.5
  9
$DIMCEN
 40
2.5
  9
$DIMTSZ
 40
0.0
  9
$DIMTOL
 70
     0
  9
$DIMLIM
 70
     0
  9
$DIMTIH
 70
     1
  9
$DIMTOH
 70
     1
  9
$DIMSE1
 70
     0
  9
$DIMSE2
 70
     0
  9
$DIMTAD
 70
     1
  9
$DIMZIN
 70
     0
  9
$DIMBLK
  1

  9
$DIMASO
 70
     1
  9
$DIMSHO
 70
     1
  9
$DIMPOST
  1

  9
$DIMAPOST
  1

  9
$DIMALT
 70
     0
  9
$DIMALTD
 70
     3
  9
$DIMALTF
 40
0.0393700787
  9
$DIMLFAC
 40
1.0
  9
$DIMTOFL
 70
     1
  9
$DIMTVP
 40
0.0
  9
$DIMTIX
 70
     0
  9
$DIMSOXD
 70
     0
  9
$DIMSAH
 70
     0
  9
$DIMBLK1
  1

  9
$DIMBLK2
  1

  9
$DIMSTYLE
  2
ISO-25
  9
$DIMCLRD
 70
     0
  9
$DIMCLRE
 70
     0
  9
$DIMCLRT
 70
     0
  9
$DIMTFAC
 40
1.0
  9
$DIMGAP
 40
1.524
  9
$DIMJUST
 70
     0
  9
$DIMSD1
 70
     0
  9
$DIMSD2
 70
     0
  9
$DIMTOLJ
 70
     0
  9
$DIMTZIN
 70
     0
  9
$DIMALTZ
 70
     0
  9
$DIMALTTZ
 70
     0
  9
$DIMUPT
 70
     0
  9
$DIMDEC
 70
     2
  9
$DIMTDEC
 70
     2
  9
$DIMALTU
 70
     2
  9
$DIMALTTD
 70
     3
  9
$DIMTXSTY
  7
Standard
  9
$DIMAUNIT
 70
     0
  9
$DIMADEC
 70
     2
  9
$DIMALTRND
 40
0.0
  9
$DIMAZIN
 70
     0
  9
$DIMDSEP
 70
    44
  9
$DIMATFIT
 70
     3
  9
$DIMFRAC
 70
     0
  9
$DIMLDRBLK
  1

  9
$DIMLUNIT
 70
     2
  9
$DIMLWD
 70
    -2
  9
$DIMLWE
 70
    -2
  9
$DIMTMOVE
 70
     0
  9
$LUNITS
 70
     2
  9
$LUPREC
 70
     2
  9
$SKETCHINC
 40
1.0
  9
$FILLETRAD
 40
10.0
  9
$AUNITS
 70
     0
  9
$AUPREC
 70
     2
  9
$MENU
  1
.
  9
$ELEVATION
 40
0.0
  9
$PELEVATION
 40
0.0
  9
$THICKNESS
 40
0.0
  9
$LIMCHECK
 70
     0
  9
$CHAMFERA
 40
0.0
  9
$CHAMFERB
 40
0.0
  9
$CHAMFERC
 40
0.0
  9
$CHAMFERD
 40
0.0
  9
$SKPOLY
 70
     0
  9
$TDCREATE
 40
2458834.741116771
  9
$TDUCREATE
 40
2458834.991116771
  9
$TDUPDATE
 40
2458834.741780636
  9
$TDUUPDATE
 40
2458834.991780636
  9
$TDINDWG
 40
0.0000000116
  9
$TDUSRTIMER
 40
0.0000000116
  9
$USRTIMER
 70
     1
  9
$ANGBASE
 50
0.0
  9
$ANGDIR
 70
     0
  9
$PDMODE
 70
     0
  9
$PDSIZE
 40
-1.0
  9
$PLINEWID
 40
0.0
  9
$SPLFRAME
 70
     0
  9
$SPLINETYPE
 70
     6
  9
$SPLINESEGS
 70
     8
  9
$HANDSEED
  5
393
  9
$SURFTAB1
 70
     6
  9
$SURFTAB2
 70
     6
  9
$SURFTYPE
 70
     6
  9
$SURFU
 70
     6
  9
$SURFV
 70
     6
  9
$UCSBASE
  2

  9
$UCSNAME
  2

  9
$UCSORG
 10
0.0
 20
0.0
 30
0.0
  9
$UCSXDIR
 10
1.0
 20
0.0
 30
0.0
  9
$UCSYDIR
 10
0.0
 20
1.0
 30
0.0
  9
$UCSORTHOREF
  2

  9
$UCSORTHOVIEW
 70
     0
  9
$UCSORGTOP
 10
0.0
 20
0.0
 30
0.0
  9
$UCSORGBOTTOM
 10
0.0
 20
0.0
 30
0.0
  9
$UCSORGLEFT
 10
0.0
 20
0.0
 30
0.0
  9
$UCSORGRIGHT
 10
0.0
 20
0.0
 30
0.0
  9
$UCSORGFRONT
 10
0.0
 20
0.0
 30
0.0
  9
$UCSORGBACK
 10
0.0
 20
0.0
 30
0.0
  9
$PUCSBASE
  2

  9
$PUCSNAME
  2

  9
$PUCSORG
 10
0.0
 20
0.0
 30
0.0
  9
$PUCSXDIR
 10
1.0
 20
0.0
 30
0.0
  9
$PUCSYDIR
 10
0.0
 20
1.0
 30
0.0
  9
$PUCSORTHOREF
  2

  9
$PUCSORTHOVIEW
 70
     0
  9
$PUCSORGTOP
 10
0.0
 20
0.0
 30
0.0
  9
$PUCSORGBOTTOM
 10
0.0
 20
0.0
 30
0.0
  9
$PUCSORGLEFT
 10
0.0
 20
0.0
 30
0.0
  9
$PUCSORGRIGHT
 10
0.0
 20
0.0
 30
0.0
  9
$PUCSORGFRONT
 10
0.0
 20
0.0
 30
0.0
  9
$PUCSORGBACK
 10
0.0
 20
0.0
 30
0.0
  9
$USERI1
 70
     0
  9
$USERI2
 70
     0
  9
$USERI3
 70
     0
  9
$USERI4
 70
     0
  9
$USERI5
 70
     0
  9
$USERR1
 40
0.0
  9
$USERR2
 40
0.0
  9
$USERR3
 40
0.0
  9
$USERR4
 40
0.0
  9
$USERR5
 40
0.0
  9
$WORLDVIEW
 70
     1
  9
$SHADEDGE
 70
     3
  9
$SHADEDIF
 70
    70
  9
$TILEMODE
 70
     1
  9
$MAXACTVP
 70
    64
  9
$PINSBASE
 10
0.0
 20
0.0
 30
0.0
  9
$PLIMCHECK
 70
     0
  9
$PEXTMIN
 10
1.0000000000E+20
 20
1.0000000000E+20
 30
1.0000000000E+20
  9
$PEXTMAX
 10
-1.0000000000E+20
 20
-1.0000000000E+20
 30
-1.0000000000E+20
  9
$PLIMMIN
 10
0.0
 20
0.0
  9
$PLIMMAX
 10
420.0
 20
297.0
  9
$UNITMODE
 70
     0
  9
$VISRETAIN
 70
     1
  9
$PLINEGEN
 70
     0
  9
$PSLTSCALE
 70
     1
  9
$TREEDEPTH
 70
  3020
  9
$CMLSTYLE
  2
Standard
  9
$CMLJUST
 70
     0
  9
$CMLSCALE
 40
20.0
  9
$PROXYGRAPHICS
 70
     1
  9
$MEASUREMENT
 70
     1
  9
$CELWEIGHT
370
    -1
  9
$ENDCAPS
280
     0
  9
$JOINSTYLE
280
     0
  9
$LWDISPLAY
290
     1
  9
$INSUNITS
 70
     4
  9
$HYPERLINKBASE
  1

  9
$STYLESHEET
  1

  9
$XEDIT
290
     1
  9
$CEPSNTYPE
380
     0
  9
$PSTYLEMODE
290
     1
  9
$FINGERPRINTGUID
  2
{5CD2AFE6-FB8E-4E7D-9031-5102493A2E02}
  9
$VERSIONGUID
  2
{FAEB1C32-E019-11D5-929B-00C0DF256EC4}
  9
$EXTNAMES
290
     1
  9
$PSVPSCALE
 40
0.0
  9
$OLESTARTUP
290
     0
  0
ENDSEC
  0
SECTION
  2
CLASSES
  0
CLASS
  1
ACDBDICTIONARYWDFLT
  2
AcDbDictionaryWithDefault
  3
ObjectDBX Classes
 90
        0
280
     0
281
     0
  0
CLASS
  1
VISUALSTYLE
  2
AcDbVisualStyle
  3
ObjectDBX Classes
 90
     4095
280
     0
281
     0
  0
CLASS
  1
MATERIAL
  2
AcDbMaterial
  3
ObjectDBX Classes
 90
     1153
280
     0
281
     0
  0
CLASS
  1
SCALE
  2
AcDbScale
  3
ObjectDBX Classes
 90
     1153
280
     0
281
     0
  0
CLASS
  1
TABLESTYLE
  2
AcDbTableStyle
  3
ObjectDBX Classes
 90
     4095
280
     0
281
     0
  0
CLASS
  1
MLEADERSTYLE
  2
AcDbMLeaderStyle
  3
ACDB_MLEADERSTYLE_CLASS
 90
     4095
280
     0
281
     0
  0
CLASS
  1
SUN
  2
AcDbSun
  3
SCENEOE
 90
     1153
280
     0
281
     0
  0
CLASS
  1
ACDBPLACEHOLDER
  2
AcDbPlaceHolder
  3
ObjectDBX Classes
 90
        0
280
     0
281
     0
  0
CLASS
  1
LAYOUT
  2
AcDbLayout
  3
ObjectDBX Classes
 90
        0
280
     0
281
     0
  0
ENDSEC
  0
SECTION
  2
TABLES
  0
TABLE
  2
VPORT
  5
8
330
0
100
AcDbSymbolTable
 70
     1
  0
VPORT
  5
29
330
8
100
AcDbSymbolTableRecord
100
AcDbViewportTableRecord
  2
*Active
 70
     0
 10
0.0
 20
0.0
 11
1.0
 21
1.0
 12
217.9897415
 22
310.846243
 13
0.0
 23
0.0
 14
10.0
 24
10.0
 15
10.0
 25
10.0
 16
0.0
 26
0.0
 36
1.0
 17
0.0
 27
0.0
 37
0.0
 40
633.86359392
 41
0.7011544859
 42
50.0
 43
0.0
 44
0.0
 50
0.0
 51
0.0
 71
     0
 72
   100
 73
     1
 74
     3
 75
     0
 76
     0
 77
     0
 78
     0
281
     0
 65
     1
110
0.0
120
0.0
130
0.0
111
1.0
121
0.0
131
0.0
112
0.0
122
1.0
132
0.0
 79
     0
146
0.0
  0
ENDTAB
  0
TABLE
  2
LTYPE
  5
5
330
0
100
AcDbSymbolTable
 70
     6
  0
LTYPE
  5
14
330
5
100
AcDbSymbolTableRecord
100
AcDbLinetypeTableRecord
  2
ByBlock
 70
     0
  3

 72
    65
 73
     0
 40
0.0
  0
LTYPE
  5
15
330
5
100
AcDbSymbolTableRecord
100
AcDbLinetypeTableRecord
  2
ByLayer
 70
     0
  3

 72
    65
 73
     0
 40
0.0
  0
LTYPE
  5
16
330
5
100
AcDbSymbolTableRecord
100
AcDbLinetypeTableRecord
  2
Continuous
 70
     0
  3
Solid line
 72
    65
 73
     0
 40
0.0
  0
LTYPE
  5
6E
330
5
100
AcDbSymbolTableRecord
100
AcDbLinetypeTableRecord
  2
HIDDEN
 70
     0
  3
Hidden __ __ __ __ __ __ __ __ __ __ __ __ __ __
 72
    65
 73
     2
 40
1.905
 49
1.27
 74
     0
 49
-0.635
 74
     0
  0
LTYPE
  5
6F
330
5
100
AcDbSymbolTableRecord
100
AcDbLinetypeTableRecord
  2
PHANTOM
 70
     0
  3
Phantom ______  __  __  ______  __  __  ______
 72
    65
 73
     6
 40
12.7
 49
6.35
 74
     0
 49
-1.27
 74
     0
 49
1.27
 74
     0
 49
-1.27
 74
     0
 49
1.27
 74
     0
 49
-1.27
 74
     0
  0
LTYPE
  5
70
330
5
100
AcDbSymbolTableRecord
100
AcDbLinetypeTableRecord
  2
CENTER
 70
     0
  3
Center ____ _ ____ _ ____ _ ____ _ ____ _ ____
 72
    65
 73
     4
 40
10.16
 49
6.35
 74
     0
 49
-1.27
 74
     0
 49
1.27
 74
     0
 49
-1.27
 74
     0
  0
LTYPE
  5
71
330
5
100
AcDbSymbolTableRecord
100
AcDbLinetypeTableRecord
  2
CENTERX2
 70
     0
  3
Center (2x) ________  __  ________  __  _____
 72
    65
 73
     4
 40
20.32
 49
12.7
 74
     0
 49
-2.54
 74
     0
 49
2.54
 74
     0
 49
-2.54
 74
     0
  0
LTYPE
  5
72
330
5
100
AcDbSymbolTableRecord
100
AcDbLinetypeTableRecord
  2
DOT2
 70
     0
  3
Dot (.5x) ........................................
 72
    65
 73
     2
 40
0.635
 49
0.0
 74
     0
 49
-0.635
 74
     0
  0
ENDTAB
  0
TABLE
  2
LAYER
  5
2
330
0
100
AcDbSymbolTable
 70
     1
  0
LAYER
  5
10
330
2
100
AcDbSymbolTableRecord
100
AcDbLayerTableRecord
  2
0
 70
     0
 62
     7
  6
Continuous
370
    -3
390
F
  0
ENDTAB
  0
TABLE
  2
STYLE
  5
3
330
0
100
AcDbSymbolTable
 70
     1
  0
STYLE
  5
11
330
3
100
AcDbSymbolTableRecord
100
AcDbTextStyleTableRecord
  2
Standard
 70
     0
 40
0.0
 41
1.0
 50
0.0
 71
     0
 42
3.5
  3
txt
  4

  0
ENDTAB
  0
TABLE
  2
VIEW
  5
6
330
0
100
AcDbSymbolTable
 70
     0
  0
ENDTAB
  0
TABLE
  2
UCS
  5
7
330
0
100
AcDbSymbolTable
 70
     0
  0
ENDTAB
  0
TABLE
  2
APPID
  5
9
330
0
100
AcDbSymbolTable
 70
     1
  0
APPID
  5
12
330
9
100
AcDbSymbolTableRecord
100
AcDbRegAppTableRecord
  2
ACAD
 70
     0
  0
ENDTAB
  0
TABLE
  2
DIMSTYLE
  5
A
330
0
100
AcDbSymbolTable
 70
     1
100
AcDbDimStyleTable
  0
DIMSTYLE
105
27
330
A
100
AcDbSymbolTableRecord
100
AcDbDimStyleTableRecord
  2
ISO-25
 70
     0
 41
2.5
 42
0.625
 43
3.75
 44
1.25
 73
     0
 74
     0
 77
     1
 78
     8
140
2.5
141
2.5
143
0.0393700787
147
0.625
171
     3
172
     1
178
     0
271
     2
272
     2
274
     3
278
    44
283
     0
284
     8
340
11
  0
ENDTAB
  0
TABLE
  2
BLOCK_RECORD
  5
1
330
0
100
AcDbSymbolTable
 70
     1
  0
BLOCK_RECORD
  5
1F
330
1
100
AcDbSymbolTableRecord
100
AcDbBlockTableRecord
  2
*Model_Space
340
22
  0
BLOCK_RECORD
  5
1B
330
1
100
AcDbSymbolTableRecord
100
AcDbBlockTableRecord
  2
*Paper_Space
340
1E
  0
BLOCK_RECORD
  5
23
330
1
100
AcDbSymbolTableRecord
100
AcDbBlockTableRecord
  2
*Paper_Space0
340
26
  0
ENDTAB
  0
ENDSEC
  0
SECTION
  2
BLOCKS
  0
BLOCK
  5
20
330
1F
100
AcDbEntity
  8
0
100
AcDbBlockBegin
  2
*Model_Space
 70
     0
 10
0.0
 20
0.0
 30
0.0
  3
*Model_Space
  1

  0
ENDBLK
  5
21
330
1F
100
AcDbEntity
  8
0
100
AcDbBlockEnd
  0
BLOCK
  5
1C
330
1B
100
AcDbEntity
 67
     1
  8
0
100
AcDbBlockBegin
  2
*Paper_Space
 70
     0
 10
0.0
 20
0.0
 30
0.0
  3
*Paper_Space
  1

  0
ENDBLK
  5
1D
330
1B
100
AcDbEntity
 67
     1
  8
0
100
AcDbBlockEnd
  0
BLOCK
  5
24
330
23
100
AcDbEntity
  8
0
100
AcDbBlockBegin
  2
*Paper_Space0
 70
     0
 10
0.0
 20
0.0
 30
0.0
  3
*Paper_Space0
  1

  0
ENDBLK
  5
25
330
23
100
AcDbEntity
  8
0
100
AcDbBlockEnd
  0
ENDSEC
  0
SECTION
  2
ENTITIES
  0
LINE
  5
73
330
1F
100
AcDbEntity
  8
0
  6
Continuous
 62
     7
100
AcDbLine
 10
153.850676
 20
26.1288
 30
0.0
 11
153.850676
 21
121.128802
 31
0.0
  0
LINE
  5
74
330
1F
100
AcDbEntity
  8
0
  6
Continuous
 62
     7
100
AcDbLine
 10
159.800674
 20
26.1288
 30
0.0
 11
153.850676
 21
26.1288
 31
0.0
  0
LINE
  5
75
330
1F
100
AcDbEntity
  8
0
  6
Continuous
 62
     7
100
AcDbLine
 10
159.800674
 20
121.128802
 30
0.0
 11
159.800674
 21
26.1288
 31
0.0
  0
LINE
  5
76
330
1F
100
AcDbEntity
  8
0
  6
Continuous
 62
     7
100
AcDbLine
 10
153.850676
 20
121.128802
 30
0.0
 11
159.800674
 21
121.128802
 31
0.0
  0
LINE
  5
77
330
1F
100
AcDbEntity
  8
0
  6
Continuous
 62
     7
100
AcDbLine
 10
408.900675
 20
18.628801
 30
0.0
 11
408.900675
 21
128.628801
 31
0.0
  0
LINE
  5
78
330
1F
100
AcDbEntity
  8
0
  6
Continuous
 62
     7
100
AcDbLine
 10
414.850676
 20
18.628801
 30
0.0
 11
408.900675
 21
18.628801
 31
0.0
  0
LINE
  5
79
330
1F
100
AcDbEntity
  8
0
  6
Continuous
 62
     7
100
AcDbLine
 10
414.850676
 20
128.628801
 30
0.0
 11
414.850676
 21
18.628801
 31
0.0
  0
LINE
  5
7A
330
1F
100
AcDbEntity
  8
0
  6
Continuous
 62
     7
100
AcDbLine
 10
408.900675
 20
128.628801
 30
0.0
 11
414.850676
 21
128.628801
 31
0.0
  0
LINE
  5
7B
330
1F
100
AcDbEntity
  8
0
  6
Continuous
 62
     7
100
AcDbLine
 10
213.850674
 20
6.128811
 30
0.0
 11
163.850676
 21
6.128811
 31
0.0
  0
LINE
  5
7C
330
1F
100
AcDbEntity
  8
0
  6
Continuous
 62
     7
100
AcDbLine
 10
163.850676
 20
6.128811
 30
0.0
 11
163.850676
 21
0.128795
 31
0.0
  0
LINE
  5
7D
330
1F
100
AcDbEntity
  8
0
  6
Continuous
 62
     7
100
AcDbLine
 10
149.850675
 20
0.128795
 30
0.0
 11
163.850676
 21
0.128795
 31
0.0
  0
LINE
  5
7E
330
1F
100
AcDbEntity
  8
0
  6
Continuous
 62
     7
100
AcDbLine
 10
149.850675
 20
147.128803
 30
0.0
 11
149.850675
 21
0.128795
 31
0.0
  0
LINE
  5
7F
330
1F
100
AcDbEntity
  8
0
  6
Continuous
 62
     7
100
AcDbLine
 10
149.850675
 20
147.128803
 30
0.0
 11
163.850676
 21
147.128803
 31
0.0
  0
LINE
  5
80
330
1F
100
AcDbEntity
  8
0
  6
Continuous
 62
     7
100
AcDbLine
 10
163.850676
 20
147.128803
 30
0.0
 11
163.850676
 21
141.128801
 31
0.0
  0
LINE
  5
81
330
1F
100
AcDbEntity
  8
0
  6
Continuous
 62
     7
100
AcDbLine
 10
213.850674
 20
141.128801
 30
0.0
 11
163.850676
 21
141.128801
 31
0.0
  0
LINE
  5
82
330
1F
100
AcDbEntity
  8
0
  6
Continuous
 62
     7
100
AcDbLine
 10
213.850674
 20
141.128801
 30
0.0
 11
213.850674
 21
147.128803
 31
0.0
  0
LINE
  5
83
330
1F
100
AcDbEntity
  8
0
  6
Continuous
 62
     7
100
AcDbLine
 10
213.850674
 20
147.128803
 30
0.0
 11
271.850675
 21
147.128803
 31
0.0
  0
LINE
  5
84
330
1F
100
AcDbEntity
  8
0
  6
Continuous
 62
     7
100
AcDbLine
 10
271.850675
 20
147.128803
 30
0.0
 11
271.850675
 21
141.128801
 31
0.0
  0
LINE
  5
85
330
1F
100
AcDbEntity
  8
0
  6
Continuous
 62
     7
100
AcDbLine
 10
321.850675
 20
141.128801
 30
0.0
 11
271.850675
 21
141.128801
 31
0.0
  0
LINE
  5
86
330
1F
100
AcDbEntity
  8
0
  6
Continuous
 62
     7
100
AcDbLine
 10
321.850675
 20
141.128801
 30
0.0
 11
321.850675
 21
147.128803
 31
0.0
  0
LINE
  5
87
330
1F
100
AcDbEntity
  8
0
  6
Continuous
 62
     7
100
AcDbLine
 10
321.850675
 20
147.128803
 30
0.0
 11
379.850675
 21
147.128803
 31
0.0
  0
LINE
  5
88
330
1F
100
AcDbEntity
  8
0
  6
Continuous
 62
     7
100
AcDbLine
 10
379.850675
 20
147.128803
 30
0.0
 11
379.850675
 21
141.128801
 31
0.0
  0
LINE
  5
89
330
1F
100
AcDbEntity
  8
0
  6
Continuous
 62
     7
100
AcDbLine
 10
429.850674
 20
141.128801
 30
0.0
 11
379.850675
 21
141.128801
 31
0.0
  0
LINE
  5
8A
330
1F
100
AcDbEntity
  8
0
  6
Continuous
 62
     7
100
AcDbLine
 10
429.850674
 20
141.128801
 30
0.0
 11
429.850674
 21
98.628801
 31
0.0
  0
LINE
  5
8B
330
1F
100
AcDbEntity
  8
0
  6
Continuous
 62
     7
100
AcDbLine
 10
429.850674
 20
98.628801
 30
0.0
 11
435.850673
 21
98.628801
 31
0.0
  0
LINE
  5
8C
330
1F
100
AcDbEntity
  8
0
  6
Continuous
 62
     7
100
AcDbLine
 10
435.850673
 20
98.628801
 30
0.0
 11
435.850673
 21
48.628797
 31
0.0
  0
LINE
  5
8D
330
1F
100
AcDbEntity
  8
0
  6
Continuous
 62
     7
100
AcDbLine
 10
435.850673
 20
48.628797
 30
0.0
 11
429.850674
 21
48.628797
 31
0.0
  0
LINE
  5
8E
330
1F
100
AcDbEntity
  8
0
  6
Continuous
 62
     7
100
AcDbLine
 10
429.850674
 20
48.628797
 30
0.0
 11
429.850674
 21
6.128811
 31
0.0
  0
LINE
  5
8F
330
1F
100
AcDbEntity
  8
0
  6
Continuous
 62
     7
100
AcDbLine
 10
429.850674
 20
6.128811
 30
0.0
 11
379.850675
 21
6.128811
 31
0.0
  0
LINE
  5
90
330
1F
100
AcDbEntity
  8
0
  6
Continuous
 62
     7
100
AcDbLine
 10
379.850675
 20
6.128811
 30
0.0
 11
379.850675
 21
0.128795
 31
0.0
  0
LINE
  5
91
330
1F
100
AcDbEntity
  8
0
  6
Continuous
 62
     7
100
AcDbLine
 10
379.850675
 20
0.128795
 30
0.0
 11
321.850675
 21
0.128795
 31
0.0
  0
LINE
  5
92
330
1F
100
AcDbEntity
  8
0
  6
Continuous
 62
     7
100
AcDbLine
 10
321.850675
 20
0.128795
 30
0.0
 11
321.850675
 21
6.128811
 31
0.0
  0
LINE
  5
93
330
1F
100
AcDbEntity
  8
0
  6
Continuous
 62
     7
100
AcDbLine
 10
321.850675
 20
6.128811
 30
0.0
 11
271.850675
 21
6.128811
 31
0.0
  0
LINE
  5
94
330
1F
100
AcDbEntity
  8
0
  6
Continuous
 62
     7
100
AcDbLine
 10
271.850675
 20
6.128811
 30
0.0
 11
271.850675
 21
0.128795
 31
0.0
  0
LINE
  5
95
330
1F
100
AcDbEntity
  8
0
  6
Continuous
 62
     7
100
AcDbLine
 10
271.850675
 20
0.128795
 30
0.0
 11
213.850674
 21
0.128795
 31
0.0
  0
LINE
  5
96
330
1F
100
AcDbEntity
  8
0
  6
Continuous
 62
     7
100
AcDbLine
 10
213.850674
 20
0.128795
 30
0.0
 11
213.850674
 21
6.128811
 31
0.0
  0
LINE
  5
97
330
1F
100
AcDbEntity
  8
0
  6
Continuous
 62
     7
100
AcDbLine
 10
381.392032
 20
250.197256
 30
0.0
 11
382.871083
 21
248.736313
 31
0.0
  0
LINE
  5
98
330
1F
100
AcDbEntity
  8
0
  6
Continuous
 62
     7
100
AcDbLine
 10
375.926497
 20
250.197256
 30
0.0
 11
381.392032
 21
250.197256
 31
0.0
  0
LINE
  5
99
330
1F
100
AcDbEntity
  8
0
  6
Continuous
 62
     7
100
AcDbLine
 10
376.068773
 20
208.391371
 30
0.0
 11
375.926497
 21
250.197256
 31
0.0
  0
LINE
  5
9A
330
1F
100
AcDbEntity
  8
0
  6
Continuous
 62
     7
100
AcDbLine
 10
377.793865
 20
208.307974
 30
0.0
 11
376.068773
 21
208.391371
 31
0.0
  0
LINE
  5
9B
330
1F
100
AcDbEntity
  8
0
  6
Continuous
 62
     7
100
AcDbLine
 10
379.917398
 20
246.487064
 30
0.0
 11
379.917398
 21
227.607289
 31
0.0
  0
LINE
  5
9C
330
1F
100
AcDbEntity
  8
0
  6
Continuous
 62
     7
100
AcDbLine
 10
382.079889
 20
246.487064
 30
0.0
 11
379.917398
 21
246.487064
 31
0.0
  0
LINE
  5
9D
330
1F
100
AcDbEntity
  8
0
  6
Continuous
 62
     7
100
AcDbLine
 10
355.674227
 20
208.221614
 30
0.0
 11
355.758239
 21
222.076213
 31
0.0
  0
LINE
  5
9E
330
1F
100
AcDbEntity
  8
0
  6
Continuous
 62
     7
100
AcDbLine
 10
359.551461
 20
208.390919
 30
0.0
 11
355.674227
 21
208.221614
 31
0.0
  0
LINE
  5
9F
330
1F
100
AcDbEntity
  8
0
  6
Continuous
 62
     7
100
AcDbLine
 10
359.690574
 20
221.741837
 30
0.0
 11
359.551461
 21
208.390919
 31
0.0
  0
LINE
  5
A0
330
1F
100
AcDbEntity
  8
0
  6
Continuous
 62
     7
100
AcDbLine
 10
367.563276
 20
208.250119
 30
0.0
 11
367.563276
 21
221.534319
 31
0.0
  0
LINE
  5
A1
330
1F
100
AcDbEntity
  8
0
  6
Continuous
 62
     7
100
AcDbLine
 10
369.441411
 20
208.250119
 30
0.0
 11
367.563276
 21
208.250119
 31
0.0
  0
LINE
  5
A2
330
1F
100
AcDbEntity
  8
0
  6
Continuous
 62
     7
100
AcDbLine
 10
328.264512
 20
242.069908
 30
0.0
 11
328.264512
 21
238.081177
 31
0.0
  0
LINE
  5
A3
330
1F
100
AcDbEntity
  8
0
  6
Continuous
 62
     7
100
AcDbLine
 10
321.899853
 20
226.685918
 30
0.0
 11
321.899853
 21
230.920973
 31
0.0
  0
LINE
  5
A4
330
1F
100
AcDbEntity
  8
0
  6
Continuous
 62
     7
100
AcDbLine
 10
328.264512
 20
223.522941
 30
0.0
 11
321.899853
 21
226.685918
 31
0.0
  0
LINE
  5
A5
330
1F
100
AcDbEntity
  8
0
  6
Continuous
 62
     7
100
AcDbLine
 10
328.264512
 20
228.069315
 30
0.0
 11
328.264512
 21
223.522941
 31
0.0
  0
LINE
  5
A6
330
1F
100
AcDbEntity
  8
0
  6
Continuous
 62
     7
100
AcDbLine
 10
325.609828
 20
229.399203
 30
0.0
 11
328.264512
 21
228.069315
 31
0.0
  0
LINE
  5
A7
330
1F
100
AcDbEntity
  8
0
  6
Continuous
 62
     7
100
AcDbLine
 10
325.615557
 20
231.095584
 30
0.0
 11
325.609828
 21
229.399203
 31
0.0
  0
LINE
  5
A8
330
1F
100
AcDbEntity
  8
0
  6
Continuous
 62
     7
100
AcDbLine
 10
325.528206
 20
218.610158
 30
0.0
 11
325.721997
 21
216.691272
 31
0.0
  0
LINE
  5
A9
330
1F
100
AcDbEntity
  8
0
  6
Continuous
 62
     7
100
AcDbLine
 10
321.899853
 20
218.610158
 30
0.0
 11
325.528206
 21
218.610158
 31
0.0
  0
LINE
  5
AA
330
1F
100
AcDbEntity
  8
0
  6
Continuous
 62
     7
100
AcDbLine
 10
321.899853
 20
216.667001
 30
0.0
 11
321.899853
 21
218.610158
 31
0.0
  0
LINE
  5
AB
330
1F
100
AcDbEntity
  8
0
  6
Continuous
 62
     7
100
AcDbLine
 10
330.680856
 20
208.288868
 30
0.0
 11
329.543602
 21
208.256045
 31
0.0
  0
LINE
  5
AC
330
1F
100
AcDbEntity
  8
0
  6
Continuous
 62
     7
100
AcDbLine
 10
331.78912
 20
208.270495
 30
0.0
 11
330.680856
 21
208.288868
 31
0.0
  0
LINE
  5
AD
330
1F
100
AcDbEntity
  8
0
  6
Continuous
 62
     7
100
AcDbLine
 10
333.697659
 20
208.730461
 30
0.0
 11
333.697659
 21
208.740621
 31
0.0
  0
LINE
  5
AE
330
1F
100
AcDbEntity
  8
0
  6
Continuous
 62
     7
100
AcDbLine
 10
333.77978
 20
208.780499
 30
0.0
 11
333.697659
 21
208.730461
 31
0.0
  0
LINE
  5
AF
330
1F
100
AcDbEntity
  8
0
  6
Continuous
 62
     7
100
AcDbLine
 10
331.264511
 20
242.09178
 30
0.0
 11
331.264511
 21
237.940799
 31
0.0
  0
LINE
  5
B0
330
1F
100
AcDbEntity
  8
0
  6
Continuous
 62
     7
100
AcDbLine
 10
331.264511
 20
226.574638
 30
0.0
 11
331.264511
 21
222.032017
 31
0.0
  0
LINE
  5
B1
330
1F
100
AcDbEntity
  8
0
  6
Continuous
 62
     7
100
AcDbLine
 10
333.585826
 20
220.878406
 30
0.0
 11
331.264511
 21
222.032017
 31
0.0
  0
LINE
  5
B2
330
1F
100
AcDbEntity
  8
0
  6
Continuous
 62
     7
100
AcDbLine
 10
333.486822
 20
217.865204
 30
0.0
 11
333.585826
 21
220.878406
 31
0.0
  0
LINE
  5
B3
330
1F
100
AcDbEntity
  8
0
  6
Continuous
 62
     7
100
AcDbLine
 10
302.920115
 20
208.390947
 30
0.0
 11
302.843689
 21
220.772262
 31
0.0
  0
LINE
  5
B4
330
1F
100
AcDbEntity
  8
0
  6
Continuous
 62
     7
100
AcDbLine
 10
306.743103
 20
208.222912
 30
0.0
 11
302.920115
 21
208.390947
 31
0.0
  0
LINE
  5
B5
330
1F
100
AcDbEntity
  8
0
  6
Continuous
 62
     7
100
AcDbLine
 10
306.825216
 20
221.660557
 30
0.0
 11
306.743103
 21
208.222912
 31
0.0
  0
LINE
  5
B6
330
1F
100
AcDbEntity
  8
0
  6
Continuous
 62
     7
100
AcDbLine
 10
314.716279
 20
208.250147
 30
0.0
 11
314.636483
 21
221.534319
 31
0.0
  0
LINE
  5
B7
330
1F
100
AcDbEntity
  8
0
  6
Continuous
 62
     7
100
AcDbLine
 10
316.514591
 20
208.250457
 30
0.0
 11
314.716279
 21
208.250147
 31
0.0
  0
LINE
  5
B8
330
1F
100
AcDbEntity
  8
0
  6
Continuous
 62
     7
100
AcDbLine
 10
290.7282
 20
211.800672
 30
0.0
 11
292.156495
 21
212.040053
 31
0.0
  0
LINE
  5
B9
330
1F
100
AcDbEntity
  8
0
  6
Continuous
 62
     7
100
AcDbLine
 10
290.7282
 20
208.39123
 30
0.0
 11
290.7282
 21
211.800672
 31
0.0
  0
LINE
  5
BA
330
1F
100
AcDbEntity
  8
0
  6
Continuous
 62
     7
100
AcDbLine
 10
292.303629
 20
208.315651
 30
0.0
 11
290.7282
 21
208.39123
 31
0.0
  0
LINE
  5
BB
330
1F
100
AcDbEntity
  8
0
  6
Continuous
 62
     7
100
AcDbLine
 10
299.287396
 20
249.366021
 30
0.0
 11
299.287396
 21
232.081923
 31
0.0
  0
LINE
  5
BC
330
1F
100
AcDbEntity
  8
0
  6
Continuous
 62
     7
100
AcDbLine
 10
295.577127
 20
249.366021
 30
0.0
 11
299.287396
 21
249.366021
 31
0.0
  0
LINE
  5
BD
330
1F
100
AcDbEntity
  8
0
  6
Continuous
 62
     7
100
AcDbLine
 10
295.577127
 20
241.904554
 30
0.0
 11
295.577127
 21
249.366021
 31
0.0
  0
LINE
  5
BE
330
1F
100
AcDbEntity
  8
0
  6
Continuous
 62
     7
100
AcDbLine
 10
290.7282
 20
241.744534
 30
0.0
 11
295.577127
 21
241.904554
 31
0.0
  0
LINE
  5
BF
330
1F
100
AcDbEntity
  8
0
  6
Continuous
 62
     7
100
AcDbLine
 10
290.7282
 20
238.037856
 30
0.0
 11
290.7282
 21
241.744534
 31
0.0
  0
LINE
  5
C0
330
1F
100
AcDbEntity
  8
0
  6
Continuous
 62
     7
100
AcDbLine
 10
295.61956
 20
237.877215
 30
0.0
 11
290.7282
 21
238.037856
 31
0.0
  0
LINE
  5
C1
330
1F
100
AcDbEntity
  8
0
  6
Continuous
 62
     7
100
AcDbLine
 10
295.524781
 20
226.511477
 30
0.0
 11
295.61956
 21
237.877215
 31
0.0
  0
LINE
  5
C2
330
1F
100
AcDbEntity
  8
0
  6
Continuous
 62
     7
100
AcDbLine
 10
279.913999
 20
242.068553
 30
0.0
 11
279.913999
 21
238.030941
 31
0.0
  0
LINE
  5
C3
330
1F
100
AcDbEntity
  8
0
  6
Continuous
 62
     7
100
AcDbLine
 10
279.913999
 20
208.269027
 30
0.0
 11
279.912108
 21
208.269056
 31
0.0
  0
LINE
  5
C4
330
1F
100
AcDbEntity
  8
0
  6
Continuous
 62
     7
100
AcDbLine
 10
279.913999
 20
211.886524
 30
0.0
 11
279.913999
 21
208.269027
 31
0.0
  0
LINE
  5
C5
330
1F
100
AcDbEntity
  8
0
  6
Continuous
 62
     7
100
AcDbLine
 10
230.130322
 20
231.665673
 30
0.0
 11
228.39785
 21
231.581881
 31
0.0
  0
LINE
  5
C6
330
1F
100
AcDbEntity
  8
0
  6
Continuous
 62
     7
100
AcDbLine
 10
230.434744
 20
233.787843
 30
0.0
 11
230.130322
 21
231.665673
 31
0.0
  0
LINE
  5
C7
330
1F
100
AcDbEntity
  8
0
  6
Continuous
 62
     7
100
AcDbLine
 10
230.294564
 20
218.360786
 30
0.0
 11
230.294564
 21
217.335699
 31
0.0
  0
LINE
  5
C8
330
1F
100
AcDbEntity
  8
0
  6
Continuous
 62
     7
100
AcDbLine
 10
226.443289
 20
218.19213
 30
0.0
 11
230.294564
 21
218.360786
 31
0.0
  0
LINE
  5
C9
330
1F
100
AcDbEntity
  8
0
  6
Continuous
 62
     7
100
AcDbLine
 10
226.546303
 20
216.059828
 30
0.0
 11
226.443289
 21
218.19213
 31
0.0
  0
LINE
  5
CA
330
1F
100
AcDbEntity
  8
0
  6
Continuous
 62
     7
100
AcDbLine
 10
235.411998
 20
208.271455
 30
0.0
 11
232.097975
 21
208.268265
 31
0.0
  0
LINE
  5
CB
330
1F
100
AcDbEntity
  8
0
  6
Continuous
 62
     7
100
AcDbLine
 10
244.541429
 20
226.682616
 30
0.0
 11
244.643817
 21
231.434448
 31
0.0
  0
LINE
  5
CC
330
1F
100
AcDbEntity
  8
0
  6
Continuous
 62
     7
100
AcDbLine
 10
250.810344
 20
223.612039
 30
0.0
 11
244.541429
 21
226.682616
 31
0.0
  0
LINE
  5
CD
330
1F
100
AcDbEntity
  8
0
  6
Continuous
 62
     7
100
AcDbLine
 10
250.810344
 20
228.143991
 30
0.0
 11
250.810344
 21
223.612039
 31
0.0
  0
LINE
  5
CE
330
1F
100
AcDbEntity
  8
0
  6
Continuous
 62
     7
100
AcDbLine
 10
248.304823
 20
229.399231
 30
0.0
 11
250.810344
 21
228.143991
 31
0.0
  0
LINE
  5
CF
330
1F
100
AcDbEntity
  8
0
  6
Continuous
 62
     7
100
AcDbLine
 10
248.310129
 20
230.679955
 30
0.0
 11
248.304823
 21
229.399231
 31
0.0
  0
LINE
  5
D0
330
1F
100
AcDbEntity
  8
0
  6
Continuous
 62
     7
100
AcDbLine
 10
250.810344
 20
242.079786
 30
0.0
 11
250.810344
 21
238.024027
 31
0.0
  0
LINE
  5
D1
330
1F
100
AcDbEntity
  8
0
  6
Continuous
 62
     7
100
AcDbLine
 10
266.516508
 20
237.897704
 30
0.0
 11
264.199288
 21
237.897704
 31
0.0
  0
LINE
  5
D2
330
1F
100
AcDbEntity
  8
0
  6
Continuous
 62
     7
100
AcDbLine
 10
266.42616
 20
226.383969
 30
0.0
 11
266.516508
 21
237.897704
 31
0.0
  0
LINE
  5
D3
330
1F
100
AcDbEntity
  8
0
  6
Continuous
 62
     7
100
AcDbLine
 10
261.773554
 20
211.882149
 30
0.0
 11
263.156875
 21
212.065594
 31
0.0
  0
LINE
  5
D4
330
1F
100
AcDbEntity
  8
0
  6
Continuous
 62
     7
100
AcDbLine
 10
261.773554
 20
208.249159
 30
0.0
 11
261.773554
 21
211.882149
 31
0.0
  0
LINE
  5
D5
330
1F
100
AcDbEntity
  8
0
  6
Continuous
 62
     7
100
AcDbLine
 10
263.283333
 20
208.27851
 30
0.0
 11
261.773554
 21
208.249159
 31
0.0
  0
LINE
  5
D6
330
1F
100
AcDbEntity
  8
0
  6
Continuous
 62
     7
100
AcDbLine
 10
270.19405
 20
249.366021
 30
0.0
 11
270.19405
 21
231.906296
 31
0.0
  0
LINE
  5
D7
330
1F
100
AcDbEntity
  8
0
  6
Continuous
 62
     7
100
AcDbLine
 10
266.48379
 20
249.366021
 30
0.0
 11
270.19405
 21
249.366021
 31
0.0
  0
LINE
  5
D8
330
1F
100
AcDbEntity
  8
0
  6
Continuous
 62
     7
100
AcDbLine
 10
266.48379
 20
241.884911
 30
0.0
 11
266.48379
 21
249.366021
 31
0.0
  0
LINE
  5
D9
330
1F
100
AcDbEntity
  8
0
  6
Continuous
 62
     7
100
AcDbLine
 10
264.355281
 20
241.884911
 30
0.0
 11
266.48379
 21
241.884911
 31
0.0
  0
LINE
  5
DA
330
1F
100
AcDbEntity
  8
0
  6
Continuous
 62
     7
100
AcDbLine
 10
208.539438
 20
235.034842
 30
0.0
 11
208.548187
 21
235.637725
 31
0.0
  0
LINE
  5
DB
330
1F
100
AcDbEntity
  8
0
  6
Continuous
 62
     7
100
AcDbLine
 10
208.541132
 20
208.61204
 30
0.0
 11
208.539438
 21
235.034842
 31
0.0
  0
LINE
  5
DC
330
1F
100
AcDbEntity
  8
0
  6
Continuous
 62
     7
100
AcDbLine
 10
214.380806
 20
208.264314
 30
0.0
 11
214.22623
 21
208.261492
 31
0.0
  0
LINE
  5
DD
330
1F
100
AcDbEntity
  8
0
  6
Continuous
 62
     7
100
AcDbLine
 10
214.380806
 20
211.914718
 30
0.0
 11
214.380806
 21
208.264314
 31
0.0
  0
LINE
  5
DE
330
1F
100
AcDbEntity
  8
0
  6
Continuous
 62
     7
100
AcDbLine
 10
214.380806
 20
242.092825
 30
0.0
 11
214.380806
 21
238.063227
 31
0.0
  0
LINE
  5
DF
330
1F
100
AcDbEntity
  8
0
  6
Continuous
 62
     7
100
AcDbLine
 10
163.850676
 20
310.197131
 30
0.0
 11
163.850676
 21
304.197131
 31
0.0
  0
LINE
  5
E0
330
1F
100
AcDbEntity
  8
0
  6
Continuous
 62
     7
100
AcDbLine
 10
163.850676
 20
310.197131
 30
0.0
 11
213.850674
 21
310.197131
 31
0.0
  0
LINE
  5
E1
330
1F
100
AcDbEntity
  8
0
  6
Continuous
 62
     7
100
AcDbLine
 10
213.850674
 20
304.197131
 30
0.0
 11
213.850674
 21
310.197131
 31
0.0
  0
LINE
  5
E2
330
1F
100
AcDbEntity
  8
0
  6
Continuous
 62
     7
100
AcDbLine
 10
271.850675
 20
304.197131
 30
0.0
 11
213.850674
 21
304.197131
 31
0.0
  0
LINE
  5
E3
330
1F
100
AcDbEntity
  8
0
  6
Continuous
 62
     7
100
AcDbLine
 10
271.850675
 20
304.197131
 30
0.0
 11
271.850675
 21
310.197131
 31
0.0
  0
LINE
  5
E4
330
1F
100
AcDbEntity
  8
0
  6
Continuous
 62
     7
100
AcDbLine
 10
321.850675
 20
310.197131
 30
0.0
 11
271.850675
 21
310.197131
 31
0.0
  0
LINE
  5
E5
330
1F
100
AcDbEntity
  8
0
  6
Continuous
 62
     7
100
AcDbLine
 10
321.850675
 20
304.197131
 30
0.0
 11
321.850675
 21
310.197131
 31
0.0
  0
LINE
  5
E6
330
1F
100
AcDbEntity
  8
0
  6
Continuous
 62
     7
100
AcDbLine
 10
379.850675
 20
304.197131
 30
0.0
 11
321.850675
 21
304.197131
 31
0.0
  0
LINE
  5
E7
330
1F
100
AcDbEntity
  8
0
  6
Continuous
 62
     7
100
AcDbLine
 10
379.850675
 20
304.197131
 30
0.0
 11
379.850675
 21
310.197131
 31
0.0
  0
LINE
  5
E8
330
1F
100
AcDbEntity
  8
0
  6
Continuous
 62
     7
100
AcDbLine
 10
429.850674
 20
310.197131
 30
0.0
 11
379.850675
 21
310.197131
 31
0.0
  0
LINE
  5
E9
330
1F
100
AcDbEntity
  8
0
  6
Continuous
 62
     7
100
AcDbLine
 10
429.850674
 20
310.197131
 30
0.0
 11
429.850674
 21
254.19713
 31
0.0
  0
LINE
  5
EA
330
1F
100
AcDbEntity
  8
0
  6
Continuous
 62
     7
100
AcDbLine
 10
435.850673
 20
254.19713
 30
0.0
 11
429.850674
 21
254.19713
 31
0.0
  0
LINE
  5
EB
330
1F
100
AcDbEntity
  8
0
  6
Continuous
 62
     7
100
AcDbLine
 10
435.850673
 20
254.19713
 30
0.0
 11
435.850673
 21
204.197125
 31
0.0
  0
LINE
  5
EC
330
1F
100
AcDbEntity
  8
0
  6
Continuous
 62
     7
100
AcDbLine
 10
435.850673
 20
204.197125
 30
0.0
 11
429.850674
 21
204.197125
 31
0.0
  0
LINE
  5
ED
330
1F
100
AcDbEntity
  8
0
  6
Continuous
 62
     7
100
AcDbLine
 10
429.850674
 20
204.197125
 30
0.0
 11
429.850674
 21
148.197124
 31
0.0
  0
LINE
  5
EE
330
1F
100
AcDbEntity
  8
0
  6
Continuous
 62
     7
100
AcDbLine
 10
429.850674
 20
148.197124
 30
0.0
 11
379.850675
 21
148.197124
 31
0.0
  0
LINE
  5
EF
330
1F
100
AcDbEntity
  8
0
  6
Continuous
 62
     7
100
AcDbLine
 10
379.850675
 20
154.197141
 30
0.0
 11
379.850675
 21
148.197124
 31
0.0
  0
LINE
  5
F0
330
1F
100
AcDbEntity
  8
0
  6
Continuous
 62
     7
100
AcDbLine
 10
379.850675
 20
154.197141
 30
0.0
 11
321.850675
 21
154.197141
 31
0.0
  0
LINE
  5
F1
330
1F
100
AcDbEntity
  8
0
  6
Continuous
 62
     7
100
AcDbLine
 10
321.850675
 20
154.197141
 30
0.0
 11
321.850675
 21
148.197124
 31
0.0
  0
LINE
  5
F2
330
1F
100
AcDbEntity
  8
0
  6
Continuous
 62
     7
100
AcDbLine
 10
321.850675
 20
148.197124
 30
0.0
 11
271.850675
 21
148.197124
 31
0.0
  0
LINE
  5
F3
330
1F
100
AcDbEntity
  8
0
  6
Continuous
 62
     7
100
AcDbLine
 10
271.850675
 20
154.197141
 30
0.0
 11
271.850675
 21
148.197124
 31
0.0
  0
LINE
  5
F4
330
1F
100
AcDbEntity
  8
0
  6
Continuous
 62
     7
100
AcDbLine
 10
271.850675
 20
154.197141
 30
0.0
 11
213.850674
 21
154.197141
 31
0.0
  0
LINE
  5
F5
330
1F
100
AcDbEntity
  8
0
  6
Continuous
 62
     7
100
AcDbLine
 10
213.850674
 20
154.197141
 30
0.0
 11
213.850674
 21
148.197124
 31
0.0
  0
LINE
  5
F6
330
1F
100
AcDbEntity
  8
0
  6
Continuous
 62
     7
100
AcDbLine
 10
163.850676
 20
148.197124
 30
0.0
 11
213.850674
 21
148.197124
 31
0.0
  0
LINE
  5
F7
330
1F
100
AcDbEntity
  8
0
  6
Continuous
 62
     7
100
AcDbLine
 10
163.850676
 20
154.197141
 30
0.0
 11
163.850676
 21
148.197124
 31
0.0
  0
LINE
  5
F8
330
1F
100
AcDbEntity
  8
0
  6
Continuous
 62
     7
100
AcDbLine
 10
163.850676
 20
154.197141
 30
0.0
 11
149.850675
 21
154.197141
 31
0.0
  0
LINE
  5
F9
330
1F
100
AcDbEntity
  8
0
  6
Continuous
 62
     7
100
AcDbLine
 10
149.850675
 20
154.197141
 30
0.0
 11
149.850675
 21
304.197131
 31
0.0
  0
LINE
  5
FA
330
1F
100
AcDbEntity
  8
0
  6
Continuous
 62
     7
100
AcDbLine
 10
149.850675
 20
304.197131
 30
0.0
 11
163.850676
 21
304.197131
 31
0.0
  0
LINE
  5
FB
330
1F
100
AcDbEntity
  8
0
  6
Continuous
 62
     7
100
AcDbLine
 10
217.571419
 20
211.89849
 30
0.0
 11
217.571419
 21
208.277805
 31
0.0
  0
LINE
  5
FC
330
1F
100
AcDbEntity
  8
0
  6
Continuous
 62
     7
100
AcDbLine
 10
218.0756
 20
208.278482
 30
0.0
 11
217.571419
 21
208.277805
 31
0.0
  0
LINE
  5
FD
330
1F
100
AcDbEntity
  8
0
  6
Continuous
 62
     7
100
AcDbLine
 10
217.571419
 20
242.050915
 30
0.0
 11
217.571407
 21
237.967413
 31
0.0
  0
LINE
  5
FE
330
1F
100
AcDbEntity
  8
0
  6
Continuous
 62
     7
100
AcDbLine
 10
254.000957
 20
226.555475
 30
0.0
 11
254.000957
 21
222.049346
 31
0.0
  0
LINE
  5
FF
330
1F
100
AcDbEntity
  8
0
  6
Continuous
 62
     7
100
AcDbLine
 10
256.232053
 20
220.956581
 30
0.0
 11
254.000957
 21
222.049346
 31
0.0
  0
LINE
  5
100
330
1F
100
AcDbEntity
  8
0
  6
Continuous
 62
     7
100
AcDbLine
 10
256.23036
 20
218.318509
 30
0.0
 11
256.232053
 21
220.956581
 31
0.0
  0
LINE
  5
101
330
1F
100
AcDbEntity
  8
0
  6
Continuous
 62
     7
100
AcDbLine
 10
248.187297
 20
218.610017
 30
0.0
 11
248.484523
 21
216.5459
 31
0.0
  0
LINE
  5
102
330
1F
100
AcDbEntity
  8
0
  6
Continuous
 62
     7
100
AcDbLine
 10
244.524121
 20
218.610017
 30
0.0
 11
248.187297
 21
218.610017
 31
0.0
  0
LINE
  5
103
330
1F
100
AcDbEntity
  8
0
  6
Continuous
 62
     7
100
AcDbLine
 10
244.648668
 20
216.128973
 30
0.0
 11
244.524121
 21
218.610017
 31
0.0
  0
LINE
  5
104
330
1F
100
AcDbEntity
  8
0
  6
Continuous
 62
     7
100
AcDbLine
 10
251.437583
 20
208.268096
 30
0.0
 11
250.384841
 21
208.259347
 31
0.0
  0
LINE
  5
105
330
1F
100
AcDbEntity
  8
0
  6
Continuous
 62
     7
100
AcDbLine
 10
254.484573
 20
208.260279
 30
0.0
 11
253.376303
 21
208.268181
 31
0.0
  0
LINE
  5
106
330
1F
100
AcDbEntity
  8
0
  6
Continuous
 62
     7
100
AcDbLine
 10
254.000957
 20
242.050548
 30
0.0
 11
254.00116
 21
237.974073
 31
0.0
  0
LINE
  5
107
330
1F
100
AcDbEntity
  8
0
  6
Continuous
 62
     7
100
AcDbLine
 10
283.104612
 20
242.049927
 30
0.0
 11
283.104612
 21
237.97746
 31
0.0
  0
LINE
  5
108
330
1F
100
AcDbEntity
  8
0
  6
Continuous
 62
     7
100
AcDbLine
 10
283.104612
 20
211.981153
 30
0.0
 11
283.104612
 21
208.282602
 31
0.0
  0
LINE
  5
109
330
1F
100
AcDbEntity
  8
0
  6
Continuous
 62
     7
100
AcDbLine
 10
283.577671
 20
208.277776
 30
0.0
 11
283.104612
 21
208.282602
 31
0.0
  0
LINE
  5
10A
330
1F
100
AcDbEntity
  8
0
  6
Continuous
 62
     7
100
AcDbLine
 10
285.18667
 20
208.535135
 30
0.0
 11
285.18667
 21
208.548117
 31
0.0
  0
LINE
  5
10B
330
1F
100
AcDbEntity
  8
0
  6
Continuous
 62
     7
100
AcDbLine
 10
285.266875
 20
208.579472
 30
0.0
 11
285.18667
 21
208.535135
 31
0.0
  0
LINE
  5
10C
330
1F
100
AcDbEntity
  8
0
  6
Continuous
 62
     7
100
AcDbLine
 10
344.95368
 20
208.250203
 30
0.0
 11
344.663003
 21
209.609047
 31
0.0
  0
LINE
  5
10D
330
1F
100
AcDbEntity
  8
0
  6
Continuous
 62
     7
100
AcDbLine
 10
348.274465
 20
208.250203
 30
0.0
 11
344.95368
 21
208.250203
 31
0.0
  0
LINE
  5
10E
330
1F
100
AcDbEntity
  8
0
  6
Continuous
 62
     7
100
AcDbLine
 10
348.55354
 20
209.609357
 30
0.0
 11
348.274465
 21
208.250203
 31
0.0
  0
LINE
  5
10F
330
1F
100
AcDbEntity
  8
0
  6
Continuous
 62
     7
100
AcDbLine
 10
245.426885
 20
561.510604
 30
0.0
 11
245.147809
 21
560.15145
 31
0.0
  0
LINE
  5
110
330
1F
100
AcDbEntity
  8
0
  6
Continuous
 62
     7
100
AcDbLine
 10
248.747669
 20
561.510604
 30
0.0
 11
245.426885
 21
561.510604
 31
0.0
  0
LINE
  5
111
330
1F
100
AcDbEntity
  8
0
  6
Continuous
 62
     7
100
AcDbLine
 10
249.038347
 20
560.15176
 30
0.0
 11
248.747669
 21
561.510604
 31
0.0
  0
LINE
  5
112
330
1F
100
AcDbEntity
  8
0
  6
Continuous
 62
     7
100
AcDbLine
 10
268.091522
 20
540.361604
 30
0.0
 11
268.085793
 21
538.665223
 31
0.0
  0
LINE
  5
113
330
1F
100
AcDbEntity
  8
0
  6
Continuous
 62
     7
100
AcDbLine
 10
265.436838
 20
541.691492
 30
0.0
 11
268.091522
 21
540.361604
 31
0.0
  0
LINE
  5
114
330
1F
100
AcDbEntity
  8
0
  6
Continuous
 62
     7
100
AcDbLine
 10
265.436838
 20
546.237866
 30
0.0
 11
265.436838
 21
541.691492
 31
0.0
  0
LINE
  5
115
330
1F
100
AcDbEntity
  8
0
  6
Continuous
 62
     7
100
AcDbLine
 10
271.801497
 20
543.074888
 30
0.0
 11
265.436838
 21
546.237866
 31
0.0
  0
LINE
  5
116
330
1F
100
AcDbEntity
  8
0
  6
Continuous
 62
     7
100
AcDbLine
 10
271.801497
 20
538.839834
 30
0.0
 11
271.801497
 21
543.074888
 31
0.0
  0
LINE
  5
117
330
1F
100
AcDbEntity
  8
0
  6
Continuous
 62
     7
100
AcDbLine
 10
265.436838
 20
531.67963
 30
0.0
 11
265.436838
 21
527.690899
 31
0.0
  0
LINE
  5
118
330
1F
100
AcDbEntity
  8
0
  6
Continuous
 62
     7
100
AcDbLine
 10
260.115524
 20
548.882401
 30
0.0
 11
260.214528
 21
551.895603
 31
0.0
  0
LINE
  5
119
330
1F
100
AcDbEntity
  8
0
  6
Continuous
 62
     7
100
AcDbLine
 10
262.436839
 20
547.728789
 30
0.0
 11
260.115524
 21
548.882401
 31
0.0
  0
LINE
  5
11A
330
1F
100
AcDbEntity
  8
0
  6
Continuous
 62
     7
100
AcDbLine
 10
262.436839
 20
547.728789
 30
0.0
 11
262.436839
 21
543.186169
 31
0.0
  0
LINE
  5
11B
330
1F
100
AcDbEntity
  8
0
  6
Continuous
 62
     7
100
AcDbLine
 10
262.436661
 20
531.820007
 30
0.0
 11
262.436839
 21
527.669026
 31
0.0
  0
LINE
  5
11C
330
1F
100
AcDbEntity
  8
0
  6
Continuous
 62
     7
100
AcDbLine
 10
260.003691
 20
561.030346
 30
0.0
 11
259.92157
 21
560.980308
 31
0.0
  0
LINE
  5
11D
330
1F
100
AcDbEntity
  8
0
  6
Continuous
 62
     7
100
AcDbLine
 10
260.003691
 20
561.020214
 30
0.0
 11
260.003691
 21
561.030346
 31
0.0
  0
LINE
  5
11E
330
1F
100
AcDbEntity
  8
0
  6
Continuous
 62
     7
100
AcDbLine
 10
263.020494
 20
561.471939
 30
0.0
 11
261.91223
 21
561.490312
 31
0.0
  0
LINE
  5
11F
330
1F
100
AcDbEntity
  8
0
  6
Continuous
 62
     7
100
AcDbLine
 10
264.157748
 20
561.504762
 30
0.0
 11
263.020494
 21
561.471939
 31
0.0
  0
LINE
  5
120
330
1F
100
AcDbEntity
  8
0
  6
Continuous
 62
     7
100
AcDbLine
 10
271.801497
 20
551.150649
 30
0.0
 11
271.801497
 21
553.093806
 31
0.0
  0
LINE
  5
121
330
1F
100
AcDbEntity
  8
0
  6
Continuous
 62
     7
100
AcDbLine
 10
268.173144
 20
551.150649
 30
0.0
 11
271.801497
 21
551.150649
 31
0.0
  0
LINE
  5
122
330
1F
100
AcDbEntity
  8
0
  6
Continuous
 62
     7
100
AcDbLine
 10
267.979353
 20
553.069534
 30
0.0
 11
268.173144
 21
551.150649
 31
0.0
  0
LINE
  5
123
330
1F
100
AcDbEntity
  8
0
  6
Continuous
 62
     7
100
AcDbLine
 10
298.08179
 20
531.883592
 30
0.0
 11
298.176569
 21
543.24933
 31
0.0
  0
LINE
  5
124
330
1F
100
AcDbEntity
  8
0
  6
Continuous
 62
     7
100
AcDbLine
 10
300.474795
 20
531.80505
 30
0.0
 11
298.08179
 21
531.883592
 31
0.0
  0
LINE
  5
125
330
1F
100
AcDbEntity
  8
0
  6
Continuous
 62
     7
100
AcDbLine
 10
302.97315
 20
531.722951
 30
0.0
 11
300.474795
 21
531.80505
 31
0.0
  0
LINE
  5
126
330
1F
100
AcDbEntity
  8
0
  6
Continuous
 62
     7
100
AcDbLine
 10
302.97315
 20
528.016273
 30
0.0
 11
302.97315
 21
531.722951
 31
0.0
  0
LINE
  5
127
330
1F
100
AcDbEntity
  8
0
  6
Continuous
 62
     7
100
AcDbLine
 10
300.496326
 20
527.934569
 30
0.0
 11
302.97315
 21
528.016273
 31
0.0
  0
LINE
  5
128
330
1F
100
AcDbEntity
  8
0
  6
Continuous
 62
     7
100
AcDbLine
 10
298.124223
 20
527.856253
 30
0.0
 11
300.496326
 21
527.934569
 31
0.0
  0
LINE
  5
129
330
1F
100
AcDbEntity
  8
0
  6
Continuous
 62
     7
100
AcDbLine
 10
298.124223
 20
520.394785
 30
0.0
 11
298.124223
 21
527.856253
 31
0.0
  0
LINE
  5
12A
330
1F
100
AcDbEntity
  8
0
  6
Continuous
 62
     7
100
AcDbLine
 10
294.413954
 20
520.394785
 30
0.0
 11
298.124223
 21
520.394785
 31
0.0
  0
LINE
  5
12B
330
1F
100
AcDbEntity
  8
0
  6
Continuous
 62
     7
100
AcDbLine
 10
294.413954
 20
537.678884
 30
0.0
 11
294.413954
 21
520.394785
 31
0.0
  0
LINE
  5
12C
330
1F
100
AcDbEntity
  8
0
  6
Continuous
 62
     7
100
AcDbLine
 10
302.97315
 20
561.369577
 30
0.0
 11
301.397721
 21
561.4451
 31
0.0
  0
LINE
  5
12D
330
1F
100
AcDbEntity
  8
0
  6
Continuous
 62
     7
100
AcDbLine
 10
302.97315
 20
557.960135
 30
0.0
 11
302.97315
 21
561.369577
 31
0.0
  0
LINE
  5
12E
330
1F
100
AcDbEntity
  8
0
  6
Continuous
 62
     7
100
AcDbLine
 10
301.544855
 20
557.720754
 30
0.0
 11
302.97315
 21
557.960135
 31
0.0
  0
LINE
  5
12F
330
1F
100
AcDbEntity
  8
0
  6
Continuous
 62
     7
100
AcDbLine
 10
278.985071
 20
561.51066
 30
0.0
 11
277.186759
 21
561.51035
 31
0.0
  0
LINE
  5
130
330
1F
100
AcDbEntity
  8
0
  6
Continuous
 62
     7
100
AcDbLine
 10
279.064867
 20
548.226488
 30
0.0
 11
278.985071
 21
561.51066
 31
0.0
  0
LINE
  5
131
330
1F
100
AcDbEntity
  8
0
  6
Continuous
 62
     7
100
AcDbLine
 10
286.958247
 20
561.537894
 30
0.0
 11
286.876134
 21
548.10025
 31
0.0
  0
LINE
  5
132
330
1F
100
AcDbEntity
  8
0
  6
Continuous
 62
     7
100
AcDbLine
 10
288.872069
 20
561.453877
 30
0.0
 11
286.958247
 21
561.537894
 31
0.0
  0
LINE
  5
133
330
1F
100
AcDbEntity
  8
0
  6
Continuous
 62
     7
100
AcDbLine
 10
288.872069
 20
561.453877
 30
0.0
 11
290.781235
 21
561.369859
 31
0.0
  0
LINE
  5
134
330
1F
100
AcDbEntity
  8
0
  6
Continuous
 62
     7
100
AcDbLine
 10
290.857661
 20
548.988545
 30
0.0
 11
290.781235
 21
561.369859
 31
0.0
  0
LINE
  5
135
330
1F
100
AcDbEntity
  8
0
  6
Continuous
 62
     7
100
AcDbLine
 10
339.70019
 20
531.786733
 30
0.0
 11
339.700393
 21
527.710259
 31
0.0
  0
LINE
  5
136
330
1F
100
AcDbEntity
  8
0
  6
Continuous
 62
     7
100
AcDbLine
 10
340.325047
 20
561.492711
 30
0.0
 11
339.216636
 21
561.500528
 31
0.0
  0
LINE
  5
137
330
1F
100
AcDbEntity
  8
0
  6
Continuous
 62
     7
100
AcDbLine
 10
343.316509
 20
561.501572
 30
0.0
 11
342.263767
 21
561.492711
 31
0.0
  0
LINE
  5
138
330
1F
100
AcDbEntity
  8
0
  6
Continuous
 62
     7
100
AcDbLine
 10
349.177229
 20
551.15079
 30
0.0
 11
349.052682
 21
553.631834
 31
0.0
  0
LINE
  5
139
330
1F
100
AcDbEntity
  8
0
  6
Continuous
 62
     7
100
AcDbLine
 10
345.514052
 20
551.15079
 30
0.0
 11
349.177229
 21
551.15079
 31
0.0
  0
LINE
  5
13A
330
1F
100
AcDbEntity
  8
0
  6
Continuous
 62
     7
100
AcDbLine
 10
345.216827
 20
553.214907
 30
0.0
 11
345.514052
 21
551.15079
 31
0.0
  0
LINE
  5
13B
330
1F
100
AcDbEntity
  8
0
  6
Continuous
 62
     7
100
AcDbLine
 10
337.469297
 20
548.804225
 30
0.0
 11
337.471004
 21
551.442298
 31
0.0
  0
LINE
  5
13C
330
1F
100
AcDbEntity
  8
0
  6
Continuous
 62
     7
100
AcDbLine
 10
339.700393
 20
547.711461
 30
0.0
 11
337.469297
 21
548.804225
 31
0.0
  0
LINE
  5
13D
330
1F
100
AcDbEntity
  8
0
  6
Continuous
 62
     7
100
AcDbLine
 10
339.700393
 20
547.711461
 30
0.0
 11
339.700393
 21
543.205332
 31
0.0
  0
LINE
  5
13E
330
1F
100
AcDbEntity
  8
0
  6
Continuous
 62
     7
100
AcDbLine
 10
327.21756
 20
527.875895
 30
0.0
 11
329.346058
 21
527.875867
 31
0.0
  0
LINE
  5
13F
330
1F
100
AcDbEntity
  8
0
  6
Continuous
 62
     7
100
AcDbLine
 10
327.21756
 20
520.394785
 30
0.0
 11
327.21756
 21
527.875895
 31
0.0
  0
LINE
  5
140
330
1F
100
AcDbEntity
  8
0
  6
Continuous
 62
     7
100
AcDbLine
 10
323.5073
 20
520.394785
 30
0.0
 11
327.21756
 21
520.394785
 31
0.0
  0
LINE
  5
141
330
1F
100
AcDbEntity
  8
0
  6
Continuous
 62
     7
100
AcDbLine
 10
323.5073
 20
537.854511
 30
0.0
 11
323.5073
 21
520.394785
 31
0.0
  0
LINE
  5
142
330
1F
100
AcDbEntity
  8
0
  6
Continuous
 62
     7
100
AcDbLine
 10
331.927795
 20
561.511648
 30
0.0
 11
330.418017
 21
561.482297
 31
0.0
  0
LINE
  5
143
330
1F
100
AcDbEntity
  8
0
  6
Continuous
 62
     7
100
AcDbLine
 10
331.927795
 20
557.878658
 30
0.0
 11
331.927795
 21
561.511648
 31
0.0
  0
LINE
  5
144
330
1F
100
AcDbEntity
  8
0
  6
Continuous
 62
     7
100
AcDbLine
 10
330.544475
 20
557.695213
 30
0.0
 11
331.927795
 21
557.878658
 31
0.0
  0
LINE
  5
145
330
1F
100
AcDbEntity
  8
0
  6
Continuous
 62
     7
100
AcDbLine
 10
327.184842
 20
531.863103
 30
0.0
 11
327.27519
 21
543.376838
 31
0.0
  0
LINE
  5
146
330
1F
100
AcDbEntity
  8
0
  6
Continuous
 62
     7
100
AcDbLine
 10
329.502062
 20
531.863103
 30
0.0
 11
327.184842
 21
531.863103
 31
0.0
  0
LINE
  5
147
330
1F
100
AcDbEntity
  8
0
  6
Continuous
 62
     7
100
AcDbLine
 10
163.850676
 20
459.563676
 30
0.0
 11
213.850674
 21
459.563676
 31
0.0
  0
LINE
  5
148
330
1F
100
AcDbEntity
  8
0
  6
Continuous
 62
     7
100
AcDbLine
 10
213.850674
 20
465.563676
 30
0.0
 11
213.850674
 21
459.563676
 31
0.0
  0
LINE
  5
149
330
1F
100
AcDbEntity
  8
0
  6
Continuous
 62
     7
100
AcDbLine
 10
271.850675
 20
465.563676
 30
0.0
 11
213.850674
 21
465.563676
 31
0.0
  0
LINE
  5
14A
330
1F
100
AcDbEntity
  8
0
  6
Continuous
 62
     7
100
AcDbLine
 10
271.850675
 20
465.563676
 30
0.0
 11
271.850675
 21
459.563676
 31
0.0
  0
LINE
  5
14B
330
1F
100
AcDbEntity
  8
0
  6
Continuous
 62
     7
100
AcDbLine
 10
321.850675
 20
459.563676
 30
0.0
 11
271.850675
 21
459.563676
 31
0.0
  0
LINE
  5
14C
330
1F
100
AcDbEntity
  8
0
  6
Continuous
 62
     7
100
AcDbLine
 10
321.850675
 20
465.563676
 30
0.0
 11
321.850675
 21
459.563676
 31
0.0
  0
LINE
  5
14D
330
1F
100
AcDbEntity
  8
0
  6
Continuous
 62
     7
100
AcDbLine
 10
379.850675
 20
465.563676
 30
0.0
 11
321.850675
 21
465.563676
 31
0.0
  0
LINE
  5
14E
330
1F
100
AcDbEntity
  8
0
  6
Continuous
 62
     7
100
AcDbLine
 10
379.850675
 20
465.563676
 30
0.0
 11
379.850675
 21
459.563676
 31
0.0
  0
LINE
  5
14F
330
1F
100
AcDbEntity
  8
0
  6
Continuous
 62
     7
100
AcDbLine
 10
429.850674
 20
459.563676
 30
0.0
 11
379.850675
 21
459.563676
 31
0.0
  0
LINE
  5
150
330
1F
100
AcDbEntity
  8
0
  6
Continuous
 62
     7
100
AcDbLine
 10
429.850674
 20
459.563676
 30
0.0
 11
429.850674
 21
515.563677
 31
0.0
  0
LINE
  5
151
330
1F
100
AcDbEntity
  8
0
  6
Continuous
 62
     7
100
AcDbLine
 10
435.850673
 20
515.563677
 30
0.0
 11
429.850674
 21
515.563677
 31
0.0
  0
LINE
  5
152
330
1F
100
AcDbEntity
  8
0
  6
Continuous
 62
     7
100
AcDbLine
 10
435.850673
 20
515.563677
 30
0.0
 11
435.850673
 21
565.563682
 31
0.0
  0
LINE
  5
153
330
1F
100
AcDbEntity
  8
0
  6
Continuous
 62
     7
100
AcDbLine
 10
435.850673
 20
565.563682
 30
0.0
 11
429.850674
 21
565.563682
 31
0.0
  0
LINE
  5
154
330
1F
100
AcDbEntity
  8
0
  6
Continuous
 62
     7
100
AcDbLine
 10
429.850674
 20
565.563682
 30
0.0
 11
429.850674
 21
621.563682
 31
0.0
  0
LINE
  5
155
330
1F
100
AcDbEntity
  8
0
  6
Continuous
 62
     7
100
AcDbLine
 10
429.850674
 20
621.563682
 30
0.0
 11
379.850675
 21
621.563682
 31
0.0
  0
LINE
  5
156
330
1F
100
AcDbEntity
  8
0
  6
Continuous
 62
     7
100
AcDbLine
 10
379.850675
 20
615.563666
 30
0.0
 11
379.850675
 21
621.563682
 31
0.0
  0
LINE
  5
157
330
1F
100
AcDbEntity
  8
0
  6
Continuous
 62
     7
100
AcDbLine
 10
379.850675
 20
615.563666
 30
0.0
 11
321.850675
 21
615.563666
 31
0.0
  0
LINE
  5
158
330
1F
100
AcDbEntity
  8
0
  6
Continuous
 62
     7
100
AcDbLine
 10
321.850675
 20
615.563666
 30
0.0
 11
321.850675
 21
621.563682
 31
0.0
  0
LINE
  5
159
330
1F
100
AcDbEntity
  8
0
  6
Continuous
 62
     7
100
AcDbLine
 10
321.850675
 20
621.563682
 30
0.0
 11
271.850675
 21
621.563682
 31
0.0
  0
LINE
  5
15A
330
1F
100
AcDbEntity
  8
0
  6
Continuous
 62
     7
100
AcDbLine
 10
271.850675
 20
615.563666
 30
0.0
 11
271.850675
 21
621.563682
 31
0.0
  0
LINE
  5
15B
330
1F
100
AcDbEntity
  8
0
  6
Continuous
 62
     7
100
AcDbLine
 10
271.850675
 20
615.563666
 30
0.0
 11
213.850674
 21
615.563666
 31
0.0
  0
LINE
  5
15C
330
1F
100
AcDbEntity
  8
0
  6
Continuous
 62
     7
100
AcDbLine
 10
213.850674
 20
615.563666
 30
0.0
 11
213.850674
 21
621.563682
 31
0.0
  0
LINE
  5
15D
330
1F
100
AcDbEntity
  8
0
  6
Continuous
 62
     7
100
AcDbLine
 10
163.850676
 20
621.563682
 30
0.0
 11
213.850674
 21
621.563682
 31
0.0
  0
LINE
  5
15E
330
1F
100
AcDbEntity
  8
0
  6
Continuous
 62
     7
100
AcDbLine
 10
163.850676
 20
615.563666
 30
0.0
 11
163.850676
 21
621.563682
 31
0.0
  0
LINE
  5
15F
330
1F
100
AcDbEntity
  8
0
  6
Continuous
 62
     7
100
AcDbLine
 10
163.850676
 20
615.563666
 30
0.0
 11
149.850675
 21
615.563666
 31
0.0
  0
LINE
  5
160
330
1F
100
AcDbEntity
  8
0
  6
Continuous
 62
     7
100
AcDbLine
 10
149.850675
 20
615.563666
 30
0.0
 11
149.850675
 21
465.563676
 31
0.0
  0
LINE
  5
161
330
1F
100
AcDbEntity
  8
0
  6
Continuous
 62
     7
100
AcDbLine
 10
149.850675
 20
465.563676
 30
0.0
 11
163.850676
 21
465.563676
 31
0.0
  0
LINE
  5
162
330
1F
100
AcDbEntity
  8
0
  6
Continuous
 62
     7
100
AcDbLine
 10
163.850676
 20
459.563676
 30
0.0
 11
163.850676
 21
465.563676
 31
0.0
  0
LINE
  5
163
330
1F
100
AcDbEntity
  8
0
  6
Continuous
 62
     7
100
AcDbLine
 10
379.320544
 20
531.697579
 30
0.0
 11
379.320544
 21
527.667982
 31
0.0
  0
LINE
  5
164
330
1F
100
AcDbEntity
  8
0
  6
Continuous
 62
     7
100
AcDbLine
 10
379.320544
 20
561.496492
 30
0.0
 11
379.320544
 21
557.846089
 31
0.0
  0
LINE
  5
165
330
1F
100
AcDbEntity
  8
0
  6
Continuous
 62
     7
100
AcDbLine
 10
379.475119
 20
561.498581
 30
0.0
 11
379.320544
 21
561.496492
 31
0.0
  0
LINE
  5
166
330
1F
100
AcDbEntity
  8
0
  6
Continuous
 62
     7
100
AcDbLine
 10
385.161798
 20
534.725965
 30
0.0
 11
385.160105
 21
561.148766
 31
0.0
  0
LINE
  5
167
330
1F
100
AcDbEntity
  8
0
  6
Continuous
 62
     7
100
AcDbLine
 10
385.153154
 20
534.123082
 30
0.0
 11
385.161798
 21
534.725965
 31
0.0
  0
LINE
  5
168
330
1F
100
AcDbEntity
  8
0
  6
Continuous
 62
     7
100
AcDbLine
 10
376.129942
 20
531.793394
 30
0.0
 11
376.129931
 21
527.709892
 31
0.0
  0
LINE
  5
169
330
1F
100
AcDbEntity
  8
0
  6
Continuous
 62
     7
100
AcDbLine
 10
376.129931
 20
561.483002
 30
0.0
 11
375.625749
 21
561.482325
 31
0.0
  0
LINE
  5
16A
330
1F
100
AcDbEntity
  8
0
  6
Continuous
 62
     7
100
AcDbLine
 10
376.129931
 20
561.483002
 30
0.0
 11
376.129931
 21
557.862317
 31
0.0
  0
LINE
  5
16B
330
1F
100
AcDbEntity
  8
0
  6
Continuous
 62
     7
100
AcDbLine
 10
342.891006
 20
531.73678
 30
0.0
 11
342.891006
 21
527.681021
 31
0.0
  0
LINE
  5
16C
330
1F
100
AcDbEntity
  8
0
  6
Continuous
 62
     7
100
AcDbLine
 10
345.396526
 20
540.361576
 30
0.0
 11
345.391221
 21
539.080851
 31
0.0
  0
LINE
  5
16D
330
1F
100
AcDbEntity
  8
0
  6
Continuous
 62
     7
100
AcDbLine
 10
342.891006
 20
541.616816
 30
0.0
 11
345.396526
 21
540.361576
 31
0.0
  0
LINE
  5
16E
330
1F
100
AcDbEntity
  8
0
  6
Continuous
 62
     7
100
AcDbLine
 10
342.891006
 20
546.148768
 30
0.0
 11
342.891006
 21
541.616816
 31
0.0
  0
LINE
  5
16F
330
1F
100
AcDbEntity
  8
0
  6
Continuous
 62
     7
100
AcDbLine
 10
343.284006
 20
545.956293
 30
0.0
 11
342.891006
 21
546.148768
 31
0.0
  0
LINE
  5
170
330
1F
100
AcDbEntity
  8
0
  6
Continuous
 62
     7
100
AcDbLine
 10
349.15992
 20
543.07819
 30
0.0
 11
343.284006
 21
545.956293
 31
0.0
  0
LINE
  5
171
330
1F
100
AcDbEntity
  8
0
  6
Continuous
 62
     7
100
AcDbLine
 10
349.057533
 20
538.326358
 30
0.0
 11
349.15992
 21
543.07819
 31
0.0
  0
LINE
  5
172
330
1F
100
AcDbEntity
  8
0
  6
Continuous
 62
     7
100
AcDbLine
 10
361.603375
 20
561.491977
 30
0.0
 11
358.289352
 21
561.489352
 31
0.0
  0
LINE
  5
173
330
1F
100
AcDbEntity
  8
0
  6
Continuous
 62
     7
100
AcDbLine
 10
367.258061
 20
551.568677
 30
0.0
 11
367.155047
 21
553.700978
 31
0.0
  0
LINE
  5
174
330
1F
100
AcDbEntity
  8
0
  6
Continuous
 62
     7
100
AcDbLine
 10
365.33348
 20
551.484462
 30
0.0
 11
367.258061
 21
551.568677
 31
0.0
  0
LINE
  5
175
330
1F
100
AcDbEntity
  8
0
  6
Continuous
 62
     7
100
AcDbLine
 10
363.406786
 20
551.400021
 30
0.0
 11
365.33348
 21
551.484462
 31
0.0
  0
LINE
  5
176
330
1F
100
AcDbEntity
  8
0
  6
Continuous
 62
     7
100
AcDbLine
 10
363.406786
 20
552.425108
 30
0.0
 11
363.406786
 21
551.400021
 31
0.0
  0
LINE
  5
177
330
1F
100
AcDbEntity
  8
0
  6
Continuous
 62
     7
100
AcDbLine
 10
363.571028
 20
538.095134
 30
0.0
 11
363.266606
 21
535.972964
 31
0.0
  0
LINE
  5
178
330
1F
100
AcDbEntity
  8
0
  6
Continuous
 62
     7
100
AcDbLine
 10
365.3035
 20
538.178926
 30
0.0
 11
363.571028
 21
538.095134
 31
0.0
  0
LINE
  5
179
330
1F
100
AcDbEntity
  8
0
  6
Continuous
 62
     7
100
AcDbLine
 10
313.787351
 20
561.491779
 30
0.0
 11
313.787351
 21
557.874283
 31
0.0
  0
LINE
  5
17A
330
1F
100
AcDbEntity
  8
0
  6
Continuous
 62
     7
100
AcDbLine
 10
313.789246
 20
561.491751
 30
0.0
 11
313.787351
 21
561.491779
 31
0.0
  0
LINE
  5
17B
330
1F
100
AcDbEntity
  8
0
  6
Continuous
 62
     7
100
AcDbLine
 10
313.787351
 20
531.729866
 30
0.0
 11
313.787351
 21
527.692253
 31
0.0
  0
LINE
  5
17C
330
1F
100
AcDbEntity
  8
0
  6
Continuous
 62
     7
100
AcDbLine
 10
308.51468
 20
561.225672
 30
0.0
 11
308.434472
 21
561.181335
 31
0.0
  0
LINE
  5
17D
330
1F
100
AcDbEntity
  8
0
  6
Continuous
 62
     7
100
AcDbLine
 10
308.51468
 20
561.212803
 30
0.0
 11
308.51468
 21
561.225672
 31
0.0
  0
LINE
  5
17E
330
1F
100
AcDbEntity
  8
0
  6
Continuous
 62
     7
100
AcDbLine
 10
310.596737
 20
561.478317
 30
0.0
 11
310.123679
 21
561.48303
 31
0.0
  0
LINE
  5
17F
330
1F
100
AcDbEntity
  8
0
  6
Continuous
 62
     7
100
AcDbLine
 10
310.596737
 20
561.478317
 30
0.0
 11
310.596737
 21
557.779654
 31
0.0
  0
LINE
  5
180
330
1F
100
AcDbEntity
  8
0
  6
Continuous
 62
     7
100
AcDbLine
 10
310.596737
 20
531.783347
 30
0.0
 11
310.596737
 21
527.71088
 31
0.0
  0
LINE
  5
181
330
1F
100
AcDbEntity
  8
0
  6
Continuous
 62
     7
100
AcDbLine
 10
226.138074
 20
561.510688
 30
0.0
 11
224.260023
 21
561.510152
 31
0.0
  0
LINE
  5
182
330
1F
100
AcDbEntity
  8
0
  6
Continuous
 62
     7
100
AcDbLine
 10
226.138074
 20
548.226488
 30
0.0
 11
226.138074
 21
561.510688
 31
0.0
  0
LINE
  5
183
330
1F
100
AcDbEntity
  8
0
  6
Continuous
 62
     7
100
AcDbLine
 10
234.149889
 20
561.369888
 30
0.0
 11
234.010776
 21
548.01897
 31
0.0
  0
LINE
  5
184
330
1F
100
AcDbEntity
  8
0
  6
Continuous
 62
     7
100
AcDbLine
 10
234.149889
 20
561.369888
 30
0.0
 11
236.085651
 21
561.4543
 31
0.0
  0
LINE
  5
185
330
1F
100
AcDbEntity
  8
0
  6
Continuous
 62
     7
100
AcDbLine
 10
238.027123
 20
561.539193
 30
0.0
 11
236.085651
 21
561.4543
 31
0.0
  0
LINE
  5
186
330
1F
100
AcDbEntity
  8
0
  6
Continuous
 62
     7
100
AcDbLine
 10
237.943111
 20
547.684593
 30
0.0
 11
238.027123
 21
561.539193
 31
0.0
  0
LINE
  5
187
330
1F
100
AcDbEntity
  8
0
  6
Continuous
 62
     7
100
AcDbLine
 10
213.783951
 20
523.273743
 30
0.0
 11
211.62146
 21
523.273743
 31
0.0
  0
LINE
  5
188
330
1F
100
AcDbEntity
  8
0
  6
Continuous
 62
     7
100
AcDbLine
 10
213.783951
 20
542.153518
 30
0.0
 11
213.783951
 21
523.273743
 31
0.0
  0
LINE
  5
189
330
1F
100
AcDbEntity
  8
0
  6
Continuous
 62
     7
100
AcDbLine
 10
217.632576
 20
561.369436
 30
0.0
 11
215.907437
 21
561.452014
 31
0.0
  0
LINE
  5
18A
330
1F
100
AcDbEntity
  8
0
  6
Continuous
 62
     7
100
AcDbLine
 10
217.632576
 20
561.369436
 30
0.0
 11
217.703713
 21
540.467974
 31
0.0
  0
LINE
  5
18B
330
1F
100
AcDbEntity
  8
0
  6
Continuous
 62
     7
100
AcDbLine
 10
217.774853
 20
519.563551
 30
0.0
 11
217.703713
 21
540.467974
 31
0.0
  0
LINE
  5
18C
330
1F
100
AcDbEntity
  8
0
  6
Continuous
 62
     7
100
AcDbLine
 10
212.309318
 20
519.563551
 30
0.0
 11
217.774853
 21
519.563551
 31
0.0
  0
LINE
  5
18D
330
1F
100
AcDbEntity
  8
0
  6
Continuous
 62
     7
100
AcDbLine
 10
212.309222
 20
519.563692
 30
0.0
 11
212.309318
 21
519.563551
 31
0.0
  0
LINE
  5
18E
330
1F
100
AcDbEntity
  8
0
  6
Continuous
 62
     7
100
AcDbLine
 10
210.830267
 20
521.024494
 30
0.0
 11
212.309222
 21
519.563692
 31
0.0
  0
LINE
  5
18F
330
1F
100
AcDbEntity
  8
0
  6
Continuous
 62
     7
100
AcDbLine
 10
213.850675
 20
319.148805
 30
0.0
 11
163.850676
 21
319.148805
 31
0.0
  0
LINE
  5
190
330
1F
100
AcDbEntity
  8
0
  6
Continuous
 62
     7
100
AcDbLine
 10
163.850676
 20
319.148805
 30
0.0
 11
163.850676
 21
313.148788
 31
0.0
  0
LINE
  5
191
330
1F
100
AcDbEntity
  8
0
  6
Continuous
 62
     7
100
AcDbLine
 10
163.850676
 20
313.148788
 30
0.0
 11
149.850676
 21
313.148788
 31
0.0
  0
LINE
  5
192
330
1F
100
AcDbEntity
  8
0
  6
Continuous
 62
     7
100
AcDbLine
 10
149.850676
 20
313.148788
 30
0.0
 11
149.850676
 21
460.148796
 31
0.0
  0
LINE
  5
193
330
1F
100
AcDbEntity
  8
0
  6
Continuous
 62
     7
100
AcDbLine
 10
149.850676
 20
460.148796
 30
0.0
 11
163.850676
 21
460.148796
 31
0.0
  0
LINE
  5
194
330
1F
100
AcDbEntity
  8
0
  6
Continuous
 62
     7
100
AcDbLine
 10
163.850676
 20
460.148796
 30
0.0
 11
163.850676
 21
454.148794
 31
0.0
  0
LINE
  5
195
330
1F
100
AcDbEntity
  8
0
  6
Continuous
 62
     7
100
AcDbLine
 10
213.850675
 20
454.148794
 30
0.0
 11
163.850676
 21
454.148794
 31
0.0
  0
LINE
  5
196
330
1F
100
AcDbEntity
  8
0
  6
Continuous
 62
     7
100
AcDbLine
 10
213.850675
 20
454.148794
 30
0.0
 11
213.850675
 21
460.148796
 31
0.0
  0
LINE
  5
197
330
1F
100
AcDbEntity
  8
0
  6
Continuous
 62
     7
100
AcDbLine
 10
213.850675
 20
460.148796
 30
0.0
 11
271.850676
 21
460.148796
 31
0.0
  0
LINE
  5
198
330
1F
100
AcDbEntity
  8
0
  6
Continuous
 62
     7
100
AcDbLine
 10
271.850676
 20
460.148796
 30
0.0
 11
271.850676
 21
454.148794
 31
0.0
  0
LINE
  5
199
330
1F
100
AcDbEntity
  8
0
  6
Continuous
 62
     7
100
AcDbLine
 10
321.850676
 20
454.148794
 30
0.0
 11
271.850676
 21
454.148794
 31
0.0
  0
LINE
  5
19A
330
1F
100
AcDbEntity
  8
0
  6
Continuous
 62
     7
100
AcDbLine
 10
321.850676
 20
454.148794
 30
0.0
 11
321.850676
 21
460.148796
 31
0.0
  0
LINE
  5
19B
330
1F
100
AcDbEntity
  8
0
  6
Continuous
 62
     7
100
AcDbLine
 10
321.850676
 20
460.148796
 30
0.0
 11
379.850676
 21
460.148796
 31
0.0
  0
LINE
  5
19C
330
1F
100
AcDbEntity
  8
0
  6
Continuous
 62
     7
100
AcDbLine
 10
379.850676
 20
460.148796
 30
0.0
 11
379.850676
 21
454.148794
 31
0.0
  0
LINE
  5
19D
330
1F
100
AcDbEntity
  8
0
  6
Continuous
 62
     7
100
AcDbLine
 10
429.850675
 20
454.148794
 30
0.0
 11
379.850676
 21
454.148794
 31
0.0
  0
LINE
  5
19E
330
1F
100
AcDbEntity
  8
0
  6
Continuous
 62
     7
100
AcDbLine
 10
429.850675
 20
454.148794
 30
0.0
 11
429.850675
 21
411.648795
 31
0.0
  0
LINE
  5
19F
330
1F
100
AcDbEntity
  8
0
  6
Continuous
 62
     7
100
AcDbLine
 10
429.850675
 20
411.648795
 30
0.0
 11
435.850674
 21
411.648795
 31
0.0
  0
LINE
  5
1A0
330
1F
100
AcDbEntity
  8
0
  6
Continuous
 62
     7
100
AcDbLine
 10
435.850674
 20
411.648795
 30
0.0
 11
435.850674
 21
361.64879
 31
0.0
  0
LINE
  5
1A1
330
1F
100
AcDbEntity
  8
0
  6
Continuous
 62
     7
100
AcDbLine
 10
435.850674
 20
361.64879
 30
0.0
 11
429.850675
 21
361.64879
 31
0.0
  0
LINE
  5
1A2
330
1F
100
AcDbEntity
  8
0
  6
Continuous
 62
     7
100
AcDbLine
 10
429.850675
 20
361.64879
 30
0.0
 11
429.850675
 21
319.148805
 31
0.0
  0
LINE
  5
1A3
330
1F
100
AcDbEntity
  8
0
  6
Continuous
 62
     7
100
AcDbLine
 10
429.850675
 20
319.148805
 30
0.0
 11
379.850676
 21
319.148805
 31
0.0
  0
LINE
  5
1A4
330
1F
100
AcDbEntity
  8
0
  6
Continuous
 62
     7
100
AcDbLine
 10
379.850676
 20
319.148805
 30
0.0
 11
379.850676
 21
313.148788
 31
0.0
  0
LINE
  5
1A5
330
1F
100
AcDbEntity
  8
0
  6
Continuous
 62
     7
100
AcDbLine
 10
379.850676
 20
313.148788
 30
0.0
 11
321.850676
 21
313.148788
 31
0.0
  0
LINE
  5
1A6
330
1F
100
AcDbEntity
  8
0
  6
Continuous
 62
     7
100
AcDbLine
 10
321.850676
 20
313.148788
 30
0.0
 11
321.850676
 21
319.148805
 31
0.0
  0
LINE
  5
1A7
330
1F
100
AcDbEntity
  8
0
  6
Continuous
 62
     7
100
AcDbLine
 10
321.850676
 20
319.148805
 30
0.0
 11
271.850676
 21
319.148805
 31
0.0
  0
LINE
  5
1A8
330
1F
100
AcDbEntity
  8
0
  6
Continuous
 62
     7
100
AcDbLine
 10
271.850676
 20
319.148805
 30
0.0
 11
271.850676
 21
313.148788
 31
0.0
  0
LINE
  5
1A9
330
1F
100
AcDbEntity
  8
0
  6
Continuous
 62
     7
100
AcDbLine
 10
271.850676
 20
313.148788
 30
0.0
 11
213.850675
 21
313.148788
 31
0.0
  0
LINE
  5
1AA
330
1F
100
AcDbEntity
  8
0
  6
Continuous
 62
     7
100
AcDbLine
 10
213.850675
 20
313.148788
 30
0.0
 11
213.850675
 21
319.148805
 31
0.0
  0
LINE
  5
1AB
330
1F
100
AcDbEntity
  8
0
  6
Continuous
 62
     7
100
AcDbLine
 10
414.850677
 20
446.648795
 30
0.0
 11
414.850677
 21
326.648804
 31
0.0
  0
LINE
  5
1AC
330
1F
100
AcDbEntity
  8
0
  6
Continuous
 62
     7
100
AcDbLine
 10
414.850677
 20
446.648795
 30
0.0
 11
408.900676
 21
446.648795
 31
0.0
  0
LINE
  5
1AD
330
1F
100
AcDbEntity
  8
0
  6
Continuous
 62
     7
100
AcDbLine
 10
408.900676
 20
446.648795
 30
0.0
 11
408.900676
 21
326.648804
 31
0.0
  0
LINE
  5
1AE
330
1F
100
AcDbEntity
  8
0
  6
Continuous
 62
     7
100
AcDbLine
 10
414.850677
 20
326.648804
 30
0.0
 11
408.900676
 21
326.648804
 31
0.0
  0
LINE
  5
1AF
330
1F
100
AcDbEntity
  8
0
  6
Continuous
 62
     7
100
AcDbLine
 10
159.800675
 20
319.148805
 30
0.0
 11
153.850677
 21
319.148805
 31
0.0
  0
LINE
  5
1B0
330
1F
100
AcDbEntity
  8
0
  6
Continuous
 62
     7
100
AcDbLine
 10
159.800675
 20
454.148794
 30
0.0
 11
159.800675
 21
319.148805
 31
0.0
  0
LINE
  5
1B1
330
1F
100
AcDbEntity
  8
0
  6
Continuous
 62
     7
100
AcDbLine
 10
153.850677
 20
454.148794
 30
0.0
 11
159.800675
 21
454.148794
 31
0.0
  0
LINE
  5
1B2
330
1F
100
AcDbEntity
  8
0
  6
Continuous
 62
     7
100
AcDbLine
 10
153.850677
 20
319.148805
 30
0.0
 11
153.850677
 21
454.148794
 31
0.0
  0
LINE
  5
1B3
330
1F
100
AcDbEntity
  8
0
  6
Continuous
 62
     7
100
AcDbLine
 10
353.847127
 20
394.296542
 30
0.0
 11
352.376222
 21
394.296542
 31
0.0
  0
LINE
  5
1B4
330
1F
100
AcDbEntity
  8
0
  6
Continuous
 62
     7
100
AcDbLine
 10
352.376222
 20
394.296542
 30
0.0
 11
352.253232
 21
394.049171
 31
0.0
  0
LINE
  5
1B5
330
1F
100
AcDbEntity
  8
0
  6
Continuous
 62
     7
100
AcDbLine
 10
350.167311
 20
387.746822
 30
0.0
 11
348.204382
 21
381.69186
 31
0.0
  0
LINE
  5
1B6
330
1F
100
AcDbEntity
  8
0
  6
Continuous
 62
     7
100
AcDbLine
 10
348.204382
 20
381.69186
 30
0.0
 11
346.103604
 21
387.994192
 31
0.0
  0
LINE
  5
1B7
330
1F
100
AcDbEntity
  8
0
  6
Continuous
 62
     7
100
AcDbLine
 10
346.103604
 20
387.994192
 30
0.0
 11
344.002812
 21
394.296542
 31
0.0
  0
LINE
  5
1B8
330
1F
100
AcDbEntity
  8
0
  6
Continuous
 62
     7
100
AcDbLine
 10
344.002812
 20
394.296542
 30
0.0
 11
342.53038
 21
394.296542
 31
0.0
  0
LINE
  5
1B9
330
1F
100
AcDbEntity
  8
0
  6
Continuous
 62
     7
100
AcDbLine
 10
342.53038
 20
394.296542
 30
0.0
 11
341.057936
 21
394.296542
 31
0.0
  0
LINE
  5
1BA
330
1F
100
AcDbEntity
  8
0
  6
Continuous
 62
     7
100
AcDbLine
 10
341.057936
 20
394.296542
 30
0.0
 11
341.057936
 21
394.024406
 31
0.0
  0
LINE
  5
1BB
330
1F
100
AcDbEntity
  8
0
  6
Continuous
 62
     7
100
AcDbLine
 10
346.64297
 20
378.321026
 30
0.0
 11
346.728786
 21
378.182161
 31
0.0
  0
LINE
  5
1BC
330
1F
100
AcDbEntity
  8
0
  6
Continuous
 62
     7
100
AcDbLine
 10
346.728786
 20
378.182161
 30
0.0
 11
348.278383
 21
378.182161
 31
0.0
  0
LINE
  5
1BD
330
1F
100
AcDbEntity
  8
0
  6
Continuous
 62
     7
100
AcDbLine
 10
348.278383
 20
378.182161
 30
0.0
 11
349.44144137
 21
378.182161
 31
0.0
  0
LINE
  5
1BE
330
1F
100
AcDbEntity
  8
0
  6
Continuous
 62
     7
100
AcDbLine
 10
349.543966
 20
378.454198
 30
0.0
 11
349.44144137
 21
378.182161
 31
0.0
  0
LINE
  5
1BF
330
1F
100
AcDbEntity
  8
0
  6
Continuous
 62
     7
100
AcDbLine
 10
355.020381
 20
393.943157
 30
0.0
 11
355.153548
 21
394.236536
 31
0.0
  0
LINE
  5
1C0
330
1F
100
AcDbEntity
  8
0
  6
Continuous
 62
     7
100
AcDbLine
 10
88.07822
 20
527.175437
 30
0.0
 11
88.126762
 21
528.806173
 31
0.0
  0
LINE
  5
1C1
330
1F
100
AcDbEntity
  8
0
  6
Continuous
 62
     7
100
AcDbLine
 10
88.119735
 20
537.855347
 30
0.0
 11
88.079179
 21
539.0829
 31
0.0
  0
LINE
  5
1C2
330
1F
100
AcDbEntity
  8
0
  6
Continuous
 62
     7
100
AcDbLine
 10
90.321915
 20
540.19638
 30
0.0
 11
90.274388
 21
539.039156
 31
0.0
  0
LINE
  5
1C3
330
1F
100
AcDbEntity
  8
0
  6
Continuous
 62
     7
100
AcDbLine
 10
348.193626
 20
380.726538
 30
0.0
 11
348.402973
 21
380.726538
 31
0.0
  0
LINE
  5
1C4
330
1F
100
AcDbEntity
  8
0
  6
Continuous
 62
     7
100
AcDbLine
 10
348.402973
 20
380.726538
 30
0.0
 11
348.490044
 21
381.11526
 31
0.0
  0
LINE
  5
1C5
330
1F
100
AcDbEntity
  8
0
  6
Continuous
 62
     7
100
AcDbLine
 10
72.8164304404
 20
351.8002095067
 30
0.0
 11
72.8705604404
 21
351.8570485067
 31
0.0
  0
LINE
  5
1C6
330
1F
100
AcDbEntity
  8
0
  6
Continuous
 62
     7
100
AcDbLine
 10
355.020381
 20
393.943157
 30
0.0
 11
352.350765
 21
386.380708
 31
0.0
  0
LINE
  5
1C7
330
1F
100
AcDbEntity
  8
0
  6
Continuous
 62
     7
100
AcDbLine
 10
349.612566
 20
378.63622
 30
0.0
 11
349.543966
 21
378.454198
 31
0.0
  0
LINE
  5
1C8
330
1F
100
AcDbEntity
  8
0
  6
Continuous
 62
     7
100
AcDbLine
 10
86.8842335901
 20
371.0811387244
 30
0.0
 11
88.1553345901
 21
371.7011527244
 31
0.0
  0
LINE
  5
1C9
330
1F
100
AcDbEntity
  8
0
  6
Continuous
 62
     7
100
AcDbLine
 10
339.124452
 20
386.490978
 30
0.0
 11
336.197785
 21
394.305054
 31
0.0
  0
LINE
  5
1CA
330
1F
100
AcDbEntity
  8
0
  6
Continuous
 62
     7
100
AcDbLine
 10
336.197785
 20
394.305054
 30
0.0
 11
334.575092
 21
394.265464
 31
0.0
  0
LINE
  5
1CB
330
1F
100
AcDbEntity
  8
0
  6
Continuous
 62
     7
100
AcDbLine
 10
334.575092
 20
394.265464
 30
0.0
 11
332.952404
 21
394.225865
 31
0.0
  0
LINE
  5
1CC
330
1F
100
AcDbEntity
  8
0
  6
Continuous
 62
     7
100
AcDbLine
 10
332.952404
 20
394.225865
 30
0.0
 11
330.008208
 21
386.317025
 31
0.0
  0
LINE
  5
1CD
330
1F
100
AcDbEntity
  8
0
  6
Continuous
 62
     7
100
AcDbLine
 10
330.008208
 20
386.317025
 30
0.0
 11
327.06401
 21
378.408187
 31
0.0
  0
LINE
  5
1CE
330
1F
100
AcDbEntity
  8
0
  6
Continuous
 62
     7
100
AcDbLine
 10
327.06401
 20
378.408187
 30
0.0
 11
327.182227
 21
378.289973
 31
0.0
  0
LINE
  5
1CF
330
1F
100
AcDbEntity
  8
0
  6
Continuous
 62
     7
100
AcDbLine
 10
328.771937
 20
378.212297
 30
0.0
 11
330.243449
 21
378.252841
 31
0.0
  0
LINE
  5
1D0
330
1F
100
AcDbEntity
  8
0
  6
Continuous
 62
     7
100
AcDbLine
 10
330.243449
 20
378.252841
 30
0.0
 11
330.953783
 21
380.231797
 31
0.0
  0
LINE
  5
1D1
330
1F
100
AcDbEntity
  8
0
  6
Continuous
 62
     7
100
AcDbLine
 10
330.953783
 20
380.231797
 30
0.0
 11
331.664116
 21
382.210756
 31
0.0
  0
LINE
  5
1D2
330
1F
100
AcDbEntity
  8
0
  6
Continuous
 62
     7
100
AcDbLine
 10
331.664116
 20
382.210756
 30
0.0
 11
334.645627
 21
382.248853
 31
0.0
  0
LINE
  5
1D3
330
1F
100
AcDbEntity
  8
0
  6
Continuous
 62
     7
100
AcDbLine
 10
334.645627
 20
382.248853
 30
0.0
 11
337.627144
 21
382.286948
 31
0.0
  0
LINE
  5
1D4
330
1F
100
AcDbEntity
  8
0
  6
Continuous
 62
     7
100
AcDbLine
 10
337.627144
 20
382.286948
 30
0.0
 11
338.317559
 21
380.234554
 31
0.0
  0
LINE
  5
1D5
330
1F
100
AcDbEntity
  8
0
  6
Continuous
 62
     7
100
AcDbLine
 10
338.317559
 20
380.234554
 30
0.0
 11
339.007962
 21
378.182161
 31
0.0
  0
LINE
  5
1D6
330
1F
100
AcDbEntity
  8
0
  6
Continuous
 62
     7
100
AcDbLine
 10
339.007962
 20
378.182161
 30
0.0
 11
340.527689
 21
378.182161
 31
0.0
  0
LINE
  5
1D7
330
1F
100
AcDbEntity
  8
0
  6
Continuous
 62
     7
100
AcDbLine
 10
340.527689
 20
378.182161
 30
0.0
 11
342.047416
 21
378.182161
 31
0.0
  0
LINE
  5
1D8
330
1F
100
AcDbEntity
  8
0
  6
Continuous
 62
     7
100
AcDbLine
 10
342.047416
 20
378.182161
 30
0.0
 11
342.049109
 21
378.429532
 31
0.0
  0
LINE
  5
1D9
330
1F
100
AcDbEntity
  8
0
  6
Continuous
 62
     7
100
AcDbLine
 10
342.049109
 20
378.429532
 30
0.0
 11
342.04927
 21
378.429534
 31
0.0
  0
LINE
  5
1DA
330
1F
100
AcDbEntity
  8
0
  6
Continuous
 62
     7
100
AcDbLine
 10
325.226266
 20
386.239354
 30
0.0
 11
325.226266
 21
394.296545
 31
0.0
  0
LINE
  5
1DB
330
1F
100
AcDbEntity
  8
0
  6
Continuous
 62
     7
100
AcDbLine
 10
325.226266
 20
394.296545
 30
0.0
 11
322.15181
 21
394.294569
 31
0.0
  0
LINE
  5
1DC
330
1F
100
AcDbEntity
  8
0
  6
Continuous
 62
     7
100
AcDbLine
 10
322.15181
 20
394.294569
 30
0.0
 11
319.077355
 21
394.292594
 31
0.0
  0
LINE
  5
1DD
330
1F
100
AcDbEntity
  8
0
  6
Continuous
 62
     7
100
AcDbLine
 10
319.077355
 20
394.292594
 30
0.0
 11
318.160463
 21
394.07649
 31
0.0
  0
LINE
  5
1DE
330
1F
100
AcDbEntity
  8
0
  6
Continuous
 62
     7
100
AcDbLine
 10
314.80538
 20
391.511604
 30
0.0
 11
314.467853
 21
390.774344
 31
0.0
  0
LINE
  5
1DF
330
1F
100
AcDbEntity
  8
0
  6
Continuous
 62
     7
100
AcDbLine
 10
314.467853
 20
390.774344
 30
0.0
 11
314.387536
 21
389.814489
 31
0.0
  0
LINE
  5
1E0
330
1F
100
AcDbEntity
  8
0
  6
Continuous
 62
     7
100
AcDbLine
 10
314.387536
 20
389.814489
 30
0.0
 11
314.307218
 21
388.85464
 31
0.0
  0
LINE
  5
1E1
330
1F
100
AcDbEntity
  8
0
  6
Continuous
 62
     7
100
AcDbLine
 10
314.307218
 20
388.85464
 30
0.0
 11
314.541553
 21
387.940531
 31
0.0
  0
LINE
  5
1E2
330
1F
100
AcDbEntity
  8
0
  6
Continuous
 62
     7
100
AcDbLine
 10
318.370586
 20
384.16961
 30
0.0
 11
319.077355
 21
383.981269
 31
0.0
  0
LINE
  5
1E3
330
1F
100
AcDbEntity
  8
0
  6
Continuous
 62
     7
100
AcDbLine
 10
319.077355
 20
383.981269
 30
0.0
 11
320.667593
 21
383.979575
 31
0.0
  0
LINE
  5
1E4
330
1F
100
AcDbEntity
  8
0
  6
Continuous
 62
     7
100
AcDbLine
 10
320.667593
 20
383.979575
 30
0.0
 11
322.257827
 21
383.977882
 31
0.0
  0
LINE
  5
1E5
330
1F
100
AcDbEntity
  8
0
  6
Continuous
 62
     7
100
AcDbLine
 10
322.257827
 20
383.977882
 30
0.0
 11
322.257827
 21
381.08012
 31
0.0
  0
LINE
  5
1E6
330
1F
100
AcDbEntity
  8
0
  6
Continuous
 62
     7
100
AcDbLine
 10
322.257827
 20
381.08012
 30
0.0
 11
322.257827
 21
378.182359
 31
0.0
  0
LINE
  5
1E7
330
1F
100
AcDbEntity
  8
0
  6
Continuous
 62
     7
100
AcDbLine
 10
322.257827
 20
378.182359
 30
0.0
 11
323.742045
 21
378.182359
 31
0.0
  0
LINE
  5
1E8
330
1F
100
AcDbEntity
  8
0
  6
Continuous
 62
     7
100
AcDbLine
 10
323.742045
 20
378.182359
 30
0.0
 11
325.226266
 21
378.182359
 31
0.0
  0
LINE
  5
1E9
330
1F
100
AcDbEntity
  8
0
  6
Continuous
 62
     7
100
AcDbLine
 10
325.226266
 20
378.182359
 30
0.0
 11
325.226266
 21
386.239549
 31
0.0
  0
LINE
  5
1EA
330
1F
100
AcDbEntity
  8
0
  6
Continuous
 62
     7
100
AcDbLine
 10
325.226266
 20
386.239549
 30
0.0
 11
325.226266
 21
386.239354
 31
0.0
  0
LINE
  5
1EB
330
1F
100
AcDbEntity
  8
0
  6
Continuous
 62
     7
100
AcDbLine
 10
311.938967
 20
386.250225
 30
0.0
 11
311.938967
 21
394.318301
 31
0.0
  0
LINE
  5
1EC
330
1F
100
AcDbEntity
  8
0
  6
Continuous
 62
     7
100
AcDbLine
 10
311.938967
 20
394.318301
 30
0.0
 11
308.44045
 21
394.2644
 31
0.0
  0
LINE
  5
1ED
330
1F
100
AcDbEntity
  8
0
  6
Continuous
 62
     7
100
AcDbLine
 10
308.44045
 20
394.2644
 30
0.0
 11
304.941936
 21
394.210504
 31
0.0
  0
LINE
  5
1EE
330
1F
100
AcDbEntity
  8
0
  6
Continuous
 62
     7
100
AcDbLine
 10
304.941936
 20
394.210504
 30
0.0
 11
304.232167
 21
393.959797
 31
0.0
  0
LINE
  5
1EF
330
1F
100
AcDbEntity
  8
0
  6
Continuous
 62
     7
100
AcDbLine
 10
302.8893
 20
393.249478
 30
0.0
 11
302.256205
 21
392.789865
 31
0.0
  0
LINE
  5
1F0
330
1F
100
AcDbEntity
  8
0
  6
Continuous
 62
     7
100
AcDbLine
 10
302.256205
 20
392.789865
 30
0.0
 11
301.832141
 21
392.023654
 31
0.0
  0
LINE
  5
1F1
330
1F
100
AcDbEntity
  8
0
  6
Continuous
 62
     7
100
AcDbLine
 10
301.832141
 20
392.023654
 30
0.0
 11
301.408079
 21
391.257429
 31
0.0
  0
LINE
  5
1F2
330
1F
100
AcDbEntity
  8
0
  6
Continuous
 62
     7
100
AcDbLine
 10
301.408079
 20
391.257429
 30
0.0
 11
301.408192
 21
389.843888
 31
0.0
  0
LINE
  5
1F3
330
1F
100
AcDbEntity
  8
0
  6
Continuous
 62
     7
100
AcDbLine
 10
301.408192
 20
389.843888
 30
0.0
 11
301.408291
 21
388.430344
 31
0.0
  0
LINE
  5
1F4
330
1F
100
AcDbEntity
  8
0
  6
Continuous
 62
     7
100
AcDbLine
 10
301.408291
 20
388.430344
 30
0.0
 11
301.784293
 21
387.723572
 31
0.0
  0
LINE
  5
1F5
330
1F
100
AcDbEntity
  8
0
  6
Continuous
 62
     7
100
AcDbLine
 10
303.704646
 20
384.655752
 30
0.0
 11
302.951214
 21
383.88404
 31
0.0
  0
LINE
  5
1F6
330
1F
100
AcDbEntity
  8
0
  6
Continuous
 62
     7
100
AcDbLine
 10
302.951214
 20
383.88404
 30
0.0
 11
301.225507
 21
381.196472
 31
0.0
  0
LINE
  5
1F7
330
1F
100
AcDbEntity
  8
0
  6
Continuous
 62
     7
100
AcDbLine
 10
299.499797
 20
378.341061
 30
0.0
 11
299.499797
 21
378.173186
 31
0.0
  0
LINE
  5
1F8
330
1F
100
AcDbEntity
  8
0
  6
Continuous
 62
     7
100
AcDbLine
 10
299.499797
 20
378.173186
 30
0.0
 11
301.159566
 21
378.213022
 31
0.0
  0
LINE
  5
1F9
330
1F
100
AcDbEntity
  8
0
  6
Continuous
 62
     7
100
AcDbLine
 10
301.159566
 20
378.213022
 30
0.0
 11
302.819346
 21
378.252844
 31
0.0
  0
LINE
  5
1FA
330
1F
100
AcDbEntity
  8
0
  6
Continuous
 62
     7
100
AcDbLine
 10
302.819346
 20
378.252844
 30
0.0
 11
304.276126
 21
380.65138
 31
0.0
  0
LINE
  5
1FB
330
1F
100
AcDbEntity
  8
0
  6
Continuous
 62
     7
100
AcDbLine
 10
307.03235
 20
384.24592
 30
0.0
 11
307.64624
 21
384.543106
 31
0.0
  0
LINE
  5
1FC
330
1F
100
AcDbEntity
  8
0
  6
Continuous
 62
     7
100
AcDbLine
 10
307.64624
 20
384.543106
 30
0.0
 11
308.379061
 21
384.543106
 31
0.0
  0
LINE
  5
1FD
330
1F
100
AcDbEntity
  8
0
  6
Continuous
 62
     7
100
AcDbLine
 10
308.379061
 20
384.543106
 30
0.0
 11
309.111882
 21
384.543106
 31
0.0
  0
LINE
  5
1FE
330
1F
100
AcDbEntity
  8
0
  6
Continuous
 62
     7
100
AcDbLine
 10
309.111882
 20
384.543106
 30
0.0
 11
309.111882
 21
381.362633
 31
0.0
  0
LINE
  5
1FF
330
1F
100
AcDbEntity
  8
0
  6
Continuous
 62
     7
100
AcDbLine
 10
309.111882
 20
381.362633
 30
0.0
 11
309.111882
 21
378.182164
 31
0.0
  0
LINE
  5
200
330
1F
100
AcDbEntity
  8
0
  6
Continuous
 62
     7
100
AcDbLine
 10
309.111882
 20
378.182164
 30
0.0
 11
310.525426
 21
378.182164
 31
0.0
  0
LINE
  5
201
330
1F
100
AcDbEntity
  8
0
  6
Continuous
 62
     7
100
AcDbLine
 10
310.525426
 20
378.182164
 30
0.0
 11
311.938967
 21
378.182164
 31
0.0
  0
LINE
  5
202
330
1F
100
AcDbEntity
  8
0
  6
Continuous
 62
     7
100
AcDbLine
 10
311.938967
 20
378.182164
 30
0.0
 11
311.938967
 21
386.250225
 31
0.0
  0
LINE
  5
203
330
1F
100
AcDbEntity
  8
0
  6
Continuous
 62
     7
100
AcDbLine
 10
297.910934
 20
386.380711
 30
0.0
 11
297.874225
 21
394.225868
 31
0.0
  0
LINE
  5
204
330
1F
100
AcDbEntity
  8
0
  6
Continuous
 62
     7
100
AcDbLine
 10
297.874225
 20
394.225868
 30
0.0
 11
294.552399
 21
394.225868
 31
0.0
  0
LINE
  5
205
330
1F
100
AcDbEntity
  8
0
  6
Continuous
 62
     7
100
AcDbLine
 10
294.552399
 20
394.225868
 30
0.0
 11
291.230576
 21
394.225868
 31
0.0
  0
LINE
  5
206
330
1F
100
AcDbEntity
  8
0
  6
Continuous
 62
     7
100
AcDbLine
 10
291.230576
 20
394.225868
 30
0.0
 11
290.450356
 21
393.984012
 31
0.0
  0
LINE
  5
207
330
1F
100
AcDbEntity
  8
0
  6
Continuous
 62
     7
100
AcDbLine
 10
287.266197
 20
390.832095
 30
0.0
 11
287.024099
 21
389.999305
 31
0.0
  0
LINE
  5
208
330
1F
100
AcDbEntity
  8
0
  6
Continuous
 62
     7
100
AcDbLine
 10
287.024099
 20
389.999305
 30
0.0
 11
287.100657
 21
388.882537
 31
0.0
  0
LINE
  5
209
330
1F
100
AcDbEntity
  8
0
  6
Continuous
 62
     7
100
AcDbLine
 10
287.100657
 20
388.882537
 30
0.0
 11
287.177201
 21
387.765753
 31
0.0
  0
LINE
  5
20A
330
1F
100
AcDbEntity
  8
0
  6
Continuous
 62
     7
100
AcDbLine
 10
287.177201
 20
387.765753
 30
0.0
 11
287.615016
 21
386.876409
 31
0.0
  0
LINE
  5
20B
330
1F
100
AcDbEntity
  8
0
  6
Continuous
 62
     7
100
AcDbLine
 10
287.615016
 20
386.876409
 30
0.0
 11
288.052847
 21
385.987067
 31
0.0
  0
LINE
  5
20C
330
1F
100
AcDbEntity
  8
0
  6
Continuous
 62
     7
100
AcDbLine
 10
288.052847
 20
385.987067
 30
0.0
 11
288.634786
 21
385.461313
 31
0.0
  0
LINE
  5
20D
330
1F
100
AcDbEntity
  8
0
  6
Continuous
 62
     7
100
AcDbLine
 10
290.152975
 20
384.495526
 30
0.0
 11
291.089222
 21
384.055505
 31
0.0
  0
LINE
  5
20E
330
1F
100
AcDbEntity
  8
0
  6
Continuous
 62
     7
100
AcDbLine
 10
291.089222
 20
384.055505
 30
0.0
 11
293.032841
 21
384.000545
 31
0.0
  0
LINE
  5
20F
330
1F
100
AcDbEntity
  8
0
  6
Continuous
 62
     7
100
AcDbLine
 10
293.032841
 20
384.000545
 30
0.0
 11
294.976463
 21
383.945602
 31
0.0
  0
LINE
  5
210
330
1F
100
AcDbEntity
  8
0
  6
Continuous
 62
     7
100
AcDbLine
 10
294.976463
 20
383.945602
 30
0.0
 11
294.976463
 21
381.063881
 31
0.0
  0
LINE
  5
211
330
1F
100
AcDbEntity
  8
0
  6
Continuous
 62
     7
100
AcDbLine
 10
294.976463
 20
381.063881
 30
0.0
 11
294.976463
 21
378.182164
 31
0.0
  0
LINE
  5
212
330
1F
100
AcDbEntity
  8
0
  6
Continuous
 62
     7
100
AcDbLine
 10
294.976463
 20
378.182164
 30
0.0
 11
296.394441
 21
378.182164
 31
0.0
  0
LINE
  5
213
330
1F
100
AcDbEntity
  8
0
  6
Continuous
 62
     7
100
AcDbLine
 10
296.394441
 20
378.182164
 30
0.0
 11
297.812424
 21
378.182164
 31
0.0
  0
LINE
  5
214
330
1F
100
AcDbEntity
  8
0
  6
Continuous
 62
     7
100
AcDbLine
 10
297.812424
 20
378.182164
 30
0.0
 11
297.880033
 21
378.358855
 31
0.0
  0
LINE
  5
215
330
1F
100
AcDbEntity
  8
0
  6
Continuous
 62
     7
100
AcDbLine
 10
284.940314
 20
383.977687
 30
0.0
 11
284.940314
 21
389.773211
 31
0.0
  0
LINE
  5
216
330
1F
100
AcDbEntity
  8
0
  6
Continuous
 62
     7
100
AcDbLine
 10
284.940314
 20
389.773211
 30
0.0
 11
283.52677
 21
389.773211
 31
0.0
  0
LINE
  5
217
330
1F
100
AcDbEntity
  8
0
  6
Continuous
 62
     7
100
AcDbLine
 10
283.52677
 20
389.773211
 30
0.0
 11
282.113229
 21
389.773211
 31
0.0
  0
LINE
  5
218
330
1F
100
AcDbEntity
  8
0
  6
Continuous
 62
     7
100
AcDbLine
 10
282.113229
 20
389.773211
 30
0.0
 11
282.113229
 21
383.977687
 31
0.0
  0
LINE
  5
219
330
1F
100
AcDbEntity
  8
0
  6
Continuous
 62
     7
100
AcDbLine
 10
282.113229
 20
383.977687
 30
0.0
 11
282.113229
 21
378.182164
 31
0.0
  0
LINE
  5
21A
330
1F
100
AcDbEntity
  8
0
  6
Continuous
 62
     7
100
AcDbLine
 10
282.113229
 20
378.182164
 30
0.0
 11
283.52677
 21
378.182164
 31
0.0
  0
LINE
  5
21B
330
1F
100
AcDbEntity
  8
0
  6
Continuous
 62
     7
100
AcDbLine
 10
283.52677
 20
378.182164
 30
0.0
 11
284.940314
 21
378.182164
 31
0.0
  0
LINE
  5
21C
330
1F
100
AcDbEntity
  8
0
  6
Continuous
 62
     7
100
AcDbLine
 10
284.940314
 20
378.182164
 30
0.0
 11
284.940314
 21
383.977687
 31
0.0
  0
LINE
  5
21D
330
1F
100
AcDbEntity
  8
0
  6
Continuous
 62
     7
100
AcDbLine
 10
269.674061
 20
386.24512
 30
0.0
 11
269.674061
 21
394.317974
 31
0.0
  0
LINE
  5
21E
330
1F
100
AcDbEntity
  8
0
  6
Continuous
 62
     7
100
AcDbLine
 10
269.674061
 20
394.317974
 30
0.0
 11
266.104865
 21
394.267143
 31
0.0
  0
LINE
  5
21F
330
1F
100
AcDbEntity
  8
0
  6
Continuous
 62
     7
100
AcDbLine
 10
266.104865
 20
394.267143
 30
0.0
 11
262.535671
 21
394.216309
 31
0.0
  0
LINE
  5
220
330
1F
100
AcDbEntity
  8
0
  6
Continuous
 62
     7
100
AcDbLine
 10
262.535671
 20
394.216309
 30
0.0
 11
261.721245
 21
393.89227
 31
0.0
  0
LINE
  5
221
330
1F
100
AcDbEntity
  8
0
  6
Continuous
 62
     7
100
AcDbLine
 10
261.721245
 20
393.89227
 30
0.0
 11
260.906831
 21
393.568245
 31
0.0
  0
LINE
  5
222
330
1F
100
AcDbEntity
  8
0
  6
Continuous
 62
     7
100
AcDbLine
 10
260.906831
 20
393.568245
 30
0.0
 11
260.226255
 21
392.905333
 31
0.0
  0
LINE
  5
223
330
1F
100
AcDbEntity
  8
0
  6
Continuous
 62
     7
100
AcDbLine
 10
260.226255
 20
392.905333
 30
0.0
 11
259.54569
 21
392.242438
 31
0.0
  0
LINE
  5
224
330
1F
100
AcDbEntity
  8
0
  6
Continuous
 62
     7
100
AcDbLine
 10
259.54569
 20
392.242438
 30
0.0
 11
259.309092
 21
391.548064
 31
0.0
  0
LINE
  5
225
330
1F
100
AcDbEntity
  8
0
  6
Continuous
 62
     7
100
AcDbLine
 10
259.309092
 20
391.548064
 30
0.0
 11
259.072491
 21
390.853679
 31
0.0
  0
LINE
  5
226
330
1F
100
AcDbEntity
  8
0
  6
Continuous
 62
     7
100
AcDbLine
 10
259.072491
 20
390.853679
 30
0.0
 11
259.072491
 21
389.843888
 31
0.0
  0
LINE
  5
227
330
1F
100
AcDbEntity
  8
0
  6
Continuous
 62
     7
100
AcDbLine
 10
259.072491
 20
389.843888
 30
0.0
 11
259.072491
 21
388.834094
 31
0.0
  0
LINE
  5
228
330
1F
100
AcDbEntity
  8
0
  6
Continuous
 62
     7
100
AcDbLine
 10
259.072491
 20
388.834094
 30
0.0
 11
259.297529
 21
388.173632
 31
0.0
  0
LINE
  5
229
330
1F
100
AcDbEntity
  8
0
  6
Continuous
 62
     7
100
AcDbLine
 10
259.297529
 20
388.173632
 30
0.0
 11
259.522565
 21
387.513184
 31
0.0
  0
LINE
  5
22A
330
1F
100
AcDbEntity
  8
0
  6
Continuous
 62
     7
100
AcDbLine
 10
259.522565
 20
387.513184
 30
0.0
 11
260.148776
 21
386.816688
 31
0.0
  0
LINE
  5
22B
330
1F
100
AcDbEntity
  8
0
  6
Continuous
 62
     7
100
AcDbLine
 10
260.148776
 20
386.816688
 30
0.0
 11
260.774977
 21
386.120194
 31
0.0
  0
LINE
  5
22C
330
1F
100
AcDbEntity
  8
0
  6
Continuous
 62
     7
100
AcDbLine
 10
260.774977
 20
386.120194
 30
0.0
 11
261.443302
 21
385.803516
 31
0.0
  0
LINE
  5
22D
330
1F
100
AcDbEntity
  8
0
  6
Continuous
 62
     7
100
AcDbLine
 10
257.235439
 20
378.354376
 30
0.0
 11
257.235439
 21
378.173186
 31
0.0
  0
LINE
  5
22E
330
1F
100
AcDbEntity
  8
0
  6
Continuous
 62
     7
100
AcDbLine
 10
257.235439
 20
378.173186
 30
0.0
 11
258.885383
 21
378.213022
 31
0.0
  0
LINE
  5
22F
330
1F
100
AcDbEntity
  8
0
  6
Continuous
 62
     7
100
AcDbLine
 10
258.885383
 20
378.213022
 30
0.0
 11
260.535339
 21
378.252841
 31
0.0
  0
LINE
  5
230
330
1F
100
AcDbEntity
  8
0
  6
Continuous
 62
     7
100
AcDbLine
 10
260.535339
 20
378.252841
 30
0.0
 11
261.968842
 21
380.607988
 31
0.0
  0
LINE
  5
231
330
1F
100
AcDbEntity
  8
0
  6
Continuous
 62
     7
100
AcDbLine
 10
264.78148
 20
384.27268
 30
0.0
 11
265.363306
 21
384.536897
 31
0.0
  0
LINE
  5
232
330
1F
100
AcDbEntity
  8
0
  6
Continuous
 62
     7
100
AcDbLine
 10
265.363306
 20
384.536897
 30
0.0
 11
266.03204
 21
384.540029
 31
0.0
  0
LINE
  5
233
330
1F
100
AcDbEntity
  8
0
  6
Continuous
 62
     7
100
AcDbLine
 10
266.03204
 20
384.540029
 30
0.0
 11
266.700774
 21
384.543162
 31
0.0
  0
LINE
  5
234
330
1F
100
AcDbEntity
  8
0
  6
Continuous
 62
     7
100
AcDbLine
 10
266.700774
 20
384.543162
 30
0.0
 11
266.738809
 21
381.398032
 31
0.0
  0
LINE
  5
235
330
1F
100
AcDbEntity
  8
0
  6
Continuous
 62
     7
100
AcDbLine
 10
266.738809
 20
381.398032
 30
0.0
 11
266.77685
 21
378.2529
 31
0.0
  0
LINE
  5
236
330
1F
100
AcDbEntity
  8
0
  6
Continuous
 62
     7
100
AcDbLine
 10
266.77685
 20
378.2529
 30
0.0
 11
268.225731
 21
378.212613
 31
0.0
  0
LINE
  5
237
330
1F
100
AcDbEntity
  8
0
  6
Continuous
 62
     7
100
AcDbLine
 10
268.225731
 20
378.212613
 30
0.0
 11
269.674609
 21
378.172326
 31
0.0
  0
LINE
  5
238
330
1F
100
AcDbEntity
  8
0
  6
Continuous
 62
     7
100
AcDbLine
 10
269.674609
 20
378.172326
 30
0.0
 11
269.674609
 21
386.245179
 31
0.0
  0
LINE
  5
239
330
1F
100
AcDbEntity
  8
0
  6
Continuous
 62
     7
100
AcDbLine
 10
269.674609
 20
386.245179
 30
0.0
 11
269.674061
 21
386.24512
 31
0.0
  0
LINE
  5
23A
330
1F
100
AcDbEntity
  8
0
  6
Continuous
 62
     7
100
AcDbLine
 10
255.538637
 20
386.237387
 30
0.0
 11
255.538637
 21
394.296542
 31
0.0
  0
LINE
  5
23B
330
1F
100
AcDbEntity
  8
0
  6
Continuous
 62
     7
100
AcDbLine
 10
255.538637
 20
394.296542
 30
0.0
 11
251.156657
 21
394.296542
 31
0.0
  0
LINE
  5
23C
330
1F
100
AcDbEntity
  8
0
  6
Continuous
 62
     7
100
AcDbLine
 10
251.156657
 20
394.296542
 30
0.0
 11
246.774675
 21
394.296542
 31
0.0
  0
LINE
  5
23D
330
1F
100
AcDbEntity
  8
0
  6
Continuous
 62
     7
100
AcDbLine
 10
246.774675
 20
394.296542
 30
0.0
 11
246.774675
 21
393.024357
 31
0.0
  0
LINE
  5
23E
330
1F
100
AcDbEntity
  8
0
  6
Continuous
 62
     7
100
AcDbLine
 10
246.774675
 20
393.024357
 30
0.0
 11
246.774675
 21
391.75217
 31
0.0
  0
LINE
  5
23F
330
1F
100
AcDbEntity
  8
0
  6
Continuous
 62
     7
100
AcDbLine
 10
246.774675
 20
391.75217
 30
0.0
 11
249.743113
 21
391.75217
 31
0.0
  0
LINE
  5
240
330
1F
100
AcDbEntity
  8
0
  6
Continuous
 62
     7
100
AcDbLine
 10
249.743113
 20
391.75217
 30
0.0
 11
252.711552
 21
391.75217
 31
0.0
  0
LINE
  5
241
330
1F
100
AcDbEntity
  8
0
  6
Continuous
 62
     7
100
AcDbLine
 10
252.711552
 20
391.75217
 30
0.0
 11
252.711552
 21
389.702534
 31
0.0
  0
LINE
  5
242
330
1F
100
AcDbEntity
  8
0
  6
Continuous
 62
     7
100
AcDbLine
 10
252.711552
 20
389.702534
 30
0.0
 11
252.711552
 21
387.652895
 31
0.0
  0
LINE
  5
243
330
1F
100
AcDbEntity
  8
0
  6
Continuous
 62
     7
100
AcDbLine
 10
252.711552
 20
387.652895
 30
0.0
 11
249.949649
 21
387.652895
 31
0.0
  0
LINE
  5
244
330
1F
100
AcDbEntity
  8
0
  6
Continuous
 62
     7
100
AcDbLine
 10
249.949649
 20
387.652895
 30
0.0
 11
247.187729
 21
387.652895
 31
0.0
  0
LINE
  5
245
330
1F
100
AcDbEntity
  8
0
  6
Continuous
 62
     7
100
AcDbLine
 10
247.187729
 20
387.652895
 30
0.0
 11
247.228573
 21
386.416048
 31
0.0
  0
LINE
  5
246
330
1F
100
AcDbEntity
  8
0
  6
Continuous
 62
     7
100
AcDbLine
 10
247.228573
 20
386.416048
 30
0.0
 11
247.269416
 21
385.179198
 31
0.0
  0
LINE
  5
247
330
1F
100
AcDbEntity
  8
0
  6
Continuous
 62
     7
100
AcDbLine
 10
247.269416
 20
385.179198
 30
0.0
 11
249.990487
 21
385.140804
 31
0.0
  0
LINE
  5
248
330
1F
100
AcDbEntity
  8
0
  6
Continuous
 62
     7
100
AcDbLine
 10
249.990487
 20
385.140804
 30
0.0
 11
252.711552
 21
385.102414
 31
0.0
  0
LINE
  5
249
330
1F
100
AcDbEntity
  8
0
  6
Continuous
 62
     7
100
AcDbLine
 10
252.711552
 20
385.102414
 30
0.0
 11
252.711552
 21
382.917175
 31
0.0
  0
LINE
  5
24A
330
1F
100
AcDbEntity
  8
0
  6
Continuous
 62
     7
100
AcDbLine
 10
252.711552
 20
382.917175
 30
0.0
 11
252.711552
 21
380.731954
 31
0.0
  0
LINE
  5
24B
330
1F
100
AcDbEntity
  8
0
  6
Continuous
 62
     7
100
AcDbLine
 10
252.711552
 20
380.731954
 30
0.0
 11
249.56642
 21
380.693899
 31
0.0
  0
LINE
  5
24C
330
1F
100
AcDbEntity
  8
0
  6
Continuous
 62
     7
100
AcDbLine
 10
249.56642
 20
380.693899
 30
0.0
 11
246.42129
 21
380.655864
 31
0.0
  0
LINE
  5
24D
330
1F
100
AcDbEntity
  8
0
  6
Continuous
 62
     7
100
AcDbLine
 10
246.42129
 20
380.655864
 30
0.0
 11
246.42129
 21
379.454351
 31
0.0
  0
LINE
  5
24E
330
1F
100
AcDbEntity
  8
0
  6
Continuous
 62
     7
100
AcDbLine
 10
246.42129
 20
379.454351
 30
0.0
 11
246.42129
 21
378.252841
 31
0.0
  0
LINE
  5
24F
330
1F
100
AcDbEntity
  8
0
  6
Continuous
 62
     7
100
AcDbLine
 10
246.42129
 20
378.252841
 30
0.0
 11
250.979963
 21
378.215537
 31
0.0
  0
LINE
  5
250
330
1F
100
AcDbEntity
  8
0
  6
Continuous
 62
     7
100
AcDbLine
 10
250.979963
 20
378.215537
 30
0.0
 11
255.538637
 21
378.178249
 31
0.0
  0
LINE
  5
251
330
1F
100
AcDbEntity
  8
0
  6
Continuous
 62
     7
100
AcDbLine
 10
255.538637
 20
378.178249
 30
0.0
 11
255.538637
 21
386.237387
 31
0.0
  0
LINE
  5
252
330
1F
100
AcDbEntity
  8
0
  6
Continuous
 62
     7
100
AcDbLine
 10
243.913627
 20
386.380711
 30
0.0
 11
243.876913
 21
394.225865
 31
0.0
  0
LINE
  5
253
330
1F
100
AcDbEntity
  8
0
  6
Continuous
 62
     7
100
AcDbLine
 10
243.876913
 20
394.225865
 30
0.0
 11
240.343056
 21
394.219374
 31
0.0
  0
LINE
  5
254
330
1F
100
AcDbEntity
  8
0
  6
Continuous
 62
     7
100
AcDbLine
 10
240.343056
 20
394.219374
 30
0.0
 11
236.809202
 21
394.212883
 31
0.0
  0
LINE
  5
255
330
1F
100
AcDbEntity
  8
0
  6
Continuous
 62
     7
100
AcDbLine
 10
236.809202
 20
394.212883
 30
0.0
 11
235.833921
 21
393.969187
 31
0.0
  0
LINE
  5
256
330
1F
100
AcDbEntity
  8
0
  6
Continuous
 62
     7
100
AcDbLine
 10
233.929528
 20
393.28208
 30
0.0
 11
233.000418
 21
392.83865
 31
0.0
  0
LINE
  5
257
330
1F
100
AcDbEntity
  8
0
  6
Continuous
 62
     7
100
AcDbLine
 10
233.000418
 20
392.83865
 30
0.0
 11
232.26872
 21
392.10696
 31
0.0
  0
LINE
  5
258
330
1F
100
AcDbEntity
  8
0
  6
Continuous
 62
     7
100
AcDbLine
 10
230.562405
 20
389.029042
 30
0.0
 11
230.33013
 21
388.147741
 31
0.0
  0
LINE
  5
259
330
1F
100
AcDbEntity
  8
0
  6
Continuous
 62
     7
100
AcDbLine
 10
230.33013
 20
388.147741
 30
0.0
 11
230.319095
 21
386.592843
 31
0.0
  0
LINE
  5
25A
330
1F
100
AcDbEntity
  8
0
  6
Continuous
 62
     7
100
AcDbLine
 10
230.319095
 20
386.592843
 30
0.0
 11
230.308061
 21
385.037948
 31
0.0
  0
LINE
  5
25B
330
1F
100
AcDbEntity
  8
0
  6
Continuous
 62
     7
100
AcDbLine
 10
230.308061
 20
385.037948
 30
0.0
 11
230.500714
 21
384.260499
 31
0.0
  0
LINE
  5
25C
330
1F
100
AcDbEntity
  8
0
  6
Continuous
 62
     7
100
AcDbLine
 10
231.115733
 20
382.583501
 30
0.0
 11
231.538112
 21
381.683938
 31
0.0
  0
LINE
  5
25D
330
1F
100
AcDbEntity
  8
0
  6
Continuous
 62
     7
100
AcDbLine
 10
231.538112
 20
381.683938
 30
0.0
 11
232.477342
 21
380.729231
 31
0.0
  0
LINE
  5
25E
330
1F
100
AcDbEntity
  8
0
  6
Continuous
 62
     7
100
AcDbLine
 10
232.477342
 20
380.729231
 30
0.0
 11
233.416583
 21
379.774524
 31
0.0
  0
LINE
  5
25F
330
1F
100
AcDbEntity
  8
0
  6
Continuous
 62
     7
100
AcDbLine
 10
233.416583
 20
379.774524
 30
0.0
 11
234.415892
 21
379.272179
 31
0.0
  0
LINE
  5
260
330
1F
100
AcDbEntity
  8
0
  6
Continuous
 62
     7
100
AcDbLine
 10
236.253498
 20
378.529433
 30
0.0
 11
237.091794
 21
378.289033
 31
0.0
  0
LINE
  5
261
330
1F
100
AcDbEntity
  8
0
  6
Continuous
 62
     7
100
AcDbLine
 10
237.091794
 20
378.289033
 30
0.0
 11
240.447757
 21
378.220972
 31
0.0
  0
LINE
  5
262
330
1F
100
AcDbEntity
  8
0
  6
Continuous
 62
     7
100
AcDbLine
 10
240.447757
 20
378.220972
 30
0.0
 11
243.803721
 21
378.152909
 31
0.0
  0
LINE
  5
263
330
1F
100
AcDbEntity
  8
0
  6
Continuous
 62
     7
100
AcDbLine
 10
243.803721
 20
378.152909
 30
0.0
 11
243.876972
 21
378.344286
 31
0.0
  0
LINE
  5
264
330
1F
100
AcDbEntity
  8
0
  6
Continuous
 62
     7
100
AcDbLine
 10
243.876972
 20
378.344286
 30
0.0
 11
243.87709
 21
378.344168
 31
0.0
  0
LINE
  5
265
330
1F
100
AcDbEntity
  8
0
  6
Continuous
 62
     7
100
AcDbLine
 10
279.14479
 20
384.472429
 30
0.0
 11
279.14479
 21
385.532585
 31
0.0
  0
LINE
  5
266
330
1F
100
AcDbEntity
  8
0
  6
Continuous
 62
     7
100
AcDbLine
 10
279.14479
 20
385.532585
 30
0.0
 11
275.964321
 21
385.532585
 31
0.0
  0
LINE
  5
267
330
1F
100
AcDbEntity
  8
0
  6
Continuous
 62
     7
100
AcDbLine
 10
275.964321
 20
385.532585
 30
0.0
 11
272.783848
 21
385.532585
 31
0.0
  0
LINE
  5
268
330
1F
100
AcDbEntity
  8
0
  6
Continuous
 62
     7
100
AcDbLine
 10
272.783848
 20
385.532585
 30
0.0
 11
272.783848
 21
384.472429
 31
0.0
  0
LINE
  5
269
330
1F
100
AcDbEntity
  8
0
  6
Continuous
 62
     7
100
AcDbLine
 10
272.783848
 20
384.472429
 30
0.0
 11
272.783848
 21
383.412269
 31
0.0
  0
LINE
  5
26A
330
1F
100
AcDbEntity
  8
0
  6
Continuous
 62
     7
100
AcDbLine
 10
272.783848
 20
383.412269
 30
0.0
 11
275.964321
 21
383.412269
 31
0.0
  0
LINE
  5
26B
330
1F
100
AcDbEntity
  8
0
  6
Continuous
 62
     7
100
AcDbLine
 10
275.964321
 20
383.412269
 30
0.0
 11
279.14479
 21
383.412269
 31
0.0
  0
LINE
  5
26C
330
1F
100
AcDbEntity
  8
0
  6
Continuous
 62
     7
100
AcDbLine
 10
279.14479
 20
383.412269
 30
0.0
 11
279.14479
 21
384.472429
 31
0.0
  0
LINE
  5
26D
330
1F
100
AcDbEntity
  8
0
  6
Continuous
 62
     7
100
AcDbLine
 10
285.180967
 20
393.281439
 30
0.0
 11
285.25631
 21
393.84318
 31
0.0
  0
LINE
  5
26E
330
1F
100
AcDbEntity
  8
0
  6
Continuous
 62
     7
100
AcDbLine
 10
285.25631
 20
393.84318
 30
0.0
 11
284.998508
 21
394.279609
 31
0.0
  0
LINE
  5
26F
330
1F
100
AcDbEntity
  8
0
  6
Continuous
 62
     7
100
AcDbLine
 10
282.75417
 20
394.943779
 30
0.0
 11
282.273353
 21
394.742885
 31
0.0
  0
LINE
  5
270
330
1F
100
AcDbEntity
  8
0
  6
Continuous
 62
     7
100
AcDbLine
 10
282.273353
 20
394.742885
 30
0.0
 11
282.051936
 21
394.314694
 31
0.0
  0
LINE
  5
271
330
1F
100
AcDbEntity
  8
0
  6
Continuous
 62
     7
100
AcDbLine
 10
281.830518
 20
393.386982
 30
0.0
 11
281.830518
 21
392.887457
 31
0.0
  0
LINE
  5
272
330
1F
100
AcDbEntity
  8
0
  6
Continuous
 62
     7
100
AcDbLine
 10
281.830518
 20
392.887457
 30
0.0
 11
282.227639
 21
392.443008
 31
0.0
  0
LINE
  5
273
330
1F
100
AcDbEntity
  8
0
  6
Continuous
 62
     7
100
AcDbLine
 10
282.227639
 20
392.443008
 30
0.0
 11
282.624759
 21
391.99855
 31
0.0
  0
LINE
  5
274
330
1F
100
AcDbEntity
  8
0
  6
Continuous
 62
     7
100
AcDbLine
 10
282.624759
 20
391.99855
 30
0.0
 11
283.323135
 21
391.947304
 31
0.0
  0
LINE
  5
275
330
1F
100
AcDbEntity
  8
0
  6
Continuous
 62
     7
100
AcDbLine
 10
83.628797
 20
143.896354
 30
0.0
 11
63.628797
 21
143.896354
 31
0.0
  0
LINE
  5
276
330
1F
100
AcDbEntity
  8
0
  6
Continuous
 62
     7
100
AcDbLine
 10
63.628797
 20
143.896354
 30
0.0
 11
63.628797
 21
139.896362
 31
0.0
  0
LINE
  5
277
330
1F
100
AcDbEntity
  8
0
  6
Continuous
 62
     7
100
AcDbLine
 10
63.628797
 20
139.896362
 30
0.0
 11
83.628797
 21
139.896362
 31
0.0
  0
LINE
  5
278
330
1F
100
AcDbEntity
  8
0
  6
Continuous
 62
     7
100
AcDbLine
 10
83.628797
 20
139.896362
 30
0.0
 11
83.628797
 21
143.896354
 31
0.0
  0
LINE
  5
279
330
1F
100
AcDbEntity
  8
0
  6
Continuous
 62
     7
100
AcDbLine
 10
83.628797
 20
157.896354
 30
0.0
 11
63.628797
 21
157.896354
 31
0.0
  0
LINE
  5
27A
330
1F
100
AcDbEntity
  8
0
  6
Continuous
 62
     7
100
AcDbLine
 10
63.628797
 20
157.896354
 30
0.0
 11
63.628797
 21
153.896362
 31
0.0
  0
LINE
  5
27B
330
1F
100
AcDbEntity
  8
0
  6
Continuous
 62
     7
100
AcDbLine
 10
63.628797
 20
153.896362
 30
0.0
 11
83.628797
 21
153.896362
 31
0.0
  0
LINE
  5
27C
330
1F
100
AcDbEntity
  8
0
  6
Continuous
 62
     7
100
AcDbLine
 10
83.628797
 20
153.896362
 30
0.0
 11
83.628797
 21
157.896354
 31
0.0
  0
LINE
  5
27D
330
1F
100
AcDbEntity
  8
0
  6
Continuous
 62
     7
100
AcDbLine
 10
83.628797
 20
255.896359
 30
0.0
 11
63.628797
 21
255.896359
 31
0.0
  0
LINE
  5
27E
330
1F
100
AcDbEntity
  8
0
  6
Continuous
 62
     7
100
AcDbLine
 10
63.628797
 20
255.896359
 30
0.0
 11
63.628797
 21
251.896361
 31
0.0
  0
LINE
  5
27F
330
1F
100
AcDbEntity
  8
0
  6
Continuous
 62
     7
100
AcDbLine
 10
63.628797
 20
251.896361
 30
0.0
 11
83.628797
 21
251.896361
 31
0.0
  0
LINE
  5
280
330
1F
100
AcDbEntity
  8
0
  6
Continuous
 62
     7
100
AcDbLine
 10
83.628797
 20
251.896361
 30
0.0
 11
83.628797
 21
255.896359
 31
0.0
  0
LINE
  5
281
330
1F
100
AcDbEntity
  8
0
  6
Continuous
 62
     7
100
AcDbLine
 10
83.628797
 20
269.896359
 30
0.0
 11
63.628797
 21
269.896359
 31
0.0
  0
LINE
  5
282
330
1F
100
AcDbEntity
  8
0
  6
Continuous
 62
     7
100
AcDbLine
 10
63.628797
 20
269.896359
 30
0.0
 11
63.628797
 21
265.896358
 31
0.0
  0
LINE
  5
283
330
1F
100
AcDbEntity
  8
0
  6
Continuous
 62
     7
100
AcDbLine
 10
63.628797
 20
265.896358
 30
0.0
 11
83.628797
 21
265.896358
 31
0.0
  0
LINE
  5
284
330
1F
100
AcDbEntity
  8
0
  6
Continuous
 62
     7
100
AcDbLine
 10
83.628797
 20
265.896358
 30
0.0
 11
83.628797
 21
269.896359
 31
0.0
  0
LINE
  5
285
330
1F
100
AcDbEntity
  8
0
  6
Continuous
 62
     7
100
AcDbLine
 10
18.628797
 20
129.896354
 30
0.0
 11
128.628798
 21
129.896354
 31
0.0
  0
LINE
  5
286
330
1F
100
AcDbEntity
  8
0
  6
Continuous
 62
     7
100
AcDbLine
 10
18.628797
 20
135.89637
 30
0.0
 11
18.628797
 21
129.896354
 31
0.0
  0
LINE
  5
287
330
1F
100
AcDbEntity
  8
0
  6
Continuous
 62
     7
100
AcDbLine
 10
13.628796
 20
135.89637
 30
0.0
 11
18.628797
 21
135.89637
 31
0.0
  0
LINE
  5
288
330
1F
100
AcDbEntity
  8
0
  6
Continuous
 62
     7
100
AcDbLine
 10
13.628796
 20
135.89637
 30
0.0
 11
13.628796
 21
291.89636
 31
0.0
  0
LINE
  5
289
330
1F
100
AcDbEntity
  8
0
  6
Continuous
 62
     7
100
AcDbLine
 10
133.628796
 20
291.89636
 30
0.0
 11
13.628796
 21
291.89636
 31
0.0
  0
LINE
  5
28A
330
1F
100
AcDbEntity
  8
0
  6
Continuous
 62
     7
100
AcDbLine
 10
133.628796
 20
135.89637
 30
0.0
 11
133.628796
 21
291.89636
 31
0.0
  0
LINE
  5
28B
330
1F
100
AcDbEntity
  8
0
  6
Continuous
 62
     7
100
AcDbLine
 10
128.628798
 20
135.89637
 30
0.0
 11
133.628796
 21
135.89637
 31
0.0
  0
LINE
  5
28C
330
1F
100
AcDbEntity
  8
0
  6
Continuous
 62
     7
100
AcDbLine
 10
128.628798
 20
135.89637
 30
0.0
 11
128.628798
 21
129.896354
 31
0.0
  0
LINE
  5
28D
330
1F
100
AcDbEntity
  8
0
  6
Continuous
 62
     7
100
AcDbLine
 10
26.128805
 20
294.89345
 30
0.0
 11
26.128805
 21
300.893466
 31
0.0
  0
LINE
  5
28E
330
1F
100
AcDbEntity
  8
0
  6
Continuous
 62
     7
100
AcDbLine
 10
26.128805
 20
300.893466
 30
0.0
 11
6.128817
 21
300.893466
 31
0.0
  0
LINE
  5
28F
330
1F
100
AcDbEntity
  8
0
  6
Continuous
 62
     7
100
AcDbLine
 10
6.128817
 20
456.893456
 30
0.0
 11
6.128817
 21
300.893466
 31
0.0
  0
LINE
  5
290
330
1F
100
AcDbEntity
  8
0
  6
Continuous
 62
     7
100
AcDbLine
 10
141.128801
 20
456.893456
 30
0.0
 11
6.128817
 21
456.893456
 31
0.0
  0
LINE
  5
291
330
1F
100
AcDbEntity
  8
0
  6
Continuous
 62
     7
100
AcDbLine
 10
141.128801
 20
300.893466
 30
0.0
 11
141.128801
 21
456.893456
 31
0.0
  0
LINE
  5
292
330
1F
100
AcDbEntity
  8
0
  6
Continuous
 62
     7
100
AcDbLine
 10
141.128801
 20
300.893466
 30
0.0
 11
121.128784
 21
300.893466
 31
0.0
  0
LINE
  5
293
330
1F
100
AcDbEntity
  8
0
  6
Continuous
 62
     7
100
AcDbLine
 10
121.128784
 20
300.893466
 30
0.0
 11
121.128784
 21
294.89345
 31
0.0
  0
LINE
  5
294
330
1F
100
AcDbEntity
  8
0
  6
Continuous
 62
     7
100
AcDbLine
 10
26.128805
 20
294.89345
 30
0.0
 11
121.128784
 21
294.89345
 31
0.0
  0
LINE
  5
295
330
1F
100
AcDbEntity
  8
0
  6
Continuous
 62
     7
100
AcDbLine
 10
141.128809
 20
515.563686
 30
0.0
 11
141.128809
 21
565.56369
 31
0.0
  0
LINE
  5
296
330
1F
100
AcDbEntity
  8
0
  6
Continuous
 62
     7
100
AcDbLine
 10
147.128809
 20
515.563686
 30
0.0
 11
141.128809
 21
515.563686
 31
0.0
  0
LINE
  5
297
330
1F
100
AcDbEntity
  8
0
  6
Continuous
 62
     7
100
AcDbLine
 10
147.128809
 20
515.563686
 30
0.0
 11
147.128809
 21
459.563685
 31
0.0
  0
LINE
  5
298
330
1F
100
AcDbEntity
  8
0
  6
Continuous
 62
     7
100
AcDbLine
 10
147.128809
 20
459.563685
 30
0.0
 11
98.628809
 21
459.563685
 31
0.0
  0
LINE
  5
299
330
1F
100
AcDbEntity
  8
0
  6
Continuous
 62
     7
100
AcDbLine
 10
98.628809
 20
459.563685
 30
0.0
 11
98.628809
 21
465.563701
 31
0.0
  0
LINE
  5
29A
330
1F
100
AcDbEntity
  8
0
  6
Continuous
 62
     7
100
AcDbLine
 10
48.628809
 20
465.563701
 30
0.0
 11
98.628809
 21
465.563701
 31
0.0
  0
LINE
  5
29B
330
1F
100
AcDbEntity
  8
0
  6
Continuous
 62
     7
100
AcDbLine
 10
48.628809
 20
459.563685
 30
0.0
 11
48.628809
 21
465.563701
 31
0.0
  0
LINE
  5
29C
330
1F
100
AcDbEntity
  8
0
  6
Continuous
 62
     7
100
AcDbLine
 10
48.628809
 20
459.563685
 30
0.0
 11
0.128809
 21
459.563685
 31
0.0
  0
LINE
  5
29D
330
1F
100
AcDbEntity
  8
0
  6
Continuous
 62
     7
100
AcDbLine
 10
0.128809
 20
515.563686
 30
0.0
 11
0.128809
 21
459.563685
 31
0.0
  0
LINE
  5
29E
330
1F
100
AcDbEntity
  8
0
  6
Continuous
 62
     7
100
AcDbLine
 10
0.128809
 20
515.563686
 30
0.0
 11
6.128808
 21
515.563686
 31
0.0
  0
LINE
  5
29F
330
1F
100
AcDbEntity
  8
0
  6
Continuous
 62
     7
100
AcDbLine
 10
6.128808
 20
565.56369
 30
0.0
 11
6.128808
 21
515.563686
 31
0.0
  0
LINE
  5
2A0
330
1F
100
AcDbEntity
  8
0
  6
Continuous
 62
     7
100
AcDbLine
 10
0.128809
 20
565.56369
 30
0.0
 11
6.128808
 21
565.56369
 31
0.0
  0
LINE
  5
2A1
330
1F
100
AcDbEntity
  8
0
  6
Continuous
 62
     7
100
AcDbLine
 10
0.128809
 20
621.563691
 30
0.0
 11
0.128809
 21
565.56369
 31
0.0
  0
LINE
  5
2A2
330
1F
100
AcDbEntity
  8
0
  6
Continuous
 62
     7
100
AcDbLine
 10
48.628809
 20
621.563691
 30
0.0
 11
0.128809
 21
621.563691
 31
0.0
  0
LINE
  5
2A3
330
1F
100
AcDbEntity
  8
0
  6
Continuous
 62
     7
100
AcDbLine
 10
48.628809
 20
621.563691
 30
0.0
 11
48.628809
 21
615.563692
 31
0.0
  0
LINE
  5
2A4
330
1F
100
AcDbEntity
  8
0
  6
Continuous
 62
     7
100
AcDbLine
 10
48.628809
 20
615.563692
 30
0.0
 11
98.628809
 21
615.563692
 31
0.0
  0
LINE
  5
2A5
330
1F
100
AcDbEntity
  8
0
  6
Continuous
 62
     7
100
AcDbLine
 10
98.628809
 20
621.563691
 30
0.0
 11
98.628809
 21
615.563692
 31
0.0
  0
LINE
  5
2A6
330
1F
100
AcDbEntity
  8
0
  6
Continuous
 62
     7
100
AcDbLine
 10
147.128809
 20
621.563691
 30
0.0
 11
98.628809
 21
621.563691
 31
0.0
  0
LINE
  5
2A7
330
1F
100
AcDbEntity
  8
0
  6
Continuous
 62
     7
100
AcDbLine
 10
147.128809
 20
621.563691
 30
0.0
 11
147.128809
 21
565.56369
 31
0.0
  0
LINE
  5
2A8
330
1F
100
AcDbEntity
  8
0
  6
Continuous
 62
     7
100
AcDbLine
 10
147.128809
 20
565.56369
 30
0.0
 11
141.128809
 21
565.56369
 31
0.0
  0
LINE
  5
2A9
330
1F
100
AcDbEntity
  8
0
  6
Continuous
 62
     7
100
AcDbLine
 10
86.890262
 20
522.547754
 30
0.0
 11
86.890262
 21
522.547895
 31
0.0
  0
LINE
  5
2AA
330
1F
100
AcDbEntity
  8
0
  6
Continuous
 62
     7
100
AcDbLine
 10
56.870058
 20
536.639336
 30
0.0
 11
56.859616
 21
536.753579
 31
0.0
  0
LINE
  5
2AB
330
1F
100
AcDbEntity
  8
0
  6
Continuous
 62
     7
100
AcDbLine
 10
68.656448
 20
557.644487
 30
0.0
 11
68.757145
 21
557.676688
 31
0.0
  0
LINE
  5
2AC
330
1F
100
AcDbEntity
  8
0
  6
Continuous
 62
     7
100
AcDbLine
 10
68.757145
 20
557.676688
 30
0.0
 11
68.842376
 21
557.712615
 31
0.0
  0
LINE
  5
2AD
330
1F
100
AcDbEntity
  8
0
  6
Continuous
 62
     7
100
AcDbLine
 10
72.697617
 20
558.524032
 30
0.0
 11
72.746215
 21
558.52406
 31
0.0
  0
LINE
  5
2AE
330
1F
100
AcDbEntity
  8
0
  6
Continuous
 62
     7
100
AcDbLine
 10
72.746215
 20
558.52406
 30
0.0
 11
72.907223
 21
558.540994
 31
0.0
  0
LINE
  5
2AF
330
1F
100
AcDbEntity
  8
0
  6
Continuous
 62
     7
100
AcDbLine
 10
87.010742
 20
541.764773
 30
0.0
 11
86.953903
 21
541.733193
 31
0.0
  0
LINE
  5
2B0
330
1F
100
AcDbEntity
  8
0
  6
Continuous
 62
     7
100
AcDbLine
 10
83.338777
 20
539.106917
 30
0.0
 11
83.132106
 21
538.874507
 31
0.0
  0
LINE
  5
2B1
330
1F
100
AcDbEntity
  8
0
  6
Continuous
 62
     7
100
AcDbLine
 10
83.132106
 20
538.874507
 30
0.0
 11
82.423502
 21
538.62364
 31
0.0
  0
LINE
  5
2B2
330
1F
100
AcDbEntity
  8
0
  6
Continuous
 62
     7
100
AcDbLine
 10
79.370705
 20
529.311238
 30
0.0
 11
79.431326
 21
529.272997
 31
0.0
  0
LINE
  5
2B3
330
1F
100
AcDbEntity
  8
0
  6
Continuous
 62
     7
100
AcDbLine
 10
79.431326
 20
529.272997
 30
0.0
 11
79.0928
 21
528.596341
 31
0.0
  0
LINE
  5
2B4
330
1F
100
AcDbEntity
  8
0
  6
Continuous
 62
     7
100
AcDbLine
 10
73.001626
 20
522.545468
 30
0.0
 11
73.002501
 21
522.545243
 31
0.0
  0
LINE
  5
2B5
330
1F
100
AcDbEntity
  8
0
  6
Continuous
 62
     7
100
AcDbLine
 10
79.934754
 20
527.341496
 30
0.0
 11
80.148565
 21
527.800418
 31
0.0
  0
LINE
  5
2B6
330
1F
100
AcDbEntity
  8
0
  6
Continuous
 62
     7
100
AcDbLine
 10
80.148565
 20
527.800418
 30
0.0
 11
80.165781
 21
527.355015
 31
0.0
  0
LINE
  5
2B7
330
1F
100
AcDbEntity
  8
0
  6
Continuous
 62
     7
100
AcDbLine
 10
82.241046
 20
525.2007
 30
0.0
 11
82.631161
 21
525.186024
 31
0.0
  0
LINE
  5
2B8
330
1F
100
AcDbEntity
  8
0
  6
Continuous
 62
     7
100
AcDbLine
 10
82.631161
 20
525.186024
 30
0.0
 11
82.424123
 21
525.081856
 31
0.0
  0
LINE
  5
2B9
330
1F
100
AcDbEntity
  8
0
  6
Continuous
 62
     7
100
AcDbLine
 10
78.748517
 20
523.73876
 30
0.0
 11
78.748433
 21
523.738704
 31
0.0
  0
LINE
  5
2BA
330
1F
100
AcDbEntity
  8
0
  6
Continuous
 62
     7
100
AcDbLine
 10
88.126762
 20
528.806173
 30
0.0
 11
88.119706
 21
530.500127
 31
0.0
  0
LINE
  5
2BB
330
1F
100
AcDbEntity
  8
0
  6
Continuous
 62
     7
100
AcDbLine
 10
88.119706
 20
530.500127
 30
0.0
 11
87.906403
 21
530.574916
 31
0.0
  0
LINE
  5
2BC
330
1F
100
AcDbEntity
  8
0
  6
Continuous
 62
     7
100
AcDbLine
 10
87.903581
 20
537.779259
 30
0.0
 11
88.119735
 21
537.855347
 31
0.0
  0
LINE
  5
2BD
330
1F
100
AcDbEntity
  8
0
  6
Continuous
 62
     7
100
AcDbLine
 10
83.053394
 20
526.373277
 30
0.0
 11
83.053309
 21
526.373051
 31
0.0
  0
LINE
  5
2BE
330
1F
100
AcDbEntity
  8
0
  6
Continuous
 62
     7
100
AcDbLine
 10
88.018389
 20
540.259936
 30
0.0
 11
88.079179
 21
540.272354
 31
0.0
  0
LINE
  5
2BF
330
1F
100
AcDbEntity
  8
0
  6
Continuous
 62
     7
100
AcDbLine
 10
88.079179
 20
540.272354
 30
0.0
 11
88.079179
 21
539.0829
 31
0.0
  0
LINE
  5
2C0
330
1F
100
AcDbEntity
  8
0
  6
Continuous
 62
     7
100
AcDbLine
 10
88.07822
 20
527.175437
 30
0.0
 11
87.936347
 21
527.142078
 31
0.0
  0
LINE
  5
2C1
330
1F
100
AcDbEntity
  8
0
  6
Continuous
 62
     7
100
AcDbLine
 10
81.874552
 20
526.49181
 30
0.0
 11
81.875511
 21
526.491923
 31
0.0
  0
LINE
  5
2C2
330
1F
100
AcDbEntity
  8
0
  6
Continuous
 62
     7
100
AcDbLine
 10
90.274388
 20
539.039156
 30
0.0
 11
90.281444
 21
537.806917
 31
0.0
  0
LINE
  5
2C3
330
1F
100
AcDbEntity
  8
0
  6
Continuous
 62
     7
100
AcDbLine
 10
90.281444
 20
537.806917
 30
0.0
 11
90.484108
 21
537.732749
 31
0.0
  0
LINE
  5
2C4
330
1F
100
AcDbEntity
  8
0
  6
Continuous
 62
     7
100
AcDbLine
 10
90.463788
 20
530.611295
 30
0.0
 11
90.267897
 21
530.535377
 31
0.0
  0
LINE
  5
2C5
330
1F
100
AcDbEntity
  8
0
  6
Continuous
 62
     7
100
AcDbLine
 10
90.267897
 20
530.535377
 30
0.0
 11
90.267897
 21
529.134539
 31
0.0
  0
LINE
  5
2C6
330
1F
100
AcDbEntity
  8
0
  6
Continuous
 62
     7
100
AcDbLine
 10
90.321915
 20
540.19638
 30
0.0
 11
90.423261
 21
540.178318
 31
0.0
  0
LINE
  5
2C7
330
1F
100
AcDbEntity
  8
0
  6
Continuous
 62
     7
100
AcDbLine
 10
89.932137
 20
541.54385
 30
0.0
 11
89.578795
 21
541.546672
 31
0.0
  0
LINE
  5
2C8
330
1F
100
AcDbEntity
  8
0
  6
Continuous
 62
     7
100
AcDbLine
 10
89.578795
 20
541.546672
 30
0.0
 11
89.821986
 21
541.611103
 31
0.0
  0
LINE
  5
2C9
330
1F
100
AcDbEntity
  8
0
  6
Continuous
 62
     7
100
AcDbLine
 10
96.640814
 20
534.668239
 30
0.0
 11
96.640757
 21
534.667929
 31
0.0
  0
LINE
  5
2CA
330
1F
100
AcDbEntity
  8
0
  6
Continuous
 62
     7
100
AcDbLine
 10
55.745911
 20
545.369683
 30
0.0
 11
55.673436
 21
545.077272
 31
0.0
  0
LINE
  5
2CB
330
1F
100
AcDbEntity
  8
0
  6
Continuous
 62
     7
100
AcDbLine
 10
55.673436
 20
545.077272
 30
0.0
 11
55.467837
 21
545.094488
 31
0.0
  0
LINE
  5
2CC
330
1F
100
AcDbEntity
  8
0
  6
Continuous
 62
     7
100
AcDbLine
 10
86.890233
 20
351.66865
 30
0.0
 11
86.890233
 21
351.668791
 31
0.0
  0
LINE
  5
2CD
330
1F
100
AcDbEntity
  8
0
  6
Continuous
 62
     7
100
AcDbLine
 10
88.1553345901
 20
371.7011527244
 30
0.0
 11
88.6417165901
 21
371.9583987244
 31
0.0
  0
LINE
  5
2CE
330
1F
100
AcDbEntity
  8
0
  6
Continuous
 62
     7
100
AcDbLine
 10
88.6417165901
 20
371.9583987244
 30
0.0
 11
89.2117567335
 21
372.0964704794
 31
0.0
  0
LINE
  5
2CF
330
1F
100
AcDbEntity
  8
0
  6
Continuous
 62
     7
100
AcDbLine
 10
75.757639
 20
351.586665
 30
0.0
 11
75.757639
 21
351.586778
 31
0.0
  0
LINE
  5
2D0
330
1F
100
AcDbEntity
  8
0
  6
Continuous
 62
     7
100
AcDbLine
 10
86.8842335901
 20
371.0811387244
 30
0.0
 11
86.8200729148
 21
371.0454907692
 31
0.0
  0
LINE
  5
2D1
330
1F
100
AcDbEntity
  8
0
  6
Continuous
 62
     7
100
AcDbLine
 10
83.2080374315
 20
368.4185246133
 30
0.0
 11
83.0055975901
 21
368.1908727244
 31
0.0
  0
LINE
  5
2D2
330
1F
100
AcDbEntity
  8
0
  6
Continuous
 62
     7
100
AcDbLine
 10
83.0055975901
 20
368.1908727244
 30
0.0
 11
82.2884789427
 21
367.9369912846
 31
0.0
  0
LINE
  5
2D3
330
1F
100
AcDbEntity
  8
0
  6
Continuous
 62
     7
100
AcDbLine
 10
79.2346137409
 20
358.6276037244
 30
0.0
 11
79.3025190511
 21
358.5847683351
 31
0.0
  0
LINE
  5
2D4
330
1F
100
AcDbEntity
  8
0
  6
Continuous
 62
     7
100
AcDbLine
 10
79.3025190511
 20
358.5847683351
 30
0.0
 11
78.9643734257
 21
357.9088726394
 31
0.0
  0
LINE
  5
2D5
330
1F
100
AcDbEntity
  8
0
  6
Continuous
 62
     7
100
AcDbLine
 10
72.8705604404
 20
351.8570485067
 30
0.0
 11
73.002473
 21
351.666139
 31
0.0
  0
LINE
  5
2D6
330
1F
100
AcDbEntity
  8
0
  6
Continuous
 62
     7
100
AcDbLine
 10
79.934726
 20
356.462392
 30
0.0
 11
80.148537
 21
356.921314
 31
0.0
  0
LINE
  5
2D7
330
1F
100
AcDbEntity
  8
0
  6
Continuous
 62
     7
100
AcDbLine
 10
80.148537
 20
356.921314
 30
0.0
 11
80.165753
 21
356.475911
 31
0.0
  0
LINE
  5
2D8
330
1F
100
AcDbEntity
  8
0
  6
Continuous
 62
     7
100
AcDbLine
 10
82.241017
 20
354.321596
 30
0.0
 11
82.631133
 21
354.30692
 31
0.0
  0
LINE
  5
2D9
330
1F
100
AcDbEntity
  8
0
  6
Continuous
 62
     7
100
AcDbLine
 10
82.631133
 20
354.30692
 30
0.0
 11
82.424095
 21
354.202752
 31
0.0
  0
LINE
  5
2DA
330
1F
100
AcDbEntity
  8
0
  6
Continuous
 62
     7
100
AcDbLine
 10
78.748489
 20
352.859656
 30
0.0
 11
78.748405
 21
352.8596
 31
0.0
  0
LINE
  5
2DB
330
1F
100
AcDbEntity
  8
0
  6
Continuous
 62
     7
100
AcDbLine
 10
88.126734
 20
357.927069
 30
0.0
 11
88.119678
 21
359.621023
 31
0.0
  0
LINE
  5
2DC
330
1F
100
AcDbEntity
  8
0
  6
Continuous
 62
     7
100
AcDbLine
 10
88.119678
 20
359.621023
 30
0.0
 11
87.906375
 21
359.695812
 31
0.0
  0
LINE
  5
2DD
330
1F
100
AcDbEntity
  8
0
  6
Continuous
 62
     7
100
AcDbLine
 10
87.903552
 20
366.900155
 30
0.0
 11
88.119706
 21
366.976243
 31
0.0
  0
LINE
  5
2DE
330
1F
100
AcDbEntity
  8
0
  6
Continuous
 62
     7
100
AcDbLine
 10
88.119706
 20
366.976243
 30
0.0
 11
88.126762
 21
368.214831
 31
0.0
  0
LINE
  5
2DF
330
1F
100
AcDbEntity
  8
0
  6
Continuous
 62
     7
100
AcDbLine
 10
88.126762
 20
368.214831
 30
0.0
 11
88.133817
 21
369.45342
 31
0.0
  0
LINE
  5
2E0
330
1F
100
AcDbEntity
  8
0
  6
Continuous
 62
     7
100
AcDbLine
 10
88.133817
 20
369.45342
 30
0.0
 11
87.972499
 21
369.435358
 31
0.0
  0
LINE
  5
2E1
330
1F
100
AcDbEntity
  8
0
  6
Continuous
 62
     7
100
AcDbLine
 10
83.053366
 20
355.494173
 30
0.0
 11
83.053281
 21
355.493947
 31
0.0
  0
LINE
  5
2E2
330
1F
100
AcDbEntity
  8
0
  6
Continuous
 62
     7
100
AcDbLine
 10
88.078191
 20
356.296333
 30
0.0
 11
87.936318
 21
356.262974
 31
0.0
  0
LINE
  5
2E3
330
1F
100
AcDbEntity
  8
0
  6
Continuous
 62
     7
100
AcDbLine
 10
81.874524
 20
355.612706
 30
0.0
 11
81.875483
 21
355.612819
 31
0.0
  0
LINE
  5
2E4
330
1F
100
AcDbEntity
  8
0
  6
Continuous
 62
     7
100
AcDbLine
 10
90.27436
 20
368.160052
 30
0.0
 11
90.281416
 21
366.927813
 31
0.0
  0
LINE
  5
2E5
330
1F
100
AcDbEntity
  8
0
  6
Continuous
 62
     7
100
AcDbLine
 10
90.281416
 20
366.927813
 30
0.0
 11
90.484079
 21
366.853645
 31
0.0
  0
LINE
  5
2E6
330
1F
100
AcDbEntity
  8
0
  6
Continuous
 62
     7
100
AcDbLine
 10
90.463759
 20
359.732191
 30
0.0
 11
90.267869
 21
359.656273
 31
0.0
  0
LINE
  5
2E7
330
1F
100
AcDbEntity
  8
0
  6
Continuous
 62
     7
100
AcDbLine
 10
90.267869
 20
359.656273
 30
0.0
 11
90.267869
 21
358.255435
 31
0.0
  0
LINE
  5
2E8
330
1F
100
AcDbEntity
  8
0
  6
Continuous
 62
     7
100
AcDbLine
 10
90.2744103608
 20
368.1512571468
 30
0.0
 11
90.2676782277
 21
369.3269369712
 31
0.0
  0
LINE
  5
2E9
330
1F
100
AcDbEntity
  8
0
  6
Continuous
 62
     7
100
AcDbLine
 10
90.2676782277
 20
369.3269369712
 30
0.0
 11
90.423232
 21
369.299214
 31
0.0
  0
LINE
  5
2EA
330
1F
100
AcDbEntity
  8
0
  6
Continuous
 62
     7
100
AcDbLine
 10
90.321886
 20
358.268812
 30
0.0
 11
90.321886
 21
358.268671
 31
0.0
  0
LINE
  5
2EB
330
1F
100
AcDbEntity
  8
0
  6
Continuous
 62
     7
100
AcDbLine
 10
89.932109
 20
370.664746
 30
0.0
 11
89.578767
 21
370.667568
 31
0.0
  0
LINE
  5
2EC
330
1F
100
AcDbEntity
  8
0
  6
Continuous
 62
     7
100
AcDbLine
 10
89.578767
 20
370.667568
 30
0.0
 11
89.821958
 21
370.731999
 31
0.0
  0
LINE
  5
2ED
330
1F
100
AcDbEntity
  8
0
  6
Continuous
 62
     7
100
AcDbLine
 10
96.640785
 20
363.789135
 30
0.0
 11
96.640729
 21
363.788825
 31
0.0
  0
LINE
  5
2EE
330
1F
100
AcDbEntity
  8
0
  6
Continuous
 62
     7
100
AcDbLine
 10
55.745882
 20
374.490579
 30
0.0
 11
55.673408
 21
374.198168
 31
0.0
  0
LINE
  5
2EF
330
1F
100
AcDbEntity
  8
0
  6
Continuous
 62
     7
100
AcDbLine
 10
55.673408
 20
374.198168
 30
0.0
 11
55.467809
 21
374.215384
 31
0.0
  0
LWPOLYLINE
  5
2F0
330
1F
100
AcDbEntity
  8
0
  6
Continuous
 62
     7
100
AcDbPolyline
 90
        9
 70
   128
 43
0.0
 10
379.917383194
 20
227.607289
 10
379.8841216999
 20
217.0527297055
 10
379.7703889455
 20
209.1377651306
 10
379.7256571167
 20
208.4800539538
 10
379.6769364973
 20
208.4171292025
 10
379.6010430752
 20
208.3854370586
 10
379.4402350019
 20
208.3494644451
 10
379.11247959
 20
208.3134296453
 10
377.793865
 20
208.307974
  0
LWPOLYLINE
  5
2F1
330
1F
100
AcDbEntity
  8
0
  6
Continuous
 62
     7
100
AcDbPolyline
 90
       10
 70
   128
 43
0.0
 10
382.8709125519
 20
248.736313
 10
383.7865393145
 20
247.7541298966
 10
384.1513714094
 20
247.289466398
 10
384.2921073505
 20
247.0709379978
 10
384.3497396713
 20
246.8781878141
 10
384.2854886482
 20
246.7458018915
 10
384.1617801629
 20
246.6626347758
 10
383.8742491845
 20
246.580183471
 10
383.2785750941
 20
246.5148838803
 10
382.079889
 20
246.487064
  0
LWPOLYLINE
  5
2F2
330
1F
100
AcDbEntity
  8
0
  6
Continuous
 62
     7
100
AcDbPolyline
 90
        9
 70
   128
 43
0.0
 10
367.5632476807
 20
221.534319
 10
367.4764267225
 20
230.9056999297
 10
367.0861132328
 20
235.5610289047
 10
365.8567744792
 20
237.5370580999
 10
363.7016212435
 20
238.3061503351
 10
361.5157723847
 20
237.6857913091
 10
360.1914676784
 20
235.775169456
 10
359.8281637165
 20
231.1126018811
 10
359.690574
 20
221.741837
  0
LWPOLYLINE
  5
2F3
330
1F
100
AcDbEntity
  8
0
  6
Continuous
 62
     7
100
AcDbPolyline
 90
       14
 70
   128
 43
0.0
 10
363.6393547058
 20
242.155675
 10
366.1368457887
 20
241.9277023833
 10
368.3432512759
 20
240.7691827616
 10
370.9306480971
 20
236.5641240835
 10
371.4736209035
 20
231.5842863185
 10
371.5653552645
 20
226.558824486
 10
371.5895166981
 20
216.5062770261
 10
371.4689686177
 20
208.9680960823
 10
371.4482286899
 20
208.6546518815
 10
371.4283144834
 20
208.4989139786
 10
371.386405148
 20
208.4357162122
 10
371.3156140332
 20
208.4024314437
 10
370.6965454313
 20
208.3020556213
 10
369.441411
 20
208.250119
  0
LWPOLYLINE
  5
2F4
330
1F
100
AcDbEntity
  8
0
  6
Continuous
 62
     7
100
AcDbPolyline
 90
        6
 70
   128
 43
0.0
 10
355.758190155
 20
222.076213
 10
355.9209340913
 20
234.4132083674
 10
356.4750929014
 20
237.4274546114
 10
358.0323947575
 20
240.0733127351
 10
360.6035090804
 20
241.7437090752
 10
363.639382
 20
242.155675
  0
LWPOLYLINE
  5
2F5
330
1F
100
AcDbEntity
  8
0
  6
Continuous
 62
     7
100
AcDbPolyline
 90
        4
 70
   128
 43
0.0
 10
321.8996524811
 20
230.920973
 10
322.8180258898
 20
237.9713115678
 10
325.0060989725
 20
240.7593667332
 10
328.264512
 20
242.069908
  0
LWPOLYLINE
  5
2F6
330
1F
100
AcDbEntity
  8
0
  6
Continuous
 62
     7
100
AcDbPolyline
 90
        4
 70
   128
 43
0.0
 10
328.2644748688
 20
238.081177
 10
326.6495358191
 20
236.6402247724
 10
325.9818897151
 20
234.5400741165
 10
325.615557
 20
231.095584
  0
LWPOLYLINE
  5
2F7
330
1F
100
AcDbEntity
  8
0
  6
Continuous
 62
     7
100
AcDbPolyline
 90
        5
 70
   128
 43
0.0
 10
328.4165859222
 20
208.288021
 10
326.9192920499
 20
208.3114156248
 10
325.5173660031
 20
208.8175908679
 10
323.4258313103
 20
210.9450670449
 10
321.899853
 20
216.669936
  0
LWPOLYLINE
  5
2F8
330
1F
100
AcDbEntity
  8
0
  6
Continuous
 62
     7
100
AcDbPolyline
 90
        6
 70
   128
 43
0.0
 10
329.5435905457
 20
208.256045
 10
328.9581091541
 20
208.2903171533
 10
328.522403253
 20
208.2101877337
 10
328.4498322314
 20
208.2245688174
 10
328.4217077638
 20
208.2525288136
 10
328.416725
 20
208.288021
  0
LWPOLYLINE
  5
2F9
330
1F
100
AcDbEntity
  8
0
  6
Continuous
 62
     7
100
AcDbPolyline
 90
        3
 70
   128
 43
0.0
 10
333.6975574493
 20
208.740621
 10
332.6559189641
 20
208.3635074594
 10
331.78912
 20
208.270495
  0
LWPOLYLINE
  5
2FA
330
1F
100
AcDbEntity
  8
0
  6
Continuous
 62
     7
100
AcDbPolyline
 90
        7
 70
   128
 43
0.0
 10
331.2644958496
 20
242.09178
 10
335.2963789471
 20
239.90000727
 10
337.1886550417
 20
235.6833839006
 10
337.3853031798
 20
226.3282625046
 10
337.3782919543
 20
220.0879921429
 10
337.1380654148
 20
213.8573388203
 10
333.77978
 20
208.780499
  0
LWPOLYLINE
  5
2FB
330
1F
100
AcDbEntity
  8
0
  6
Continuous
 62
     7
100
AcDbPolyline
 90
       13
 70
   128
 43
0.0
 10
331.2644958496
 20
226.574638
 10
333.2292412264
 20
225.6310269956
 10
333.3222715183
 20
225.5899038621
 10
333.3958536503
 20
225.5587785975
 10
333.4126033839
 20
225.549610251
 10
333.4182036875
 20
225.5510649044
 10
333.4198282403
 20
225.5595291045
 10
333.4346950885
 20
225.6605360637
 10
333.4657173864
 20
226.0679937015
 10
333.5033362494
 20
227.0359648083
 10
333.4839305467
 20
232.8473577288
 10
333.0317583967
 20
235.7053070434
 10
331.264511
 20
237.940799
  0
LWPOLYLINE
  5
2FC
330
1F
100
AcDbEntity
  8
0
  6
Continuous
 62
     7
100
AcDbPolyline
 90
        7
 70
   128
 43
0.0
 10
325.7219791412
 20
216.691272
 10
326.8506631326
 20
213.0276519568
 10
328.3032188669
 20
211.8128171132
 10
330.2108740963
 20
211.6000598261
 10
331.9064059983
 20
212.4466153281
 10
332.9783692972
 20
214.0458931326
 10
333.486822
 20
217.865204
  0
LWPOLYLINE
  5
2FD
330
1F
100
AcDbEntity
  8
0
  6
Continuous
 62
     7
100
AcDbPolyline
 90
        9
 70
   128
 43
0.0
 10
314.6364688873
 20
221.534319
 10
314.553109617
 20
230.9204367804
 10
314.1565932088
 20
235.5818098643
 10
312.9049329507
 20
237.5439884025
 10
310.7837712456
 20
238.4486497592
 10
308.6420397766
 20
237.6066179795
 10
307.2938249355
 20
235.7072969278
 10
306.9055891329
 20
231.0467143256
 10
306.825216
 20
221.660557
  0
LWPOLYLINE
  5
2FE
330
1F
100
AcDbEntity
  8
0
  6
Continuous
 62
     7
100
AcDbPolyline
 90
        9
 70
   128
 43
0.0
 10
318.6807632446
 20
221.026657
 10
318.646652122
 20
213.7381317105
 10
318.607013
 20
211.005188019
 10
318.5732088898
 20
209.6389943485
 10
318.545850351
 20
208.9562431963
 10
318.5222266908
 20
208.6154342512
 10
318.4831830504
 20
208.4515825965
 10
318.3288746039
 20
208.3830371135
 10
316.514591
 20
208.250457
  0
LWPOLYLINE
  5
2FF
330
1F
100
AcDbEntity
  8
0
  6
Continuous
 62
     7
100
AcDbPolyline
 90
        5
 70
   128
 43
0.0
 10
310.7318878174
 20
242.149749
 10
313.8927228411
 20
241.7180936801
 10
316.4395813721
 20
239.8138265803
 10
318.4917353595
 20
233.857885799
 10
318.680775
 20
221.026657
  0
LWPOLYLINE
  5
300
330
1F
100
AcDbEntity
  8
0
  6
Continuous
 62
     7
100
AcDbPolyline
 90
        6
 70
   128
 43
0.0
 10
302.8435707092
 20
220.772262
 10
302.9596827323
 20
233.7444077431
 10
303.474779314
 20
236.9381872308
 10
304.9542083739
 20
239.7898819526
 10
307.5381653168
 20
241.7068576905
 10
310.732004
 20
242.149749
  0
LWPOLYLINE
  5
301
330
1F
100
AcDbEntity
  8
0
  6
Continuous
 62
     7
100
AcDbPolyline
 90
        6
 70
   128
 43
0.0
 10
299.2873191833
 20
232.081923
 10
299.2285447719
 20
218.2198743336
 10
299.0860508089
 20
214.7575686583
 10
298.0893399706
 20
211.4691400235
 10
295.6259985383
 20
209.1024318609
 10
292.303629
 20
208.315651
  0
LWPOLYLINE
  5
302
330
1F
100
AcDbEntity
  8
0
  6
Continuous
 62
     7
100
AcDbPolyline
 90
        5
 70
   128
 43
0.0
 10
292.156457901
 20
212.040053
 10
294.0371605245
 20
212.7254255707
 10
295.0918775333
 20
214.4257711007
 10
295.4175770842
 20
218.4410999752
 10
295.524781
 20
226.511477
  0
LWPOLYLINE
  5
303
330
1F
100
AcDbEntity
  8
0
  6
Continuous
 62
     7
100
AcDbPolyline
 90
       11
 70
   128
 43
0.0
 10
279.9119949341
 20
208.269056
 10
277.4697352884
 20
208.6708567119
 10
275.6132334159
 20
210.3443108627
 10
273.791964618
 20
214.9867663276
 10
273.4805862226
 20
220.0070431313
 10
273.4179678598
 20
225.0397753433
 10
273.4863756118
 20
230.0724339638
 10
273.8064872034
 20
235.091330782
 10
275.646732349
 20
239.700551984
 10
277.535216713
 20
241.3416739994
 10
279.913999
 20
242.069965
  0
LWPOLYLINE
  5
304
330
1F
100
AcDbEntity
  8
0
  6
Continuous
 62
     7
100
AcDbPolyline
 90
        8
 70
   128
 43
0.0
 10
279.9139022827
 20
238.030941
 10
278.6364812346
 20
236.8998228014
 10
277.8610800687
 20
235.355365364
 10
277.5330086021
 20
231.9092375984
 10
277.4370186468
 20
224.9698259269
 10
277.4983597506
 20
218.0303996079
 10
277.9745234726
 20
214.6067469117
 10
279.913999
 20
211.886524
  0
LWPOLYLINE
  5
305
330
1F
100
AcDbEntity
  8
0
  6
Continuous
 62
     7
100
AcDbPolyline
 90
        8
 70
   128
 43
0.0
 10
237.6660108566
 20
225.120996
 10
237.5937117622
 20
231.9384274159
 10
237.4815301257
 20
234.6143734745
 10
236.5850065291
 20
237.0902592269
 10
234.9777954599
 20
238.2724765724
 10
232.9785370476
 20
238.1952962829
 10
231.0616558953
 20
236.4160592922
 10
230.434744
 20
233.787843
  0
LWPOLYLINE
  5
306
330
1F
100
AcDbEntity
  8
0
  6
Continuous
 62
     7
100
AcDbPolyline
 90
        8
 70
   128
 43
0.0
 10
230.2944660187
 20
217.335699
 10
230.7113332331
 20
214.4954419435
 10
232.2789115775
 20
212.1433004367
 10
234.3323185999
 20
211.6859131153
 10
236.2494962181
 20
212.4933231124
 10
237.523065168
 20
216.2393905724
 10
237.6234125297
 20
219.426636762
 10
237.666115
 20
225.120996
  0
LWPOLYLINE
  5
307
330
1F
100
AcDbEntity
  8
0
  6
Continuous
 62
     7
100
AcDbPolyline
 90
        4
 70
   128
 43
0.0
 10
232.097864151
 20
208.268265
 10
229.3984953289
 20
209.2629084863
 10
227.6099568604
 20
211.5813425393
 10
226.546303
 20
216.059828
  0
LWPOLYLINE
  5
308
330
1F
100
AcDbEntity
  8
0
  6
Continuous
 62
     7
100
AcDbPolyline
 90
       10
 70
   128
 43
0.0
 10
234.08639431
 20
242.161913
 10
236.655718709
 20
241.8679109108
 10
238.8681824387
 20
240.5468565155
 10
241.2819455347
 20
236.0641071566
 10
241.530468449
 20
230.8810971883
 10
241.595148198
 20
225.690050619
 10
241.4827963659
 20
215.3095216866
 10
239.8191491684
 20
210.4466661758
 10
237.9364656499
 20
208.6909008933
 10
235.411998
 20
208.271455
  0
LWPOLYLINE
  5
309
330
1F
100
AcDbEntity
  8
0
  6
Continuous
 62
     7
100
AcDbPolyline
 90
       11
 70
   128
 43
0.0
 10
228.3978462219
 20
231.581881
 10
227.3576827867
 20
231.568996567
 10
226.8449842543
 20
231.6490335291
 10
226.4837226729
 20
231.991998488
 10
226.4447895813
 20
232.6421190737
 10
226.4608227182
 20
233.1546655947
 10
226.5262922747
 20
234.0680214382
 10
227.0416780287
 20
237.1439613468
 10
228.4965229036
 20
239.881634339
 10
231.0289399126
 20
241.6688108545
 10
234.08649
 20
242.161913
  0
LWPOLYLINE
  5
30A
330
1F
100
AcDbEntity
  8
0
  6
Continuous
 62
     7
100
AcDbPolyline
 90
       10
 70
   128
 43
0.0
 10
250.8101463318
 20
238.024027
 10
250.7906981949
 20
238.0010246112
 10
250.765110433
 20
237.9846115534
 10
250.7007627724
 20
237.9665810854
 10
250.5762323851
 20
237.9240860131
 10
250.3601125875
 20
237.7931629765
 10
249.9891760362
 20
237.4486667584
 10
249.402052462
 20
236.6233630436
 10
248.7565999655
 20
234.7060433626
 10
248.310143
 20
230.678742
  0
LWPOLYLINE
  5
30B
330
1F
100
AcDbEntity
  8
0
  6
Continuous
 62
     7
100
AcDbPolyline
 90
        5
 70
   128
 43
0.0
 10
244.6438074112
 20
231.434448
 10
244.7896657288
 20
235.251714756
 10
246.0306859492
 20
238.8285907947
 10
248.030291216
 20
241.0180179434
 10
250.810344
 20
242.079786
  0
LWPOLYLINE
  5
30C
330
1F
100
AcDbEntity
  8
0
  6
Continuous
 62
     7
100
AcDbPolyline
 90
        5
 70
   128
 43
0.0
 10
263.1566524506
 20
212.065594
 10
265.01499188
 20
212.7500174395
 10
266.0858672506
 20
214.3987011918
 10
266.309259633
 20
218.3888042667
 10
266.42616
 20
226.383969
  0
LWPOLYLINE
  5
30D
330
1F
100
AcDbEntity
  8
0
  6
Continuous
 62
     7
100
AcDbPolyline
 90
        6
 70
   128
 43
0.0
 10
270.1938152313
 20
231.906296
 10
270.1432963598
 20
218.1376211218
 10
270.010904352
 20
214.6982468663
 10
269.0532242572
 20
211.4342857422
 10
266.5831006285
 20
209.0680628864
 10
263.283333
 20
208.27851
  0
LWPOLYLINE
  5
30E
330
1F
100
AcDbEntity
  8
0
  6
Continuous
 62
     7
100
AcDbPolyline
 90
       10
 70
   128
 43
0.0
 10
264.199256897
 20
237.897704
 10
262.1135080532
 20
238.0252088787
 10
261.8699441313
 20
238.1180549528
 10
261.7380460303
 20
238.3311227248
 10
261.7178146427
 20
238.8538098628
 10
261.672419015
 20
239.89940492
 10
261.722892797
 20
240.9436621761
 10
261.8458218637
 20
241.4506633981
 10
262.2730445424
 20
241.7212762862
 10
264.355281
 20
241.884911
  0
LWPOLYLINE
  5
30F
330
1F
100
AcDbEntity
  8
0
  6
Continuous
 62
     7
100
AcDbPolyline
 90
        3
 70
   128
 43
0.0
 10
209.0772390366
 20
208.212216
 10
208.6575046383
 20
208.2943725726
 10
208.541132
 20
208.61204
  0
LWPOLYLINE
  5
310
330
1F
100
AcDbEntity
  8
0
  6
Continuous
 62
     7
100
AcDbPolyline
 90
       11
 70
   128
 43
0.0
 10
214.2261266708
 20
208.261492
 10
212.1834589852
 20
208.7954072979
 10
211.8185346782
 20
208.9568846023
 10
211.7853939106
 20
208.9553640105
 10
211.7589394751
 20
208.9366427936
 10
211.7389345552
 20
208.8734121952
 10
211.7287042576
 20
208.6957812262
 10
211.5445724848
 20
208.4098617437
 10
211.2070386728
 20
208.3000462965
 10
210.5015340773
 20
208.2076776905
 10
209.077365
 20
208.214756
  0
LWPOLYLINE
  5
311
330
1F
100
AcDbEntity
  8
0
  6
Continuous
 62
     7
100
AcDbPolyline
 90
       12
 70
   128
 43
0.0
 10
214.3807411194
 20
238.063227
 10
212.4126573626
 20
235.3166539572
 10
212.0600451407
 20
231.8861816977
 10
212.0580192551
 20
224.9720130488
 10
212.1428887552
 20
218.0582721464
 10
212.3830232917
 20
214.6132255812
 10
213.1185477656
 20
213.0630371051
 10
213.6713576738
 20
212.399713206
 10
214.0030233511
 20
212.1235049504
 10
214.188707753
 20
212.0133717641
 10
214.2827440391
 20
211.9593128867
 10
214.380806
 20
211.914718
  0
LWPOLYLINE
  5
312
330
1F
100
AcDbEntity
  8
0
  6
Continuous
 62
     7
100
AcDbPolyline
 90
        4
 70
   128
 43
0.0
 10
208.5480690002
 20
235.637725
 10
209.1077644246
 20
238.2226866551
 10
210.6458994798
 20
240.3762037834
 10
214.380806
 20
242.092825
  0
LWPOLYLINE
  5
313
330
1F
100
AcDbEntity
  8
0
  6
Continuous
 62
     7
100
AcDbPolyline
 90
        8
 70
   128
 43
0.0
 10
217.5713777542
 20
211.89849
 10
219.3957174051
 20
214.7016914797
 10
219.8332098797
 20
218.0934328797
 10
219.8980198226
 20
224.956694057
 10
219.8029369293
 20
231.820007105
 10
219.5060988937
 20
235.2326959653
 10
218.7788558667
 20
236.7789873301
 10
217.571407
 20
237.967413
  0
LWPOLYLINE
  5
314
330
1F
100
AcDbEntity
  8
0
  6
Continuous
 62
     7
100
AcDbPolyline
 90
        9
 70
   128
 43
0.0
 10
217.5713777542
 20
242.050915
 10
221.717968638
 20
239.659658981
 10
223.5179036953
 20
235.1386683453
 10
223.8420670019
 20
230.2206627718
 10
223.9144595513
 20
225.2883352169
 10
223.6050806985
 20
215.4312339857
 10
222.034163434
 20
210.7953463853
 10
220.3849569121
 20
208.9844184998
 10
218.0756
 20
208.278482
  0
LWPOLYLINE
  5
315
330
1F
100
AcDbEntity
  8
0
  6
Continuous
 62
     7
100
AcDbPolyline
 90
       12
 70
   128
 43
0.0
 10
254.0009021759
 20
226.555475
 10
255.9705904169
 20
225.6173179644
 10
256.0541159622
 20
225.5814397568
 10
256.0960315574
 20
225.5638752454
 10
256.1270587365
 20
225.550162219
 10
256.132622718
 20
225.5482931844
 10
256.1367370557
 20
225.5512191189
 10
256.1799426658
 20
226.0945992687
 10
256.2032001787
 20
227.0639538741
 10
256.1232893732
 20
232.8810050159
 10
255.789168461
 20
235.7615766929
 10
254.00116
 20
237.974073
  0
LWPOLYLINE
  5
316
330
1F
100
AcDbEntity
  8
0
  6
Continuous
 62
     7
100
AcDbPolyline
 90
        7
 70
   128
 43
0.0
 10
248.4844923019
 20
216.5459
 10
248.8902852804
 20
214.6137415343
 10
249.6766497907
 20
212.8170456097
 10
252.261727762
 20
211.4959362732
 10
254.8855934655
 20
212.6962158613
 10
256.1086882445
 20
215.7149331688
 10
256.23036
 20
218.318509
  0
LWPOLYLINE
  5
317
330
1F
100
AcDbEntity
  8
0
  6
Continuous
 62
     7
100
AcDbPolyline
 90
        4
 70
   128
 43
0.0
 10
250.3848075867
 20
208.259347
 10
247.6480752763
 20
209.294750133
 10
245.7555039768
 20
211.5973622697
 10
244.648668
 20
216.128973
  0
LWPOLYLINE
  5
318
330
1F
100
AcDbEntity
  8
0
  6
Continuous
 62
     7
100
AcDbPolyline
 90
        3
 70
   128
 43
0.0
 10
253.3762454987
 20
208.268181
 10
252.2905938744
 20
208.2797086776
 10
251.437583
 20
208.268096
  0
LWPOLYLINE
  5
319
330
1F
100
AcDbEntity
  8
0
  6
Continuous
 62
     7
100
AcDbPolyline
 90
        8
 70
   128
 43
0.0
 10
254.0009021759
 20
242.050548
 10
258.1743317567
 20
239.6590708134
 10
260.033751806
 20
235.147836331
 10
260.1647288357
 20
225.2701498379
 10
259.9978198223
 20
215.3914247381
 10
258.5139646232
 20
210.7689805057
 10
256.7990859297
 20
209.002720996
 10
254.484573
 20
208.260279
  0
LWPOLYLINE
  5
31A
330
1F
100
AcDbEntity
  8
0
  6
Continuous
 62
     7
100
AcDbPolyline
 90
        7
 70
   128
 43
0.0
 10
283.1044197083
 20
242.049927
 10
287.1342853945
 20
239.8238264863
 10
289.0394656183
 20
235.5625388307
 10
289.3109463431
 20
226.133592232
 10
289.1891095982
 20
216.6989420027
 10
288.2816892573
 20
212.1059521767
 10
285.266875
 20
208.579472
  0
LWPOLYLINE
  5
31B
330
1F
100
AcDbEntity
  8
0
  6
Continuous
 62
     7
100
AcDbPolyline
 90
        8
 70
   128
 43
0.0
 10
283.1044197083
 20
211.981153
 10
285.0541396415
 20
215.1263756737
 10
285.2852323616
 20
218.9436188396
 10
285.322077543
 20
222.7701362888
 10
285.3240087843
 20
226.5968521635
 10
285.2902907302
 20
230.6056261286
 10
285.0757650526
 20
234.6068446316
 10
283.104612
 20
237.97746
  0
ARC
  5
31C
330
1F
100
AcDbEntity
  8
0
  6
Continuous
 62
     7
100
AcDbCircle
 10
283.6608103469
 20
212.7054987662
 30
0.0
 40
4.428503251086558
100
AcDbArc
 50
268.9242836055
 51
290.1526473866
  0
LWPOLYLINE
  5
31D
330
1F
100
AcDbEntity
  8
0
  6
Continuous
 62
     7
100
AcDbPolyline
 90
        7
 70
   128
 43
0.0
 10
352.6136875153
 20
241.884911
 10
353.6796951476
 20
241.820759815
 10
354.1711245694
 20
241.6255683862
 10
354.3371296363
 20
241.1496518309
 10
354.0316041329
 20
239.0339553694
 10
351.763086204
 20
226.4088936377
 10
348.55354
 20
209.609357
  0
LWPOLYLINE
  5
31E
330
1F
100
AcDbEntity
  8
0
  6
Continuous
 62
     7
100
AcDbPolyline
 90
       29
 70
   128
 43
0.0
 10
344.6629047394
 20
209.609047
 10
341.3454881145
 20
226.5780904038
 10
338.9828114604
 20
239.3285508467
 10
338.6609295138
 20
241.4652686288
 10
338.7877155005
 20
241.674631887
 10
339.0456464964
 20
241.7538777802
 10
339.5791745627
 20
241.8374404521
 10
340.6582061584
 20
241.8849310285
 10
342.0847440787
 20
241.724966871
 10
342.3727632598
 20
241.5219970824
 10
342.4603848338
 20
241.1732206136
 10
342.6063121799
 20
240.467728307
 10
343.1639082809
 20
237.6404753846
 10
344.2489203193
 20
231.9800934492
 10
346.5236830127
 20
220.6807137398
 10
346.6590849472
 20
220.1576371177
 10
346.6722602049
 20
220.1146918585
 10
346.6808604252
 20
220.0908618518
 10
346.6858619931
 20
220.0873357048
 10
346.6930482971
 20
220.1374427088
 10
346.7040796258
 20
220.1868685608
 10
346.7528110825
 20
220.422007431
 10
347.292662301
 20
223.2526815516
 10
349.1185251094
 20
233.3347817944
 10
350.0753261125
 20
238.367650685
 10
350.6045439911
 20
240.8738063776
 10
350.7758625364
 20
241.490201257
 10
351.3410056253
 20
241.7608210259
 10
352.613499
 20
241.883021
  0
LWPOLYLINE
  5
31F
330
1F
100
AcDbEntity
  8
0
  6
Continuous
 62
     7
100
AcDbPolyline
 90
        7
 70
   128
 43
0.0
 10
241.0873174667
 20
527.875895
 10
240.0216548512
 20
527.9400471856
 10
239.530224552
 20
528.1352374179
 10
239.364219823
 20
528.6111547879
 10
239.6697457893
 20
530.7268512215
 10
241.9382638217
 20
543.3519130315
 10
245.147809
 20
560.15145
  0
LWPOLYLINE
  5
320
330
1F
100
AcDbEntity
  8
0
  6
Continuous
 62
     7
100
AcDbPolyline
 90
       29
 70
   128
 43
0.0
 10
249.0383386612
 20
560.15176
 10
252.3558619352
 20
543.1827166015
 10
254.7185375686
 20
530.4322559807
 10
255.0404194933
 20
528.2955382559
 10
254.9136340673
 20
528.0861754381
 10
254.6557032289
 20
528.0069292956
 10
254.1221751959
 20
527.9233665368
 10
253.0431436278
 20
527.8758759484
 10
251.6166057262
 20
528.0358402022
 10
251.3285867737
 20
528.2388098468
 10
251.2409646917
 20
528.5875861675
 10
251.0950377671
 20
529.293078559
 10
250.5374416284
 20
532.1203314748
 10
249.4524297204
 20
537.7807134344
 10
247.1776670063
 20
549.0800931486
 10
247.0422675787
 20
549.6031705856
 10
247.0290791735
 20
549.6461116428
 10
247.0204891328
 20
549.6699452874
 10
247.0154872662
 20
549.6734714569
 10
247.0083008677
 20
549.6233644608
 10
246.9972704347
 20
549.5739384358
 10
246.9485391685
 20
549.3387995185
 10
246.4086877229
 20
546.5081254446
 10
244.5828249397
 20
536.4260251984
 10
243.6260235839
 20
531.3931563762
 10
243.0968050658
 20
528.8870008344
 10
242.9254874425
 20
528.2706056912
 10
242.3603443608
 20
527.999985971
 10
241.087851
 20
527.877786
  0
LWPOLYLINE
  5
321
330
1F
100
AcDbEntity
  8
0
  6
Continuous
 62
     7
100
AcDbPolyline
 90
        4
 70
   128
 43
0.0
 10
271.8014717102
 20
538.839834
 10
270.88332407
 20
531.7894954342
 10
268.6952511942
 20
529.0014399819
 10
265.436838
 20
527.690899
  0
LWPOLYLINE
  5
322
330
1F
100
AcDbEntity
  8
0
  6
Continuous
 62
     7
100
AcDbPolyline
 90
        4
 70
   128
 43
0.0
 10
265.4366493225
 20
531.67963
 10
267.0518138838
 20
533.1205825343
 10
267.719460369
 20
535.2207329712
 10
268.085793
 20
538.665223
  0
LWPOLYLINE
  5
323
330
1F
100
AcDbEntity
  8
0
  6
Continuous
 62
     7
100
AcDbPolyline
 90
       13
 70
   128
 43
0.0
 10
262.4366283417
 20
543.186169
 10
260.4721283345
 20
544.1297711844
 10
260.3790990306
 20
544.1708940852
 10
260.3055178904
 20
544.2020197589
 10
260.2887700905
 20
544.2111893308
 10
260.2831531843
 20
544.2097659681
 10
260.2815258077
 20
544.2013019899
 10
260.2666571726
 20
544.1002961746
 10
260.2356340648
 20
543.692842636
 10
260.1980149087
 20
542.7248810991
 10
260.2174151779
 20
536.9135453428
 10
260.6695447076
 20
534.0556158225
 10
262.436661
 20
531.820007
  0
LWPOLYLINE
  5
324
330
1F
100
AcDbEntity
  8
0
  6
Continuous
 62
     7
100
AcDbPolyline
 90
        7
 70
   128
 43
0.0
 10
262.4366283417
 20
527.669026
 10
258.4049712914
 20
529.860799713
 10
256.5126948392
 20
534.0774228477
 10
256.3160468203
 20
543.4325443576
 10
256.3230580421
 20
549.6728148174
 10
256.5632844115
 20
555.9034681721
 10
259.92157
 20
560.980308
  0
LWPOLYLINE
  5
325
330
1F
100
AcDbEntity
  8
0
  6
Continuous
 62
     7
100
AcDbPolyline
 90
        3
 70
   128
 43
0.0
 10
260.0035667419
 20
561.020214
 10
261.0454360777
 20
561.3973006328
 10
261.91223
 20
561.490312
  0
LWPOLYLINE
  5
326
330
1F
100
AcDbEntity
  8
0
  6
Continuous
 62
     7
100
AcDbPolyline
 90
        6
 70
   128
 43
0.0
 10
264.1575336456
 20
561.504762
 10
264.742924384
 20
561.4704522079
 10
265.178373077
 20
561.5505575469
 10
265.2509806754
 20
561.536581882
 10
265.2793705397
 20
561.5088152752
 10
265.284498
 20
561.473435
  0
LWPOLYLINE
  5
327
330
1F
100
AcDbEntity
  8
0
  6
Continuous
 62
     7
100
AcDbPolyline
 90
        4
 70
   128
 43
0.0
 10
265.2842998505
 20
561.473435
 10
268.1840287346
 20
560.9431885596
 10
270.2755372646
 20
558.815709834
 10
271.801497
 20
553.09087
  0
LWPOLYLINE
  5
328
330
1F
100
AcDbEntity
  8
0
  6
Continuous
 62
     7
100
AcDbPolyline
 90
        7
 70
   128
 43
0.0
 10
267.97914505
 20
553.069534
 10
266.8506872523
 20
556.7331545238
 10
265.3981313918
 20
557.9479894971
 10
263.4904761472
 20
558.1607471491
 10
261.7949439673
 20
557.3141918433
 10
260.7229807261
 20
555.7149139281
 10
260.214528
 20
551.895603
  0
LWPOLYLINE
  5
329
330
1F
100
AcDbEntity
  8
0
  6
Continuous
 62
     7
100
AcDbPolyline
 90
        6
 70
   128
 43
0.0
 10
294.4138050079
 20
537.678884
 10
294.4728052743
 20
551.5409332327
 10
294.6152993208
 20
555.0032390429
 10
295.6120103446
 20
558.291667601
 10
298.0753521421
 20
560.6583755229
 10
301.397721
 20
561.4451
  0
LWPOLYLINE
  5
32A
330
1F
100
AcDbEntity
  8
0
  6
Continuous
 62
     7
100
AcDbPolyline
 90
        5
 70
   128
 43
0.0
 10
301.5446662903
 20
557.720754
 10
299.6641894416
 20
557.035381411
 10
298.6094724187
 20
555.3350359899
 10
298.283772305
 20
551.3197071057
 10
298.176569
 20
543.24933
  0
LWPOLYLINE
  5
32B
330
1F
100
AcDbEntity
  8
0
  6
Continuous
 62
     7
100
AcDbPolyline
 90
        5
 70
   128
 43
0.0
 10
282.9692363739
 20
527.611058
 10
279.8086272794
 20
528.0427134322
 10
277.2617682579
 20
529.9469799347
 10
275.209613975
 20
535.9029209973
 10
275.020575
 20
548.73415
  0
LWPOLYLINE
  5
32C
330
1F
100
AcDbEntity
  8
0
  6
Continuous
 62
     7
100
AcDbPolyline
 90
        9
 70
   128
 43
0.0
 10
275.0203609467
 20
548.73415
 10
275.0546966821
 20
556.0226752905
 10
275.0943369349
 20
558.7556189624
 10
275.1281415604
 20
560.1218126111
 10
275.1554996035
 20
560.8045637794
 10
275.1791226986
 20
561.1453727646
 10
275.2181666695
 20
561.3092246338
 10
275.3724753266
 20
561.377770126
 10
277.186759
 20
561.51035
  0
LWPOLYLINE
  5
32D
330
1F
100
AcDbEntity
  8
0
  6
Continuous
 62
     7
100
AcDbPolyline
 90
        9
 70
   128
 43
0.0
 10
279.064655304
 20
548.226488
 10
279.148240283
 20
538.8403700814
 10
279.5447562187
 20
534.1789967796
 10
280.7964166277
 20
532.2168181951
 10
282.9175785125
 20
531.3121574357
 10
285.0593098352
 20
532.1541891515
 10
286.4075251175
 20
534.0535098202
 10
286.7957608647
 20
538.7140925339
 10
286.876134
 20
548.10025
  0
LWPOLYLINE
  5
32E
330
1F
100
AcDbEntity
  8
0
  6
Continuous
 62
     7
100
AcDbPolyline
 90
        6
 70
   128
 43
0.0
 10
290.8575534821
 20
548.988545
 10
290.7416666175
 20
536.0163992565
 10
290.2265706665
 20
532.8226196786
 10
288.7471415651
 20
529.9709249686
 10
286.1631848794
 20
528.0539486719
 10
282.969346
 20
527.611058
  0
LWPOLYLINE
  5
32F
330
1F
100
AcDbEntity
  8
0
  6
Continuous
 62
     7
100
AcDbPolyline
 90
       12
 70
   128
 43
0.0
 10
339.7002220154
 20
543.205332
 10
337.7307593121
 20
544.1434887393
 10
337.6472335051
 20
544.1793663376
 10
337.6053183121
 20
544.1969317898
 10
337.574291161
 20
544.2106448438
 10
337.5687271073
 20
544.2125138319
 10
337.5646130019
 20
544.2095877231
 10
337.5214073416
 20
543.6662076724
 10
337.498149399
 20
542.6968530274
 10
337.5780606427
 20
536.879801553
 10
337.912181413
 20
533.9992296941
 10
339.70019
 20
531.786733
  0
LWPOLYLINE
  5
330
330
1F
100
AcDbEntity
  8
0
  6
Continuous
 62
     7
100
AcDbPolyline
 90
        8
 70
   128
 43
0.0
 10
339.7002220154
 20
527.710259
 10
335.5270293111
 20
530.1017222846
 10
333.6676009843
 20
534.6129353457
 10
333.5366206556
 20
544.490586675
 10
333.7035240352
 20
554.3692769068
 10
335.1873146389
 20
558.9917257877
 10
336.902159225
 20
560.7580058497
 10
339.216636
 20
561.500528
  0
LWPOLYLINE
  5
331
330
1F
100
AcDbEntity
  8
0
  6
Continuous
 62
     7
100
AcDbPolyline
 90
        3
 70
   128
 43
0.0
 10
340.3248786926
 20
561.492711
 10
341.4107554778
 20
561.4810982298
 10
342.263767
 20
561.492711
  0
LWPOLYLINE
  5
332
330
1F
100
AcDbEntity
  8
0
  6
Continuous
 62
     7
100
AcDbPolyline
 90
        4
 70
   128
 43
0.0
 10
343.3163166046
 20
561.501572
 10
346.0532711757
 20
560.4660589506
 10
347.9458444216
 20
558.1634466558
 10
349.052682
 20
553.631834
  0
LWPOLYLINE
  5
333
330
1F
100
AcDbEntity
  8
0
  6
Continuous
 62
     7
100
AcDbPolyline
 90
        7
 70
   128
 43
0.0
 10
345.2167510986
 20
553.214907
 10
344.8110647192
 20
555.1470653989
 10
344.0247002819
 20
556.9437612951
 10
341.4396219522
 20
558.2648696988
 10
338.8157564653
 20
557.0645910093
 10
337.5926617535
 20
554.0458738131
 10
337.471004
 20
551.442298
  0
LWPOLYLINE
  5
334
330
1F
100
AcDbEntity
  8
0
  6
Continuous
 62
     7
100
AcDbPolyline
 90
        6
 70
   128
 43
0.0
 10
323.5070705414
 20
537.854511
 10
323.5580523963
 20
551.6231858902
 10
323.690445071
 20
555.0625601306
 10
324.6481256298
 20
558.3265211206
 10
327.118248954
 20
560.6927443454
 10
330.418017
 20
561.482297
  0
LWPOLYLINE
  5
335
330
1F
100
AcDbEntity
  8
0
  6
Continuous
 62
     7
100
AcDbPolyline
 90
        5
 70
   128
 43
0.0
 10
330.5444717407
 20
557.695213
 10
328.68635796
 20
557.0107898403
 10
327.6154817781
 20
555.3621059851
 10
327.3920892776
 20
551.3720028086
 10
327.27519
 20
543.376838
  0
LWPOLYLINE
  5
336
330
1F
100
AcDbEntity
  8
0
  6
Continuous
 62
     7
100
AcDbPolyline
 90
       10
 70
   128
 43
0.0
 10
329.5018672943
 20
531.863103
 10
331.5878445961
 20
531.735597485
 10
331.8314082854
 20
531.6427498999
 10
331.9633041924
 20
531.4296806644
 10
331.9835356551
 20
530.906992792
 10
332.0289311081
 20
529.8613964122
 10
331.9784551798
 20
528.8171380306
 10
331.8555243134
 20
528.3101368731
 10
331.4282970848
 20
528.0395286482
 10
329.346058
 20
527.875867
  0
LWPOLYLINE
  5
337
330
1F
100
AcDbEntity
  8
0
  6
Continuous
 62
     7
100
AcDbPolyline
 90
       11
 70
   128
 43
0.0
 10
379.4751167297
 20
561.498581
 10
381.5179084477
 20
560.9653907386
 10
381.8828325275
 20
560.8039212788
 10
381.9159720274
 20
560.8054490648
 10
381.9424195084
 20
560.824178491
 10
381.962417235
 20
560.8874112187
 10
381.9726468624
 20
561.0650413014
 10
382.1567892228
 20
561.3509518909
 10
382.4943225365
 20
561.4607633531
 10
383.1998236261
 20
561.5531297368
 10
384.623985
 20
561.546051
  0
LWPOLYLINE
  5
338
330
1F
100
AcDbEntity
  8
0
  6
Continuous
 62
     7
100
AcDbPolyline
 90
        3
 70
   128
 43
0.0
 10
384.624004364
 20
561.548591
 10
385.0438401413
 20
561.4664390727
 10
385.160105
 20
561.148766
  0
LWPOLYLINE
  5
339
330
1F
100
AcDbEntity
  8
0
  6
Continuous
 62
     7
100
AcDbPolyline
 90
        4
 70
   128
 43
0.0
 10
385.153055191
 20
534.123082
 10
384.593585606
 20
531.538119368
 10
383.0554505348
 20
529.3846024539
 10
379.320544
 20
527.667982
  0
LWPOLYLINE
  5
33A
330
1F
100
AcDbEntity
  8
0
  6
Continuous
 62
     7
100
AcDbPolyline
 90
        8
 70
   128
 43
0.0
 10
376.1298656464
 20
557.862317
 10
374.3056326889
 20
555.0591155485
 10
373.8681403909
 20
551.6673742977
 10
373.8033292913
 20
544.8041132249
 10
373.8984130618
 20
537.9408002798
 10
374.1952500768
 20
534.5281112841
 10
374.9224938165
 20
532.9818201661
 10
376.129942
 20
531.793394
  0
LWPOLYLINE
  5
33B
330
1F
100
AcDbEntity
  8
0
  6
Continuous
 62
     7
100
AcDbPolyline
 90
        9
 70
   128
 43
0.0
 10
376.1298656464
 20
527.709892
 10
371.9833814462
 20
530.1011477672
 10
370.1834463124
 20
534.6221380716
 10
369.8592830264
 20
539.5401435639
 10
369.7868900958
 20
544.4724710445
 10
370.0962691992
 20
554.3295721352
 10
371.6671864161
 20
558.9654596179
 10
373.3163923684
 20
560.7763878945
 10
375.625749
 20
561.482325
  0
LWPOLYLINE
  5
33C
330
1F
100
AcDbEntity
  8
0
  6
Continuous
 62
     7
100
AcDbPolyline
 90
       10
 70
   128
 43
0.0
 10
342.8909778595
 20
531.73678
 10
342.910651805
 20
531.7597823887
 10
342.9362395666
 20
531.7761954465
 10
343.0005872268
 20
531.7942259145
 10
343.1251176137
 20
531.8367209862
 10
343.3412374103
 20
531.9676440218
 10
343.7121739495
 20
532.3121402456
 10
344.2992974874
 20
533.1374439613
 10
344.944749058
 20
535.0547638733
 10
345.391207
 20
539.082065
  0
LWPOLYLINE
  5
33D
330
1F
100
AcDbEntity
  8
0
  6
Continuous
 62
     7
100
AcDbPolyline
 90
        5
 70
   128
 43
0.0
 10
349.0574359894
 20
538.326358
 10
348.9116836979
 20
534.5090915783
 10
347.6706635569
 20
530.9322157945
 10
345.6710587956
 20
528.7427884496
 10
342.891006
 20
527.681021
  0
LWPOLYLINE
  5
33E
330
1F
100
AcDbEntity
  8
0
  6
Continuous
 62
     7
100
AcDbPolyline
 90
       10
 70
   128
 43
0.0
 10
359.6148490906
 20
527.598894
 10
357.04563046
 20
527.8928964583
 10
354.8331669881
 20
529.2139510273
 10
352.4194043903
 20
533.6967003388
 10
352.1708806118
 20
538.8797101959
 10
352.1062014374
 20
544.0707566973
 10
352.2185536451
 20
554.4512854683
 10
353.8822007979
 20
559.3141408404
 10
355.7648843373
 20
561.0699061185
 10
358.289352
 20
561.489352
  0
LWPOLYLINE
  5
33F
330
1F
100
AcDbEntity
  8
0
  6
Continuous
 62
     7
100
AcDbPolyline
 90
        4
 70
   128
 43
0.0
 10
361.6032600403
 20
561.491977
 10
364.3028689646
 20
560.4978854029
 10
366.09139841
 20
558.1794534115
 10
367.155047
 20
553.700978
  0
LWPOLYLINE
  5
340
330
1F
100
AcDbEntity
  8
0
  6
Continuous
 62
     7
100
AcDbPolyline
 90
        8
 70
   128
 43
0.0
 10
363.4066581726
 20
552.425108
 10
362.9900157275
 20
555.2653685577
 10
361.4224323301
 20
557.6175107995
 10
359.3690212076
 20
558.0748936677
 10
357.451844921
 20
557.2674745032
 10
356.1782829543
 20
553.5213986417
 10
356.0779370362
 20
550.3341483946
 10
356.035243
 20
544.639782
  0
LWPOLYLINE
  5
341
330
1F
100
AcDbEntity
  8
0
  6
Continuous
 62
     7
100
AcDbPolyline
 90
        8
 70
   128
 43
0.0
 10
356.0352325439
 20
544.639782
 10
356.1076388898
 20
537.8223595957
 10
356.2198210275
 20
535.1464171125
 10
357.1163504959
 20
532.6705370039
 10
358.7235640506
 20
531.4883274553
 10
360.7228197266
 20
531.5655131662
 10
362.6396950965
 20
533.3447511029
 10
363.266606
 20
535.972964
  0
LWPOLYLINE
  5
342
330
1F
100
AcDbEntity
  8
0
  6
Continuous
 62
     7
100
AcDbPolyline
 90
       11
 70
   128
 43
0.0
 10
365.3032779694
 20
538.178926
 10
366.3436672857
 20
538.1918104347
 10
366.8563658946
 20
538.1117734247
 10
367.2176271687
 20
537.7688080902
 10
367.2565604248
 20
537.1186874261
 10
367.2405268256
 20
536.6061409054
 10
367.1750577315
 20
535.6927849873
 10
366.6596712216
 20
532.6168450953
 10
365.2048267418
 20
529.8791717086
 10
362.6724090629
 20
528.0919961182
 10
359.614859
 20
527.598894
  0
LWPOLYLINE
  5
343
330
1F
100
AcDbEntity
  8
0
  6
Continuous
 62
     7
100
AcDbPolyline
 90
       11
 70
   128
 43
0.0
 10
313.7891292572
 20
561.491751
 10
316.2316180226
 20
561.0899484222
 10
318.0881180792
 20
559.4164927228
 10
319.9093853668
 20
554.7740374641
 10
320.2207627785
 20
549.7537611656
 10
320.2833820411
 20
544.7210295067
 10
320.2149743529
 20
539.6883714165
 10
319.8948626198
 20
534.6694751515
 10
318.054617253
 20
530.0602545093
 10
316.1661328095
 20
528.4191331275
 10
313.787351
 20
527.690842
  0
LWPOLYLINE
  5
344
330
1F
100
AcDbEntity
  8
0
  6
Continuous
 62
     7
100
AcDbPolyline
 90
        8
 70
   128
 43
0.0
 10
313.7872219086
 20
531.729866
 10
315.064868657
 20
532.8609840592
 10
315.8402694386
 20
534.4054416211
 10
316.1683415837
 20
537.8515692827
 10
316.2643313505
 20
544.7909808484
 10
316.2029903334
 20
551.7304070684
 10
315.7268269123
 20
555.1540598945
 10
313.787351
 20
557.874283
  0
LWPOLYLINE
  5
345
330
1F
100
AcDbEntity
  8
0
  6
Continuous
 62
     7
100
AcDbPolyline
 90
        7
 70
   128
 43
0.0
 10
310.596704483
 20
527.71088
 10
306.5670638612
 20
529.9369804686
 10
304.6618831723
 20
534.1982679259
 10
304.3904037434
 20
543.6272138809
 10
304.5122403558
 20
553.061863345
 10
305.4196600069
 20
557.6548528746
 10
308.434472
 20
561.181335
  0
ARC
  5
346
330
1F
100
AcDbEntity
  8
0
  6
Continuous
 62
     7
100
AcDbCircle
 10
310.0409049412
 20
557.0501031895
 30
0.0
 40
4.433699544608785
100
AcDbArc
 50
88.9302658608
 51
110.1361414008
  0
LWPOLYLINE
  5
347
330
1F
100
AcDbEntity
  8
0
  6
Continuous
 62
     7
100
AcDbPolyline
 90
        8
 70
   128
 43
0.0
 10
310.596704483
 20
557.779654
 10
308.6472091978
 20
554.6344309133
 10
308.4161172638
 20
550.8171878452
 10
308.3792724336
 20
546.9906705763
 10
308.3773412138
 20
543.1639548889
 10
308.4110592494
 20
539.1551811202
 10
308.6255846956
 20
535.1539627858
 10
310.596737
 20
531.783347
  0
LWPOLYLINE
  5
348
330
1F
100
AcDbEntity
  8
0
  6
Continuous
 62
     7
100
AcDbPolyline
 90
       14
 70
   128
 43
0.0
 10
230.0618886948
 20
527.605131
 10
227.5644994394
 20
527.8331057532
 10
225.3580911945
 20
528.9916301807
 10
222.770696837
 20
533.1967015344
 10
222.2277284193
 20
538.1765497809
 10
222.135994286
 20
543.2020214668
 10
222.1118336324
 20
553.2545886271
 10
222.23238518
 20
560.7927842283
 10
222.2531277678
 20
561.1062288613
 10
222.2730485878
 20
561.2619661999
 10
222.3150041565
 20
561.3251356059
 10
222.3858062851
 20
561.3583998491
 10
223.0048799215
 20
561.4587582434
 10
224.260023
 20
561.510152
  0
LWPOLYLINE
  5
349
330
1F
100
AcDbEntity
  8
0
  6
Continuous
 62
     7
100
AcDbPolyline
 90
        9
 70
   128
 43
0.0
 10
226.1379957199
 20
548.226488
 10
226.2249230244
 20
538.8551070032
 10
226.6152367094
 20
534.1997780752
 10
227.8445754191
 20
532.2237489563
 10
229.9997284761
 20
531.4546567083
 10
232.1855775773
 20
532.0750151093
 10
233.509880817
 20
533.985637847
 10
233.8731858596
 20
538.6482050584
 10
234.010776
 20
548.01897
  0
LWPOLYLINE
  5
34A
330
1F
100
AcDbEntity
  8
0
  6
Continuous
 62
     7
100
AcDbPolyline
 90
        6
 70
   128
 43
0.0
 10
237.9430532455
 20
547.684593
 10
237.7804152353
 20
535.3475981831
 10
237.2262569335
 20
532.3333520318
 10
235.6689550605
 20
529.6874939301
 10
233.0978407359
 20
528.0170978597
 10
230.061968
 20
527.605131
  0
LWPOLYLINE
  5
34B
330
1F
100
AcDbEntity
  8
0
  6
Continuous
 62
     7
100
AcDbPolyline
 90
        9
 70
   128
 43
0.0
 10
213.7838602066
 20
542.153518
 10
213.8172282364
 20
552.7080680443
 10
213.9309597779
 20
560.6230257117
 10
213.9756883067
 20
561.2807368042
 10
214.0243994057
 20
561.343668133
 10
214.1002905094
 20
561.3753650859
 10
214.2610980863
 20
561.4113391849
 10
214.5888529429
 20
561.447376161
 10
215.907437
 20
561.452014
  0
LWPOLYLINE
  5
34C
330
1F
100
AcDbEntity
  8
0
  6
Continuous
 62
     7
100
AcDbPolyline
 90
       10
 70
   128
 43
0.0
 10
210.8302116394
 20
521.024494
 10
209.9148107948
 20
522.0066769738
 10
209.549978051
 20
522.4713398993
 10
209.4092428089
 20
522.6898687254
 10
209.3516099589
 20
522.8826186109
 10
209.4158608902
 20
523.0150045921
 10
209.5395690122
 20
523.0981722435
 10
209.82709998
 20
523.1806235793
 10
210.4227740548
 20
523.2459230458
 10
211.62146
 20
523.273743
  0
LWPOLYLINE
  5
34D
330
1F
100
AcDbEntity
  8
0
  6
Continuous
 62
     7
100
AcDbPolyline
 90
        3
 70
   128
 43
0.0
 10
90.3218388557
 20
358.2686710088
 10
90.321886484
 20
358.2687499639
 10
90.321886
 20
358.268812
  0
LWPOLYLINE
  5
34E
330
1F
100
AcDbEntity
  8
0
  6
Continuous
 62
     7
100
AcDbPolyline
 90
        3
 70
   128
 43
0.0
 10
352.2531986237
 20
394.049171
 10
351.0729785027
 20
390.5238963752
 10
350.167311
 20
387.746822
  0
LWPOLYLINE
  5
34F
330
1F
100
AcDbEntity
  8
0
  6
Continuous
 62
     7
100
AcDbPolyline
 90
        3
 70
   128
 43
0.0
 10
341.0577774048
 20
394.024406
 10
344.1182846617
 20
385.2065326652
 10
346.64297
 20
378.321026
  0
LWPOLYLINE
  5
350
330
1F
100
AcDbEntity
  8
0
  6
Continuous
 62
     7
100
AcDbPolyline
 90
        3
 70
   128
 43
0.0
 10
355.1533222198
 20
394.236536
 10
354.4231649401
 20
394.2842087698
 10
353.847127
 20
394.296542
  0
LWPOLYLINE
  5
351
330
1F
100
AcDbEntity
  8
0
  6
Continuous
 62
     7
100
AcDbPolyline
 90
        3
 70
   128
 43
0.0
 10
352.3507118225
 20
386.380708
 10
350.8189603849
 20
382.0432331629
 10
349.612566
 20
378.63622
  0
LWPOLYLINE
  5
352
330
1F
100
AcDbEntity
  8
0
  6
Continuous
 62
     7
100
AcDbPolyline
 90
        3
 70
   128
 43
0.0
 10
342.0491218567
 20
378.429534
 10
340.4375718452
 20
382.953354434
 10
339.124452
 20
386.490978
  0
LWPOLYLINE
  5
353
330
1F
100
AcDbEntity
  8
0
  6
Continuous
 62
     7
100
AcDbPolyline
 90
        3
 70
   128
 43
0.0
 10
327.1820545197
 20
378.289973
 10
328.0699074377
 20
378.2083287431
 10
328.771937
 20
378.212297
  0
LWPOLYLINE
  5
354
330
1F
100
AcDbEntity
  8
0
  6
Continuous
 62
     7
100
AcDbPolyline
 90
        3
 70
   128
 43
0.0
 10
318.1602954865
 20
394.07649
 10
315.9581460318
 20
393.0384614321
 10
314.80538
 20
391.511604
  0
LWPOLYLINE
  5
355
330
1F
100
AcDbEntity
  8
0
  6
Continuous
 62
     7
100
AcDbPolyline
 90
        3
 70
   128
 43
0.0
 10
314.5413398743
 20
387.940531
 10
316.1571466481
 20
385.2693932672
 10
318.370586
 20
384.16961
  0
LWPOLYLINE
  5
356
330
1F
100
AcDbEntity
  8
0
  6
Continuous
 62
     7
100
AcDbPolyline
 90
        3
 70
   128
 43
0.0
 10
304.2321205139
 20
393.959797
 10
303.4581823026
 20
393.6030854878
 10
302.8893
 20
393.249478
  0
LWPOLYLINE
  5
357
330
1F
100
AcDbEntity
  8
0
  6
Continuous
 62
     7
100
AcDbPolyline
 90
        8
 70
   128
 43
0.0
 10
301.7842769623
 20
387.723572
 10
304.3559263601
 20
385.496623307
 10
304.4144719001
 20
385.4611621424
 10
304.4187342282
 20
385.4434246806
 10
304.4120313842
 20
385.4230022559
 10
304.3761810483
 20
385.3770253983
 10
304.2832389743
 20
385.2836435137
 10
303.704646
 20
384.655752
  0
LWPOLYLINE
  5
358
330
1F
100
AcDbEntity
  8
0
  6
Continuous
 62
     7
100
AcDbPolyline
 90
        3
 70
   128
 43
0.0
 10
301.2254238129
 20
381.196472
 10
300.2273913267
 20
379.6159994744
 10
299.499797
 20
378.341061
  0
LWPOLYLINE
  5
359
330
1F
100
AcDbEntity
  8
0
  6
Continuous
 62
     7
100
AcDbPolyline
 90
        3
 70
   128
 43
0.0
 10
304.2759895325
 20
380.65138
 10
305.6303880927
 20
382.8321659693
 10
307.03235
 20
384.24592
  0
LWPOLYLINE
  5
35A
330
1F
100
AcDbEntity
  8
0
  6
Continuous
 62
     7
100
AcDbPolyline
 90
        3
 70
   128
 43
0.0
 10
297.8799343109
 20
378.358855
 10
297.9188162058
 20
382.850954707
 10
297.910934
 20
386.380711
  0
LWPOLYLINE
  5
35B
330
1F
100
AcDbEntity
  8
0
  6
Continuous
 62
     7
100
AcDbPolyline
 90
        3
 70
   128
 43
0.0
 10
290.450334549
 20
393.984012
 10
288.2330152043
 20
392.6351151081
 10
287.266197
 20
390.832095
  0
LWPOLYLINE
  5
35C
330
1F
100
AcDbEntity
  8
0
  6
Continuous
 62
     7
100
AcDbPolyline
 90
        3
 70
   128
 43
0.0
 10
288.6347770691
 20
385.461313
 10
289.4557995332
 20
384.8744314231
 10
290.152975
 20
384.495526
  0
LWPOLYLINE
  5
35D
330
1F
100
AcDbEntity
  8
0
  6
Continuous
 62
     7
100
AcDbPolyline
 90
        9
 70
   128
 43
0.0
 10
261.4431381226
 20
385.803516
 10
261.9633680618
 20
385.5419963179
 10
262.0851914705
 20
385.4982019754
 10
262.1417463699
 20
385.4742500082
 10
262.1580261849
 20
385.4584089208
 10
262.1616020996
 20
385.4385544476
 10
262.0188132131
 20
385.2571549161
 10
261.0855095738
 20
384.3162928397
 10
257.235439
 20
378.354376
  0
LWPOLYLINE
  5
35E
330
1F
100
AcDbEntity
  8
0
  6
Continuous
 62
     7
100
AcDbPolyline
 90
        3
 70
   128
 43
0.0
 10
261.9686126709
 20
380.607988
 10
263.3552410158
 20
382.8272558889
 10
264.78148
 20
384.27268
  0
LWPOLYLINE
  5
35F
330
1F
100
AcDbEntity
  8
0
  6
Continuous
 62
     7
100
AcDbPolyline
 90
        3
 70
   128
 43
0.0
 10
243.8770532608
 20
378.344168
 10
243.920824244
 20
382.8444601134
 10
243.913627
 20
386.380711
  0
LWPOLYLINE
  5
360
330
1F
100
AcDbEntity
  8
0
  6
Continuous
 62
     7
100
AcDbPolyline
 90
        3
 70
   128
 43
0.0
 10
235.8338832855
 20
393.969187
 10
234.7527034275
 20
393.6248636515
 10
233.929528
 20
393.28208
  0
LWPOLYLINE
  5
361
330
1F
100
AcDbEntity
  8
0
  6
Continuous
 62
     7
100
AcDbPolyline
 90
        3
 70
   128
 43
0.0
 10
232.2686910629
 20
392.10696
 10
231.1017276912
 20
390.4984056544
 10
230.562405
 20
389.029042
  0
LWPOLYLINE
  5
362
330
1F
100
AcDbEntity
  8
0
  6
Continuous
 62
     7
100
AcDbPolyline
 90
        3
 70
   128
 43
0.0
 10
230.5006980896
 20
384.260499
 10
230.8111176368
 20
383.3088411857
 10
231.115733
 20
382.583501
  0
LWPOLYLINE
  5
363
330
1F
100
AcDbEntity
  8
0
  6
Continuous
 62
     7
100
AcDbPolyline
 90
        3
 70
   128
 43
0.0
 10
234.4158887863
 20
379.272179
 10
235.4304608477
 20
378.8198154851
 10
236.253498
 20
378.529433
  0
LWPOLYLINE
  5
364
330
1F
100
AcDbEntity
  8
0
  6
Continuous
 62
     7
100
AcDbPolyline
 90
        3
 70
   128
 43
0.0
 10
284.3041419983
 20
392.019471
 10
284.9618077601
 20
392.613437385
 10
285.180967
 20
393.281439
  0
LWPOLYLINE
  5
365
330
1F
100
AcDbEntity
  8
0
  6
Continuous
 62
     7
100
AcDbPolyline
 90
        3
 70
   128
 43
0.0
 10
284.9984169006
 20
394.279609
 10
283.8494642452
 20
395.1028854139
 10
282.75417
 20
394.943779
  0
LWPOLYLINE
  5
366
330
1F
100
AcDbEntity
  8
0
  6
Continuous
 62
     7
100
AcDbPolyline
 90
        3
 70
   128
 43
0.0
 10
282.0518016815
 20
394.314694
 10
281.880235904
 20
393.8061501407
 10
281.830518
 20
393.386982
  0
LWPOLYLINE
  5
367
330
1F
100
AcDbEntity
  8
0
  6
Continuous
 62
     7
100
AcDbPolyline
 90
        3
 70
   128
 43
0.0
 10
283.3230495453
 20
391.947304
 10
283.8768882555
 20
391.9433075182
 10
284.304219
 20
392.019471
  0
LWPOLYLINE
  5
368
330
1F
100
AcDbEntity
  8
0
  6
Continuous
 62
     7
100
AcDbPolyline
 90
       20
 70
   128
 43
0.0
 10
86.8902206421
 20
522.547895
 10
91.1912633645
 20
525.5233311196
 10
91.6136712468
 20
526.1153269065
 10
92.001775772
 20
526.720108332
 10
92.0232608739
 20
526.7767730714
 10
92.023552314
 20
526.8107118852
 10
91.9808383177
 20
526.8403108733
 10
91.895395683
 20
526.8404540466
 10
91.6890583191
 20
526.8050068614
 10
89.4232565178
 20
526.1557850209
 10
86.3972349419
 20
525.2248892549
 10
85.3781425137
 20
524.9270820842
 10
85.2901707273
 20
524.8901719632
 10
85.2682060596
 20
524.821408854
 10
85.3682563502
 20
524.6189431662
 10
85.9277703167
 20
523.5706478678
 10
86.2338972982
 20
523.0025439895
 10
86.5374109408
 20
522.5133107094
 10
86.6971188962
 20
522.4630318434
 10
86.890262
 20
522.547754
  0
LWPOLYLINE
  5
369
330
1F
100
AcDbEntity
  8
0
  6
Continuous
 62
     7
100
AcDbPolyline
 90
        3
 70
   128
 43
0.0
 10
73.0024576187
 20
522.545243
 10
72.3741494748
 20
522.5928253475
 10
71.884591
 20
522.668997
  0
ARC
  5
36A
330
1F
100
AcDbEntity
  8
0
  6
Continuous
 62
     7
100
AcDbCircle
 10
74.5118030492
 20
540.5461293955
 30
0.0
 40
18.06915058919579
100
AcDbArc
 50
192.4867275081
 51
261.6396337838
  0
ARC
  5
36B
330
1F
100
AcDbEntity
  8
0
  6
Continuous
 62
     7
100
AcDbCircle
 10
74.4868223186
 20
540.5759302002
 30
0.0
 40
18.03687600234504
100
AcDbArc
 50
108.8594315243
 51
192.2348163368
  0
LWPOLYLINE
  5
36C
330
1F
100
AcDbEntity
  8
0
  6
Continuous
 62
     7
100
AcDbPolyline
 90
        3
 70
   128
 43
0.0
 10
68.8423514366
 20
557.712615
 10
70.9802602148
 20
558.2703456284
 10
72.697617
 20
558.524032
  0
LWPOLYLINE
  5
36D
330
1F
100
AcDbEntity
  8
0
  6
Continuous
 62
     7
100
AcDbPolyline
 90
       13
 70
   128
 43
0.0
 10
72.9072093964
 20
558.540994
 10
78.9836765555
 20
558.057172074
 10
84.5504457128
 20
555.5425496764
 10
88.9725705816
 20
551.3582632374
 10
91.6947836814
 20
545.9590508239
 10
92.1949701075
 20
543.9853057211
 10
92.278746983
 20
543.762258305
 10
92.3277097842
 20
543.5905514616
 10
92.2717436288
 20
543.4711847086
 10
92.1428305202
 20
543.4012835756
 10
91.8570590984
 20
543.3695840429
 10
91.2909224666
 20
543.2814682432
 10
87.010742
 20
541.764773
  0
LWPOLYLINE
  5
36E
330
1F
100
AcDbEntity
  8
0
  6
Continuous
 62
     7
100
AcDbPolyline
 90
        3
 70
   128
 43
0.0
 10
86.9538784027
 20
541.733193
 10
84.8318091254
 20
540.3914881074
 10
83.338777
 20
539.106917
  0
LWPOLYLINE
  5
36F
330
1F
100
AcDbEntity
  8
0
  6
Continuous
 62
     7
100
AcDbPolyline
 90
       11
 70
   128
 43
0.0
 10
82.4234485626
 20
538.62364
 10
78.1904992213
 20
535.5762220042
 10
76.7818937904
 20
533.3391229988
 10
76.2113566454
 20
532.1380281541
 10
75.9629512621
 20
531.5255520614
 10
75.9098587071
 20
531.3636453842
 10
75.9342239821
 20
531.3012332512
 10
76.0036174173
 20
531.2576818751
 10
76.3602364632
 20
531.1175442985
 10
78.0345441695
 20
530.1012079416
 10
79.370705
 20
529.311238
  0
LWPOLYLINE
  5
370
330
1F
100
AcDbEntity
  8
0
  6
Continuous
 62
     7
100
AcDbPolyline
 90
       11
 70
   128
 43
0.0
 10
79.0927410126
 20
528.596341
 10
77.4927350214
 20
524.7749751841
 10
77.3350409313
 20
523.7579333633
 10
77.7810245157
 20
522.8310280994
 10
77.7814840794
 20
522.8103429667
 10
77.7631577829
 20
522.7937681882
 10
77.5434504185
 20
522.7381839925
 10
77.2996938882
 20
522.7038468714
 10
76.7939754659
 20
522.6349072983
 10
75.7625747152
 20
522.527159672
 10
73.001626
 20
522.545468
  0
LWPOLYLINE
  5
371
330
1F
100
AcDbEntity
  8
0
  6
Continuous
 62
     7
100
AcDbPolyline
 90
        6
 70
   128
 43
0.0
 10
78.7484049797
 20
523.738704
 10
78.6462143175
 20
523.9411791696
 10
78.7100667003
 20
524.1892732714
 10
78.8510400421
 20
524.6432169082
 10
79.1810436075
 20
525.5579743031
 10
79.934754
 20
527.341496
  0
LWPOLYLINE
  5
372
330
1F
100
AcDbEntity
  8
0
  6
Continuous
 62
     7
100
AcDbPolyline
 90
        3
 70
   128
 43
0.0
 10
80.1657438278
 20
527.355015
 10
80.8670354519
 20
525.6654448345
 10
82.241046
 20
525.2007
  0
ARC
  5
373
330
1F
100
AcDbEntity
  8
0
  6
Continuous
 62
     7
100
AcDbCircle
 10
75.5988663635
 20
538.0592104537
 30
0.0
 40
14.66272827032056
100
AcDbArc
 50
282.4041805232
 51
297.7414285329
  0
LWPOLYLINE
  5
374
330
1F
100
AcDbEntity
  8
0
  6
Continuous
 62
     7
100
AcDbPolyline
 90
        4
 70
   128
 43
0.0
 10
87.9063606262
 20
530.574916
 10
85.904179469
 20
532.2419820799
 10
85.3568465206
 20
534.7505952541
 10
87.903581
 20
537.779259
  0
LWPOLYLINE
  5
375
330
1F
100
AcDbEntity
  8
0
  6
Continuous
 62
     7
100
AcDbPolyline
 90
        6
 70
   128
 43
0.0
 10
81.8755030632
 20
526.491923
 10
81.4820813874
 20
529.1562294438
 10
81.813712768
 20
531.8831207795
 10
82.4633203272
 20
534.5889856311
 10
84.399728971
 20
538.2867193662
 10
88.018389
 20
540.259936
  0
LWPOLYLINE
  5
376
330
1F
100
AcDbEntity
  8
0
  6
Continuous
 62
     7
100
AcDbPolyline
 90
        3
 70
   128
 43
0.0
 10
87.9363417625
 20
527.142078
 10
84.560198034
 20
526.5448843604
 10
81.874552
 20
526.49181
  0
LWPOLYLINE
  5
377
330
1F
100
AcDbEntity
  8
0
  6
Continuous
 62
     7
100
AcDbPolyline
 90
        4
 70
   128
 43
0.0
 10
90.4840826988
 20
537.732749
 10
92.4009735836
 20
536.0692112884
 10
92.9012641925
 20
533.6164876764
 10
90.463788
 20
530.611295
  0
LWPOLYLINE
  5
378
330
1F
100
AcDbEntity
  8
0
  6
Continuous
 62
     7
100
AcDbPolyline
 90
        7
 70
   128
 43
0.0
 10
90.2678966522
 20
529.134539
 10
90.263423216
 20
528.0162285112
 10
90.2723528718
 20
527.8714354932
 10
90.286112941
 20
527.7903911112
 10
90.2981787305
 20
527.7529529786
 10
90.3198614552
 20
527.7336869901
 10
90.4141548745
 20
527.7632081837
  0
LWPOLYLINE
  5
379
330
1F
100
AcDbEntity
  8
0
  6
Continuous
 62
     7
100
AcDbPolyline
 90
        9
 70
   128
 43
0.0
 10
90.4232263565
 20
540.178318
 10
93.9506743688
 20
537.9490041622
 10
95.2358463572
 20
534.0813035337
 10
93.8929143155
 20
530.1098409827
 10
92.3357477839
 20
528.6855575686
 10
91.352304571
 20
528.2161581112
 10
90.8262128081
 20
527.9360388883
 10
90.5693650521
 20
527.7927284166
 10
90.4141541701
 20
527.7632079297
  0
LWPOLYLINE
  5
37A
330
1F
100
AcDbEntity
  8
0
  6
Continuous
 62
     7
100
AcDbPolyline
 90
       28
 70
   128
 43
0.0
 10
78.6871314049
 20
531.233792
 10
78.0339128559
 20
531.6301333675
 10
77.7912499789
 20
531.7786631965
 10
77.6275676235
 20
531.8385158351
 10
77.5615409993
 20
531.8744640913
 10
77.5479987197
 20
531.929047237
 10
77.6317031981
 20
532.1089335897
 10
77.8590807539
 20
532.570002985
 10
79.7889526356
 20
535.4256660725
 10
80.9012200016
 20
536.4630343121
 10
81.9466738991
 20
537.0574727956
 10
82.0475525159
 20
537.0796925192
 10
82.0783620212
 20
537.0698703849
 10
82.0968074381
 20
537.0469834883
 10
82.1000926485
 20
536.9612075309
 10
82.0742151657
 20
536.8638617183
 10
81.9824004379
 20
536.6423062447
 10
81.7513442031
 20
536.1781947964
 10
81.1685889549
 20
534.610282622
 10
80.7876327297
 20
533.2831710695
 10
79.9816760443
 20
531.0598291107
 10
79.8860737991
 20
530.7932680372
 10
79.8575720457
 20
530.6657979586
 10
79.843989632
 20
530.6141079819
 10
79.8256706212
 20
530.5892291898
 10
79.7749424305
 20
530.5854113773
 10
79.5754872679
 20
530.7122197714
 10
78.687134
 20
531.233792
  0
LWPOLYLINE
  5
37B
330
1F
100
AcDbEntity
  8
0
  6
Continuous
 62
     7
100
AcDbPolyline
 90
        4
 70
   128
 43
0.0
 10
96.6407060623
 20
534.667929
 10
96.0240600952
 20
537.5797828246
 10
94.2834869895
 20
539.9819155129
 10
89.932137
 20
541.54385
  0
LWPOLYLINE
  5
37C
330
1F
100
AcDbEntity
  8
0
  6
Continuous
 62
     7
100
AcDbPolyline
 90
       19
 70
   128
 43
0.0
 10
89.8219347
 20
541.611103
 10
97.0638726018
 20
542.6543365483
 10
97.6861077648
 20
542.7359377218
 10
97.9792038294
 20
542.6566593902
 10
98.1337907666
 20
542.4106582089
 10
97.9579329462
 20
541.1505236714
 10
97.5133430204
 20
537.9672748388
 10
96.797347503
 20
534.779833452
 10
96.7167930707
 20
534.4849630488
 10
96.6789940643
 20
534.3372614404
 10
96.6572265512
 20
534.2634875776
 10
96.6475469623
 20
534.2264392247
 10
96.6371781666
 20
534.1916910119
 10
96.6326470118
 20
534.1910167268
 10
96.6295871881
 20
534.1927534857
 10
96.6271334812
 20
534.202219784
 10
96.6432494496
 20
534.3077864053
 10
96.6398788334
 20
534.4027126358
 10
96.640814
 20
534.668239
  0
LWPOLYLINE
  5
37D
330
1F
100
AcDbEntity
  8
0
  6
Continuous
 62
     7
100
AcDbPolyline
 90
       14
 70
   128
 43
0.0
 10
55.046081543
 20
545.138486
 10
50.8248706791
 20
547.3719934235
 10
49.1548144486
 20
551.8859796075
 10
50.158579267
 20
555.3644844931
 10
52.8588963894
 20
557.86696736
 10
58.1953519277
 20
558.1596186814
 10
61.4625233755
 20
555.6489028193
 10
61.7157682386
 20
555.3466464114
 10
61.6561907881
 20
555.00328821
 10
61.041212309
 20
554.5663102949
 10
60.6093798228
 20
554.1870427947
 10
59.9349574461
 20
553.4415434148
 10
58.2012220514
 20
550.9374935931
 10
55.745911
 20
545.369683
  0
LWPOLYLINE
  5
37E
330
1F
100
AcDbEntity
  8
0
  6
Continuous
 62
     7
100
AcDbPolyline
 90
        3
 70
   128
 43
0.0
 10
55.4678142071
 20
545.094488
 10
55.231472673
 20
545.1174053139
 10
55.046084
 20
545.138514
  0
LWPOLYLINE
  5
37F
330
1F
100
AcDbEntity
  8
0
  6
Continuous
 62
     7
100
AcDbPolyline
 90
       20
 70
   128
 43
0.0
 10
86.8902206421
 20
351.668791
 10
91.1912353765
 20
354.6442277322
 10
91.6136431143
 20
355.2362241491
 10
92.0017476843
 20
355.8410061059
 10
92.0232322333
 20
355.8976705093
 10
92.0235230311
 20
355.9316089163
 10
91.980807757
 20
355.9612070684
 10
91.8953642891
 20
355.9613496422
 10
91.6890269664
 20
355.9259022015
 10
89.4232249938
 20
355.276680022
 10
86.3972026161
 20
354.3457839653
 10
85.3781092989
 20
354.0479767517
 10
85.2901397987
 20
354.0110654284
 10
85.2681786091
 20
353.9423006928
 10
85.368231932
 20
353.7398336771
 10
85.9277436601
 20
352.6915394053
 10
86.2338712701
 20
352.1234357693
 10
86.5373841131
 20
351.6341995829
 10
86.6970912323
 20
351.5839230365
 10
86.890233
 20
351.66865
  0
LWPOLYLINE
  5
380
330
1F
100
AcDbEntity
  8
0
  6
Continuous
 62
     7
100
AcDbPolyline
 90
       20
 70
   128
 43
0.0
 10
89.2117023468
 20
372.0964704794
 10
90.8255675964
 20
372.4514421144
 10
91.5136468563
 20
372.598655768
 10
91.8382241463
 20
372.6491407052
 10
92.1072607303
 20
372.6886196312
 10
92.1933382488
 20
372.7519908979
 10
92.2244727678
 20
372.8639971063
 10
92.2069965016
 20
373.1355506639
 10
92.1103629888
 20
373.616439758
 10
91.7513194398
 20
374.8160015466
 10
88.0347064348
 20
381.7870852151
 10
81.7123443761
 20
386.4367976937
 10
74.010194535
 20
387.9842724717
 10
66.4251893852
 20
386.157803073
 10
60.3274760154
 20
381.3076604295
 10
56.8146943463
 20
374.360316717
 10
56.5201593956
 20
366.5818263435
 10
59.582064802
 20
359.389944539
 10
65.3777311501
 20
354.1427933733
 10
72.8164304404
 20
351.8002095067
  0
LWPOLYLINE
  5
381
330
1F
100
AcDbEntity
  8
0
  6
Continuous
 62
     7
100
AcDbPolyline
 90
        9
 70
   128
 43
0.0
 10
73.0024576187
 20
351.666139
 10
72.8785402473
 20
351.7835739951
 10
72.8462652597
 20
351.814050684
 10
72.8392575915
 20
351.8206099414
 10
72.8378125739
 20
351.821935744
 10
72.837514884
 20
351.8221970942
 10
72.8374511431
 20
351.8222480505
 10
72.8374362672
 20
351.8222579289
 10
72.8374302565
 20
351.8222602835
  0
LWPOLYLINE
  5
382
330
1F
100
AcDbEntity
  8
0
  6
Continuous
 62
     7
100
AcDbPolyline
 90
        3
 70
   128
 43
0.0
 10
86.8200659752
 20
371.0454907692
 10
84.6957459018
 20
369.7081050446
 10
83.2080374315
 20
368.4185246133
  0
LWPOLYLINE
  5
383
330
1F
100
AcDbEntity
  8
0
  6
Continuous
 62
     7
100
AcDbPolyline
 90
       11
 70
   128
 43
0.0
 10
82.2884440422
 20
367.9369912846
 10
78.054406437
 20
364.8925623303
 10
76.6457995637
 20
362.6554856097
 10
76.0752644469
 20
361.4543881506
 10
75.8268589606
 20
360.8419129931
 10
75.773768188
 20
360.6800066863
 10
75.7981366216
 20
360.6175960063
 10
75.8675319337
 20
360.5740455271
 10
76.2241500198
 20
360.4339078657
 10
77.898455099
 20
359.4175729915
 10
79.2346137409
 20
358.6276037244
  0
LWPOLYLINE
  5
384
330
1F
100
AcDbEntity
  8
0
  6
Continuous
 62
     7
100
AcDbPolyline
 90
       11
 70
   128
 43
0.0
 10
78.9643526077
 20
357.9088726394
 10
77.3572585711
 20
354.0929949908
 10
77.1987105329
 20
353.0765810629
 10
77.6440362939
 20
352.1493536523
 10
77.64614332
 20
352.1283274242
 10
77.6292800179
 20
352.1114282174
 10
77.4104188058
 20
352.0551074507
 10
77.1663190418
 20
352.020531161
 10
76.6612299758
 20
351.9517336149
 10
75.6302739853
 20
351.843815918
 10
72.8705604404
 20
351.8570485067
  0
LWPOLYLINE
  5
385
330
1F
100
AcDbEntity
  8
0
  6
Continuous
 62
     7
100
AcDbPolyline
 90
        6
 70
   128
 43
0.0
 10
78.7484049797
 20
352.8596
 10
78.6461863179
 20
353.0620751704
 10
78.7100386994
 20
353.3101692738
 10
78.8510120519
 20
353.764112908
 10
79.1810155793
 20
354.6788703229
 10
79.934726
 20
356.462392
  0
LWPOLYLINE
  5
386
330
1F
100
AcDbEntity
  8
0
  6
Continuous
 62
     7
100
AcDbPolyline
 90
        3
 70
   128
 43
0.0
 10
80.1657438278
 20
356.475911
 10
80.8670070283
 20
354.7863411923
 10
82.241017
 20
354.321596
  0
ARC
  5
387
330
1F
100
AcDbEntity
  8
0
  6
Continuous
 62
     7
100
AcDbCircle
 10
75.599019694
 20
367.1794496138
 30
0.0
 40
14.66204781237061
100
AcDbArc
 50
282.4040398278
 51
297.7418868641
  0
LWPOLYLINE
  5
388
330
1F
100
AcDbEntity
  8
0
  6
Continuous
 62
     7
100
AcDbPolyline
 90
        9
 70
   128
 43
0.0
 10
83.0532312393
 20
355.493947
 10
86.4379927748
 20
355.8870728693
 10
88.1116585887
 20
356.2290447647
 10
88.1432299964
 20
356.2570436762
 10
88.1526526602
 20
356.3036078537
 10
88.1342266861
 20
356.4277701928
 10
88.1013025638
 20
356.6709810528
 10
88.1285602448
 20
357.074384244
 10
88.126734
 20
357.927069
  0
LWPOLYLINE
  5
389
330
1F
100
AcDbEntity
  8
0
  6
Continuous
 62
     7
100
AcDbPolyline
 90
        4
 70
   128
 43
0.0
 10
87.9063606262
 20
359.695812
 10
85.9041515819
 20
361.3628779236
 10
85.3568184728
 20
363.8714908093
 10
87.903552
 20
366.900155
  0
LWPOLYLINE
  5
38A
330
1F
100
AcDbEntity
  8
0
  6
Continuous
 62
     7
100
AcDbPolyline
 90
        7
 70
   128
 43
0.0
 10
87.9724621773
 20
369.435358
 10
84.9313155237
 20
368.031614179
 10
82.9882840154
 20
365.2966850988
 10
81.4947654735
 20
358.724463142
 10
81.3163897046
 20
356.4595679375
 10
81.9140008029
 20
355.5294839539
 10
83.053366
 20
355.494173
  0
LWPOLYLINE
  5
38B
330
1F
100
AcDbEntity
  8
0
  6
Continuous
 62
     7
100
AcDbPolyline
 90
        4
 70
   128
 43
0.0
 10
90.4840230942
 20
366.853645
 10
92.4009445836
 20
365.1901072884
 10
92.9012351925
 20
362.7373836764
 10
90.463759
 20
359.732191
  0
LWPOLYLINE
  5
38C
330
1F
100
AcDbEntity
  8
0
  6
Continuous
 62
     7
100
AcDbPolyline
 90
        7
 70
   128
 43
0.0
 10
90.2678370476
 20
358.255435
 10
90.263394558
 20
357.13712399
 10
90.2723239733
 20
356.992330853
 10
90.2860840773
 20
356.9112865327
 10
90.2981499824
 20
356.8738485961
 10
90.3198328806
 20
356.854582865
 10
90.4141264979
 20
356.8841040047
  0
LWPOLYLINE
  5
38D
330
1F
100
AcDbEntity
  8
0
  6
Continuous
 62
     7
100
AcDbPolyline
 90
        9
 70
   128
 43
0.0
 10
90.4232263565
 20
369.299214
 10
93.9506459509
 20
367.0699005956
 10
95.2358183646
 20
363.2022000306
 10
93.8928864941
 20
359.230737101
 10
92.3357199179
 20
357.8064536868
 10
91.3522767052
 20
357.3370540037
 10
90.8261848856
 20
357.0569350364
 10
90.5693369655
 20
356.9136246284
 10
90.4141257935
 20
356.8841037508
  0
LWPOLYLINE
  5
38E
330
1F
100
AcDbEntity
  8
0
  6
Continuous
 62
     7
100
AcDbPolyline
 90
       28
 70
   128
 43
0.0
 10
78.6870718002
 20
360.354688
 10
78.0338846141
 20
360.7510289225
 10
77.7912220421
 20
360.8995590962
 10
77.6275397695
 20
360.9594117962
 10
77.561513085
 20
360.9953600199
 10
77.5479706816
 20
361.0499431147
 10
77.6316751751
 20
361.2298294369
 10
77.8590513607
 20
361.6908994446
 10
79.7889241441
 20
364.5465615566
 10
80.9011913065
 20
365.5839297592
 10
81.9466448379
 20
366.1783685577
 10
82.0475234857
 20
366.2005886391
 10
82.0783330259
 20
366.1907666339
 10
82.0967784859
 20
366.1678798299
 10
82.1000638098
 20
366.082103964
 10
82.0741864335
 20
365.9847581416
 10
81.9823719211
 20
365.763202524
 10
81.7513160898
 20
365.2990906606
 10
81.1685613061
 20
363.7311783034
 10
80.7876042662
 20
362.4040675018
 10
79.9816471566
 20
360.1807258221
 10
79.8860458522
 20
359.9141645081
 10
79.8575438754
 20
359.7866945297
 10
79.8439610669
 20
359.7350045021
 10
79.8256418797
 20
359.710125513
 10
79.7749136539
 20
359.7063073291
 10
79.575459086
 20
359.8331151468
 10
78.687106
 20
360.354688
  0
LWPOLYLINE
  5
38F
330
1F
100
AcDbEntity
  8
0
  6
Continuous
 62
     7
100
AcDbPolyline
 90
        4
 70
   128
 43
0.0
 10
96.6407060623
 20
363.788825
 10
96.0240321575
 20
366.7006787956
 10
94.2834588274
 20
369.1028111365
 10
89.932109
 20
370.664746
  0
LWPOLYLINE
  5
390
330
1F
100
AcDbEntity
  8
0
  6
Continuous
 62
     7
100
AcDbPolyline
 90
       19
 70
   128
 43
0.0
 10
89.8219347
 20
370.731999
 10
97.0638440296
 20
371.775232272
 10
97.6860795556
 20
371.8568338961
 10
97.979175293
 20
371.7775554052
 10
98.133761987
 20
371.5315537746
 10
97.9579061796
 20
370.271419639
 10
97.513315386
 20
367.0881704742
 10
96.7973183276
 20
363.9007297386
 10
96.716765038
 20
363.6058590387
 10
96.6789660834
 20
363.4581574233
 10
96.6571985464
 20
363.3843835705
 10
96.6475189602
 20
363.3473352188
 10
96.6371501628
 20
363.3125870105
 10
96.6326190091
 20
363.3119127272
 10
96.629559186
 20
363.3136494875
 10
96.6271054797
 20
363.3231157875
 10
96.6432214642
 20
363.4286824049
 10
96.6398508669
 20
363.5236086314
 10
96.640785
 20
363.789135
  0
LWPOLYLINE
  5
391
330
1F
100
AcDbEntity
  8
0
  6
Continuous
 62
     7
100
AcDbPolyline
 90
       14
 70
   128
 43
0.0
 10
55.0460517406
 20
374.259382
 10
50.8248427364
 20
376.4928894258
 10
49.1547858596
 20
381.0068756504
 10
50.1585503655
 20
384.4853803378
 10
52.8588678117
 20
386.9878630691
 10
58.1953240574
 20
387.2805147561
 10
61.4624949364
 20
384.7697986056
 10
61.7157390323
 20
384.4675422299
 10
61.6561628312
 20
384.124183971
 10
61.0411829682
 20
383.6872061841
 10
60.6093500283
 20
383.3079387091
 10
59.9349278778
 20
382.5624392883
 10
58.2011943742
 20
380.0583892529
 10
55.745882
 20
374.490579
  0
LWPOLYLINE
  5
392
330
1F
100
AcDbEntity
  8
0
  6
Continuous
 62
     7
100
AcDbPolyline
 90
        3
 70
   128
 43
0.0
 10
55.4677844048
 20
374.215384
 10
55.231444673
 20
374.2383013139
 10
55.046056
 20
374.25941
  0
ENDSEC
  0
SECTION
  2
OBJECTS
  0
DICTIONARY
  5
C
330
0
100
AcDbDictionary
281
     1
  3
ACAD_GROUP
350
D
  3
ACAD_LAYOUT
350
1A
  3
ACAD_MLINESTYLE
350
17
  3
ACAD_PLOTSETTINGS
350
19
  3
ACAD_PLOTSTYLENAME
350
E
  3
ACAD_SCALELIST
350
47
  0
DICTIONARY
  5
D
102
{ACAD_REACTORS
330
C
102
}
330
C
100
AcDbDictionary
281
     1
  0
DICTIONARY
  5
1A
102
{ACAD_REACTORS
330
C
102
}
330
C
100
AcDbDictionary
281
     1
  3
Layout1
350
1E
  3
Layout2
350
26
  3
Model
350
22
  0
DICTIONARY
  5
17
102
{ACAD_REACTORS
330
C
102
}
330
C
100
AcDbDictionary
281
     1
  3
Standard
350
18
  0
DICTIONARY
  5
19
102
{ACAD_REACTORS
330
C
102
}
330
C
100
AcDbDictionary
281
     1
  0
ACDBDICTIONARYWDFLT
  5
E
102
{ACAD_REACTORS
330
C
102
}
330
C
100
AcDbDictionary
281
     1
  3
Normal
350
F
100
AcDbDictionaryWithDefault
340
F
  0
DICTIONARY
  5
47
102
{ACAD_REACTORS
330
C
102
}
330
C
100
AcDbDictionary
281
     1
  3
A0
350
48
  3
A1
350
49
  3
A2
350
4A
  3
A3
350
4B
  3
A4
350
4C
  3
A5
350
4D
  3
A6
350
4E
  3
A7
350
4F
  3
A8
350
50
  3
A9
350
51
  3
B0
350
52
  3
B1
350
53
  3
B2
350
54
  3
B3
350
55
  3
B4
350
56
  3
B5
350
57
  3
B6
350
58
  3
B7
350
59
  3
B8
350
5A
  3
B9
350
5B
  3
C0
350
5C
  3
C1
350
5D
  3
C2
350
5E
  3
C3
350
5F
  3
C4
350
60
  3
C5
350
61
  3
C6
350
62
  3
C7
350
63
  3
C8
350
64
  3
C9
350
65
  3
D0
350
66
  3
D1
350
67
  3
D2
350
68
  0
LAYOUT
  5
1E
102
{ACAD_REACTORS
330
1A
102
}
330
1A
100
AcDbPlotSettings
  1

  2
none_device
  4

  6

 40
0.0
 41
0.0
 42
0.0
 43
0.0
 44
0.0
 45
0.0
 46
0.0
 47
0.0
 48
0.0
 49
0.0
140
0.0
141
0.0
142
1.0
143
1.0
 70
   688
 72
     1
 73
     0
 74
     5
  7

 75
    16
147
1.0
148
0.0
149
0.0
100
AcDbLayout
  1
Layout1
 70
     1
 71
     1
 10
0.0
 20
0.0
 11
420.0
 21
297.0
 12
0.0
 22
0.0
 32
0.0
 14
1.0000000000E+20
 24
1.0000000000E+20
 34
1.0000000000E+20
 15
-1.0000000000E+20
 25
-1.0000000000E+20
 35
-1.0000000000E+20
146
0.0
 13
0.0
 23
0.0
 33
0.0
 16
1.0
 26
0.0
 36
0.0
 17
0.0
 27
1.0
 37
0.0
 76
     0
330
1B
  0
LAYOUT
  5
26
102
{ACAD_REACTORS
330
1A
102
}
330
1A
100
AcDbPlotSettings
  1

  2
none_device
  4

  6

 40
0.0
 41
0.0
 42
0.0
 43
0.0
 44
0.0
 45
0.0
 46
0.0
 47
0.0
 48
0.0
 49
0.0
140
0.0
141
0.0
142
1.0
143
1.0
 70
   688
 72
     1
 73
     0
 74
     5
  7

 75
    16
147
1.0
148
0.0
149
0.0
100
AcDbLayout
  1
Layout2
 70
     1
 71
     2
 10
0.0
 20
0.0
 11
0.0
 21
0.0
 12
0.0
 22
0.0
 32
0.0
 14
0.0
 24
0.0
 34
0.0
 15
0.0
 25
0.0
 35
0.0
146
0.0
 13
0.0
 23
0.0
 33
0.0
 16
1.0
 26
0.0
 36
0.0
 17
0.0
 27
1.0
 37
0.0
 76
     0
330
23
  0
LAYOUT
  5
22
102
{ACAD_REACTORS
330
1A
102
}
330
1A
100
AcDbPlotSettings
  1

  2
none_device
  4
ANSI_A_(11.00_x_8.50_Inches)
  6

 40
6.35
 41
19.05
 42
6.35000508
 43
19.05000254
 44
279.4
 45
215.9
 46
58.3729634411
 47
-18.0147999926
 48
0.0
 49
0.0
140
0.0
141
0.0
142
0.0135412415
143
1.0
 70
  1696
 72
     0
 73
     0
 74
     0
  7

 75
     0
147
0.0179189148
148
-1300.4909072572
149
0.0
100
AcDbLayout
  1
Model
 70
     1
 71
     0
 10
0.0
 20
0.0
 11
420.0
 21
297.0
 12
0.0
 22
0.0
 32
0.0
 14
0.128809
 24
0.128795
 34
0.0
 15
435.850674
 25
621.563691
 35
0.0
146
0.0
 13
0.0
 23
0.0
 33
0.0
 16
1.0
 26
0.0
 36
0.0
 17
0.0
 27
1.0
 37
0.0
 76
     0
330
1F
331
29
  0
MLINESTYLE
  5
18
102
{ACAD_REACTORS
330
17
102
}
330
17
100
AcDbMlineStyle
  2
Standard
 70
     0
  3

 62
   256
 51
90.0
 52
90.0
 71
     2
 49
0.5
 62
   256
  6
BYLAYER
 49
-0.5
 62
   256
  6
BYLAYER
  0
ACDBPLACEHOLDER
  5
F
102
{ACAD_REACTORS
330
E
102
}
330
E
  0
SCALE
  5
48
102
{ACAD_REACTORS
330
47
102
}
330
47
100
AcDbScale
 70
     0
300
1:1
140
1.0
141
1.0
290
     1
  0
SCALE
  5
49
102
{ACAD_REACTORS
330
47
102
}
330
47
100
AcDbScale
 70
     0
300
1:2
140
1.0
141
2.0
290
     0
  0
SCALE
  5
4A
102
{ACAD_REACTORS
330
47
102
}
330
47
100
AcDbScale
 70
     0
300
1:4
140
1.0
141
4.0
290
     0
  0
SCALE
  5
4B
102
{ACAD_REACTORS
330
47
102
}
330
47
100
AcDbScale
 70
     0
300
1:5
140
1.0
141
5.0
290
     0
  0
SCALE
  5
4C
102
{ACAD_REACTORS
330
47
102
}
330
47
100
AcDbScale
 70
     0
300
1:8
140
1.0
141
8.0
290
     0
  0
SCALE
  5
4D
102
{ACAD_REACTORS
330
47
102
}
330
47
100
AcDbScale
 70
     0
300
1:10
140
1.0
141
10.0
290
     0
  0
SCALE
  5
4E
102
{ACAD_REACTORS
330
47
102
}
330
47
100
AcDbScale
 70
     0
300
1:16
140
1.0
141
16.0
290
     0
  0
SCALE
  5
4F
102
{ACAD_REACTORS
330
47
102
}
330
47
100
AcDbScale
 70
     0
300
1:20
140
1.0
141
20.0
290
     0
  0
SCALE
  5
50
102
{ACAD_REACTORS
330
47
102
}
330
47
100
AcDbScale
 70
     0
300
1:30
140
1.0
141
30.0
290
     0
  0
SCALE
  5
51
102
{ACAD_REACTORS
330
47
102
}
330
47
100
AcDbScale
 70
     0
300
1:40
140
1.0
141
40.0
290
     0
  0
SCALE
  5
52
102
{ACAD_REACTORS
330
47
102
}
330
47
100
AcDbScale
 70
     0
300
1:50
140
1.0
141
50.0
290
     0
  0
SCALE
  5
53
102
{ACAD_REACTORS
330
47
102
}
330
47
100
AcDbScale
 70
     0
300
1:100
140
1.0
141
100.0
290
     0
  0
SCALE
  5
54
102
{ACAD_REACTORS
330
47
102
}
330
47
100
AcDbScale
 70
     0
300
2:1
140
2.0
141
1.0
290
     0
  0
SCALE
  5
55
102
{ACAD_REACTORS
330
47
102
}
330
47
100
AcDbScale
 70
     0
300
4:1
140
4.0
141
1.0
290
     0
  0
SCALE
  5
56
102
{ACAD_REACTORS
330
47
102
}
330
47
100
AcDbScale
 70
     0
300
8:1
140
8.0
141
1.0
290
     0
  0
SCALE
  5
57
102
{ACAD_REACTORS
330
47
102
}
330
47
100
AcDbScale
 70
     0
300
10:1
140
10.0
141
1.0
290
     0
  0
SCALE
  5
58
102
{ACAD_REACTORS
330
47
102
}
330
47
100
AcDbScale
 70
     0
300
100:1
140
100.0
141
1.0
290
     0
  0
SCALE
  5
59
102
{ACAD_REACTORS
330
47
102
}
330
47
100
AcDbScale
 70
     0
300
1/128" = 1'-0"
140
0.0078125
141
12.0
290
     0
  0
SCALE
  5
5A
102
{ACAD_REACTORS
330
47
102
}
330
47
100
AcDbScale
 70
     0
300
1/64" = 1'-0"
140
0.015625
141
12.0
290
     0
  0
SCALE
  5
5B
102
{ACAD_REACTORS
330
47
102
}
330
47
100
AcDbScale
 70
     0
300
1/32" = 1'-0"
140
0.03125
141
12.0
290
     0
  0
SCALE
  5
5C
102
{ACAD_REACTORS
330
47
102
}
330
47
100
AcDbScale
 70
     0
300
1/16" = 1'-0"
140
0.0625
141
12.0
290
     0
  0
SCALE
  5
5D
102
{ACAD_REACTORS
330
47
102
}
330
47
100
AcDbScale
 70
     0
300
3/32" = 1'-0"
140
0.09375
141
12.0
290
     0
  0
SCALE
  5
5E
102
{ACAD_REACTORS
330
47
102
}
330
47
100
AcDbScale
 70
     0
300
1/8" = 1'-0"
140
0.125
141
12.0
290
     0
  0
SCALE
  5
5F
102
{ACAD_REACTORS
330
47
102
}
330
47
100
AcDbScale
 70
     0
300
3/16" = 1'-0"
140
0.1875
141
12.0
290
     0
  0
SCALE
  5
60
102
{ACAD_REACTORS
330
47
102
}
330
47
100
AcDbScale
 70
     0
300
1/4" = 1'-0"
140
0.25
141
12.0
290
     0
  0
SCALE
  5
61
102
{ACAD_REACTORS
330
47
102
}
330
47
100
AcDbScale
 70
     0
300
3/8" = 1'-0"
140
0.375
141
12.0
290
     0
  0
SCALE
  5
62
102
{ACAD_REACTORS
330
47
102
}
330
47
100
AcDbScale
 70
     0
300
1/2" = 1'-0"
140
0.5
141
12.0
290
     0
  0
SCALE
  5
63
102
{ACAD_REACTORS
330
47
102
}
330
47
100
AcDbScale
 70
     0
300
3/4" = 1'-0"
140
0.75
141
12.0
290
     0
  0
SCALE
  5
64
102
{ACAD_REACTORS
330
47
102
}
330
47
100
AcDbScale
 70
     0
300
1" = 1'-0"
140
1.0
141
12.0
290
     0
  0
SCALE
  5
65
102
{ACAD_REACTORS
330
47
102
}
330
47
100
AcDbScale
 70
     0
300
1-1/2" = 1'-0"
140
1.5
141
12.0
290
     0
  0
SCALE
  5
66
102
{ACAD_REACTORS
330
47
102
}
330
47
100
AcDbScale
 70
     0
300
3" = 1'-0"
140
3.0
141
12.0
290
     0
  0
SCALE
  5
67
102
{ACAD_REACTORS
330
47
102
}
330
47
100
AcDbScale
 70
     0
300
6" = 1'-0"
140
6.0
141
12.0
290
     0
  0
SCALE
  5
68
102
{ACAD_REACTORS
330
47
102
}
330
47
100
AcDbScale
 70
     0
300
1'-0" = 1'-0"
140
12.0
141
12.0
290
     0
  0
ENDSEC
  0
EOF
