  0
SECTION
  2
HEADER
  9
$ACADVER
  1
AC1015
  9
$ACADMAINTVER
 70
     6
  9
$DWGCODEPAGE
  3
ANSI_1252
  9
$INSBASE
 10
0.0
 20
0.0
 30
0.0
  9
$EXTMIN
 10
-139.0
 20
-81.0
 30
0.0
  9
$EXTMAX
 10
147.0
 20
81.0
 30
0.0
  9
$LIMMIN
 10
0.0
 20
0.0
  9
$LIMMAX
 10
420.0
 20
297.0
  9
$ORTHOMODE
 70
     0
  9
$REGENMODE
 70
     1
  9
$FILLMODE
 70
     1
  9
$QTEXTMODE
 70
     0
  9
$MIRRTEXT
 70
     1
  9
$LTSCALE
 40
1.0
  9
$ATTMODE
 70
     1
  9
$TEXTSIZE
 40
3.5
  9
$TRACEWID
 40
1.0
  9
$TEXTSTYLE
  7
Standard
  9
$CLAYER
  8
0
  9
$CELTYPE
  6
ByLayer
  9
$CECOLOR
 62
   256
  9
$CELTSCALE
 40
1.0
  9
$DISPSILH
 70
     0
  9
$DIMSCALE
 40
1.0
  9
$DIMASZ
 40
3.302
  9
$DIMEXO
 40
1.0
  9
$DIMDLI
 40
3.75
  9
$DIMRND
 40
0.0
  9
$DIMDLE
 40
0.0
  9
$DIMEXE
 40
1.0
  9
$DIMTP
 40
0.0
  9
$DIMTM
 40
0.0
  9
$DIMTXT
 40
3.5
  9
$DIMCEN
 40
2.5
  9
$DIMTSZ
 40
0.0
  9
$DIMTOL
 70
     0
  9
$DIMLIM
 70
     0
  9
$DIMTIH
 70
     1
  9
$DIMTOH
 70
     1
  9
$DIMSE1
 70
     0
  9
$DIMSE2
 70
     0
  9
$DIMTAD
 70
     1
  9
$DIMZIN
 70
     0
  9
$DIMBLK
  1

  9
$DIMASO
 70
     1
  9
$DIMSHO
 70
     1
  9
$DIMPOST
  1

  9
$DIMAPOST
  1

  9
$DIMALT
 70
     0
  9
$DIMALTD
 70
     3
  9
$DIMALTF
 40
0.0393700787
  9
$DIMLFAC
 40
1.0
  9
$DIMTOFL
 70
     1
  9
$DIMTVP
 40
0.0
  9
$DIMTIX
 70
     0
  9
$DIMSOXD
 70
     0
  9
$DIMSAH
 70
     0
  9
$DIMBLK1
  1

  9
$DIMBLK2
  1

  9
$DIMSTYLE
  2
ISO-25
  9
$DIMCLRD
 70
     0
  9
$DIMCLRE
 70
     0
  9
$DIMCLRT
 70
     0
  9
$DIMTFAC
 40
1.0
  9
$DIMGAP
 40
1.524
  9
$DIMJUST
 70
     0
  9
$DIMSD1
 70
     0
  9
$DIMSD2
 70
     0
  9
$DIMTOLJ
 70
     0
  9
$DIMTZIN
 70
     0
  9
$DIMALTZ
 70
     0
  9
$DIMALTTZ
 70
     0
  9
$DIMUPT
 70
     0
  9
$DIMDEC
 70
     2
  9
$DIMTDEC
 70
     2
  9
$DIMALTU
 70
     2
  9
$DIMALTTD
 70
     3
  9
$DIMTXSTY
  7
Standard
  9
$DIMAUNIT
 70
     0
  9
$DIMADEC
 70
     2
  9
$DIMALTRND
 40
0.0
  9
$DIMAZIN
 70
     0
  9
$DIMDSEP
 70
    44
  9
$DIMATFIT
 70
     3
  9
$DIMFRAC
 70
     0
  9
$DIMLDRBLK
  1

  9
$DIMLUNIT
 70
     2
  9
$DIMLWD
 70
    -2
  9
$DIMLWE
 70
    -2
  9
$DIMTMOVE
 70
     0
  9
$LUNITS
 70
     2
  9
$LUPREC
 70
     2
  9
$SKETCHINC
 40
1.0
  9
$FILLETRAD
 40
10.0
  9
$AUNITS
 70
     0
  9
$AUPREC
 70
     2
  9
$MENU
  1
.
  9
$ELEVATION
 40
0.0
  9
$PELEVATION
 40
0.0
  9
$THICKNESS
 40
0.0
  9
$LIMCHECK
 70
     0
  9
$CHAMFERA
 40
0.0
  9
$CHAMFERB
 40
0.0
  9
$CHAMFERC
 40
0.0
  9
$CHAMFERD
 40
0.0
  9
$SKPOLY
 70
     0
  9
$TDCREATE
 40
2458834.638959039
  9
$TDUCREATE
 40
2458834.888959039
  9
$TDUPDATE
 40
2458834.638986898
  9
$TDUUPDATE
 40
2458834.888986898
  9
$TDINDWG
 40
0.0000000116
  9
$TDUSRTIMER
 40
0.0000000116
  9
$USRTIMER
 70
     1
  9
$ANGBASE
 50
0.0
  9
$ANGDIR
 70
     0
  9
$PDMODE
 70
     0
  9
$PDSIZE
 40
-1.0
  9
$PLINEWID
 40
0.0
  9
$SPLFRAME
 70
     0
  9
$SPLINETYPE
 70
     6
  9
$SPLINESEGS
 70
     8
  9
$HANDSEED
  5
11B
  9
$SURFTAB1
 70
     6
  9
$SURFTAB2
 70
     6
  9
$SURFTYPE
 70
     6
  9
$SURFU
 70
     6
  9
$SURFV
 70
     6
  9
$UCSBASE
  2

  9
$UCSNAME
  2

  9
$UCSORG
 10
0.0
 20
0.0
 30
0.0
  9
$UCSXDIR
 10
1.0
 20
0.0
 30
0.0
  9
$UCSYDIR
 10
0.0
 20
1.0
 30
0.0
  9
$UCSORTHOREF
  2

  9
$UCSORTHOVIEW
 70
     0
  9
$UCSORGTOP
 10
0.0
 20
0.0
 30
0.0
  9
$UCSORGBOTTOM
 10
0.0
 20
0.0
 30
0.0
  9
$UCSORGLEFT
 10
0.0
 20
0.0
 30
0.0
  9
$UCSORGRIGHT
 10
0.0
 20
0.0
 30
0.0
  9
$UCSORGFRONT
 10
0.0
 20
0.0
 30
0.0
  9
$UCSORGBACK
 10
0.0
 20
0.0
 30
0.0
  9
$PUCSBASE
  2

  9
$PUCSNAME
  2

  9
$PUCSORG
 10
0.0
 20
0.0
 30
0.0
  9
$PUCSXDIR
 10
1.0
 20
0.0
 30
0.0
  9
$PUCSYDIR
 10
0.0
 20
1.0
 30
0.0
  9
$PUCSORTHOREF
  2

  9
$PUCSORTHOVIEW
 70
     0
  9
$PUCSORGTOP
 10
0.0
 20
0.0
 30
0.0
  9
$PUCSORGBOTTOM
 10
0.0
 20
0.0
 30
0.0
  9
$PUCSORGLEFT
 10
0.0
 20
0.0
 30
0.0
  9
$PUCSORGRIGHT
 10
0.0
 20
0.0
 30
0.0
  9
$PUCSORGFRONT
 10
0.0
 20
0.0
 30
0.0
  9
$PUCSORGBACK
 10
0.0
 20
0.0
 30
0.0
  9
$USERI1
 70
     0
  9
$USERI2
 70
     0
  9
$USERI3
 70
     0
  9
$USERI4
 70
     0
  9
$USERI5
 70
     0
  9
$USERR1
 40
0.0
  9
$USERR2
 40
0.0
  9
$USERR3
 40
0.0
  9
$USERR4
 40
0.0
  9
$USERR5
 40
0.0
  9
$WORLDVIEW
 70
     1
  9
$SHADEDGE
 70
     3
  9
$SHADEDIF
 70
    70
  9
$TILEMODE
 70
     1
  9
$MAXACTVP
 70
    64
  9
$PINSBASE
 10
0.0
 20
0.0
 30
0.0
  9
$PLIMCHECK
 70
     0
  9
$PEXTMIN
 10
1.0000000000E+20
 20
1.0000000000E+20
 30
1.0000000000E+20
  9
$PEXTMAX
 10
-1.0000000000E+20
 20
-1.0000000000E+20
 30
-1.0000000000E+20
  9
$PLIMMIN
 10
0.0
 20
0.0
  9
$PLIMMAX
 10
420.0
 20
297.0
  9
$UNITMODE
 70
     0
  9
$VISRETAIN
 70
     1
  9
$PLINEGEN
 70
     0
  9
$PSLTSCALE
 70
     1
  9
$TREEDEPTH
 70
  3020
  9
$CMLSTYLE
  2
Standard
  9
$CMLJUST
 70
     0
  9
$CMLSCALE
 40
20.0
  9
$PROXYGRAPHICS
 70
     1
  9
$MEASUREMENT
 70
     1
  9
$CELWEIGHT
370
    -1
  9
$ENDCAPS
280
     0
  9
$JOINSTYLE
280
     0
  9
$LWDISPLAY
290
     1
  9
$INSUNITS
 70
     4
  9
$HYPERLINKBASE
  1

  9
$STYLESHEET
  1

  9
$XEDIT
290
     1
  9
$CEPSNTYPE
380
     0
  9
$PSTYLEMODE
290
     1
  9
$FINGERPRINTGUID
  2
{E67C2E2E-E79E-4E30-95B1-F6A0DAF111BE}
  9
$VERSIONGUID
  2
{FAEB1C32-E019-11D5-929B-00C0DF256EC4}
  9
$EXTNAMES
290
     1
  9
$PSVPSCALE
 40
0.0
  9
$OLESTARTUP
290
     0
  0
ENDSEC
  0
SECTION
  2
CLASSES
  0
CLASS
  1
ACDBDICTIONARYWDFLT
  2
AcDbDictionaryWithDefault
  3
ObjectDBX Classes
 90
        0
280
     0
281
     0
  0
CLASS
  1
VISUALSTYLE
  2
AcDbVisualStyle
  3
ObjectDBX Classes
 90
     4095
280
     0
281
     0
  0
CLASS
  1
MATERIAL
  2
AcDbMaterial
  3
ObjectDBX Classes
 90
     1153
280
     0
281
     0
  0
CLASS
  1
SCALE
  2
AcDbScale
  3
ObjectDBX Classes
 90
     1153
280
     0
281
     0
  0
CLASS
  1
TABLESTYLE
  2
AcDbTableStyle
  3
ObjectDBX Classes
 90
     4095
280
     0
281
     0
  0
CLASS
  1
MLEADERSTYLE
  2
AcDbMLeaderStyle
  3
ACDB_MLEADERSTYLE_CLASS
 90
     4095
280
     0
281
     0
  0
CLASS
  1
SUN
  2
AcDbSun
  3
SCENEOE
 90
     1153
280
     0
281
     0
  0
CLASS
  1
ACDBPLACEHOLDER
  2
AcDbPlaceHolder
  3
ObjectDBX Classes
 90
        0
280
     0
281
     0
  0
CLASS
  1
LAYOUT
  2
AcDbLayout
  3
ObjectDBX Classes
 90
        0
280
     0
281
     0
  0
ENDSEC
  0
SECTION
  2
TABLES
  0
TABLE
  2
VPORT
  5
8
330
0
100
AcDbSymbolTable
 70
     1
  0
VPORT
  5
29
330
8
100
AcDbSymbolTableRecord
100
AcDbViewportTableRecord
  2
*Active
 70
     0
 10
0.0
 20
0.0
 11
1.0
 21
1.0
 12
4.0
 22
0.0
 13
0.0
 23
0.0
 14
10.0
 24
10.0
 15
10.0
 25
10.0
 16
0.0
 26
0.0
 36
1.0
 17
0.0
 27
0.0
 37
0.0
 40
165.24
 41
1.7654320988
 42
50.0
 43
0.0
 44
0.0
 50
0.0
 51
0.0
 71
     0
 72
   100
 73
     1
 74
     3
 75
     0
 76
     0
 77
     0
 78
     0
281
     0
 65
     1
110
0.0
120
0.0
130
0.0
111
1.0
121
0.0
131
0.0
112
0.0
122
1.0
132
0.0
 79
     0
146
0.0
  0
ENDTAB
  0
TABLE
  2
LTYPE
  5
5
330
0
100
AcDbSymbolTable
 70
     6
  0
LTYPE
  5
14
330
5
100
AcDbSymbolTableRecord
100
AcDbLinetypeTableRecord
  2
ByBlock
 70
     0
  3

 72
    65
 73
     0
 40
0.0
  0
LTYPE
  5
15
330
5
100
AcDbSymbolTableRecord
100
AcDbLinetypeTableRecord
  2
ByLayer
 70
     0
  3

 72
    65
 73
     0
 40
0.0
  0
LTYPE
  5
16
330
5
100
AcDbSymbolTableRecord
100
AcDbLinetypeTableRecord
  2
Continuous
 70
     0
  3
Solid line
 72
    65
 73
     0
 40
0.0
  0
LTYPE
  5
6E
330
5
100
AcDbSymbolTableRecord
100
AcDbLinetypeTableRecord
  2
HIDDEN
 70
     0
  3
Hidden __ __ __ __ __ __ __ __ __ __ __ __ __ __
 72
    65
 73
     2
 40
1.905
 49
1.27
 74
     0
 49
-0.635
 74
     0
  0
LTYPE
  5
6F
330
5
100
AcDbSymbolTableRecord
100
AcDbLinetypeTableRecord
  2
PHANTOM
 70
     0
  3
Phantom ______  __  __  ______  __  __  ______
 72
    65
 73
     6
 40
12.7
 49
6.35
 74
     0
 49
-1.27
 74
     0
 49
1.27
 74
     0
 49
-1.27
 74
     0
 49
1.27
 74
     0
 49
-1.27
 74
     0
  0
LTYPE
  5
70
330
5
100
AcDbSymbolTableRecord
100
AcDbLinetypeTableRecord
  2
CENTER
 70
     0
  3
Center ____ _ ____ _ ____ _ ____ _ ____ _ ____
 72
    65
 73
     4
 40
10.16
 49
6.35
 74
     0
 49
-1.27
 74
     0
 49
1.27
 74
     0
 49
-1.27
 74
     0
  0
LTYPE
  5
71
330
5
100
AcDbSymbolTableRecord
100
AcDbLinetypeTableRecord
  2
CENTERX2
 70
     0
  3
Center (2x) ________  __  ________  __  _____
 72
    65
 73
     4
 40
20.32
 49
12.7
 74
     0
 49
-2.54
 74
     0
 49
2.54
 74
     0
 49
-2.54
 74
     0
  0
LTYPE
  5
72
330
5
100
AcDbSymbolTableRecord
100
AcDbLinetypeTableRecord
  2
DOT2
 70
     0
  3
Dot (.5x) ........................................
 72
    65
 73
     2
 40
0.635
 49
0.0
 74
     0
 49
-0.635
 74
     0
  0
ENDTAB
  0
TABLE
  2
LAYER
  5
2
330
0
100
AcDbSymbolTable
 70
     1
  0
LAYER
  5
10
330
2
100
AcDbSymbolTableRecord
100
AcDbLayerTableRecord
  2
0
 70
     0
 62
     7
  6
Continuous
370
    -3
390
F
  0
ENDTAB
  0
TABLE
  2
STYLE
  5
3
330
0
100
AcDbSymbolTable
 70
     1
  0
STYLE
  5
11
330
3
100
AcDbSymbolTableRecord
100
AcDbTextStyleTableRecord
  2
Standard
 70
     0
 40
0.0
 41
1.0
 50
0.0
 71
     0
 42
3.5
  3
txt
  4

  0
ENDTAB
  0
TABLE
  2
VIEW
  5
6
330
0
100
AcDbSymbolTable
 70
     0
  0
ENDTAB
  0
TABLE
  2
UCS
  5
7
330
0
100
AcDbSymbolTable
 70
     0
  0
ENDTAB
  0
TABLE
  2
APPID
  5
9
330
0
100
AcDbSymbolTable
 70
     1
  0
APPID
  5
12
330
9
100
AcDbSymbolTableRecord
100
AcDbRegAppTableRecord
  2
ACAD
 70
     0
  0
ENDTAB
  0
TABLE
  2
DIMSTYLE
  5
A
330
0
100
AcDbSymbolTable
 70
     1
100
AcDbDimStyleTable
  0
DIMSTYLE
105
27
330
A
100
AcDbSymbolTableRecord
100
AcDbDimStyleTableRecord
  2
ISO-25
 70
     0
 41
2.5
 42
0.625
 43
3.75
 44
1.25
 73
     0
 74
     0
 77
     1
 78
     8
140
2.5
141
2.5
143
0.0393700787
147
0.625
171
     3
172
     1
178
     0
271
     2
272
     2
274
     3
278
    44
283
     0
284
     8
340
11
  0
ENDTAB
  0
TABLE
  2
BLOCK_RECORD
  5
1
330
0
100
AcDbSymbolTable
 70
     1
  0
BLOCK_RECORD
  5
1F
330
1
100
AcDbSymbolTableRecord
100
AcDbBlockTableRecord
  2
*Model_Space
340
22
  0
BLOCK_RECORD
  5
1B
330
1
100
AcDbSymbolTableRecord
100
AcDbBlockTableRecord
  2
*Paper_Space
340
1E
  0
BLOCK_RECORD
  5
23
330
1
100
AcDbSymbolTableRecord
100
AcDbBlockTableRecord
  2
*Paper_Space0
340
26
  0
ENDTAB
  0
ENDSEC
  0
SECTION
  2
BLOCKS
  0
BLOCK
  5
20
330
1F
100
AcDbEntity
  8
0
100
AcDbBlockBegin
  2
*Model_Space
 70
     0
 10
0.0
 20
0.0
 30
0.0
  3
*Model_Space
  1

  0
ENDBLK
  5
21
330
1F
100
AcDbEntity
  8
0
100
AcDbBlockEnd
  0
BLOCK
  5
1C
330
1B
100
AcDbEntity
 67
     1
  8
0
100
AcDbBlockBegin
  2
*Paper_Space
 70
     0
 10
0.0
 20
0.0
 30
0.0
  3
*Paper_Space
  1

  0
ENDBLK
  5
1D
330
1B
100
AcDbEntity
 67
     1
  8
0
100
AcDbBlockEnd
  0
BLOCK
  5
24
330
23
100
AcDbEntity
  8
0
100
AcDbBlockBegin
  2
*Paper_Space0
 70
     0
 10
0.0
 20
0.0
 30
0.0
  3
*Paper_Space0
  1

  0
ENDBLK
  5
25
330
23
100
AcDbEntity
  8
0
100
AcDbBlockEnd
  0
ENDSEC
  0
SECTION
  2
ENTITIES
  0
LINE
  5
73
330
1F
100
AcDbEntity
  8
0
  6
Continuous
 62
     7
370
    25
100
AcDbLine
 10
-84.541357
 20
21.000126
 30
0.0
 11
-86.020408
 21
19.539183
 31
0.0
  0
LINE
  5
74
330
1F
100
AcDbEntity
  8
0
  6
Continuous
 62
     7
370
    25
100
AcDbLine
 10
-79.075822
 20
21.000126
 30
0.0
 11
-84.541357
 21
21.000126
 31
0.0
  0
LINE
  5
75
330
1F
100
AcDbEntity
  8
0
  6
Continuous
 62
     7
370
    25
100
AcDbLine
 10
-79.218099
 20
-20.805759
 30
0.0
 11
-79.075822
 21
21.000126
 31
0.0
  0
LINE
  5
76
330
1F
100
AcDbEntity
  8
0
  6
Continuous
 62
     7
370
    25
100
AcDbLine
 10
-80.94319
 20
-20.889142
 30
0.0
 11
-79.218099
 21
-20.805759
 31
0.0
  0
SPLINE
  5
77
330
1F
100
AcDbEntity
  8
0
  6
Continuous
 62
     7
370
    25
100
AcDbSpline
210
0.0
220
0.0
230
1.0
 70
     8
 71
     3
 72
    40
 73
    36
 74
     0
 42
0.000000001
 43
0.00000001
 40
0.0
 40
0.0
 40
0.0
 40
0.0
 40
0.2380708306461396
 40
0.4530810212052093
 40
0.6362268588966856
 40
0.713098900045935
 40
0.7787041840233487
 40
0.8319461370991529
 40
0.8535879581800739
 40
0.8717315077364352
 40
0.8862469479646565
 40
0.8921045636360635
 40
0.8970139912154378
 40
0.9009677255092579
 40
0.9025841026416104
 40
0.9039694838704109
 40
0.9051389985787759
 40
0.9056470153889452
 40
0.9061191438457767
 40
0.9065723387198011
 40
0.9070176131686895
 40
0.9075735998321564
 40
0.9084728562274212
 40
0.9101111594002296
 40
0.9117810990929565
 40
0.9136133677295826
 40
0.9156769884153426
 40
0.9179863276027765
 40
0.9205482323570784
 40
0.9264265209608988
 40
0.933254253090638
 40
0.9409535508996667
 40
0.9585976665591561
 40
0.9785540036930979
 40
1.0
 40
1.0
 40
1.0
 40
1.0
 10
-83.066724
 20
-1.589842999999998
 30
0.0
 10
-83.06543958672682
 20
-3.265005029540069
 30
0.0
 10
-83.06299517438164
 20
-6.453065158402872
 30
0.0
 10
-83.04342096167584
 20
-10.92977694295931
 30
0.0
 10
-83.01826464562984
 20
-14.27217896519844
 30
0.0
 10
-82.9920780821114
 20
-16.5632473917546
 30
0.0
 10
-82.97174680706703
 20
-17.94025842523997
 30
0.0
 10
-82.95261208104546
 20
-18.92861790455818
 30
0.0
 10
-82.93577596373777
 20
-19.58298159892938
 30
0.0
 10
-82.9237122054515
 20
-19.96487540304996
 30
0.0
 10
-82.91291908362142
 20
-20.23568493705141
 30
0.0
 10
-82.903822514153
 20
-20.4133528569409
 30
0.0
 10
-82.89738798926318
 20
-20.5167353647083
 30
0.0
 10
-82.89171578846468
 20
-20.59026233788392
 30
0.0
 10
-82.88690101532251
 20
-20.63896759012006
 30
0.0
 10
-82.88348583425739
 20
-20.66812328907773
 30
0.0
 10
-82.88021526946923
 20
-20.68942953329131
 30
0.0
 10
-82.87774869692393
 20
-20.70435124274951
 30
0.0
 10
-82.87573650995499
 20
-20.71424427902485
 30
0.0
 10
-82.8728853930779
 20
-20.7234712140365
 30
0.0
 10
-82.87110742981957
 20
-20.73357105129926
 30
0.0
 10
-82.86575357547082
 20
-20.74603646895841
 30
0.0
 10
-82.85098657771677
 20
-20.7623805671032
 30
0.0
 10
-82.82766203210198
 20
-20.78087394875224
 30
0.0
 10
-82.79496189901984
 20
-20.79680976029956
 30
0.0
 10
-82.75804977945593
 20
-20.8099293219041
 30
0.0
 10
-82.7161404939662
 20
-20.82227345936309
 30
0.0
 10
-82.66860515205943
 20
-20.83337975685442
 30
0.0
 10
-82.59432920179535
 20
-20.84773542319915
 30
0.0
 10
-82.48796100218469
 20
-20.86318742204346
 30
0.0
 10
-82.3451297369031
 20
-20.87805723573815
 30
0.0
 10
-82.11933518297276
 20
-20.89459268557045
 30
0.0
 10
-81.8006937444687
 20
-20.90582579446173
 30
0.0
 10
-81.38511419623852
 20
-20.9065509169378
 30
0.0
 10
-81.09398962695113
 20
-20.89508251695334
 30
0.0
 10
-80.94319
 20
-20.889142
 30
0.0
  0
LINE
  5
78
330
1F
100
AcDbEntity
  8
0
  6
Continuous
 62
     7
370
    25
100
AcDbLine
 10
-83.066724
 20
17.289934
 30
0.0
 11
-83.066724
 21
-1.589843
 31
0.0
  0
LINE
  5
79
330
1F
100
AcDbEntity
  8
0
  6
Continuous
 62
     7
370
    25
100
AcDbLine
 10
-85.229215
 20
17.289934
 30
0.0
 11
-83.066724
 21
17.289934
 31
0.0
  0
SPLINE
  5
7A
330
1F
100
AcDbEntity
  8
0
  6
Continuous
 62
     7
370
    25
100
AcDbSpline
210
0.0
220
0.0
230
1.0
 70
     8
 71
     3
 72
    25
 73
    21
 74
     0
 42
0.000000001
 43
0.00000001
 40
0.0
 40
0.0
 40
0.0
 40
0.0
 40
0.1159456946251437
 40
0.2241080266354685
 40
0.3200010040922808
 40
0.3619640923300188
 40
0.3992480739765911
 40
0.431375433588769
 40
0.4577793129532686
 40
0.4788359005671934
 40
0.4961799978767927
 40
0.513637565290688
 40
0.5319202445700012
 40
0.5523621119599528
 40
0.576220355826561
 40
0.6050161215516839
 40
0.6396595856440407
 40
0.7290371538383219
 40
0.8481508679249865
 40
1.0
 40
1.0
 40
1.0
 40
1.0
 10
-86.020408
 20
19.539183
 30
0.0
 10
-86.15105762149913
 20
19.40775505713041
 30
0.0
 10
-86.40358643638528
 20
19.1537218477345
 30
0.0
 10
-86.74906767532568
 20
18.77647477339155
 30
0.0
 10
-87.0049905832698
 20
18.47783526538263
 30
0.0
 10
-87.17894587620881
 20
18.25851723498716
 30
0.0
 10
-87.28553037314552
 20
18.11590734947155
 30
0.0
 10
-87.3716452427205
 20
17.98922766360987
 30
0.0
 10
-87.4390673243999
 20
17.88134205297067
 30
0.0
 10
-87.486328293157
 20
17.78883058279889
 30
0.0
 10
-87.5062053298122
 20
17.69988963883513
 30
0.0
 10
-87.48723421883756
 20
17.61424583688579
 30
0.0
 10
-87.43333651681482
 20
17.53996332078202
 30
0.0
 10
-87.35096783164684
 20
17.48108526016251
 30
0.0
 10
-87.24276410019415
 20
17.43566170966718
 30
0.0
 10
-87.10812647662493
 20
17.39827402811963
 30
0.0
 10
-86.86779434152575
 20
17.35367794549506
 30
0.0
 10
-86.48048012206968
 20
17.31654640978526
 30
0.0
 10
-85.90499107389273
 20
17.2929953670461
 30
0.0
 10
-85.47191391956616
 20
17.2910334625338
 30
0.0
 10
-85.229215
 20
17.289934
 30
0.0
  0
LINE
  5
7B
330
1F
100
AcDbEntity
  8
0
  6
Continuous
 62
     7
370
    25
100
AcDbLine
 10
-58.823552
 20
-20.975502
 30
0.0
 11
-58.907564
 21
-7.120916
 31
0.0
  0
LINE
  5
7C
330
1F
100
AcDbEntity
  8
0
  6
Continuous
 62
     7
370
    25
100
AcDbLine
 10
-62.700786
 20
-20.806199
 30
0.0
 11
-58.823552
 21
-20.975502
 31
0.0
  0
LINE
  5
7D
330
1F
100
AcDbEntity
  8
0
  6
Continuous
 62
     7
370
    25
100
AcDbLine
 10
-62.839899
 20
-7.455296
 30
0.0
 11
-62.700786
 21
-20.806199
 31
0.0
  0
SPLINE
  5
7E
330
1F
100
AcDbEntity
  8
0
  6
Continuous
 62
     7
370
    25
100
AcDbSpline
210
0.0
220
0.0
230
1.0
 70
     8
 71
     3
 72
    28
 73
    24
 74
     0
 42
0.000000001
 43
0.00000001
 40
0.0
 40
0.0
 40
0.0
 40
0.0
 40
0.1457030237907551
 40
0.2457614004357062
 40
0.3100706096254692
 40
0.3485134611398487
 40
0.3712765776613593
 40
0.3888999278989241
 40
0.4108020984826882
 40
0.4323305440978025
 40
0.4490124392036638
 40
0.4655530673380815
 40
0.4850581212388511
 40
0.5059789058022732
 40
0.5285064066251222
 40
0.5460359549537145
 40
0.5644756235146337
 40
0.5816634460944614
 40
0.6011854090206172
 40
0.6188593027577445
 40
0.6597094961962832
 40
0.7699846344972774
 40
1.0
 40
1.0
 40
1.0
 40
1.0
 10
-70.71260100000002
 20
-7.662806000000002
 30
0.0
 10
-70.70092261461507
 20
-5.84318751087947
 30
0.0
 10
-70.681224352545
 20
-2.77398567477221
 30
0.0
 10
-70.64393802145213
 20
1.098026934649752
 30
0.0
 10
-70.58351913689789
 20
3.630708220240703
 30
0.0
 10
-70.4947650197605
 20
5.195477367676355
 30
0.0
 10
-70.32665514941951
 20
6.171714439277125
 30
0.0
 10
-70.02603300650004
 20
6.893096870173357
 30
0.0
 10
-69.64859113999152
 20
7.558373320609211
 30
0.0
 10
-69.19512337620881
 20
8.15632471642154
 30
0.0
 10
-68.70671222919971
 20
8.649412074102012
 30
0.0
 10
-68.09033095144112
 20
8.910126744242719
 30
0.0
 10
-67.39745439309073
 20
9.077570343011853
 30
0.0
 10
-66.610516432019
 20
9.130650462688303
 30
0.0
 10
-65.84567655453448
 20
9.10233308761489
 30
0.0
 10
-65.13595461241346
 20
8.879617221614499
 30
0.0
 10
-64.60705174228154
 20
8.461583161367455
 30
0.0
 10
-64.14831375809469
 20
7.946486596358128
 30
0.0
 10
-63.75515555023131
 20
7.393497943350776
 30
0.0
 10
-63.24120613742916
 20
6.553276457728358
 30
0.0
 10
-63.03763871584156
 20
4.399443270508192
 30
0.0
 10
-62.91562656436249
 20
-0.3133190348325244
 30
0.0
 10
-62.87044138844966
 20
-4.574798830905772
 30
0.0
 10
-62.83989900000002
 20
-7.455296000000002
 30
0.0
  0
LINE
  5
7F
330
1F
100
AcDbEntity
  8
0
  6
Continuous
 62
     7
370
    25
100
AcDbLine
 10
-70.712601
 20
-20.947003
 30
0.0
 11
-70.712601
 21
-7.662806
 31
0.0
  0
LINE
  5
80
330
1F
100
AcDbEntity
  8
0
  6
Continuous
 62
     7
370
    25
100
AcDbLine
 10
-72.590736
 20
-20.947003
 30
0.0
 11
-70.712601
 21
-20.947003
 31
0.0
  0
SPLINE
  5
81
330
1F
100
AcDbEntity
  8
0
  6
Continuous
 62
     7
370
    25
100
AcDbSpline
210
0.0
220
0.0
230
1.0
 70
     8
 71
     3
 72
    55
 73
    51
 74
     0
 42
0.000000001
 43
0.00000001
 40
0.0
 40
0.0
 40
0.0
 40
0.0
 40
0.0348265701137024
 40
0.0622733074644443
 40
0.0852336685657834
 40
0.1048901591464642
 40
0.1270412671039828
 40
0.1472886638991366
 40
0.1681546495558813
 40
0.1918970658336007
 40
0.2137305759915615
 40
0.2378025853925977
 40
0.2673348619819814
 40
0.2962190321111121
 40
0.3198414392138261
 40
0.3615980247793255
 40
0.4182831376604538
 40
0.4865847352333593
 40
0.5630868801357539
 40
0.6444114723586462
 40
0.7241944608995533
 40
0.7963534681965452
 40
0.8579252643976952
 40
0.8838145643209073
 40
0.9059475830249423
 40
0.9239583938620327
 40
0.9313033934252436
 40
0.9374829639288607
 40
0.9424560411624407
 40
0.9444778272091725
 40
0.9461874814955823
 40
0.9475863716075225
 40
0.948170783418961
 40
0.9486847334654634
 40
0.9491603356170611
 40
0.9495195170332626
 40
0.9499269454900715
 40
0.9505804885527901
 40
0.9514281776468595
 40
0.9522883655339234
 40
0.9532410236617578
 40
0.9543268915006486
 40
0.9555510074548493
 40
0.9569171484088688
 40
0.9600716856345897
 40
0.9637534400167171
 40
0.967916232654386
 40
0.9774805341793126
 40
0.9883249073430566
 40
1.0
 40
1.0
 40
1.0
 40
1.0
 10
-66.78870700000002
 20
12.958534
 30
0.0
 10
-67.25564660612932
 20
12.95056792483057
 30
0.0
 10
-68.09058020897575
 20
12.93632380470357
 30
0.0
 10
-69.22558079910809
 20
12.7759782172658
 30
0.0
 10
-70.1244982746972
 20
12.48004701306094
 30
0.0
 10
-70.87394056386543
 20
12.03490414265957
 30
0.0
 10
-71.54653364158344
 20
11.54577094295218
 30
0.0
 10
-72.18679017409865
 20
10.98473864971757
 30
0.0
 10
-72.72417739878723
 20
10.2972129611803
 30
0.0
 10
-73.21184988492395
 20
9.552419989514497
 30
0.0
 10
-73.65990152429238
 20
8.72992959530679
 30
0.0
 10
-73.98051289213255
 20
7.767345511445746
 30
0.0
 10
-74.25648592025821
 20
6.697844523917108
 30
0.0
 10
-74.48374673580568
 20
5.61896003864575
 30
0.0
 10
-74.5578812211154
 20
4.355928299690432
 30
0.0
 10
-74.61774966490583
 20
2.72194949059922
 30
0.0
 10
-74.67000255957838
 20
0.4875944089305156
 30
0.0
 10
-74.7126623648137
 20
-2.212177288096785
 30
0.0
 10
-74.74106043536365
 20
-5.242522611635546
 30
0.0
 10
-74.75154412004593
 20
-8.426794071504881
 30
0.0
 10
-74.74598175837106
 20
-11.55288178826024
 30
0.0
 10
-74.72960157612513
 20
-14.41420718200021
 30
0.0
 10
-74.7067243364928
 20
-16.55321959668163
 30
0.0
 10
-74.6828220299304
 20
-18.02173497130342
 30
0.0
 10
-74.66419167096666
 20
-18.90647293220913
 30
0.0
 10
-74.64650616571139
 20
-19.54265012026451
 30
0.0
 10
-74.63087208057955
 20
-19.96498081533964
 30
0.0
 10
-74.61963202369385
 20
-20.21262040372836
 30
0.0
 10
-74.60960313534267
 20
-20.38890059112108
 30
0.0
 10
-74.6009716920482
 20
-20.5052351035239
 30
0.0
 10
-74.59494224254483
 20
-20.57372765856417
 30
0.0
 10
-74.58950624682335
 20
-20.62292244081485
 30
0.0
 10
-74.58498157978512
 20
-20.65608946593273
 30
0.0
 10
-74.58136083118508
 20
-20.67686587601362
 30
0.0
 10
-74.57834098799393
 20
-20.69470424634595
 30
0.0
 10
-74.57536836822419
 20
-20.71103181314463
 30
0.0
 10
-74.57019083183972
 20
-20.72967580623133
 30
0.0
 10
-74.55217858023184
 20
-20.74886796177345
 30
0.0
 10
-74.52763801498858
 20
-20.76881334599715
 30
0.0
 10
-74.49519007291842
 20
-20.78428021752095
 30
0.0
 10
-74.45863818548011
 20
-20.79734177622417
 30
0.0
 10
-74.41680899884443
 20
-20.81018517036994
 30
0.0
 10
-74.36900582776855
 20
-20.8221503030863
 30
0.0
 10
-74.29370971366183
 20
-20.83825635310309
 30
0.0
 10
-74.18528892881892
 20
-20.85663483534818
 30
0.0
 10
-74.03916301671634
 20
-20.87612205604095
 30
0.0
 10
-73.80713864455956
 20
-20.90073142756365
 30
0.0
 10
-73.47864452882591
 20
-20.92462849799453
 30
0.0
 10
-73.04900529808543
 20
-20.9433440693481
 30
0.0
 10
-72.74720348357577
 20
-20.94575372653989
 30
0.0
 10
-72.59073599999999
 20
-20.947003
 30
0.0
  0
SPLINE
  5
82
330
1F
100
AcDbEntity
  8
0
  6
Continuous
 62
     7
370
    25
100
AcDbSpline
210
0.0
220
0.0
230
1.0
 70
     8
 71
     3
 72
    22
 73
    18
 74
     0
 42
0.000000001
 43
0.00000001
 40
0.0
 40
0.0
 40
0.0
 40
0.0
 40
0.2309369392632607
 40
0.3896652008566227
 40
0.4920785988413174
 40
0.5542288038752199
 40
0.592256908724546
 40
0.6223986939471433
 40
0.6612944953684398
 40
0.701183400227719
 40
0.7338293907691871
 40
0.7663844150765792
 40
0.8060881744826266
 40
0.8452844782268829
 40
0.8929511999002526
 40
0.9384442804361031
 40
1.0
 40
1.0
 40
1.0
 40
1.0
 10
-58.907564
 20
-7.120915999999999
 30
0.0
 10
-58.91911569363869
 20
-5.221939870312763
 30
0.0
 10
-58.93860713158845
 20
-2.017753838588439
 30
0.0
 10
-58.97649866777449
 20
2.028298390692425
 30
0.0
 10
-59.03632605002482
 20
4.686526928789046
 30
0.0
 10
-59.12934467422364
 20
6.349836126851746
 30
0.0
 10
-59.30365248804138
 20
7.412803804211462
 30
0.0
 10
-59.61684619776178
 20
8.238661654163783
 30
0.0
 10
-59.99372518537813
 20
9.051839645310398
 30
0.0
 10
-60.4357586827305
 20
9.853597163159712
 30
0.0
 10
-60.88645914258942
 20
10.59638104898347
 30
0.0
 10
-61.50828533268049
 20
11.20343430124422
 30
0.0
 10
-62.23950276347356
 20
11.75824833894972
 30
0.0
 10
-63.1370687315645
 20
12.28771936765492
 30
0.0
 10
-64.13862749663238
 20
12.73177394202681
 30
0.0
 10
-65.40057959318425
 20
12.96009752484434
 30
0.0
 10
-66.28191642556362
 20
12.95910482631617
 30
0.0
 10
-66.78870700000002
 20
12.958534
 30
0.0
  0
LINE
  5
83
330
1F
100
AcDbEntity
  8
0
  6
Continuous
 62
     7
370
    25
100
AcDbLine
 10
-31.413836
 20
12.872764675
 30
0.0
 11
-31.413836
 21
8.8840425523
 31
0.0
  0
SPLINE
  5
84
330
1F
100
AcDbEntity
  8
0
  6
Continuous
 62
     7
370
    25
100
AcDbSpline
210
0.0
220
0.0
230
1.0
 70
     8
 71
     3
 72
    18
 73
    14
 74
     0
 42
0.000000001
 43
0.00000001
 40
0.0
 40
0.0
 40
0.0
 40
0.0
 40
0.1741227356250009
 40
0.2883182103582538
 40
0.3845955737884376
 40
0.4679944925401081
 40
0.5395852361887803
 40
0.6188565372007165
 40
0.6880953907778847
 40
0.7522417202406237
 40
0.8054625453625665
 40
0.8596224507728845
 40
0.8974069845095549
 40
0.8974069845095549
 40
0.8974069845095549
 40
0.8974069845095549
 10
-25.049178
 20
1.723852000000001
 30
0.0
 10
-25.05068270330539
 20
2.649295286422177
 30
0.0
 10
-25.05317424102774
 20
4.181675025182678
 30
0.0
 10
-25.20028571023867
 20
6.22879818004217
 30
0.0
 10
-25.58889282976936
 20
7.74676494610184
 30
0.0
 10
-26.0266914267068
 20
9.013336878696972
 30
0.0
 10
-26.66446922752365
 20
10.09455504231628
 30
0.0
 10
-27.45943823443849
 20
10.9607416255782
 30
0.0
 10
-28.3066559345842
 20
11.71234210465918
 30
0.0
 10
-29.12865222001631
 20
12.27225363186017
 30
0.0
 10
-29.96228727464084
 20
12.66351284760821
 30
0.0
 10
-30.72888193509248
 20
12.78845873622085
 30
0.0
 10
-31.21418475791302
 20
12.85100132225825
 30
0.0
 10
-31.41383600000001
 20
12.87276467498255
 30
0.0
  0
LINE
  5
85
330
1F
100
AcDbEntity
  8
0
  6
Continuous
 62
     7
370
    25
100
AcDbLine
 10
-25.049178
 20
-2.5112
 30
0.0
 11
-25.049178
 21
1.723852
 31
0.0
  0
LINE
  5
86
330
1F
100
AcDbEntity
  8
0
  6
Continuous
 62
     7
370
    25
100
AcDbLine
 10
-31.413836
 20
-5.674202766
 30
0.0
 11
-25.049178
 21
-2.5112
 31
0.0
  0
LINE
  5
87
330
1F
100
AcDbEntity
  8
0
  6
Continuous
 62
     7
370
    25
100
AcDbLine
 10
-31.413836
 20
-1.1278130038
 30
0.0
 11
-31.413836
 21
-5.674202766
 31
0.0
  0
LINE
  5
88
330
1F
100
AcDbEntity
  8
0
  6
Continuous
 62
     7
370
    25
100
AcDbLine
 10
-28.759153
 20
0.202082
 30
0.0
 11
-31.413836
 21
-1.1278130038
 31
0.0
  0
LINE
  5
89
330
1F
100
AcDbEntity
  8
0
  6
Continuous
 62
     7
370
    25
100
AcDbLine
 10
-28.764882
 20
1.898466
 30
0.0
 11
-28.759153
 21
0.202082
 31
0.0
  0
SPLINE
  5
8A
330
1F
100
AcDbEntity
  8
0
  6
Continuous
 62
     7
370
    25
100
AcDbSpline
210
0.0
220
0.0
230
1.0
 70
     8
 71
     3
 72
    16
 73
    12
 74
     0
 42
0.000000001
 43
0.00000001
 40
0.1633805610987216
 40
0.1633805610987216
 40
0.1633805610987216
 40
0.1633805610987216
 40
0.2291875804038585
 40
0.3007442798643941
 40
0.3609238748392021
 40
0.4315591419319594
 40
0.5299643712529192
 40
0.6346885722118434
 40
0.7518284153372673
 40
0.8830633735204251
 40
1.0
 40
1.0
 40
1.0
 40
1.0
 10
-31.413836
 20
8.8840425523
 30
0.0
 10
-31.22438317372456
 20
8.801822809353977
 30
0.0
 10
-30.84800586121999
 20
8.585062731050488
 30
0.0
 10
-30.35834276877446
 20
8.204822237542773
 30
0.0
 10
-29.9148348569563
 20
7.737943727334872
 30
0.0
 10
-29.63620264957174
 20
7.064683613355272
 30
0.0
 10
-29.35444772887458
 20
6.255904792440321
 30
0.0
 10
-29.09955640090126
 20
5.280663051188053
 30
0.0
 10
-28.93280883336741
 20
4.184340801644701
 30
0.0
 10
-28.80485452063882
 20
3.044089128518417
 30
0.0
 10
-28.77768437357786
 20
2.265385449570266
 30
0.0
 10
-28.764882
 20
1.898465999999999
 30
0.0
  0
LINE
  5
8B
330
1F
100
AcDbEntity
  8
0
  6
Continuous
 62
     7
370
    25
100
AcDbLine
 10
-28.6775309963
 20
-10.586975
 30
0.0
 11
-28.8713219963
 21
-12.505855
 31
0.0
  0
LINE
  5
8C
330
1F
100
AcDbEntity
  8
0
  6
Continuous
 62
     7
370
    25
100
AcDbLine
 10
-25.049178
 20
-10.586975
 30
0.0
 11
-28.6775309963
 21
-10.586975
 31
0.0
  0
LINE
  5
8D
330
1F
100
AcDbEntity
  8
0
  6
Continuous
 62
     7
370
    25
100
AcDbLine
 10
-25.049178
 20
-12.530131
 30
0.0
 11
-25.049178
 21
-10.586975
 31
0.0
  0
SPLINE
  5
8E
330
1F
100
AcDbEntity
  8
0
  6
Continuous
 62
     7
370
    25
100
AcDbSpline
210
0.0
220
0.0
230
1.0
 70
     8
 71
     3
 72
    28
 73
    24
 74
     0
 42
0.000000001
 43
0.00000001
 40
0.0
 40
0.0
 40
0.0
 40
0.0
 40
0.0026808405942205
 40
0.0055600172485267
 40
0.0089119501054524
 40
0.0120229532570232
 40
0.0151694681087372
 40
0.0198925938146656
 40
0.0338331543431839
 40
0.0512750441001743
 40
0.0723160331009174
 40
0.1389435598186138
 40
0.201935128881897
 40
0.2696620232879552
 40
0.3366754568928114
 40
0.4140445331215634
 40
0.486410348792307
 40
0.5615834045173014
 40
0.6461722798298533
 40
0.722874058646667
 40
0.805207729812861
 40
0.904391916311317
 40
1.0
 40
1.0
 40
1.0
 40
1.0
 10
-31.56605
 20
-20.909114
 30
0.0
 10
-31.5556719331073
 20
-20.91282597326929
 30
0.0
 10
-31.534148001004
 20
-20.92052454193755
 30
0.0
 10
-31.49879452790961
 20
-20.90905791674843
 30
0.0
 10
-31.4614401038422
 20
-20.91002756183449
 30
0.0
 10
-31.42265883319238
 20
-20.91051879857459
 30
0.0
 10
-31.38037318411104
 20
-20.89663982581481
 30
0.0
 10
-31.29223000967832
 20
-20.89799695651823
 30
0.0
 10
-31.148606350592
 20
-20.90726967657949
 30
0.0
 10
-30.93852961137651
 20
-20.91206912961
 30
0.0
 10
-30.5184728537887
 20
-20.92636408526127
 30
0.0
 10
-29.91142909976047
 20
-20.89842320267925
 30
0.0
 10
-29.14851108113583
 20
-20.66649121771353
 30
0.0
 10
-28.45480867446899
 20
-20.27363658912563
 30
0.0
 10
-27.80395984214082
 20
-19.72425052003603
 30
0.0
 10
-27.20170782769279
 20
-19.09896962496657
 30
0.0
 10
-26.63657654342036
 20
-18.39452008626062
 30
0.0
 10
-26.18284255069553
 20
-17.58041938064865
 30
0.0
 10
-25.78280935599483
 20
-16.72316902188525
 30
0.0
 10
-25.43096892488624
 20
-15.81034292680763
 30
0.0
 10
-25.23173693514669
 20
-14.79308998293875
 30
0.0
 10
-25.08800466876993
 20
-13.69245578272716
 30
0.0
 10
-25.06196084736077
 20
-12.91280148788766
 30
0.0
 10
-25.049178
 20
-12.530131
 30
0.0
  0
SPLINE
  5
8F
330
1F
100
AcDbEntity
  8
0
  6
Continuous
 62
     7
370
    25
100
AcDbSpline
210
0.0
220
0.0
230
1.0
 70
     8
 71
     3
 72
    10
 73
     6
 74
     0
 42
0.000000001
 43
0.00000001
 40
0.0
 40
0.0
 40
0.0
 40
0.0
 40
0.7058790970777958
 40
0.9910173535598182
 40
1.0
 40
1.0
 40
1.0
 40
1.0
 10
-32.692927
 20
-20.941076
 30
0.0
 10
-32.48056638271535
 20
-20.90138769445269
 30
0.0
 10
-32.18242317687032
 20
-20.84566738810902
 30
0.0
 10
-31.549474845118
 20
-21.02502327265793
 30
0.0
 10
-31.56555878583801
 20
-20.91254903735807
 30
0.0
 10
-31.56605
 20
-20.909114
 30
0.0
  0
LINE
  5
90
330
1F
100
AcDbEntity
  8
0
  6
Continuous
 62
     7
370
    25
100
AcDbLine
 10
-33.830181
 20
-20.908276
 30
0.0
 11
-32.692927
 21
-20.941076
 31
0.0
  0
LINE
  5
91
330
1F
100
AcDbEntity
  8
0
  6
Continuous
 62
     7
370
    25
100
AcDbLine
 10
-34.938445
 20
-20.926649
 30
0.0
 11
-33.830181
 21
-20.908276
 31
0.0
  0
SPLINE
  5
92
330
1F
100
AcDbEntity
  8
0
  6
Continuous
 62
     7
370
    25
100
AcDbSpline
210
0.0
220
0.0
230
1.0
 70
     8
 71
     3
 72
    10
 73
     6
 74
     0
 42
0.000000001
 43
0.00000001
 40
0.0
 40
0.0
 40
0.0
 40
0.0
 40
0.3199711781784304
 40
0.6690836023539513
 40
1.0
 40
1.0
 40
1.0
 40
1.0
 10
-36.846984
 20
-20.456534
 30
0.0
 10
-36.65490904790779
 20
-20.54544570400723
 30
0.0
 10
-36.25326599493208
 20
-20.73136670960298
 30
0.0
 10
-35.6061324733562
 20
-20.89078963946605
 30
0.0
 10
-35.15700158366215
 20
-20.91491102431024
 30
0.0
 10
-34.93844500000002
 20
-20.926649
 30
0.0
  0
LINE
  5
93
330
1F
100
AcDbEntity
  8
0
  6
Continuous
 62
     7
370
    25
100
AcDbLine
 10
-36.846984
 20
-20.466666
 30
0.0
 11
-36.846984
 21
-20.456534
 31
0.0
  0
LINE
  5
94
330
1F
100
AcDbEntity
  8
0
  6
Continuous
 62
     7
370
    25
100
AcDbLine
 10
-36.929105
 20
-20.416634
 30
0.0
 11
-36.846984
 21
-20.466666
 31
0.0
  0
SPLINE
  5
95
330
1F
100
AcDbEntity
  8
0
  6
Continuous
 62
     7
370
    25
100
AcDbSpline
210
0.0
220
0.0
230
1.0
 70
     8
 71
     3
 72
    33
 73
    29
 74
     0
 42
0.000000001
 43
0.00000001
 40
0.035282627329381
 40
0.035282627329381
 40
0.035282627329381
 40
0.035282627329381
 40
0.0608520334470219
 40
0.0899360120643558
 40
0.1158933490255789
 40
0.1423897635627073
 40
0.1663918040835938
 40
0.1899015947941424
 40
0.216553025651725
 40
0.2408849249596324
 40
0.2590005157709743
 40
0.2827667737839191
 40
0.3181910946857024
 40
0.3712173858804537
 40
0.4477549681654887
 40
0.5536552468078139
 40
0.6630085309663597
 40
0.7403867723621972
 40
0.792635571088345
 40
0.826674892325109
 40
0.8494667945779985
 40
0.8680160430434156
 40
0.892740653101661
 40
0.9188723326121057
 40
0.9411212098301156
 40
0.9613945153929443
 40
0.9824293088154854
 40
1.0
 40
1.0
 40
1.0
 40
1.0
 10
-34.41383600000006
 20
12.89466011686284
 30
0.0
 10
-34.74190747423907
 20
12.85160782180671
 30
0.0
 10
-35.4374288081445
 20
12.70158013071503
 30
0.0
 10
-36.3992461841684
 20
12.28572167062912
 30
0.0
 10
-37.30526166999105
 20
11.7407914696215
 30
0.0
 10
-38.07477943923637
 20
11.11496669112846
 30
0.0
 10
-38.72811756559244
 20
10.40798950222224
 30
0.0
 10
-39.22691707850449
 20
9.584560745843875
 30
0.0
 10
-39.67312428781217
 20
8.731102319528766
 30
0.0
 10
-40.03018178161911
 20
7.909598205304206
 30
0.0
 10
-40.26472532976551
 20
7.083297995741914
 30
0.0
 10
-40.39357755400934
 20
6.089277794697459
 30
0.0
 10
-40.47184094771928
 20
4.639914277776617
 30
0.0
 10
-40.51505390562688
 20
2.506182876357749
 30
0.0
 10
-40.53374980829341
 20
-0.5390501623239106
 30
0.0
 10
-40.53573178405495
 20
-4.312922302049444
 30
0.0
 10
-40.53421282607132
 20
-8.097628004235178
 30
0.0
 10
-40.51748227882842
 20
-11.18841863874783
 30
0.0
 10
-40.47303896725344
 20
-13.30490804573937
 30
0.0
 10
-40.39054898316946
 20
-14.71381865153118
 30
0.0
 10
-40.23956476222966
 20
-15.68017301686946
 30
0.0
 10
-39.97602636200784
 20
-16.49549292966352
 30
0.0
 10
-39.60635755339968
 20
-17.31513518595274
 30
0.0
 10
-39.14881312464102
 20
-18.14294749632906
 30
0.0
 10
-38.65233077597351
 20
-18.88327751569496
 30
0.0
 10
-38.08154361261526
 20
-19.47735962426405
 30
0.0
 10
-37.52458253627218
 20
-19.99891970516824
 30
0.0
 10
-37.11535747713506
 20
-20.28598201498276
 30
0.0
 10
-36.92910500000001
 20
-20.416634
 30
0.0
  0
LINE
  5
96
330
1F
100
AcDbEntity
  8
0
  6
Continuous
 62
     7
370
    25
100
AcDbLine
 10
-34.413836
 20
12.8946601169
 30
0.0
 11
-34.413836
 21
8.7436644294
 31
0.0
  0
SPLINE
  5
97
330
1F
100
AcDbEntity
  8
0
  6
Continuous
 62
     7
370
    25
100
AcDbSpline
210
0.0
220
0.0
230
1.0
 70
     8
 71
     3
 72
    38
 73
    34
 74
     0
 42
0.000000001
 43
0.00000001
 40
0.1057731776559492
 40
0.1057731776559492
 40
0.1057731776559492
 40
0.1057731776559492
 40
0.1152237677133341
 40
0.1622288428978468
 40
0.1820851445858018
 40
0.199128966849151
 40
0.2130731257593238
 40
0.2187926034069381
 40
0.2236248283766053
 40
0.2275272613284665
 40
0.2287409699144561
 40
0.2297567569858313
 40
0.2306556581495773
 40
0.2311566902189499
 40
0.2316606407640787
 40
0.2323175141938208
 40
0.235786825213664
 40
0.2402345371608515
 40
0.2456018219489144
 40
0.2589119295193196
 40
0.2754251073642696
 40
0.2948555721300076
 40
0.3413334517616177
 40
0.3961039422576976
 40
0.4569306285382045
 40
0.5977498330604069
 40
0.6916519636806844
 40
0.7530684016914674
 40
0.7946514857802773
 40
0.8382228065156667
 40
0.8746560663945296
 40
0.9083591602948172
 40
0.9171118510727261
 40
0.9171118510727261
 40
0.9171118510727261
 40
0.9171118510727261
 10
-34.41383599630566
 20
-2.622500739320988
 30
0.0
 10
-34.46782626249674
 20
-2.649025264994369
 30
0.0
 10
-34.79041609138162
 20
-2.807344498257463
 30
0.0
 10
-35.22698018989108
 20
-3.020283389440607
 30
0.0
 10
-35.70822410556324
 20
-3.251928019707839
 30
0.0
 10
-36.00042414707974
 20
-3.390919930376457
 30
0.0
 10
-36.21211349262751
 20
-3.490144795471432
 30
0.0
 10
-36.35372707644278
 20
-3.554851181040625
 30
0.0
 10
-36.43793442103075
 20
-3.593130585231285
 30
0.0
 10
-36.49527329383508
 20
-3.617207211108842
 30
0.0
 10
-36.53215613035797
 20
-3.634094376055689
 30
0.0
 10
-36.54878745685917
 20
-3.638190803559609
 30
0.0
 10
-36.56809023645543
 20
-3.653256225431121
 30
0.0
 10
-36.56863316967149
 20
-3.637251877731587
 30
0.0
 10
-36.57158640194002
 20
-3.627903190606608
 30
0.0
 10
-36.57632989955692
 20
-3.598185807420652
 30
0.0
 10
-36.58326015823852
 20
-3.544652959864888
 30
0.0
 10
-36.59184544837285
 20
-3.460243441084323
 30
0.0
 10
-36.60400068859019
 20
-3.313677884840519
 30
0.0
 10
-36.61771323684615
 20
-3.090002582861541
 30
0.0
 10
-36.63232787459667
 20
-2.776868249338861
 30
0.0
 10
-36.65121878663089
 20
-2.252561918145303
 30
0.0
 10
-36.66955484804781
 20
-1.484635619645289
 30
0.0
 10
-36.68331877625594
 20
-0.4530632919965257
 30
0.0
 10
-36.6898731392521
 20
1.178937908683944
 30
0.0
 10
-36.67400060915405
 20
3.06110474453607
 30
0.0
 10
-36.56590437034594
 20
4.942350434158786
 30
0.0
 10
-36.33955677969653
 20
6.185526398740528
 30
0.0
 10
-35.94879136897912
 20
7.038670890330334
 30
0.0
 10
-35.55074893826706
 20
7.701715518117227
 30
0.0
 10
-35.10689379348597
 20
8.281944792046914
 30
0.0
 10
-34.69487012606312
 20
8.577731641138193
 30
0.0
 10
-34.46226184098968
 20
8.716050463223025
 30
0.0
 10
-34.41383600000006
 20
8.74366442944737
 30
0.0
  0
LINE
  5
98
330
1F
100
AcDbEntity
  8
0
  6
Continuous
 62
     7
370
    25
100
AcDbLine
 10
-34.4138359963
 20
-2.6225007393
 30
0.0
 11
-34.4138359963
 21
-7.1651056165
 31
0.0
  0
LINE
  5
99
330
1F
100
AcDbEntity
  8
0
  6
Continuous
 62
     7
370
    25
100
AcDbLine
 10
-36.7351509963
 20
-8.318724
 30
0.0
 11
-34.4138359963
 21
-7.1651056165
 31
0.0
  0
LINE
  5
9A
330
1F
100
AcDbEntity
  8
0
  6
Continuous
 62
     7
370
    25
100
AcDbLine
 10
-36.6361469963
 20
-11.33194
 30
0.0
 11
-36.7351509963
 21
-8.318724
 31
0.0
  0
SPLINE
  5
9B
330
1F
100
AcDbEntity
  8
0
  6
Continuous
 62
     7
370
    25
100
AcDbSpline
210
0.0
220
0.0
230
1.0
 70
     8
 71
     3
 72
    25
 73
    21
 74
     0
 42
0.000000001
 43
0.00000001
 40
0.0
 40
0.0
 40
0.0
 40
0.0
 40
0.0716768765669586
 40
0.1437441817429501
 40
0.2007622387466746
 40
0.2488430870525372
 40
0.2968311809018555
 40
0.334700407604972
 40
0.3716273930088361
 40
0.4169443930508069
 40
0.4612593214081585
 40
0.5082171913657871
 40
0.5512190635825827
 40
0.5921245491170272
 40
0.6328366903697183
 40
0.6818816220479086
 40
0.7289219203428196
 40
0.7918971699966628
 40
0.8755623409513802
 40
1.0
 40
1.0
 40
1.0
 40
1.0
 10
-28.87132199630566
 20
-12.505855
 30
0.0
 10
-28.92173852850282
 20
-12.87233670850709
 30
0.0
 10
-29.02284621502748
 20
-13.60729637522609
 30
0.0
 10
-29.27552251702899
 20
-14.61186891757856
 30
0.0
 10
-29.56264332444116
 20
-15.48401156261431
 30
0.0
 10
-29.97738990312712
 20
-16.16205286510219
 30
0.0
 10
-30.40218425647335
 20
-16.70452702614529
 30
0.0
 10
-30.8587409783377
 20
-17.15771791091543
 30
0.0
 10
-31.4412361934429
 20
-17.39480679885324
 30
0.0
 10
-32.07125364909477
 20
-17.56260767901502
 30
0.0
 10
-32.7738174167654
 20
-17.649847914378
 30
0.0
 10
-33.46943960248802
 20
-17.60417433461295
 30
0.0
 10
-34.12519944050303
 20
-17.4264926975928
 30
0.0
 10
-34.6967716386535
 20
-17.11490333489115
 30
0.0
 10
-35.17881894634075
 20
-16.63702120621812
 30
0.0
 10
-35.61810779927923
 20
-16.0848952724334
 30
0.0
 10
-36.05881854370529
 20
-15.38882779423985
 30
0.0
 10
-36.39226738623892
 20
-14.43685557778633
 30
0.0
 10
-36.56984875804948
 20
-13.04520629441384
 30
0.0
 10
-36.61133799457728
 20
-11.97304944087308
 30
0.0
 10
-36.63614699630565
 20
-11.33194
 30
0.0
  0
LINE
  5
9C
330
1F
100
AcDbEntity
  8
0
  6
Continuous
 62
     7
370
    25
100
AcDbLine
 10
-6.06944
 20
-20.806196
 30
0.0
 11
-5.993014
 21
-8.424862
 31
0.0
  0
LINE
  5
9D
330
1F
100
AcDbEntity
  8
0
  6
Continuous
 62
     7
370
    25
100
AcDbLine
 10
-9.892428
 20
-20.974229
 30
0.0
 11
-6.06944
 21
-20.806196
 31
0.0
  0
LINE
  5
9E
330
1F
100
AcDbEntity
  8
0
  6
Continuous
 62
     7
370
    25
100
AcDbLine
 10
-9.974541
 20
-7.536562
 30
0.0
 11
-9.892428
 21
-20.974229
 31
0.0
  0
SPLINE
  5
9F
330
1F
100
AcDbEntity
  8
0
  6
Continuous
 62
     7
370
    25
100
AcDbSpline
210
0.0
220
0.0
230
1.0
 70
     8
 71
     3
 72
    34
 73
    30
 74
     0
 42
0.000000001
 43
0.00000001
 40
0.0
 40
0.0
 40
0.0
 40
0.0
 40
0.145930816840857
 40
0.2459424844750803
 40
0.3100538410707576
 40
0.3482734488767056
 40
0.3709221848568258
 40
0.3886716767139604
 40
0.4118156470268635
 40
0.4338174368512734
 40
0.4527853465018934
 40
0.4696668742701477
 40
0.4870657391149485
 40
0.5013520254588005
 40
0.5155303978418744
 40
0.5326010317469632
 40
0.5490049754750486
 40
0.567033408183831
 40
0.5889191140640261
 40
0.6101373836770966
 40
0.6185003566589556
 40
0.6265753150334973
 40
0.6357576025782555
 40
0.6475225806535658
 40
0.6633029141714172
 40
0.6844784767551855
 40
0.7484019411776772
 40
0.8500158061541726
 40
1.0
 40
1.0
 40
1.0
 40
1.0
 10
-17.785808
 20
-7.662800000000001
 30
0.0
 10
-17.77474149335822
 20
-5.837064134341133
 30
0.0
 10
-17.75609070939865
 20
-2.760085436379867
 30
0.0
 10
-17.72044115494325
 20
1.118699830764992
 30
0.0
 10
-17.66058692364129
 20
3.650056704644136
 30
0.0
 10
-17.57204016550807
 20
5.211013993799971
 30
0.0
 10
-17.40072020241795
 20
6.18599644982219
 30
0.0
 10
-17.08988675525971
 20
6.921490241558535
 30
0.0
 10
-16.70408687691987
 20
7.61000050897975
 30
0.0
 10
-16.19900112335001
 20
8.237823941279066
 30
0.0
 10
-15.64230916423628
 20
8.712462007786414
 30
0.0
 10
-15.03153435417292
 20
8.991559496866072
 30
0.0
 10
-14.45477539771987
 20
9.179222488207058
 30
0.0
 10
-13.88274771684339
 20
9.284939832252016
 30
0.0
 10
-13.31438346618612
 20
9.182301841143886
 30
0.0
 10
-12.74783027994808
 20
9.000947980328656
 30
0.0
 10
-12.15470205378427
 20
8.73416697224579
 30
0.0
 10
-11.61817907753239
 20
8.266812261756936
 30
0.0
 10
-11.11302659021602
 20
7.691514193612104
 30
0.0
 10
-10.75578685802963
 20
7.152378374151386
 30
0.0
 10
-10.53872643140226
 20
6.734132815500863
 30
0.0
 10
-10.40884893127137
 20
6.440472638821783
 30
0.0
 10
-10.30765558212481
 20
6.090667469661477
 30
0.0
 10
-10.22843275973237
 20
5.637489866668318
 30
0.0
 10
-10.16641779280049
 20
5.030793591892542
 30
0.0
 10
-10.09175585270446
 20
3.770707164366092
 30
0.0
 10
-10.04232969481177
 20
1.434779960009638
 30
0.0
 10
-10.0041823098936
 20
-2.512363903996345
 30
0.0
 10
-9.985611528987247
 20
-5.660108804809749
 30
0.0
 10
-9.974541
 20
-7.536561999999999
 30
0.0
  0
LINE
  5
A0
330
1F
100
AcDbEntity
  8
0
  6
Continuous
 62
     7
370
    25
100
AcDbLine
 10
-17.865604
 20
-20.946997
 30
0.0
 11
-17.785808
 21
-7.6628
 31
0.0
  0
LINE
  5
A1
330
1F
100
AcDbEntity
  8
0
  6
Continuous
 62
     7
370
    25
100
AcDbLine
 10
-19.663955
 20
-20.946997
 30
0.0
 11
-17.865604
 21
-20.946997
 31
0.0
  0
SPLINE
  5
A2
330
1F
100
AcDbEntity
  8
0
  6
Continuous
 62
     7
370
    25
100
AcDbSpline
210
0.0
220
0.0
230
1.0
 70
     8
 71
     3
 72
    40
 73
    36
 74
     0
 42
0.000000001
 43
0.00000001
 40
0.0
 40
0.0
 40
0.0
 40
0.0
 40
0.2250790353626374
 40
0.4286264940715429
 40
0.6022905408662166
 40
0.6753081218901985
 40
0.7377282356364152
 40
0.7885111920070541
 40
0.8092123119275266
 40
0.8266222159936291
 40
0.8406284249467489
 40
0.8463215143001848
 40
0.8511338138369522
 40
0.8550665697007356
 40
0.8567039141029789
 40
0.8581392958260942
 40
0.8593991184325526
 40
0.859973442843698
 40
0.8605268689116783
 40
0.8610842437239649
 40
0.861669635502699
 40
0.8623817795585264
 40
0.8633819016501818
 40
0.8657204699307393
 40
0.8680917380185882
 40
0.8707206266545445
 40
0.8737225127465031
 40
0.8771096454579708
 40
0.8808877259426928
 40
0.8896031400337433
 40
0.8997754571277558
 40
0.911280816136669
 40
0.9377255559837236
 40
0.9677142185820762
 40
1.0
 40
1.0
 40
1.0
 40
1.0
 10
-21.83009800000001
 20
-8.170481
 30
0.0
 10
-21.82918491164026
 20
-9.264141109967703
 30
0.0
 10
-21.82744608304706
 20
-11.34683929590088
 30
0.0
 10
-21.80928345767719
 20
-14.27332437269415
 30
0.0
 10
-21.78581407610038
 20
-16.46087354996093
 30
0.0
 10
-21.76149563966106
 20
-17.96260626663647
 30
0.0
 10
-21.74255472454618
 20
-18.86725708763035
 30
0.0
 10
-21.72463572672302
 20
-19.51766049964416
 30
0.0
 10
-21.70890794477184
 20
-19.94931358940304
 30
0.0
 10
-21.69760292946934
 20
-20.20230137585529
 30
0.0
 10
-21.68747017177873
 20
-20.38233857418178
 30
0.0
 10
-21.67889116660823
 20
-20.50113453169615
 30
0.0
 10
-21.67282283553158
 20
-20.57102834523183
 30
0.0
 10
-21.66745088277821
 20
-20.62119792288339
 30
0.0
 10
-21.66281898377551
 20
-20.65492411511122
 30
0.0
 10
-21.6594108775823
 20
-20.67570060390969
 30
0.0
 10
-21.65628391005202
 20
-20.69128326135943
 30
0.0
 10
-21.65358574069183
 20
-20.7025649238424
 30
0.0
 10
-21.65156545819582
 20
-20.7105062537502
 30
0.0
 10
-21.64885404172703
 20
-20.71829276801317
 30
0.0
 10
-21.64591737782841
 20
-20.72682048749942
 30
0.0
 10
-21.64058285958498
 20
-20.73672458392154
 30
0.0
 10
-21.62745155982932
 20
-20.75154277406412
 30
0.0
 10
-21.60535306818525
 20
-20.76873915910954
 30
0.0
 10
-21.57310440608853
 20
-20.78431414672681
 30
0.0
 10
-21.5364503606334
 20
-20.79733768132911
 30
0.0
 10
-21.49454125796613
 20
-20.81018788240313
 30
0.0
 10
-21.44658778570934
 20
-20.82213884184958
 30
0.0
 10
-21.37111394090205
 20
-20.83824391724296
 30
0.0
 10
-21.26248081487921
 20
-20.85663142790672
 30
0.0
 10
-21.11607548632998
 20
-20.87612191408597
 30
0.0
 10
-20.88352264158199
 20
-20.90073079200307
 30
0.0
 10
-20.55420187611981
 20
-20.92462291793797
 30
0.0
 10
-20.12344018773432
 20
-20.94333968538955
 30
0.0
 10
-19.82083743410848
 20
-20.94574827983729
 30
0.0
 10
-19.663955
 20
-20.946997
 30
0.0
  0
SPLINE
  5
A3
330
1F
100
AcDbEntity
  8
0
  6
Continuous
 62
     7
370
    25
100
AcDbSpline
210
0.0
220
0.0
230
1.0
 70
     8
 71
     3
 72
    28
 73
    24
 74
     0
 42
0.000000001
 43
0.00000001
 40
0.0
 40
0.0
 40
0.0
 40
0.0
 40
0.0540635264160972
 40
0.0970091397398347
 40
0.1328450258067947
 40
0.1635191696126934
 40
0.1980268725327662
 40
0.2295003401897546
 40
0.2614816831863558
 40
0.2972920446390686
 40
0.3296951313102209
 40
0.3648434580626144
 40
0.4077514332814256
 40
0.4495766164901074
 40
0.4636596855662475
 40
0.4851030495784946
 40
0.5135081075885086
 40
0.5484165789952252
 40
0.5893039778409613
 40
0.6356598795216836
 40
0.7427348273473221
 40
0.865548213856009
 40
1.0
 40
1.0
 40
1.0
 40
1.0
 10
-13.88132899999999
 20
12.952628
 30
0.0
 10
-14.3440004340728
 20
12.94568776369774
 30
0.0
 10
-15.17419707082482
 20
12.93323451845266
 30
0.0
 10
-16.30356440296442
 20
12.77677739211267
 30
0.0
 10
-17.20163724265198
 20
12.48760147958061
 30
0.0
 10
-17.95094016174688
 20
12.05012354331408
 30
0.0
 10
-18.62475927584693
 20
11.57102359363924
 30
0.0
 10
-19.26315364656087
 20
11.02332750296179
 30
0.0
 10
-19.80078113289157
 20
10.36222093979138
 30
0.0
 10
-20.28696986528569
 20
9.656683208380022
 30
0.0
 10
-20.7310685981535
 20
8.888618716878035
 30
0.0
 10
-21.05133089814613
 20
7.99602779212558
 30
0.0
 10
-21.32737197539161
 20
7.009360981858589
 30
0.0
 10
-21.52002482937027
 20
6.183911254283087
 30
0.0
 10
-21.5923673371705
 20
5.525831277619356
 30
0.0
 10
-21.6260295762962
 20
4.979954747754541
 30
0.0
 10
-21.66101855905788
 20
4.255830409462378
 30
0.0
 10
-21.69307884898435
 20
3.365097631946242
 30
0.0
 10
-21.72288011046155
 20
2.320690342762182
 30
0.0
 10
-21.76035026556985
 20
0.6589956667696946
 30
0.0
 10
-21.79644074870111
 20
-1.70361728330394
 30
0.0
 10
-21.82440674144109
 20
-4.819912440013326
 30
0.0
 10
-21.8281445490159
 20
-7.02044162240454
 30
0.0
 10
-21.83009800000001
 20
-8.170481
 30
0.0
  0
SPLINE
  5
A4
330
1F
100
AcDbEntity
  8
0
  6
Continuous
 62
     7
370
    25
100
AcDbSpline
210
0.0
220
0.0
230
1.0
 70
     8
 71
     3
 72
    25
 73
    21
 74
     0
 42
0.000000001
 43
0.00000001
 40
0.0
 40
0.0
 40
0.0
 40
0.0
 40
0.140802392699597
 40
0.2644072461321467
 40
0.3689602371746248
 40
0.4525764989592422
 40
0.513485862353313
 40
0.5500453384742081
 40
0.5942810235971443
 40
0.6380560793911526
 40
0.6723205932547435
 40
0.7032080687819814
 40
0.7382578623872061
 40
0.7704793286728013
 40
0.802665929884271
 40
0.8376262403920521
 40
0.8683673921268774
 40
0.9039408384226725
 40
0.9465261696420368
 40
1.0
 40
1.0
 40
1.0
 40
1.0
 10
-5.993014000000002
 20
-8.424862
 30
0.0
 10
-5.98711620148887
 20
-7.207362720426067
 30
0.0
 10
-5.97604095885505
 20
-4.921068961435582
 30
0.0
 10
-5.983159805592867
 20
-1.730640078980791
 30
0.0
 10
-6.008216090532795
 20
0.9651005984596606
 30
0.0
 10
-6.051799527369091
 20
3.118687198566762
 30
0.0
 10
-6.107907297550439
 20
4.683156423048784
 30
0.0
 10
-6.198227022736853
 20
5.906807883972728
 30
0.0
 10
-6.420739713276231
 20
6.963404053823651
 30
0.0
 10
-6.681920398950616
 20
7.986691647213596
 30
0.0
 10
-6.970940581617924
 20
8.88750668681953
 30
0.0
 10
-7.401094708275703
 20
9.644237238734062
 30
0.0
 10
-7.886538372733714
 20
10.34047057301508
 30
0.0
 10
-8.441088564126256
 20
11.00188715355946
 30
0.0
 10
-9.100848903103381
 20
11.55707369070525
 30
0.0
 10
-9.79265671293832
 20
12.04469554828795
 30
0.0
 10
-10.55281934115873
 20
12.48675049761915
 30
0.0
 10
-11.45641861705849
 20
12.77631532761578
 30
0.0
 10
-12.587655524138
 20
12.93303829792023
 30
0.0
 10
-13.41870416322299
 20
12.94562261348148
 30
0.0
 10
-13.88132899999999
 20
12.952628
 30
0.0
  0
LINE
  5
A5
330
1F
100
AcDbEntity
  8
0
  6
Continuous
 62
     7
370
    25
100
AcDbLine
 10
6.122475
 20
-17.396452
 30
0.0
 11
4.69418
 21
-17.157069
 31
0.0
  0
LINE
  5
A6
330
1F
100
AcDbEntity
  8
0
  6
Continuous
 62
     7
370
    25
100
AcDbLine
 10
6.122475
 20
-20.8059
 30
0.0
 11
6.122475
 21
-17.396452
 31
0.0
  0
LINE
  5
A7
330
1F
100
AcDbEntity
  8
0
  6
Continuous
 62
     7
370
    25
100
AcDbLine
 10
4.547046
 20
-20.881474
 30
0.0
 11
6.122475
 21
-20.8059
 31
0.0
  0
SPLINE
  5
A8
330
1F
100
AcDbEntity
  8
0
  6
Continuous
 62
     7
370
    25
100
AcDbSpline
210
0.0
220
0.0
230
1.0
 70
     8
 71
     3
 72
    19
 73
    15
 74
     0
 42
0.000000001
 43
0.00000001
 40
0.0
 40
0.0
 40
0.0
 40
0.0
 40
0.4049786381044352
 40
0.6010043325599386
 40
0.6801203939429522
 40
0.7164128046850579
 40
0.7544675368641579
 40
0.7867958087553472
 40
0.8186375610756284
 40
0.8554472938764667
 40
0.8900608120695908
 40
0.9280975897106732
 40
0.9624501129964965
 40
1.0
 40
1.0
 40
1.0
 40
1.0
 10
-2.436721000000006
 20
2.884803999999999
 30
0.0
 10
-2.434362244405984
 20
-0.8598896479936621
 30
0.0
 10
-2.430861757718359
 20
-6.417163278741308
 30
0.0
 10
-2.372113046671103
 20
-12.67860486793148
 30
0.0
 10
-2.161058301204016
 20
-15.57765771983736
 30
0.0
 10
-1.656437236676999
 20
-16.91092782474191
 30
0.0
 10
-1.221129618945955
 20
-17.79402002718204
 30
0.0
 10
-0.7165031113736905
 20
-18.60049000137381
 30
0.0
 10
-0.0298826972434399
 20
-19.24156870221397
 30
0.0
 10
0.7324919338584429
 20
-19.81608844402739
 30
0.0
 10
1.610228623993011
 20
-20.32430752298471
 30
0.0
 10
2.531399081591212
 20
-20.69327946124112
 30
0.0
 10
3.533299659927743
 20
-20.90320940070827
 30
0.0
 10
4.199259233879538
 20
-20.88893078127147
 30
0.0
 10
4.547045999999995
 20
-20.881474
 30
0.0
  0
LINE
  5
A9
330
1F
100
AcDbEntity
  8
0
  6
Continuous
 62
     7
370
    25
100
AcDbLine
 10
-2.436721
 20
20.168892
 30
0.0
 11
-2.436721
 21
2.884804
 31
0.0
  0
LINE
  5
AA
330
1F
100
AcDbEntity
  8
0
  6
Continuous
 62
     7
370
    25
100
AcDbLine
 10
1.273548
 20
20.168892
 30
0.0
 11
-2.436721
 21
20.168892
 31
0.0
  0
LINE
  5
AB
330
1F
100
AcDbEntity
  8
0
  6
Continuous
 62
     7
370
    25
100
AcDbLine
 10
1.273548
 20
12.707416
 30
0.0
 11
1.273548
 21
20.168892
 31
0.0
  0
LINE
  5
AC
330
1F
100
AcDbEntity
  8
0
  6
Continuous
 62
     7
370
    25
100
AcDbLine
 10
6.122475
 20
12.547402
 30
0.0
 11
1.273548
 21
12.707416
 31
0.0
  0
LINE
  5
AD
330
1F
100
AcDbEntity
  8
0
  6
Continuous
 62
     7
370
    25
100
AcDbLine
 10
6.122475
 20
8.840729
 30
0.0
 11
6.122475
 21
12.547402
 31
0.0
  0
LINE
  5
AE
330
1F
100
AcDbEntity
  8
0
  6
Continuous
 62
     7
370
    25
100
AcDbLine
 10
1.231115
 20
8.680085
 30
0.0
 11
6.122475
 21
8.840729
 31
0.0
  0
LINE
  5
AF
330
1F
100
AcDbEntity
  8
0
  6
Continuous
 62
     7
370
    25
100
AcDbLine
 10
1.325894
 20
-2.685653
 30
0.0
 11
1.231115
 21
8.680085
 31
0.0
  0
SPLINE
  5
B0
330
1F
100
AcDbEntity
  8
0
  6
Continuous
 62
     7
370
    25
100
AcDbSpline
210
0.0
220
0.0
230
1.0
 70
     8
 71
     3
 72
    19
 73
    15
 74
     0
 42
0.000000001
 43
0.00000001
 40
0.0
 40
0.0
 40
0.0
 40
0.0
 40
0.0241566224343126
 40
0.0485520050493865
 40
0.072020336656462
 40
0.0934177787570717
 40
0.1115173392004875
 40
0.1250984669074814
 40
0.1548059217998441
 40
0.193068859275991
 40
0.2315454523467376
 40
0.3201417153953009
 40
0.5444361892872881
 40
1.0
 40
1.0
 40
1.0
 40
1.0
 10
4.694180000000003
 20
-17.157069
 30
0.0
 10
4.566490682545598
 20
-17.13288556534472
 30
0.0
 10
4.309849986907909
 20
-17.0842796708457
 30
0.0
 10
3.935845270454025
 20
-16.98224993123521
 30
0.0
 10
3.581700129585224
 20
-16.86623941323622
 30
0.0
 10
3.267485230711312
 20
-16.73925848111064
 30
0.0
 10
3.010793304507919
 20
-16.61363725107464
 30
0.0
 10
2.735465426711817
 20
-16.42759105874664
 30
0.0
 10
2.462884615958485
 20
-16.07581232040062
 30
0.0
 10
2.144945528870799
 20
-15.60348644069493
 30
0.0
 10
1.699025149645408
 20
-14.82420181503515
 30
0.0
 10
1.477697083543916
 20
-12.90732601581755
 30
0.0
 10
1.386592911182637
 20
-8.803744562313211
 30
0.0
 10
1.350248138781092
 20
-5.140406274497029
 30
0.0
 10
1.325894000000005
 20
-2.685652999999998
 30
0.0
  0
LINE
  5
B1
330
1F
100
AcDbEntity
  8
0
  6
Continuous
 62
     7
370
    25
100
AcDbLine
 10
16.9366756066
 20
12.8714119542
 30
0.0
 11
16.9366756066
 21
8.8337981538
 31
0.0
  0
SPLINE
  5
B2
330
1F
100
AcDbEntity
  8
0
  6
Continuous
 62
     7
370
    25
100
AcDbSpline
210
0.0
220
0.0
230
1.0
 70
     8
 71
     3
 72
    36
 73
    32
 74
     0
 42
0.000000001
 43
0.00000001
 40
0.0
 40
0.0
 40
0.0
 40
0.0
 40
0.0051027949859579
 40
0.0111745886311287
 40
0.0151453929370851
 40
0.0358275064313558
 40
0.0546601759958165
 40
0.077724272062467
 40
0.1012907346366992
 40
0.1270586544142656
 40
0.1556436920015676
 40
0.1870706177463521
 40
0.2195512783497036
 40
0.2560614059286045
 40
0.3062026027457226
 40
0.3837103087333958
 40
0.4719608008209256
 40
0.5603477125823525
 40
0.6382056885739095
 40
0.6888141905044411
 40
0.7222784061192541
 40
0.755393709439936
 40
0.7813472107641998
 40
0.8046391664706621
 40
0.8308859392829511
 40
0.8549177950165207
 40
0.8782135974970847
 40
0.9015022150137983
 40
0.9213647624690844
 40
0.9428762976413166
 40
0.9491395964772098
 40
0.9491395964772098
 40
0.9491395964772098
 40
0.9491395964772098
 10
16.938571
 20
-20.928074
 30
0.0
 10
17.01070290572788
 20
-20.92873234251732
 30
0.0
 10
17.16866425355912
 20
-20.93017404394364
 30
0.0
 10
17.38264079694952
 20
-20.91951837214554
 30
0.0
 10
17.81649084669978
 20
-20.91632132278348
 30
0.0
 10
18.44060476518182
 20
-20.95366497063508
 30
0.0
 10
19.28089186523587
 20
-20.62028418344977
 30
0.0
 10
20.04761833493473
 20
-20.10047674257814
 30
0.0
 10
20.81866417080413
 20
-19.41981375500819
 30
0.0
 10
21.48813751702057
 20
-18.53773131942192
 30
0.0
 10
22.0840629451927
 20
-17.47921976615676
 30
0.0
 10
22.5923238353917
 20
-16.2705458485594
 30
0.0
 10
22.95970774662339
 20
-14.89585384766547
 30
0.0
 10
23.21749183804202
 20
-13.22868622757861
 30
0.0
 10
23.32345836721921
 20
-10.90857805279222
 30
0.0
 10
23.4120056065672
 20
-7.85892866709768
 30
0.0
 10
23.44385205267544
 20
-4.266402226178197
 30
0.0
 10
23.41169622759531
 20
-0.6687881411265858
 30
0.0
 10
23.3224515437626
 20
2.394001466160141
 30
0.0
 10
23.23581949635793
 20
4.683833930783464
 30
0.0
 10
22.98411024802629
 20
6.32397293805516
 30
0.0
 10
22.6976988321602
 20
7.599057671580532
 30
0.0
 10
22.36812164328708
 20
8.722149334397907
 30
0.0
 10
21.83611003371105
 20
9.654360177451387
 30
0.0
 10
21.22994230775584
 20
10.49953294955751
 30
0.0
 10
20.53571023294037
 20
11.27989484092098
 30
0.0
 10
19.74170873920551
 20
11.89221960737892
 30
0.0
 10
18.93720132081114
 20
12.37803335439962
 30
0.0
 10
18.08917992611035
 20
12.74060062858344
 30
0.0
 10
17.41661957899307
 20
12.82564020176832
 30
0.0
 10
17.02498051924569
 20
12.863530115468
 30
0.0
 10
16.93667560659368
 20
12.87141195415671
 30
0.0
  0
LINE
  5
B3
330
1F
100
AcDbEntity
  8
0
  6
Continuous
 62
     7
370
    25
100
AcDbLine
 10
16.9366756067
 20
-20.9280995009
 30
0.0
 11
16.938571
 21
-20.928074
 31
0.0
  0
LINE
  5
B4
330
1F
100
AcDbEntity
  8
0
  6
Continuous
 62
     7
370
    25
100
AcDbLine
 10
16.9366756067
 20
-17.3106040351
 30
0.0
 11
16.9366756067
 21
-20.9280995009
 31
0.0
  0
SPLINE
  5
B5
330
1F
100
AcDbEntity
  8
0
  6
Continuous
 62
     7
370
    25
100
AcDbSpline
210
0.0
220
0.0
230
1.0
 70
     8
 71
     3
 72
    31
 73
    27
 74
     0
 42
0.000000001
 43
0.00000001
 40
0.026843271666039
 40
0.026843271666039
 40
0.026843271666039
 40
0.026843271666039
 40
0.0346748079875085
 40
0.0448089459901755
 40
0.0578873119949389
 40
0.0711926668429498
 40
0.0814806556067652
 40
0.093196151330795
 40
0.1103562802776699
 40
0.1368585187926184
 40
0.1764423675481482
 40
0.2328304066250235
 40
0.2735039827311451
 40
0.310004327675366
 40
0.3415232003952036
 40
0.3672692698092349
 40
0.3864074315546443
 40
0.3980803045057473
 40
0.4133303828214003
 40
0.4285355231186009
 40
0.4403858019097332
 40
0.4502252498863846
 40
0.4601740365467164
 40
0.4681373532646246
 40
0.4760790082668598
 40
0.4768214214496192
 40
0.4768214214496192
 40
0.4768214214496192
 40
0.4768214214496192
 10
16.93667560659368
 20
8.8337981538
 30
0.0
 10
17.08821439503058
 20
8.775965322002115
 30
0.0
 10
17.42487070379209
 20
8.616558577029727
 30
0.0
 10
17.88076974803355
 20
8.15631073526893
 30
0.0
 10
18.33417754103258
 20
7.5584391461978
 30
0.0
 10
18.70755181930424
 20
6.900382346966123
 30
0.0
 10
18.98887383961597
 20
6.22879704474528
 30
0.0
 10
19.16557605036213
 20
5.439490686746051
 30
0.0
 10
19.26319268749421
 20
4.303837230551451
 30
0.0
 10
19.32825839964125
 20
2.593774683584793
 30
0.0
 10
19.3701033739212
 20
0.0761426681158071
 30
0.0
 10
19.40285491578264
 20
-2.73272624101007
 30
0.0
 10
19.4238778522141
 20
-5.478406741455287
 30
0.0
 10
19.41962082087189
 20
-7.712927500319045
 30
0.0
 10
19.39715530806726
 20
-9.640393021030215
 30
0.0
 10
19.35522516980977
 20
-11.2107259350529
 30
0.0
 10
19.3018262067676
 20
-12.37194107429406
 30
0.0
 10
19.21274028966537
 20
-13.31629006743274
 30
0.0
 10
19.00270412905829
 20
-14.15912791939617
 30
0.0
 10
18.76166724767901
 20
-14.99352096717917
 30
0.0
 10
18.50996220304598
 20
-15.71240920060345
 30
0.0
 10
18.1721709764515
 20
-16.27250696373607
 30
0.0
 10
17.81930825917835
 20
-16.72059217798775
 30
0.0
 10
17.43146995225425
 20
-17.09363744021854
 30
0.0
 10
17.11676210150439
 20
-17.23725133961074
 30
0.0
 10
16.95087108959653
 20
-17.3048759330481
 30
0.0
 10
16.93667560667116
 20
-17.31060403514249
 30
0.0
  0
LINE
  5
B6
330
1F
100
AcDbEntity
  8
0
  6
Continuous
 62
     7
370
    25
100
AcDbLine
 10
66.720352
 20
2.468552
 30
0.0
 11
68.452826
 21
2.384746
 31
0.0
  0
LINE
  5
B7
330
1F
100
AcDbEntity
  8
0
  6
Continuous
 62
     7
370
    25
100
AcDbLine
 10
66.415935
 20
4.590722
 30
0.0
 11
66.720352
 21
2.468552
 31
0.0
  0
SPLINE
  5
B8
330
1F
100
AcDbEntity
  8
0
  6
Continuous
 62
     7
370
    25
100
AcDbSpline
210
0.0
220
0.0
230
1.0
 70
     8
 71
     3
 72
    31
 73
    27
 74
     0
 42
0.000000001
 43
0.00000001
 40
0.0
 40
0.0
 40
0.0
 40
0.0
 40
0.1254564782797737
 40
0.2358334301183942
 40
0.3288925383050638
 40
0.3682281658981851
 40
0.4023930728600047
 40
0.4311087377794076
 40
0.4541338489792321
 40
0.4711036111255225
 40
0.4815768642253406
 40
0.5130646984932944
 40
0.5484433429422273
 40
0.5802661934936608
 40
0.611679818774438
 40
0.6428613904336582
 40
0.6718896974097708
 40
0.7012011252918101
 40
0.7330320088663109
 40
0.7642517819294179
 40
0.7952524416238987
 40
0.827002850657466
 40
0.8570633553735001
 40
0.8936011323718942
 40
0.9449681746199183
 40
1.0
 40
1.0
 40
1.0
 40
1.0
 10
59.18456
 20
-4.076125000000003
 30
0.0
 10
59.18620940433776
 20
-3.171571162127354
 30
0.0
 10
59.18930995911149
 20
-1.471188390051273
 30
0.0
 10
59.21609488657683
 20
0.9000341883074839
 30
0.0
 10
59.25184142801485
 20
2.650114708495909
 30
0.0
 10
59.28970452787893
 20
3.85044034583823
 30
0.0
 10
59.32003492985154
 20
4.586814482621508
 30
0.0
 10
59.35282886147462
 20
5.20535639682381
 30
0.0
 10
59.38962507354576
 20
5.69945626217222
 30
0.0
 10
59.42532558196664
 20
6.061584342617069
 30
0.0
 10
59.49813536472676
 20
6.481249900994713
 30
0.0
 10
59.72831785284119
 20
6.996025572741996
 30
0.0
 10
60.066902635062
 20
7.620104138344184
 30
0.0
 10
60.48022193957839
 20
8.204438528093457
 30
0.0
 10
60.99690845862656
 20
8.656697717437844
 30
0.0
 10
61.5730112714889
 20
8.987911645352726
 30
0.0
 10
62.19606497837806
 20
9.183264454065295
 30
0.0
 10
62.85191496809646
 20
9.198755292350443
 30
0.0
 10
63.51317536562204
 20
9.109228573287853
 30
0.0
 10
64.16858780168354
 20
8.917753555239797
 30
0.0
 10
64.76107120571592
 20
8.576234800553427
 30
0.0
 10
65.26219726813743
 20
8.127394940228157
 30
0.0
 10
65.68842240038906
 20
7.549374717484276
 30
0.0
 10
65.9543748267902
 20
6.733342746989819
 30
0.0
 10
66.22156325990198
 20
5.739590917448376
 30
0.0
 10
66.34967355082593
 20
4.982372140821831
 30
0.0
 10
66.41593499999999
 20
4.590722
 30
0.0
  0
SPLINE
  5
B9
330
1F
100
AcDbEntity
  8
0
  6
Continuous
 62
     7
370
    25
100
AcDbSpline
210
0.0
220
0.0
230
1.0
 70
     8
 71
     3
 72
    34
 73
    30
 74
     0
 42
0.000000001
 43
0.00000001
 40
0.0
 40
0.0
 40
0.0
 40
0.0
 40
0.0297242356076567
 40
0.0679284814812215
 40
0.1062613904220896
 40
0.1478919925749506
 40
0.1852561921309756
 40
0.222345095540439
 40
0.2435919113866082
 40
0.2606685282374662
 40
0.2756586312537546
 40
0.2910440764925417
 40
0.3092520570289207
 40
0.332292189969435
 40
0.354865311730467
 40
0.3728646184804959
 40
0.3879936113615971
 40
0.4023033469318739
 40
0.4179482809420819
 40
0.4367847266977631
 40
0.4684396484052447
 40
0.5046505341856238
 40
0.5385772308542693
 40
0.5664726929575384
 40
0.6151179319264524
 40
0.6835737787046425
 40
0.7709959746739433
 40
0.8767178794474418
 40
1.0
 40
1.0
 40
1.0
 40
1.0
 10
66.55611200000001
 20
-11.861428
 30
0.0
 10
66.5448480910061
 20
-12.08911396861829
 30
0.0
 10
66.51910679882968
 20
-12.60944230630773
 30
0.0
 10
66.40463176827568
 20
-13.41683906643668
 30
0.0
 10
66.25325422607268
 20
-14.30995357697737
 30
0.0
 10
66.01350334973523
 20
-15.18063857174577
 30
0.0
 10
65.60949711690823
 20
-15.98238516152187
 30
0.0
 10
65.13130958092749
 20
-16.54545230110654
 30
0.0
 10
64.7122766220456
 20
-16.94365812232434
 30
0.0
 10
64.3923538545016
 20
-17.20002581011278
 30
0.0
 10
64.06838959587883
 20
-17.37168011628808
 30
0.0
 10
63.7060658482292
 20
-17.46837991528871
 30
0.0
 10
63.27290004377438
 20
-17.50986015454729
 30
0.0
 10
62.78356687822506
 20
-17.51641081368824
 30
0.0
 10
62.2958162394972
 20
-17.50950617803562
 30
0.0
 10
61.86984912208131
 20
-17.46918171870741
 30
0.0
 10
61.51507922847859
 20
-17.38032708847835
 30
0.0
 10
61.20246579204617
 20
-17.22673156711938
 30
0.0
 10
60.90479830816357
 20
-16.99819922649731
 30
0.0
 10
60.531728057738
 20
-16.65369074752596
 30
0.0
 10
60.12540866744515
 20
-16.12157044656934
 30
0.0
 10
59.75668122939754
 20
-15.43333445303619
 30
0.0
 10
59.47438647925386
 20
-14.72908735424975
 30
0.0
 10
59.38342383600378
 20
-13.88260559865152
 30
0.0
 10
59.31166529533384
 20
-12.77505163459375
 30
0.0
 10
59.25542950436305
 20
-11.20721007323307
 30
0.0
 10
59.21395132644724
 20
-9.202498623783079
 30
0.0
 10
59.18839514633725
 20
-6.776740817485885
 30
0.0
 10
59.18590210492982
 20
-5.021202314769453
 30
0.0
 10
59.18456
 20
-4.076125000000003
 30
0.0
  0
LINE
  5
BA
330
1F
100
AcDbEntity
  8
0
  6
Continuous
 62
     7
370
    25
100
AcDbLine
 10
66.556112
 20
-10.836332
 30
0.0
 11
66.556112
 21
-11.861428
 31
0.0
  0
LINE
  5
BB
330
1F
100
AcDbEntity
  8
0
  6
Continuous
 62
     7
370
    25
100
AcDbLine
 10
70.407385
 20
-11.005
 30
0.0
 11
66.556112
 21
-10.836332
 31
0.0
  0
LINE
  5
BC
330
1F
100
AcDbEntity
  8
0
  6
Continuous
 62
     7
370
    25
100
AcDbLine
 10
70.304371
 20
-13.137304
 30
0.0
 11
70.407385
 21
-11.005
 31
0.0
  0
SPLINE
  5
BD
330
1F
100
AcDbEntity
  8
0
  6
Continuous
 62
     7
370
    25
100
AcDbSpline
210
0.0
220
0.0
230
1.0
 70
     8
 71
     3
 72
    19
 73
    15
 74
     0
 42
0.000000001
 43
0.00000001
 40
0.0
 40
0.0
 40
0.0
 40
0.0
 40
0.0614109886366936
 40
0.1257827475805048
 40
0.1811536518778318
 40
0.2397728962108846
 40
0.3124269974065754
 40
0.3847937026557083
 40
0.4663255441883281
 40
0.5626093598588213
 40
0.6543479148429692
 40
0.7567456132590578
 40
0.8801060601058308
 40
1.0
 40
1.0
 40
1.0
 40
1.0
 10
64.7527
 20
-20.928305
 30
0.0
 10
64.96850328648266
 20
-20.91917869207455
 30
0.0
 10
65.41051425086029
 20
-20.90048607514046
 30
0.0
 10
66.03377548877594
 20
-20.76465240252044
 30
0.0
 10
66.63092266093027
 20
-20.56007634314335
 30
0.0
 10
67.16955390698845
 20
-20.17710319259035
 30
0.0
 10
67.71424942333833
 20
-19.7158372294273
 30
0.0
 10
68.2828794783765
 20
-19.15556602781869
 30
0.0
 10
68.79138523334893
 20
-18.43493758958031
 30
0.0
 10
69.25742478537755
 20
-17.61123598977877
 30
0.0
 10
69.69114761114726
 20
-16.68448143730851
 30
0.0
 10
69.97408143005666
 20
-15.60240783192548
 30
0.0
 10
70.19856899716379
 20
-14.40871946856978
 30
0.0
 10
70.26944031730552
 20
-13.55706363701022
 30
0.0
 10
70.304371
 20
-13.137304
 30
0.0
  0
LINE
  5
BE
330
1F
100
AcDbEntity
  8
0
  6
Continuous
 62
     7
370
    25
100
AcDbLine
 10
61.438763
 20
-20.926048
 30
0.0
 11
64.7527
 21
-20.928305
 31
0.0
  0
SPLINE
  5
BF
330
1F
100
AcDbEntity
  8
0
  6
Continuous
 62
     7
370
    25
100
AcDbSpline
210
0.0
220
0.0
230
1.0
 70
     8
 71
     3
 72
    40
 73
    36
 74
     0
 42
0.000000001
 43
0.00000001
 40
0.0
 40
0.0
 40
0.0
 40
0.0
 40
0.0323116088024604
 40
0.0578673164342006
 40
0.081261483055922
 40
0.1019949731526783
 40
0.125474061019185
 40
0.1470815981080807
 40
0.1694301444437348
 40
0.1948172481504134
 40
0.2181555383125183
 40
0.2353195100809048
 40
0.25708191454085
 40
0.2886055036451268
 40
0.3350050509645907
 40
0.4013632285664807
 40
0.4927098619057624
 40
0.5642426281356461
 40
0.626511738630155
 40
0.6788642343140874
 40
0.72062898501125
 40
0.7512118934840286
 40
0.7701064181469366
 40
0.795464886327073
 40
0.8237317542857482
 40
0.8490559981630339
 40
0.874027100329492
 40
0.898529196103355
 40
0.9209363637145712
 40
0.9435365526861196
 40
0.9625380210423626
 40
0.9837694301141796
 40
0.9901934702678296
 40
0.9956639085558783
 40
1.0
 40
1.0
 40
1.0
 40
1.0
 10
62.764184
 20
12.964786
 30
0.0
 10
62.31665244688704
 20
12.95886747845851
 30
0.0
 10
61.51516186941057
 20
12.94826791466217
 30
0.0
 10
60.40002640796018
 20
12.76419203167772
 30
0.0
 10
59.4898978967793
 20
12.42426199627907
 30
0.0
 10
58.69211460460107
 20
11.92854281697353
 30
0.0
 10
57.97628850523937
 20
11.36432637094295
 30
0.0
 10
57.29941089787992
 20
10.7157836560688
 30
0.0
 10
56.75064630495928
 20
9.923295114722274
 30
0.0
 10
56.26425389776858
 20
9.068256822799523
 30
0.0
 10
55.88644331601386
 20
8.235370892742257
 30
0.0
 10
55.64494653417708
 20
7.405673374133032
 30
0.0
 10
55.50138407095692
 20
6.439247583077515
 30
0.0
 10
55.40758479989868
 20
5.062511579258874
 30
0.0
 10
55.34246185695613
 20
3.066735407797515
 30
0.0
 10
55.29497359275049
 20
0.2426228680867492
 30
0.0
 10
55.25895602474657
 20
-2.929489619293432
 30
0.0
 10
55.23448518276419
 20
-6.045114570274915
 30
0.0
 10
55.2348023752578
 20
-8.621277068846615
 30
0.0
 10
55.25533926071401
 20
-10.78527819311016
 30
0.0
 10
55.29582072572769
 20
-12.51080574193784
 30
0.0
 10
55.35167175864614
 20
-13.77175120879191
 30
0.0
 10
55.44675321142875
 20
-14.80529701685166
 30
0.0
 10
55.71035862705766
 20
-15.77752776873695
 30
0.0
 10
56.04908557017671
 20
-16.81536673498564
 30
0.0
 10
56.45512188477102
 20
-17.82681896835035
 30
0.0
 10
56.98292998629051
 20
-18.72141278550035
 30
0.0
 10
57.60341268303843
 20
-19.5044793892487
 30
0.0
 10
58.32524336707463
 20
-20.14596962491733
 30
0.0
 10
59.07375961500485
 20
-20.62963717038243
 30
0.0
 10
59.90882383674466
 20
-20.91421570685138
 30
0.0
 10
60.56052703725435
 20
-20.9206727154811
 30
0.0
 10
61.01854619977589
 20
-20.9169308192468
 30
0.0
 10
61.24303364873037
 20
-20.92854159411615
 30
0.0
 10
61.37875288201519
 20
-20.92681252957181
 30
0.0
 10
61.43876299999999
 20
-20.926048
 30
0.0
  0
SPLINE
  5
C0
330
1F
100
AcDbEntity
  8
0
  6
Continuous
 62
     7
370
    25
100
AcDbSpline
210
0.0
220
0.0
230
1.0
 70
     8
 71
     3
 72
    37
 73
    33
 74
     0
 42
0.000000001
 43
0.00000001
 40
0.0
 40
0.0
 40
0.0
 40
0.0
 40
0.0351216120699882
 40
0.0624135054302624
 40
0.0831038719477269
 40
0.0914369996384329
 40
0.0987207862332462
 40
0.1052178162071522
 40
0.1112165163997322
 40
0.1169720893361787
 40
0.1227151650191882
 40
0.1281789739490534
 40
0.135299764673398
 40
0.144223811639578
 40
0.1549232192255193
 40
0.1671939728927136
 40
0.1808650041038821
 40
0.2116922345229318
 40
0.245925745253963
 40
0.2820709130732866
 40
0.3576778686123037
 40
0.4282639743617929
 40
0.4793433805050575
 40
0.5220654379509045
 40
0.5711660380414727
 40
0.6165238292071692
 40
0.6656835945760968
 40
0.7246602466645277
 40
0.7820736559354872
 40
0.8503640378230627
 40
0.9157962608977104
 40
1.0
 40
1.0
 40
1.0
 40
1.0
 10
68.45282599999999
 20
2.384746
 30
0.0
 10
68.647507005396
 20
2.376376700526733
 30
0.0
 10
68.99346845964928
 20
2.36150388326876
 30
0.0
 10
69.45458441127842
 20
2.364625096560478
 30
0.0
 10
69.76668949423588
 20
2.392577075531667
 30
0.0
 10
69.96357683237443
 20
2.436524132527716
 30
0.0
 10
70.07969085801051
 20
2.477225128828257
 30
0.0
 10
70.1768740320048
 20
2.529350368924239
 30
0.0
 10
70.25555649297324
 20
2.594339735584961
 30
0.0
 10
70.31547316740466
 20
2.671502042353399
 30
0.0
 10
70.3583088296663
 20
2.756160899278442
 30
0.0
 10
70.38245345657505
 20
2.855512917467651
 30
0.0
 10
70.39513390350609
 20
2.974260821552277
 30
0.0
 10
70.40315939032773
 20
3.122429048734408
 30
0.0
 10
70.4070197145991
 20
3.299339581023007
 30
0.0
 10
70.40583368175395
 20
3.502612617499566
 30
0.0
 10
70.39779511842256
 20
3.817437070472118
 30
0.0
 10
70.37520343947112
 20
4.25367110179999
 30
0.0
 10
70.33177288674156
 20
4.81345401690023
 30
0.0
 10
70.25101139197285
 20
5.619276472856321
 30
0.0
 10
70.10251828541867
 20
6.620842501255786
 30
0.0
 10
69.88324200415173
 20
7.692183580492093
 30
0.0
 10
69.6415881883821
 20
8.576035142473215
 30
0.0
 10
69.27543621375956
 20
9.282795829517578
 30
0.0
 10
68.88924637331695
 20
9.93714501800603
 30
0.0
 10
68.45447628218865
 20
10.60843739774459
 30
0.0
 10
67.84818116557598
 20
11.213511330275
 30
0.0
 10
67.11825378644916
 20
11.77379289923015
 30
0.0
 10
66.23759196354315
 20
12.30053865251873
 30
0.0
 10
65.25897449917004
 20
12.72504073196926
 30
0.0
 10
64.06325152042908
 20
12.95612596491244
 30
0.0
 10
63.23196745151857
 20
12.96166759311212
 30
0.0
 10
62.764184
 20
12.964786
 30
0.0
  0
LINE
  5
C1
330
1F
100
AcDbEntity
  8
0
  6
Continuous
 62
     7
370
    25
100
AcDbLine
 10
52.309245
 20
-2.514502
 30
0.0
 11
52.206858
 21
2.237319
 31
0.0
  0
LINE
  5
C2
330
1F
100
AcDbEntity
  8
0
  6
Continuous
 62
     7
370
    25
100
AcDbLine
 10
46.0403304366
 20
-5.5850995339
 30
0.0
 11
52.309245
 21
-2.514502
 31
0.0
  0
LINE
  5
C3
330
1F
100
AcDbEntity
  8
0
  6
Continuous
 62
     7
370
    25
100
AcDbLine
 10
46.0403304366
 20
-1.0531477235
 30
0.0
 11
46.0403304366
 21
-5.5850995339
 31
0.0
  0
LINE
  5
C4
330
1F
100
AcDbEntity
  8
0
  6
Continuous
 62
     7
370
    25
100
AcDbLine
 10
48.545852
 20
0.20209
 30
0.0
 11
46.0403304366
 21
-1.0531477235
 31
0.0
  0
LINE
  5
C5
330
1F
100
AcDbEntity
  8
0
  6
Continuous
 62
     7
370
    25
100
AcDbLine
 10
48.540546
 20
1.482823
 30
0.0
 11
48.545852
 21
0.20209
 31
0.0
  0
SPLINE
  5
C6
330
1F
100
AcDbEntity
  8
0
  6
Continuous
 62
     7
370
    25
100
AcDbSpline
210
0.0
220
0.0
230
1.0
 70
     8
 71
     3
 72
    18
 73
    14
 74
     0
 42
0.000000001
 43
0.00000001
 40
0.1687911773669311
 40
0.1687911773669311
 40
0.1687911773669311
 40
0.1687911773669311
 40
0.1692279277988709
 40
0.2193153450495367
 40
0.2702081217082488
 40
0.3357636463439748
 40
0.4021194738338049
 40
0.4826515772699567
 40
0.5860345977343666
 40
0.689879934680682
 40
0.797024190287743
 40
0.9084803112036732
 40
1.0
 40
1.0
 40
1.0
 40
1.0
 10
46.0403304366
 20
8.8269042602
 30
0.0
 10
46.04165204842504
 20
8.826365941621452
 30
0.0
 10
46.19452826328055
 20
8.764041899264482
 30
0.0
 10
46.49896246583879
 20
8.627243185367497
 30
0.0
 10
46.88945381290915
 20
8.241001695409842
 30
0.0
 10
47.25046102068912
 20
7.769331024437841
 30
0.0
 10
47.60735756439541
 20
7.172885049595634
 30
0.0
 10
47.86811013752428
 20
6.39776914623849
 30
0.0
 10
48.11019415664298
 20
5.494035334672536
 30
0.0
 10
48.30369106107727
 20
4.488363280976231
 30
0.0
 10
48.41769807325759
 20
3.445374390236014
 30
0.0
 10
48.50968119493309
 20
2.440461240473622
 30
0.0
 10
48.53095421551166
 20
1.780426033633647
 30
0.0
 10
48.54054600000002
 20
1.482823
 30
0.0
  0
LINE
  5
C7
330
1F
100
AcDbEntity
  8
0
  6
Continuous
 62
     7
370
    25
100
AcDbLine
 10
46.0403304366
 20
12.8826669074
 30
0.0
 11
46.0403304366
 21
8.8269042602
 31
0.0
  0
SPLINE
  5
C8
330
1F
100
AcDbEntity
  8
0
  6
Continuous
 62
     7
370
    25
100
AcDbSpline
210
0.0
220
0.0
230
1.0
 70
     8
 71
     3
 72
    21
 73
    17
 74
     0
 42
0.000000001
 43
0.00000001
 40
0.0
 40
0.0
 40
0.0
 40
0.0
 40
0.1316228626368259
 40
0.2260770889732583
 40
0.2941615024851021
 40
0.3469225845644489
 40
0.3955922007411613
 40
0.4511087521598069
 40
0.5276486966244269
 40
0.6027258417133543
 40
0.661588615191071
 40
0.7153088134725802
 40
0.7770305403616107
 40
0.8343929577177704
 40
0.8849902528962528
 40
0.9317004206741824
 40
0.9317004206741824
 40
0.9317004206741824
 40
0.9317004206741824
 10
52.20685800004333
 20
2.237318999999999
 30
0.0
 10
52.19291614048742
 20
2.879465390699914
 30
0.0
 10
52.16896942667093
 20
3.98242413051009
 30
0.0
 10
52.11627451874125
 20
5.417057057625381
 30
0.0
 10
52.03090104299488
 20
6.464877508488448
 30
0.0
 10
51.87908670329082
 20
7.280751885075288
 30
0.0
 10
51.62526105025997
 20
8.005393284014696
 30
0.0
 10
51.2692163280672
 20
8.812461191401558
 30
0.0
 10
50.7966429664566
 20
9.70825760944066
 30
0.0
 10
50.22722127780442
 20
10.56320904451188
 30
0.0
 10
49.63677608556692
 20
11.27290482840301
 30
0.0
 10
48.93349641255272
 20
11.76125812922889
 30
0.0
 10
48.20869757301763
 20
12.19090131124418
 30
0.0
 10
47.45849377083369
 20
12.54733873509144
 30
0.0
 10
46.73539418765139
 20
12.77127200364482
 30
0.0
 10
46.26664362056427
 20
12.85495683282449
 30
0.0
 10
46.0403304366
 20
12.88266690736465
 30
0.0
  0
LINE
  5
C9
330
1F
100
AcDbEntity
  8
0
  6
Continuous
 62
     7
370
    25
100
AcDbLine
 10
30.334167
 20
8.70056
 30
0.0
 11
32.651387
 21
8.70056
 31
0.0
  0
LINE
  5
CA
330
1F
100
AcDbEntity
  8
0
  6
Continuous
 62
     7
370
    25
100
AcDbLine
 10
30.424515
 20
-2.813158
 30
0.0
 11
30.334167
 21
8.70056
 31
0.0
  0
SPLINE
  5
CB
330
1F
100
AcDbEntity
  8
0
  6
Continuous
 62
     7
370
    25
100
AcDbSpline
210
0.0
220
0.0
230
1.0
 70
     8
 71
     3
 72
    22
 73
    18
 74
     0
 42
0.000000001
 43
0.00000001
 40
0.0
 40
0.0
 40
0.0
 40
0.0
 40
0.0488158941887994
 40
0.0946181246815551
 40
0.1304484231967004
 40
0.1630999292100231
 40
0.1991110425408263
 40
0.230695251994575
 40
0.2425187995140204
 40
0.2634341977596692
 40
0.293323922422493
 40
0.3322451336194044
 40
0.3805213776611212
 40
0.4383820835633728
 40
0.583790503800218
 40
0.7703679072365907
 40
1.0
 40
1.0
 40
1.0
 40
1.0
 10
33.6938
 20
-17.131525
 30
0.0
 10
33.43756863545346
 20
-17.08379153564421
 30
0.0
 10
32.94092442559381
 20
-16.99127144650211
 30
0.0
 10
32.2885974845149
 20
-16.74242326293887
 30
0.0
 10
31.75977572247265
 20
-16.42465630383383
 30
0.0
 10
31.39787398004074
 20
-15.99338494244613
 30
0.0
 10
31.0917230602939
 20
-15.5599532221624
 30
0.0
 10
30.85569837343364
 20
-15.19981319935644
 30
0.0
 10
30.77125001288691
 20
-14.86573834655084
 30
0.0
 10
30.72774007878328
 20
-14.53473450348788
 30
0.0
 10
30.68123567591945
 20
-14.05875934742724
 30
0.0
 10
30.64097116207276
 20
-13.43601806964347
 30
0.0
 10
30.60257529193759
 20
-12.66393503732705
 30
0.0
 10
30.55242907660424
 20
-11.32433193513273
 30
0.0
 10
30.50162638402947
 20
-9.247362602666346
 30
0.0
 10
30.45490020304116
 20
-6.254787407252238
 30
0.0
 10
30.4353186055321
 20
-4.036845939595458
 30
0.0
 10
30.424515
 20
-2.813158000000001
 30
0.0
  0
LINE
  5
CC
330
1F
100
AcDbEntity
  8
0
  6
Continuous
 62
     7
370
    25
100
AcDbLine
 10
35.077121
 20
-17.314969
 30
0.0
 11
33.6938
 21
-17.131525
 31
0.0
  0
LINE
  5
CD
330
1F
100
AcDbEntity
  8
0
  6
Continuous
 62
     7
370
    25
100
AcDbLine
 10
35.077121
 20
-20.947968
 30
0.0
 11
35.077121
 21
-17.314969
 31
0.0
  0
LINE
  5
CE
330
1F
100
AcDbEntity
  8
0
  6
Continuous
 62
     7
370
    25
100
AcDbLine
 10
33.567342
 20
-20.918625
 30
0.0
 11
35.077121
 21
-20.947968
 31
0.0
  0
SPLINE
  5
CF
330
1F
100
AcDbEntity
  8
0
  6
Continuous
 62
     7
370
    25
100
AcDbSpline
210
0.0
220
0.0
230
1.0
 70
     8
 71
     3
 72
    19
 73
    15
 74
     0
 42
0.000000001
 43
0.00000001
 40
0.0
 40
0.0
 40
0.0
 40
0.0
 40
0.4118941623492647
 40
0.6101368486817247
 40
0.6883219664967644
 40
0.7276806200899396
 40
0.7657483751870707
 40
0.8094039292224422
 40
0.847223361633791
 40
0.8832815854662501
 40
0.910650472614011
 40
0.9364287784690009
 40
0.9683860622261504
 40
1.0
 40
1.0
 40
1.0
 40
1.0
 10
26.65662500000001
 20
2.709171999999999
 30
0.0
 10
26.6617114261474
 20
-1.073016881551261
 30
0.0
 10
26.66924592482279
 20
-6.675555145621081
 30
0.0
 10
26.71121281120888
 20
-12.97455432463743
 30
0.0
 10
26.94045144728689
 20
-15.88858056992394
 30
0.0
 10
27.45133534182743
 20
-17.23468853285892
 30
0.0
 10
28.05115464485544
 20
-18.17775239223414
 30
0.0
 10
28.80410165384783
 20
-18.98154186899385
 30
0.0
 10
29.62178213757677
 20
-19.68731407474753
 30
0.0
 10
30.38107193719802
 20
-20.22234575559922
 30
0.0
 10
31.11047097839419
 20
-20.61257014186204
 30
0.0
 10
31.88396988633994
 20
-20.75652058521353
 30
0.0
 10
32.69410048736879
 20
-20.87658307388878
 30
0.0
 10
33.27731146327053
 20
-20.90466157496947
 30
0.0
 10
33.567342
 20
-20.918625
 30
0.0
  0
LINE
  5
D0
330
1F
100
AcDbEntity
  8
0
  6
Continuous
 62
     7
370
    25
100
AcDbLine
 10
26.656625
 20
20.168892
 30
0.0
 11
26.656625
 21
2.709172
 31
0.0
  0
LINE
  5
D1
330
1F
100
AcDbEntity
  8
0
  6
Continuous
 62
     7
370
    25
100
AcDbLine
 10
30.366885
 20
20.168892
 30
0.0
 11
26.656625
 21
20.168892
 31
0.0
  0
LINE
  5
D2
330
1F
100
AcDbEntity
  8
0
  6
Continuous
 62
     7
370
    25
100
AcDbLine
 10
30.366885
 20
12.687785
 30
0.0
 11
30.366885
 21
20.168892
 31
0.0
  0
LINE
  5
D3
330
1F
100
AcDbEntity
  8
0
  6
Continuous
 62
     7
370
    25
100
AcDbLine
 10
32.495394
 20
12.687785
 30
0.0
 11
30.366885
 21
12.687785
 31
0.0
  0
SPLINE
  5
D4
330
1F
100
AcDbEntity
  8
0
  6
Continuous
 62
     7
370
    25
100
AcDbSpline
210
0.0
220
0.0
230
1.0
 70
     8
 71
     3
 72
    34
 73
    30
 74
     0
 42
0.000000001
 43
0.00000001
 40
0.0
 40
0.0
 40
0.0
 40
0.0
 40
0.0916348571774064
 40
0.1644266521969567
 40
0.2198023231522128
 40
0.2414725854642567
 40
0.2595338048802894
 40
0.2744262106921676
 40
0.2869675175137619
 40
0.2978287700949814
 40
0.3079141545244155
 40
0.3495993297767848
 40
0.4180601543097606
 40
0.498792034860925
 40
0.5400993770763313
 40
0.5802004659522498
 40
0.6173947841950256
 40
0.6498775885017634
 40
0.6763957896872144
 40
0.6964636127624666
 40
0.7075631060719592
 40
0.7202968681238728
 40
0.7353019356711802
 40
0.7529160600355418
 40
0.7733551457962006
 40
0.7967309548273845
 40
0.8524815711555771
 40
0.9202626447056944
 40
1.0
 40
1.0
 40
1.0
 40
1.0
 10
32.651387
 20
8.70056
 30
0.0
 10
32.90705390966994
 20
8.701716224016346
 30
0.0
 10
33.36581442209356
 20
8.703790915351645
 30
0.0
 10
33.9786730560394
 20
8.727677379315304
 30
0.0
 10
34.39549717179312
 20
8.764467259121135
 30
0.0
 10
34.65743852048238
 20
8.808027896617755
 30
0.0
 10
34.80559694764897
 20
8.84412489800203
 30
0.0
 10
34.92560351387463
 20
8.887297060808212
 30
0.0
 10
35.01801932410352
 20
8.941470795829483
 30
0.0
 10
35.08573627907218
 20
9.010576558487179
 30
0.0
 10
35.12983159996922
 20
9.183600459358447
 30
0.0
 10
35.12035698065026
 20
9.519646890027202
 30
0.0
 10
35.15814098181061
 20
10.05109304798961
 30
0.0
 10
35.17714918828561
 20
10.58224087390548
 30
0.0
 10
35.1840466478321
 20
11.03464930350025
 30
0.0
 10
35.16920788228479
 20
11.36544771873847
 30
0.0
 10
35.14015927950109
 20
11.67031378321366
 30
0.0
 10
35.10066629255778
 20
11.9363386701308
 30
0.0
 10
35.04916381121979
 20
12.15024086610877
 30
0.0
 10
34.98799077838634
 20
12.30270386963165
 30
0.0
 10
34.90073469560264
 20
12.39139669630369
 30
0.0
 10
34.80614830281435
 20
12.44582585580992
 30
0.0
 10
34.68842794624582
 20
12.49272890605433
 30
0.0
 10
34.54615554190158
 20
12.53426638324332
 30
0.0
 10
34.37852554510112
 20
12.57039391877931
 30
0.0
 10
34.10421237854217
 20
12.6147193112221
 30
0.0
 10
33.69601490064527
 20
12.65492425083963
 30
0.0
 10
33.12945999051239
 20
12.68325697810309
 30
0.0
 10
32.71786906419753
 20
12.68619625059966
 30
0.0
 10
32.495394
 20
12.687785
 30
0.0
  0
LINE
  5
D5
330
1F
100
AcDbEntity
  8
0
  6
Continuous
 62
     7
370
    25
100
AcDbLine
 10
88.311123
 20
5.837721
 30
0.0
 11
88.302478
 21
6.440604
 31
0.0
  0
LINE
  5
D6
330
1F
100
AcDbEntity
  8
0
  6
Continuous
 62
     7
370
    25
100
AcDbLine
 10
88.309542
 20
-20.585092
 30
0.0
 11
88.311123
 21
5.837721
 31
0.0
  0
SPLINE
  5
D7
330
1F
100
AcDbEntity
  8
0
  6
Continuous
 62
     7
370
    25
100
AcDbSpline
210
0.0
220
0.0
230
1.0
 70
     8
 71
     3
 72
    10
 73
     6
 74
     0
 42
0.000000001
 43
0.00000001
 40
0.0
 40
0.0
 40
0.0
 40
0.0
 40
0.393583620921421
 40
0.638205563091764
 40
1.0
 40
1.0
 40
1.0
 40
1.0
 10
87.773345
 20
-20.984925
 30
0.0
 10
87.87826049087705
 20
-20.99501869732894
 30
0.0
 10
88.048383550814
 20
-21.01138587686862
 30
0.0
 10
88.28244439896373
 20
-20.84937796925932
 30
0.0
 10
88.29941635262382
 20
-20.68384858467363
 30
0.0
 10
88.309542
 20
-20.585092
 30
0.0
  0
SPLINE
  5
D8
330
1F
100
AcDbEntity
  8
0
  6
Continuous
 62
     7
370
    25
100
AcDbSpline
210
0.0
220
0.0
230
1.0
 70
     8
 71
     3
 72
    34
 73
    30
 74
     0
 42
0.000000001
 43
0.00000001
 40
0.0
 40
0.0
 40
0.0
 40
0.0
 40
0.1003530279966684
 40
0.2087998520846616
 40
0.3089193398028072
 40
0.373811956997037
 40
0.4210462645639528
 40
0.4466616689052598
 40
0.44975108055787
 40
0.4519962524751862
 40
0.4537135434440603
 40
0.4553434185887479
 40
0.457336747714654
 40
0.4600175306046687
 40
0.4680064593982187
 40
0.4794628056005591
 40
0.4941932367229576
 40
0.5098100449509693
 40
0.5248827202310904
 40
0.5400920877626876
 40
0.5562372669709229
 40
0.5742268534250023
 40
0.5949382694484867
 40
0.6477968606552563
 40
0.7189025391988574
 40
0.8111860141447129
 40
0.8490770554597097
 40
0.9289253380845929
 40
1.0
 40
1.0
 40
1.0
 40
1.0
 10
82.62444400000004
 20
-20.934893
 30
0.0
 10
82.81496125490837
 20
-20.92746910146131
 30
0.0
 10
83.2113615971657
 20
-20.91202254296959
 30
0.0
 10
83.78903695944459
 20
-20.7955529703854
 30
0.0
 10
84.27834124528522
 20
-20.61669107765683
 30
0.0
 10
84.63095412273861
 20
-20.41650147402177
 30
0.0
 10
84.8624880255554
 20
-20.30515568381363
 30
0.0
 10
84.99748095952835
 20
-20.23733786402683
 30
0.0
 10
85.05649576503305
 20
-20.24048206919763
 30
0.0
 10
85.06962073523249
 20
-20.24357185629416
 30
0.0
 10
85.07915779417186
 20
-20.24843051299219
 30
0.0
 10
85.0870235639621
 20
-20.25496478643757
 30
0.0
 10
85.09408797875557
 20
-20.26474929178228
 30
0.0
 10
85.10438164084725
 20
-20.28657438492806
 30
0.0
 10
85.11324526204403
 20
-20.32800566186721
 30
0.0
 10
85.11970730242548
 20
-20.39256349188284
 30
0.0
 10
85.11951089829299
 20
-20.47189942002717
 30
0.0
 10
85.1254017159945
 20
-20.55836384528655
 30
0.0
 10
85.15403427451139
 20
-20.64184893430188
 30
0.0
 10
85.20474858613478
 20
-20.71530880161977
 30
0.0
 10
85.27793570620516
 20
-20.7752981902214
 30
0.0
 10
85.37102574219311
 20
-20.8231960179009
 30
0.0
 10
85.53689665818901
 20
-20.87618802029172
 30
0.0
 10
85.80551219278018
 20
-20.9348069807798
 30
0.0
 10
86.21288250495647
 20
-20.98885710803349
 30
0.0
 10
86.59524724302612
 20
-21.00226718618495
 30
0.0
 10
86.99378149570357
 20
-20.99733498260235
 30
0.0
 10
87.3521410864089
 20
-20.99514119447995
 30
0.0
 10
87.6384925291383
 20
-20.98819581260162
 30
0.0
 10
87.773345
 20
-20.984925
 30
0.0
  0
LINE
  5
D9
330
1F
100
AcDbEntity
  8
0
  6
Continuous
 62
     7
370
    25
100
AcDbLine
 10
82.469867625
 20
-20.9328220176
 30
0.0
 11
82.624444
 21
-20.934893
 31
0.0
  0
LINE
  5
DA
330
1F
100
AcDbEntity
  8
0
  6
Continuous
 62
     7
370
    25
100
AcDbLine
 10
82.469867625
 20
-17.2824204021
 30
0.0
 11
82.469867625
 21
-20.9328220176
 31
0.0
  0
SPLINE
  5
DB
330
1F
100
AcDbEntity
  8
0
  6
Continuous
 62
     7
370
    25
100
AcDbSpline
210
0.0
220
0.0
230
1.0
 70
     8
 71
     3
 72
    26
 73
    22
 74
     0
 42
0.000000001
 43
0.00000001
 40
0.0234559258027142
 40
0.0234559258027142
 40
0.0234559258027142
 40
0.0234559258027142
 40
0.0251671127920302
 40
0.0382519256867781
 40
0.0509620956370781
 40
0.0655038947822725
 40
0.0803358064766933
 40
0.1068314766437595
 40
0.1597242908955927
 40
0.2580458570195862
 40
0.3195806625870092
 40
0.3628780105462782
 40
0.3917473176929444
 40
0.4099989220653747
 40
0.4215969092726334
 40
0.4306842204972419
 40
0.4422857067320243
 40
0.4539589160488723
 40
0.463220842762028
 40
0.4717478844423708
 40
0.4717706699650377
 40
0.4717706699650377
 40
0.4717706699650377
 40
0.4717706699650377
 10
82.46986762491812
 20
8.8660966904
 30
0.0
 10
82.50132564915333
 20
8.850132494084686
 30
0.0
 10
82.76961024601077
 20
8.705291922391828
 30
0.0
 10
83.20067812284441
 20
8.327021835476739
 30
0.0
 10
83.72959393983184
 20
7.685686786565983
 30
0.0
 10
84.14747953528476
 20
6.923660537373459
 30
0.0
 10
84.56974972227678
 20
5.849514154494893
 30
0.0
 10
84.78684633061722
 20
3.907506360715896
 30
0.0
 10
84.82248562188487
 20
0.2612323391616163
 30
0.0
 10
84.79654764700496
 20
-4.114838059259636
 30
0.0
 10
84.75669707262846
 20
-8.289797070076666
 30
0.0
 10
84.71691639734964
 20
-11.03765594270127
 30
0.0
 10
84.65653777245811
 20
-12.89564049217588
 30
0.0
 10
84.56638858054191
 20
-14.09930628014815
 30
0.0
 10
84.4136236412063
 20
-14.88987218082035
 30
0.0
 10
84.14572827566384
 20
-15.50084277342353
 30
0.0
 10
83.79453156967608
 20
-16.06796776648018
 30
0.0
 10
83.38367992739882
 20
-16.59554497868295
 30
0.0
 10
82.95469922429669
 20
-17.03137060248384
 30
0.0
 10
82.62931082478613
 20
-17.20624602171626
 30
0.0
 10
82.47029143612203
 20
-17.2822179913483
 30
0.0
 10
82.469867625
 20
-17.28242040209788
 30
0.0
  0
LINE
  5
DC
330
1F
100
AcDbEntity
  8
0
  6
Continuous
 62
     7
370
    25
100
AcDbLine
 10
82.4698676249
 20
12.8956803354
 30
0.0
 11
82.4698676249
 21
8.8660966904
 31
0.0
  0
SPLINE
  5
DD
330
1F
100
AcDbEntity
  8
0
  6
Continuous
 62
     7
370
    25
100
AcDbSpline
210
0.0
220
0.0
230
1.0
 70
     8
 71
     3
 72
    18
 73
    14
 74
     0
 42
0.000000001
 43
0.00000001
 40
0.0
 40
0.0
 40
0.0
 40
0.0
 40
0.047149464162943
 40
0.145042816219182
 40
0.2291005414348638
 40
0.2904158256383306
 40
0.3620812330481147
 40
0.4290421059837064
 40
0.502564977004183
 40
0.5911988419615068
 40
0.6781375523290719
 40
0.7801078142738459
 40
0.878244400943484
 40
0.878244400943484
 40
0.878244400943484
 40
0.878244400943484
 10
88.30247800000001
 20
6.440604
 30
0.0
 10
88.28230549573257
 20
6.609175454861095
 30
0.0
 10
88.22025013877179
 20
7.127740808281048
 30
0.0
 10
88.09147707857015
 20
7.939534303769167
 30
0.0
 10
87.89413207789481
 20
8.80430626283764
 30
0.0
 10
87.4788019857917
 20
9.472824702607102
 30
0.0
 10
87.09827346789314
 20
10.08107616824945
 30
0.0
 10
86.67732823440001
 20
10.72132247034415
 30
0.0
 10
86.09131987377724
 20
11.3087452919509
 30
0.0
 10
85.3689264271248
 20
11.84349307218369
 30
0.0
 10
84.4995347304263
 20
12.34038118634086
 30
0.0
 10
83.53135649644783
 20
12.71543133092951
 30
0.0
 10
82.82074296848089
 20
12.85495189883885
 30
0.0
 10
82.46986762491812
 20
12.8956803354255
 30
0.0
  0
LINE
  5
DE
330
1F
100
AcDbEntity
  8
0
  6
Continuous
 62
     7
370
    25
100
AcDbLine
 10
133.0
 20
81.0
 30
0.0
 11
133.0
 21
75.0
 31
0.0
  0
LINE
  5
DF
330
1F
100
AcDbEntity
  8
0
  6
Continuous
 62
     7
370
    25
100
AcDbLine
 10
133.0
 20
81.0
 30
0.0
 11
83.0
 21
81.0
 31
0.0
  0
LINE
  5
E0
330
1F
100
AcDbEntity
  8
0
  6
Continuous
 62
     7
370
    25
100
AcDbLine
 10
83.0
 20
75.0
 30
0.0
 11
83.0
 21
81.0
 31
0.0
  0
LINE
  5
E1
330
1F
100
AcDbEntity
  8
0
  6
Continuous
 62
     7
370
    25
100
AcDbLine
 10
25.0
 20
75.0
 30
0.0
 11
83.0
 21
75.0
 31
0.0
  0
LINE
  5
E2
330
1F
100
AcDbEntity
  8
0
  6
Continuous
 62
     7
370
    25
100
AcDbLine
 10
25.0
 20
75.0
 30
0.0
 11
25.0
 21
81.0
 31
0.0
  0
LINE
  5
E3
330
1F
100
AcDbEntity
  8
0
  6
Continuous
 62
     7
370
    25
100
AcDbLine
 10
-25.0
 20
81.0
 30
0.0
 11
25.0
 21
81.0
 31
0.0
  0
LINE
  5
E4
330
1F
100
AcDbEntity
  8
0
  6
Continuous
 62
     7
370
    25
100
AcDbLine
 10
-25.0
 20
75.0
 30
0.0
 11
-25.0
 21
81.0
 31
0.0
  0
LINE
  5
E5
330
1F
100
AcDbEntity
  8
0
  6
Continuous
 62
     7
370
    25
100
AcDbLine
 10
-83.0
 20
75.0
 30
0.0
 11
-25.0
 21
75.0
 31
0.0
  0
LINE
  5
E6
330
1F
100
AcDbEntity
  8
0
  6
Continuous
 62
     7
370
    25
100
AcDbLine
 10
-83.0
 20
75.0
 30
0.0
 11
-83.0
 21
81.0
 31
0.0
  0
LINE
  5
E7
330
1F
100
AcDbEntity
  8
0
  6
Continuous
 62
     7
370
    25
100
AcDbLine
 10
-133.0
 20
81.0
 30
0.0
 11
-83.0
 21
81.0
 31
0.0
  0
LINE
  5
E8
330
1F
100
AcDbEntity
  8
0
  6
Continuous
 62
     7
370
    25
100
AcDbLine
 10
-133.0
 20
81.0
 30
0.0
 11
-133.0
 21
25.0
 31
0.0
  0
LINE
  5
E9
330
1F
100
AcDbEntity
  8
0
  6
Continuous
 62
     7
370
    25
100
AcDbLine
 10
-139.0
 20
25.0
 30
0.0
 11
-133.0
 21
25.0
 31
0.0
  0
LINE
  5
EA
330
1F
100
AcDbEntity
  8
0
  6
Continuous
 62
     7
370
    25
100
AcDbLine
 10
-139.0
 20
25.0
 30
0.0
 11
-139.0
 21
-25.0
 31
0.0
  0
LINE
  5
EB
330
1F
100
AcDbEntity
  8
0
  6
Continuous
 62
     7
370
    25
100
AcDbLine
 10
-139.0
 20
-25.0
 30
0.0
 11
-133.0
 21
-25.0
 31
0.0
  0
LINE
  5
EC
330
1F
100
AcDbEntity
  8
0
  6
Continuous
 62
     7
370
    25
100
AcDbLine
 10
-133.0
 20
-25.0
 30
0.0
 11
-133.0
 21
-81.0
 31
0.0
  0
LINE
  5
ED
330
1F
100
AcDbEntity
  8
0
  6
Continuous
 62
     7
370
    25
100
AcDbLine
 10
-133.0
 20
-81.0
 30
0.0
 11
-83.0
 21
-81.0
 31
0.0
  0
LINE
  5
EE
330
1F
100
AcDbEntity
  8
0
  6
Continuous
 62
     7
370
    25
100
AcDbLine
 10
-83.0
 20
-75.0
 30
0.0
 11
-83.0
 21
-81.0
 31
0.0
  0
LINE
  5
EF
330
1F
100
AcDbEntity
  8
0
  6
Continuous
 62
     7
370
    25
100
AcDbLine
 10
-83.0
 20
-75.0
 30
0.0
 11
-25.0
 21
-75.0
 31
0.0
  0
LINE
  5
F0
330
1F
100
AcDbEntity
  8
0
  6
Continuous
 62
     7
370
    25
100
AcDbLine
 10
-25.0
 20
-75.0
 30
0.0
 11
-25.0
 21
-81.0
 31
0.0
  0
LINE
  5
F1
330
1F
100
AcDbEntity
  8
0
  6
Continuous
 62
     7
370
    25
100
AcDbLine
 10
-25.0
 20
-81.0
 30
0.0
 11
25.0
 21
-81.0
 31
0.0
  0
LINE
  5
F2
330
1F
100
AcDbEntity
  8
0
  6
Continuous
 62
     7
370
    25
100
AcDbLine
 10
25.0
 20
-75.0
 30
0.0
 11
25.0
 21
-81.0
 31
0.0
  0
LINE
  5
F3
330
1F
100
AcDbEntity
  8
0
  6
Continuous
 62
     7
370
    25
100
AcDbLine
 10
25.0
 20
-75.0
 30
0.0
 11
83.0
 21
-75.0
 31
0.0
  0
LINE
  5
F4
330
1F
100
AcDbEntity
  8
0
  6
Continuous
 62
     7
370
    25
100
AcDbLine
 10
83.0
 20
-75.0
 30
0.0
 11
83.0
 21
-81.0
 31
0.0
  0
LINE
  5
F5
330
1F
100
AcDbEntity
  8
0
  6
Continuous
 62
     7
370
    25
100
AcDbLine
 10
133.0
 20
-81.0
 30
0.0
 11
83.0
 21
-81.0
 31
0.0
  0
LINE
  5
F6
330
1F
100
AcDbEntity
  8
0
  6
Continuous
 62
     7
370
    25
100
AcDbLine
 10
133.0
 20
-75.0
 30
0.0
 11
133.0
 21
-81.0
 31
0.0
  0
LINE
  5
F7
330
1F
100
AcDbEntity
  8
0
  6
Continuous
 62
     7
370
    25
100
AcDbLine
 10
133.0
 20
-75.0
 30
0.0
 11
147.0
 21
-75.0
 31
0.0
  0
LINE
  5
F8
330
1F
100
AcDbEntity
  8
0
  6
Continuous
 62
     7
370
    25
100
AcDbLine
 10
147.0
 20
-75.0
 30
0.0
 11
147.0
 21
75.0
 31
0.0
  0
LINE
  5
F9
330
1F
100
AcDbEntity
  8
0
  6
Continuous
 62
     7
370
    25
100
AcDbLine
 10
147.0
 20
75.0
 30
0.0
 11
133.0
 21
75.0
 31
0.0
  0
SPLINE
  5
FA
330
1F
100
AcDbEntity
  8
0
  6
Continuous
 62
     7
370
    25
100
AcDbSpline
210
0.0
220
0.0
230
1.0
 70
     8
 71
     3
 72
    26
 73
    22
 74
     0
 42
0.000000001
 43
0.00000001
 40
0.5253957975152163
 40
0.5253957975152163
 40
0.5253957975152163
 40
0.5253957975152163
 40
0.5275488896955187
 40
0.5387473085350961
 40
0.5507512471322081
 40
0.5645187670374235
 40
0.5820268704491628
 40
0.5996895508284953
 40
0.6319100507482845
 40
0.6888322927229564
 40
0.7681532513253281
 40
0.824106776008344
 40
0.8634067850370316
 40
0.8897438446765037
 40
0.9068254925864986
 40
0.9185164969911557
 40
0.9287993287499247
 40
0.9421067964763813
 40
0.9551872629037665
 40
0.96532307617973
 40
0.9704863788391292
 40
0.9704863788391292
 40
0.9704863788391292
 40
0.9704863788391292
 10
79.2792547519
 20
-17.29863915771625
 30
0.0
 10
79.24070147106751
 20
-17.27655556762491
 30
0.0
 10
79.00533478674457
 20
-17.13328014546792
 30
0.0
 10
78.60596741977656
 20
-16.79343765300857
 30
0.0
 10
78.11955669524616
 20
-16.20131393493818
 30
0.0
 10
77.7451692564003
 20
-15.38745502613448
 30
0.0
 10
77.42077468253187
 20
-14.43576892563373
 30
0.0
 10
77.0892549560971
 20
-13.08574595744136
 30
0.0
 10
77.00253047317126
 20
-10.88238617657847
 30
0.0
 10
76.92646669200583
 20
-7.425570332798463
 30
0.0
 10
76.95644158812027
 20
-3.472692704135604
 30
0.0
 10
76.99781847204449
 20
0.114784892741721
 30
0.0
 10
77.04016731791748
 20
2.613918243228355
 30
0.0
 10
77.105413323304
 20
4.312835094616386
 30
0.0
 10
77.20336293769581
 20
5.442762086216689
 30
0.0
 10
77.38028999908136
 20
6.229573715886379
 30
0.0
 10
77.66136015643286
 20
6.900499657674833
 30
0.0
 10
78.03466520198747
 20
7.558440463379703
 30
0.0
 10
78.4880711141629
 20
8.156313817983865
 30
0.0
 10
78.90477996427165
 20
8.576983485017003
 30
0.0
 10
79.18220648109225
 20
8.726244441607365
 30
0.0
 10
79.27925475193196
 20
8.770271147890893
 30
0.0
  0
LINE
  5
FB
330
1F
100
AcDbEntity
  8
0
  6
Continuous
 62
     7
370
    25
100
AcDbLine
 10
79.2792547519
 20
-17.2986391577
 30
0.0
 11
79.2792547519
 21
-20.919325302
 31
0.0
  0
LINE
  5
FC
330
1F
100
AcDbEntity
  8
0
  6
Continuous
 62
     7
370
    25
100
AcDbLine
 10
78.775076
 20
-20.918637
 30
0.0
 11
79.2792547519
 21
-20.919325302
 31
0.0
  0
SPLINE
  5
FD
330
1F
100
AcDbEntity
  8
0
  6
Continuous
 62
     7
370
    25
100
AcDbSpline
210
0.0
220
0.0
230
1.0
 70
     8
 71
     3
 72
    33
 73
    29
 74
     0
 42
0.000000001
 43
0.00000001
 40
0.0455356826023045
 40
0.0455356826023045
 40
0.0455356826023045
 40
0.0455356826023045
 40
0.0536090102502272
 40
0.0736060594296601
 40
0.0923596705244264
 40
0.115529994034904
 40
0.1386878065829262
 40
0.1632812082256745
 40
0.190165696869655
 40
0.2140465695972213
 40
0.2406758431029601
 40
0.2746536210627952
 40
0.3089893240859863
 40
0.3609158246206834
 40
0.4408013791646917
 40
0.5314900215195205
 40
0.6220386542496805
 40
0.7015648385458991
 40
0.753011836944685
 40
0.7906615552918642
 40
0.8241426069072032
 40
0.8569694269987671
 40
0.8867350217030427
 40
0.9130560992184202
 40
0.9367506012347119
 40
0.9595426321162169
 40
0.9786566059766038
 40
1.0
 40
1.0
 40
1.0
 40
1.0
 10
79.27925475193196
 20
12.85379549127366
 30
0.0
 10
79.16862752908789
 20
12.84151735346202
 30
0.0
 10
78.78392757544611
 20
12.79567135587702
 30
0.0
 10
78.14063463650658
 20
12.70522530290641
 30
0.0
 10
77.35751665925038
 20
12.34709628481436
 30
0.0
 10
76.59838109854974
 20
11.87022017688744
 30
0.0
 10
75.82286657866673
 20
11.2693676723629
 30
0.0
 10
75.13671686762157
 20
10.49752959562862
 30
0.0
 10
74.53195245772778
 20
9.653539229496328
 30
0.0
 10
74.00070585819704
 20
8.721925124324985
 30
0.0
 10
73.67111789369348
 20
7.599110181567625
 30
0.0
 10
73.38472779919489
 20
6.324011926706623
 30
0.0
 10
73.13301103682109
 20
4.683874633316329
 30
0.0
 10
73.04638518853437
 20
2.394038035383877
 30
0.0
 10
72.9571416598812
 20
-0.6687496728110647
 30
0.0
 10
72.9246744133076
 20
-4.266365165979485
 30
0.0
 10
72.95680577968166
 20
-7.858879197029607
 30
0.0
 10
73.04519804946081
 20
-10.90856163175186
 30
0.0
 10
73.15175985665542
 20
-13.23119244948222
 30
0.0
 10
73.40960512733295
 20
-14.90319174873513
 30
0.0
 10
73.78300242098977
 20
-16.2896783370271
 30
0.0
 10
74.30183441159838
 20
-17.51130462611392
 30
0.0
 10
74.89979198085788
 20
-18.58257955883334
 30
0.0
 10
75.56434264094865
 20
-19.46575946400076
 30
0.0
 10
76.31895206459568
 20
-20.13392475593916
 30
0.0
 10
77.08110237029993
 20
-20.62824424301039
 30
0.0
 10
77.91860477809857
 20
-20.91524310896305
 30
0.0
 10
78.47928672176755
 20
-20.91746489222271
 30
0.0
 10
78.77507600000001
 20
-20.918637
 30
0.0
  0
LINE
  5
FE
330
1F
100
AcDbEntity
  8
0
  6
Continuous
 62
     7
370
    25
100
AcDbLine
 10
79.2792547519
 20
12.8537954913
 30
0.0
 11
79.2792547519
 21
8.7702711479
 31
0.0
  0
SPLINE
  5
FF
330
1F
100
AcDbEntity
  8
0
  6
Continuous
 62
     7
370
    25
100
AcDbSpline
210
0.0
220
0.0
230
1.0
 70
     8
 71
     3
 72
    39
 73
    35
 74
     0
 42
0.000000001
 43
0.00000001
 40
0.1073721394510578
 40
0.1073721394510578
 40
0.1073721394510578
 40
0.1073721394510578
 40
0.1145129196172739
 40
0.1613324850872646
 40
0.1811437543921154
 40
0.1981758213286627
 40
0.2121376847899255
 40
0.2178761068612056
 40
0.2227343628237023
 40
0.226671261664872
 40
0.2279931245732679
 40
0.2291035955278274
 40
0.2300661484190499
 40
0.2307109335828335
 40
0.2314063491857736
 40
0.2323026393036126
 40
0.2361677230687505
 40
0.2411166996737042
 40
0.2470885697154153
 40
0.2619039351573119
 40
0.2802872489382839
 40
0.3019178526679628
 40
0.3536613275609224
 40
0.4146478819637863
 40
0.4823899374942107
 40
0.5819677297599526
 40
0.6544928940392458
 40
0.706143919844183
 40
0.7432323794029351
 40
0.7724906732623293
 40
0.800823508164189
 40
0.8425206693629945
 40
0.8824619413459394
 40
0.9135561668974593
 40
0.9135561668974593
 40
0.9135561668974593
 40
0.9135561668974593
 10
42.84971756340001
 20
-2.641650136466557
 30
0.0
 10
42.80859014984935
 20
-2.661783412632
 30
0.0
 10
42.49775100701628
 20
-2.813812555386564
 30
0.0
 10
42.07223688664064
 20
-3.020517430237725
 30
0.0
 10
41.58823756273731
 20
-3.252036903526209
 30
0.0
 10
41.29364384255482
 20
-3.391042607904872
 30
0.0
 10
41.07984974862973
 20
-3.490234060866483
 30
0.0
 10
40.9364627188336
 20
-3.55486257838075
 30
0.0
 10
40.85091602123349
 20
-3.592993152510798
 30
0.0
 10
40.79193590085134
 20
-3.61734811742104
 30
0.0
 10
40.75321453947718
 20
-3.634506232047306
 30
0.0
 10
40.73480897137168
 20
-3.638927342403335
 30
0.0
 10
40.71317510860847
 20
-3.654862168714892
 30
0.0
 10
40.71287540564946
 20
-3.634849185187742
 30
0.0
 10
40.70912378784453
 20
-3.622281259898662
 30
0.0
 10
40.7043032232889
 20
-3.586748427015977
 30
0.0
 10
40.6968832650536
 20
-3.525690847949037
 30
0.0
 10
40.68899157459084
 20
-3.430832135642076
 30
0.0
 10
40.67801497619222
 20
-3.266324906357984
 30
0.0
 10
40.6667707428161
 20
-3.015259807984692
 30
0.0
 10
40.65628966159868
 20
-2.663856787126681
 30
0.0
 10
40.64543747401496
 20
-2.075521543539918
 30
0.0
 10
40.64063106723021
 20
-1.213916008645529
 30
0.0
 10
40.64640359549143
 20
-0.0566108767490944
 30
0.0
 10
40.66894459726311
 20
1.40727778675975
 30
0.0
 10
40.70157613570544
 20
2.944935283131026
 30
0.0
 10
40.74979477224636
 20
4.379164722674812
 30
0.0
 10
40.82190618009189
 20
5.410974498690022
 30
0.0
 10
40.93228836758441
 20
6.161370999598355
 30
0.0
 10
41.11226731633684
 20
6.744008713987962
 30
0.0
 10
41.39120581561785
 20
7.317869777740098
 30
0.0
 10
41.77790033678266
 20
7.912056451434054
 30
0.0
 10
42.29156537252724
 20
8.42872680121731
 30
0.0
 10
42.6738687347083
 20
8.68242157462852
 30
0.0
 10
42.84971756355801
 20
8.77697745591492
 30
0.0
  0
LINE
  5
100
330
1F
100
AcDbEntity
  8
0
  6
Continuous
 62
     7
370
    25
100
AcDbLine
 10
42.8497175634
 20
-2.6416501365
 30
0.0
 11
42.8497175634
 21
-7.1477956165
 31
0.0
  0
LINE
  5
101
330
1F
100
AcDbEntity
  8
0
  6
Continuous
 62
     7
370
    25
100
AcDbLine
 10
40.618622
 20
-8.24054
 30
0.0
 11
42.8497175634
 21
-7.1477956165
 31
0.0
  0
LINE
  5
102
330
1F
100
AcDbEntity
  8
0
  6
Continuous
 62
     7
370
    25
100
AcDbLine
 10
40.620315
 20
-10.878635
 30
0.0
 11
40.618622
 21
-8.24054
 31
0.0
  0
SPLINE
  5
103
330
1F
100
AcDbEntity
  8
0
  6
Continuous
 62
     7
370
    25
100
AcDbSpline
210
0.0
220
0.0
230
1.0
 70
     8
 71
     3
 72
    28
 73
    24
 74
     0
 42
0.000000001
 43
0.00000001
 40
0.0
 40
0.0
 40
0.0
 40
0.0
 40
0.0747115748388383
 40
0.1470181372300516
 40
0.2012555739839199
 40
0.2509242724083849
 40
0.2977968504825144
 40
0.3531408664788928
 40
0.4109660414255206
 40
0.4525364943322485
 40
0.5006524093006687
 40
0.5429924523220251
 40
0.5900981646457257
 40
0.6324082834867258
 40
0.6752923639836077
 40
0.7229725103921205
 40
0.765327176920294
 40
0.7887618024289956
 40
0.8215840993697086
 40
0.8614206138830327
 40
0.905934721691302
 40
0.9528846708907088
 40
1.0
 40
1.0
 40
1.0
 40
1.0
 10
48.366152
 20
-12.651227
 30
0.0
 10
48.29978042214414
 20
-13.03889996327221
 30
0.0
 10
48.16917380914693
 20
-13.80176645400914
 30
0.0
 10
47.90229910665308
 20
-14.82737167710424
 30
0.0
 10
47.61047621922398
 20
-15.70980484932311
 30
0.0
 10
47.20509099162778
 20
-16.40272363777895
 30
0.0
 10
46.60658106870638
 20
-16.95172606517274
 30
0.0
 10
45.84519441133394
 20
-17.3205616560878
 30
0.0
 10
45.09716123599321
 20
-17.65163010602285
 30
0.0
 10
44.31160216580567
 20
-17.74509766676036
 30
0.0
 10
43.62802623198317
 20
-17.57027330144953
 30
0.0
 10
42.96317341881565
 20
-17.28038755522153
 30
0.0
 10
42.38349863105306
 20
-16.89477675063228
 30
0.0
 10
41.85950394729139
 20
-16.42838663270861
 30
0.0
 10
41.47347070254843
 20
-15.83917862250011
 30
0.0
 10
41.14618937976108
 20
-15.2223473145809
 30
0.0
 10
40.91580427192439
 20
-14.66679116384477
 30
0.0
 10
40.81958552019034
 20
-14.15559488384232
 30
0.0
 10
40.75636457692786
 20
-13.6539976158947
 30
0.0
 10
40.70037307772988
 20
-13.03980672979197
 30
0.0
 10
40.65709304626349
 20
-12.35023280002276
 30
0.0
 10
40.62706022195638
 20
-11.62153253839703
 30
0.0
 10
40.6225660411182
 20
-11.12655759118442
 30
0.0
 10
40.62031500000001
 20
-10.878635
 30
0.0
  0
LINE
  5
104
330
1F
100
AcDbEntity
  8
0
  6
Continuous
 62
     7
370
    25
100
AcDbLine
 10
48.663377
 20
-10.587108
 30
0.0
 11
48.366152
 21
-12.651227
 31
0.0
  0
LINE
  5
105
330
1F
100
AcDbEntity
  8
0
  6
Continuous
 62
     7
370
    25
100
AcDbLine
 10
52.326554
 20
-10.587108
 30
0.0
 11
48.663377
 21
-10.587108
 31
0.0
  0
LINE
  5
106
330
1F
100
AcDbEntity
  8
0
  6
Continuous
 62
     7
370
    25
100
AcDbLine
 10
52.202007
 20
-13.068146
 30
0.0
 11
52.326554
 21
-10.587108
 31
0.0
  0
SPLINE
  5
107
330
1F
100
AcDbEntity
  8
0
  6
Continuous
 62
     7
370
    25
100
AcDbSpline
210
0.0
220
0.0
230
1.0
 70
     8
 71
     3
 72
    19
 73
    15
 74
     0
 42
0.000000001
 43
0.00000001
 40
0.0
 40
0.0
 40
0.0
 40
0.0
 40
0.0600441541197172
 40
0.1224384459262824
 40
0.1755787008945275
 40
0.2319817437346033
 40
0.3027615800228518
 40
0.3737249368831253
 40
0.4532807736909407
 40
0.5461953491617122
 40
0.6337382457262721
 40
0.7376562892246842
 40
0.8562742491210436
 40
1.0
 40
1.0
 40
1.0
 40
1.0
 10
46.465834
 20
-20.937887
 30
0.0
 10
46.68023553219612
 20
-20.927392805591
 30
0.0
 10
47.11743030646116
 20
-20.9059936723444
 30
0.0
 10
47.7313662827969
 20
-20.77137337608766
 30
0.0
 10
48.31528628073826
 20
-20.56779644874671
 30
0.0
 10
48.84560847580024
 20
-20.19461070021931
 30
0.0
 10
49.39459413756578
 20
-19.75082501964069
 30
0.0
 10
49.97744339507008
 20
-19.21438555644418
 30
0.0
 10
50.51763427906248
 20
-18.53026639736558
 30
0.0
 10
51.02175212129105
 20
-17.75062687663676
 30
0.0
 10
51.50569672967067
 20
-16.85570940986887
 30
0.0
 10
51.86751417993621
 20
-15.80418708311355
 30
0.0
 10
52.10691177857048
 20
-14.51515196263366
 30
0.0
 10
52.16834864005028
 20
-13.58030472688037
 30
0.0
 10
52.20200700000002
 20
-13.068146
 30
0.0
  0
LINE
  5
108
330
1F
100
AcDbEntity
  8
0
  6
Continuous
 62
     7
370
    25
100
AcDbLine
 10
45.413092
 20
-20.929025
 30
0.0
 11
46.465834
 21
-20.937887
 31
0.0
  0
SPLINE
  5
109
330
1F
100
AcDbEntity
  8
0
  6
Continuous
 62
     7
370
    25
100
AcDbSpline
210
0.0
220
0.0
230
1.0
 70
     8
 71
     3
 72
    10
 73
     6
 74
     0
 42
0.000000001
 43
0.00000001
 40
0.0
 40
0.0
 40
0.0
 40
0.0
 40
0.2059112633313199
 40
0.6340165336069875
 40
1.0
 40
1.0
 40
1.0
 40
1.0
 10
43.474372
 20
-20.929025
 30
0.0
 10
43.60743449961478
 20
-20.9271103478455
 30
0.0
 10
44.01714411624273
 20
-20.92121498737605
 30
0.0
 10
44.66346911126148
 20
-20.91321685010123
 30
0.0
 10
45.17659845883593
 20
-20.9240377918918
 30
0.0
 10
45.41309200000001
 20
-20.929025
 30
0.0
  0
LINE
  5
10A
330
1F
100
AcDbEntity
  8
0
  6
Continuous
 62
     7
370
    25
100
AcDbLine
 10
42.366102
 20
-20.936843
 30
0.0
 11
43.474372
 21
-20.929025
 31
0.0
  0
SPLINE
  5
10B
330
1F
100
AcDbEntity
  8
0
  6
Continuous
 62
     7
370
    25
100
AcDbSpline
210
0.0
220
0.0
230
1.0
 70
     8
 71
     3
 72
    34
 73
    30
 74
     0
 42
0.000000001
 43
0.00000001
 40
0.0526447344136401
 40
0.0526447344136401
 40
0.0526447344136401
 40
0.0526447344136401
 40
0.0620816471080591
 40
0.0882097525811168
 40
0.1161557057628632
 40
0.1419155575652091
 40
0.1679401559016794
 40
0.1950450512798808
 40
0.2207625695572133
 40
0.2482823987351827
 40
0.2720164623962583
 40
0.2899439471857252
 40
0.3195139735253543
 40
0.3606999489644771
 40
0.4133733017866281
 40
0.477318803320858
 40
0.5523419983762163
 40
0.7124115716476142
 40
0.7918832076188944
 40
0.8286426385018538
 40
0.8494413416118952
 40
0.8726723444978604
 40
0.8936228019757652
 40
0.9134095995887196
 40
0.9336388842615237
 40
0.9502440266175255
 40
0.9658311804973204
 40
0.9834786933180204
 40
1.0
 40
1.0
 40
1.0
 40
1.0
 10
42.849717563558
 20
12.85342809827307
 30
0.0
 10
42.71927515024147
 20
12.83919810058747
 30
0.0
 10
42.22877103962759
 20
12.77451874383996
 30
0.0
 10
41.36337093808043
 20
12.55987655506936
 30
0.0
 10
40.39014401416733
 20
12.00985929750049
 30
0.0
 10
39.48732313943088
 20
11.36271835610351
 30
0.0
 10
38.72445680864179
 20
10.5664534485814
 30
0.0
 10
38.09303075980781
 20
9.665892186482818
 30
0.0
 10
37.58846756719609
 20
8.666381784758503
 30
0.0
 10
37.19011301646652
 20
7.674230497887614
 30
0.0
 10
36.89100454828687
 20
6.754435348825899
 30
0.0
 10
36.79470596583737
 20
5.765639403251821
 30
0.0
 10
36.73536937102043
 20
4.535313393951815
 30
0.0
 10
36.69411121547574
 20
2.819593401320562
 30
0.0
 10
36.67256049366628
 20
0.6264084567173401
 30
0.0
 10
36.67248059078105
 20
-2.037522192526387
 30
0.0
 10
36.70015986664118
 20
-6.193597044880002
 30
0.0
 10
36.76979794605338
 20
-10.5680468784435
 30
0.0
 10
36.83335287365604
 20
-14.40279261300588
 30
0.0
 10
37.14838342210675
 20
-16.30469787424853
 30
0.0
 10
37.64879262416242
 20
-17.31681228468337
 30
0.0
 10
38.1009975980872
 20
-18.09795847363693
 30
0.0
 10
38.61229553216596
 20
-18.82850398887616
 30
0.0
 10
39.19417775134585
 20
-19.44777145489446
 30
0.0
 10
39.77430679966121
 20
-19.97798813806789
 30
0.0
 10
40.34800854710247
 20
-20.4357940397529
 30
0.0
 10
40.99072221655884
 20
-20.70820846617693
 30
0.0
 10
41.66144656294054
 20
-20.89056851472862
 30
0.0
 10
42.13643540697608
 20
-20.9217608721723
 30
0.0
 10
42.36610200000001
 20
-20.936843
 30
0.0
  0
LINE
  5
10C
330
1F
100
AcDbEntity
  8
0
  6
Continuous
 62
     7
370
    25
100
AcDbLine
 10
42.8497175636
 20
12.8534280983
 30
0.0
 11
42.8497175636
 21
8.7769774559
 31
0.0
  0
SPLINE
  5
10D
330
1F
100
AcDbEntity
  8
0
  6
Continuous
 62
     7
370
    25
100
AcDbSpline
210
0.0
220
0.0
230
1.0
 70
     8
 71
     3
 72
    37
 73
    33
 74
     0
 42
0.000000001
 43
0.00000001
 40
0.026766699883653
 40
0.026766699883653
 40
0.026766699883653
 40
0.026766699883653
 40
0.037258314804005
 40
0.0649590180513547
 40
0.0948192967154533
 40
0.1222775287718845
 40
0.1499970404733793
 40
0.1782497736437434
 40
0.205587067147268
 40
0.2356956817751018
 40
0.2624712959242266
 40
0.2819610577208283
 40
0.3132161719080799
 40
0.3555860344243136
 40
0.4083278442623412
 40
0.4706181591449183
 40
0.5416523025765931
 40
0.6121427873019104
 40
0.6740760597931621
 40
0.7265257731497852
 40
0.7685395373815305
 40
0.7992612409798197
 40
0.8179444011270056
 40
0.8423812786479351
 40
0.869103953937266
 40
0.8925803027156859
 40
0.9144723933715372
 40
0.9371063755524919
 40
0.9559620183490775
 40
0.9721197821844343
 40
0.9878691091789272
 40
1.0
 40
1.0
 40
1.0
 40
1.0
 10
13.74606273351629
 20
12.85280996590406
 30
0.0
 10
13.61128531947544
 20
12.83829948246536
 30
0.0
 10
13.12192383114941
 20
12.77378106436413
 30
0.0
 10
12.26137946574701
 20
12.55321556973183
 30
0.0
 10
11.29724712585321
 20
12.01060009965528
 30
0.0
 10
10.40265301683104
 20
11.36775626883324
 30
0.0
 10
9.649024056648175
 20
10.58886796537121
 30
0.0
 10
9.021996594746422
 20
9.708231953071143
 30
0.0
 10
8.53093630096578
 20
8.711736008610956
 30
0.0
 10
8.138113366516095
 20
7.697193053437679
 30
0.0
 10
7.846031096787038
 20
6.749173974354844
 30
0.0
 10
7.742041746895987
 20
5.750075769569177
 30
0.0
 10
7.671614185657647
 20
4.549414194512089
 30
0.0
 10
7.613409636233864
 20
2.916914432798476
 30
0.0
 10
7.570081533231129
 20
0.8832627034633632
 30
0.0
 10
7.543647134006851
 20
-1.521307934396498
 30
0.0
 10
7.535474499582898
 20
-4.155320049916721
 30
0.0
 10
7.543627164657814
 20
-6.784723337557643
 30
0.0
 10
7.569964263510728
 20
-9.173865085760548
 30
0.0
 10
7.612470155948023
 20
-11.1945732620801
 30
0.0
 10
7.670284244991676
 20
-12.8117195026897
 30
0.0
 10
7.736947251706094
 20
-13.99080473287577
 30
0.0
 10
7.840470337081318
 20
-14.94187287755363
 30
0.0
 10
8.09828697052328
 20
-15.81049459611619
 30
0.0
 10
8.41050467929531
 20
-16.72220251768996
 30
0.0
 10
8.771675297867818
 20
-17.58364474254257
 30
0.0
 10
9.224349723908286
 20
-18.33934154236603
 30
0.0
 10
9.699620061951647
 20
-19.00703910805861
 30
0.0
 10
10.19381670724655
 20
-19.56849914113471
 30
0.0
 10
10.70070107456018
 20
-19.98644715521463
 30
0.0
 10
11.14610119915645
 20
-20.3416437918156
 30
0.0
 10
11.45109285473138
 20
-20.53397587526052
 30
0.0
 10
11.58379700000001
 20
-20.617661
 30
0.0
  0
LINE
  5
10E
330
1F
100
AcDbEntity
  8
0
  6
Continuous
 62
     7
370
    25
100
AcDbLine
 10
13.7460627335
 20
12.8528099659
 30
0.0
 11
13.7460627335
 21
8.7803375759
 31
0.0
  0
SPLINE
  5
10F
330
1F
100
AcDbEntity
  8
0
  6
Continuous
 62
     7
370
    25
100
AcDbSpline
210
0.0
220
0.0
230
1.0
 70
     8
 71
     3
 72
    22
 73
    18
 74
     0
 42
0.000000001
 43
0.00000001
 40
0.5307349341884966
 40
0.5307349341884966
 40
0.5307349341884966
 40
0.5307349341884966
 40
0.5381818268607201
 40
0.5466956604327966
 40
0.5563751169014084
 40
0.5692617235683356
 40
0.5826318648978612
 40
0.608629466184623
 40
0.6601643355590707
 40
0.7517862962384289
 40
0.8433024800196756
 40
0.8948752129109885
 40
0.9208554683509007
 40
0.9349628402834077
 40
0.949381537200342
 40
0.9618366138347507
 40
0.9737121562935023
 40
0.9737121562935023
 40
0.9737121562935023
 40
0.9737121562935023
 10
13.7460627336
 20
-17.21599094076782
 30
0.0
 10
13.61656965707973
 20
-17.13422502715734
 30
0.0
 10
13.3453567098464
 20
-16.9509399815616
 30
0.0
 10
12.92090630364766
 20
-16.63107720937635
 30
0.0
 10
12.54710850322414
 20
-16.10373903547993
 30
0.0
 10
12.20994089929389
 20
-15.44695820109193
 30
0.0
 10
11.81348018203717
 20
-14.44223423663584
 30
0.0
 10
11.61414996328062
 20
-12.56672512378612
 30
0.0
 10
11.53226260356232
 20
-9.098008617981993
 30
0.0
 10
11.52137546777345
 20
-4.270777456545816
 30
0.0
 10
11.53063800233751
 20
0.5585363569321815
 30
0.0
 10
11.61709283791288
 20
4.023497986035569
 30
0.0
 10
11.80996817028212
 20
5.917625054994104
 30
0.0
 10
12.23983190670861
 20
6.959549080430983
 30
0.0
 10
12.65412546338304
 20
7.696696823122408
 30
0.0
 10
13.15895000282226
 20
8.315408693917885
 30
0.0
 10
13.5383353629509
 20
8.651742236756132
 30
0.0
 10
13.74606273351629
 20
8.780337575880093
 30
0.0
  0
LINE
  5
110
330
1F
100
AcDbEntity
  8
0
  6
Continuous
 62
     7
370
    25
100
AcDbLine
 10
13.7460627336
 20
-17.2159909408
 30
0.0
 11
13.7460627336
 21
-20.9146390779
 31
0.0
  0
LINE
  5
111
330
1F
100
AcDbEntity
  8
0
  6
Continuous
 62
     7
370
    25
100
AcDbLine
 10
13.273004
 20
-20.919325
 30
0.0
 11
13.7460627336
 21
-20.9146390779
 31
0.0
  0
SPLINE
  5
112
330
1F
100
AcDbEntity
  8
0
  6
Continuous
 62
     7
370
    25
100
AcDbSpline
210
0.0
220
0.0
230
1.0
 70
     8
 71
     3
 72
    13
 73
     9
 74
     0
 42
0.000000001
 43
0.00000001
 40
0.0
 40
0.0
 40
0.0
 40
0.0
 40
0.1199293251819665
 40
0.25875016037377
 40
0.414950218325946
 40
0.6085784672482383
 40
0.8065944011092728
 40
1.0
 40
1.0
 40
1.0
 40
1.0
 10
11.664005
 20
-20.64912
 30
0.0
 10
11.72474006266409
 20
-20.674106137084
 30
0.0
 10
11.85577729797579
 20
-20.72801427813118
 30
0.0
 10
12.07518053471727
 20
-20.7882602386903
 30
0.0
 10
12.3369828506659
 20
-20.84295858075689
 30
0.0
 10
12.63390087654124
 20
-20.88540778074868
 30
0.0
 10
12.95290324943985
 20
-20.91539505867225
 30
0.0
 10
13.16714489391923
 20
-20.91802534645287
 30
0.0
 10
13.273004
 20
-20.919325
 30
0.0
  0
LINE
  5
113
330
1F
100
AcDbEntity
  8
0
  6
Continuous
 62
     7
370
    25
100
AcDbLine
 10
11.664005
 20
-20.661989
 30
0.0
 11
11.664005
 21
-20.64912
 31
0.0
  0
LINE
  5
114
330
1F
100
AcDbEntity
  8
0
  6
Continuous
 62
     7
370
    25
100
AcDbLine
 10
11.583797
 20
-20.617661
 30
0.0
 11
11.664005
 21
-20.661989
 31
0.0
  0
SPLINE
  5
115
330
1F
100
AcDbEntity
  8
0
  6
Continuous
 62
     7
370
    25
100
AcDbSpline
210
0.0
220
0.0
230
1.0
 70
     8
 71
     3
 72
    34
 73
    30
 74
     0
 42
0.000000001
 43
0.00000001
 40
0.0000047945053231
 40
0.0000047945053231
 40
0.0000047945053231
 40
0.0000047945053231
 40
0.0149689320905605
 40
0.0268329444690012
 40
0.0360951781252639
 40
0.0434061439772136
 40
0.0495090098098227
 40
0.0552664607578441
 40
0.055889663517916
 40
0.0564619228971667
 40
0.057084989438461
 40
0.0578134625239672
 40
0.0586468880100017
 40
0.0595927869903229
 40
0.0618340253188471
 40
0.0645417343413447
 40
0.0677148077461501
 40
0.0754399179651903
 40
0.0849516557604961
 40
0.0961850899571295
 40
0.1235500426419107
 40
0.1569892994734342
 40
0.1959525691597431
 40
0.2882318410227531
 40
0.395935992618125
 40
0.5146134401823149
 40
0.744663869957806
 40
0.9190131233492214
 40
1.0
 40
1.0
 40
1.0
 40
1.0
 10
-55.76324200588884
 20
12.6877688150793
 30
0.0
 10
-55.93386834582405
 20
12.68653606208592
 30
0.0
 10
-56.23977223092307
 20
12.68432250353974
 30
0.0
 10
-56.65067792645046
 20
12.65542398619732
 30
0.0
 10
-56.97106667988245
 20
12.60150980102376
 30
0.0
 10
-57.21675337874984
 20
12.51242286468043
 30
0.0
 10
-57.39273860695413
 20
12.37639899260196
 30
0.0
 10
-57.46970925145555
 20
12.2518848951636
 30
0.0
 10
-57.49407675826976
 20
12.17615938231815
 30
0.0
 10
-57.49604873114278
 20
12.15540998173451
 30
0.0
 10
-57.4963678646718
 20
12.13349672626057
 30
0.0
 10
-57.497122994508
 20
12.10858297988239
 30
0.0
 10
-57.49602838315271
 20
12.07999789461167
 30
0.0
 10
-57.49331073691928
 20
12.03424248346877
 30
0.0
 10
-57.48845887178682
 20
11.96720119981933
 30
0.0
 10
-57.47950283409228
 20
11.87502815611168
 30
0.0
 10
-57.46240461017558
 20
11.72084644194249
 30
0.0
 10
-57.43297698720288
 20
11.49000265588528
 30
0.0
 10
-57.38804636118026
 20
11.16852707311223
 30
0.0
 10
-57.30743839651963
 20
10.62596085178483
 30
0.0
 10
-57.17901547082179
 20
9.81472896596415
 30
0.0
 10
-56.99310368261511
 20
8.692545273472076
 30
0.0
 10
-56.67662604873274
 20
6.841823307560564
 30
0.0
 10
-56.20106526219539
 20
4.159338580688963
 30
0.0
 10
-55.54836631281891
 20
0.5852990520433241
 30
0.0
 10
-54.58624297213412
 20
-4.5289000494508
 30
0.0
 10
-53.4671163178495
 20
-10.38668607771821
 30
0.0
 10
-52.4339611770192
 20
-15.82341737748704
 30
0.0
 10
-51.8792355046839
 20
-18.68123085240764
 30
0.0
 10
-51.703289
 20
-19.587665
 30
0.0
  0
LINE
  5
116
330
1F
100
AcDbEntity
  8
0
  6
Continuous
 62
     7
370
    25
100
AcDbLine
 10
-55.7632420059
 20
12.6877688151
 30
0.0
 11
-55.763078
 21
12.68777
 31
0.0
  0
SPLINE
  5
117
330
1F
100
AcDbEntity
  8
0
  6
Continuous
 62
     7
370
    25
100
AcDbSpline
210
0.0
220
0.0
230
1.0
 70
     8
 71
     3
 72
   112
 73
   108
 74
     0
 42
0.000000001
 43
0.00000001
 40
0.0
 40
0.0
 40
0.0
 40
0.0
 40
0.0341483999752234
 40
0.107778048976884
 40
0.2049940400995704
 40
0.2550788595085483
 40
0.3003780444591282
 40
0.3390315980012935
 40
0.3552855863592115
 40
0.3691819538248282
 40
0.3804887315043901
 40
0.3850984752446239
 40
0.3889754217161598
 40
0.3920934198114752
 40
0.3933594582950131
 40
0.3944277048192208
 40
0.3952984177489681
 40
0.3956599600669558
 40
0.3959749312444114
 40
0.3962471961678222
 40
0.3963694322332614
 40
0.3964858631916551
 40
0.3965987594319935
 40
0.3967121861654573
 40
0.3968437466852953
 40
0.3970235657607616
 40
0.3979508392795742
 40
0.3990002813458246
 40
0.4002680071329305
 40
0.4017793829812895
 40
0.4035239290547055
 40
0.4054846801736958
 40
0.4099691356235073
 40
0.4150398553359015
 40
0.4204959143560422
 40
0.4266652701392266
 40
0.431884520989519
 40
0.4361627764922532
 40
0.437957712507845
 40
0.4395352778414536
 40
0.4409122115206053
 40
0.4421216015500901
 40
0.4431973471844727
 40
0.4441938413465476
 40
0.4445026298482825
 40
0.4449061889408513
 40
0.4454452502690463
 40
0.4461373814025782
 40
0.4469724374736895
 40
0.4479492168089456
 40
0.4503193964403368
 40
0.453227454036544
 40
0.4566531624162832
 40
0.4649750298333629
 40
0.4751173144827855
 40
0.4869117710807346
 40
0.5147844352768816
 40
0.547246353897041
 40
0.5829499364839003
 40
0.6183194819784753
 40
0.6498485341282173
 40
0.6762788974758079
 40
0.6871891873075363
 40
0.6963520317473745
 40
0.7036084449929205
 40
0.7064728676695322
 40
0.708798600461465
 40
0.7105604668478129
 40
0.7105904784681987
 40
0.7106115561250316
 40
0.7106401448789321
 40
0.7112216005825835
 40
0.7118719079366395
 40
0.7126331535005965
 40
0.7149632932475248
 40
0.7178118060518867
 40
0.7211570438980559
 40
0.7292544490735756
 40
0.7390927012660653
 40
0.7505090702243873
 40
0.7774232172821532
 40
0.8086917370402938
 40
0.843010736186287
 40
0.8773142890978768
 40
0.9085316802993613
 40
0.9353669994861868
 40
0.9467367950584145
 40
0.9565263437275568
 40
0.9645747025232217
 40
0.9678955380709643
 40
0.9707223230947134
 40
0.9730380649012157
 40
0.9739991593004
 40
0.9748278757852439
 40
0.9755244420940802
 40
0.9760783182596272
 40
0.9765265613376187
 40
0.9769502355745446
 40
0.977991154389982
 40
0.9791741328209852
 40
0.9805357399837998
 40
0.9820870228166554
 40
0.9838229900316209
 40
0.9857333907234749
 40
0.9900226290630417
 40
0.9948250493632923
 40
0.9999980002229847
 40
0.9999980002229847
 40
0.9999980002229847
 40
0.9999980002229847
 10
-47.812328
 20
-19.588089
 30
0.0
 10
-47.62994181384809
 20
-18.67314595018486
 30
0.0
 10
-47.05430057390563
 20
-15.78543300007346
 30
0.0
 10
-45.98621201438574
 20
-10.28771458852641
 30
0.0
 10
-44.82977101684376
 20
-4.363658515914082
 30
0.0
 10
-43.83518842947683
 20
0.8033874039070693
 30
0.0
 10
-43.15906806854819
 20
4.40238263718258
 30
0.0
 10
-42.66544006918501
 20
7.095203189232553
 30
0.0
 10
-42.33621071598483
 20
8.945894144268104
 30
0.0
 10
-42.14285934112291
 20
10.06189231523598
 30
0.0
 10
-42.00881221674097
 20
10.86529385699385
 30
0.0
 10
-41.92430400622716
 20
11.39941678100164
 30
0.0
 10
-41.87711994694916
 20
11.71293239334131
 30
0.0
 10
-41.84601819769917
 20
11.93648117584359
 30
0.0
 10
-41.82768463917778
 20
12.08431029726564
 30
0.0
 10
-41.81809998468586
 20
12.17134786257173
 30
0.0
 10
-41.81245836791938
 20
12.23395411723551
 30
0.0
 10
-41.80975368652525
 20
12.27613913147405
 30
0.0
 10
-41.80864866876936
 20
12.30204241755033
 30
0.0
 10
-41.80861218140956
 20
12.32142746703812
 30
0.0
 10
-41.80894356208766
 20
12.335388481884
 30
0.0
 10
-41.80986046245054
 20
12.34495491585511
 30
0.0
 10
-41.81097077310507
 20
12.35425206930748
 30
0.0
 10
-41.8122886204331
 20
12.3639425803686
 30
0.0
 10
-41.81532637577109
 20
12.37522218746438
 30
0.0
 10
-41.83157579344041
 20
12.40512956454802
 30
0.0
 10
-41.8747649247377
 20
12.44780597365111
 30
0.0
 10
-41.95509750559391
 20
12.48672352328312
 30
0.0
 10
-42.05431650199716
 20
12.51995109955268
 30
0.0
 10
-42.17359772271799
 20
12.5526054949119
 30
0.0
 10
-42.31320214729798
 20
12.58161978856584
 30
0.0
 10
-42.5339327543043
 20
12.61846248265081
 30
0.0
 10
-42.84668993532994
 20
12.65439387276543
 30
0.0
 10
-43.25603129195466
 20
12.68162673037107
 30
0.0
 10
-43.71221041103779
 20
12.69085832188903
 30
0.0
 10
-44.17248457751882
 20
12.68245061509453
 30
0.0
 10
-44.59976077893886
 20
12.65453219103067
 30
0.0
 10
-44.90596666808999
 20
12.61307231873887
 30
0.0
 10
-45.11005754687827
 20
12.56732483941823
 30
0.0
 10
-45.23437110622979
 20
12.52957873653544
 30
0.0
 10
-45.33959896782449
 20
12.48573866029767
 30
0.0
 10
-45.42631500431426
 20
12.43495967647479
 30
0.0
 10
-45.49371373909982
 20
12.37459495753405
 30
0.0
 10
-45.52827090953655
 20
12.3178641736066
 30
0.0
 10
-45.54238922368556
 20
12.27331292550761
 30
0.0
 10
-45.5507907920294
 20
12.24016675366465
 30
0.0
 10
-45.56108406769991
 20
12.19670787600573
 30
0.0
 10
-45.57375935191033
 20
12.14169786308452
 30
0.0
 10
-45.58851641202881
 20
12.07489893660911
 30
0.0
 10
-45.61272651844872
 20
11.96323951908613
 30
0.0
 10
-45.64810398170193
 20
11.79605168237809
 30
0.0
 10
-45.69629508993503
 20
11.56319144267979
 30
0.0
 10
-45.77624230088309
 20
11.17085773826808
 30
0.0
 10
-45.89362548027864
 20
10.58445245721087
 30
0.0
 10
-46.05383170036683
 20
9.773450757195452
 30
0.0
 10
-46.3150741971004
 20
8.43795490223705
 30
0.0
 10
-46.68907017657833
 20
6.503183842760992
 30
0.0
 10
-47.18270794112212
 20
3.926246293691942
 30
0.0
 10
-47.70752787670762
 20
1.146755989143932
 30
0.0
 10
-48.23274979811534
 20
-1.606732302017054
 30
0.0
 10
-48.72779860277306
 20
-4.108001139108054
 30
0.0
 10
-49.10553565685768
 20
-5.951267084815584
 30
0.0
 10
-49.37134867265451
 20
-7.19363803429772
 30
0.0
 10
-49.53267925362149
 20
-7.922676124977103
 30
0.0
 10
-49.65284491019466
 20
-8.435610540372448
 30
0.0
 10
-49.73415060575866
 20
-8.765844840327544
 30
0.0
 10
-49.78505412576413
 20
-8.948795426421093
 30
0.0
 10
-49.81218287535255
 20
-9.058078620545805
 30
0.0
 10
-49.82991670121979
 20
-9.10449485901759
 30
0.0
 10
-49.83078154961029
 20
-9.1064643541421
 30
0.0
 10
-49.83565482305935
 20
-9.124202826570658
 30
0.0
 10
-49.84180748122466
 20
-9.045034078463917
 30
0.0
 10
-49.85408272591221
 20
-9.011943708695199
 30
0.0
 10
-49.87498726079453
 20
-8.902265889457542
 30
0.0
 10
-49.90776183164507
 20
-8.750243500426109
 30
0.0
 10
-49.95335829490808
 20
-8.51895428790337
 30
0.0
 10
-50.02853785914806
 20
-8.137114272946333
 30
0.0
 10
-50.13807701844581
 20
-7.56532705107471
 30
0.0
 10
-50.28681337561789
 20
-6.777658650164701
 30
0.0
 10
-50.52794351289894
 20
-5.48381399828886
 30
0.0
 10
-50.87122473397046
 20
-3.613673809956351
 30
0.0
 10
-51.3222388061217
 20
-1.127038017190374
 30
0.0
 10
-51.80113701036755
 20
1.559655509082596
 30
0.0
 10
-52.28427466566881
 20
4.244194650683116
 30
0.0
 10
-52.74747378004034
 20
6.724528396481486
 30
0.0
 10
-53.10702300810006
 20
8.586799293040222
 30
0.0
 10
-53.36495638581567
 20
9.872414257502236
 30
0.0
 10
-53.5267534132159
 20
10.65380642534367
 30
0.0
 10
-53.6486936783112
 20
11.21887514196587
 30
0.0
 10
-53.73461805240855
 20
11.59708047548295
 30
0.0
 10
-53.78805528442622
 20
11.82204555501542
 30
0.0
 10
-53.8288087206857
 20
11.98375350091277
 30
0.0
 10
-53.8582266328653
 20
12.09199519188831
 30
0.0
 10
-53.8769281385124
 20
12.15730066284362
 30
0.0
 10
-53.89418236906616
 20
12.2114411304549
 30
0.0
 10
-53.90859654248812
 20
12.25550907308959
 30
0.0
 10
-53.92245612939561
 20
12.29208095114505
 30
0.0
 10
-53.9513601891943
 20
12.33606419075205
 30
0.0
 10
-54.00630957306216
 20
12.38464061821323
 30
0.0
 10
-54.09066640276901
 20
12.43487451878942
 30
0.0
 10
-54.19359359547686
 20
12.47937550144749
 30
0.0
 10
-54.31382713781363
 20
12.52054483952569
 30
0.0
 10
-54.45101859938436
 20
12.55754077666161
 30
0.0
 10
-54.663008743317
 20
12.60330742419267
 30
0.0
 10
-54.96061657633464
 20
12.64739580321942
 30
0.0
 10
-55.34915640526605
 20
12.68132850622683
 30
0.0
 10
-55.6217292581039
 20
12.68556865433879
 30
0.0
 10
-55.763078
 20
12.68777
 30
0.0
  0
LINE
  5
118
330
1F
100
AcDbEntity
  8
0
  6
Continuous
 62
     7
370
    25
100
AcDbLine
 10
-48.103005
 20
-20.946927
 30
0.0
 11
-47.812328
 21
-19.588089
 31
0.0
  0
LINE
  5
119
330
1F
100
AcDbEntity
  8
0
  6
Continuous
 62
     7
370
    25
100
AcDbLine
 10
-51.42379
 20
-20.946927
 30
0.0
 11
-48.103005
 21
-20.946927
 31
0.0
  0
LINE
  5
11A
330
1F
100
AcDbEntity
  8
0
  6
Continuous
 62
     7
370
    25
100
AcDbLine
 10
-51.703289
 20
-19.587665
 30
0.0
 11
-51.42379
 21
-20.946927
 31
0.0
  0
ENDSEC
  0
SECTION
  2
OBJECTS
  0
DICTIONARY
  5
C
330
0
100
AcDbDictionary
281
     1
  3
ACAD_GROUP
350
D
  3
ACAD_LAYOUT
350
1A
  3
ACAD_MLINESTYLE
350
17
  3
ACAD_PLOTSETTINGS
350
19
  3
ACAD_PLOTSTYLENAME
350
E
  3
ACAD_SCALELIST
350
47
  0
DICTIONARY
  5
D
102
{ACAD_REACTORS
330
C
102
}
330
C
100
AcDbDictionary
281
     1
  0
DICTIONARY
  5
1A
102
{ACAD_REACTORS
330
C
102
}
330
C
100
AcDbDictionary
281
     1
  3
Layout1
350
1E
  3
Layout2
350
26
  3
Model
350
22
  0
DICTIONARY
  5
17
102
{ACAD_REACTORS
330
C
102
}
330
C
100
AcDbDictionary
281
     1
  3
Standard
350
18
  0
DICTIONARY
  5
19
102
{ACAD_REACTORS
330
C
102
}
330
C
100
AcDbDictionary
281
     1
  0
ACDBDICTIONARYWDFLT
  5
E
102
{ACAD_REACTORS
330
C
102
}
330
C
100
AcDbDictionary
281
     1
  3
Normal
350
F
100
AcDbDictionaryWithDefault
340
F
  0
DICTIONARY
  5
47
102
{ACAD_REACTORS
330
C
102
}
330
C
100
AcDbDictionary
281
     1
  3
A0
350
48
  3
A1
350
49
  3
A2
350
4A
  3
A3
350
4B
  3
A4
350
4C
  3
A5
350
4D
  3
A6
350
4E
  3
A7
350
4F
  3
A8
350
50
  3
A9
350
51
  3
B0
350
52
  3
B1
350
53
  3
B2
350
54
  3
B3
350
55
  3
B4
350
56
  3
B5
350
57
  3
B6
350
58
  3
B7
350
59
  3
B8
350
5A
  3
B9
350
5B
  3
C0
350
5C
  3
C1
350
5D
  3
C2
350
5E
  3
C3
350
5F
  3
C4
350
60
  3
C5
350
61
  3
C6
350
62
  3
C7
350
63
  3
C8
350
64
  3
C9
350
65
  3
D0
350
66
  3
D1
350
67
  3
D2
350
68
  0
LAYOUT
  5
1E
102
{ACAD_REACTORS
330
1A
102
}
330
1A
100
AcDbPlotSettings
  1

  2
none_device
  4

  6

 40
0.0
 41
0.0
 42
0.0
 43
0.0
 44
0.0
 45
0.0
 46
0.0
 47
0.0
 48
0.0
 49
0.0
140
0.0
141
0.0
142
1.0
143
1.0
 70
   688
 72
     1
 73
     0
 74
     5
  7

 75
    16
147
1.0
148
0.0
149
0.0
100
AcDbLayout
  1
Layout1
 70
     1
 71
     1
 10
0.0
 20
0.0
 11
420.0
 21
297.0
 12
0.0
 22
0.0
 32
0.0
 14
1.0000000000E+20
 24
1.0000000000E+20
 34
1.0000000000E+20
 15
-1.0000000000E+20
 25
-1.0000000000E+20
 35
-1.0000000000E+20
146
0.0
 13
0.0
 23
0.0
 33
0.0
 16
1.0
 26
0.0
 36
0.0
 17
0.0
 27
1.0
 37
0.0
 76
     0
330
1B
  0
LAYOUT
  5
26
102
{ACAD_REACTORS
330
1A
102
}
330
1A
100
AcDbPlotSettings
  1

  2
none_device
  4

  6

 40
0.0
 41
0.0
 42
0.0
 43
0.0
 44
0.0
 45
0.0
 46
0.0
 47
0.0
 48
0.0
 49
0.0
140
0.0
141
0.0
142
1.0
143
1.0
 70
   688
 72
     1
 73
     0
 74
     5
  7

 75
    16
147
1.0
148
0.0
149
0.0
100
AcDbLayout
  1
Layout2
 70
     1
 71
     2
 10
0.0
 20
0.0
 11
0.0
 21
0.0
 12
0.0
 22
0.0
 32
0.0
 14
0.0
 24
0.0
 34
0.0
 15
0.0
 25
0.0
 35
0.0
146
0.0
 13
0.0
 23
0.0
 33
0.0
 16
1.0
 26
0.0
 36
0.0
 17
0.0
 27
1.0
 37
0.0
 76
     0
330
23
  0
LAYOUT
  5
22
102
{ACAD_REACTORS
330
1A
102
}
330
1A
100
AcDbPlotSettings
  1

  2
none_device
  4
ANSI_A_(11.00_x_8.50_Inches)
  6

 40
6.35
 41
19.05
 42
6.35000508
 43
19.05000254
 44
279.4
 45
215.9
 46
129.4813820754
 47
88.89999873
 48
0.0
 49
0.0
140
0.0
141
0.0
142
0.0380769231
143
1.0
 70
  1696
 72
     0
 73
     0
 74
     0
  7

 75
     0
147
0.0179189148
148
-1300.4909072572
149
0.0
100
AcDbLayout
  1
Model
 70
     1
 71
     0
 10
0.0
 20
0.0
 11
420.0
 21
297.0
 12
0.0
 22
0.0
 32
0.0
 14
-139.0
 24
-81.0
 34
0.0
 15
147.0
 25
81.0
 35
0.0
146
0.0
 13
0.0
 23
0.0
 33
0.0
 16
1.0
 26
0.0
 36
0.0
 17
0.0
 27
1.0
 37
0.0
 76
     0
330
1F
331
29
  0
MLINESTYLE
  5
18
102
{ACAD_REACTORS
330
17
102
}
330
17
100
AcDbMlineStyle
  2
Standard
 70
     0
  3

 62
   256
 51
90.0
 52
90.0
 71
     2
 49
0.5
 62
   256
  6
BYLAYER
 49
-0.5
 62
   256
  6
BYLAYER
  0
ACDBPLACEHOLDER
  5
F
102
{ACAD_REACTORS
330
E
102
}
330
E
  0
SCALE
  5
48
102
{ACAD_REACTORS
330
47
102
}
330
47
100
AcDbScale
 70
     0
300
1:1
140
1.0
141
1.0
290
     1
  0
SCALE
  5
49
102
{ACAD_REACTORS
330
47
102
}
330
47
100
AcDbScale
 70
     0
300
1:2
140
1.0
141
2.0
290
     0
  0
SCALE
  5
4A
102
{ACAD_REACTORS
330
47
102
}
330
47
100
AcDbScale
 70
     0
300
1:4
140
1.0
141
4.0
290
     0
  0
SCALE
  5
4B
102
{ACAD_REACTORS
330
47
102
}
330
47
100
AcDbScale
 70
     0
300
1:5
140
1.0
141
5.0
290
     0
  0
SCALE
  5
4C
102
{ACAD_REACTORS
330
47
102
}
330
47
100
AcDbScale
 70
     0
300
1:8
140
1.0
141
8.0
290
     0
  0
SCALE
  5
4D
102
{ACAD_REACTORS
330
47
102
}
330
47
100
AcDbScale
 70
     0
300
1:10
140
1.0
141
10.0
290
     0
  0
SCALE
  5
4E
102
{ACAD_REACTORS
330
47
102
}
330
47
100
AcDbScale
 70
     0
300
1:16
140
1.0
141
16.0
290
     0
  0
SCALE
  5
4F
102
{ACAD_REACTORS
330
47
102
}
330
47
100
AcDbScale
 70
     0
300
1:20
140
1.0
141
20.0
290
     0
  0
SCALE
  5
50
102
{ACAD_REACTORS
330
47
102
}
330
47
100
AcDbScale
 70
     0
300
1:30
140
1.0
141
30.0
290
     0
  0
SCALE
  5
51
102
{ACAD_REACTORS
330
47
102
}
330
47
100
AcDbScale
 70
     0
300
1:40
140
1.0
141
40.0
290
     0
  0
SCALE
  5
52
102
{ACAD_REACTORS
330
47
102
}
330
47
100
AcDbScale
 70
     0
300
1:50
140
1.0
141
50.0
290
     0
  0
SCALE
  5
53
102
{ACAD_REACTORS
330
47
102
}
330
47
100
AcDbScale
 70
     0
300
1:100
140
1.0
141
100.0
290
     0
  0
SCALE
  5
54
102
{ACAD_REACTORS
330
47
102
}
330
47
100
AcDbScale
 70
     0
300
2:1
140
2.0
141
1.0
290
     0
  0
SCALE
  5
55
102
{ACAD_REACTORS
330
47
102
}
330
47
100
AcDbScale
 70
     0
300
4:1
140
4.0
141
1.0
290
     0
  0
SCALE
  5
56
102
{ACAD_REACTORS
330
47
102
}
330
47
100
AcDbScale
 70
     0
300
8:1
140
8.0
141
1.0
290
     0
  0
SCALE
  5
57
102
{ACAD_REACTORS
330
47
102
}
330
47
100
AcDbScale
 70
     0
300
10:1
140
10.0
141
1.0
290
     0
  0
SCALE
  5
58
102
{ACAD_REACTORS
330
47
102
}
330
47
100
AcDbScale
 70
     0
300
100:1
140
100.0
141
1.0
290
     0
  0
SCALE
  5
59
102
{ACAD_REACTORS
330
47
102
}
330
47
100
AcDbScale
 70
     0
300
1/128" = 1'-0"
140
0.0078125
141
12.0
290
     0
  0
SCALE
  5
5A
102
{ACAD_REACTORS
330
47
102
}
330
47
100
AcDbScale
 70
     0
300
1/64" = 1'-0"
140
0.015625
141
12.0
290
     0
  0
SCALE
  5
5B
102
{ACAD_REACTORS
330
47
102
}
330
47
100
AcDbScale
 70
     0
300
1/32" = 1'-0"
140
0.03125
141
12.0
290
     0
  0
SCALE
  5
5C
102
{ACAD_REACTORS
330
47
102
}
330
47
100
AcDbScale
 70
     0
300
1/16" = 1'-0"
140
0.0625
141
12.0
290
     0
  0
SCALE
  5
5D
102
{ACAD_REACTORS
330
47
102
}
330
47
100
AcDbScale
 70
     0
300
3/32" = 1'-0"
140
0.09375
141
12.0
290
     0
  0
SCALE
  5
5E
102
{ACAD_REACTORS
330
47
102
}
330
47
100
AcDbScale
 70
     0
300
1/8" = 1'-0"
140
0.125
141
12.0
290
     0
  0
SCALE
  5
5F
102
{ACAD_REACTORS
330
47
102
}
330
47
100
AcDbScale
 70
     0
300
3/16" = 1'-0"
140
0.1875
141
12.0
290
     0
  0
SCALE
  5
60
102
{ACAD_REACTORS
330
47
102
}
330
47
100
AcDbScale
 70
     0
300
1/4" = 1'-0"
140
0.25
141
12.0
290
     0
  0
SCALE
  5
61
102
{ACAD_REACTORS
330
47
102
}
330
47
100
AcDbScale
 70
     0
300
3/8" = 1'-0"
140
0.375
141
12.0
290
     0
  0
SCALE
  5
62
102
{ACAD_REACTORS
330
47
102
}
330
47
100
AcDbScale
 70
     0
300
1/2" = 1'-0"
140
0.5
141
12.0
290
     0
  0
SCALE
  5
63
102
{ACAD_REACTORS
330
47
102
}
330
47
100
AcDbScale
 70
     0
300
3/4" = 1'-0"
140
0.75
141
12.0
290
     0
  0
SCALE
  5
64
102
{ACAD_REACTORS
330
47
102
}
330
47
100
AcDbScale
 70
     0
300
1" = 1'-0"
140
1.0
141
12.0
290
     0
  0
SCALE
  5
65
102
{ACAD_REACTORS
330
47
102
}
330
47
100
AcDbScale
 70
     0
300
1-1/2" = 1'-0"
140
1.5
141
12.0
290
     0
  0
SCALE
  5
66
102
{ACAD_REACTORS
330
47
102
}
330
47
100
AcDbScale
 70
     0
300
3" = 1'-0"
140
3.0
141
12.0
290
     0
  0
SCALE
  5
67
102
{ACAD_REACTORS
330
47
102
}
330
47
100
AcDbScale
 70
     0
300
6" = 1'-0"
140
6.0
141
12.0
290
     0
  0
SCALE
  5
68
102
{ACAD_REACTORS
330
47
102
}
330
47
100
AcDbScale
 70
     0
300
1'-0" = 1'-0"
140
12.0
141
12.0
290
     0
  0
ENDSEC
  0
EOF
