0
SECTION
2
HEADER
9
$INSUNITS
70
4
9
$ACADVER
1
AC1014
9
$HANDSEED
5
FFFF
0
ENDSEC
0
SECTION
2
TABLES
0
TABLE
2
VPORT
5
8
100
AcDbSymbolTable
0
ENDTAB
0
TABLE
2
LTYPE
5
5
100
AcDbSymbolTable
0
LTYPE
5
14
100
AcDbSymbolTableRecord
100
AcDbLinetypeTableRecord
2
BYBLOCK
70
0
0
LTYPE
5
15
100
AcDbSymbolTableRecord
100
AcDbLinetypeTableRecord
2
BYLAYER
70
0
0
ENDTAB
0
TABLE
2
LAYER
5
2
100
AcDbSymbolTable
70
2
0
LAYER
5
50
100
AcDbSymbolTableRecord
100
AcDbLayerTableRecord
2
0
70
0
6
CONTINUOUS
0
ENDTAB
0
TABLE
2
STYLE
5
3
100
AcDbSymbolTable
70
1
0
STYLE
5
11
100
AcDbSymbolTableRecord
100
AcDbTextStyleTableRecord
2
STANDARD
70
0
0
ENDTAB
0
TABLE
2
VIEW
5
6
100
AcDbSymbolTable
70
0
0
ENDTAB
0
TABLE
2
UCS
5
7
100
AcDbSymbolTable
70
0
0
ENDTAB
0
TABLE
2
APPID
5
9
100
AcDbSymbolTable
70
2
0
APPID
5
12
100
AcDbSymbolTableRecord
100
AcDbRegAppTableRecord
2
ACAD
70
0
0
ENDTAB
0
TABLE
2
DIMSTYLE
5
A
100
AcDbSymbolTable
70
1
0
ENDTAB
0
TABLE
2
BLOCK_RECORD
5
1
100
AcDbSymbolTable
70
1
0
BLOCK_RECORD
5
1F
100
AcDbSymbolTableRecord
100
AcDbBlockTableRecord
2
*MODEL_SPACE
0
BLOCK_RECORD
5
1B
100
AcDbSymbolTableRecord
100
AcDbBlockTableRecord
2
*PAPER_SPACE
0
ENDTAB
0
ENDSEC
0
SECTION
2
BLOCKS
0
BLOCK
5
20
100
AcDbEntity
100
AcDbBlockBegin
2
*MODEL_SPACE
0
ENDBLK
5
21
100
AcDbEntity
100
AcDbBlockEnd
0
BLOCK
5
1C
100
AcDbEntity
100
AcDbBlockBegin
2
*PAPER_SPACE
0
ENDBLK
5
1D
100
AcDbEntity
100
AcDbBlockEnd
0
ENDSEC
0
SECTION
2
ENTITIES
0
LWPOLYLINE
5
100
100
AcDbEntity
8
0
100
AcDbPolyline
90
186
70
1
43
0.0
10
79.99016048086213
20
-60.748530845122133
10
79.745984610477166
20
-61.069363559098505
10
79.516304801618332
20
-61.407761201165258
10
79.301294528321918
20
-61.763508911734689
10
79.101127264624125
20
-62.136391831219235
10
78.915976484561
20
-62.526195100031202
10
78.74601566216873
20
-62.93270385858289
10
78.452357786541413
20
-63.794978406554975
10
78.221541430031479
20
-64.721496598434186
10
78.054954384928195
20
-65.71053955751934
10
77.953984443520724
20
-66.76038840710909
10
77.920019398098447
20
-67.869324270502304
10
77.920019398098447
20
-68.951235137557518
10
81.362915190741703
20
-68.951235137557518
10
81.362915190741703
20
-67.869324270502304
10
81.394681084777204
20
-66.920547453679703
10
81.440241846286042
20
-66.410300959801845
10
81.5107908343129
20
-65.887002095327333
10
81.6102303115008
20
-65.358790625041948
10
81.742462540492681
20
-64.833806313731344
10
81.91138978393154
20
-64.320188926181388
10
82.120914304460285
20
-63.826078227177817
10
82.374938364722183
20
-63.359613981506442
10
82.677364227359774
20
-62.928935953952951
10
83.032094155016296
20
-62.542183909303155
10
83.443030410334757
20
-62.20749761234282
10
83.670795367943185
20
-62.062222795741761
10
83.914075255958082
20
-61.933016827857713
10
84.173357857209908
20
-61.820897179288906
10
84.449130954529167
20
-61.726881320633566
10
84.741882330745966
20
-61.651986722489944
10
85.052099768691107
20
-61.597230855456182
10
85.380271051194555
20
-61.563631190130579
10
85.726883961086813
20
-61.552205197111348
10
86.370391484085843
20
-61.591487052873447
10
86.950168659324717
20
-61.705437790991375
10
87.469280586512383
20
-61.888215167712374
10
87.930792365357519
20
-62.133976939283869
10
88.337769095568859
20
-62.436880861953163
10
88.693275876855125
20
-62.791084691967463
10
89.000377808925009
20
-63.190746185574227
10
89.262139991487302
20
-63.630023099020683
10
89.48162752425074
20
-64.103073188554248
10
89.661905506924086
20
-64.60405421042222
10
89.80603903921596
20
-65.127123920871924
10
89.917093220835227
20
-65.666440076150607
10
89.998133151490478
20
-66.216160432505632
10
90.052223930890648
20
-66.770442746184401
10
90.091818434760228
20
-67.869324270502304
10
90.091818434760228
20
-85.150918686484843
10
90.082430658744244
20
-85.696465051111062
10
90.052223930890648
20
-86.249153008394472
10
89.998133151490492
20
-86.803140649870841
10
89.917093220835227
20
-87.352586067076047
10
89.806039039215918
20
-87.891647351545828
10
89.661905506924086
20
-88.414482594815937
10
89.48162752425074
20
-88.91524988842221
10
89.262139991487302
20
-89.3881073239004
10
89.000377808925009
20
-89.827212992786372
10
88.693275876855125
20
-90.226724986615849
10
88.337769095568831
20
-90.580801396924628
10
87.930792365357519
20
-90.883600315248543
10
87.469280586512383
20
-91.129279833123348
10
87.217116210193183
20
-91.228874220497232
10
86.950168659324703
20
-91.311998042084795
10
86.668054796443457
20
-91.377921059328003
10
86.370391484085772
20
-91.42591303366882
10
85.72688396108677
20
-91.465182899411062
10
85.380271051194484
20
-91.453759912199629
10
85.05209976869105
20
-91.42016923618678
10
84.741882330746009
20
-91.365428299804705
10
84.449130954529124
20
-91.29055453148537
10
84.173357857210007
20
-91.196565359661079
10
83.914075255958167
20
-91.084478212763827
10
83.670795367943228
20
-90.955310519225762
10
83.443030410334728
20
-90.810079707479019
10
83.032094155016338
20
-90.475498443088156
10
82.677364227359817
20
-90.088873847048063
10
82.37493836472224
20
-89.65834534681585
10
82.120914304460257
20
-89.192052369848426
10
81.91138978393154
20
-88.698134343602902
10
81.742462540492681
20
-88.184730695536302
10
81.610230311500814
20
-87.659980853105509
10
81.510790834312985
20
-87.132024243767617
10
81.440241846286057
20
-86.609000294979651
10
81.394681084777218
20
-86.099048434198536
10
81.362915190741717
20
-85.150918686484914
10
81.362915190741717
20
-84.06832254149073
10
77.920019398098447
20
-84.06832254149073
10
77.920019398098447
20
-85.150918686484843
10
77.953984443520724
20
-86.259374250783679
10
78.054954384928195
20
-87.308845245017892
10
78.221541430031465
20
-88.297602932733867
10
78.452357786541427
20
-89.223918577477889
10
78.746015662168759
20
-90.086063442796302
10
79.101127264624154
20
-90.882308792235307
10
79.301294528321961
20
-91.255178918358268
10
79.516304801618361
20
-91.610925889341303
10
79.745984610477137
20
-91.949333613127521
10
79.99016048086213
20
-92.270185997660477
10
80.248658938737236
20
-92.573266950883323
10
80.521306510066267
20
-92.85836038073937
10
80.807929720813064
20
-93.125250195171873
10
81.108355096941537
20
-93.373720302124156
10
81.42240916441537
20
-93.60355460953943
10
81.749918449198461
20
-93.814537025361076
10
82.090709477254777
20
-94.006451457532378
10
82.444608774548001
20
-94.179081813996561
10
82.811442867042103
20
-94.332212002696991
10
83.191038280700951
20
-94.465625931576881
10
83.583221541488228
20
-94.579107508579611
10
83.987819175367889
20
-94.672440641648365
10
84.404657708303702
20
-94.745409238726509
10
84.833563666259536
20
-94.79779720775727
10
85.274363575199288
20
-94.829388456684029
10
85.72688396108677
20
-94.839966893449969
10
86.185828941453977
20
-94.829648494993251
10
86.63223774856236
20
-94.798803807664086
10
87.065977026014721
20
-94.747598593523861
10
87.486913417414129
20
-94.676198614633847
10
87.894913566363485
20
-94.584769633055501
10
88.289844116465815
20
-94.473477410850165
10
88.671571711323892
20
-94.34248771007924
10
89.039962994541
20
-94.19196629280404
10
89.394884609719853
20
-94.022078921085935
10
89.736203200463535
20
-93.832991356986327
10
90.063785410374862
20
-93.624869362566585
10
90.377497883056833
20
-93.397878699888054
10
90.677207262112489
20
-93.152185131012175
10
90.962780191144873
20
-92.887954418000206
10
91.234083313756699
20
-92.605352322913589
10
91.490983273551194
20
-92.304544607813682
10
91.733346714130988
20
-91.98569703476187
10
91.961040279099279
20
-91.648975365819481
10
92.173930612059095
20
-91.294545363047916
10
92.37188435661318
20
-90.922572788508532
10
92.554768156364645
20
-90.533223404262714
10
92.722448654916349
20
-90.126662972371804
10
93.011666322832539
20
-89.262572013900225
10
93.238470509185319
20
-88.331626009584767
10
93.401794362798569
20
-87.335151055916441
10
93.50057103249577
20
-86.274473249386148
10
93.533733667100677
20
-85.150918686484843
10
93.533733667100677
20
-67.869324270502304
10
93.50057103249577
20
-66.745646600389705
10
93.401794362798569
20
-65.684856054257082
10
93.238470509185319
20
-64.688278393959834
10
93.011666322832539
20
-63.757239381353315
10
92.722448654916349
20
-62.89306477829296
10
92.554768156364574
20
-62.486465930922428
10
92.37188435661318
20
-62.097080346634179
10
92.173930612059095
20
-61.725073745660204
10
91.961040279099279
20
-61.37061184823235
10
91.733346714130988
20
-61.033860374582588
10
91.490983273551123
20
-60.714985044942878
10
91.234083313756699
20
-60.414151579545091
10
90.962780191144915
20
-60.131525698621182
10
90.677207262112489
20
-59.867273122403034
10
90.377497883056833
20
-59.621559571122624
10
90.063785410374862
20
-59.394550765011864
10
89.736203200463493
20
-59.186412424302603
10
89.394884609719853
20
-58.997310269226887
10
89.039962994541
20
-58.827410020016572
10
88.671571711323892
20
-58.676877396903606
10
88.289844116465815
20
-58.545878120119887
10
87.894913566363485
20
-58.434577909897349
10
87.486913417414129
20
-58.343142486467926
10
87.065977026014721
20
-58.271737570063507
10
86.63223774856236
20
-58.220528880916135
10
86.185828941453977
20
-58.189682139257606
10
85.726883961086727
20
-58.179363065319905
10
85.27436357519926
20
-58.189936025928866
10
84.833563666259494
20
-58.221511668030779
10
84.404657708303631
20
-58.273875132037873
10
83.987819175367832
20
-58.346811558362539
10
83.5832215414882
20
-58.440106087417107
10
83.191038280700894
20
-58.553543859613967
10
82.811442867042132
20
-58.686910015365399
10
82.444608774548016
20
-58.839989695083794
10
82.090709477254777
20
-59.01256803918146
10
81.749918449198461
20
-59.204430188070774
10
81.422409164415342
20
-59.415361282164056
10
81.108355096941466
20
-59.645146461873665
10
80.80792972081305
20
-59.893570867611899
10
80.521306510066267
20
-60.160419639791201
10
80.24865893873725
20
-60.445477918823833
0
LWPOLYLINE
5
101
100
AcDbEntity
8
0
100
AcDbPolyline
90
86
70
1
43
0.0
10
135.47984032377821
20
-58.312430972311233
10
135.24211998924147
20
-58.353004242759496
10
134.81294521472068
20
-58.450023939416965
10
134.39809906696314
20
-58.568258168634664
10
133.99767798934963
20
-58.70758090607724
10
133.61177842526163
20
-58.867866127409357
10
133.24049681808015
20
-59.048987808295578
10
132.88392961118655
20
-59.25081992440056
10
132.54217324796167
20
-59.473236451388985
10
132.21532417178673
20
-59.716111364925396
10
131.90347882604314
20
-59.97931864067445
10
131.60673365411191
20
-60.26273225430073
10
131.3251850993741
20
-60.566226181468949
10
131.05892960521103
20
-60.889674397843727
10
130.80806361500387
20
-61.232950879089572
10
130.57268357213363
20
-61.595929600871244
10
130.35288591998156
20
-61.978484538853266
10
130.1487671019288
20
-62.380489668700406
10
129.96042356135658
20
-62.801818966077114
10
129.787951741646
20
-63.242346406648068
10
129.63144808617821
20
-63.701945966078029
10
129.49100903833428
20
-64.180491620031447
10
129.25871053904319
20
-65.193917114167462
10
129.09182779082184
20
-66.281614694373005
10
128.99113234071953
20
-67.442576165965292
10
128.95739573578561
20
-68.675793334261186
10
128.95739573578561
20
-84.343991842205952
10
128.97021217574451
20
-85.137299501496969
10
129.00803381747522
20
-85.891375735675766
10
129.06991914375894
20
-86.607141743004107
10
129.1549266373766
20
-87.285518721743784
10
129.26211478110926
20
-87.927427870156535
10
129.39054205773797
20
-88.533790386504322
10
129.53926695004373
20
-89.105527469048752
10
129.70734794080778
20
-89.643560316051619
10
129.89384351281103
20
-90.148810125774872
10
130.09781214883449
20
-90.622198096480105
10
130.3183123316594
20
-91.064645426429138
10
130.55440254406668
20
-91.477073313883864
10
130.80514126883719
20
-91.860402957105904
10
131.06958698875229
20
-92.215555554357152
10
131.34679818659293
20
-92.543452303899414
10
131.63583334514021
20
-92.845014403994412
10
131.93575094717511
20
-93.121163052904024
10
132.24560947547877
20
-93.372819448889928
10
132.56446741283213
20
-93.600904790213974
10
132.89138324201642
20
-93.806340275137927
10
133.22541544581242
20
-93.990047101923579
10
133.56562250700122
20
-94.152946468832695
10
134.26079513268192
20
-94.42000761606846
10
134.96936898130696
20
-94.614893302939578
10
135.47984032377821
20
-94.707835668835614
10
135.47984032377821
20
-91.17610710702715
10
135.4267408244595
20
-91.15680516219328
10
135.14744419265691
20
-91.028029029249751
10
134.88538512043164
20
-90.879628040678483
10
134.64003820463543
20
-90.71277076247884
10
134.41087804211961
20
-90.528625760650456
10
134.19737922973584
20
-90.328361601192739
10
133.81526404277005
20
-89.884150073387289
10
133.48948941855028
20
-89.38948470705833
10
133.21585213188854
20
-88.8537140302018
10
132.99014895759666
20
-88.286186570813499
10
132.80817667048692
20
-87.696250856889321
10
132.66573204537127
20
-87.093255416425265
10
132.55861185706178
20
-86.486548777416942
10
132.48261288037045
20
-85.885479467860449
10
132.43353189010941
20
-85.299396015751483
10
132.39931096812609
20
-84.20958079585985
10
132.39931096812609
20
-68.80929253381052
10
132.43353189010938
20
-67.709644674716827
10
132.48261288037045
20
-67.118209471763947
10
132.55861185706178
20
-66.511618913862179
10
132.66573204537124
20
-65.899312121502703
10
132.80817667048694
20
-65.290728215176898
10
132.99014895759666
20
-64.695306315375859
10
133.21585213188848
20
-64.122485542590994
10
133.48948941855028
20
-63.581705017313524
10
133.81526404277005
20
-63.082403860034631
10
134.19737922973584
20
-62.634021191245765
10
134.41087804211961
20
-62.431874015188583
10
134.64003820463546
20
-62.245996131438076
10
134.88538512043172
20
-62.077567430055666
10
135.14744419265696
20
-61.927767801102846
10
135.42674082445956
20
-61.797777134640924
10
135.47984032377821
20
-61.77829302488643
0
LWPOLYLINE
5
102
100
AcDbEntity
8
0
100
AcDbPolyline
90
47
70
1
43
0.0
10
187.81664933483972
20
-79.355294052432271
10
187.81664933483972
20
-75.447548386683337
10
181.205414908454
20
-78.73567161935128
10
181.20541490845395
20
-84.343991842205895
10
181.23917329466985
20
-85.577359655773051
10
181.33992928621689
20
-86.738432929202247
10
181.50690413244459
20
-87.82620748645698
10
181.73931908270234
20
-88.839679151500803
10
181.87982323726419
20
-89.318237594432262
10
182.03639538633968
20
-89.7778437482973
10
182.20893818609727
20
-90.218372091091439
10
182.39735429270584
20
-90.639697100810025
10
182.60154636233392
20
-91.041693255448536
10
182.82141705115035
20
-91.424235033002475
10
183.05686901532366
20
-91.787196911467191
10
183.3078049110226
20
-92.130453368838175
10
183.57412739441583
20
-92.453878883110917
10
183.85573912167195
20
-92.757347932280766
10
184.15254274895977
20
-93.040734994343183
10
184.46444093244787
20
-93.303914547293687
10
184.79133632830502
20
-93.546761069127655
10
185.13313159269981
20
-93.769149037840563
10
185.48972938180097
20
-93.970952931427803
10
185.86103235177717
20
-94.152047227884907
10
186.24694315879702
20
-94.312306405207224
10
186.64736445902923
20
-94.451604941390229
10
187.06219890864259
20
-94.5698173144294
10
187.49134916380558
20
-94.666818002320156
10
187.81664933483972
20
-94.722332390881775
10
187.81664933483972
20
-91.20801962560148
10
187.67572618786016
20
-91.156791045902764
10
187.39642975419281
20
-91.028009454660207
10
187.1343709073069
20
-90.879602422225247
10
186.88902424133343
20
-90.712738640075486
10
186.6598643504035
20
-90.528586799688554
10
186.44636582864834
20
-90.328315592542083
10
186.06425126918668
20
-89.884089843880943
10
185.73847731599727
20
-89.389410925913069
10
185.46484072212894
20
-88.853628370459433
10
185.23913824063061
20
-88.286091709341022
10
185.05716662455117
20
-87.696150474378783
10
184.91472262693952
20
-87.093154197393687
10
184.80760300084467
20
-86.486452410206766
10
184.73160449931532
20
-85.885394644638922
10
184.68252387540059
20
-85.299330432511169
10
184.64830327261012
20
-84.209580795859864
10
184.64830327261012
20
-80.939200474357179
0
LWPOLYLINE
5
103
100
AcDbEntity
8
0
100
AcDbPolyline
90
6
70
1
43
0.0
10
239.90981825292613
20
-103.5145381825125
10
245.08582838094736
20
-103.5145381825125
10
248.3943465554367
20
-100.20695971164662
10
243.35269918859512
20
-100.20695971164662
10
243.35269918859512
20
-58.716096787468217
10
239.90981825292621
20
-58.716096787468203
0
LWPOLYLINE
5
104
100
AcDbEntity
8
0
100
AcDbPolyline
90
139
70
1
43
0.0
10
194.05002688253435
20
-76.239129803275631
10
194.05002688253435
20
-84.209580795859864
10
194.01576604694145
20
-85.299330432511184
10
193.96664157935555
20
-85.885394644638922
10
193.89058914693706
20
-86.486452410206766
10
193.78340980095618
20
-87.093154197393716
10
193.640904592683
20
-87.696150474378797
10
193.45887457338804
20
-88.286091709341022
10
193.23312079434115
20
-88.853628370459433
10
192.95944430681271
20
-89.389410925913069
10
192.63364616207301
20
-89.884089843880943
10
192.25152741139212
20
-90.328315592542083
10
192.03803563734573
20
-90.528586799688554
10
191.80888910604037
20
-90.712738640075486
10
191.56356294888482
20
-90.879602422225247
10
191.41664933483978
20
-90.962810296387488
10
191.41664933483978
20
-94.619333200555076
10
191.63567186208329
20
-94.5698173144294
10
192.05041798120814
20
-94.451604941390229
10
192.45075204727044
20
-94.312306405207224
10
192.8365768919042
20
-94.152047227884907
10
193.20779534674347
20
-93.970952931427803
10
193.56431024342231
20
-93.769149037840563
10
193.90602441357473
20
-93.546761069127655
10
194.23284068883473
20
-93.303914547293687
10
194.54466190083636
20
-93.040734994343183
10
194.84139088121381
20
-92.757347932280766
10
195.12293046160093
20
-92.453878883110917
10
195.3891834736319
20
-92.130453368838204
10
195.64005274894066
20
-91.787196911467191
10
195.87544111916128
20
-91.424235033002475
10
196.09525141592781
20
-91.041693255448536
10
196.29938647087428
20
-90.639697100810025
10
196.48774911563476
20
-90.218372091091439
10
196.66024218184327
20
-89.777843748297315
10
196.81676850113388
20
-89.318237594432262
10
196.95723090514059
20
-88.839679151500803
10
197.18957529383846
20
-87.82620748645698
10
197.35649800100933
20
-86.738432929202247
10
197.45722167972548
20
-85.577359655773051
10
197.49096898305925
20
-84.343991842205895
10
197.49096898305925
20
-68.675793334261158
10
197.45722167972554
20
-67.442565914653272
10
197.35649800100933
20
-66.281575471961801
10
197.18957529383846
20
-65.193832875125125
10
196.95723090514059
20
-64.180348993081537
10
196.81676850113388
20
-63.70176996665036
10
196.66024218184327
20
-63.242134694769319
10
196.48774911563476
20
-62.801569536055709
10
196.29938647087428
20
-62.380200849126766
10
196.09525141592781
20
-61.978154992599848
10
195.87544111916128
20
-61.595558325092213
10
195.64005274894066
20
-61.232537205221135
10
195.38918347363187
20
-60.889217991603957
10
195.12293046160099
20
-60.565727042857858
10
194.84139088121381
20
-60.262190717600248
10
194.54466190083636
20
-59.978735374448334
10
194.23284068883473
20
-59.715487372019439
10
193.90602441357473
20
-59.472573068930821
10
193.56431024342231
20
-59.250118823799838
10
193.20779534674347
20
-59.04825099524372
10
192.8365768919042
20
-58.867095941879711
10
192.45075204727044
20
-58.706780022325162
10
192.05041798120814
20
-58.56742959519741
10
191.63567186208329
20
-58.449171019113621
10
191.2066108582618
20
-58.352130652691159
10
190.7633321381096
20
-58.276434854547347
10
190.30593286999274
20
-58.222209983299336
10
189.83451022227709
20
-58.189582397564536
10
189.3491613633287
20
-58.178678455960231
10
188.51485727945982
20
-58.212413296269844
10
187.72038558515422
20
-58.313475188958094
10
186.96632840103919
20
-58.481650191664002
10
186.25326784774177
20
-58.716724362026667
10
185.5817860458892
20
-59.018483757685175
10
184.95246511610861
20
-59.386714436278645
10
184.36588717902723
20
-59.821202455446013
10
183.82263435527207
20
-60.321733872826485
10
183.49662253452487
20
-60.678206797691487
10
183.19161016914759
20
-61.0601386287926
10
182.9077383931417
20
-61.467064045586412
10
182.64514834050854
20
-61.898517727529594
10
182.40398114524922
20
-62.354034354078692
10
182.18437794136531
20
-62.833148604690372
10
181.98647986285781
20
-63.335395158821214
10
181.81042804372828
20
-63.860308695927834
10
181.65636361797797
20
-64.407423895466877
10
181.5244277196081
20
-64.976275436894909
10
181.41476148262018
20
-65.566397999668609
10
181.32750604101534
20
-66.177326263244524
10
181.26280252879502
20
-66.808594907079325
10
181.22079207996049
20
-67.459738610629572
10
181.20161582851298
20
-68.130292053351909
10
181.20541490845395
20
-68.819789914702937
10
181.21515365509705
20
-69.28623669363617
10
184.66193454651557
20
-69.28623669363617
10
184.64635700897895
20
-68.795599974886159
10
184.64873162935689
20
-67.804174239283071
10
184.71484441046431
20
-66.868217925780101
10
184.8433488229366
20
-65.992453762180773
10
185.03289833740905
20
-65.181604476288555
10
185.28214642451729
20
-64.440392795906988
10
185.42873664238326
20
-64.097376910221314
10
185.58974655489641
20
-63.773541448839595
10
185.76500784588629
20
-63.469476752737322
10
185.95435219918215
20
-63.185773162889888
10
186.15761129861346
20
-62.923021020272749
10
186.37461682800972
20
-62.681810665861363
10
186.67331194335742
20
-62.402628657374507
10
186.9936981250894
20
-62.160263112570448
10
187.33537597595176
20
-61.954839724498463
10
187.69794609869047
20
-61.786484186207829
10
188.08100909605147
20
-61.655322190747896
10
188.48416557078085
20
-61.561479431167818
10
188.90701612562452
20
-61.505081600516988
10
189.3491613633287
20
-61.486254391844653
10
189.72244122198964
20
-61.499501887959767
10
190.07586737466187
20
-61.538457755046835
10
190.40996468993657
20
-61.601942061218352
10
190.72525803640499
20
-61.688774874586905
10
191.02227228265835
20
-61.797776263264993
10
191.30153229728793
20
-61.927766295365231
10
191.56356294888482
20
-62.077565039000078
10
191.80888910604034
20
-62.245992562282183
10
192.03803563734573
20
-62.431868933323997
10
192.25152741139212
20
-62.6340142202381
10
192.63364616207301
20
-63.08239181413343
10
192.95944430681271
20
-63.581685888868442
10
193.23312079434115
20
-64.122456989343561
10
193.45887457338793
20
-64.695265660459086
10
193.64090459268309
20
-65.290672447115426
10
193.78340980095618
20
-65.899237894212945
10
193.89058914693706
20
-66.511522546652031
10
193.96664157935555
20
-67.118086949332991
10
194.01576604694145
20
-67.709491647156227
10
194.05002688253435
20
-68.809064107830906
10
194.05002688253435
20
-72.347353746668063
10
191.41664933483978
20
-73.657074342931125
10
191.41664933483978
20
-77.555596984329469
0
LWPOLYLINE
5
105
100
AcDbEntity
8
0
100
AcDbPolyline
90
81
70
1
43
0.0
10
139.07984032377817
20
-94.642348938776507
10
139.23061850308409
20
-94.614893302939578
10
139.93914184670174
20
-94.42000761606846
10
140.63429252062264
20
-94.152946468832653
10
140.97449798040674
20
-93.990047101923551
10
141.30853412151862
20
-93.806340275137899
10
141.63545889354208
20
-93.600904790213946
10
141.95433024606132
20
-93.372819448889871
10
142.26420612866022
20
-93.121163052904009
10
142.56414449092273
20
-92.845014403994412
10
142.85320328243284
20
-92.543452303899386
10
143.13044045277456
20
-92.215555554357124
10
143.39491395153192
20
-91.860402957105848
10
143.64568172828876
20
-91.477073313883722
10
143.88180173262913
20
-91.064645426429024
10
144.10233191413704
20
-90.622198096479991
10
144.30633022239638
20
-90.148810125774759
10
144.49285460699124
20
-89.643560316051605
10
144.66096301750545
20
-89.105527469048695
10
144.80971340352315
20
-88.533790386504307
10
144.93816371462816
20
-87.927427870156549
10
145.04537190040466
20
-87.285518721743756
10
145.13039591043645
20
-86.607141743004121
10
145.19229369430761
20
-85.891375735675751
10
145.230123201602
20
-85.137299501496969
10
145.24294238190367
20
-84.343991842205966
10
145.24294238190367
20
-68.675793334261144
10
145.20918423508249
20
-67.442576165965278
10
145.10842991929766
20
-66.281614694373033
10
144.94145962156745
20
-65.193917114167462
10
144.70905352891006
20
-64.180491620031461
10
144.56855586792688
20
-63.701945966078014
10
144.4119918283437
20
-63.242346406648124
10
144.23945893353797
20
-62.801818966077207
10
144.05105470688673
20
-62.380489668700498
10
143.84687667176729
20
-61.978484538853387
10
143.627022351557
20
-61.59592960087123
10
143.39158926963319
20
-61.232950879089572
10
143.14067494937302
20
-60.889674397843727
10
142.87437691415388
20
-60.566226181468998
10
142.59279268735295
20
-60.262732254300758
10
142.29601979234761
20
-59.979318640674407
10
141.98415575251511
20
-59.716111364925425
10
141.6572980912326
20
-59.47323645138907
10
141.31554433187759
20
-59.250819924400687
10
140.95899199782707
20
-59.048987808295685
10
140.58773861245837
20
-58.867866127409378
10
140.20188169914903
20
-58.707580906077283
10
139.80151878127612
20
-58.568258168634685
10
139.38674738221695
20
-58.450023939417015
10
139.07984032377817
20
-58.380629266727354
10
139.07984032377817
20
-61.943166544511534
10
139.31496008161508
20
-62.07756743005568
10
139.56030618084
20
-62.245996131438105
10
139.7894655920739
20
-62.431874015188583
10
140.00296371574476
20
-62.634021191245765
10
140.38507770211024
20
-63.082403860034674
10
140.71085134336118
20
-63.581705017313524
10
140.98448784292265
20
-64.122485542590994
10
141.21019040421916
20
-64.695306315375859
10
141.39216223067564
20
-65.290728215176898
10
141.53460652571692
20
-65.899312121502703
10
141.64172649276779
20
-66.511618913862179
10
141.71772533525302
20
-67.118209471763933
10
141.76680625659748
20
-67.709644674716799
10
141.80102714956331
20
-68.809292533810535
10
141.80102714956331
20
-84.20958079585985
10
141.76680625659748
20
-85.299396015751398
10
141.71772533525302
20
-85.885479467860378
10
141.6417264927677
20
-86.486548777416914
10
141.53460652571692
20
-87.093255416425208
10
141.39216223067564
20
-87.696250856889321
10
141.21019040421916
20
-88.286186570813499
10
140.98448784292265
20
-88.8537140302018
10
140.71085134336127
20
-89.38948470705833
10
140.38507770211024
20
-89.884150073387289
10
140.00296371574476
20
-90.328361601192739
10
139.7894655920739
20
-90.528625760650456
10
139.56030618084
20
-90.71277076247884
10
139.31496008161508
20
-90.879628040678483
10
139.07984032377817
20
-91.012774059924539
0
LWPOLYLINE
5
106
100
AcDbEntity
8
0
100
AcDbPolyline
90
46
70
1
43
0.0
10
97.487233951931415
20
-78.73567161935128
10
97.487233951931415
20
-84.343991842205881
10
97.520992098752629
20
-85.577359655773023
10
97.621746414537469
20
-86.738432929202233
10
97.7887167122677
20
-87.826207486456966
10
98.021122804925085
20
-88.839679151500789
10
98.161620465908314
20
-89.318237594432262
10
98.318184505491445
20
-89.7778437482973
10
98.490717400297299
20
-90.218372091091425
10
98.679121626948529
20
-90.639697100809983
10
98.883299662067913
20
-91.041693255448521
10
99.103153982278158
20
-91.424235033002446
10
99.338587064201988
20
-91.787196911467134
10
99.589501384462196
20
-92.130453368838161
10
99.855799419681318
20
-92.453878883110889
10
100.13738364648219
20
-92.757347932280751
10
100.43415654148754
20
-93.040734994343168
10
100.74602058132014
20
-93.303914547293644
10
101.07287824260266
20
-93.546761069127641
10
101.41463200195778
20
-93.769149037840521
10
101.77118433600833
20
-93.970952931427775
10
102.14243772137691
20
-94.152047227884864
10
102.52829463468628
20
-94.31230640520721
10
102.92865755255916
20
-94.451604941390201
10
103.34342895161839
20
-94.5698173144294
10
103.77251130848654
20
-94.666818002320127
10
103.93725593375466
20
-94.694937267211117
10
103.93725593375466
20
-91.147735617621095
10
103.67763304210118
20
-91.028009454660179
10
103.41560305813401
20
-90.879602422225233
10
103.17027755908698
20
-90.712738640075486
10
102.94113167500848
20
-90.528586799688526
10
102.72764053594727
20
-90.328315592542069
10
102.3455230130705
20
-89.884089843880901
10
102.01972603084548
20
-89.389410925913069
10
101.74605062966074
20
-88.853628370459404
10
101.52029784990503
20
-88.286091709341008
10
101.33826873196688
20
-87.696150474378754
10
101.195764316235
20
-87.093154197393673
10
101.08858564309807
20
-86.486452410206738
10
101.01253375294463
20
-85.885394644638907
10
100.96340968616337
20
-85.299330432511141
10
100.92914918427196
20
-84.20958079585985
10
100.92914918427196
20
-80.939200474357165
10
103.93725593375466
20
-79.43539903684507
10
103.93725593375466
20
-75.527483111116766
0
LWPOLYLINE
5
107
100
AcDbEntity
8
0
100
AcDbPolyline
90
83
70
1
43
0.0
10
68.018924486697372
20
-94.651938124624678
10
68.22236362027158
20
-94.614893302939578
10
68.930886963889265
20
-94.420007616068432
10
69.626037637810171
20
-94.152946468832667
10
69.966243097594287
20
-93.990047101923551
10
70.300279238706167
20
-93.806340275137899
10
70.627204010729685
20
-93.60090479021396
10
70.946075363248923
20
-93.372819448889885
10
71.255951245847783
20
-93.121163052903995
10
71.555889608110292
20
-92.845014403994412
10
71.844948399620435
20
-92.543452303899386
10
72.122185569962127
20
-92.215555554357124
10
72.386659068719425
20
-91.860402957105833
10
72.637426845476384
20
-91.477073313883722
10
72.873546849816762
20
-91.064645426429038
10
73.094077031324588
20
-90.622198096479977
10
73.298075339583946
20
-90.148810125774759
10
73.484599724178736
20
-89.643560316051577
10
73.652708134693086
20
-89.105527469048695
10
73.801458520710725
20
-88.533790386504293
10
73.929908831815794
20
-87.927427870156535
10
74.03711701759218
20
-87.285518721743699
10
74.122141027624082
20
-86.607141743003979
10
74.184038811495128
20
-85.891375735675723
10
74.221868318789618
20
-85.137299501496884
10
74.23468749909128
20
-84.343991842205881
10
74.23468749909128
20
-68.675793334261186
10
74.20120226574717
20
-67.442576165965278
10
74.101262874588656
20
-66.281614694373104
10
73.935643788926598
20
-65.193917114167519
10
73.705119472071814
20
-64.180491620031503
10
73.565759871731814
20
-63.701945966078029
10
73.410464387335168
20
-63.242346406648089
10
73.23932982679581
20
-62.80181896607715
10
73.052452998027476
20
-62.380489668700449
10
72.8499307089441
20
-61.97848453885328
10
72.631859767459588
20
-61.595929600871258
10
72.398336981487759
20
-61.232950879089572
10
72.149459158942378
20
-60.889674397843706
10
71.885323107737477
20
-60.566226181469005
10
71.606025635786722
20
-60.262732254300772
10
71.311663551003974
20
-59.979318640674428
10
71.00233366130324
20
-59.716111364925354
10
70.678132774598325
20
-59.473236451388971
10
70.339157698802964
20
-59.250819924400574
10
69.985505241831135
20
-59.048987808295578
10
69.617272211596656
20
-58.867866127409343
10
69.234555416013364
20
-58.70758090607724
10
68.837451662995264
20
-58.56825816863477
10
68.426057760455905
20
-58.450023939417086
10
68.018924486697372
20
-58.357211132495465
10
68.018924486697372
20
-61.902385083648483
10
68.224178053646341
20
-62.009642340356486
10
68.465076249167623
20
-62.16082638631319
10
68.691286758662841
20
-62.328572429792963
10
68.903222842509877
20
-62.512033275051273
10
69.285924774771217
20
-62.922710587925543
10
69.616488128975348
20
-63.386080758979816
10
69.898218988145715
20
-63.895366222257991
10
70.134423435305848
20
-64.44378941180392
10
70.328407553479408
20
-65.024572761661631
10
70.483477425689841
20
-65.630938705874925
10
70.602939134960749
20
-66.25610967848759
10
70.690098764315593
20
-66.893308113543611
10
70.748262396777918
20
-67.535756445086847
10
70.780736115371468
20
-68.176677107161225
10
70.790826003119633
20
-68.809292533810563
10
70.790826003119633
20
-84.209580795859864
10
70.756688738669197
20
-85.299396015751441
10
70.707703800052741
20
-85.885479467860392
10
70.631829450016468
20
-86.486548777416914
10
70.524856783191581
20
-87.093255416425251
10
70.382576894208995
20
-87.69625085688935
10
70.200780877699685
20
-88.286186570813484
10
69.975259828294583
20
-88.8537140302018
10
69.701804840624547
20
-89.389484707058358
10
69.376207009320737
20
-89.884150073387289
10
68.994257429013928
20
-90.328361601192725
10
68.780835450056586
20
-90.528625760650456
10
68.551747194335221
20
-90.712770762478826
10
68.306466548678401
20
-90.879628040678455
10
68.044467399915405
20
-91.028029029249723
10
68.018924486697372
20
-91.039808406267696
0
LWPOLYLINE
5
108
100
AcDbEntity
8
0
100
AcDbPolyline
90
51
70
1
43
0.0
10
121.2499462838764
20
-59.823437321640043
10
120.91462666894147
20
-59.630678407196029
10
120.56339595817319
20
-59.456430186079594
10
120.19622616144548
20
-59.300660483732194
10
119.81308928863213
20
-59.163337125595419
10
119.41395734960729
20
-59.044427937110854
10
118.99880235424489
20
-58.943900743720107
10
118.56759631241887
20
-58.861723370864787
10
117.65691912887149
20
-58.75228938852657
10
116.6817018779568
20
-58.715868593628784
10
116.04589766347929
20
-58.721801865593179
10
116.04589766347929
20
-62.107195364252306
10
116.53856978770622
20
-62.091677254612812
10
117.15470571865167
20
-62.092427718444455
10
117.72166407812163
20
-62.136479061319307
10
118.24074560582167
20
-62.225686546880837
10
118.71325104145733
20
-62.361905438772638
10
119.14048112473418
20
-62.546991000638315
10
119.52373659535769
20
-62.782798496121316
10
119.8643181930336
20
-63.071183188865341
10
120.16352665746737
20
-63.414000342513731
10
120.42266272836459
20
-63.813105220710128
10
120.64302714543072
20
-64.270353087098115
10
120.82592064837144
20
-64.787599205321257
10
120.9726439768923
20
-65.366698839023059
10
121.0844978706988
20
-66.009507251847083
10
121.16278306949658
20
-66.717879707436779
10
121.20880031299114
20
-67.493671469435952
10
121.22385034088816
20
-68.338737801487838
10
121.22385034088816
20
-90.926851578966321
10
116.04589766347929
20
-90.926851578966321
10
116.04589766347929
20
-94.301520431454549
10
121.22385034088816
20
-94.301520431454549
10
121.22385034088816
20
-102.50564934406233
10
124.66576557322858
20
-102.50564934406233
10
124.66576557322858
20
-68.20432582658097
10
124.63513762693992
20
-67.045680591001457
10
124.54310450740178
20
-65.963652093405599
10
124.3894422936056
20
-64.957982937326307
10
124.17392706454315
20
-64.028415726295947
10
123.89633489920593
20
-63.174693063847215
10
123.73418999011915
20
-62.776193001944947
10
123.55644187658544
20
-62.396557553512849
10
123.36306256847894
20
-62.035754543992425
10
123.15402407567353
20
-61.693751798825275
10
122.92929840804298
20
-61.370517143452915
10
122.68885757546145
20
-61.066018403317116
10
122.4326735878028
20
-60.780223403859317
10
122.16071845494105
20
-60.513099970521154
10
121.87296418675007
20
-60.264615928744156
10
121.56938279310388
20
-60.034739103969898
0
LWPOLYLINE
5
109
100
AcDbEntity
8
0
100
AcDbPolyline
90
100
70
1
43
0.0
10
168.13591972650354
20
-94.817390029847871
10
168.83935350454365
20
-94.839966893449983
10
169.54277905248742
20
-94.817390029847871
10
170.25544081427174
20
-94.744746390713303
10
170.96980240833159
20
-94.614666403553997
10
171.67832745310182
20
-94.419780495877617
10
172.37347956701751
20
-94.152719095191841
10
172.71368565566593
20
-93.989819593566594
10
173.04772236851375
20
-93.806112629004375
10
173.37464765786535
20
-93.600677004943634
10
173.69351947602522
20
-93.372591524822894
10
174.00339577529763
20
-93.120934992080521
10
174.3033345079871
20
-92.844786210155036
10
174.59239362639784
20
-92.543223982484903
10
174.86963108283425
20
-92.215327112508561
10
175.13410482960072
20
-91.860174403664445
10
175.38487281900166
20
-91.476844659391134
10
175.62099300334137
20
-91.064416683126922
10
175.84152333492432
20
-90.62196927831036
10
176.04552176605472
20
-90.148581248379926
10
176.23204624903718
20
-89.643331396774002
10
176.40015473617584
20
-89.105298526931165
10
176.5489051797752
20
-88.533561442289752
10
176.67735553213959
20
-87.927198946288314
10
176.78456374557325
20
-87.285289842365259
10
176.86958777238087
20
-86.606912933959066
10
176.93148556486653
20
-85.8911470245082
10
176.96931507533475
20
-85.137070917451126
10
176.98213425608992
20
-84.343763416226295
10
176.98213425608992
20
-58.715868593628784
10
173.54021902374942
20
-58.715868593628784
10
173.54021902374942
20
-84.209580795859864
10
173.50599810176607
20
-85.299320537534186
10
173.45691711150496
20
-85.885373392926923
10
173.38091813481367
20
-86.486416428472182
10
173.2737979465042
20
-87.093100787006392
10
173.13135332138853
20
-87.696077611366235
10
172.94938103427879
20
-88.285998044388165
10
172.72367785998699
20
-88.853513228908724
10
172.45004057332517
20
-89.389274307764566
10
172.12426594910536
20
-89.883932423792089
10
171.74215076213957
20
-90.328138719827962
10
171.52865194975587
20
-90.528400917485442
10
171.29949178724002
20
-90.712544338708682
10
171.05414487144384
20
-90.87940037635228
10
170.79208579921865
20
-91.027800423270804
10
170.51278916741595
20
-91.156575872318797
10
170.21572957288737
20
-91.264558116350898
10
169.90038161248432
20
-91.350578548221577
10
169.56621988305838
20
-91.413468560785446
10
169.21271898146099
20
-91.45205954689709
10
168.83935350454365
20
-91.465182899411062
10
168.46598656450817
20
-91.45205954689709
10
168.1124787290818
20
-91.413468560785446
10
167.77830495692837
20
-91.350578548221577
10
167.46294020671161
20
-91.264558116350898
10
167.16585943709546
20
-91.156575872318797
10
166.88653760674367
20
-91.027800423270804
10
166.62444967432003
20
-90.87940037635228
10
166.37907059848823
20
-90.712544338708682
10
166.14987533791219
20
-90.528400917485442
10
165.93633885125584
20
-90.328138719827962
10
165.554142034357
20
-89.883932423792089
10
165.22827981710202
20
-89.389274307764566
10
164.95455186880147
20
-88.853513228908724
10
164.72875785876579
20
-88.285998044388165
10
164.5466974563054
20
-87.696077611366235
10
164.40417033073078
20
-87.093100787006392
10
164.29697615135228
20
-86.486416428472182
10
164.22091458748048
20
-85.885373392926923
10
164.1717853084258
20
-85.299320537534186
10
164.13752228200948
20
-84.209580795859864
10
164.13752228200948
20
-58.715868593628784
10
160.69562190664328
20
-58.715868593628784
10
160.69562190664328
20
-84.343763416226295
10
160.70844385721213
20
-85.137070917451126
10
160.74628143954047
20
-85.8911470245082
10
160.80819224956122
20
-86.606912933959066
10
160.89323388320719
20
-87.285289842365259
10
161.00046393641134
20
-87.927198946288314
10
161.12894000510639
20
-88.533561442289752
10
161.27771968522529
20
-89.105298526931165
10
161.44586057270089
20
-89.643331396774002
10
161.63242026346597
20
-90.148581248379926
10
161.83645635345351
20
-90.62196927831036
10
162.05702643859621
20
-91.064416683126922
10
162.29318811482702
20
-91.476844659391134
10
162.54399897807886
20
-91.860174403664445
10
162.80851662428449
20
-92.215327112508561
10
163.08579864937681
20
-92.543223982484903
10
163.37490264928857
20
-92.844786210155036
10
163.67488621995281
20
-93.120934992080521
10
163.98480695730214
20
-93.372591524822894
10
164.30372245726969
20
-93.600677004943634
10
164.63069031578814
20
-93.806112629004375
10
164.96476812879047
20
-93.989819593566594
10
165.30501349220941
20
-94.152719095191841
10
166.00023725402866
20
-94.419780495877617
10
166.70882236870887
20
-94.614666403553997
10
167.42322960371291
20
-94.744746390713303
0
LWPOLYLINE
5
110
100
AcDbEntity
8
0
100
AcDbPolyline
90
100
70
1
43
0.0
10
218.29354225415685
20
-87.927198946288328
10
218.42194607940885
20
-88.533561442289752
10
218.57064499853354
20
-89.105298526931165
10
218.73869803158951
20
-89.643331396774045
10
218.92516419863551
20
-90.148581248379941
10
219.1291025197302
20
-90.62196927831036
10
219.34957201493239
20
-91.064416683126922
10
219.58563170430082
20
-91.476844659391134
10
219.83634060789402
20
-91.860174403664502
10
220.10075774577086
20
-92.215327112508575
10
220.37794213799
20
-92.543223982484918
10
220.6669528046103
20
-92.844786210155064
10
220.96684876569026
20
-93.120934992080535
10
221.27668904128871
20
-93.372591524822909
10
221.59553265146431
20
-93.600677004943662
10
221.92243861627594
20
-93.806112629004389
10
222.25646595578212
20
-93.989819593566594
10
222.59667369004165
20
-94.152719095191884
10
223.29186642305564
20
-94.419780495877632
10
224.00048897578773
20
-94.614666403553997
10
224.71501350870741
20
-94.744746390713303
10
225.4279121822847
20
-94.817390029847886
10
226.13165715698909
20
-94.839966893449983
10
226.83506924442713
20
-94.817390029847886
10
227.54769806769008
20
-94.744746390713303
10
228.26201005265875
20
-94.614666403553997
10
228.97047162521397
20
-94.419780495877632
10
229.66554921123648
20
-94.152719095191884
10
230.00571476738571
20
-93.989819593566594
10
230.33970923660706
20
-93.806112629004389
10
230.66659092213573
20
-93.600677004943662
10
230.98541812720657
20
-93.372591524822909
10
231.29524915505493
20
-93.120934992080535
10
231.59514230891574
20
-92.844786210155064
10
231.88415589202418
20
-92.543223982484918
10
232.16134820761542
20
-92.215327112508575
10
232.42577755892438
20
-91.860174403664502
10
232.67650224918637
20
-91.476844659391134
10
232.91258058163632
20
-91.064416683126922
10
233.13307085950936
20
-90.62196927831036
10
233.33703138604056
20
-90.148581248379941
10
233.52352046446512
20
-89.643331396774045
10
233.69159639801811
20
-89.105298526931165
10
233.84031748993453
20
-88.533561442289752
10
233.96874204344959
20
-87.927198946288328
10
234.07592836179842
20
-87.285289842365259
10
234.16093474821605
20
-86.60691293395908
10
234.22281950593754
20
-85.8911470245082
10
234.26064093819798
20
-85.137070917451155
10
234.27345734823257
20
-84.343763416226309
10
234.27345734823257
20
-58.715868593628784
10
230.8325152477077
20
-58.715868593628784
10
230.8325152477077
20
-84.209580795859893
10
230.79825442662352
20
-85.2993205375342
10
230.74912999349601
20
-85.885373392926937
10
230.67307762818052
20
-86.486416428472182
10
230.56589839282893
20
-87.093100787006392
10
230.42339334959306
20
-87.696077611366235
10
230.24136356062456
20
-88.285998044388165
10
230.01561008807533
20
-88.853513228908724
10
229.74193399409717
20
-89.389274307764566
10
229.4161363408418
20
-89.883932423792103
10
229.03401819046107
20
-90.328138719827962
10
228.82052676077112
20
-90.528400917485442
10
228.59138060510671
20
-90.712544338708696
10
228.34605485623683
20
-90.879400376352294
10
228.08402464693057
20
-91.027800423270833
10
227.80476510995672
20
-91.156575872318825
10
227.50775137808438
20
-91.264558116350912
10
227.19245858408246
20
-91.350578548221591
10
226.85836186071995
20
-91.413468560785475
10
226.50493634076585
20
-91.452059546897118
10
226.13165715698909
20
-91.465182899411104
10
225.75829168007178
20
-91.452059546897118
10
225.40479077847442
20
-91.413468560785475
10
225.07062904904845
20
-91.350578548221591
10
224.75528108864538
20
-91.264558116350912
10
224.4582214941168
20
-91.156575872318825
10
224.17892486231415
20
-91.027800423270833
10
223.91686579008893
20
-90.879400376352294
10
223.67151887429273
20
-90.712544338708696
10
223.44235871177688
20
-90.528400917485442
10
223.22885989939311
20
-90.328138719827962
10
222.84674471242741
20
-89.883932423792103
10
222.52097008820758
20
-89.389274307764566
10
222.24733280154581
20
-88.853513228908724
10
222.02162962725396
20
-88.285998044388165
10
221.83965734014424
20
-87.696077611366235
10
221.69721271502863
20
-87.093100787006392
10
221.59009252671916
20
-86.486416428472182
10
221.51409355002781
20
-85.885373392926937
10
221.46501255976671
20
-85.2993205375342
10
221.43079163778336
20
-84.209580795859893
10
221.43079163778336
20
-58.715868593628784
10
217.98888383393006
20
-58.715868593628784
10
217.98888383393006
20
-84.343763416226309
10
218.00169749069997
20
-85.137070917451155
10
218.03951114104888
20
-85.8911470245082
10
218.10138380503554
20
-86.60691293395908
10
218.18637450271862
20
-87.285289842365259
0
LWPOLYLINE
5
111
100
AcDbEntity
8
0
100
AcDbPolyline
90
11
70
1
43
0.0
10
208.04336525126811
20
-69.902157633717451
10
212.42097272400571
20
-94.302203852271617
10
215.95050696218527
20
-94.302203852271617
10
209.17671467753763
20
-58.716781427021445
10
206.23818344788273
20
-58.716781427021445
10
199.32807099569362
20
-94.302203852271589
10
202.79140255646425
20
-94.302203852271589
10
207.369586610521
20
-69.902157633717451
10
207.54971720954296
20
-68.782706906890468
10
207.70647593089453
20
-67.609172150865774
10
207.8643294255387
20
-68.782706906890468
0
LWPOLYLINE
5
112
100
AcDbEntity
8
0
100
AcDbPolyline
90
51
70
1
43
0.0
10
147.51605944733339
20
-90.926851578966321
10
147.51605944733339
20
-94.301520431454549
10
152.69499268504501
20
-94.301520431454549
10
152.69499268504501
20
-102.50564934406235
10
156.13591250010847
20
-102.50564934406235
10
156.13591250010847
20
-68.204325826580913
10
156.10528479321437
20
-67.045680591001386
10
156.01325334943849
20
-65.963652093405614
10
155.85959568413986
20
-64.957982937326307
10
155.64408931267775
20
-64.028415726295947
10
155.36651175041141
20
-63.174693063847229
10
155.20437674627644
20
-62.776193001944911
10
155.02664051270014
20
-62.396557553512778
10
154.83327523910222
20
-62.03575454399234
10
154.6242531149029
20
-61.693751798825183
10
154.39954632952194
20
-61.370517143452915
10
154.15912707237919
20
-61.066018403317116
10
153.90296753289459
20
-60.780223403859338
10
153.6310399004881
20
-60.513099970521154
10
153.34331636457958
20
-60.264615928744178
10
153.03976911458886
20
-60.034739103969912
10
152.72037033993601
20
-59.823437321640043
10
152.38509223004075
20
-59.630678407196044
10
152.03390697432312
20
-59.456430186079565
10
151.66678676220297
20
-59.300660483732166
10
151.28370378310018
20
-59.163337125595419
10
150.88463022643469
20
-59.044427937110875
10
150.46953828162646
20
-58.943900743720121
10
150.03840013809514
20
-58.86172337086478
10
149.12787401254371
20
-58.752289388526563
10
148.15282936513935
20
-58.715868593628784
10
147.51605944733339
20
-58.721801865593179
10
147.51605944733339
20
-62.107195364252306
10
148.00971213186298
20
-62.091677254612833
10
148.6252041457285
20
-62.092427718444455
10
149.19168457563242
20
-62.136479061319307
10
149.71043699015823
20
-62.225686546880837
10
150.18274495788933
20
-62.361905438772652
10
150.60989204740918
20
-62.546991000638315
10
150.99316182730118
20
-62.782798496121316
10
151.33383786614874
20
-63.071183188865291
10
151.63320373253543
20
-63.414000342513702
10
151.89254299504458
20
-63.813105220710128
10
152.11313922225952
20
-64.270353087098115
10
152.29627598276375
20
-64.787599205321257
10
152.4432368451408
20
-65.366698839023044
10
152.55530537797404
20
-66.009507251847083
10
152.63376514984682
20
-66.717879707436808
10
152.67989972934271
20
-67.493671469435895
10
152.69499268504501
20
-68.338737801487838
10
152.69499268504501
20
-90.926851578966321
0
LWPOLYLINE
5
113
100
AcDbEntity
8
0
100
AcDbPolyline
90
140
70
1
43
0.0
10
107.53725593375465
20
-73.736872371774851
10
107.53725593375465
20
-77.635700546764994
10
110.33086536570904
20
-76.239129803275631
10
110.33086536570904
20
-84.20958079585985
10
110.29664444372574
20
-85.299330432511169
10
110.24756345346468
20
-85.885394644638907
10
110.17156447677338
20
-86.486452410206738
10
110.06444428846378
20
-87.093154197393687
10
109.92199966334815
20
-87.696150474378783
10
109.74002737623847
20
-88.286091709341008
10
109.51432420194669
20
-88.853628370459404
10
109.24068691528488
20
-89.389410925913069
10
108.91491229106508
20
-89.884089843880901
10
108.53279710409943
20
-90.328315592542069
10
108.31929829171564
20
-90.528586799688526
10
108.0901381291998
20
-90.712738640075486
10
107.84479121340355
20
-90.879602422225233
10
107.58273214117843
20
-91.028009454660179
10
107.53725593375465
20
-91.048978194304169
10
107.53725593375465
20
-94.655707033749906
10
107.91728952369043
20
-94.5698173144294
10
108.33216086999727
20
-94.451604941390201
10
108.73261080780918
20
-94.31230640520721
10
109.11854253193263
20
-94.152047227884864
10
109.48985923717422
20
-93.970952931427775
10
109.84646411834058
20
-93.769149037840521
10
110.18826037023805
20
-93.546761069127641
10
110.51515118767342
20
-93.303914547293658
10
110.82703976545301
20
-93.040734994343183
10
111.12382929838347
20
-92.757347932280766
10
111.40542298127123
20
-92.453878883110889
10
111.67172400892298
20
-92.130453368838161
10
111.92263557614518
20
-91.787196911467177
10
112.15806087774433
20
-91.424235033002446
10
112.37790310852704
20
-91.041693255448536
10
112.5820654632998
20
-90.639697100809997
10
112.77045113686916
20
-90.218372091091439
10
112.94296332404164
20
-89.7778437482973
10
113.09950521962384
20
-89.318237594432262
10
113.23998001842222
20
-88.839679151500789
10
113.47234110489384
20
-87.82620748645698
10
113.63927214190888
20
-86.738432929202233
10
113.73999868791952
20
-85.577359655773051
10
113.77374630137805
20
-84.343991842205881
10
113.77374630137805
20
-68.675793334261144
10
113.73999868791952
20
-67.442565914653244
10
113.63927214190888
20
-66.281575471961787
10
113.47234110489384
20
-65.193832875125111
10
113.23998001842222
20
-64.180348993081523
10
113.09950521962379
20
-63.701769966650339
10
112.94296332404164
20
-63.242134694769291
10
112.77045113686916
20
-62.801569536055695
10
112.5820654632998
20
-62.380200849126751
10
112.37790310852704
20
-61.978154992599826
10
112.15806087774433
20
-61.595558325092199
10
111.92263557614518
20
-61.232537205221114
10
111.67172400892304
20
-60.889217991603942
10
111.40542298127129
20
-60.565727042857844
10
111.12382929838341
20
-60.262190717600234
10
110.82703976545297
20
-59.97873537444832
10
110.51515118767342
20
-59.715487372019425
10
110.18826037023805
20
-59.472573068930799
10
109.84646411834058
20
-59.250118823799824
10
109.48985923717422
20
-59.048250995243677
10
109.11854253193263
20
-58.867095941879683
10
108.73261080780918
20
-58.706780022325127
10
108.33216086999721
20
-58.567429595197389
10
107.91728952369043
20
-58.449171019113578
10
107.48809357408209
20
-58.352130652691145
10
107.04466982636575
20
-58.276434854547304
10
106.58711508573495
20
-58.222209983299308
10
106.11552615738292
20
-58.189582397564514
10
105.62999984650338
20
-58.178678455960195
10
104.79602283370022
20
-58.212413296269801
10
104.00180708849956
20
-58.313475188958051
10
103.24795832277859
20
-58.48165019166396
10
102.53508224841477
20
-58.716724362026639
10
101.86378457728549
20
-59.018483757685161
10
101.23467102126801
20
-59.386714436278623
10
100.64834729223978
20
-59.821202455445984
10
100.10541910207797
20
-60.321733872826456
10
99.77956977948692
20
-60.678206797691473
10
99.474676385974092
20
-61.060138628792586
10
99.19088301532868
20
-61.46706404558639
10
98.928333761339715
20
-61.89851772752958
10
98.687172717796273
20
-62.354034354078678
10
98.467543978487711
20
-62.833148604690351
10
98.269591637203092
20
-63.335395158821193
10
98.093459787731661
20
-63.860308695927813
10
97.939292523862406
20
-64.407423895466863
10
97.807233939384588
20
-64.976275436894895
10
97.697428128087523
20
-65.566397999668595
10
97.610019183760187
20
-66.17732626324451
10
97.545151200191668
20
-66.808594907079296
10
97.502968271171241
20
-67.459738610629529
10
97.483614490488179
20
-68.130292053351866
10
97.487233951931415
20
-68.819789914702909
10
97.497945830390137
20
-69.286236693636155
10
100.94471929332143
20
-69.286236693636155
10
100.92816862396921
20
-68.79559997488613
10
100.93110479154718
20
-67.804174239283057
10
100.99748244464914
20
-66.868217925780087
10
101.12602330313648
20
-65.992453762180759
10
101.31544908687002
20
-65.181604476288513
10
101.56448151571087
20
-64.440392795906973
10
101.71095075950302
20
-64.097376910221286
10
101.87184230951991
20
-63.77354144883958
10
102.0469963807441
20
-63.469476752737286
10
102.23625318815832
20
-63.185773162889873
10
102.43945294674502
20
-62.923021020272714
10
102.65643587148715
20
-62.681810665861342
10
102.95572381492981
20
-62.402628657374493
10
103.27645455078806
20
-62.160263112570426
10
103.61825061905905
20
-61.954839724498427
10
103.98073455973994
20
-61.786484186207801
10
104.36352891282759
20
-61.655322190747874
10
104.76625621831934
20
-61.561479431167797
10
105.18853901621226
20
-61.505081600516966
10
105.62999984650338
20
-61.486254391844639
10
106.00336532342075
20
-61.499501887959752
10
106.35686622501807
20
-61.538457755046814
10
106.69102795444404
20
-61.601942061218331
10
107.00637591484708
20
-61.688774874586869
10
107.30343550937576
20
-61.797776263264979
10
107.58273214117843
20
-61.92776629536521
10
107.84479121340355
20
-62.077565039000064
10
108.0901381291998
20
-62.245992562282154
10
108.31929829171564
20
-62.431868933323983
10
108.53279710409943
20
-62.634014220238079
10
108.91491229106508
20
-63.082391814133402
10
109.24068691528488
20
-63.581685888868407
10
109.51432420194669
20
-64.122456989343533
10
109.74002737623847
20
-64.695265660459057
10
109.9219996633482
20
-65.290672447115398
10
110.06444428846378
20
-65.899237894212931
10
110.17156447677338
20
-66.511522546652003
10
110.24756345346468
20
-67.118086949332977
10
110.29664444372574
20
-67.709491647156199
10
110.33086536570904
20
-68.809064107830892
10
110.33086536570904
20
-72.347353746668048
0
LWPOLYLINE
5
114
100
AcDbEntity
8
0
100
AcDbPolyline
90
69
70
1
43
0.0
10
64.418924486697364
20
-58.413056423671392
10
64.04201212255694
20
-58.513538895911395
10
63.385727452959003
20
-58.762079727016499
10
62.76545469618376
20
-59.072235402959791
10
62.188075184867131
20
-59.439807344059723
10
61.660470251644952
20
-59.860596970634887
10
61.189521229153186
20
-60.330405703003777
10
61.189521229153186
20
-58.71609678746816
10
57.949140852973109
20
-58.71609678746816
10
57.949140852973109
20
-84.343991842205881
10
57.961954509969772
20
-85.137299501496926
10
57.999768161905564
20
-85.891375735675709
10
58.061640830199593
20
-86.607141743004021
10
58.146631536270448
20
-87.285518721743713
10
58.25379930153737
20
-87.927427870156563
10
58.382203147419091
20
-88.533790386504336
10
58.530902095334611
20
-89.10552746904871
10
58.698955166702774
20
-89.643560316051577
10
58.885421382942511
20
-90.148810125774816
10
59.089359765472906
20
-90.62219809648002
10
59.309829335712621
20
-91.064645426429053
10
59.545889115080641
20
-91.47707331388375
10
59.796598124995867
20
-91.860402957105862
10
60.061015386877415
20
-92.215555554357195
10
60.338199922143829
20
-92.543452303899443
10
60.627210752214324
20
-92.845014403994412
10
60.927106898507745
20
-93.121163052904038
10
61.236947382442999
20
-93.372819448889913
10
61.555791225438924
20
-93.600904790213946
10
61.882697448914534
20
-93.806340275137899
10
62.216725074288739
20
-93.990047101923523
10
62.556933122980411
20
-94.152946468832681
10
63.252126575991809
20
-94.420007616068432
10
63.960749979300189
20
-94.614893302939606
10
64.418924486697364
20
-94.698304254653749
10
64.418924486697364
20
-91.156964929772087
10
64.4184849668395
20
-91.15680516219328
10
64.139187938766227
20
-91.028029029249709
10
63.877128415862558
20
-90.879628040678483
10
63.631781000420787
20
-90.712770762478883
10
63.402620294733069
20
-90.528625760650471
10
63.189120901091954
20
-90.328361601192753
10
62.807004459118119
20
-89.884150073387275
10
62.48122849283768
20
-89.389484707058372
10
62.2075898205889
20
-88.853714030201814
10
61.981885260710186
20
-88.286186570813527
10
61.799911631539757
20
-87.696250856889378
10
61.657465751416012
20
-87.093255416425194
10
61.550344438677342
20
-86.486548777416928
10
61.474344511661975
20
-85.885479467860435
10
61.425262788708316
20
-85.299396015751483
10
61.39104122833939
20
-84.209580795859935
10
61.391041228339382
20
-68.809292533810563
10
61.401142534484791
20
-68.176677107161197
10
61.433649521674099
20
-67.535756445086804
10
61.491866793036735
20
-66.893308113543554
10
61.579098951702605
20
-66.256109678487576
10
61.698650600801273
20
-65.630938705874868
10
61.853826343462217
20
-65.024572761661659
10
62.047930782815115
20
-64.443789411803962
10
62.284268521989659
20
-63.895366222257977
10
62.566144164115499
20
-63.386080758979787
10
62.896862312322114
20
-62.922710587925522
10
63.279727569739364
20
-62.512033275051273
10
63.491748052879814
20
-62.328572429792942
10
63.71804453949656
20
-62.16082638631319
10
63.959030104980883
20
-62.009642340356486
10
64.215117824723649
20
-61.875867487667392
10
64.418924486697364
20
-61.789184215151359
0
LWPOLYLINE
5
115
100
AcDbEntity
8
0
100
AcDbPolyline
90
4
70
1
43
0.0
10
245
20
-5.9999999999999831
10
185
20
-6.0000000000000009
10
185
20
-9
10
245
20
-8.9999999999999822
0
LWPOLYLINE
5
116
100
AcDbEntity
8
0
100
AcDbPolyline
90
4
70
1
43
0.0
10
130
20
-6.0000000000000009
10
70
20
-6.0000000000000009
10
70
20
-9
10
130
20
-9.0000000000000178
0
LWPOLYLINE
5
117
100
AcDbEntity
8
0
100
AcDbPolyline
90
4
70
1
43
0.0
10
5.9999999999999787
20
-9
10
25.999999999999996
20
-9
10
25.999999999999979
20
-6.0000000000000009
10
5.9999999999999787
20
-6.0000000000000009
0
LWPOLYLINE
5
118
100
AcDbEntity
8
0
100
AcDbPolyline
90
18
70
1
43
0.0
10
297
20
-105.00000000000007
10
297
20
-160.00000000000006
10
247
20
-160.00000000000006
10
247
20
-157.00000000000006
10
192
20
-157.00000000000006
10
192
20
-160.00000000000006
10
142
20
-160.00000000000006
10
142
20
-157.00000000000006
10
87
20
-157.00000000000006
10
87
20
-160.00000000000006
10
36.999999999999993
20
-160.00000000000006
10
36.999999999999993
20
-157.00000000000006
10
0
20
-157.00000000000006
10
0
20
0
10
297
20
-5.3290705182007514e-14
10
297
20
-55.000000000000057
10
300
20
-55.000000000000057
10
300
20
-105.00000000000007
0
ENDSEC
0
SECTION
2
OBJECTS
0
DICTIONARY
5
C
100
AcDbDictionary
3
ACAD_GROUP
350
D
3
ACAD_MLINESTYLE
350
17
0
DICTIONARY
5
D
100
AcDbDictionary
0
DICTIONARY
5
1A
330
C
100
AcDbDictionary
0
DICTIONARY
5
17
100
AcDbDictionary
0
ENDSEC
0
EOF
