0
SECTION
2
HEADER
9
$INSUNITS
70
4
9
$ACADVER
1
AC1014
9
$HANDSEED
5
FFFF
0
ENDSEC
0
SECTION
2
TABLES
0
TABLE
2
VPORT
5
8
100
AcDbSymbolTable
0
ENDTAB
0
TABLE
2
LTYPE
5
5
100
AcDbSymbolTable
0
LTYPE
5
14
100
AcDbSymbolTableRecord
100
AcDbLinetypeTableRecord
2
BYBLOCK
70
0
0
LTYPE
5
15
100
AcDbSymbolTableRecord
100
AcDbLinetypeTableRecord
2
BYLAYER
70
0
0
ENDTAB
0
TABLE
2
LAYER
5
2
100
AcDbSymbolTable
70
2
0
LAYER
5
50
100
AcDbSymbolTableRecord
100
AcDbLayerTableRecord
2
0
70
0
6
CONTINUOUS
0
ENDTAB
0
TABLE
2
STYLE
5
3
100
AcDbSymbolTable
70
1
0
STYLE
5
11
100
AcDbSymbolTableRecord
100
AcDbTextStyleTableRecord
2
STANDARD
70
0
0
ENDTAB
0
TABLE
2
VIEW
5
6
100
AcDbSymbolTable
70
0
0
ENDTAB
0
TABLE
2
UCS
5
7
100
AcDbSymbolTable
70
0
0
ENDTAB
0
TABLE
2
APPID
5
9
100
AcDbSymbolTable
70
2
0
APPID
5
12
100
AcDbSymbolTableRecord
100
AcDbRegAppTableRecord
2
ACAD
70
0
0
ENDTAB
0
TABLE
2
DIMSTYLE
5
A
100
AcDbSymbolTable
70
1
0
ENDTAB
0
TABLE
2
BLOCK_RECORD
5
1
100
AcDbSymbolTable
70
1
0
BLOCK_RECORD
5
1F
100
AcDbSymbolTableRecord
100
AcDbBlockTableRecord
2
*MODEL_SPACE
0
BLOCK_RECORD
5
1B
100
AcDbSymbolTableRecord
100
AcDbBlockTableRecord
2
*PAPER_SPACE
0
ENDTAB
0
ENDSEC
0
SECTION
2
BLOCKS
0
BLOCK
5
20
100
AcDbEntity
100
AcDbBlockBegin
2
*MODEL_SPACE
0
ENDBLK
5
21
100
AcDbEntity
100
AcDbBlockEnd
0
BLOCK
5
1C
100
AcDbEntity
100
AcDbBlockBegin
2
*PAPER_SPACE
0
ENDBLK
5
1D
100
AcDbEntity
100
AcDbBlockEnd
0
ENDSEC
0
SECTION
2
ENTITIES
0
LWPOLYLINE
5
100
100
AcDbEntity
8
0
100
AcDbPolyline
90
28
70
1
43
0.0
10
148.50000000000034
20
22.000000000000171
10
151.50000000000037
20
22.000000000000171
10
151.50000000000014
20
-22.000000000000544
10
148.50000000000011
20
-22.000000000000544
10
148.50000000000011
20
-72.00000000000054
10
98.500000000000099
20
-72.000000000000654
10
98.500000000000384
20
-74.999999999997669
10
43.500000000000284
20
-74.999999999997669
10
43.500000000000099
20
-72.000000000000597
10
-6.4999999999998792
20
-72.000000000000597
10
-6.4999999999996838
20
-74.999999999997669
10
-61.499999999999687
20
-74.999999999997669
10
-61.499999999999901
20
-72.000000000000568
10
-111.49999999999991
20
-72.000000000000512
10
-111.49999999999956
20
-74.999999999997669
10
-148.50000000000034
20
-74.999999999997669
10
-148.50000000000054
20
74.9999999999973
10
-111.49999999999974
20
74.999999999998025
10
-111.4999999999999
20
72.000000000000171
10
-61.499999999999901
20
72.000000000000199
10
-61.499999999999858
20
74.999999999997513
10
-6.4999999999998792
20
74.999999999997655
10
-6.499999999999897
20
72.000000000000242
10
43.500000000000099
20
72.000000000000242
10
43.500000000000099
20
74.999999999997797
10
98.500000000000213
20
74.999999999997939
10
98.500000000000099
20
72.000000000000313
10
148.50000000000034
20
72.000000000000171
0
LWPOLYLINE
5
101
100
AcDbEntity
8
0
100
AcDbPolyline
90
4
70
1
43
0.0
10
103.49999999999967
20
65.000000000001961
10
100.49999999999967
20
65.000000000001961
10
100.49999999999967
20
-64.999999999998039
10
103.49999999999967
20
-64.999999999998039
0
LWPOLYLINE
5
102
100
AcDbEntity
8
0
100
AcDbPolyline
90
4
70
1
43
0.0
10
-142.5000000000004
20
72.000000000001023
10
-142.5000000000004
20
-71.999999999998963
10
-139.50000000000034
20
-71.999999999998963
10
-139.5000000000004
20
72.000000000001023
0
LWPOLYLINE
5
103
100
AcDbEntity
8
0
100
AcDbPolyline
90
7
70
1
43
0.0
10
22.037040069699287
20
-12.163302898406982
10
25.656567886471748
20
-12.163302898406982
10
31.767679527401924
20
6.0016798973083496
10
38.11447985470295
20
-12.163302898406982
10
41.851853206753731
20
-12.163302898406982
10
32.659934833645821
20
12.836697101593018
10
30.959597900509834
20
12.836697101593018
0
SPLINE
5
104
100
AcDbEntity
8
0
100
AcDbSpline
70
0
71
3
72
9
73
5
74
0
42
0.000000001
43
0.0000000001
44
0.0000000001
40
0
40
0
40
0
40
0
40
0.6673790709538352
40
1.4092302947983173
40
1.4092302947983173
40
1.4092302947983173
40
1.4092302947983173
10
-12.878783866763115
20
-5.1431012153625488
30
0
10
-12.405826221933189
20
-2.7192943308463846
30
0
10
-11.407134068914111
20
2.3987895873668386
30
0
10
-6.1508593353634566
20
2.9062550839132406
30
0
10
-3.3838354796171188
20
3.1733965873718262
30
0
0
SPLINE
5
105
100
AcDbEntity
8
0
100
AcDbSpline
70
0
71
3
72
9
73
5
74
0
42
0.000000001
43
0.0000000001
44
0.0000000001
40
0
40
0
40
0
40
0
40
0.091006368260896128
40
0.24975864666663455
40
0.24975864666663455
40
0.24975864666663455
40
0.24975864666663455
10
-3.3838354796171188
20
3.1733965873718262
30
0
10
-3.0806895154932068
20
3.1612078499834873
30
0
10
-2.2487331679441702
20
3.1277569760187163
30
0
10
-1.4193967512339345
20
3.0527349410306837
30
0
10
-0.89225165545940399
20
3.0050492286682129
30
0
0
LINE
5
106
100
AcDbEntity
8
0
100
AcDbLine
10
-0.89225165545940377
20
3.0050492286682129
30
0
11
-0.89225165545940399
21
12.499997615814209
31
0
0
LINE
5
107
100
AcDbEntity
8
0
100
AcDbLine
10
-0.89225165545940399
20
12.499997615814209
30
0
11
2.474752739071846
21
12.499997615814209
31
0
0
LINE
5
108
100
AcDbEntity
8
0
100
AcDbLine
10
2.474752739071846
20
12.499997615814209
30
0
11
2.474752739071846
21
-12.163302898406982
31
0
0
SPLINE
5
109
100
AcDbEntity
8
0
100
AcDbSpline
70
0
71
3
72
9
73
5
74
0
42
0.000000001
43
0.0000000001
44
0.0000000001
40
0
40
0
40
0
40
0
40
0.30665748032639889
40
0.46159708619277873
40
0.46159708619277873
40
0.46159708619277873
40
0.46159708619277873
10
2.474752739071846
20
-12.163302898406982
30
0
10
1.4535905776696367
20
-12.210146899946501
30
0
10
-0.083516809151227278
20
-12.280658972873058
30
0
10
-1.621729664808429
20
-12.318837606945712
30
0
10
-2.1380459517240524
20
-12.331652641296387
30
0
0
SPLINE
5
110
100
AcDbEntity
8
0
100
AcDbSpline
70
0
71
3
72
9
73
5
74
0
42
0.000000001
43
0.0000000001
44
0.0000000001
40
0
40
0
40
0
40
0
40
0.82535836760526171
40
1.4276669462332952
40
1.4276669462332952
40
1.4276669462332952
40
1.4276669462332952
10
-2.1380459517240524
20
-12.331652641296387
30
0
10
-5.2448682850783612
20
-12.271301129006122
30
0
10
-10.618906675237003
20
-12.166907858599219
30
0
10
-12.208261782909435
20
-7.2271159948683206
30
0
10
-12.878783866763115
20
-5.1431012153625488
30
0
0
LINE
5
111
100
AcDbEntity
8
0
100
AcDbLine
10
-27.138036414980888
20
1.1531949043273926
30
0
11
-34.292920753359795
21
12.499997615814209
31
0
0
LINE
5
112
100
AcDbEntity
8
0
100
AcDbLine
10
-34.292920753359795
20
12.499997615814209
30
0
11
-30.437711402773857
21
12.499997615814209
31
0
0
LINE
5
113
100
AcDbEntity
8
0
100
AcDbLine
10
-30.437711402773857
20
12.499997615814209
30
0
11
-23.855212852358818
21
1.9107699394226074
31
0
0
SPLINE
5
114
100
AcDbEntity
8
0
100
AcDbSpline
70
0
71
3
72
9
73
5
74
0
42
0.000000001
43
0.0000000001
44
0.0000000001
40
0
40
0
40
0
40
0
40
0.14568400894115793
40
0.35733986237257076
40
0.35733986237257076
40
0.35733986237257076
40
0.35733986237257076
10
-23.855212852358818
20
1.9107699394226074
30
0
10
-23.369667184693377
20
1.8997869087149866
30
0
10
-22.178700356417487
20
1.8728472692170151
30
0
10
-20.990169775275174
20
1.7909381459259599
30
0
10
-20.286191627383232
20
1.7424225807189941
30
0
0
LINE
5
115
100
AcDbEntity
8
0
100
AcDbLine
10
-20.286191627383232
20
1.7424225807189944
30
0
11
-20.286191627383232
21
12.499997615814209
31
0
0
LINE
5
116
100
AcDbEntity
8
0
100
AcDbLine
10
-20.286191627383232
20
12.499997615814209
30
0
11
-16.919187232851982
21
12.499997615814209
31
0
0
LINE
5
117
100
AcDbEntity
8
0
100
AcDbLine
10
-16.919187232851982
20
12.499997615814209
30
0
11
-16.919187232851982
21
-12.163300514221191
31
0
0
SPLINE
5
118
100
AcDbEntity
8
0
100
AcDbSpline
70
0
71
3
72
9
73
5
74
0
42
0.000000001
43
0.0000000001
44
0.0000000001
40
0
40
0
40
0
40
0
40
0.074771786470705093
40
0.26209073668102928
40
0.26209073668102928
40
0.26209073668102928
40
0.26209073668102928
10
-16.919187232851982
20
-12.163300514221191
30
0
10
-17.168218076065127
20
-12.173526323386849
30
0
10
-18.041123221639062
20
-12.209369921405436
30
0
10
-18.913521050355335
20
-12.256138572595905
30
0
10
-19.537032768130302
20
-12.289564609527588
30
0
0
SPLINE
5
119
100
AcDbEntity
8
0
100
AcDbSpline
70
0
71
3
72
9
73
5
74
0
42
0.000000001
43
0.0000000001
44
0.0000000001
40
0
40
0
40
0
40
0
40
0.21044017782780083
40
0.35462451701823583
40
0.35462451701823583
40
0.35462451701823583
40
0.35462451701823583
10
-19.537032768130302
20
-12.289564609527588
30
0
10
-20.237628536610561
20
-12.325938583921143
30
0
10
-21.418241661855273
20
-12.387234403162939
30
0
10
-22.600225878028493
20
-12.407561618292799
30
0
10
-23.080800697207451
20
-12.415826320648193
30
0
0
SPLINE
5
120
100
AcDbEntity
8
0
100
AcDbSpline
70
0
71
3
72
9
73
5
74
0
42
0.000000001
43
0.0000000001
44
0.0000000001
40
0
40
0
40
0
40
0
40
0.68970409063377336
40
1.2646858611642049
40
1.2646858611642049
40
1.2646858611642049
40
1.2646858611642049
10
-23.080800697207451
20
-12.415826320648193
30
0
10
-25.666691119691425
20
-12.244109408910688
30
0
10
-30.408346418314149
20
-11.929238215095314
30
0
10
-31.481700080213386
20
-7.4029620862737477
30
0
10
-31.969693824648857
20
-5.3451180458068848
30
0
0
SPLINE
5
121
100
AcDbEntity
8
0
100
AcDbSpline
70
0
71
3
72
9
73
5
74
0
42
0.000000001
43
0.0000000001
44
0.0000000001
40
0
40
0
40
0
40
0
40
0.22362887348324967
40
0.44849471376399841
40
0.44849471376399841
40
0.44849471376399841
40
0.44849471376399841
10
-31.969693824648857
20
-5.3451180458068848
30
0
10
-31.90941582971794
20
-4.5891485994322512
30
0
10
-31.788526421915986
20
-3.0730281844558949
30
0
10
-30.956084143692433
20
-1.7999237186067774
30
0
10
-30.538715049624443
20
-1.1616158485412598
30
0
0
SPLINE
5
122
100
AcDbEntity
8
0
100
AcDbSpline
70
0
71
3
72
9
73
5
74
0
42
0.000000001
43
0.0000000001
44
0.0000000001
40
0
40
0
40
0
40
0
40
0.21743663697630106
40
0.4178586851529239
40
0.4178586851529239
40
0.4178586851529239
40
0.4178586851529239
10
-30.538715049624443
20
-1.1616158485412598
30
0
10
-30.053701051036406
20
-0.60364743082247152
30
0
10
-29.121625782815403
20
0.46862793466821984
30
0
10
-27.781037275935834
20
0.93128549202159405
30
0
10
-27.138036414980888
20
1.1531949043273926
30
0
0
SPLINE
5
123
100
AcDbEntity
8
0
100
AcDbSpline
70
0
71
3
72
9
73
5
74
0
42
0.000000001
43
0.0000000001
44
0.0000000001
40
0
40
0
40
0
40
0
40
0.077510930485150856
40
0.15420401650568846
40
0.15420401650568846
40
0.15420401650568846
40
0.15420401650568846
10
-37.895616218447685
20
-10.378789901733398
30
0
10
-37.91895601271095
20
-10.642728462487501
30
0
10
-37.965389335047362
20
-11.167820677537232
30
0
10
-38.301064241432563
20
-11.574056283849714
30
0
10
-38.468011543154716
20
-11.776096820831299
30
0
0
SPLINE
5
124
100
AcDbEntity
8
0
100
AcDbSpline
70
0
71
3
72
9
73
5
74
0
42
0.000000001
43
0.0000000001
44
0.0000000001
40
0
40
0
40
0
40
0
40
0.076691831272867828
40
0.15420369903928116
40
0.15420369903928116
40
0.15420369903928116
40
0.15420369903928116
10
-38.468011543154716
20
-11.776096820831299
30
0
10
-38.670048254049632
20
-11.943042130694543
30
0
10
-39.076281977311226
20
-12.278717832929061
30
0
10
-39.601373919479599
20
-12.325148558106701
30
0
10
-39.865316078066826
20
-12.348487377166748
30
0
0
SPLINE
5
125
100
AcDbEntity
8
0
100
AcDbSpline
70
0
71
3
72
9
73
5
74
0
42
0.000000001
43
0.0000000001
44
0.0000000001
40
0
40
0
40
0
40
0
40
0.077757072920162623
40
0.15532656457969285
40
0.15532656457969285
40
0.15532656457969285
40
0.15532656457969285
10
-39.865316078066826
20
-12.348487377166748
30
0
10
-40.130001637836692
20
-12.324404410668226
30
0
10
-40.658734229598714
20
-12.27629657544988
30
0
10
-41.067103504707738
20
-11.937081147021885
30
0
10
-41.271041557192802
20
-11.767678260803223
30
0
0
SPLINE
5
126
100
AcDbEntity
8
0
100
AcDbSpline
70
0
71
3
72
9
73
5
74
0
42
0.000000001
43
0.0000000001
44
0.0000000001
40
0
40
0
40
0
40
0
40
0.077221260436458911
40
0.15373809874211358
40
0.15373809874211358
40
0.15373809874211358
40
0.15373809874211358
10
-41.271041557192802
20
-11.767678260803223
30
0
10
-41.440440108425562
20
-11.565229208860375
30
0
10
-41.777691935823839
20
-11.162177870900836
30
0
10
-41.827205127376175
20
-10.639120348219953
30
0
10
-41.851848289370537
20
-10.378789901733398
30
0
0
SPLINE
5
127
100
AcDbEntity
8
0
100
AcDbSpline
70
0
71
3
72
9
73
5
74
0
42
0.000000001
43
0.0000000001
44
0.0000000001
40
0
40
0
40
0
40
0
40
0.077756515428155856
40
0.15532633825097875
40
0.15532633825097875
40
0.15532633825097875
40
0.15532633825097875
10
-41.851848289370537
20
-10.378789901733398
30
0
10
-41.827766953913027
20
-10.11410597206341
30
0
10
-41.779662102040348
20
-9.585373616155497
30
0
10
-41.440445833184171
20
-9.1770054655347302
30
0
10
-41.271041557192802
20
-8.9730668067932129
30
0
0
SPLINE
5
128
100
AcDbEntity
8
0
100
AcDbSpline
70
0
71
3
72
9
73
5
74
0
42
0.000000001
43
0.0000000001
44
0.0000000001
40
0
40
0
40
0
40
0
40
0.077569357770924677
40
0.15532647521315063
40
0.15532647521315063
40
0.15532647521315063
40
0.15532647521315063
10
-41.271041557192802
20
-8.9730668067932129
30
0
10
-41.067103347397889
20
-8.803665111842335
30
0
10
-40.658733287376606
20
-8.4644516784972001
30
0
10
-40.130001525987673
20
-8.4163417383235597
30
0
10
-39.865316078066826
20
-8.3922576904296875
30
0
0
SPLINE
5
129
100
AcDbEntity
8
0
100
AcDbSpline
70
0
71
3
72
9
73
5
74
0
42
0.000000001
43
0.0000000001
44
0.0000000001
40
0
40
0
40
0
40
0
40
0.076516045558271351
40
0.15373790633213538
40
0.15373790633213538
40
0.15373790633213538
40
0.15373790633213538
10
-39.865316078066826
20
-8.3922576904296875
30
0
10
-39.604987944887426
20
-8.4168991452426223
30
0
10
-39.081930305638757
20
-8.466409357699094
30
0
10
-38.678881895796863
20
-8.8036648737888754
30
0
10
-38.476432487368584
20
-8.9730668067932129
30
0
0
SPLINE
5
130
100
AcDbEntity
8
0
100
AcDbSpline
70
0
71
3
72
9
73
5
74
0
42
0.000000001
43
0.0000000001
44
0.0000000001
40
0
40
0
40
0
40
0
40
0.077569822822822904
40
0.15532651633889394
40
0.15532651633889394
40
0.15532651633889394
40
0.15532651633889394
10
-38.476432487368584
20
-8.9730668067932129
30
0
10
-38.307029003376947
20
-9.1770056222781591
30
0
10
-37.967813931503009
20
-9.5853745549739333
30
0
10
-37.919701417248973
20
-10.114106083506806
30
0
10
-37.895616218447685
20
-10.378789901733398
30
0
0
LWPOLYLINE
5
131
100
AcDbEntity
8
0
100
AcDbPolyline
90
6
70
1
43
0.0
10
-41.31312720477581
20
12.499997615814209
10
-41.31312720477581
20
-5.5303025245666504
10
-35.639728233218193
20
-5.5303025245666504
10
-35.639728233218193
20
-2.8367018699645996
10
-38.114474937319756
20
-2.8367018699645996
10
-38.114474937319756
20
12.499997615814209
0
LWPOLYLINE
5
132
100
AcDbEntity
8
0
100
AcDbPolyline
90
8
70
1
43
0.0
10
5.0673449784517288
20
12.499997615814209
10
14.360271766781807
20
-12.500002384185791
10
15.252529457211494
20
-12.500002384185791
10
25.269361808896065
20
12.499997615814209
10
21.498318985104561
20
12.499997615814209
10
19.680138900876045
20
7.297976016998291
10
10.505052879452705
20
7.297976016998291
10
8.8047183305025101
20
12.499997615814209
0
ENDSEC
0
SECTION
2
OBJECTS
0
DICTIONARY
5
C
100
AcDbDictionary
3
ACAD_GROUP
350
D
3
ACAD_MLINESTYLE
350
17
0
DICTIONARY
5
D
100
AcDbDictionary
0
DICTIONARY
5
1A
330
C
100
AcDbDictionary
0
DICTIONARY
5
17
100
AcDbDictionary
0
ENDSEC
0
EOF
