0
SECTION
2
HEADER
9
$INSUNITS
70
4
9
$ACADVER
1
AC1014
9
$HANDSEED
5
FFFF
0
ENDSEC
0
SECTION
2
TABLES
0
TABLE
2
VPORT
5
8
100
AcDbSymbolTable
0
ENDTAB
0
TABLE
2
LTYPE
5
5
100
AcDbSymbolTable
0
LTYPE
5
14
100
AcDbSymbolTableRecord
100
AcDbLinetypeTableRecord
2
BYBLOCK
70
0
0
LTYPE
5
15
100
AcDbSymbolTableRecord
100
AcDbLinetypeTableRecord
2
BYLAYER
70
0
0
ENDTAB
0
TABLE
2
LAYER
5
2
100
AcDbSymbolTable
70
2
0
LAYER
5
50
100
AcDbSymbolTableRecord
100
AcDbLayerTableRecord
2
0
70
0
6
CONTINUOUS
0
ENDTAB
0
TABLE
2
STYLE
5
3
100
AcDbSymbolTable
70
1
0
STYLE
5
11
100
AcDbSymbolTableRecord
100
AcDbTextStyleTableRecord
2
STANDARD
70
0
0
ENDTAB
0
TABLE
2
VIEW
5
6
100
AcDbSymbolTable
70
0
0
ENDTAB
0
TABLE
2
UCS
5
7
100
AcDbSymbolTable
70
0
0
ENDTAB
0
TABLE
2
APPID
5
9
100
AcDbSymbolTable
70
2
0
APPID
5
12
100
AcDbSymbolTableRecord
100
AcDbRegAppTableRecord
2
ACAD
70
0
0
ENDTAB
0
TABLE
2
DIMSTYLE
5
A
100
AcDbSymbolTable
70
1
0
ENDTAB
0
TABLE
2
BLOCK_RECORD
5
1
100
AcDbSymbolTable
70
1
0
BLOCK_RECORD
5
1F
100
AcDbSymbolTableRecord
100
AcDbBlockTableRecord
2
*MODEL_SPACE
0
BLOCK_RECORD
5
1B
100
AcDbSymbolTableRecord
100
AcDbBlockTableRecord
2
*PAPER_SPACE
0
ENDTAB
0
ENDSEC
0
SECTION
2
BLOCKS
0
BLOCK
5
20
100
AcDbEntity
100
AcDbBlockBegin
2
*MODEL_SPACE
0
ENDBLK
5
21
100
AcDbEntity
100
AcDbBlockEnd
0
BLOCK
5
1C
100
AcDbEntity
100
AcDbBlockBegin
2
*PAPER_SPACE
0
ENDBLK
5
1D
100
AcDbEntity
100
AcDbBlockEnd
0
ENDSEC
0
SECTION
2
ENTITIES
0
LWPOLYLINE
5
100
100
AcDbEntity
8
0
100
AcDbPolyline
90
38
70
1
43
0.0
10
6.5574565658841539
20
14.491057941205906
10
6.6402071236507769
20
14.782937397719461
10
6.754819187261063
20
15.054434372931823
10
6.9017516515713524
20
15.303746647718469
10
7.0814634114378698
20
15.529072002954884
10
7.2952123786663297
20
15.728065697209402
10
7.5343552823984616
20
15.892049893873548
10
7.7970007514921624
20
16.021582699362305
10
8.0812574148053002
20
16.117222220090639
10
8.3852339011957611
20
16.179526562473534
10
8.7070388395214202
20
16.209053832925964
10
9.0447808586401557
20
16.206362137862893
10
9.3965685874098561
20
16.172009583699314
10
8.7503242839157895
20
16.490975357499849
10
8.1218465493245962
20
16.777691635284675
10
7.5185333274645361
20
17.033011564900427
10
6.94778256216388
20
17.257788294193759
10
5.9335601765537387
20
17.619124743199706
10
5.1383629431202156
20
17.8685261650757
10
5.0407648535941192
20
17.886891287515656
10
4.9536840408915435
20
17.884292586532844
10
4.8797001001610489
20
17.860974235162246
10
4.8213926265512015
20
17.817180406438919
10
4.7817050066961801
20
17.755889574155937
10
4.7614643663042795
20
17.680506572636574
10
4.7612658801053005
20
17.593031281229841
10
4.7817047228290761
20
17.495463579284767
10
4.7832913507892734
20
17.48430154560765
10
5.0474623513593446
20
16.672678577788275
10
5.2216472262701945
20
16.180486500539608
10
5.4246425558998297
20
15.640708677855741
10
5.6570064939743787
20
15.060846097329739
10
5.9192971942200394
20
14.448399746554713
10
6.2120728103629279
20
13.810870613123708
10
6.5358914961292474
20
13.155759684629857
10
6.495784979083794
20
13.511146875103117
10
6.4857043884569503
20
13.853360460773224
10
6.5061086191049817
20
14.180598222515655
0
LWPOLYLINE
5
101
100
AcDbEntity
8
0
100
AcDbPolyline
90
96
70
1
43
0.0
10
-26.14269175114736
20
-16.977062189256017
10
-25.935958366251093
20
-17.267763647609836
10
-25.715830643991985
20
-17.547864816488254
10
-25.482774641696455
20
-17.816899915039603
10
-25.237256416690883
20
-18.074403162412214
10
-24.979742026301714
20
-18.319908777754428
10
-24.71069752785537
20
-18.552950980214579
10
-24.430588978678252
20
-18.773063988941008
10
-24.13988243609672
20
-18.979782023082045
10
-23.839043957437234
20
-19.172639301786027
10
-23.528539600026221
20
-19.351170044201297
10
-23.208835421190077
20
-19.514908469476175
10
-22.880397478255183
20
-19.663388796759016
10
-22.543691828547985
20
-19.796145245198144
10
-22.199184529394866
20
-19.912712033941897
10
-21.847341638122302
20
-20.012623382138614
10
-21.488629212056651
20
-20.09541350893663
10
-21.123513308524331
20
-20.160616633484278
10
-20.752459984851733
20
-20.207766974929896
10
-20.375935298365313
20
-20.23639875242182
10
-19.994405306391457
20
-20.246046185108387
10
-19.477117747375789
20
-20.228281827017838
10
-18.969417291767954
20
-20.175767112448675
10
-18.472469746349425
20
-20.089669580954613
10
-17.987440917901758
20
-19.971156772089365
10
-17.515496613206409
20
-19.821396225406652
10
-17.057802639044873
20
-19.641555480460191
10
-16.615524802198696
20
-19.432802076803696
10
-16.189828909449339
20
-19.196303553990887
10
-15.781880767578311
20
-18.933227451575476
10
-15.392846183367119
20
-18.644741309111183
10
-15.023890963597273
20
-18.332012666151726
10
-14.676180915050265
20
-17.996209062250816
10
-14.35088184450759
20
-17.638498036962179
10
-14.04915955875075
20
-17.260047129839524
10
-13.772179864561256
20
-16.862023880436571
10
-13.521108568720583
20
-16.445595828307038
10
-14.124634433666623
20
-15.901235116834931
10
-14.706819647500993
20
-15.33442547195888
10
-15.266973567432789
20
-14.745847358650707
10
-15.804405550671188
20
-14.136181241882211
10
-16.318424954425303
20
-13.506107586625212
10
-16.80834113590425
20
-12.856306857851516
10
-17.273463452317195
20
-12.187459520532933
10
-17.713101260873245
20
-11.500246039641269
10
-18.126563918781528
20
-10.795346880148347
10
-18.513160783251177
20
-10.073442507025971
10
-18.872201211491344
20
-9.3352133852459467
10
-19.202994560711133
20
-8.5813399797800969
10
-19.504850188119711
20
-7.8125027556002173
10
-19.777077450926157
20
-7.0293821776781238
10
-20.018985706339638
20
-6.2326587109856311
10
-20.229884311569286
20
-5.4230128204945487
10
-20.601194477572051
20
-5.4438554276669304
10
-20.967417474949475
20
-5.4826738193544617
10
-21.328113891444183
20
-5.5390295683334267
10
-21.682844314798757
20
-5.6124842473801255
10
-22.031169332755816
20
-5.7025994292708537
10
-22.372649533057938
20
-5.808936686781891
10
-22.706845503447735
20
-5.9310575926895401
10
-23.033317831667794
20
-6.0685237197700905
10
-23.35162710546075
20
-6.2208966407998343
10
-23.661333912569155
20
-6.3877379285550671
10
-23.96199884073561
20
-6.5686091558120818
10
-24.253182477702762
20
-6.7630718953471707
10
-24.534445411213142
20
-6.9706877199366124
10
-24.80534822900939
20
-7.1910182023567195
10
-25.065451518834124
20
-7.4236249153837672
10
-25.314315868429887
20
-7.668069431794061
10
-25.551501865539326
20
-7.9239133243638902
10
-25.776570097905022
20
-8.1907181658695443
10
-25.989081153269559
20
-8.468045529087318
10
-26.188595619375555
20
-8.755456986793499
10
-26.374674083965608
20
-9.0525141117643884
10
-26.546877134782328
20
-9.3587784767762727
10
-26.704765359568263
20
-9.6738116546054478
10
-26.847899346066086
20
-9.9971752180281985
10
-26.975839682018332
20
-10.328430739820828
10
-27.088146955167616
20
-10.66713979275962
10
-27.184381753256545
20
-11.01286394962087
10
-27.264104664027727
20
-11.365164783180873
10
-27.326876275223775
20
-11.723603866215919
10
-27.372257174587222
20
-12.087742771502299
10
-27.399807949860737
20
-12.457143071816308
10
-27.409089188786897
20
-12.831366339934238
10
-27.39944032370488
20
-13.212940365563135
10
-27.370804433343039
20
-13.589503471936588
10
-27.323647575027881
20
-13.960589878202946
10
-27.258435806085721
20
-14.325733803510534
10
-27.17563518384301
20
-14.684469467007695
10
-27.075711765626195
20
-15.036331087842765
10
-26.959131608761631
20
-15.380852885164074
10
-26.826360770575761
20
-15.717569078119965
10
-26.677865308394992
20
-16.046013885858766
10
-26.514111279545709
20
-16.365721527528819
10
-26.335564741354361
20
-16.676226222278455
0
LWPOLYLINE
5
102
100
AcDbEntity
8
0
100
AcDbPolyline
90
81
70
1
43
0.0
10
15.389380062273775
20
14.037105968310964
10
14.907301324515812
20
14.158501867846081
10
14.03440362598737
20
14.35144041324666
10
13.156594671436173
20
14.518313700058609
10
12.274494580415293
20
14.658536009875549
10
11.388723472477771
20
14.771521624291118
10
10.499901467176668
20
14.856684824898942
10
9.60864868406507
20
14.913439893292683
10
8.7155852426960223
20
14.941201111065961
10
8.527018721109787
20
14.92654691449998
10
8.3515428500745692
20
14.875174044581868
10
8.1928721491432732
20
14.790896220595386
10
8.0547211378687713
20
14.677527161824319
10
7.9408043358039393
20
14.538880587552466
10
7.8548362625016814
20
14.378770217063629
10
7.8005314375148771
20
14.201009769641594
10
7.7816043803964074
20
14.009412964570146
10
7.7890293901661023
20
13.239090047890109
10
7.8197708194329385
20
12.468617456356803
10
7.8734317746509213
20
11.698880305394322
10
7.9496153622740628
20
10.930763710426898
10
8.04792468875638
20
10.165152786878684
10
8.167962860551885
20
9.4029326501738204
10
8.3093329841146009
20
8.6449884157365009
10
8.4716381658985274
20
7.8922051989909203
10
8.6691153197734589
20
7.074528175403163
10
8.8894067322089363
20
6.2436992687608983
10
9.1422296005486441
20
5.4125185797892383
10
9.2838769548525129
20
5.0007963484065083
10
9.4373011221363239
20
4.5937862092133503
10
9.6037167520680438
20
4.1930881748004278
10
9.7843384943156515
20
3.8003022577583856
10
9.9803809985470888
20
3.417028470677832
10
10.193058914430344
20
3.0448668261494527
10
10.42358689163337
20
2.6854173367638534
10
10.673179579824115
20
2.340280015111702
10
10.943051628670554
20
2.0110548737836442
10
11.234417687840665
20
1.699341925370319
10
11.492448114188406
20
1.4558873158908026
10
11.759716250275092
20
1.2280682804033138
10
12.035606145291581
20
1.0158934369362416
10
12.319501848428731
20
0.81937140351794779
10
12.610787408877371
20
0.63851079817679901
10
12.908846875828361
20
0.47332023894115283
10
13.213064298472549
20
0.32380834383940238
10
13.522823726000791
20
0.18998373089990972
10
13.837509207603919
20
0.07185501815104578
10
14.156504792472795
20
-0.030569176378844043
10
14.47919452979826
20
-0.11728023466137327
10
14.804962468771169
20
-0.18826953866816987
10
15.133192658582363
20
-0.24352847037087177
10
15.389380062273775
20
-0.27420169759337476
10
15.389380062273775
20
2.3344139818042686
10
15.009268570970839
20
2.4318678994400345
10
14.62660718962541
20
2.570844139047086
10
14.256038118865986
20
2.7483601660360168
10
13.900503819555263
20
2.9644330538313701
10
13.562946752555929
20
3.2190798758576866
10
13.246309378730661
20
3.5123177055394939
10
12.960780225606003
20
3.8358432164482936
10
12.71432931882941
20
4.1793776735323185
10
12.506868291453284
20
4.5399750372811321
10
12.338308776530031
20
4.9146892681843335
10
12.208562407112042
20
5.3005743267314687
10
12.117540816251713
20
5.6946841734121172
10
12.06515563700145
20
6.094072768715872
10
12.051318502413634
20
6.4957940731322932
10
12.075941045540681
20
6.8969020471509657
10
12.138934899434977
20
7.2944506512614504
10
12.240211697148922
20
7.6854938459533395
10
12.379683071734913
20
8.0670855917161823
10
12.557260656245347
20
8.4362798490395985
10
12.772856083732622
20
8.790130578413109
10
13.026380987249137
20
9.1256917403263138
10
13.317746999847294
20
9.44001729526879
10
13.639436214147624
20
9.7239324744440747
10
13.981598641516854
20
9.9692704320001582
10
14.341242210877532
20
10.176062051053458
10
14.715374851152207
20
10.344338214720402
10
15.101004491263399
20
10.474129806117386
10
15.389380062273775
20
10.540958807668414
0
LWPOLYLINE
5
103
100
AcDbEntity
8
0
100
AcDbPolyline
90
23
70
1
43
0.0
10
12.537966794756459
20
16.482936432349284
10
14.762012523772722
20
15.777206186807508
10
16.602032308764652
20
15.221571461993072
10
19.369507876026031
20
14.43878204463681
10
19.247204408401466
20
14.715886786287683
10
19.106107370184951
20
14.985576448591935
10
18.947692307769934
20
15.247769749299
10
18.773434767549833
20
15.502385406158346
10
18.584810295918093
20
15.749342136919417
10
18.383294439268141
20
15.98855865933167
10
18.170362743993422
20
16.219953691144575
10
17.947490756487376
20
16.443445950107591
10
17.477828090354983
20
16.86639702048182
10
16.986110812018445
20
17.256761612449978
10
16.484143292625241
20
17.613889468007763
10
15.983729903322853
20
17.937130329150808
10
15.496675015258742
20
18.225833937874825
10
15.03478299958039
20
18.47935003617545
10
14.233705069970862
20
18.878218669489275
10
13.674931083674055
20
19.128534165057633
10
13.452896009869777
20
19.225094458845856
10
12.034200305727529
20
16.581410819677124
10
12.287472228196668
20
16.547614578046005
0
LWPOLYLINE
5
104
100
AcDbEntity
8
0
100
AcDbPolyline
90
25
70
1
43
0.0
10
5.6504167391576239
20
5.4752740919001397
10
6.0593040930001489
20
4.9987539998749693
10
6.499891558083295
20
4.5454997288014738
10
6.731727645134729
20
4.331275108048354
10
6.9710745353498371
20
4.1272803408452603
10
7.2177941538464818
20
3.9349865599629186
10
7.4717484257425166
20
3.7558648981720166
10
7.7327992761557818
20
3.59138648824326
10
8.0008086302041193
20
3.4430224629473427
10
8.2756384130053924
20
3.3122439550549698
10
8.5571505496774201
20
3.2005220973368642
10
8.1631123599781734
20
4.4383538367973019
10
7.6690115779513128
20
5.9362624559676824
10
7.0424534770224545
20
7.7535467555250825
10
6.2510433306171631
20
9.9495055361465781
10
6.1771583964302268
20
10.196482925998778
10
6.133039390034889
20
10.447459435848003
10
3.5480611115569061
20
8.9309014880534221
10
3.6530737999471863
20
8.7127169224850718
10
3.9246524993602416
20
8.1639094027604706
10
4.1201426055572483
20
7.794944690503689
10
4.35396041733825
20
7.378631426204727
10
4.6250013356460169
20
6.9267386720292645
10
4.9321607614233116
20
6.4510354901429201
10
5.2743340956129288
20
5.9632909427113301
0
LWPOLYLINE
5
105
100
AcDbEntity
8
0
100
AcDbPolyline
90
148
70
1
43
0.0
10
-19.422322977595083
20
-1.4812375144286727
10
-19.392657658790185
20
-1.9694219493061649
10
-19.351232244256103
20
-2.4543417499401521
10
-19.298188234498763
20
-2.9358553674508059
10
-19.23366713002407
20
-3.41382125295842
10
-19.157810431337978
20
-3.8880978575832028
10
-19.070759638946406
20
-4.3585436324453859
10
-18.972656253355247
20
-4.8250170286652132
10
-18.863641775070448
20
-5.2873764973629278
10
-18.743857704597922
20
-5.7454804896587541
10
-18.613445542443642
20
-6.1991874566729264
10
-18.472546789113462
20
-6.6483558495256831
10
-18.321302945113338
20
-7.092844119337264
10
-17.988345987126976
20
-7.9672140943178205
10
-17.615706672531928
20
-8.8211649905764773
10
-17.204517005375592
20
-9.6535644170751169
10
-16.755908989705361
20
-10.463279982775632
10
-16.271014629568626
20
-11.249179296639888
10
-15.750965929012812
20
-12.01012996762978
10
-15.196894892085266
20
-12.744999604707182
10
-14.609933522833423
20
-13.452655816833978
10
-13.99121382530466
20
-14.131966212972053
10
-13.34186780354635
20
-14.781798402083286
10
-12.663027461605925
20
-15.401019993129559
10
-11.955824803530772
20
-15.988498595072755
10
-11.221391833368273
20
-16.54310181687476
10
-10.460860555165823
20
-17.063697267497446
10
-9.6753629729708379
20
-17.549152555902701
10
-8.8660310908306794
20
-17.998335291052413
10
-8.0339969127927535
20
-18.410113081908456
10
-7.1803924429044752
20
-18.783353537432713
10
-6.3063496852132417
20
-19.11692426658707
10
-5.8620176997063034
20
-19.268479611576122
10
-5.4130006437664058
20
-19.409692878333406
10
-4.959440017899448
20
-19.540422517979152
10
-4.5014773226113824
20
-19.660526981633598
10
-4.039254058408126
20
-19.769864720416987
10
-3.5729117257955867
20
-19.868294185449539
10
-3.102591825279708
20
-19.955673827851506
10
-2.6284358573664068
20
-20.031862098743108
10
-2.1505853225615912
20
-20.09671744924459
10
-1.6691817213712135
20
-20.150098330476183
10
-1.1843665543011817
20
-20.191863193558124
10
-0.69628132185741265
20
-20.221870489610648
10
-0.20506752454585886
20
-20.239978669753992
10
0.28913333712758282
20
-20.246046185108387
10
1.2055041804384481
20
-20.225140271071052
10
2.1111218010474242
20
-20.163029202278565
10
3.005077340152511
20
-20.0606229887102
10
3.8864619389517041
20
-19.918831640345218
10
4.7543667386430162
20
-19.738565167162896
10
5.607882880424448
20
-19.520733579142501
10
6.4461015054940241
20
-19.266246886263303
10
7.2681137550497299
20
-18.976015098504586
10
8.0730107702895602
20
-18.6509482258456
10
8.8598836924115432
20
-18.291956278265626
10
9.6278236626136859
20
-17.899949265743935
10
10.375921822093968
20
-17.475837198259793
10
11.10326931205041
20
-17.020530085792473
10
11.80895727368102
20
-16.534937938321246
10
12.492076848183791
20
-16.019970765825381
10
13.15171917675675
20
-15.476538578284149
10
13.786975400597882
20
-14.905551385676819
10
14.396936660905201
20
-14.307919197982661
10
14.980694098876706
20
-13.684552025180952
10
15.537338855710415
20
-13.036359877250959
10
16.065962072604314
20
-12.36425276417194
10
16.565654890756413
20
-11.669140695923183
10
17.035508451364734
20
-10.951933682483954
10
17.474613895627265
20
-10.213541733833518
10
17.882062364742019
20
-9.454874859951147
10
18.256944999906992
20
-8.6768430708161191
10
18.598352942320201
20
-7.8803563764076952
10
18.905377333179644
20
-7.0663247867051462
10
19.177109313683317
20
-6.2356583116877431
10
19.412640025029248
20
-5.3892669613347621
10
19.611060608415428
20
-4.5280607456254751
10
19.771462205039857
20
-3.6529496745391454
10
19.770934843011105
20
-3.6524551149332218
10
18.799442044633032
20
-3.4850412633144567
10
17.812818560985132
20
-3.2926236387216856
10
16.821531897522416
20
-3.0732197131836103
10
15.836049559699896
20
-2.8248469587290059
10
15.203260737274988
20
-2.4909517917855286
10
14.54463554253948
20
-2.1335797429890571
10
13.749173944957462
20
-1.68622125769891
10
12.8853640341556
20
-1.1765987412071377
10
12.021693899760548
20
-0.6324345988058877
10
11.611313776723913
20
-0.35606266954295696
10
11.226651631398965
20
-0.081451235787196596
10
10.876268474989049
20
0.18793440179989185
10
10.568725318697505
20
0.44862894255679686
10
10.271862382677613
20
0.73009997247419856
10
9.9949765006576019
20
1.0238103433327228
10
9.7347585389886468
20
1.328636193660524
10
8.0975149263813115
20
1.9143986467397367
10
7.8336174256833875
20
2.016096621790755
10
7.5752538779121004
20
2.1304006542456699
10
7.3224671104104182
20
2.2565622432435628
10
7.0752999505213516
20
2.3938328879234705
10
6.5979957629529862
20
2.6987073408856155
10
6.1436839339508698
20
3.0390360062446531
10
5.7127070822589125
20
3.4088308771130382
10
5.3054078266210052
20
3.8021039466033413
10
4.9221287857810054
20
4.2128672078280189
10
4.5632125784828421
20
4.6351326538996123
10
4.2290018234703748
20
5.0629122779306108
10
3.9198391394875043
20
5.490218073033537
10
3.6360671452781257
20
5.9110620323208751
10
3.3780284595861221
20
6.3194561489051626
10
2.9405214887297748
20
7.0749428264146008
10
2.6100591768696124
20
7.7087740504618729
10
2.2899135857695474
20
8.3972282731410015
10
1.8210710793608498
20
9.5026497367894702
10
2.70266293981414
20
10.019083007561779
10
5.7051544934386129
20
11.780711893625671
10
5.3199228395893332
20
12.531549764064565
10
4.9740479150972376
20
13.232438604115458
10
4.6620190588011408
20
13.913802492910484
10
4.3834021669066576
20
14.566580933077219
10
4.1377631356193696
20
15.181713427243251
10
3.743682239688837
20
16.262798588083545
10
3.4763035406543996
20
17.084573996452093
10
3.4503744870299236
20
17.195078798520179
10
3.424447452016095
20
17.301987193413176
10
3.398217041902154
20
17.501637020151151
10
3.3942924370243177
20
17.699050075992417
10
3.412307732663955
20
17.892582564799913
10
3.4518970241024216
20
18.080590690436562
10
3.5126944066210686
20
18.261430656765285
10
3.5943339755012738
20
18.433458667649063
10
3.6964498260243883
20
18.595030926950777
10
3.8186760534717679
20
18.744503638533349
10
3.9578471451872654
20
18.876836623636471
10
3.9594337731474716
20
18.878945062446185
10
3.0605374045544997
20
19.027244132564029
10
2.1486923426264704
20
19.135720066831855
10
1.2246428869539616
20
19.202314843409024
10
0.7582741050855879
20
19.219263665738392
10
0.28913333712757394
20
19.224970440454886
10
-0.29277585240088833
20
19.21630575635637
10
-0.87036919719238881
20
19.19055781291188
10
-1.4434482504738799
20
19.148095773398058
10
-2.0118145654724007
20
19.089288801091516
10
-2.5752696954149368
20
19.014506059268911
10
-3.1336151935285184
20
18.92411671120685
10
-3.6866526130401489
20
18.818489920181953
10
-4.2341835071768177
20
18.697994849470867
42
0.36837208524511722
0
LWPOLYLINE
5
106
100
AcDbEntity
8
0
100
AcDbPolyline
90
88
70
1
43
0.0
10
17.019823290399838
20
-0.25616531688033795
10
17.119787819741127
20
-0.24426163261238809
10
17.448007142764105
20
-0.18916665339208105
10
17.773761110152165
20
-0.11827235764073851
10
18.096433771096152
20
-0.031570127329976216
10
18.415409174786909
20
0.070948655568576768
10
18.730071370415292
20
0.18929260908328693
10
19.039804407172145
20
0.32347035124251189
10
19.343992334248323
20
0.47349050007462257
10
19.642019200834667
20
0.63936167360800766
10
19.933269056122032
20
0.82109248987101591
10
20.217125949301259
20
1.0186915668920093
10
20.492973929563199
20
1.2321675226993811
10
20.760197046098714
20
1.4615289753214977
10
21.018179348098638
20
1.7067845427866968
10
21.263666776655647
20
1.9646359003890423
10
21.493320094584092
20
2.2316734704275576
10
21.707139883247901
20
2.5072853717792243
10
21.905126724011012
20
2.7908597233209753
10
22.087281198237328
20
3.0817846439297836
10
22.253603887290801
20
3.3794482524826175
10
22.404095372535355
20
3.6832386678564366
10
22.538756235334922
20
3.9925440089281627
10
22.657587057053416
20
4.3067523945748043
10
22.760588419054784
20
4.6252519436732742
10
22.847760902702944
20
4.9474307751005764
10
22.919105089361832
20
5.2726770077336438
10
22.97462156039537
20
5.6003787604494537
10
23.014310897167498
20
5.9299241521249435
10
23.038173681042128
20
6.260701301637086
10
23.046210493383207
20
6.5920983278628409
10
23.03842191555465
20
6.9235033496791543
10
23.014808528920394
20
7.2543044859630035
10
22.975370914844369
20
7.5838898555913303
10
22.920109654690503
20
7.9116475774410961
10
22.849025329822719
20
8.236965770389288
10
22.76211852160495
20
8.5592325533128299
10
22.659389811401134
20
8.8778360450886815
10
22.540839780575183
20
9.1921643645938431
10
22.406469010491037
20
9.501605630705221
10
22.256278082512626
20
9.8055479622998121
10
22.090267578003871
20
10.103379478254562
10
21.908438078328707
20
10.394488297446429
10
21.710790164851069
20
10.678262538752383
10
21.497324418934873
20
10.954090321049366
10
21.268041421944055
20
11.221359763214336
10
21.022941755242542
20
11.479458984124289
10
20.752793172262894
20
11.733293239844036
10
20.470262404534239
20
11.968674952153533
10
20.176349390252621
20
12.186699803045409
10
19.872054067614076
20
12.388463474512207
10
19.558376374814639
20
12.575061648546564
10
19.236316250050336
20
12.747590007141035
10
18.906873631517222
20
12.907144232288218
10
18.571048457411322
20
13.054820005980744
10
17.884250195265338
20
13.318918926972078
10
17.183920969180665
20
13.548652226055765
10
17.019823290399838
20
13.596108861684346
10
17.019823290399838
20
10.558930180541983
10
17.096885201656157
20
10.546900088127504
10
17.488663348159847
20
10.446432791349491
10
17.870993996957839
20
10.307697104116409
10
18.240885076972667
20
10.130723909544681
10
18.595344517126886
20
9.9155440907507497
10
18.931380246343029
20
9.6621885308510045
10
19.246000193543633
20
9.3706881129618722
10
19.529802793285821
20
9.0489050740482035
10
19.775007741846974
20
8.7066730535248915
10
19.981650697816413
20
8.3469806059175475
10
20.149767319783468
20
7.9728162857518692
10
20.279393266337472
20
7.5871686475535043
10
20.370564196067757
20
7.1930262458480758
10
20.423315767563661
20
6.7933776351612813
10
20.437683639414509
20
6.3912113700187501
10
20.413703470209626
20
5.9895160049461138
10
20.35141091853836
20
5.5912800944690844
10
20.250841642990025
20
5.1994921931132776
10
20.112031302153966
20
4.8171408554043582
10
19.9350155546195
20
4.447214635867982
10
19.719830058975973
20
4.0927020890298005
10
19.466510473812718
20
3.756591769415456
10
19.17509245771905
20
3.4418722315506223
10
18.853618076864805
20
3.1580376559760981
10
18.51186893710701
20
2.9125550601135886
10
18.152787499308374
20
2.7054415173876412
10
17.779316224331559
20
2.536714101222779
10
17.394397573039267
20
2.4063898850435428
10
17.019823290399838
20
2.3188891445076543
0
LWPOLYLINE
5
107
100
AcDbEntity
8
0
100
AcDbPolyline
90
60
70
1
43
0.0
10
23.96717558993123
20
3.2238389226752839
10
23.810710074689602
20
2.8310882224050604
10
23.630582440805149
20
2.4460629037299264
10
23.42676555863882
20
2.0698601943876604
10
23.199232298551546
20
1.7035773221160166
10
22.947955530904288
20
1.348311514652778
10
22.672908126057969
20
1.0051599997357119
10
22.374062954373557
20
0.67522000510258806
10
22.055386789349818
20
0.36298307864241153
10
21.722584354073327
20
0.074168315138791741
10
21.376747057005893
20
-0.19121638148313025
10
21.018966306609315
20
-0.43316310729819119
10
20.650333511345373
20
-0.65166395838128111
10
20.27194007967589
20
-0.84671103080722454
10
19.884877420062644
20
-1.0182964206508893
10
19.490236940967442
20
-1.1664122239871488
10
19.089110050852081
20
-1.2910505368908554
10
18.682588158178358
20
-1.3922034554368501
10
18.271762671408069
20
-1.469863075699992
10
17.857724999003011
20
-1.5240214937551622
10
17.441566549424991
20
-1.5546708056771841
10
17.024378731135798
20
-1.5618031075409233
10
16.607252952597243
20
-1.5454104954212555
10
16.191280622271101
20
-1.5054850653930263
10
16.911956998934787
20
-1.6899854516717816
10
17.638741515291713
20
-1.8584010102350212
10
18.366654632801968
20
-2.0114394513842395
10
19.090716812925628
20
-2.1498084854209165
10
20.507370206853469
20
-2.3853691733627236
10
21.8488653887559
20
-2.5707447564724784
10
23.075366050313548
20
-2.711596917162209
10
24.147035883207081
20
-2.8135873378439524
10
25.666537829724348
20
-2.9236296888315385
10
25.754809399083118
20
-2.9187669188900509
10
25.838516947699919
20
-2.8957945621136485
10
25.915080715576273
20
-2.8552534799897353
10
25.981920942713714
20
-2.7976845340056986
10
26.037285143537687
20
-2.7291087034964177
10
26.075186747650847
20
-2.6510503864411126
10
26.095030497193829
20
-2.5669343450291668
10
26.096221134307271
20
-2.4801853414499506
10
26.030234516719489
20
-1.8395653642433385
10
25.927598945231097
20
-0.96625109860040803
10
25.784258862596285
20
0.099846388831226207
10
25.596158711569259
20
1.3188160314039621
10
25.359242934904227
20
2.6507467624701575
10
25.22121182531815
20
3.346600327860918
10
25.069455975355392
20
4.055727515382193
10
24.903468440360239
20
4.7731394417030248
10
24.722742275676957
20
5.4938472234924562
10
24.526770536649842
20
6.2128619774195526
10
24.315046278623136
20
6.9251948201533287
10
24.370318997409377
20
6.5122909337271784
10
24.402173764304305
20
6.097237379256133
10
24.410583449668863
20
5.6811313844779932
10
24.395520923863991
20
5.2650701771305108
10
24.356959057250638
20
4.8501509849514912
10
24.294870720189738
20
4.4374710356786862
10
24.209228783042242
20
4.0281275570498698
10
24.100006116169087
20
3.6232177768028095
0
LWPOLYLINE
5
108
100
AcDbEntity
8
0
100
AcDbPolyline
90
4
70
1
43
0.0
10
22.000000000019515
20
74.000000000059188
10
-21.999999999980488
20
74.000000000059188
10
-21.999999999980488
20
71.000000000059188
10
22.000000000019515
20
71.000000000059188
0
LWPOLYLINE
5
109
100
AcDbEntity
8
0
100
AcDbPolyline
90
16
70
1
43
0.0
10
22.000000000006359
20
-76.999999999980616
10
-21.999999999980481
20
-76.999999999980616
10
-21.999999999980481
20
-79.999999999966548
10
-74.999999999980503
20
-79.999999999966548
10
-74.999999999980503
20
-24.999999999966551
10
-71.999999999980503
20
-24.999999999966551
10
-71.999999999980503
20
25.000000000033459
10
-74.999999999980503
20
25.000000000033459
10
-74.999999999980517
20
80.000000000059188
10
75.000000000019497
20
80.000000000059188
10
75.00000000008913
20
24.999999999707583
10
72.00000000008913
20
24.999999999720615
10
71.999999999871875
20
-25.000000000279385
10
74.999999999871889
20
-25.000000000292406
10
74.999999999893618
20
-79.999999999966548
10
22.000000000006359
20
-79.999999999966548
0
ENDSEC
0
SECTION
2
OBJECTS
0
DICTIONARY
5
C
100
AcDbDictionary
3
ACAD_GROUP
350
D
3
ACAD_MLINESTYLE
350
17
0
DICTIONARY
5
D
100
AcDbDictionary
0
DICTIONARY
5
1A
330
C
100
AcDbDictionary
0
DICTIONARY
5
17
100
AcDbDictionary
0
ENDSEC
0
EOF
