  0
SECTION
  2
HEADER
  9
$ACADVER
  1
AC1014
  9
$HANDSEED
  5
FFFF
  9
$MEASUREMENT
 70
     1
  0
ENDSEC
  0
SECTION
  2
TABLES
  0
TABLE
  2
VPORT
  5
8
330
0
100
AcDbSymbolTable
 70
     4
  0
VPORT
  5
2E
330
8
100
AcDbSymbolTableRecord
100
AcDbViewportTableRecord
  2
*ACTIVE
 70
     0
 10
0.0
 20
0.0
 11
1.0
 21
1.0
 12
210.0
 22
148.5
 13
0.0
 23
0.0
 14
10.0
 24
10.0
 15
10.0
 25
10.0
 16
0.0
 26
0.0
 36
1.0
 17
0.0
 27
0.0
 37
0.0
 40
341.0
 41
1.24
 42
50.0
 43
0.0
 44
0.0
 50
0.0
 51
0.0
 71
     0
 72
   100
 73
     1
 74
     3
 75
     0
 76
     0
 77
     0
 78
     0
  0
ENDTAB
  0
TABLE
  2
LTYPE
  5
5
330
0
100
AcDbSymbolTable
 70
     1
  0
LTYPE
  5
14
330
5
100
AcDbSymbolTableRecord
100
AcDbLinetypeTableRecord
  2
BYBLOCK
 70
     0
  3

 72
    65
 73
     0
 40
0.0
  0
LTYPE
  5
15
330
5
100
AcDbSymbolTableRecord
100
AcDbLinetypeTableRecord
  2
BYLAYER
 70
     0
  3

 72
    65
 73
     0
 40
0.0
  0
LTYPE
  5
16
330
5
100
AcDbSymbolTableRecord
100
AcDbLinetypeTableRecord
  2
CONTINUOUS
 70
     0
  3
Solid line
 72
    65
 73
     0
 40
0.0
  0
ENDTAB
  0
TABLE
  2
LAYER
  5
2
100
AcDbSymbolTable
 70
2
  0
LAYER
  5
50
100
AcDbSymbolTableRecord
100
AcDbLayerTableRecord
  2
0
 70
0
  6
CONTINUOUS
  0
LAYER
  5
51
100
AcDbSymbolTableRecord
100
AcDbLayerTableRecord
  2
Capa_1
 70
0
  6
CONTINUOUS
  0
ENDTAB
  0
TABLE
  2
STYLE
  5
3
330
0
100
AcDbSymbolTable
 70
     1
  0
STYLE
  5
11
330
3
100
AcDbSymbolTableRecord
100
AcDbTextStyleTableRecord
  2
STANDARD
 70
     0
 40
0.0
 41
1.0
 50
0.0
 71
     0
 42
2.5
  3
txt
  4

  0
ENDTAB
  0
TABLE
  2
VIEW
  5
6
330
0
100
AcDbSymbolTable
 70
     0
  0
ENDTAB
  0
TABLE
  2
UCS
  5
7
330
0
100
AcDbSymbolTable
 70
     0
  0
ENDTAB
  0
TABLE
  2
APPID
  5
9
330
0
100
AcDbSymbolTable
 70
     2
  0
APPID
  5
12
330
9
100
AcDbSymbolTableRecord
100
AcDbRegAppTableRecord
  2
ACAD
 70
     0
  0
ENDTAB
  0
TABLE
  2
DIMSTYLE
  5
A
330
0
100
AcDbSymbolTable
 70
     1
  0
DIMSTYLE
105
27
330
A
100
AcDbSymbolTableRecord
100
AcDbDimStyleTableRecord
  2
ISO-25
 70
     0
  3

  4

  5

  6

  7

 40
1.0
 41
2.5
 42
0.625
 43
3.75
 44
1.25
 45
0.0
 46
0.0
 47
0.0
 48
0.0
140
2.5
141
2.5
142
0.0
143
0.03937007874016
144
1.0
145
0.0
146
1.0
147
0.625
 71
     0
 72
     0
 73
     0
 74
     0
 75
     0
 76
     0
 77
     1
 78
     8
170
     0
171
     3
172
     1
173
     0
174
     0
175
     0
176
     0
177
     0
178
     0
270
     2
271
     2
272
     2
273
     2
274
     3
340
11
275
     0
280
     0
281
     0
282
     0
283
     0
284
     8
285
     0
286
     0
287
     3
288
     0
  0
ENDTAB
  0
TABLE
  2
BLOCK_RECORD
  5
1
330
0
100
AcDbSymbolTable
 70
     1
  0
BLOCK_RECORD
  5
1F
330
1
100
AcDbSymbolTableRecord
100
AcDbBlockTableRecord
  2
*MODEL_SPACE
  0
BLOCK_RECORD
  5
1B
330
1
100
AcDbSymbolTableRecord
100
AcDbBlockTableRecord
  2
*PAPER_SPACE
  0
ENDTAB
  0
ENDSEC
  0
SECTION
  2
BLOCKS
  0
BLOCK
  5
20
330
1F
100
AcDbEntity
  8
0
100
AcDbBlockBegin
  2
*MODEL_SPACE
 70
     0
 10
0.0
 20
0.0
 30
0.0
  3
*MODEL_SPACE
  1

  0
ENDBLK
  5
21
330
1F
100
AcDbEntity
  8
0
100
AcDbBlockEnd
  0
BLOCK
  5
1C
330
1B
100
AcDbEntity
 67
     1
  8
0
100
AcDbBlockBegin
  2
*PAPER_SPACE
  1

  0
ENDBLK
  5
1D
330
1B
100
AcDbEntity
 67
     1
  8
0
100
AcDbBlockEnd
  0
ENDSEC
  0
SECTION
  2
ENTITIES
  0
LINE
  5
100
100
AcDbEntity
  8
Capa_1
 62
7
100
AcDbLine
 10
20.128797
 20
0.128815
 30
0.0
 11
20.128797
 21
6.128831
 31
0.0
  0
LINE
  5
101
100
AcDbEntity
  8
Capa_1
 62
7
100
AcDbLine
 10
20.128797
 20
6.128831
 30
0.0
 11
0.128809
 21
6.128831
 31
0.0
  0
LINE
  5
102
100
AcDbEntity
  8
Capa_1
 62
7
100
AcDbLine
 10
0.128809
 20
162.128821
 30
0.0
 11
0.128809
 21
6.128831
 31
0.0
  0
LINE
  5
103
100
AcDbEntity
  8
Capa_1
 62
7
100
AcDbLine
 10
135.128793
 20
162.128821
 30
0.0
 11
0.128809
 21
162.128821
 31
0.0
  0
LINE
  5
104
100
AcDbEntity
  8
Capa_1
 62
7
100
AcDbLine
 10
135.128793
 20
6.128831
 30
0.0
 11
135.128793
 21
162.128821
 31
0.0
  0
LINE
  5
105
100
AcDbEntity
  8
Capa_1
 62
7
100
AcDbLine
 10
135.128793
 20
6.128831
 30
0.0
 11
115.128777
 21
6.128831
 31
0.0
  0
LINE
  5
106
100
AcDbEntity
  8
Capa_1
 62
7
100
AcDbLine
 10
115.128777
 20
6.128831
 30
0.0
 11
115.128777
 21
0.128815
 31
0.0
  0
LINE
  5
107
100
AcDbEntity
  8
Capa_1
 62
7
100
AcDbLine
 10
20.128797
 20
0.128815
 30
0.0
 11
115.128777
 21
0.128815
 31
0.0
  0
LINE
  5
108
100
AcDbEntity
  8
Capa_1
 62
7
100
AcDbLine
 10
80.890226
 20
56.904015
 30
0.0
 11
80.890226
 21
56.904156
 31
0.0
  0
SPLINE
  5
109
100
AcDbEntity
  8
Capa_1
 62
7
100
AcDbSpline
 70
0
 71
3
 72
25
 73
21
 74
19
 40
0.000000
 40
0.000000
 40
0.000000
 40
0.000000
 40
2.515567
 40
4.726469
 40
6.554691
 40
6.811843
 40
7.049712
 40
7.933142
 40
9.506678
 40
10.957904
 40
12.516458
 40
13.033407
 40
13.448053
 40
13.670786
 40
13.826624
 40
14.155433
 40
15.201295
 40
16.258170
 40
16.614062
 40
16.887593
 40
16.887593
 40
16.887593
 40
16.887593
 10
80.890226
 20
56.904156
 30
0.0
 10
81.636733
 20
57.261382
 30
0.0
 10
83.039337
 20
57.932569
 30
0.0
 10
84.896396
 20
59.394686
 30
0.0
 10
85.514871
 20
60.310323
 30
0.0
 10
86.108998
 20
61.233114
 30
0.0
 10
85.470672
 20
61.133391
 30
0.0
 10
84.779521
 20
60.876032
 30
0.0
 10
83.431995
 20
60.526408
 30
0.0
 10
81.997820
 20
60.085671
 30
0.0
 10
80.867002
 20
59.729713
 30
0.0
 10
80.081220
 20
59.481198
 30
0.0
 10
79.703456
 20
59.368583
 30
0.0
 10
79.466164
 20
59.300771
 30
0.0
 10
79.183245
 20
59.245511
 30
0.0
 10
79.609043
 20
58.635939
 30
0.0
 10
79.860229
 20
58.019135
 30
0.0
 10
80.245103
 20
57.336486
 30
0.0
 10
80.587418
 20
56.738302
 30
0.0
 10
80.798496
 20
56.853816
 30
0.0
 10
80.890226
 20
56.904015
 30
0.0
 11
80.890226
 21
56.904156
 31
0.0
 11
83.111757
 21
58.084358
 31
0.0
 11
84.836163
 21
59.468018
 31
0.0
 11
85.920188
 21
60.940188
 31
0.0
 11
86.017908
 21
61.178049
 31
0.0
 11
85.780040
 21
61.178925
 31
0.0
 11
84.928459
 21
60.943857
 31
0.0
 11
83.415922
 21
60.509980
 31
0.0
 11
82.025996
 21
60.092654
 31
0.0
 11
80.538972
 21
59.625907
 31
0.0
 11
80.045581
 21
59.471631
 31
0.0
 11
79.648233
 21
59.353116
 31
0.0
 11
79.432943
 21
59.296018
 31
0.0
 11
79.286408
 21
59.242980
 31
0.0
 11
79.395798
 21
58.932900
 31
0.0
 11
79.886785
 21
58.009451
 31
0.0
 11
80.391566
 21
57.080914
 31
0.0
 11
80.630770
 21
56.817399
 31
0.0
 11
80.890226
 21
56.904015
 31
0.0
  0
LINE
  5
10a
100
AcDbEntity
  8
Capa_1
 62
7
100
AcDbLine
 10
79.963916
 20
58.019753
 30
0.0
 11
79.963916
 21
58.019753
 31
0.0
  0
SPLINE
  5
10b
100
AcDbEntity
  8
Capa_1
 62
7
100
AcDbSpline
 70
0
 71
3
 72
28
 73
24
 74
22
 40
0.000000
 40
0.000000
 40
0.000000
 40
0.000000
 40
1.005015
 40
1.319676
 40
1.429810
 40
1.585857
 40
1.871363
 40
2.224798
 40
4.706555
 40
7.069583
 40
8.138166
 40
8.169529
 40
8.241881
 40
8.340597
 40
9.832138
 40
11.612798
 40
13.717081
 40
14.239976
 40
14.789242
 40
15.075462
 40
15.231301
 40
15.671611
 40
16.394138
 40
16.394138
 40
16.394138
 40
16.394138
 10
79.963916
 20
58.019753
 30
0.0
 10
79.859610
 20
58.280213
 30
0.0
 10
79.722646
 20
58.622221
 30
0.0
 10
79.275918
 20
59.189993
 30
0.0
 10
79.499667
 20
59.240540
 30
0.0
 10
79.668599
 20
59.280461
 30
0.0
 10
79.927931
 20
59.358786
 30
0.0
 10
80.909857
 20
59.662860
 30
0.0
 10
82.728818
 20
60.358248
 30
0.0
 10
84.061801
 20
60.303556
 30
0.0
 10
85.959744
 20
61.482785
 30
0.0
 10
85.907310
 20
61.084247
 30
0.0
 10
85.878463
 20
61.023011
 30
0.0
 10
85.649960
 20
60.518464
 30
0.0
 10
84.957261
 20
59.607853
 30
0.0
 10
83.584929
 20
58.435582
 30
0.0
 10
82.335420
 20
57.694232
 30
0.0
 10
81.371759
 20
57.185860
 30
0.0
 10
80.987186
 20
57.075077
 30
0.0
 10
80.631945
 20
56.795897
 30
0.0
 10
80.477427
 20
57.106675
 30
0.0
 10
80.261838
 20
57.452451
 30
0.0
 10
80.078088
 20
57.802346
 30
0.0
 10
79.963916
 20
58.019753
 30
0.0
 11
79.963916
 21
58.019753
 31
0.0
 11
79.491298
 21
58.906707
 31
0.0
 11
79.374625
 21
59.198938
 31
0.0
 11
79.478381
 21
59.235876
 31
0.0
 11
79.630060
 21
59.272536
 31
0.0
 11
79.904298
 21
59.351955
 31
0.0
 11
80.241735
 21
59.457082
 31
0.0
 11
82.612086
 21
60.192308
 31
0.0
 11
84.878605
 21
60.860734
 31
0.0
 11
85.912822
 21
61.129559
 31
0.0
 11
85.908216
 21
61.098537
 31
0.0
 11
85.882375
 21
61.030957
 31
0.0
 11
85.840968
 21
60.941345
 31
0.0
 11
84.982846
 21
59.721377
 31
0.0
 11
83.644495
 21
58.546828
 31
0.0
 11
81.853591
 21
57.441987
 31
0.0
 11
81.384928
 21
57.210097
 31
0.0
 11
80.885546
 21
56.981380
 31
0.0
 11
80.619179
 21
56.876640
 31
0.0
 11
80.527716
 21
57.002816
 31
0.0
 11
80.308890
 21
57.384899
 31
0.0
 11
79.963916
 21
58.019753
 31
0.0
  0
LINE
  5
10c
100
AcDbEntity
  8
Capa_1
 62
7
100
AcDbLine
 10
82.281807
 20
76.741048
 30
0.0
 11
82.768189
 21
76.998294
 31
0.0
  0
LINE
  5
10d
100
AcDbEntity
  8
Capa_1
 62
7
100
AcDbLine
 10
82.768189
 20
76.998294
 30
0.0
 11
83.347281
 21
77.138558
 31
0.0
  0
SPLINE
  5
10e
100
AcDbEntity
  8
Capa_1
 62
7
100
AcDbSpline
 70
0
 71
3
 72
40
 73
36
 74
34
 40
0.000000
 40
0.000000
 40
0.000000
 40
0.000000
 40
0.887545
 40
1.728827
 40
2.139309
 40
2.171193
 40
2.242571
 40
2.352940
 40
2.773104
 40
3.192665
 40
3.612644
 40
4.782178
 40
6.546926
 40
8.416966
 40
8.957746
 40
9.181241
 40
9.244492
 40
9.545384
 40
10.276080
 40
11.278495
 40
12.276879
 40
12.996941
 40
13.282791
 40
14.000617
 40
15.491955
 40
16.929127
 40
19.331681
 40
21.378482
 40
23.921454
 40
24.033881
 40
24.153811
 40
24.332328
 40
25.776475
 40
27.792061
 40
30.311111
 40
30.311111
 40
30.311111
 40
30.311111
 10
69.757631
 20
56.822143
 30
0.0
 10
70.065873
 20
56.840159
 30
0.0
 10
70.666288
 20
56.875254
 30
0.0
 10
71.213156
 20
57.088157
 30
0.0
 10
71.883107
 20
56.982549
 30
0.0
 10
71.873338
 20
57.163307
 30
0.0
 10
71.824294
 20
57.219306
 30
0.0
 10
71.696302
 20
57.370167
 30
0.0
 10
71.508024
 20
57.631717
 30
0.0
 10
71.383774
 20
58.040755
 30
0.0
 10
71.392480
 20
58.718508
 30
0.0
 10
71.803186
 20
59.777146
 30
0.0
 10
72.348622
 20
61.270340
 30
0.0
 10
72.989752
 20
62.529940
 30
0.0
 10
73.323155
 20
63.318667
 30
0.0
 10
73.497552
 20
63.562525
 30
0.0
 10
73.452708
 20
63.764305
 30
0.0
 10
73.033105
 20
63.865156
 30
0.0
 10
72.528634
 20
64.274720
 30
0.0
 10
71.715539
 20
64.709906
 30
0.0
 10
70.918122
 20
65.168559
 30
0.0
 10
70.398302
 20
65.526903
 30
0.0
 10
69.786714
 20
65.780529
 30
0.0
 10
70.493647
 20
66.737483
 30
0.0
 10
70.820434
 20
67.711668
 30
0.0
 10
71.783510
 20
69.292655
 30
0.0
 10
72.905121
 20
70.884185
 30
0.0
 10
74.797236
 20
72.333585
 30
0.0
 10
76.286485
 20
72.834201
 30
0.0
 10
77.154816
 20
73.171734
 30
0.0
 10
77.259580
 20
73.263048
 30
0.0
 10
77.630822
 20
73.708904
 30
0.0
 10
78.560074
 20
74.504696
 30
0.0
 10
80.218386
 20
75.610601
 30
0.0
 10
81.544907
 20
76.337337
 30
0.0
 10
82.281807
 20
76.741048
 30
0.0
 11
69.757631
 21
56.822143
 31
0.0
 11
70.640587
 21
56.912290
 31
0.0
 11
71.473839
 21
57.028244
 31
0.0
 11
71.874665
 21
57.116754
 31
0.0
 11
71.872016
 21
57.148528
 31
0.0
 11
71.833720
 21
57.208763
 31
0.0
 11
71.762510
 21
57.293087
 31
0.0
 11
71.528830
 21
57.642273
 31
0.0
 11
71.405405
 21
58.043269
 31
0.0
 11
71.402338
 21
58.463237
 31
0.0
 11
71.726151
 21
59.587050
 31
0.0
 11
72.370952
 21
61.229782
 31
0.0
 11
73.154712
 21
62.927653
 31
0.0
 11
73.395523
 21
63.411857
 31
0.0
 11
73.481319
 21
63.618228
 31
0.0
 11
73.467471
 21
63.679945
 31
0.0
 11
73.209698
 21
63.835153
 31
0.0
 11
72.580729
 21
64.207057
 31
0.0
 11
71.716649
 21
64.715193
 31
0.0
 11
70.856114
 21
65.221403
 31
0.0
 11
70.236489
 21
65.588221
 31
0.0
 11
69.991932
 21
65.736216
 31
0.0
 11
70.229298
 21
66.413660
 31
0.0
 11
70.894425
 21
67.748463
 31
0.0
 11
71.614428
 21
68.992270
 31
0.0
 11
73.076770
 21
70.898529
 31
0.0
 11
74.705064
 21
72.138711
 31
0.0
 11
77.046923
 21
73.129874
 31
0.0
 11
77.149319
 21
73.176295
 31
0.0
 11
77.242621
 21
73.251648
 31
0.0
 11
77.362025
 21
73.384354
 31
0.0
 11
78.427356
 21
74.359356
 31
0.0
 11
80.092328
 21
75.495338
 31
0.0
 11
82.281807
 21
76.741048
 31
0.0
  0
SPLINE
  5
10f
100
AcDbEntity
  8
Capa_1
 62
7
100
AcDbSpline
 70
0
 71
3
 72
40
 73
36
 74
34
 40
0.000000
 40
0.000000
 40
0.000000
 40
0.000000
 40
0.962391
 40
1.954717
 40
2.747934
 40
3.036207
 40
3.326516
 40
4.116372
 40
12.594901
 40
20.880479
 40
29.357092
 40
33.403330
 40
37.433185
 40
41.270896
 40
43.794071
 40
46.069012
 40
48.369250
 40
50.495465
 40
52.573977
 40
54.685992
 40
56.216987
 40
57.861535
 40
59.044302
 40
59.701050
 40
60.405786
 40
60.849831
 40
60.998378
 40
61.224718
 40
61.479861
 40
67.584854
 40
73.648395
 40
79.770180
 40
80.970871
 40
82.188912
 40
83.643714
 40
83.643714
 40
83.643714
 40
83.643714
 10
83.347281
 20
77.138558
 30
0.0
 10
83.658014
 20
77.211948
 30
0.0
 10
84.289145
 20
77.361011
 30
0.0
 10
85.211569
 20
77.535578
 30
0.0
 10
85.828182
 20
77.688683
 30
0.0
 10
86.376093
 20
77.718523
 30
0.0
 10
86.351630
 20
78.270020
 30
0.0
 10
85.585912
 20
81.146099
 30
0.0
 10
83.080133
 20
86.927872
 30
0.0
 10
76.086484
 20
92.071856
 30
0.0
 10
68.992334
 20
93.421004
 30
0.0
 10
63.522178
 20
92.454695
 30
0.0
 10
59.798668
 20
90.984216
 30
0.0
 10
56.934647
 20
88.979268
 30
0.0
 10
54.903712
 20
86.930607
 30
0.0
 10
53.432356
 20
85.068701
 30
0.0
 10
52.320256
 20
83.123756
 30
0.0
 10
51.443493
 20
81.136095
 30
0.0
 10
50.838348
 20
79.113910
 30
0.0
 10
50.507640
 20
77.230444
 30
0.0
 10
50.397169
 20
75.469402
 30
0.0
 10
50.376869
 20
74.017997
 30
0.0
 10
50.412116
 20
72.852780
 30
0.0
 10
50.577732
 20
72.019699
 30
0.0
 10
50.693180
 20
71.429476
 30
0.0
 10
50.785179
 20
71.006456
 30
0.0
 10
50.863380
 20
70.744867
 30
0.0
 10
50.917441
 20
70.541911
 30
0.0
 10
51.467144
 20
68.416690
 30
0.0
 10
53.203736
 20
64.556058
 30
0.0
 10
57.500159
 20
60.073703
 30
0.0
 10
61.571477
 20
58.025428
 30
0.0
 10
64.312814
 20
57.257137
 30
0.0
 10
65.579327
 20
56.996519
 30
0.0
 10
66.465257
 20
56.898332
 30
0.0
 10
66.947460
 20
56.844890
 30
0.0
 11
83.347281
 21
77.138558
 31
0.0
 11
84.285546
 21
77.352696
 31
0.0
 11
85.257258
 21
77.553908
 31
0.0
 11
86.037705
 21
77.695665
 31
0.0
 11
86.315345
 21
77.773238
 31
0.0
 11
86.355705
 21
78.060729
 31
0.0
 11
86.197612
 21
78.834601
 31
0.0
 11
82.476572
 21
86.452955
 31
0.0
 11
75.877918
 21
91.463801
 31
0.0
 11
67.541905
 21
93.001282
 31
0.0
 11
63.553115
 21
92.321870
 31
0.0
 11
59.814794
 21
90.816984
 31
0.0
 11
56.665992
 21
88.623112
 31
0.0
 11
54.882345
 21
86.838451
 31
0.0
 11
53.484352
 21
85.043744
 31
0.0
 11
52.328631
 21
83.054924
 31
0.0
 11
51.478977
 21
81.105853
 31
0.0
 11
50.880733
 21
79.115296
 31
0.0
 11
50.519248
 21
77.034447
 31
0.0
 11
50.411525
 21
75.507246
 31
0.0
 11
50.388851
 21
73.862854
 31
0.0
 11
50.459248
 21
72.682185
 31
0.0
 11
50.574243
 21
72.035582
 31
0.0
 11
50.712863
 21
71.344614
 31
0.0
 11
50.814311
 21
70.912313
 31
0.0
 11
50.855381
 21
70.769556
 31
0.0
 11
50.914720
 21
70.551133
 31
0.0
 11
50.979496
 21
70.304350
 31
0.0
 11
53.500875
 21
64.744350
 31
0.0
 11
57.695411
 21
60.365721
 31
0.0
 11
63.154365
 21
57.595149
 31
0.0
 11
64.310813
 21
57.272214
 31
0.0
 11
65.504407
 21
57.029404
 31
0.0
 11
66.947460
 21
56.844890
 31
0.0
  0
LINE
  5
110
100
AcDbEntity
  8
Capa_1
 62
7
100
AcDbLine
 10
69.757631
 20
56.822030
 30
0.0
 11
69.757631
 21
56.822143
 31
0.0
  0
SPLINE
  5
111
100
AcDbEntity
  8
Capa_1
 62
7
100
AcDbSpline
 70
0
 71
3
 72
10
 73
6
 74
4
 40
0.000000
 40
0.000000
 40
0.000000
 40
0.000000
 40
0.776693
 40
1.974393
 40
2.810874
 40
2.810874
 40
2.810874
 40
2.810874
 10
66.947460
 20
56.844890
 30
0.0
 10
67.206146
 20
56.834236
 30
0.0
 10
67.863737
 20
56.807152
 30
0.0
 10
68.800976
 20
56.800637
 30
0.0
 10
69.478872
 20
56.815796
 30
0.0
 10
69.757631
 20
56.822030
 30
0.0
 11
66.947460
 21
56.844890
 31
0.0
 11
67.723631
 21
56.816410
 31
0.0
 11
68.921291
 21
56.806689
 31
0.0
 11
69.757631
 21
56.822030
 31
0.0
  0
SPLINE
  5
112
100
AcDbEntity
  8
Capa_1
 62
7
100
AcDbSpline
 70
0
 71
3
 72
10
 73
6
 74
4
 40
0.000000
 40
0.000000
 40
0.000000
 40
0.000000
 40
0.111696
 40
0.472861
 40
1.126102
 40
1.126102
 40
1.126102
 40
1.126102
 10
67.002465
 20
56.901503
 30
0.0
 10
66.965226
 20
56.901183
 30
0.0
 10
66.807577
 20
56.899829
 30
0.0
 10
66.433021
 20
56.935125
 30
0.0
 10
66.099397
 20
56.989951
 30
0.0
 10
65.884555
 20
57.025258
 30
0.0
 11
67.002465
 21
56.901503
 31
0.0
 11
66.890769
 21
56.901446
 31
0.0
 11
66.530648
 21
56.928889
 31
0.0
 11
65.884555
 21
57.025258
 31
0.0
  0
LINE
  5
113
100
AcDbEntity
  8
Capa_1
 62
7
100
AcDbLine
 10
50.870022
 20
70.995597
 30
0.0
 11
50.859580
 21
71.109840
 31
0.0
  0
SPLINE
  5
114
100
AcDbEntity
  8
Capa_1
 62
7
100
AcDbSpline
 70
0
 71
3
 72
25
 73
21
 74
19
 40
0.000000
 40
0.000000
 40
0.000000
 40
0.000000
 40
2.051139
 40
4.139540
 40
6.186793
 40
6.711148
 40
7.010394
 40
7.117218
 40
7.144536
 40
7.196927
 40
7.265350
 40
7.611177
 40
8.210959
 40
8.850198
 40
13.002426
 40
17.113549
 40
21.249145
 40
21.505115
 40
21.696301
 40
21.781364
 40
21.781364
 40
21.781364
 40
21.781364
 10
65.884555
 20
57.025258
 30
0.0
 10
65.211043
 20
57.147197
 30
0.0
 10
63.851786
 20
57.393289
 30
0.0
 10
61.890283
 20
58.051087
 30
0.0
 10
60.472897
 20
58.693214
 30
0.0
 10
59.635661
 20
59.158183
 30
0.0
 10
59.363853
 20
59.306130
 30
0.0
 10
59.247461
 20
59.395112
 30
0.0
 10
59.212415
 20
59.447543
 30
0.0
 10
59.166182
 20
59.469597
 30
0.0
 10
59.024199
 20
59.529611
 30
0.0
 10
58.735343
 20
59.711156
 30
0.0
 10
58.294872
 20
59.999813
 30
0.0
 10
56.826575
 20
61.038432
 30
0.0
 10
54.638374
 20
63.086679
 30
0.0
 10
52.312871
 20
66.542665
 30
0.0
 10
51.298391
 20
69.221460
 30
0.0
 10
50.936027
 20
70.705177
 30
0.0
 10
50.893117
 20
70.877383
 30
0.0
 10
50.875459
 20
70.967766
 30
0.0
 10
50.870022
 20
70.995597
 30
0.0
 11
65.884555
 21
57.025258
 31
0.0
 11
63.875518
 21
57.438713
 31
0.0
 11
61.890828
 21
58.088652
 31
0.0
 11
60.030109
 21
58.942450
 31
0.0
 11
59.569845
 21
59.193657
 31
0.0
 11
59.312838
 21
59.346939
 31
0.0
 11
59.232972
 21
59.417881
 31
0.0
 11
59.215963
 21
59.439258
 31
0.0
 11
59.171364
 21
59.466750
 31
0.0
 11
59.108823
 21
59.494505
 31
0.0
 11
58.808561
 21
59.666082
 31
0.0
 11
58.307458
 21
59.995679
 31
0.0
 11
57.785595
 21
60.364850
 31
0.0
 11
54.749779
 21
63.197661
 31
0.0
 11
52.457324
 21
66.610281
 31
0.0
 11
50.992224
 21
70.477662
 31
0.0
 11
50.930677
 21
70.726122
 31
0.0
 11
50.886772
 21
70.912199
 31
0.0
 11
50.870022
 21
70.995597
 31
0.0
  0
LINE
  5
115
100
AcDbEntity
  8
Capa_1
 62
7
100
AcDbLine
 10
62.656412
 20
92.000747
 30
0.0
 11
62.757109
 21
92.032949
 31
0.0
  0
LINE
  5
116
100
AcDbEntity
  8
Capa_1
 62
7
100
AcDbLine
 10
62.757109
 20
92.032949
 30
0.0
 11
62.842340
 21
92.068876
 31
0.0
  0
SPLINE
  5
117
100
AcDbEntity
  8
Capa_1
 62
7
100
AcDbSpline
 70
0
 71
3
 72
34
 73
30
 74
28
 40
0.000000
 40
0.000000
 40
0.000000
 40
0.000000
 40
0.352190
 40
1.041155
 40
1.643919
 40
2.422198
 40
3.551163
 40
4.504949
 40
4.684451
 40
4.822203
 40
4.889050
 40
5.128203
 40
5.629936
 40
6.191439
 40
7.091942
 40
8.055217
 40
8.829191
 40
8.935818
 40
9.092760
 40
9.266062
 40
12.565867
 40
16.017714
 40
19.392064
 40
19.481626
 40
19.619330
 40
19.775356
 40
21.911710
 40
24.162730
 40
26.232826
 40
26.232826
 40
26.232826
 40
26.232826
 10
50.859580
 20
71.109840
 30
0.0
 10
50.832788
 20
71.224160
 30
0.0
 10
50.753585
 20
71.562117
 30
0.0
 10
50.656809
 20
72.101376
 30
0.0
 10
50.517028
 20
72.778274
 30
0.0
 10
50.481551
 20
73.616528
 30
0.0
 10
50.457616
 20
74.568971
 30
0.0
 10
50.471721
 20
75.323969
 30
0.0
 10
50.491487
 20
75.746612
 30
0.0
 10
50.497388
 20
75.875172
 30
0.0
 10
50.473774
 20
76.021613
 30
0.0
 10
50.490728
 20
76.292219
 30
0.0
 10
50.524498
 20
76.723865
 30
0.0
 10
50.594979
 20
77.375332
 30
0.0
 10
50.729872
 20
78.172698
 30
0.0
 10
50.907133
 20
79.034006
 30
0.0
 10
51.058397
 20
79.630275
 30
0.0
 10
51.160622
 20
79.960679
 30
0.0
 10
51.201760
 20
80.100376
 30
0.0
 10
51.536596
 20
81.263101
 30
0.0
 10
52.440661
 20
83.407615
 30
0.0
 10
54.308699
 20
86.236564
 30
0.0
 10
55.910310
 20
87.919084
 30
0.0
 10
56.830754
 20
88.689823
 30
0.0
 10
56.928625
 20
88.771950
 30
0.0
 10
57.547759
 20
89.294316
 30
0.0
 10
58.788248
 20
90.169436
 30
0.0
 10
60.662519
 20
91.242430
 30
0.0
 10
62.010596
 20
91.755130
 30
0.0
 10
62.656412
 20
92.000747
 30
0.0
 11
50.859580
 21
71.109840
 31
0.0
 11
50.781254
 21
71.453209
 31
0.0
 11
50.648553
 21
72.129275
 31
0.0
 11
50.542927
 21
72.722712
 31
0.0
 11
50.488340
 21
73.499074
 31
0.0
 11
50.465086
 21
74.627800
 31
0.0
 11
50.484027
 21
75.581397
 31
0.0
 11
50.492117
 21
75.760717
 31
0.0
 11
50.492117
 21
75.898469
 31
0.0
 11
50.484027
 21
75.964824
 31
0.0
 11
50.485598
 21
76.203972
 31
0.0
 11
50.525307
 21
76.704132
 31
0.0
 11
50.587066
 21
77.262228
 31
0.0
 11
50.731420
 21
78.151085
 31
0.0
 11
50.927777
 21
79.094135
 31
0.0
 11
51.124361
 21
79.842727
 31
0.0
 11
51.155476
 21
79.944713
 31
0.0
 11
51.200076
 21
80.095184
 31
0.0
 11
51.248539
 21
80.261573
 31
0.0
 11
52.507783
 21
83.311657
 31
0.0
 11
54.405226
 21
86.195224
 31
0.0
 11
56.749840
 21
88.621955
 31
0.0
 11
56.818443
 21
88.679530
 31
0.0
 11
56.923910
 21
88.768068
 31
0.0
 11
57.043407
 21
88.868391
 31
0.0
 11
58.774851
 21
90.119835
 31
0.0
 11
60.740508
 21
91.216777
 31
0.0
 11
62.656412
 21
92.000747
 31
0.0
  0
LINE
  5
118
100
AcDbEntity
  8
Capa_1
 62
7
100
AcDbLine
 10
66.697581
 20
92.880293
 30
0.0
 11
66.746179
 21
92.880321
 31
0.0
  0
LINE
  5
119
100
AcDbEntity
  8
Capa_1
 62
7
100
AcDbLine
 10
66.746179
 20
92.880321
 30
0.0
 11
66.907187
 21
92.897255
 31
0.0
  0
SPLINE
  5
11a
100
AcDbEntity
  8
Capa_1
 62
7
100
AcDbSpline
 70
0
 71
3
 72
13
 73
9
 74
7
 40
0.000000
 40
0.000000
 40
0.000000
 40
0.000000
 40
0.572841
 40
1.358107
 40
2.107848
 40
2.867839
 40
3.601513
 40
3.947497
 40
3.947497
 40
3.947497
 40
3.947497
 10
62.842340
 20
92.068876
 30
0.0
 10
63.024239
 20
92.127087
 30
0.0
 10
63.455488
 20
92.265097
 30
0.0
 10
64.136679
 20
92.438273
 30
0.0
 10
64.881193
 20
92.615563
 30
0.0
 10
65.618666
 20
92.739598
 30
0.0
 10
66.223488
 20
92.845160
 30
0.0
 10
66.582525
 20
92.871767
 30
0.0
 10
66.697581
 20
92.880293
 30
0.0
 11
62.842340
 21
92.068876
 31
0.0
 11
63.389396
 21
92.238808
 31
0.0
 11
64.148657
 21
92.439220
 31
0.0
 11
64.879477
 21
92.606594
 31
0.0
 11
65.627333
 21
92.741862
 31
0.0
 11
66.352832
 21
92.851084
 31
0.0
 11
66.697581
 21
92.880293
 31
0.0
  0
LINE
  5
11b
100
AcDbEntity
  8
Capa_1
 62
7
100
AcDbLine
 10
81.010706
 20
76.121034
 30
0.0
 11
80.953867
 21
76.089454
 31
0.0
  0
SPLINE
  5
11c
100
AcDbEntity
  8
Capa_1
 62
7
100
AcDbSpline
 70
0
 71
3
 72
31
 73
27
 74
25
 40
0.000000
 40
0.000000
 40
0.000000
 40
0.000000
 40
5.587564
 40
11.256331
 40
16.910263
 40
17.038063
 40
17.134493
 40
17.178692
 40
17.415395
 40
17.849455
 40
18.288071
 40
21.083797
 40
23.826049
 40
26.657778
 40
26.897141
 40
27.032103
 40
27.388036
 40
28.331629
 40
29.379652
 40
30.292102
 40
30.650600
 40
31.219310
 40
32.070203
 40
32.310681
 40
32.482326
 40
32.548068
 40
32.548068
 40
32.548068
 40
32.548068
 10
66.907187
 20
92.897255
 30
0.0
 10
68.785700
 20
92.895792
 30
0.0
 10
72.570027
 20
92.892845
 30
0.0
 10
77.886952
 20
90.644979
 30
0.0
 10
80.886789
 20
88.192681
 30
0.0
 10
82.168711
 20
86.710929
 30
0.0
 10
82.227306
 20
86.643291
 30
0.0
 10
82.312878
 20
86.551097
 30
0.0
 10
82.466176
 20
86.368442
 30
0.0
 10
82.695367
 20
86.078351
 30
0.0
 10
83.441608
 20
85.108529
 30
0.0
 10
84.488891
 20
83.429829
 30
0.0
 10
85.734241
 20
80.823716
 30
0.0
 10
85.891833
 20
79.041180
 30
0.0
 10
86.366924
 20
77.902683
 30
0.0
 10
86.156628
 20
77.727670
 30
0.0
 10
85.664072
 20
77.741823
 30
0.0
 10
84.909083
 20
77.533867
 30
0.0
 10
83.959686
 20
77.346534
 30
0.0
 10
83.199978
 20
77.193223
 30
0.0
 10
82.622318
 20
76.983603
 30
0.0
 10
82.094822
 20
76.711182
 30
0.0
 10
81.609990
 20
76.444992
 30
0.0
 10
81.241140
 20
76.242112
 30
0.0
 10
81.101957
 20
76.164460
 30
0.0
 10
81.030497
 20
76.130452
 30
0.0
 10
81.010706
 20
76.121034
 30
0.0
 11
66.907187
 21
92.897255
 31
0.0
 11
72.482330
 21
92.524897
 31
0.0
 11
77.742796
 21
90.412451
 31
0.0
 11
82.091815
 21
86.799561
 31
0.0
 11
82.175567
 21
86.703029
 31
0.0
 11
82.239269
 21
86.630635
 31
0.0
 11
82.269135
 21
86.598055
 31
0.0
 11
82.423207
 21
86.418359
 31
0.0
 11
82.693742
 21
86.078920
 31
0.0
 11
82.960439
 21
85.730701
 31
0.0
 11
84.460947
 21
83.371770
 31
0.0
 11
85.556762
 21
80.857980
 31
0.0
 11
86.278243
 21
78.119704
 31
0.0
 11
86.315635
 21
77.883280
 31
0.0
 11
86.218207
 21
77.789886
 31
0.0
 11
85.867977
 21
77.726427
 31
0.0
 11
84.940293
 21
77.553882
 31
0.0
 11
83.914980
 21
77.336889
 31
0.0
 11
83.027410
 21
77.125266
 31
0.0
 11
82.690729
 21
77.002113
 31
0.0
 11
82.179585
 21
76.752789
 31
0.0
 11
81.431725
 21
76.346925
 31
0.0
 11
81.221148
 21
76.230794
 31
0.0
 11
81.069900
 21
76.149639
 31
0.0
 11
81.010706
 21
76.121034
 31
0.0
  0
LINE
  5
11d
100
AcDbEntity
  8
Capa_1
 62
7
100
AcDbLine
 10
77.338741
 20
73.463178
 30
0.0
 11
77.132070
 21
73.230768
 31
0.0
  0
LINE
  5
11e
100
AcDbEntity
  8
Capa_1
 62
7
100
AcDbLine
 10
77.132070
 20
73.230768
 30
0.0
 11
76.423466
 21
72.979901
 31
0.0
  0
SPLINE
  5
11f
100
AcDbEntity
  8
Capa_1
 62
7
100
AcDbSpline
 70
0
 71
3
 72
13
 73
9
 74
7
 40
0.000000
 40
0.000000
 40
0.000000
 40
0.000000
 40
0.097704
 40
0.323506
 40
0.628591
 40
2.200400
 40
3.466317
 40
4.483085
 40
4.483085
 40
4.483085
 40
4.483085
 10
80.953867
 20
76.089454
 30
0.0
 10
80.926433
 20
76.071900
 30
0.0
 10
80.835597
 20
76.013779
 30
0.0
 10
80.655700
 20
75.906306
 30
0.0
 10
80.053623
 20
75.547441
 30
0.0
 10
79.165431
 20
74.992975
 30
0.0
 10
78.116101
 20
74.243423
 30
0.0
 10
77.578295
 20
73.703621
 30
0.0
 10
77.338741
 20
73.463178
 30
0.0
 11
80.953867
 21
76.089454
 31
0.0
 11
80.871406
 21
76.037049
 31
0.0
 11
80.678376
 21
75.919890
 31
0.0
 11
80.416516
 21
75.763346
 31
0.0
 11
79.088015
 21
74.923304
 31
0.0
 11
78.073992
 21
74.165477
 31
0.0
 11
77.338741
 21
73.463178
 31
0.0
  0
LINE
  5
120
100
AcDbEntity
  8
Capa_1
 62
7
100
AcDbLine
 10
73.370669
 20
63.667499
 30
0.0
 11
73.431290
 21
63.629258
 31
0.0
  0
LINE
  5
121
100
AcDbEntity
  8
Capa_1
 62
7
100
AcDbLine
 10
73.431290
 20
63.629258
 30
0.0
 11
73.092764
 21
62.952602
 31
0.0
  0
SPLINE
  5
122
100
AcDbEntity
  8
Capa_1
 62
7
100
AcDbSpline
 70
0
 71
3
 72
22
 73
18
 74
16
 40
0.000000
 40
0.000000
 40
0.000000
 40
0.000000
 40
0.791522
 40
1.309317
 40
1.700293
 40
3.930630
 40
6.506788
 40
9.431237
 40
9.770839
 40
10.016372
 40
10.115401
 40
10.399299
 40
11.113797
 40
12.104221
 40
13.100245
 40
13.829384
 40
14.133777
 40
14.133777
 40
14.133777
 40
14.133777
 10
76.423466
 20
72.979901
 30
0.0
 10
76.174962
 20
72.891356
 30
0.0
 10
75.763893
 20
72.744887
 30
0.0
 10
75.235626
 20
72.538209
 30
0.0
 10
74.299672
 20
72.067727
 30
0.0
 10
72.939285
 20
70.949129
 30
0.0
 10
71.364032
 20
68.886409
 30
0.0
 10
70.485123
 20
67.155377
 30
0.0
 10
70.027655
 20
66.062091
 30
0.0
 10
69.955000
 20
65.857951
 30
0.0
 10
69.869566
 20
65.638564
 30
0.0
 10
70.366569
 20
65.525666
 30
0.0
 10
70.800051
 20
65.132382
 30
0.0
 10
71.637146
 20
64.701173
 30
0.0
 10
72.400640
 20
64.235976
 30
0.0
 10
72.987138
 20
63.894813
 30
0.0
 10
73.283411
 20
63.719216
 30
0.0
 10
73.370669
 20
63.667499
 30
0.0
 11
76.423466
 21
72.979901
 31
0.0
 11
75.679517
 21
72.709630
 31
0.0
 11
75.199922
 21
72.514437
 31
0.0
 11
74.850219
 21
72.339595
 31
0.0
 11
73.089806
 21
70.970160
 31
0.0
 11
71.499267
 21
68.943642
 31
0.0
 11
70.148904
 21
66.349626
 31
0.0
 11
70.020154
 21
66.035376
 31
0.0
 11
69.934238
 21
65.805366
 31
0.0
 11
69.909777
 21
65.709405
 31
0.0
 11
70.152594
 21
65.562306
 31
0.0
 11
70.767449
 21
65.198353
 31
0.0
 11
71.621201
 21
64.696312
 31
0.0
 11
72.480176
 21
64.192102
 31
0.0
 11
73.108688
 21
63.822487
 31
0.0
 11
73.370669
 21
63.667499
 31
0.0
  0
LINE
  5
123
100
AcDbEntity
  8
Capa_1
 62
7
100
AcDbLine
 10
67.001590
 20
56.901729
 30
0.0
 11
67.002465
 21
56.901503
 31
0.0
  0
SPLINE
  5
124
100
AcDbEntity
  8
Capa_1
 62
7
100
AcDbSpline
 70
0
 71
3
 72
22
 73
18
 74
16
 40
0.000000
 40
0.000000
 40
0.000000
 40
0.000000
 40
1.839505
 40
3.576846
 40
4.752949
 40
5.215482
 40
5.670853
 40
6.116674
 40
6.237241
 40
6.358149
 40
6.793813
 40
7.318118
 40
7.865217
 40
8.398246
 40
9.228154
 40
10.356365
 40
11.045773
 40
11.045773
 40
11.045773
 40
11.045773
 10
73.092764
 20
62.952602
 30
0.0
 10
72.828238
 20
62.398608
 30
0.0
 10
72.313875
 20
61.321390
 30
0.0
 10
71.753109
 20
59.844743
 30
0.0
 10
71.349698
 20
58.780903
 30
0.0
 10
71.309750
 20
58.078094
 30
0.0
 10
71.459182
 20
57.623941
 30
0.0
 10
71.582271
 20
57.359736
 30
0.0
 10
71.832554
 20
57.161038
 30
0.0
 10
71.525835
 20
57.082372
 30
0.0
 10
71.234547
 20
57.057651
 30
0.0
 10
70.710068
 20
56.974863
 30
0.0
 10
70.186236
 20
56.921640
 30
0.0
 10
69.549758
 20
56.858695
 30
0.0
 10
68.719385
 20
56.867040
 30
0.0
 10
67.836884
 20
56.875869
 30
0.0
 10
67.231288
 20
56.894618
 30
0.0
 10
67.001590
 20
56.901729
 30
0.0
 11
73.092764
 21
62.952602
 31
0.0
 11
72.323611
 21
61.281619
 31
0.0
 11
71.685326
 21
59.665777
 31
0.0
 11
71.349195
 21
58.538731
 31
0.0
 11
71.339599
 21
58.076297
 31
0.0
 11
71.462735
 21
57.637890
 31
0.0
 11
71.706969
 21
57.264921
 31
0.0
 11
71.783241
 21
57.171546
 31
0.0
 11
71.673227
 21
57.121389
 31
0.0
 11
71.242911
 21
57.053339
 31
0.0
 11
70.723522
 21
56.981698
 31
0.0
 11
70.179775
 21
56.921234
 31
0.0
 11
69.648665
 21
56.876047
 31
0.0
 11
68.818817
 21
56.866035
 31
0.0
 11
67.690723
 21
56.882220
 31
0.0
 11
67.001590
 21
56.901729
 31
0.0
  0
LINE
  5
125
100
AcDbEntity
  8
Capa_1
 62
7
100
AcDbLine
 10
59.281147
 20
59.414946
 30
0.0
 11
59.281147
 21
59.414946
 31
0.0
  0
SPLINE
  5
126
100
AcDbEntity
  8
Capa_1
 62
7
100
AcDbSpline
 70
0
 71
3
 72
10
 73
6
 74
4
 40
0.000000
 40
0.000000
 40
0.000000
 40
0.000000
 40
0.196789
 40
0.393577
 40
0.787154
 40
0.787154
 40
0.787154
 40
0.787154
 10
59.281147
 20
59.414946
 30
0.0
 10
59.331802
 20
59.382990
 30
0.0
 10
59.433111
 20
59.319077
 30
0.0
 10
59.751510
 20
59.118209
 30
0.0
 10
59.469292
 20
59.296252
 30
0.0
 10
59.281147
 20
59.414946
 30
0.0
 11
59.281147
 21
59.414946
 31
0.0
 11
59.447583
 21
59.309947
 31
0.0
 11
59.614019
 21
59.204948
 31
0.0
 11
59.281147
 21
59.414946
 31
0.0
  0
LINE
  5
127
100
AcDbEntity
  8
Capa_1
 62
7
100
AcDbLine
 10
73.675779
 20
58.250497
 30
0.0
 11
73.675666
 21
58.250497
 31
0.0
  0
SPLINE
  5
128
100
AcDbEntity
  8
Capa_1
 62
7
100
AcDbSpline
 70
0
 71
3
 72
22
 73
18
 74
16
 40
0.000000
 40
0.000000
 40
0.000000
 40
0.000000
 40
1.094909
 40
2.134416
 40
3.087749
 40
3.394917
 40
3.455812
 40
3.708687
 40
5.121155
 40
6.421497
 40
7.819779
 40
7.967518
 40
9.133341
 40
10.652186
 40
12.088488
 40
12.528865
 40
13.465591
 40
13.465591
 40
13.465591
 40
13.465591
 10
73.675666
 20
58.250497
 30
0.0
 10
74.017544
 20
58.372712
 30
0.0
 10
74.684001
 20
58.610958
 30
0.0
 10
75.678686
 20
58.963396
 30
0.0
 10
76.264574
 20
59.381365
 30
0.0
 10
76.793729
 20
59.462563
 30
0.0
 10
76.826136
 20
59.701685
 30
0.0
 10
75.975997
 20
59.408945
 30
0.0
 10
75.267904
 20
59.919255
 30
0.0
 10
73.950451
 20
60.626925
 30
0.0
 10
74.665717
 20
62.572072
 30
0.0
 10
73.805227
 20
62.066036
 30
0.0
 10
73.650760
 20
61.038000
 30
0.0
 10
73.126225
 20
59.815251
 30
0.0
 10
72.450803
 20
58.818405
 30
0.0
 10
72.790306
 20
57.749623
 30
0.0
 10
73.317306
 20
58.047724
 30
0.0
 10
73.675779
 20
58.250497
 30
0.0
 11
73.675666
 21
58.250497
 31
0.0
 11
74.706858
 21
58.618557
 31
0.0
 11
75.669896
 21
59.009878
 31
0.0
 11
76.534239
 21
59.412068
 31
0.0
 11
76.803073
 21
59.560663
 31
0.0
 11
76.809679
 21
59.621198
 31
0.0
 11
76.556816
 21
59.618711
 31
0.0
 11
75.181048
 21
59.938597
 31
0.0
 11
74.340084
 21
60.930398
 31
0.0
 11
74.260882
 21
62.326435
 31
0.0
 11
74.132640
 21
62.253083
 31
0.0
 11
73.633182
 21
61.199666
 31
0.0
 11
73.059801
 21
59.793209
 31
0.0
 11
72.604010
 21
58.431145
 31
0.0
 11
72.767308
 21
58.022164
 31
0.0
 11
73.675779
 21
58.250497
 31
0.0
  0
LINE
  5
129
100
AcDbEntity
  8
Capa_1
 62
7
100
AcDbLine
 10
73.934718
 20
61.697757
 30
0.0
 11
74.148529
 21
62.156679
 31
0.0
  0
LINE
  5
12a
100
AcDbEntity
  8
Capa_1
 62
7
100
AcDbLine
 10
74.148529
 20
62.156679
 30
0.0
 11
74.165745
 21
61.711276
 31
0.0
  0
SPLINE
  5
12b
100
AcDbEntity
  8
Capa_1
 62
7
100
AcDbSpline
 70
0
 71
3
 72
13
 73
9
 74
7
 40
0.000000
 40
0.000000
 40
0.000000
 40
0.000000
 40
0.138098
 40
0.364593
 40
0.826541
 40
1.832641
 40
2.850901
 40
3.874477
 40
3.874477
 40
3.874477
 40
3.874477
 10
72.748397
 20
58.094965
 30
0.0
 10
72.711721
 20
58.127372
 30
0.0
 10
72.614894
 20
58.212929
 30
0.0
 10
72.700500
 20
58.515939
 30
0.0
 10
72.853298
 20
59.029988
 30
0.0
 10
73.142470
 20
59.825374
 30
0.0
 10
73.512603
 20
60.765799
 30
0.0
 10
73.793769
 20
61.386566
 30
0.0
 10
73.934718
 20
61.697757
 30
0.0
 11
72.748397
 21
58.094965
 31
0.0
 11
72.657679
 21
58.199087
 31
0.0
 11
72.675115
 21
58.424910
 31
0.0
 11
72.808030
 21
58.867322
 31
0.0
 11
73.143622
 21
59.815803
 31
0.0
 11
73.520217
 21
60.761863
 31
0.0
 11
73.934718
 21
61.697757
 31
0.0
  0
LINE
  5
12c
100
AcDbEntity
  8
Capa_1
 62
7
100
AcDbLine
 10
76.241010
 20
59.556961
 30
0.0
 11
76.631125
 21
59.542285
 31
0.0
  0
LINE
  5
12d
100
AcDbEntity
  8
Capa_1
 62
7
100
AcDbLine
 10
76.631125
 20
59.542285
 30
0.0
 11
76.424087
 21
59.438117
 31
0.0
  0
SPLINE
  5
12e
100
AcDbEntity
  8
Capa_1
 62
7
100
AcDbSpline
 70
0
 71
3
 72
10
 73
6
 74
4
 40
0.000000
 40
0.000000
 40
0.000000
 40
0.000000
 40
1.182117
 40
2.188720
 40
3.328324
 40
3.328324
 40
3.328324
 40
3.328324
 10
74.165745
 20
61.711276
 30
0.0
 10
74.211529
 20
61.311895
 30
0.0
 10
74.296298
 20
60.572432
 30
0.0
 10
75.127059
 20
59.696820
 30
0.0
 10
75.854663
 20
59.605467
 30
0.0
 10
76.241010
 20
59.556961
 30
0.0
 11
74.165745
 21
61.711276
 31
0.0
 11
74.437729
 21
60.560873
 31
0.0
 11
75.136075
 21
59.835917
 31
0.0
 11
76.241010
 21
59.556961
 31
0.0
  0
LINE
  5
12f
100
AcDbEntity
  8
Capa_1
 62
7
100
AcDbLine
 10
72.748481
 20
58.095021
 30
0.0
 11
72.748397
 21
58.094965
 31
0.0
  0
SPLINE
  5
130
100
AcDbEntity
  8
Capa_1
 62
7
100
AcDbSpline
 70
0
 71
3
 72
13
 73
9
 74
7
 40
0.000000
 40
0.000000
 40
0.000000
 40
0.000000
 40
1.020765
 40
2.196067
 40
3.353432
 40
3.708824
 40
3.856762
 40
3.936782
 40
3.936782
 40
3.936782
 40
3.936782
 10
76.424087
 20
59.438117
 30
0.0
 10
76.115957
 20
59.293104
 30
0.0
 10
75.453049
 20
58.981125
 30
0.0
 10
74.413019
 20
58.579294
 30
0.0
 10
73.560542
 20
58.271000
 30
0.0
 10
73.039807
 20
58.124235
 30
0.0
 10
72.845230
 20
58.053502
 30
0.0
 10
72.773619
 20
58.084234
 30
0.0
 10
72.748481
 20
58.095021
 30
0.0
 11
76.424087
 21
59.438117
 31
0.0
 11
75.495771
 21
59.013629
 31
0.0
 11
74.403313
 21
58.580186
 31
0.0
 11
73.309370
 21
58.202322
 31
0.0
 11
72.969742
 21
58.097651
 31
0.0
 11
72.824439
 21
58.069851
 31
0.0
 11
72.748481
 21
58.095021
 31
0.0
  0
LINE
  5
131
100
AcDbEntity
  8
Capa_1
 62
7
100
AcDbLine
 10
82.126726
 20
63.162434
 30
0.0
 11
82.119670
 21
64.856388
 31
0.0
  0
LINE
  5
132
100
AcDbEntity
  8
Capa_1
 62
7
100
AcDbLine
 10
82.119670
 20
64.856388
 30
0.0
 11
81.906367
 21
64.931177
 31
0.0
  0
SPLINE
  5
133
100
AcDbEntity
  8
Capa_1
 62
7
100
AcDbSpline
 70
0
 71
3
 72
16
 73
12
 74
10
 40
0.000000
 40
0.000000
 40
0.000000
 40
0.000000
 40
1.519216
 40
3.055150
 40
4.566750
 40
4.844337
 40
5.045670
 40
5.127146
 40
5.359351
 40
5.967917
 40
6.821149
 40
6.821149
 40
6.821149
 40
6.821149
 10
77.053273
 20
60.729312
 30
0.0
 10
77.558341
 20
60.764552
 30
0.0
 10
78.574032
 20
60.835420
 30
0.0
 10
80.086615
 20
61.042925
 30
0.0
 10
81.164714
 20
61.263779
 30
0.0
 10
81.823082
 20
61.400167
 30
0.0
 10
81.993670
 20
61.450807
 30
0.0
 10
82.188408
 20
61.462896
 30
0.0
 10
82.062256
 20
61.883289
 30
0.0
 10
82.161475
 20
62.362573
 30
0.0
 10
82.139533
 20
62.867636
 30
0.0
 10
82.126726
 20
63.162434
 30
0.0
 11
77.053273
 21
60.729312
 31
0.0
 11
78.567541
 21
60.851835
 31
0.0
 11
80.089265
 21
61.060273
 31
0.0
 11
81.573147
 21
61.348423
 31
0.0
 11
81.844065
 21
61.408907
 31
0.0
 11
82.040720
 21
61.452050
 31
0.0
 11
82.120517
 21
61.468508
 31
0.0
 11
82.126266
 21
61.700642
 31
0.0
 11
82.128503
 21
62.309204
 31
0.0
 11
82.126726
 21
63.162434
 31
0.0
  0
LINE
  5
134
100
AcDbEntity
  8
Capa_1
 62
7
100
AcDbLine
 10
81.903545
 20
72.135520
 30
0.0
 11
82.119699
 21
72.211607
 31
0.0
  0
LINE
  5
135
100
AcDbEntity
  8
Capa_1
 62
7
100
AcDbLine
 10
82.119699
 20
72.211607
 30
0.0
 11
82.126754
 21
73.450196
 31
0.0
  0
LINE
  5
136
100
AcDbEntity
  8
Capa_1
 62
7
100
AcDbLine
 10
82.126754
 20
73.450196
 30
0.0
 11
82.133810
 21
74.688785
 31
0.0
  0
LINE
  5
137
100
AcDbEntity
  8
Capa_1
 62
7
100
AcDbLine
 10
82.133810
 20
74.688785
 30
0.0
 11
81.972491
 21
74.670723
 31
0.0
  0
SPLINE
  5
138
100
AcDbEntity
  8
Capa_1
 62
7
100
AcDbSpline
 70
0
 71
3
 72
10
 73
6
 74
4
 40
0.000000
 40
0.000000
 40
0.000000
 40
0.000000
 40
3.122063
 40
6.057076
 40
9.179970
 40
9.179970
 40
9.179970
 40
9.179970
 10
81.906367
 20
64.931177
 30
0.0
 10
80.988918
 20
65.530175
 30
0.0
 10
79.208988
 20
66.692284
 30
0.0
 10
79.207799
 20
70.371278
 30
0.0
 10
80.986574
 20
71.535405
 30
0.0
 10
81.903545
 20
72.135520
 30
0.0
 11
81.906367
 21
64.931177
 31
0.0
 11
79.626703
 21
67.064347
 31
0.0
 11
79.625545
 21
69.999359
 31
0.0
 11
81.903545
 21
72.135520
 31
0.0
  0
LINE
  5
139
100
AcDbEntity
  8
Capa_1
 62
7
100
AcDbLine
 10
77.053358
 20
60.729537
 30
0.0
 11
77.053273
 21
60.729312
 31
0.0
  0
SPLINE
  5
13a
100
AcDbEntity
  8
Capa_1
 62
7
100
AcDbSpline
 70
0
 71
3
 72
16
 73
12
 74
10
 40
0.000000
 40
0.000000
 40
0.000000
 40
0.000000
 40
1.648044
 40
3.413146
 40
5.184731
 40
7.757742
 40
10.983809
 40
14.454502
 40
16.049284
 40
16.841546
 40
18.045791
 40
18.045791
 40
18.045791
 40
18.045791
 10
81.972491
 20
74.670723
 30
0.0
 10
81.433319
 20
74.546020
 30
0.0
 10
80.316676
 20
74.287759
 30
0.0
 10
78.859547
 20
73.297422
 30
0.0
 10
77.470895
 20
71.775678
 30
0.0
 10
76.508864
 20
69.405426
 30
0.0
 10
75.682997
 20
66.410168
 30
0.0
 10
75.513312
 20
63.678148
 30
0.0
 10
75.151633
 20
61.688681
 30
0.0
 10
75.884667
 20
60.553445
 30
0.0
 10
76.613652
 20
60.663285
 30
0.0
 10
77.053358
 20
60.729537
 30
0.0
 11
81.972491
 21
74.670723
 31
0.0
 11
80.391671
 21
74.204830
 31
0.0
 11
78.908725
 21
73.247513
 31
0.0
 11
77.725442
 21
71.929047
 31
0.0
 11
76.635210
 21
69.598428
 31
0.0
 11
75.811447
 21
66.479306
 31
0.0
 11
75.376761
 21
63.035942
 31
0.0
 11
75.385347
 21
61.441183
 31
0.0
 11
75.851197
 21
60.800353
 31
0.0
 11
77.053358
 21
60.729537
 31
0.0
  0
LINE
  5
13b
100
AcDbEntity
  8
Capa_1
 62
7
100
AcDbLine
 10
82.018353
 20
74.616197
 30
0.0
 11
82.079143
 21
74.628615
 31
0.0
  0
LINE
  5
13c
100
AcDbEntity
  8
Capa_1
 62
7
100
AcDbLine
 10
82.079143
 20
74.628615
 30
0.0
 11
82.079143
 21
73.439161
 31
0.0
  0
SPLINE
  5
13d
100
AcDbEntity
  8
Capa_1
 62
7
100
AcDbSpline
 70
0
 71
3
 72
16
 73
12
 74
10
 40
0.000000
 40
0.000000
 40
0.000000
 40
0.000000
 40
0.687514
 40
1.988355
 40
4.196357
 40
9.307240
 40
13.067455
 40
16.356148
 40
16.475799
 40
16.577374
 40
16.638865
 40
16.638865
 40
16.638865
 40
16.638865
 10
75.875475
 20
60.848184
 30
0.0
 10
75.727218
 20
61.030823
 30
0.0
 10
75.298444
 20
61.559032
 30
0.0
 10
75.446171
 20
63.054975
 30
0.0
 10
75.672363
 20
65.850073
 30
0.0
 10
76.419825
 20
69.524450
 30
0.0
 10
78.429509
 20
73.207020
 30
0.0
 10
80.705937
 20
74.352960
 30
0.0
 10
81.852714
 20
74.582155
 30
0.0
 10
81.945026
 20
74.601168
 30
0.0
 10
81.998274
 20
74.612082
 30
0.0
 10
82.018353
 20
74.616197
 30
0.0
 11
75.875475
 21
60.848184
 31
0.0
 11
75.490335
 21
61.417694
 31
0.0
 11
75.409913
 21
62.716047
 31
0.0
 11
75.623649
 21
64.913679
 31
0.0
 11
76.798943
 21
69.887592
 31
0.0
 11
78.812902
 21
73.062997
 31
0.0
 11
81.741380
 21
74.559499
 31
0.0
 11
81.858606
 21
74.583461
 31
0.0
 11
81.958116
 21
74.603843
 31
0.0
 11
82.018353
 21
74.616197
 31
0.0
  0
LINE
  5
13e
100
AcDbEntity
  8
Capa_1
 62
7
100
AcDbLine
 10
81.869255
 20
64.871657
 30
0.0
 11
82.078184
 21
64.805475
 31
0.0
  0
LINE
  5
13f
100
AcDbEntity
  8
Capa_1
 62
7
100
AcDbLine
 10
82.078184
 20
64.805475
 30
0.0
 11
82.078184
 21
63.168587
 31
0.0
  0
LINE
  5
140
100
AcDbEntity
  8
Capa_1
 62
7
100
AcDbLine
 10
82.078184
 20
63.168587
 30
0.0
 11
82.078184
 21
61.531698
 31
0.0
  0
LINE
  5
141
100
AcDbEntity
  8
Capa_1
 62
7
100
AcDbLine
 10
82.078184
 20
61.531698
 30
0.0
 11
81.936311
 21
61.498339
 31
0.0
  0
SPLINE
  5
142
100
AcDbEntity
  8
Capa_1
 62
7
100
AcDbSpline
 70
0
 71
3
 72
16
 73
12
 74
10
 40
0.000000
 40
0.000000
 40
0.000000
 40
0.000000
 40
0.772643
 40
1.113412
 40
1.194193
 40
1.686196
 40
2.424890
 40
3.152094
 40
5.749912
 40
8.253340
 40
10.811080
 40
10.811080
 40
10.811080
 40
10.811080
 10
82.079143
 20
73.439161
 30
0.0
 10
82.071650
 20
73.181729
 30
0.0
 10
82.060853
 20
72.810759
 30
0.0
 10
82.093585
 20
72.412109
 30
0.0
 10
81.999788
 20
72.109248
 30
0.0
 10
81.425824
 20
72.149996
 30
0.0
 10
80.954302
 20
71.699594
 30
0.0
 10
79.845893
 20
70.906786
 30
0.0
 10
79.015404
 20
68.953310
 30
0.0
 10
79.583227
 20
66.206320
 30
0.0
 10
81.101813
 20
65.319716
 30
0.0
 10
81.869255
 20
64.871657
 30
0.0
 11
82.079143
 21
73.439161
 31
0.0
 11
82.076560
 21
72.666522
 31
0.0
 11
82.064877
 21
72.325953
 31
0.0
 11
82.038193
 21
72.249707
 31
0.0
 11
81.572500
 21
72.090973
 31
0.0
 11
80.939650
 21
71.709961
 31
0.0
 11
80.376835
 21
71.249455
 31
0.0
 11
79.288539
 21
68.890585
 31
0.0
 11
79.858939
 21
66.453005
 31
0.0
 11
81.869255
 21
64.871657
 31
0.0
  0
LINE
  5
143
100
AcDbEntity
  8
Capa_1
 62
7
100
AcDbLine
 10
75.874516
 20
60.848071
 30
0.0
 11
75.875475
 21
60.848184
 31
0.0
  0
SPLINE
  5
144
100
AcDbEntity
  8
Capa_1
 62
7
100
AcDbSpline
 70
0
 71
3
 72
10
 73
6
 74
4
 40
0.000000
 40
0.000000
 40
0.000000
 40
0.000000
 40
2.509835
 40
4.830485
 40
6.118290
 40
6.118290
 40
6.118290
 40
6.118290
 10
81.936311
 20
61.498339
 30
0.0
 10
81.115969
 20
61.339259
 30
0.0
 10
79.537122
 20
61.033091
 30
0.0
 10
77.505791
 20
60.737046
 30
0.0
 10
76.303571
 20
60.818869
 30
0.0
 10
75.874516
 20
60.848071
 30
0.0
 11
81.936311
 21
61.498339
 31
0.0
 11
79.468559
 21
61.040655
 31
0.0
 11
77.161148
 21
60.793126
 31
0.0
 11
75.874516
 21
60.848071
 31
0.0
  0
LINE
  5
145
100
AcDbEntity
  8
Capa_1
 62
7
100
AcDbLine
 10
84.274352
 20
73.395417
 30
0.0
 11
84.281408
 21
72.163178
 31
0.0
  0
LINE
  5
146
100
AcDbEntity
  8
Capa_1
 62
7
100
AcDbLine
 10
84.281408
 20
72.163178
 30
0.0
 11
84.484072
 21
72.089010
 31
0.0
  0
SPLINE
  5
147
100
AcDbEntity
  8
Capa_1
 62
7
100
AcDbSpline
 70
0
 71
3
 72
16
 73
12
 74
10
 40
0.000000
 40
0.000000
 40
0.000000
 40
0.000000
 40
4.335767
 40
8.224104
 40
12.419146
 40
14.015828
 40
15.586202
 40
16.768703
 40
16.834978
 40
17.166048
 40
18.010412
 40
18.010412
 40
18.010412
 40
18.010412
 10
84.686679
 20
62.209003
 30
0.0
 10
86.011305
 20
62.914049
 30
0.0
 10
88.523863
 20
64.251385
 30
0.0
 10
89.792796
 20
68.615059
 30
0.0
 10
88.665712
 20
71.812311
 30
0.0
 10
86.834680
 20
73.650213
 30
0.0
 10
85.709017
 20
74.116721
 30
0.0
 10
84.515886
 20
74.958138
 30
0.0
 10
84.233212
 20
74.493381
 30
0.0
 10
84.312078
 20
74.057342
 30
0.0
 10
84.290123
 20
73.672131
 30
0.0
 10
84.274352
 20
73.395417
 30
0.0
 11
84.686679
 21
62.209003
 31
0.0
 11
88.195767
 21
64.755604
 31
0.0
 11
89.352571
 21
68.467876
 31
0.0
 11
87.961247
 21
72.425475
 31
0.0
 11
86.820016
 21
73.542161
 31
0.0
 11
85.461341
 21
74.329612
 31
0.0
 11
84.317024
 21
74.627684
 31
0.0
 11
84.283271
 21
74.570649
 31
0.0
 11
84.271812
 21
74.239776
 31
0.0
 11
84.274352
 21
73.395417
 31
0.0
  0
LINE
  5
148
100
AcDbEntity
  8
Capa_1
 62
7
100
AcDbLine
 10
84.463752
 20
64.967556
 30
0.0
 11
84.267861
 21
64.891638
 31
0.0
  0
LINE
  5
149
100
AcDbEntity
  8
Capa_1
 62
7
100
AcDbLine
 10
84.267861
 20
64.891638
 30
0.0
 11
84.267861
 21
63.490800
 31
0.0
  0
SPLINE
  5
14a
100
AcDbEntity
  8
Capa_1
 62
7
100
AcDbSpline
 70
0
 71
3
 72
10
 73
6
 74
4
 40
0.000000
 40
0.000000
 40
0.000000
 40
0.000000
 40
3.012977
 40
5.896421
 40
8.952035
 40
8.952035
 40
8.952035
 40
8.952035
 10
84.484072
 20
72.089010
 30
0.0
 10
85.355827
 20
71.493692
 30
0.0
 10
87.061858
 20
70.328648
 30
0.0
 10
87.038047
 20
66.764736
 30
0.0
 10
85.338275
 20
65.578083
 30
0.0
 10
84.463752
 20
64.967556
 30
0.0
 11
84.484072
 21
72.089010
 31
0.0
 11
86.649789
 21
69.994326
 31
0.0
 11
86.641567
 21
67.110894
 31
0.0
 11
84.463752
 21
64.967556
 31
0.0
  0
LINE
  5
14b
100
AcDbEntity
  8
Capa_1
 62
7
100
AcDbLine
 10
84.686679
 20
62.209003
 30
0.0
 11
84.686679
 21
62.209003
 31
0.0
  0
LINE
  5
14c
100
AcDbEntity
  8
Capa_1
 62
7
100
AcDbLine
 10
84.321879
 20
63.504036
 30
0.0
 11
84.321879
 21
64.837000
 31
0.0
  0
LINE
  5
14d
100
AcDbEntity
  8
Capa_1
 62
7
100
AcDbLine
 10
84.321879
 20
64.837000
 30
0.0
 11
84.572774
 21
64.936314
 31
0.0
  0
SPLINE
  5
14e
100
AcDbEntity
  8
Capa_1
 62
7
100
AcDbSpline
 70
0
 71
3
 72
13
 73
9
 74
7
 40
0.000000
 40
0.000000
 40
0.000000
 40
0.000000
 40
0.948260
 40
1.329995
 40
1.406686
 40
1.476833
 40
1.616895
 40
1.796639
 40
1.796639
 40
1.796639
 40
1.796639
 10
84.267861
 20
63.490800
 30
0.0
 10
84.276746
 20
63.163535
 30
0.0
 10
84.289206
 20
62.704525
 30
0.0
 10
84.251881
 20
62.288826
 30
0.0
 10
84.303278
 20
62.070010
 30
0.0
 10
84.411742
 20
62.123458
 30
0.0
 10
84.527195
 20
62.149526
 30
0.0
 10
84.629295
 20
62.187602
 30
0.0
 10
84.686679
 20
62.209003
 30
0.0
 11
84.267861
 21
63.490800
 31
0.0
 11
84.270240
 21
62.542542
 31
0.0
 11
84.283131
 21
62.161025
 31
0.0
 11
84.315162
 21
62.091344
 31
0.0
 11
84.383391
 21
62.107637
 31
0.0
 11
84.516869
 21
62.150076
 31
0.0
 11
84.686679
 21
62.209003
 31
0.0
  0
LINE
  5
14f
100
AcDbEntity
  8
Capa_1
 62
7
100
AcDbLine
 10
84.321879
 20
73.386894
 30
0.0
 11
84.321879
 21
74.552641
 31
0.0
  0
LINE
  5
150
100
AcDbEntity
  8
Capa_1
 62
7
100
AcDbLine
 10
84.321879
 20
74.552641
 30
0.0
 11
84.423225
 21
74.534579
 31
0.0
  0
SPLINE
  5
151
100
AcDbEntity
  8
Capa_1
 62
7
100
AcDbSpline
 70
0
 71
3
 72
16
 73
12
 74
10
 40
0.000000
 40
0.000000
 40
0.000000
 40
0.000000
 40
1.685049
 40
3.244875
 40
4.782131
 40
6.250891
 40
7.747613
 40
9.364656
 40
9.443103
 40
9.767713
 40
10.553507
 40
10.553507
 40
10.553507
 40
10.553507
 10
84.572774
 20
64.936314
 30
0.0
 10
85.075614
 20
65.209213
 30
0.0
 10
86.043925
 20
65.734733
 30
0.0
 10
86.863510
 20
67.181313
 30
0.0
 10
87.082413
 20
68.729539
 30
0.0
 10
86.690245
 20
70.182397
 30
0.0
 10
85.922107
 20
71.623431
 30
0.0
 10
84.588290
 20
71.732753
 30
0.0
 10
84.299299
 20
72.351571
 30
0.0
 10
84.348909
 20
72.761598
 30
0.0
 10
84.333080
 20
73.127768
 30
0.0
 10
84.321879
 20
73.386894
 30
0.0
 11
84.572774
 21
64.936314
 31
0.0
 11
85.970139
 21
65.877994
 31
0.0
 11
86.770403
 21
67.216887
 31
0.0
 11
86.979537
 21
68.739851
 31
0.0
 11
86.634100
 21
70.167411
 31
0.0
 11
85.762262
 21
71.383995
 31
0.0
 11
84.369179
 21
72.205060
 31
0.0
 11
84.337336
 21
72.276753
 31
0.0
 11
84.324352
 21
72.601103
 31
0.0
 11
84.321879
 21
73.386894
 31
0.0
  0
LINE
  5
152
100
AcDbEntity
  8
Capa_1
 62
7
100
AcDbLine
 10
84.321879
 20
63.504177
 30
0.0
 11
84.321879
 21
63.504036
 31
0.0
  0
SPLINE
  5
153
100
AcDbEntity
  8
Capa_1
 62
7
100
AcDbSpline
 70
0
 71
3
 72
16
 73
12
 74
10
 40
0.000000
 40
0.000000
 40
0.000000
 40
0.000000
 40
4.680205
 40
9.291945
 40
14.154330
 40
15.042563
 40
16.027349
 40
16.629006
 40
16.743134
 40
17.151537
 40
17.963040
 40
17.963040
 40
17.963040
 40
17.963040
 10
84.423225
 20
74.534579
 30
0.0
 10
85.916799
 20
73.829822
 30
0.0
 10
88.882100
 20
72.430620
 30
0.0
 10
89.679567
 20
67.113612
 30
0.0
 10
87.810595
 20
63.909701
 30
0.0
 10
85.773125
 20
62.697558
 30
0.0
 10
85.154498
 20
62.543950
 30
0.0
 10
84.367911
 20
61.979564
 30
0.0
 10
84.321968
 20
62.394231
 30
0.0
 10
84.327232
 20
62.817955
 30
0.0
 10
84.324017
 20
63.230047
 30
0.0
 10
84.321879
 20
63.504177
 30
0.0
 11
84.423225
 21
74.534579
 31
0.0
 11
88.284474
 21
71.889759
 31
0.0
 11
89.134080
 21
67.356955
 31
0.0
 11
86.591651
 21
63.212218
 31
0.0
 11
85.824454
 21
62.764594
 31
0.0
 11
84.928783
 21
62.355233
 31
0.0
 11
84.355661
 21
62.172145
 31
0.0
 11
84.335112
 21
62.284408
 31
0.0
 11
84.324742
 21
62.692679
 31
0.0
 11
84.321879
 21
63.504177
 31
0.0
  0
LINE
  5
154
100
AcDbEntity
  8
Capa_1
 62
7
100
AcDbLine
 10
73.901162
 20
64.893416
 30
0.0
 11
73.901162
 21
64.893416
 31
0.0
  0
SPLINE
  5
155
100
AcDbEntity
  8
Capa_1
 62
7
100
AcDbSpline
 70
0
 71
3
 72
25
 73
21
 74
19
 40
0.000000
 40
0.000000
 40
0.000000
 40
0.000000
 40
0.038771
 40
0.093429
 40
0.152144
 40
0.301095
 40
0.593230
 40
0.965501
 40
4.144668
 40
6.238574
 40
6.956391
 40
8.556971
 40
10.840925
 40
13.460392
 40
13.938704
 40
14.301181
 40
15.373221
 40
16.352373
 40
16.728992
 40
16.806051
 40
16.806051
 40
16.806051
 40
16.806051
 10
73.901162
 20
64.893416
 30
0.0
 10
73.904166
 20
64.905986
 30
0.0
 10
73.911407
 20
64.936278
 30
0.0
 10
73.921464
 20
64.985990
 30
0.0
 10
73.935033
 20
65.072484
 30
0.0
 10
73.989110
 20
65.230740
 30
0.0
 10
74.074617
 20
65.487816
 30
0.0
 10
74.510967
 20
66.689195
 30
0.0
 10
75.179623
 20
68.564509
 30
0.0
 10
75.720825
 20
70.192696
 30
0.0
 10
76.257045
 20
72.060801
 30
0.0
 10
74.123371
 20
70.338350
 30
0.0
 10
72.996580
 20
69.074578
 30
0.0
 10
72.245351
 20
67.459305
 30
0.0
 10
71.397363
 20
66.393567
 30
0.0
 10
71.911795
 20
65.865898
 30
0.0
 10
72.624182
 20
65.537973
 30
0.0
 10
73.316148
 20
65.221399
 30
0.0
 10
73.734410
 20
64.819884
 30
0.0
 10
73.876951
 20
64.882740
 30
0.0
 10
73.901162
 20
64.893416
 30
0.0
 11
73.901162
 21
64.893416
 31
0.0
 11
73.909992
 21
64.931168
 31
0.0
 11
73.920817
 21
64.984743
 31
0.0
 11
73.931303
 21
65.042514
 31
0.0
 11
73.973464
 21
65.185374
 31
0.0
 11
74.067271
 21
65.462038
 31
0.0
 11
74.192500
 21
65.812614
 31
0.0
 11
75.254293
 21
68.809228
 31
0.0
 11
75.893775
 21
70.803095
 31
0.0
 11
76.019719
 21
71.509777
 31
0.0
 11
74.631679
 21
70.712782
 31
0.0
 11
73.090512
 21
69.027181
 31
0.0
 11
71.712839
 21
66.799263
 31
0.0
 11
71.508838
 21
66.366635
 31
0.0
 11
71.723367
 21
66.074459
 31
0.0
 11
72.645922
 21
65.528416
 31
0.0
 11
73.492757
 21
65.036879
 31
0.0
 11
73.828820
 21
64.866868
 31
0.0
 11
73.901162
 21
64.893416
 31
0.0
  0
LINE
  5
156
100
AcDbEntity
  8
Capa_1
 62
7
100
AcDbLine
 10
72.687098
 20
65.590053
 30
0.0
 11
72.687098
 21
65.590053
 31
0.0
  0
SPLINE
  5
157
100
AcDbEntity
  8
Capa_1
 62
7
100
AcDbSpline
 70
0
 71
3
 72
28
 73
24
 74
22
 40
0.000000
 40
0.000000
 40
0.000000
 40
0.000000
 40
0.662144
 40
1.138864
 40
1.326952
 40
1.405771
 40
1.606017
 40
1.884607
 40
3.939561
 40
5.794144
 40
7.386483
 40
7.745107
 40
8.123791
 40
8.306013
 40
9.283897
 40
11.487221
 40
13.894733
 40
14.410494
 40
14.816254
 40
15.024262
 40
15.142187
 40
15.432016
 40
16.455888
 40
16.455888
 40
16.455888
 40
16.455888
 10
72.687098
 20
65.590053
 30
0.0
 10
72.485516
 20
65.697935
 30
0.0
 10
72.138801
 20
65.883487
 30
0.0
 10
71.851854
 20
66.140896
 30
0.0
 10
71.509418
 20
66.222917
 30
0.0
 10
71.596557
 20
66.381637
 30
0.0
 10
71.663055
 20
66.542299
 30
0.0
 10
72.049631
 20
67.309679
 30
0.0
 10
72.736159
 20
68.513800
 30
0.0
 10
73.887211
 20
69.956848
 30
0.0
 10
74.829162
 20
70.816322
 30
0.0
 10
75.514763
 20
71.205394
 30
0.0
 10
75.768938
 20
71.338003
 30
0.0
 10
76.315948
 20
71.578271
 30
0.0
 10
75.258699
 20
69.719205
 30
0.0
 10
75.152914
 20
68.501171
 30
0.0
 10
74.441801
 20
66.716857
 30
0.0
 10
74.070787
 20
65.690101
 30
0.0
 10
73.952809
 20
65.321810
 30
0.0
 10
73.866348
 20
65.110757
 30
0.0
 10
73.840548
 20
64.860309
 30
0.0
 10
73.265968
 20
65.322716
 30
0.0
 10
72.940647
 20
65.472958
 30
0.0
 10
72.687098
 20
65.590053
 30
0.0
 11
72.687098
 21
65.590053
 31
0.0
 11
72.116304
 21
65.925654
 31
0.0
 11
71.705943
 21
66.168278
 31
0.0
 11
71.544860
 21
66.265383
 31
0.0
 11
71.572409
 21
66.339231
 31
0.0
 11
71.656503
 21
66.520963
 31
0.0
 11
71.778992
 21
66.771181
 31
0.0
 11
72.817922
 21
68.544161
 31
0.0
 11
73.980302
 21
69.989274
 31
0.0
 11
75.195320
 21
71.018485
 31
0.0
 11
75.505741
 21
71.198068
 31
0.0
 11
75.843457
 21
71.369385
 31
0.0
 11
76.013934
 21
71.433747
 31
0.0
 11
75.732698
 21
70.497176
 31
0.0
 11
75.030663
 21
68.408688
 31
0.0
 11
74.233450
 21
66.137000
 31
0.0
 11
74.060548
 21
65.651084
 31
0.0
 11
73.928475
 21
65.267421
 31
0.0
 11
73.865827
 21
65.069071
 31
0.0
 11
73.835492
 21
64.955114
 31
0.0
 11
73.570404
 21
65.072284
 31
0.0
 11
72.687098
 21
65.590053
 31
0.0
  0
LINE
  5
158
100
AcDbEntity
  8
Capa_1
 62
7
100
AcDbLine
 10
83.146479
 20
75.843328
 30
0.0
 11
83.227534
 21
75.837119
 31
0.0
  0
LINE
  5
159
100
AcDbEntity
  8
Capa_1
 62
7
100
AcDbLine
 10
83.227534
 20
75.837119
 30
0.0
 11
83.146479
 21
75.815388
 31
0.0
  0
SPLINE
  5
15a
100
AcDbEntity
  8
Capa_1
 62
7
100
AcDbSpline
 70
0
 71
3
 72
22
 73
18
 74
16
 40
0.000000
 40
0.000000
 40
0.000000
 40
0.000000
 40
0.225797
 40
0.701325
 40
1.232736
 40
3.222131
 40
5.460074
 40
7.775273
 40
8.771565
 40
9.176277
 40
9.677246
 40
11.261650
 40
13.173560
 40
14.999743
 40
16.404725
 40
17.707624
 40
18.171562
 40
18.171562
 40
18.171562
 40
18.171562
 10
90.570871
 20
68.106544
 30
0.0
 10
90.593981
 20
68.178179
 30
0.0
 10
90.665758
 20
68.400678
 30
0.0
 10
90.775589
 20
68.796742
 30
0.0
 10
91.044661
 20
69.758501
 30
0.0
 10
91.392094
 20
71.308858
 30
0.0
 10
91.809814
 20
73.441665
 30
0.0
 10
91.982835
 20
75.315522
 30
0.0
 10
92.252375
 20
76.481178
 30
0.0
 10
92.070844
 20
77.206403
 30
0.0
 10
91.088315
 20
77.064105
 30
0.0
 10
89.872747
 20
77.037518
 30
0.0
 10
88.065073
 20
76.799255
 30
0.0
 10
86.377281
 20
76.573650
 30
0.0
 10
84.895112
 20
76.268152
 30
0.0
 10
83.852783
 20
76.077334
 30
0.0
 10
83.293371
 20
75.891994
 30
0.0
 10
83.146479
 20
75.843328
 30
0.0
 11
90.570871
 21
68.106544
 31
0.0
 11
90.639236
 21
68.321743
 31
0.0
 11
90.770768
 21
68.778718
 31
0.0
 11
90.911852
 21
69.291059
 31
0.0
 11
91.365370
 21
71.228070
 31
0.0
 11
91.768946
 21
73.429323
 31
0.0
 11
92.090892
 21
75.722029
 31
0.0
 11
92.176275
 21
76.714655
 31
0.0
 11
92.025933
 21
77.090407
 31
0.0
 11
91.526701
 21
77.132095
 31
0.0
 11
89.946831
 21
77.012331
 31
0.0
 11
88.047165
 21
76.796297
 31
0.0
 11
86.240369
 21
76.530906
 31
0.0
 11
84.860484
 21
76.266536
 31
0.0
 11
83.588615
 21
75.983877
 31
0.0
 11
83.146479
 21
75.843328
 31
0.0
  0
SPLINE
  5
15b
100
AcDbEntity
  8
Capa_1
 62
7
100
AcDbSpline
 70
0
 71
3
 72
10
 73
6
 74
4
 40
0.000000
 40
0.000000
 40
0.000000
 40
0.000000
 40
0.010398
 40
0.073385
 40
0.192128
 40
0.192128
 40
0.192128
 40
0.192128
 10
83.146479
 20
75.815388
 30
0.0
 10
83.144086
 20
75.812332
 30
0.0
 10
83.127190
 20
75.790765
 30
0.0
 10
83.245945
 20
75.816162
 30
0.0
 10
83.292009
 20
75.813475
 30
0.0
 10
83.322106
 20
75.811719
 30
0.0
 11
83.146479
 21
75.815388
 31
0.0
 11
83.140548
 21
75.806848
 31
0.0
 11
83.203522
 21
75.805583
 31
0.0
 11
83.322106
 21
75.811719
 31
0.0
  0
LINE
  5
15c
100
AcDbEntity
  8
Capa_1
 62
7
100
AcDbLine
 10
90.570871
 20
68.106488
 30
0.0
 11
90.570871
 21
68.106544
 31
0.0
  0
SPLINE
  5
15d
100
AcDbEntity
  8
Capa_1
 62
7
100
AcDbSpline
 70
0
 71
3
 72
13
 73
9
 74
7
 40
0.000000
 40
0.000000
 40
0.000000
 40
0.000000
 40
3.973893
 40
7.764260
 40
11.641314
 40
11.853120
 40
11.966343
 40
12.005884
 40
12.005884
 40
12.005884
 40
12.005884
 10
83.322106
 20
75.811719
 30
0.0
 10
84.673043
 20
75.668769
 30
0.0
 10
87.312526
 20
75.389473
 30
0.0
 10
90.270757
 20
72.464460
 30
0.0
 10
90.586982
 20
69.417509
 30
0.0
 10
90.532553
 20
68.269600
 30
0.0
 10
90.502985
 20
68.074150
 30
0.0
 10
90.556912
 20
68.099838
 30
0.0
 10
90.570871
 20
68.106488
 30
0.0
 11
83.322106
 21
75.811719
 31
0.0
 11
87.200329
 21
74.944991
 31
0.0
 11
89.847780
 21
72.232449
 31
0.0
 11
90.538924
 21
68.417497
 31
0.0
 11
90.521869
 21
68.206378
 31
0.0
 11
90.533438
 21
68.093748
 31
0.0
 11
90.570871
 21
68.106488
 31
0.0
  0
LINE
  5
15e
100
AcDbEntity
  8
Capa_1
 62
7
100
AcDbLine
 10
90.544625
 20
68.201766
 30
0.0
 11
90.545189
 21
68.201794
 31
0.0
  0
SPLINE
  5
15f
100
AcDbEntity
  8
Capa_1
 62
7
100
AcDbSpline
 70
0
 71
3
 72
16
 73
12
 74
10
 40
0.000000
 40
0.000000
 40
0.000000
 40
0.000000
 40
0.014567
 40
0.022608
 40
0.045712
 40
0.069556
 40
0.083393
 40
0.091768
 40
0.106343
 40
0.124964
 40
0.145556
 40
0.145556
 40
0.145556
 40
0.145556
 10
90.545189
 20
68.201794
 30
0.0
 10
90.547420
 20
68.208293
 30
0.0
 10
90.550883
 20
68.218379
 30
0.0
 10
90.563671
 20
68.203483
 30
0.0
 10
90.560503
 20
68.184696
 30
0.0
 10
90.562413
 20
68.166475
 30
0.0
 10
90.559077
 20
68.146898
 30
0.0
 10
90.543885
 20
68.149504
 30
0.0
 10
90.540343
 20
68.164871
 30
0.0
 10
90.538979
 20
68.182308
 30
0.0
 10
90.542681
 20
68.195066
 30
0.0
 10
90.544625
 20
68.201766
 30
0.0
 11
90.545189
 21
68.201794
 31
0.0
 11
90.553070
 21
68.214045
 31
0.0
 11
90.558757
 21
68.208358
 31
0.0
 11
90.561558
 21
68.185425
 31
0.0
 11
90.561161
 21
68.161585
 31
0.0
 11
90.555746
 21
68.148851
 31
0.0
 11
90.547447
 21
68.149978
 31
0.0
 11
90.541071
 21
68.163085
 31
0.0
 11
90.540088
 21
68.181679
 31
0.0
 11
90.544625
 21
68.201766
 31
0.0
  0
LINE
  5
160
100
AcDbEntity
  8
Capa_1
 62
7
100
AcDbLine
 10
83.932101
 20
75.900111
 30
0.0
 11
83.578759
 21
75.902933
 31
0.0
  0
LINE
  5
161
100
AcDbEntity
  8
Capa_1
 62
7
100
AcDbLine
 10
83.578759
 20
75.902933
 30
0.0
 11
83.821950
 21
75.967364
 31
0.0
  0
SPLINE
  5
162
100
AcDbEntity
  8
Capa_1
 62
7
100
AcDbSpline
 70
0
 71
3
 72
10
 73
6
 74
4
 40
0.000000
 40
0.000000
 40
0.000000
 40
0.000000
 40
3.568616
 40
7.007612
 40
10.583049
 40
10.583049
 40
10.583049
 40
10.583049
 10
90.640721
 20
69.024190
 30
0.0
 10
90.480295
 20
70.225200
 30
0.0
 10
90.165268
 20
72.583599
 30
0.0
 10
87.481752
 20
75.331825
 30
0.0
 10
85.130563
 20
75.708241
 30
0.0
 10
83.932101
 20
75.900111
 30
0.0
 11
90.640721
 21
69.024190
 31
0.0
 11
89.780327
 21
72.487532
 31
0.0
 11
87.378724
 21
74.949035
 31
0.0
 11
83.932101
 21
75.900111
 31
0.0
  0
LINE
  5
163
100
AcDbEntity
  8
Capa_1
 62
7
100
AcDbLine
 10
90.640778
 20
69.024500
 30
0.0
 11
90.640721
 21
69.024190
 31
0.0
  0
SPLINE
  5
164
100
AcDbEntity
  8
Capa_1
 62
7
100
AcDbSpline
 70
0
 71
3
 72
25
 73
21
 74
19
 40
0.000000
 40
0.000000
 40
0.000000
 40
0.000000
 40
2.154950
 40
4.846522
 40
7.673518
 40
8.163133
 40
8.421738
 40
8.828173
 40
11.428070
 40
14.021750
 40
16.357579
 40
16.620203
 40
16.811407
 40
16.889809
 40
16.897653
 40
16.903757
 40
16.907765
 40
16.973058
 40
17.144146
 40
17.384059
 40
17.384059
 40
17.384059
 40
17.384059
 10
83.821950
 20
75.967364
 30
0.0
 10
84.522797
 20
76.121014
 30
0.0
 10
86.099013
 20
76.466576
 30
0.0
 10
88.649664
 20
76.851385
 30
0.0
 10
90.604451
 20
76.912005
 30
0.0
 10
91.833911
 20
77.134073
 30
0.0
 10
92.179829
 20
76.869482
 30
0.0
 10
91.943527
 20
75.685129
 30
0.0
 10
91.832998
 20
73.933323
 30
0.0
 10
91.343758
 20
71.424381
 30
0.0
 10
90.970511
 20
69.744356
 30
0.0
 10
90.716666
 20
68.847884
 30
0.0
 10
90.676507
 20
68.676149
 30
0.0
 10
90.646269
 20
68.587001
 30
0.0
 10
90.644173
 20
68.556642
 30
0.0
 10
90.642360
 20
68.550508
 30
0.0
 10
90.618240
 20
68.537624
 30
0.0
 10
90.656866
 20
68.686138
 30
0.0
 10
90.626050
 20
68.789166
 30
0.0
 10
90.635349
 20
68.937761
 30
0.0
 10
90.640778
 20
69.024500
 30
0.0
 11
83.821950
 21
75.967364
 31
0.0
 11
85.931360
 21
76.408046
 31
0.0
 11
88.595405
 21
76.792007
 31
0.0
 11
91.409579
 21
77.060947
 31
0.0
 11
91.899159
 21
77.055103
 31
0.0
 11
92.098137
 21
76.889923
 31
0.0
 11
92.105172
 21
76.483549
 31
0.0
 11
91.773995
 21
73.904831
 31
0.0
 11
91.317574
 21
71.351626
 31
0.0
 11
90.781353
 21
69.078179
 31
0.0
 11
90.712529
 21
68.824733
 31
0.0
 11
90.663449
 21
68.639936
 31
0.0
 11
90.644729
 21
68.563801
 31
0.0
 11
90.643788
 21
68.556013
 31
0.0
 11
90.641342
 21
68.550421
 31
0.0
 11
90.637955
 21
68.548278
 31
0.0
 11
90.635802
 21
68.613536
 31
0.0
 11
90.636722
 21
68.784622
 31
0.0
 11
90.640778
 21
69.024500
 31
0.0
  0
LINE
  5
165
100
AcDbEntity
  8
Capa_1
 62
7
100
AcDbLine
 10
49.411723
 20
79.391933
 30
0.0
 11
49.723353
 21
79.375565
 31
0.0
  0
LINE
  5
166
100
AcDbEntity
  8
Capa_1
 62
7
100
AcDbLine
 10
49.723353
 20
79.375565
 30
0.0
 11
49.840814
 21
79.818653
 31
0.0
  0
SPLINE
  5
167
100
AcDbEntity
  8
Capa_1
 62
7
100
AcDbSpline
 70
0
 71
3
 72
19
 73
15
 74
13
 40
0.000000
 40
0.000000
 40
0.000000
 40
0.000000
 40
3.860712
 40
7.739386
 40
11.440597
 40
11.968452
 40
13.082541
 40
14.335298
 40
19.155261
 40
23.738326
 40
28.567748
 40
32.178053
 40
35.716391
 40
39.283526
 40
39.283526
 40
39.283526
 40
39.283526
 10
49.840814
 20
79.818653
 30
0.0
 10
50.293782
 20
81.027618
 30
0.0
 10
51.201824
 20
83.451173
 30
0.0
 10
52.614476
 20
86.928487
 30
0.0
 10
56.152964
 20
88.333023
 30
0.0
 10
55.615884
 20
90.135042
 30
0.0
 10
54.928073
 20
90.833122
 30
0.0
 10
53.223460
 20
92.508705
 30
0.0
 10
49.432092
 20
93.599706
 30
0.0
 10
44.770659
 20
91.537710
 30
0.0
 10
42.685706
 20
87.251398
 30
0.0
 10
43.461044
 20
83.176700
 30
0.0
 10
45.858243
 20
80.207011
 30
0.0
 10
48.224034
 20
79.664359
 30
0.0
 10
49.411723
 20
79.391933
 30
0.0
 11
49.840814
 21
79.818653
 31
0.0
 11
51.211560
 21
83.427829
 31
0.0
 11
53.257526
 21
86.722998
 31
0.0
 11
55.798610
 21
89.414068
 31
0.0
 11
55.651547
 21
89.921023
 31
0.0
 11
54.961244
 21
90.795481
 31
0.0
 11
54.038898
 21
91.643228
 31
0.0
 11
49.417679
 21
93.013042
 31
0.0
 11
45.224956
 21
91.162217
 31
0.0
 11
43.111846
 21
86.819627
 31
0.0
 11
43.755570
 21
83.267175
 31
0.0
 11
46.044292
 21
80.568733
 31
0.0
 11
49.411723
 21
79.391933
 31
0.0
  0
LINE
  5
168
100
AcDbEntity
  8
Capa_1
 62
7
100
AcDbLine
 10
49.745875
 20
79.725943
 30
0.0
 11
49.673400
 21
79.433533
 31
0.0
  0
LINE
  5
169
100
AcDbEntity
  8
Capa_1
 62
7
100
AcDbLine
 10
49.673400
 20
79.433533
 30
0.0
 11
49.467801
 21
79.450749
 31
0.0
  0
SPLINE
  5
16a
100
AcDbEntity
  8
Capa_1
 62
7
100
AcDbSpline
 70
0
 71
3
 72
19
 73
15
 74
13
 40
0.000000
 40
0.000000
 40
0.000000
 40
0.000000
 40
3.844024
 40
7.587026
 40
11.418754
 40
16.562558
 40
21.414982
 40
26.542864
 40
26.864663
 40
27.011717
 40
27.299971
 40
31.042444
 40
34.862109
 40
38.595942
 40
38.595942
 40
38.595942
 40
38.595942
 10
49.046048
 20
79.494747
 30
0.0
 10
47.787869
 20
79.884341
 30
0.0
 10
45.304575
 20
80.653291
 30
0.0
 10
43.105534
 20
84.118859
 30
0.0
 10
43.011260
 20
88.560785
 30
0.0
 10
46.113381
 20
92.588640
 30
0.0
 10
51.709335
 20
93.506399
 30
0.0
 10
54.441575
 20
91.127500
 30
0.0
 10
55.763653
 20
89.678828
 30
0.0
 10
55.746431
 20
89.404023
 30
0.0
 10
54.449047
 20
88.627141
 30
0.0
 10
52.995288
 20
86.495008
 30
0.0
 10
50.871142
 20
83.334804
 30
0.0
 10
50.118112
 20
80.919749
 30
0.0
 10
49.745875
 20
79.725943
 30
0.0
 11
49.046048
 21
79.494747
 31
0.0
 11
45.533903
 21
81.057233
 31
0.0
 11
43.465106
 21
84.176550
 31
0.0
 11
43.400080
 21
88.007726
 31
0.0
 11
46.564305
 21
92.063142
 31
0.0
 11
51.360189
 21
92.801737
 31
0.0
 11
55.576332
 21
89.882952
 31
0.0
 11
55.747734
 21
89.610599
 31
0.0
 11
55.735346
 21
89.464067
 31
0.0
 11
55.524318
 21
89.267707
 31
0.0
 11
53.004283
 21
86.500845
 31
0.0
 11
51.025656
 21
83.233602
 31
0.0
 11
49.745875
 21
79.725943
 31
0.0
  0
LINE
  5
16b
100
AcDbEntity
  8
Capa_1
 62
7
100
AcDbLine
 10
49.046048
 20
79.494775
 30
0.0
 11
49.046048
 21
79.494747
 31
0.0
  0
SPLINE
  5
16c
100
AcDbEntity
  8
Capa_1
 62
7
100
AcDbSpline
 70
0
 71
3
 72
10
 73
6
 74
4
 40
0.000000
 40
0.000000
 40
0.000000
 40
0.000000
 40
0.133745
 40
0.286085
 40
0.424061
 40
0.424061
 40
0.424061
 40
0.424061
 10
49.467801
 20
79.450749
 30
0.0
 10
49.423403
 20
79.454792
 30
0.0
 10
49.328434
 20
79.463442
 30
0.0
 10
49.187834
 20
79.478081
 30
0.0
 10
49.091725
 20
79.489397
 30
0.0
 10
49.046048
 20
79.494775
 30
0.0
 11
49.467801
 21
79.450749
 31
0.0
 11
49.334632
 21
79.463147
 31
0.0
 11
49.183112
 21
79.478933
 31
0.0
 11
49.046048
 21
79.494775
 31
0.0
  0
ENDSEC
  0
SECTION
  2
OBJECTS
  0
DICTIONARY
  5
C
330
0
100
AcDbDictionary
  3
ACAD_GROUP
350
D
  3
ACAD_MLINESTYLE
350
17
  0
DICTIONARY
  5
D
330
C
100
AcDbDictionary
  0
DICTIONARY
  5
1A
330
C
100
AcDbDictionary
  0
DICTIONARY
  5
17
330
C
100
AcDbDictionary
  3
STANDARD
350
18
  0
DICTIONARY
  5
19
330
C
100
AcDbDictionary
  0
ENDSEC
  0
EOF
