  0
SECTION
  2
HEADER
  9
$ACADVER
  1
AC1014
  9
$HANDSEED
  5
FFFF
  9
$MEASUREMENT
 70
     1
  0
ENDSEC
  0
SECTION
  2
TABLES
  0
TABLE
  2
VPORT
  5
8
330
0
100
AcDbSymbolTable
 70
     4
  0
VPORT
  5
2E
330
8
100
AcDbSymbolTableRecord
100
AcDbViewportTableRecord
  2
*ACTIVE
 70
     0
 10
0.0
 20
0.0
 11
1.0
 21
1.0
 12
210.0
 22
148.5
 13
0.0
 23
0.0
 14
10.0
 24
10.0
 15
10.0
 25
10.0
 16
0.0
 26
0.0
 36
1.0
 17
0.0
 27
0.0
 37
0.0
 40
341.0
 41
1.24
 42
50.0
 43
0.0
 44
0.0
 50
0.0
 51
0.0
 71
     0
 72
   100
 73
     1
 74
     3
 75
     0
 76
     0
 77
     0
 78
     0
  0
ENDTAB
  0
TABLE
  2
LTYPE
  5
5
330
0
100
AcDbSymbolTable
 70
     1
  0
LTYPE
  5
14
330
5
100
AcDbSymbolTableRecord
100
AcDbLinetypeTableRecord
  2
BYBLOCK
 70
     0
  3

 72
    65
 73
     0
 40
0.0
  0
LTYPE
  5
15
330
5
100
AcDbSymbolTableRecord
100
AcDbLinetypeTableRecord
  2
BYLAYER
 70
     0
  3

 72
    65
 73
     0
 40
0.0
  0
LTYPE
  5
16
330
5
100
AcDbSymbolTableRecord
100
AcDbLinetypeTableRecord
  2
CONTINUOUS
 70
     0
  3
Solid line
 72
    65
 73
     0
 40
0.0
  0
ENDTAB
  0
TABLE
  2
LAYER
  5
2
100
AcDbSymbolTable
 70
2
  0
LAYER
  5
50
100
AcDbSymbolTableRecord
100
AcDbLayerTableRecord
  2
0
 70
0
  6
CONTINUOUS
  0
LAYER
  5
51
100
AcDbSymbolTableRecord
100
AcDbLayerTableRecord
  2
Capa_1
 70
0
  6
CONTINUOUS
  0
ENDTAB
  0
TABLE
  2
STYLE
  5
3
330
0
100
AcDbSymbolTable
 70
     1
  0
STYLE
  5
11
330
3
100
AcDbSymbolTableRecord
100
AcDbTextStyleTableRecord
  2
STANDARD
 70
     0
 40
0.0
 41
1.0
 50
0.0
 71
     0
 42
2.5
  3
txt
  4

  0
ENDTAB
  0
TABLE
  2
VIEW
  5
6
330
0
100
AcDbSymbolTable
 70
     0
  0
ENDTAB
  0
TABLE
  2
UCS
  5
7
330
0
100
AcDbSymbolTable
 70
     0
  0
ENDTAB
  0
TABLE
  2
APPID
  5
9
330
0
100
AcDbSymbolTable
 70
     2
  0
APPID
  5
12
330
9
100
AcDbSymbolTableRecord
100
AcDbRegAppTableRecord
  2
ACAD
 70
     0
  0
ENDTAB
  0
TABLE
  2
DIMSTYLE
  5
A
330
0
100
AcDbSymbolTable
 70
     1
  0
DIMSTYLE
105
27
330
A
100
AcDbSymbolTableRecord
100
AcDbDimStyleTableRecord
  2
ISO-25
 70
     0
  3

  4

  5

  6

  7

 40
1.0
 41
2.5
 42
0.625
 43
3.75
 44
1.25
 45
0.0
 46
0.0
 47
0.0
 48
0.0
140
2.5
141
2.5
142
0.0
143
0.03937007874016
144
1.0
145
0.0
146
1.0
147
0.625
 71
     0
 72
     0
 73
     0
 74
     0
 75
     0
 76
     0
 77
     1
 78
     8
170
     0
171
     3
172
     1
173
     0
174
     0
175
     0
176
     0
177
     0
178
     0
270
     2
271
     2
272
     2
273
     2
274
     3
340
11
275
     0
280
     0
281
     0
282
     0
283
     0
284
     8
285
     0
286
     0
287
     3
288
     0
  0
ENDTAB
  0
TABLE
  2
BLOCK_RECORD
  5
1
330
0
100
AcDbSymbolTable
 70
     1
  0
BLOCK_RECORD
  5
1F
330
1
100
AcDbSymbolTableRecord
100
AcDbBlockTableRecord
  2
*MODEL_SPACE
  0
BLOCK_RECORD
  5
1B
330
1
100
AcDbSymbolTableRecord
100
AcDbBlockTableRecord
  2
*PAPER_SPACE
  0
ENDTAB
  0
ENDSEC
  0
SECTION
  2
BLOCKS
  0
BLOCK
  5
20
330
1F
100
AcDbEntity
  8
0
100
AcDbBlockBegin
  2
*MODEL_SPACE
 70
     0
 10
0.0
 20
0.0
 30
0.0
  3
*MODEL_SPACE
  1

  0
ENDBLK
  5
21
330
1F
100
AcDbEntity
  8
0
100
AcDbBlockEnd
  0
BLOCK
  5
1C
330
1B
100
AcDbEntity
 67
     1
  8
0
100
AcDbBlockBegin
  2
*PAPER_SPACE
  1

  0
ENDBLK
  5
1D
330
1B
100
AcDbEntity
 67
     1
  8
0
100
AcDbBlockEnd
  0
ENDSEC
  0
SECTION
  2
ENTITIES
  0
LINE
  5
100
100
AcDbEntity
  8
Capa_1
 62
7
100
AcDbLine
 10
64.128808
 20
6.128829
 30
0.0
 11
14.128809
 21
6.128829
 31
0.0
  0
LINE
  5
101
100
AcDbEntity
  8
Capa_1
 62
7
100
AcDbLine
 10
14.128809
 20
6.128829
 30
0.0
 11
14.128809
 21
0.128813
 31
0.0
  0
LINE
  5
102
100
AcDbEntity
  8
Capa_1
 62
7
100
AcDbLine
 10
14.128809
 20
0.128813
 30
0.0
 11
0.128809
 21
0.128813
 31
0.0
  0
LINE
  5
103
100
AcDbEntity
  8
Capa_1
 62
7
100
AcDbLine
 10
0.128809
 20
0.128813
 30
0.0
 11
0.128809
 21
147.128821
 31
0.0
  0
LINE
  5
104
100
AcDbEntity
  8
Capa_1
 62
7
100
AcDbLine
 10
0.128809
 20
147.128821
 30
0.0
 11
14.128809
 21
147.128821
 31
0.0
  0
LINE
  5
105
100
AcDbEntity
  8
Capa_1
 62
7
100
AcDbLine
 10
14.128809
 20
147.128821
 30
0.0
 11
14.128809
 21
141.128819
 31
0.0
  0
LINE
  5
106
100
AcDbEntity
  8
Capa_1
 62
7
100
AcDbLine
 10
64.128808
 20
141.128819
 30
0.0
 11
14.128809
 21
141.128819
 31
0.0
  0
LINE
  5
107
100
AcDbEntity
  8
Capa_1
 62
7
100
AcDbLine
 10
64.128808
 20
141.128819
 30
0.0
 11
64.128808
 21
147.128821
 31
0.0
  0
LINE
  5
108
100
AcDbEntity
  8
Capa_1
 62
7
100
AcDbLine
 10
64.128808
 20
147.128821
 30
0.0
 11
122.128808
 21
147.128821
 31
0.0
  0
LINE
  5
109
100
AcDbEntity
  8
Capa_1
 62
7
100
AcDbLine
 10
122.128808
 20
147.128821
 30
0.0
 11
122.128808
 21
141.128819
 31
0.0
  0
LINE
  5
10a
100
AcDbEntity
  8
Capa_1
 62
7
100
AcDbLine
 10
172.128808
 20
141.128819
 30
0.0
 11
122.128808
 21
141.128819
 31
0.0
  0
LINE
  5
10b
100
AcDbEntity
  8
Capa_1
 62
7
100
AcDbLine
 10
172.128808
 20
141.128819
 30
0.0
 11
172.128808
 21
147.128821
 31
0.0
  0
LINE
  5
10c
100
AcDbEntity
  8
Capa_1
 62
7
100
AcDbLine
 10
172.128808
 20
147.128821
 30
0.0
 11
230.128809
 21
147.128821
 31
0.0
  0
LINE
  5
10d
100
AcDbEntity
  8
Capa_1
 62
7
100
AcDbLine
 10
230.128809
 20
147.128821
 30
0.0
 11
230.128809
 21
141.128819
 31
0.0
  0
LINE
  5
10e
100
AcDbEntity
  8
Capa_1
 62
7
100
AcDbLine
 10
280.128808
 20
141.128819
 30
0.0
 11
230.128809
 21
141.128819
 31
0.0
  0
LINE
  5
10f
100
AcDbEntity
  8
Capa_1
 62
7
100
AcDbLine
 10
280.128808
 20
141.128819
 30
0.0
 11
280.128808
 21
98.628819
 31
0.0
  0
LINE
  5
110
100
AcDbEntity
  8
Capa_1
 62
7
100
AcDbLine
 10
280.128808
 20
98.628819
 30
0.0
 11
286.128807
 21
98.628819
 31
0.0
  0
LINE
  5
111
100
AcDbEntity
  8
Capa_1
 62
7
100
AcDbLine
 10
286.128807
 20
98.628819
 30
0.0
 11
286.128807
 21
48.628815
 31
0.0
  0
LINE
  5
112
100
AcDbEntity
  8
Capa_1
 62
7
100
AcDbLine
 10
286.128807
 20
48.628815
 30
0.0
 11
280.128808
 21
48.628815
 31
0.0
  0
LINE
  5
113
100
AcDbEntity
  8
Capa_1
 62
7
100
AcDbLine
 10
280.128808
 20
48.628815
 30
0.0
 11
280.128808
 21
6.128829
 31
0.0
  0
LINE
  5
114
100
AcDbEntity
  8
Capa_1
 62
7
100
AcDbLine
 10
280.128808
 20
6.128829
 30
0.0
 11
230.128809
 21
6.128829
 31
0.0
  0
LINE
  5
115
100
AcDbEntity
  8
Capa_1
 62
7
100
AcDbLine
 10
230.128809
 20
6.128829
 30
0.0
 11
230.128809
 21
0.128813
 31
0.0
  0
LINE
  5
116
100
AcDbEntity
  8
Capa_1
 62
7
100
AcDbLine
 10
230.128809
 20
0.128813
 30
0.0
 11
172.128808
 21
0.128813
 31
0.0
  0
LINE
  5
117
100
AcDbEntity
  8
Capa_1
 62
7
100
AcDbLine
 10
172.128808
 20
0.128813
 30
0.0
 11
172.128808
 21
6.128829
 31
0.0
  0
LINE
  5
118
100
AcDbEntity
  8
Capa_1
 62
7
100
AcDbLine
 10
172.128808
 20
6.128829
 30
0.0
 11
122.128808
 21
6.128829
 31
0.0
  0
LINE
  5
119
100
AcDbEntity
  8
Capa_1
 62
7
100
AcDbLine
 10
122.128808
 20
6.128829
 30
0.0
 11
122.128808
 21
0.128813
 31
0.0
  0
LINE
  5
11a
100
AcDbEntity
  8
Capa_1
 62
7
100
AcDbLine
 10
122.128808
 20
0.128813
 30
0.0
 11
64.128808
 21
0.128813
 31
0.0
  0
LINE
  5
11b
100
AcDbEntity
  8
Capa_1
 62
7
100
AcDbLine
 10
64.128808
 20
0.128813
 30
0.0
 11
64.128808
 21
6.128829
 31
0.0
  0
LINE
  5
11c
100
AcDbEntity
  8
Capa_1
 62
7
100
AcDbLine
 10
265.128809
 20
133.628820
 30
0.0
 11
265.128809
 21
13.628828
 31
0.0
  0
LINE
  5
11d
100
AcDbEntity
  8
Capa_1
 62
7
100
AcDbLine
 10
265.128809
 20
133.628820
 30
0.0
 11
259.178809
 21
133.628820
 31
0.0
  0
LINE
  5
11e
100
AcDbEntity
  8
Capa_1
 62
7
100
AcDbLine
 10
259.178809
 20
133.628820
 30
0.0
 11
259.178809
 21
13.628828
 31
0.0
  0
LINE
  5
11f
100
AcDbEntity
  8
Capa_1
 62
7
100
AcDbLine
 10
265.128809
 20
13.628828
 30
0.0
 11
259.178809
 21
13.628828
 31
0.0
  0
LINE
  5
120
100
AcDbEntity
  8
Capa_1
 62
7
100
AcDbLine
 10
10.078807
 20
6.128829
 30
0.0
 11
4.128809
 21
6.128829
 31
0.0
  0
LINE
  5
121
100
AcDbEntity
  8
Capa_1
 62
7
100
AcDbLine
 10
10.078807
 20
141.128819
 30
0.0
 11
10.078807
 21
6.128829
 31
0.0
  0
LINE
  5
122
100
AcDbEntity
  8
Capa_1
 62
7
100
AcDbLine
 10
4.128809
 20
141.128819
 30
0.0
 11
10.078807
 21
141.128819
 31
0.0
  0
LINE
  5
123
100
AcDbEntity
  8
Capa_1
 62
7
100
AcDbLine
 10
4.128809
 20
6.128829
 30
0.0
 11
4.128809
 21
141.128819
 31
0.0
  0
LINE
  5
124
100
AcDbEntity
  8
Capa_1
 62
7
100
AcDbLine
 10
204.125260
 20
81.276566
 30
0.0
 11
202.654354
 21
81.276566
 31
0.0
  0
LINE
  5
125
100
AcDbEntity
  8
Capa_1
 62
7
100
AcDbLine
 10
202.654354
 20
81.276566
 30
0.0
 11
202.531364
 21
81.029196
 31
0.0
  0
SPLINE
  5
126
100
AcDbEntity
  8
Capa_1
 62
7
100
AcDbSpline
 70
0
 71
3
 72
13
 73
9
 74
7
 40
0.000000
 40
0.000000
 40
0.000000
 40
0.000000
 40
4.825464
 40
12.526138
 40
16.589362
 40
16.836197
 40
17.393174
 40
18.144497
 40
18.144497
 40
18.144497
 40
18.144497
 10
200.243028
 20
65.480236
 30
0.0
 10
200.865407
 20
67.032497
 30
0.0
 10
202.481004
 20
71.061921
 30
0.0
 10
202.548798
 20
75.356565
 30
0.0
 10
206.967780
 20
80.845771
 30
0.0
 10
205.326561
 20
81.247715
 30
0.0
 10
204.813153
 20
81.262469
 30
0.0
 10
204.376194
 20
81.271424
 30
0.0
 10
204.125260
 20
81.276566
 30
0.0
 11
200.243028
 21
65.480236
 31
0.0
 11
201.878002
 21
70.020276
 31
0.0
 11
204.397700
 21
77.297054
 31
0.0
 11
205.670883
 21
81.155654
 31
0.0
 11
205.431681
 21
81.216561
 31
0.0
 11
204.876400
 21
81.259998
 31
0.0
 11
204.125260
 21
81.276566
 31
0.0
  0
LINE
  5
127
100
AcDbEntity
  8
Capa_1
 62
7
100
AcDbLine
 10
200.445443
 20
74.726846
 30
0.0
 11
198.482514
 21
68.671884
 31
0.0
  0
LINE
  5
128
100
AcDbEntity
  8
Capa_1
 62
7
100
AcDbLine
 10
198.482514
 20
68.671884
 30
0.0
 11
196.381737
 21
74.974217
 31
0.0
  0
LINE
  5
129
100
AcDbEntity
  8
Capa_1
 62
7
100
AcDbLine
 10
196.381737
 20
74.974217
 30
0.0
 11
194.280945
 21
81.276566
 31
0.0
  0
LINE
  5
12a
100
AcDbEntity
  8
Capa_1
 62
7
100
AcDbLine
 10
194.280945
 20
81.276566
 30
0.0
 11
192.808513
 21
81.276566
 31
0.0
  0
LINE
  5
12b
100
AcDbEntity
  8
Capa_1
 62
7
100
AcDbLine
 10
192.808513
 20
81.276566
 30
0.0
 11
191.336069
 21
81.276566
 31
0.0
  0
LINE
  5
12c
100
AcDbEntity
  8
Capa_1
 62
7
100
AcDbLine
 10
191.336069
 20
81.276566
 30
0.0
 11
191.336069
 21
81.004431
 31
0.0
  0
SPLINE
  5
12d
100
AcDbEntity
  8
Capa_1
 62
7
100
AcDbSpline
 70
0
 71
3
 72
10
 73
6
 74
4
 40
0.000000
 40
0.000000
 40
0.000000
 40
0.000000
 40
1.010108
 40
3.395078
 40
6.638708
 40
6.638708
 40
6.638708
 40
6.638708
 10
202.531364
 20
81.029196
 30
0.0
 10
202.420372
 20
80.711308
 30
0.0
 10
202.047314
 20
79.642852
 30
0.0
 10
201.362778
 20
77.538343
 30
0.0
 10
200.780815
 20
75.754711
 30
0.0
 10
200.445443
 20
74.726846
 30
0.0
 11
202.531364
 21
81.029196
 31
0.0
 11
202.200421
 21
80.074840
 31
0.0
 11
201.451033
 21
77.810663
 31
0.0
 11
200.445443
 21
74.726846
 31
0.0
  0
LINE
  5
12e
100
AcDbEntity
  8
Capa_1
 62
7
100
AcDbLine
 10
196.921103
 20
65.301050
 30
0.0
 11
197.006918
 21
65.162186
 31
0.0
  0
LINE
  5
12f
100
AcDbEntity
  8
Capa_1
 62
7
100
AcDbLine
 10
197.006918
 20
65.162186
 30
0.0
 11
198.556516
 21
65.162186
 31
0.0
  0
LINE
  5
130
100
AcDbEntity
  8
Capa_1
 62
7
100
AcDbLine
 10
198.556516
 20
65.162186
 30
0.0
 11
200.106096
 21
65.162186
 31
0.0
  0
LINE
  5
131
100
AcDbEntity
  8
Capa_1
 62
7
100
AcDbLine
 10
200.106096
 20
65.162186
 30
0.0
 11
200.243028
 21
65.480236
 31
0.0
  0
SPLINE
  5
132
100
AcDbEntity
  8
Capa_1
 62
7
100
AcDbSpline
 70
0
 71
3
 72
10
 73
6
 74
4
 40
0.000000
 40
0.000000
 40
0.000000
 40
0.000000
 40
4.339209
 40
12.227839
 40
16.667680
 40
16.667680
 40
16.667680
 40
16.667680
 10
191.336069
 20
81.004431
 30
0.0
 10
191.801161
 20
79.634839
 30
0.0
 10
193.111785
 20
75.775345
 30
0.0
 10
194.974575
 20
70.540604
 30
0.0
 10
196.405710
 20
66.688356
 30
0.0
 10
196.921103
 20
65.301050
 30
0.0
 11
191.336069
 21
81.004431
 31
0.0
 11
192.738393
 21
76.898067
 31
0.0
 11
195.381835
 21
69.465524
 31
0.0
 11
196.921103
 21
65.301050
 31
0.0
  0
LINE
  5
133
100
AcDbEntity
  8
Capa_1
 62
7
100
AcDbLine
 10
193.344136
 20
76.293829
 30
0.0
 11
191.655149
 21
80.993862
 31
0.0
  0
LINE
  5
134
100
AcDbEntity
  8
Capa_1
 62
7
100
AcDbLine
 10
191.655149
 20
80.993862
 30
0.0
 11
192.828150
 21
80.993862
 31
0.0
  0
LINE
  5
135
100
AcDbEntity
  8
Capa_1
 62
7
100
AcDbLine
 10
192.828150
 20
80.993862
 30
0.0
 11
194.001136
 21
80.993862
 31
0.0
  0
LINE
  5
136
100
AcDbEntity
  8
Capa_1
 62
7
100
AcDbLine
 10
194.001136
 20
80.993862
 30
0.0
 11
196.131781
 21
74.588645
 31
0.0
  0
SPLINE
  5
137
100
AcDbEntity
  8
Capa_1
 62
7
100
AcDbSpline
 70
0
 71
3
 72
10
 73
6
 74
4
 40
0.000000
 40
0.000000
 40
0.000000
 40
0.000000
 40
2.310826
 40
5.265090
 40
8.223210
 40
8.223210
 40
8.223210
 40
8.223210
 10
196.123865
 20
68.554689
 30
0.0
 10
195.863591
 20
69.279659
 30
0.0
 10
195.270571
 20
70.931463
 30
0.0
 10
194.343964
 20
73.511165
 30
0.0
 10
193.677557
 20
75.365871
 30
0.0
 10
193.344136
 20
76.293829
 30
0.0
 11
196.123865
 21
68.554689
 31
0.0
 11
195.342993
 21
70.729581
 31
0.0
 11
194.344352
 21
73.509939
 31
0.0
 11
193.344136
 21
76.293829
 31
0.0
  0
LINE
  5
138
100
AcDbEntity
  8
Capa_1
 62
7
100
AcDbLine
 10
198.471759
 20
67.706563
 30
0.0
 11
198.681105
 21
67.706563
 31
0.0
  0
LINE
  5
139
100
AcDbEntity
  8
Capa_1
 62
7
100
AcDbLine
 10
198.681105
 20
67.706563
 30
0.0
 11
198.768177
 21
68.095284
 31
0.0
  0
SPLINE
  5
13a
100
AcDbEntity
  8
Capa_1
 62
7
100
AcDbSpline
 70
0
 71
3
 72
13
 73
9
 74
7
 40
0.000000
 40
0.000000
 40
0.000000
 40
0.000000
 40
3.431157
 40
5.937689
 40
6.977387
 40
7.100864
 40
7.214853
 40
7.325241
 40
7.325241
 40
7.325241
 40
7.325241
 10
196.131781
 20
74.588645
 30
0.0
 10
196.497847
 20
73.504749
 30
0.0
 10
197.131333
 20
71.629043
 30
0.0
 10
197.787818
 20
69.399188
 30
0.0
 10
198.225519
 20
68.252187
 30
0.0
 10
198.278392
 20
67.824391
 30
0.0
 10
198.359592
 20
67.727848
 30
0.0
 10
198.434772
 20
67.713581
 30
0.0
 10
198.471759
 20
67.706563
 30
0.0
 11
196.131781
 21
74.588645
 31
0.0
 11
197.204995
 21
71.329650
 31
0.0
 11
197.970451
 21
68.942857
 31
0.0
 11
198.262429
 21
67.944998
 31
0.0
 11
198.291115
 21
67.824900
 31
0.0
 11
198.366318
 21
67.739238
 31
0.0
 11
198.471759
 21
67.706563
 31
0.0
  0
LINE
  5
13b
100
AcDbEntity
  8
Capa_1
 62
7
100
AcDbLine
 10
204.161291
 20
80.964598
 30
0.0
 11
205.298514
 21
80.923182
 31
0.0
  0
LINE
  5
13c
100
AcDbEntity
  8
Capa_1
 62
7
100
AcDbLine
 10
205.298514
 20
80.923182
 30
0.0
 11
202.628898
 21
73.360733
 31
0.0
  0
SPLINE
  5
13d
100
AcDbEntity
  8
Capa_1
 62
7
100
AcDbSpline
 70
0
 71
3
 72
13
 73
9
 74
7
 40
0.000000
 40
0.000000
 40
0.000000
 40
0.000000
 40
3.770738
 40
10.060494
 40
13.455878
 40
13.670052
 40
14.116578
 40
14.703628
 40
14.703628
 40
14.703628
 40
14.703628
 10
198.768177
 20
68.095284
 30
0.0
 10
199.111620
 20
69.326051
 30
0.0
 10
200.027940
 20
72.609791
 30
0.0
 10
202.122747
 20
76.123555
 30
0.0
 10
201.864256
 20
80.644368
 30
0.0
 10
203.205069
 20
80.968656
 30
0.0
 10
203.621166
 20
80.971786
 30
0.0
 10
203.965638
 20
80.967202
 30
0.0
 10
204.161291
 20
80.964598
 30
0.0
 11
198.768177
 21
68.095284
 31
0.0
 11
199.889802
 21
71.695343
 31
0.0
 11
201.830775
 21
77.678123
 31
0.0
 11
202.920397
 21
80.893921
 31
0.0
 11
203.128463
 21
80.944702
 31
0.0
 11
203.574266
 21
80.970094
 31
0.0
 11
204.161291
 21
80.964598
 31
0.0
  0
LINE
  5
13e
100
AcDbEntity
  8
Capa_1
 62
7
100
AcDbLine
 10
199.890699
 20
65.616244
 30
0.0
 11
199.822099
 21
65.434222
 31
0.0
  0
LINE
  5
13f
100
AcDbEntity
  8
Capa_1
 62
7
100
AcDbLine
 10
199.822099
 20
65.434222
 30
0.0
 11
198.518365
 21
65.474888
 31
0.0
  0
LINE
  5
140
100
AcDbEntity
  8
Capa_1
 62
7
100
AcDbLine
 10
198.518365
 20
65.474888
 30
0.0
 11
197.214608
 21
65.515570
 31
0.0
  0
LINE
  5
141
100
AcDbEntity
  8
Capa_1
 62
7
100
AcDbLine
 10
197.214608
 20
65.515570
 30
0.0
 11
196.123865
 21
68.554689
 31
0.0
  0
SPLINE
  5
142
100
AcDbEntity
  8
Capa_1
 62
7
100
AcDbSpline
 70
0
 71
3
 72
10
 73
6
 74
4
 40
0.000000
 40
0.000000
 40
0.000000
 40
0.000000
 40
4.066263
 40
7.017328
 40
8.214308
 40
8.214308
 40
8.214308
 40
8.214308
 10
202.628898
 20
73.360733
 30
0.0
 10
202.177507
 20
72.082683
 30
0.0
 10
201.398521
 20
69.877096
 30
0.0
 10
200.486970
 20
67.295180
 30
0.0
 10
200.024229
 20
65.992230
 30
0.0
 10
199.890699
 20
65.616244
 30
0.0
 11
202.628898
 21
73.360733
 31
0.0
 11
201.274813
 21
69.526551
 31
0.0
 11
200.291088
 21
66.744273
 31
0.0
 11
199.890699
 21
65.616244
 31
0.0
  0
LINE
  5
143
100
AcDbEntity
  8
Capa_1
 62
7
100
AcDbLine
 10
189.402584
 20
73.471003
 30
0.0
 11
186.475917
 21
81.285078
 31
0.0
  0
LINE
  5
144
100
AcDbEntity
  8
Capa_1
 62
7
100
AcDbLine
 10
186.475917
 20
81.285078
 30
0.0
 11
184.853224
 21
81.245488
 31
0.0
  0
LINE
  5
145
100
AcDbEntity
  8
Capa_1
 62
7
100
AcDbLine
 10
184.853224
 20
81.245488
 30
0.0
 11
183.230537
 21
81.205890
 31
0.0
  0
LINE
  5
146
100
AcDbEntity
  8
Capa_1
 62
7
100
AcDbLine
 10
183.230537
 20
81.205890
 30
0.0
 11
180.286341
 21
73.297049
 31
0.0
  0
LINE
  5
147
100
AcDbEntity
  8
Capa_1
 62
7
100
AcDbLine
 10
180.286341
 20
73.297049
 30
0.0
 11
177.342142
 21
65.388212
 31
0.0
  0
LINE
  5
148
100
AcDbEntity
  8
Capa_1
 62
7
100
AcDbLine
 10
177.342142
 20
65.388212
 30
0.0
 11
177.460359
 21
65.269997
 31
0.0
  0
SPLINE
  5
149
100
AcDbEntity
  8
Capa_1
 62
7
100
AcDbSpline
 70
0
 71
3
 72
10
 73
6
 74
4
 40
0.000000
 40
0.000000
 40
0.000000
 40
0.000000
 40
1.260551
 40
4.341454
 40
8.576148
 40
8.576148
 40
8.576148
 40
8.576148
 10
192.327403
 20
65.409559
 30
0.0
 10
192.195556
 20
65.808543
 30
0.0
 10
191.741462
 20
67.182680
 30
0.0
 10
190.740966
 20
69.861213
 30
0.0
 10
189.893276
 20
72.147542
 30
0.0
 10
189.402584
 20
73.471003
 30
0.0
 11
192.327403
 21
65.409559
 31
0.0
 11
191.927445
 21
66.604976
 31
0.0
 11
190.876587
 21
69.501123
 31
0.0
 11
189.402584
 21
73.471003
 31
0.0
  0
LINE
  5
14a
100
AcDbEntity
  8
Capa_1
 62
7
100
AcDbLine
 10
179.050069
 20
65.192321
 30
0.0
 11
180.521581
 21
65.232865
 31
0.0
  0
LINE
  5
14b
100
AcDbEntity
  8
Capa_1
 62
7
100
AcDbLine
 10
180.521581
 20
65.232865
 30
0.0
 11
181.231915
 21
67.211822
 31
0.0
  0
LINE
  5
14c
100
AcDbEntity
  8
Capa_1
 62
7
100
AcDbLine
 10
181.231915
 20
67.211822
 30
0.0
 11
181.942249
 21
69.190781
 31
0.0
  0
LINE
  5
14d
100
AcDbEntity
  8
Capa_1
 62
7
100
AcDbLine
 10
181.942249
 20
69.190781
 30
0.0
 11
184.923760
 21
69.228878
 31
0.0
  0
LINE
  5
14e
100
AcDbEntity
  8
Capa_1
 62
7
100
AcDbLine
 10
184.923760
 20
69.228878
 30
0.0
 11
187.905277
 21
69.266972
 31
0.0
  0
LINE
  5
14f
100
AcDbEntity
  8
Capa_1
 62
7
100
AcDbLine
 10
187.905277
 20
69.266972
 30
0.0
 11
188.595691
 21
67.214579
 31
0.0
  0
LINE
  5
150
100
AcDbEntity
  8
Capa_1
 62
7
100
AcDbLine
 10
188.595691
 20
67.214579
 30
0.0
 11
189.286094
 21
65.162186
 31
0.0
  0
LINE
  5
151
100
AcDbEntity
  8
Capa_1
 62
7
100
AcDbLine
 10
189.286094
 20
65.162186
 30
0.0
 11
190.805821
 21
65.162186
 31
0.0
  0
LINE
  5
152
100
AcDbEntity
  8
Capa_1
 62
7
100
AcDbLine
 10
190.805821
 20
65.162186
 30
0.0
 11
192.325549
 21
65.162186
 31
0.0
  0
LINE
  5
153
100
AcDbEntity
  8
Capa_1
 62
7
100
AcDbLine
 10
192.325549
 20
65.162186
 30
0.0
 11
192.327242
 21
65.409556
 31
0.0
  0
LINE
  5
154
100
AcDbEntity
  8
Capa_1
 62
7
100
AcDbLine
 10
192.327242
 20
65.409556
 30
0.0
 11
192.327403
 21
65.409559
 31
0.0
  0
LINE
  5
155
100
AcDbEntity
  8
Capa_1
 62
7
100
AcDbLine
 10
188.884069
 20
67.494532
 30
0.0
 11
188.206304
 21
69.544171
 31
0.0
  0
LINE
  5
156
100
AcDbEntity
  8
Capa_1
 62
7
100
AcDbLine
 10
188.206304
 20
69.544171
 30
0.0
 11
184.918166
 21
69.544171
 31
0.0
  0
LINE
  5
157
100
AcDbEntity
  8
Capa_1
 62
7
100
AcDbLine
 10
184.918166
 20
69.544171
 30
0.0
 11
181.630026
 21
69.544171
 31
0.0
  0
LINE
  5
158
100
AcDbEntity
  8
Capa_1
 62
7
100
AcDbLine
 10
181.630026
 20
69.544171
 30
0.0
 11
180.941150
 21
67.549616
 31
0.0
  0
SPLINE
  5
159
100
AcDbEntity
  8
Capa_1
 62
7
100
AcDbSpline
 70
0
 71
3
 72
10
 73
6
 74
4
 40
0.000000
 40
0.000000
 40
0.000000
 40
0.000000
 40
0.266710
 40
0.838512
 40
1.595924
 40
1.595924
 40
1.595924
 40
1.595924
 10
177.460359
 20
65.269997
 30
0.0
 10
177.547129
 20
65.249837
 30
0.0
 10
177.819924
 20
65.186455
 30
0.0
 10
178.355709
 20
65.188024
 30
0.0
 10
178.798027
 20
65.190761
 30
0.0
 10
179.050069
 20
65.192321
 30
0.0
 11
177.460359
 21
65.269997
 31
0.0
 11
177.721549
 21
65.216012
 31
0.0
 11
178.292669
 21
65.188106
 31
0.0
 11
179.050069
 21
65.192321
 31
0.0
  0
LINE
  5
15a
100
AcDbEntity
  8
Capa_1
 62
7
100
AcDbLine
 10
178.868629
 20
65.473863
 30
0.0
 11
177.805204
 21
65.515564
 31
0.0
  0
LINE
  5
15b
100
AcDbEntity
  8
Capa_1
 62
7
100
AcDbLine
 10
177.805204
 20
65.515564
 30
0.0
 11
180.670795
 21
73.219370
 31
0.0
  0
LINE
  5
15c
100
AcDbEntity
  8
Capa_1
 62
7
100
AcDbLine
 10
180.670795
 20
73.219370
 30
0.0
 11
183.536384
 21
80.923173
 31
0.0
  0
LINE
  5
15d
100
AcDbEntity
  8
Capa_1
 62
7
100
AcDbLine
 10
183.536384
 20
80.923173
 30
0.0
 11
184.856506
 21
80.962797
 31
0.0
  0
LINE
  5
15e
100
AcDbEntity
  8
Capa_1
 62
7
100
AcDbLine
 10
184.856506
 20
80.962797
 30
0.0
 11
186.176640
 21
81.002405
 31
0.0
  0
LINE
  5
15f
100
AcDbEntity
  8
Capa_1
 62
7
100
AcDbLine
 10
186.176640
 20
81.002405
 30
0.0
 11
189.092298
 21
73.223652
 31
0.0
  0
LINE
  5
160
100
AcDbEntity
  8
Capa_1
 62
7
100
AcDbLine
 10
189.092298
 20
73.223652
 30
0.0
 11
192.007967
 21
65.444888
 31
0.0
  0
LINE
  5
161
100
AcDbEntity
  8
Capa_1
 62
7
100
AcDbLine
 10
192.007967
 20
65.444888
 30
0.0
 11
190.784903
 21
65.444888
 31
0.0
  0
LINE
  5
162
100
AcDbEntity
  8
Capa_1
 62
7
100
AcDbLine
 10
190.784903
 20
65.444888
 30
0.0
 11
189.561848
 21
65.444888
 31
0.0
  0
LINE
  5
163
100
AcDbEntity
  8
Capa_1
 62
7
100
AcDbLine
 10
189.561848
 20
65.444888
 30
0.0
 11
188.884069
 21
67.494532
 31
0.0
  0
LINE
  5
164
100
AcDbEntity
  8
Capa_1
 62
7
100
AcDbLine
 10
175.504399
 20
73.219379
 30
0.0
 11
175.504399
 21
81.276569
 31
0.0
  0
LINE
  5
165
100
AcDbEntity
  8
Capa_1
 62
7
100
AcDbLine
 10
175.504399
 20
81.276569
 30
0.0
 11
172.429943
 21
81.274594
 31
0.0
  0
LINE
  5
166
100
AcDbEntity
  8
Capa_1
 62
7
100
AcDbLine
 10
172.429943
 20
81.274594
 30
0.0
 11
169.355487
 21
81.272618
 31
0.0
  0
LINE
  5
167
100
AcDbEntity
  8
Capa_1
 62
7
100
AcDbLine
 10
169.355487
 20
81.272618
 30
0.0
 11
168.438595
 21
81.056515
 31
0.0
  0
SPLINE
  5
168
100
AcDbEntity
  8
Capa_1
 62
7
100
AcDbSpline
 70
0
 71
3
 72
13
 73
9
 74
7
 40
0.000000
 40
0.000000
 40
0.000000
 40
0.000000
 40
1.078172
 40
1.877305
 40
2.228338
 40
2.456111
 40
2.895734
 40
3.453475
 40
3.453475
 40
3.453475
 40
3.453475
 10
180.941150
 20
67.549616
 30
0.0
 10
180.824160
 20
67.203045
 30
0.0
 10
180.620458
 20
66.599597
 30
0.0
 10
180.314020
 20
65.979140
 30
0.0
 10
180.161292
 20
65.455303
 30
0.0
 10
179.783075
 20
65.475591
 30
0.0
 10
179.391813
 20
65.452899
 30
0.0
 10
179.056269
 20
65.466344
 30
0.0
 10
178.868629
 20
65.473863
 30
0.0
 11
180.941150
 21
67.549616
 31
0.0
 11
180.572217
 21
66.536531
 31
0.0
 11
180.267212
 21
65.797892
 31
0.0
 11
180.092163
 21
65.493619
 31
0.0
 11
179.865794
 21
65.468382
 31
0.0
 11
179.426228
 21
65.461288
 31
0.0
 11
178.868629
 21
65.473863
 31
0.0
  0
LINE
  5
169
100
AcDbEntity
  8
Capa_1
 62
7
100
AcDbLine
 10
165.083512
 20
78.491629
 30
0.0
 11
164.745986
 21
77.754368
 31
0.0
  0
LINE
  5
16a
100
AcDbEntity
  8
Capa_1
 62
7
100
AcDbLine
 10
164.745986
 20
77.754368
 30
0.0
 11
164.665668
 21
76.794514
 31
0.0
  0
LINE
  5
16b
100
AcDbEntity
  8
Capa_1
 62
7
100
AcDbLine
 10
164.665668
 20
76.794514
 30
0.0
 11
164.585351
 21
75.834664
 31
0.0
  0
LINE
  5
16c
100
AcDbEntity
  8
Capa_1
 62
7
100
AcDbLine
 10
164.585351
 20
75.834664
 30
0.0
 11
164.819685
 21
74.920555
 31
0.0
  0
SPLINE
  5
16d
100
AcDbEntity
  8
Capa_1
 62
7
100
AcDbSpline
 70
0
 71
3
 72
10
 73
6
 74
4
 40
0.000000
 40
0.000000
 40
0.000000
 40
0.000000
 40
1.552044
 40
2.965073
 40
4.365754
 40
4.365754
 40
4.365754
 40
4.365754
 10
168.438595
 20
81.056515
 30
0.0
 10
167.941937
 20
80.904871
 30
0.0
 10
166.993104
 20
80.615166
 30
0.0
 10
165.787824
 20
79.720128
 30
0.0
 10
165.317595
 20
78.899929
 30
0.0
 10
165.083512
 20
78.491629
 30
0.0
 11
168.438595
 21
81.056515
 31
0.0
 11
166.984306
 21
80.514406
 31
0.0
 11
165.861731
 21
79.656223
 31
0.0
 11
165.083512
 21
78.491629
 31
0.0
  0
LINE
  5
16e
100
AcDbEntity
  8
Capa_1
 62
7
100
AcDbLine
 10
168.648718
 20
71.149634
 30
0.0
 11
169.355487
 21
70.961293
 31
0.0
  0
LINE
  5
16f
100
AcDbEntity
  8
Capa_1
 62
7
100
AcDbLine
 10
169.355487
 20
70.961293
 30
0.0
 11
170.945725
 21
70.959600
 31
0.0
  0
LINE
  5
170
100
AcDbEntity
  8
Capa_1
 62
7
100
AcDbLine
 10
170.945725
 20
70.959600
 30
0.0
 11
172.535960
 21
70.957907
 31
0.0
  0
LINE
  5
171
100
AcDbEntity
  8
Capa_1
 62
7
100
AcDbLine
 10
172.535960
 20
70.957907
 30
0.0
 11
172.535960
 21
68.060145
 31
0.0
  0
LINE
  5
172
100
AcDbEntity
  8
Capa_1
 62
7
100
AcDbLine
 10
172.535960
 20
68.060145
 30
0.0
 11
172.535960
 21
65.162383
 31
0.0
  0
LINE
  5
173
100
AcDbEntity
  8
Capa_1
 62
7
100
AcDbLine
 10
172.535960
 20
65.162383
 30
0.0
 11
174.020178
 21
65.162383
 31
0.0
  0
LINE
  5
174
100
AcDbEntity
  8
Capa_1
 62
7
100
AcDbLine
 10
174.020178
 20
65.162383
 30
0.0
 11
175.504399
 21
65.162383
 31
0.0
  0
LINE
  5
175
100
AcDbEntity
  8
Capa_1
 62
7
100
AcDbLine
 10
175.504399
 20
65.162383
 30
0.0
 11
175.504399
 21
73.219574
 31
0.0
  0
LINE
  5
176
100
AcDbEntity
  8
Capa_1
 62
7
100
AcDbLine
 10
175.504399
 20
73.219574
 30
0.0
 11
175.504399
 21
73.219379
 31
0.0
  0
LINE
  5
177
100
AcDbEntity
  8
Capa_1
 62
7
100
AcDbLine
 10
172.927611
 20
68.307321
 30
0.0
 11
172.889344
 21
71.169743
 31
0.0
  0
LINE
  5
178
100
AcDbEntity
  8
Capa_1
 62
7
100
AcDbLine
 10
172.889344
 20
71.169743
 30
0.0
 11
170.981065
 21
71.258301
 31
0.0
  0
LINE
  5
179
100
AcDbEntity
  8
Capa_1
 62
7
100
AcDbLine
 10
170.981065
 20
71.258301
 30
0.0
 11
169.072783
 21
71.346860
 31
0.0
  0
LINE
  5
17a
100
AcDbEntity
  8
Capa_1
 62
7
100
AcDbLine
 10
169.072783
 20
71.346860
 30
0.0
 11
168.274864
 21
71.651620
 31
0.0
  0
SPLINE
  5
17b
100
AcDbEntity
  8
Capa_1
 62
7
100
AcDbSpline
 70
0
 71
3
 72
10
 73
6
 74
4
 40
0.000000
 40
0.000000
 40
0.000000
 40
0.000000
 40
1.884577
 40
3.684989
 40
5.632062
 40
5.632062
 40
5.632062
 40
5.632062
 10
164.819685
 20
74.920555
 30
0.0
 10
165.030445
 20
74.322364
 30
0.0
 10
165.442552
 20
73.152696
 30
0.0
 10
166.844780
 20
71.785773
 30
0.0
 10
168.031919
 20
71.367142
 30
0.0
 10
168.648718
 20
71.149634
 30
0.0
 11
164.819685
 21
74.920555
 31
0.0
 11
165.584140
 21
73.197988
 31
0.0
 11
166.866920
 21
71.934675
 31
0.0
 11
168.648718
 21
71.149634
 31
0.0
  0
LINE
  5
17c
100
AcDbEntity
  8
Capa_1
 62
7
100
AcDbLine
 10
165.044185
 20
76.346333
 30
0.0
 11
165.044185
 21
77.308048
 31
0.0
  0
LINE
  5
17d
100
AcDbEntity
  8
Capa_1
 62
7
100
AcDbLine
 10
165.044185
 20
77.308048
 30
0.0
 11
165.343120
 21
78.107027
 31
0.0
  0
LINE
  5
17e
100
AcDbEntity
  8
Capa_1
 62
7
100
AcDbLine
 10
165.343120
 20
78.107027
 30
0.0
 11
165.642058
 21
78.906004
 31
0.0
  0
LINE
  5
17f
100
AcDbEntity
  8
Capa_1
 62
7
100
AcDbLine
 10
165.642058
 20
78.906004
 30
0.0
 11
166.205665
 21
79.469610
 31
0.0
  0
SPLINE
  5
180
100
AcDbEntity
  8
Capa_1
 62
7
100
AcDbSpline
 70
0
 71
3
 72
10
 73
6
 74
4
 40
0.000000
 40
0.000000
 40
0.000000
 40
0.000000
 40
2.076852
 40
3.990919
 40
6.068971
 40
6.068971
 40
6.068971
 40
6.068971
 10
168.274864
 20
71.651620
 30
0.0
 10
167.644606
 20
71.957752
 30
0.0
 10
166.433491
 20
72.546021
 30
0.0
 10
165.222420
 20
74.306289
 30
0.0
 10
165.105201
 20
75.647948
 30
0.0
 10
165.044185
 20
76.346333
 30
0.0
 11
168.274864
 21
71.651620
 31
0.0
 11
166.496402
 21
72.724181
 31
0.0
 11
165.411329
 21
74.300972
 31
0.0
 11
165.044185
 21
76.346333
 31
0.0
  0
LINE
  5
181
100
AcDbEntity
  8
Capa_1
 62
7
100
AcDbLine
 10
172.571297
 20
80.992786
 30
0.0
 11
175.080334
 21
80.994197
 31
0.0
  0
LINE
  5
182
100
AcDbEntity
  8
Capa_1
 62
7
100
AcDbLine
 10
175.080334
 20
80.994197
 30
0.0
 11
175.080334
 21
73.219715
 31
0.0
  0
LINE
  5
183
100
AcDbEntity
  8
Capa_1
 62
7
100
AcDbLine
 10
175.080334
 20
73.219715
 30
0.0
 11
175.080334
 21
65.445235
 31
0.0
  0
LINE
  5
184
100
AcDbEntity
  8
Capa_1
 62
7
100
AcDbLine
 10
175.080334
 20
65.445235
 30
0.0
 11
174.023104
 21
65.445235
 31
0.0
  0
LINE
  5
185
100
AcDbEntity
  8
Capa_1
 62
7
100
AcDbLine
 10
174.023104
 20
65.445235
 30
0.0
 11
172.965875
 21
65.445235
 31
0.0
  0
LINE
  5
186
100
AcDbEntity
  8
Capa_1
 62
7
100
AcDbLine
 10
172.965875
 20
65.445235
 30
0.0
 11
172.927611
 21
68.307657
 31
0.0
  0
LINE
  5
187
100
AcDbEntity
  8
Capa_1
 62
7
100
AcDbLine
 10
172.927611
 20
68.307657
 30
0.0
 11
172.927611
 21
68.307321
 31
0.0
  0
LINE
  5
188
100
AcDbEntity
  8
Capa_1
 62
7
100
AcDbLine
 10
162.217100
 20
73.230250
 30
0.0
 11
162.217100
 21
81.298326
 31
0.0
  0
LINE
  5
189
100
AcDbEntity
  8
Capa_1
 62
7
100
AcDbLine
 10
162.217100
 20
81.298326
 30
0.0
 11
158.718583
 21
81.244424
 31
0.0
  0
LINE
  5
18a
100
AcDbEntity
  8
Capa_1
 62
7
100
AcDbLine
 10
158.718583
 20
81.244424
 30
0.0
 11
155.220069
 21
81.190528
 31
0.0
  0
LINE
  5
18b
100
AcDbEntity
  8
Capa_1
 62
7
100
AcDbLine
 10
155.220069
 20
81.190528
 30
0.0
 11
154.510299
 21
80.939822
 31
0.0
  0
SPLINE
  5
18c
100
AcDbEntity
  8
Capa_1
 62
7
100
AcDbSpline
 70
0
 71
3
 72
10
 73
6
 74
4
 40
0.000000
 40
0.000000
 40
0.000000
 40
0.000000
 40
1.625089
 40
3.634226
 40
6.712821
 40
6.712821
 40
6.712821
 40
6.712821
 10
166.205665
 20
79.469610
 30
0.0
 10
166.632320
 20
79.816432
 30
0.0
 10
167.586461
 20
80.592038
 30
0.0
 10
169.864736
 20
80.962514
 30
0.0
 10
171.550960
 20
80.981374
 30
0.0
 10
172.571297
 20
80.992786
 30
0.0
 11
166.205665
 21
79.469610
 31
0.0
 11
167.541476
 21
80.395095
 31
0.0
 11
169.495454
 21
80.862645
 31
0.0
 11
172.571297
 21
80.992786
 31
0.0
  0
LINE
  5
18d
100
AcDbEntity
  8
Capa_1
 62
7
100
AcDbLine
 10
153.167432
 20
80.229502
 30
0.0
 11
152.534337
 21
79.769889
 31
0.0
  0
LINE
  5
18e
100
AcDbEntity
  8
Capa_1
 62
7
100
AcDbLine
 10
152.534337
 20
79.769889
 30
0.0
 11
152.110273
 21
79.003679
 31
0.0
  0
LINE
  5
18f
100
AcDbEntity
  8
Capa_1
 62
7
100
AcDbLine
 10
152.110273
 20
79.003679
 30
0.0
 11
151.686212
 21
78.237454
 31
0.0
  0
LINE
  5
190
100
AcDbEntity
  8
Capa_1
 62
7
100
AcDbLine
 10
151.686212
 20
78.237454
 30
0.0
 11
151.686325
 21
76.823913
 31
0.0
  0
LINE
  5
191
100
AcDbEntity
  8
Capa_1
 62
7
100
AcDbLine
 10
151.686325
 20
76.823913
 30
0.0
 11
151.686423
 21
75.410369
 31
0.0
  0
LINE
  5
192
100
AcDbEntity
  8
Capa_1
 62
7
100
AcDbLine
 10
151.686423
 20
75.410369
 30
0.0
 11
152.062425
 21
74.703597
 31
0.0
  0
SPLINE
  5
193
100
AcDbEntity
  8
Capa_1
 62
7
100
AcDbSpline
 70
0
 71
3
 72
10
 73
6
 74
4
 40
0.000000
 40
0.000000
 40
0.000000
 40
0.000000
 40
0.482905
 40
1.028677
 40
1.522510
 40
1.522510
 40
1.522510
 40
1.522510
 10
154.510299
 20
80.939822
 30
0.0
 10
154.361187
 20
80.879046
 30
0.0
 10
154.043551
 20
80.749582
 30
0.0
 10
153.594055
 20
80.511293
 30
0.0
 10
153.304823
 20
80.320251
 30
0.0
 10
153.167432
 20
80.229502
 30
0.0
 11
154.510299
 21
80.939822
 31
0.0
 11
154.066035
 21
80.750545
 31
0.0
 11
153.583597
 21
80.495356
 31
0.0
 11
153.167432
 21
80.229502
 31
0.0
  0
LINE
  5
194
100
AcDbEntity
  8
Capa_1
 62
7
100
AcDbLine
 10
153.982778
 20
71.635776
 30
0.0
 11
153.229346
 21
70.864065
 31
0.0
  0
LINE
  5
195
100
AcDbEntity
  8
Capa_1
 62
7
100
AcDbLine
 10
153.229346
 20
70.864065
 30
0.0
 11
151.503639
 21
68.176497
 31
0.0
  0
SPLINE
  5
196
100
AcDbEntity
  8
Capa_1
 62
7
100
AcDbSpline
 70
0
 71
3
 72
16
 73
12
 74
10
 40
0.000000
 40
0.000000
 40
0.000000
 40
0.000000
 40
0.939733
 40
1.852582
 40
2.782157
 40
3.147451
 40
3.420815
 40
3.543102
 40
3.688716
 40
4.073549
 40
4.615687
 40
4.615687
 40
4.615687
 40
4.615687
 10
152.062425
 20
74.703597
 30
0.0
 10
152.224379
 20
74.434402
 30
0.0
 10
152.543653
 20
73.903713
 30
0.0
 10
153.222051
 20
73.251464
 30
0.0
 10
153.837414
 20
72.860310
 30
0.0
 10
154.330598
 20
72.635940
 30
0.0
 10
154.515417
 20
72.510592
 30
0.0
 10
154.748927
 20
72.443432
 30
0.0
 10
154.522653
 20
72.235656
 30
0.0
 10
154.342600
 20
71.997108
 30
0.0
 10
154.115561
 20
71.769117
 30
0.0
 10
153.982778
 20
71.635776
 30
0.0
 11
152.062425
 21
74.703597
 31
0.0
 11
152.582369
 21
73.920809
 31
0.0
 11
153.233754
 21
73.281285
 31
0.0
 11
154.018555
 21
72.783092
 31
0.0
 11
154.344547
 21
72.618263
 31
0.0
 11
154.587720
 21
72.493382
 31
0.0
 11
154.695432
 21
72.435484
 31
0.0
 11
154.612726
 21
72.315637
 31
0.0
 11
154.356696
 21
72.028331
 31
0.0
 11
153.982778
 21
71.635776
 31
0.0
  0
LINE
  5
197
100
AcDbEntity
  8
Capa_1
 62
7
100
AcDbLine
 10
149.777929
 20
65.321085
 30
0.0
 11
149.777929
 21
65.153211
 31
0.0
  0
LINE
  5
198
100
AcDbEntity
  8
Capa_1
 62
7
100
AcDbLine
 10
149.777929
 20
65.153211
 30
0.0
 11
151.437698
 21
65.193047
 31
0.0
  0
LINE
  5
199
100
AcDbEntity
  8
Capa_1
 62
7
100
AcDbLine
 10
151.437698
 20
65.193047
 30
0.0
 11
153.097478
 21
65.232868
 31
0.0
  0
LINE
  5
19a
100
AcDbEntity
  8
Capa_1
 62
7
100
AcDbLine
 10
153.097478
 20
65.232868
 30
0.0
 11
154.554258
 21
67.631404
 31
0.0
  0
SPLINE
  5
19b
100
AcDbEntity
  8
Capa_1
 62
7
100
AcDbSpline
 70
0
 71
3
 72
10
 73
6
 74
4
 40
0.000000
 40
0.000000
 40
0.000000
 40
0.000000
 40
1.628185
 40
2.826812
 40
3.337687
 40
3.337687
 40
3.337687
 40
3.337687
 10
151.503639
 20
68.176497
 30
0.0
 10
151.214298
 20
67.717511
 30
0.0
 10
150.711952
 20
66.920632
 30
0.0
 10
150.114468
 20
65.980529
 30
0.0
 10
149.855362
 20
65.472813
 30
0.0
 10
149.777929
 20
65.321085
 30
0.0
 11
151.503639
 21
68.176497
 31
0.0
 11
150.634394
 21
66.799762
 31
0.0
 11
150.014416
 21
65.773928
 31
0.0
 11
149.777929
 21
65.321085
 31
0.0
  0
LINE
  5
19c
100
AcDbEntity
  8
Capa_1
 62
7
100
AcDbLine
 10
157.310483
 20
71.225945
 30
0.0
 11
157.924373
 21
71.523130
 31
0.0
  0
LINE
  5
19d
100
AcDbEntity
  8
Capa_1
 62
7
100
AcDbLine
 10
157.924373
 20
71.523130
 30
0.0
 11
158.657194
 21
71.523130
 31
0.0
  0
LINE
  5
19e
100
AcDbEntity
  8
Capa_1
 62
7
100
AcDbLine
 10
158.657194
 20
71.523130
 30
0.0
 11
159.390015
 21
71.523130
 31
0.0
  0
LINE
  5
19f
100
AcDbEntity
  8
Capa_1
 62
7
100
AcDbLine
 10
159.390015
 20
71.523130
 30
0.0
 11
159.390015
 21
68.342658
 31
0.0
  0
LINE
  5
1a0
100
AcDbEntity
  8
Capa_1
 62
7
100
AcDbLine
 10
159.390015
 20
68.342658
 30
0.0
 11
159.390015
 21
65.162188
 31
0.0
  0
LINE
  5
1a1
100
AcDbEntity
  8
Capa_1
 62
7
100
AcDbLine
 10
159.390015
 20
65.162188
 30
0.0
 11
160.803559
 21
65.162188
 31
0.0
  0
LINE
  5
1a2
100
AcDbEntity
  8
Capa_1
 62
7
100
AcDbLine
 10
160.803559
 20
65.162188
 30
0.0
 11
162.217100
 21
65.162188
 31
0.0
  0
LINE
  5
1a3
100
AcDbEntity
  8
Capa_1
 62
7
100
AcDbLine
 10
162.217100
 20
65.162188
 30
0.0
 11
162.217100
 21
73.230250
 31
0.0
  0
LINE
  5
1a4
100
AcDbEntity
  8
Capa_1
 62
7
100
AcDbLine
 10
159.672725
 20
68.625368
 30
0.0
 11
159.672725
 21
71.805835
 31
0.0
  0
LINE
  5
1a5
100
AcDbEntity
  8
Capa_1
 62
7
100
AcDbLine
 10
159.672725
 20
71.805835
 30
0.0
 11
158.678708
 21
71.805835
 31
0.0
  0
LINE
  5
1a6
100
AcDbEntity
  8
Capa_1
 62
7
100
AcDbLine
 10
158.678708
 20
71.805835
 30
0.0
 11
157.684676
 21
71.805835
 31
0.0
  0
LINE
  5
1a7
100
AcDbEntity
  8
Capa_1
 62
7
100
AcDbLine
 10
157.684676
 20
71.805835
 30
0.0
 11
157.229827
 21
71.614982
 31
0.0
  0
SPLINE
  5
1a8
100
AcDbEntity
  8
Capa_1
 62
7
100
AcDbSpline
 70
0
 71
3
 72
10
 73
6
 74
4
 40
0.000000
 40
0.000000
 40
0.000000
 40
0.000000
 40
2.564431
 40
3.805845
 40
4.583985
 40
4.583985
 40
4.583985
 40
4.583985
 10
154.554258
 20
67.631404
 30
0.0
 10
155.001569
 20
68.352201
 30
0.0
 10
155.665419
 20
69.421928
 30
0.0
 10
156.494008
 20
70.753224
 30
0.0
 10
157.083392
 20
71.094464
 30
0.0
 10
157.310483
 20
71.225945
 30
0.0
 11
154.554258
 21
67.631404
 31
0.0
 11
155.907126
 21
69.809948
 31
0.0
 11
156.662514
 21
70.795088
 31
0.0
 11
157.310483
 21
71.225945
 31
0.0
  0
LINE
  5
1a9
100
AcDbEntity
  8
Capa_1
 62
7
100
AcDbLine
 10
154.281872
 20
67.908600
 30
0.0
 11
152.817045
 21
65.454494
 31
0.0
  0
LINE
  5
1aa
100
AcDbEntity
  8
Capa_1
 62
7
100
AcDbLine
 10
152.817045
 20
65.454494
 30
0.0
 11
151.514197
 21
65.449697
 31
0.0
  0
LINE
  5
1ab
100
AcDbEntity
  8
Capa_1
 62
7
100
AcDbLine
 10
151.514197
 20
65.449697
 30
0.0
 11
150.211349
 21
65.444899
 31
0.0
  0
LINE
  5
1ac
100
AcDbEntity
  8
Capa_1
 62
7
100
AcDbLine
 10
150.211349
 20
65.444899
 30
0.0
 11
151.796905
 21
67.944027
 31
0.0
  0
LINE
  5
1ad
100
AcDbEntity
  8
Capa_1
 62
7
100
AcDbLine
 10
151.796905
 20
67.944027
 30
0.0
 11
153.382463
 21
70.443156
 31
0.0
  0
LINE
  5
1ae
100
AcDbEntity
  8
Capa_1
 62
7
100
AcDbLine
 10
153.382463
 20
70.443156
 30
0.0
 11
154.346170
 21
71.421666
 31
0.0
  0
SPLINE
  5
1af
100
AcDbEntity
  8
Capa_1
 62
7
100
AcDbSpline
 70
0
 71
3
 72
10
 73
6
 74
4
 40
0.000000
 40
0.000000
 40
0.000000
 40
0.000000
 40
0.931852
 40
2.393903
 40
4.789067
 40
4.789067
 40
4.789067
 40
4.789067
 10
157.229827
 20
71.614982
 30
0.0
 10
156.963734
 20
71.449642
 30
0.0
 10
156.280148
 20
71.024886
 30
0.0
 10
155.369764
 20
69.673429
 30
0.0
 10
154.698622
 20
68.584671
 30
0.0
 10
154.281872
 20
67.908600
 30
0.0
 11
157.229827
 21
71.614982
 31
0.0
 11
156.466173
 21
71.080959
 31
0.0
 11
155.556067
 21
69.936712
 31
0.0
 11
154.281872
 21
67.908600
 31
0.0
  0
LINE
  5
1b0
100
AcDbEntity
  8
Capa_1
 62
7
100
AcDbLine
 10
154.612145
 20
72.911539
 30
0.0
 11
154.045482
 21
73.081319
 31
0.0
  0
LINE
  5
1b1
100
AcDbEntity
  8
Capa_1
 62
7
100
AcDbLine
 10
154.045482
 20
73.081319
 30
0.0
 11
153.344437
 21
73.711605
 31
0.0
  0
LINE
  5
1b2
100
AcDbEntity
  8
Capa_1
 62
7
100
AcDbLine
 10
153.344437
 20
73.711605
 30
0.0
 11
152.643405
 21
74.341901
 31
0.0
  0
LINE
  5
1b3
100
AcDbEntity
  8
Capa_1
 62
7
100
AcDbLine
 10
152.643405
 20
74.341901
 30
0.0
 11
152.316524
 21
75.088167
 31
0.0
  0
LINE
  5
1b4
100
AcDbEntity
  8
Capa_1
 62
7
100
AcDbLine
 10
152.316524
 20
75.088167
 30
0.0
 11
151.989626
 21
75.834433
 31
0.0
  0
LINE
  5
1b5
100
AcDbEntity
  8
Capa_1
 62
7
100
AcDbLine
 10
151.989626
 20
75.834433
 30
0.0
 11
151.979325
 21
76.823913
 31
0.0
  0
LINE
  5
1b6
100
AcDbEntity
  8
Capa_1
 62
7
100
AcDbLine
 10
151.979325
 20
76.823913
 30
0.0
 11
151.969024
 21
77.813392
 31
0.0
  0
LINE
  5
1b7
100
AcDbEntity
  8
Capa_1
 62
7
100
AcDbLine
 10
151.969024
 20
77.813392
 30
0.0
 11
152.372830
 21
78.635748
 31
0.0
  0
LINE
  5
1b8
100
AcDbEntity
  8
Capa_1
 62
7
100
AcDbLine
 10
152.372830
 20
78.635748
 30
0.0
 11
152.776637
 21
79.458104
 31
0.0
  0
LINE
  5
1b9
100
AcDbEntity
  8
Capa_1
 62
7
100
AcDbLine
 10
152.776637
 20
79.458104
 30
0.0
 11
153.429989
 21
79.932249
 31
0.0
  0
SPLINE
  5
1ba
100
AcDbEntity
  8
Capa_1
 62
7
100
AcDbSpline
 70
0
 71
3
 72
13
 73
9
 74
7
 40
0.000000
 40
0.000000
 40
0.000000
 40
0.000000
 40
0.702533
 40
1.226559
 40
1.467935
 40
1.623478
 40
1.881464
 40
2.195383
 40
2.195383
 40
2.195383
 40
2.195383
 10
154.346170
 20
71.421666
 30
0.0
 10
154.513182
 20
71.594551
 30
0.0
 10
154.804771
 20
71.896393
 30
0.0
 10
155.064051
 20
72.248975
 30
0.0
 10
155.307124
 20
72.557397
 30
0.0
 10
155.098835
 20
72.708981
 30
0.0
 10
154.895695
 20
72.815072
 30
0.0
 10
154.712630
 20
72.877353
 30
0.0
 10
154.612145
 20
72.911539
 30
0.0
 11
154.346170
 21
71.421666
 31
0.0
 11
154.822621
 21
71.937948
 31
0.0
 11
155.145299
 21
72.350843
 31
0.0
 11
155.244351
 21
72.570959
 31
0.0
 11
155.133686
 21
72.680261
 31
0.0
 11
154.906561
 21
72.802616
 31
0.0
 11
154.612145
 21
72.911539
 31
0.0
  0
LINE
  5
1bb
100
AcDbEntity
  8
Capa_1
 62
7
100
AcDbLine
 10
154.793112
 20
80.653778
 30
0.0
 11
155.502892
 21
80.901174
 31
0.0
  0
LINE
  5
1bc
100
AcDbEntity
  8
Capa_1
 62
7
100
AcDbLine
 10
155.502892
 20
80.901174
 30
0.0
 11
158.718701
 21
80.960955
 31
0.0
  0
LINE
  5
1bd
100
AcDbEntity
  8
Capa_1
 62
7
100
AcDbLine
 10
158.718701
 20
80.960955
 30
0.0
 11
161.934508
 21
81.020735
 31
0.0
  0
LINE
  5
1be
100
AcDbEntity
  8
Capa_1
 62
7
100
AcDbLine
 10
161.934508
 20
81.020735
 30
0.0
 11
161.934508
 21
73.232824
 31
0.0
  0
LINE
  5
1bf
100
AcDbEntity
  8
Capa_1
 62
7
100
AcDbLine
 10
161.934508
 20
73.232824
 30
0.0
 11
161.934508
 21
65.444910
 31
0.0
  0
LINE
  5
1c0
100
AcDbEntity
  8
Capa_1
 62
7
100
AcDbLine
 10
161.934508
 20
65.444910
 30
0.0
 11
160.803677
 21
65.444910
 31
0.0
  0
LINE
  5
1c1
100
AcDbEntity
  8
Capa_1
 62
7
100
AcDbLine
 10
160.803677
 20
65.444910
 30
0.0
 11
159.672841
 21
65.444910
 31
0.0
  0
LINE
  5
1c2
100
AcDbEntity
  8
Capa_1
 62
7
100
AcDbLine
 10
159.672841
 20
65.444910
 30
0.0
 11
159.672841
 21
68.625382
 31
0.0
  0
LINE
  5
1c3
100
AcDbEntity
  8
Capa_1
 62
7
100
AcDbLine
 10
159.672841
 20
68.625382
 30
0.0
 11
159.672725
 21
68.625368
 31
0.0
  0
SPLINE
  5
1c4
100
AcDbEntity
  8
Capa_1
 62
7
100
AcDbSpline
 70
0
 71
3
 72
10
 73
6
 74
4
 40
0.000000
 40
0.000000
 40
0.000000
 40
0.000000
 40
0.506133
 40
1.060221
 40
1.545800
 40
1.545800
 40
1.545800
 40
1.545800
 10
153.429989
 20
79.932249
 30
0.0
 10
153.570743
 20
80.025342
 30
0.0
 10
153.865586
 20
80.220347
 30
0.0
 10
154.321728
 20
80.462793
 30
0.0
 10
154.643041
 20
80.592976
 30
0.0
 10
154.793112
 20
80.653778
 30
0.0
 11
153.429989
 21
79.932249
 31
0.0
 11
153.856355
 21
80.204982
 31
0.0
 11
154.346069
 21
80.464199
 31
0.0
 11
154.793112
 21
80.653778
 31
0.0
  0
LINE
  5
1c5
100
AcDbEntity
  8
Capa_1
 62
7
100
AcDbLine
 10
148.189066
 20
73.360735
 30
0.0
 11
148.152358
 21
81.205892
 31
0.0
  0
LINE
  5
1c6
100
AcDbEntity
  8
Capa_1
 62
7
100
AcDbLine
 10
148.152358
 20
81.205892
 30
0.0
 11
144.830532
 21
81.205892
 31
0.0
  0
LINE
  5
1c7
100
AcDbEntity
  8
Capa_1
 62
7
100
AcDbLine
 10
144.830532
 20
81.205892
 30
0.0
 11
141.508708
 21
81.205892
 31
0.0
  0
LINE
  5
1c8
100
AcDbEntity
  8
Capa_1
 62
7
100
AcDbLine
 10
141.508708
 20
81.205892
 30
0.0
 11
140.728488
 21
80.964036
 31
0.0
  0
SPLINE
  5
1c9
100
AcDbEntity
  8
Capa_1
 62
7
100
AcDbSpline
 70
0
 71
3
 72
10
 73
6
 74
4
 40
0.000000
 40
0.000000
 40
0.000000
 40
0.000000
 40
1.164441
 40
4.046388
 40
8.022250
 40
8.022250
 40
8.022250
 40
8.022250
 10
148.158166
 20
65.338879
 30
0.0
 10
148.169036
 20
65.726887
 30
0.0
 10
148.206811
 20
67.075201
 30
0.0
 10
148.195943
 20
69.749638
 30
0.0
 10
148.191590
 20
72.035494
 30
0.0
 10
148.189066
 20
73.360735
 30
0.0
 11
148.158166
 21
65.338879
 31
0.0
 11
148.187195
 21
66.502959
 31
0.0
 11
148.198297
 21
69.384884
 31
0.0
 11
148.189066
 21
73.360735
 31
0.0
  0
LINE
  5
1ca
100
AcDbEntity
  8
Capa_1
 62
7
100
AcDbLine
 10
137.544330
 20
77.812119
 30
0.0
 11
137.302231
 21
76.979330
 31
0.0
  0
LINE
  5
1cb
100
AcDbEntity
  8
Capa_1
 62
7
100
AcDbLine
 10
137.302231
 20
76.979330
 30
0.0
 11
137.378790
 21
75.862562
 31
0.0
  0
LINE
  5
1cc
100
AcDbEntity
  8
Capa_1
 62
7
100
AcDbLine
 10
137.378790
 20
75.862562
 30
0.0
 11
137.455334
 21
74.745778
 31
0.0
  0
LINE
  5
1cd
100
AcDbEntity
  8
Capa_1
 62
7
100
AcDbLine
 10
137.455334
 20
74.745778
 30
0.0
 11
137.893148
 21
73.856433
 31
0.0
  0
LINE
  5
1ce
100
AcDbEntity
  8
Capa_1
 62
7
100
AcDbLine
 10
137.893148
 20
73.856433
 30
0.0
 11
138.330979
 21
72.967092
 31
0.0
  0
LINE
  5
1cf
100
AcDbEntity
  8
Capa_1
 62
7
100
AcDbLine
 10
138.330979
 20
72.967092
 30
0.0
 11
138.912919
 21
72.441337
 31
0.0
  0
SPLINE
  5
1d0
100
AcDbEntity
  8
Capa_1
 62
7
100
AcDbSpline
 70
0
 71
3
 72
10
 73
6
 74
4
 40
0.000000
 40
0.000000
 40
0.000000
 40
0.000000
 40
1.617810
 40
3.111222
 40
4.666490
 40
4.666490
 40
4.666490
 40
4.666490
 10
140.728488
 20
80.964036
 30
0.0
 10
140.222998
 20
80.766417
 30
0.0
 10
139.250886
 20
80.386374
 30
0.0
 10
138.097249
 20
79.257601
 30
0.0
 10
137.731112
 20
78.300420
 30
0.0
 10
137.544330
 20
77.812119
 30
0.0
 11
140.728488
 21
80.964036
 31
0.0
 11
139.266898
 21
80.270450
 31
0.0
 11
138.205536
 21
79.219835
 31
0.0
 11
137.544330
 21
77.812119
 31
0.0
  0
LINE
  5
1d1
100
AcDbEntity
  8
Capa_1
 62
7
100
AcDbLine
 10
140.431108
 20
71.475550
 30
0.0
 11
141.367354
 21
71.035529
 31
0.0
  0
LINE
  5
1d2
100
AcDbEntity
  8
Capa_1
 62
7
100
AcDbLine
 10
141.367354
 20
71.035529
 30
0.0
 11
143.310974
 21
70.980569
 31
0.0
  0
LINE
  5
1d3
100
AcDbEntity
  8
Capa_1
 62
7
100
AcDbLine
 10
143.310974
 20
70.980569
 30
0.0
 11
145.254596
 21
70.925626
 31
0.0
  0
LINE
  5
1d4
100
AcDbEntity
  8
Capa_1
 62
7
100
AcDbLine
 10
145.254596
 20
70.925626
 30
0.0
 11
145.254596
 21
68.043906
 31
0.0
  0
LINE
  5
1d5
100
AcDbEntity
  8
Capa_1
 62
7
100
AcDbLine
 10
145.254596
 20
68.043906
 30
0.0
 11
145.254596
 21
65.162188
 31
0.0
  0
LINE
  5
1d6
100
AcDbEntity
  8
Capa_1
 62
7
100
AcDbLine
 10
145.254596
 20
65.162188
 30
0.0
 11
146.672573
 21
65.162188
 31
0.0
  0
LINE
  5
1d7
100
AcDbEntity
  8
Capa_1
 62
7
100
AcDbLine
 10
146.672573
 20
65.162188
 30
0.0
 11
148.090557
 21
65.162188
 31
0.0
  0
LINE
  5
1d8
100
AcDbEntity
  8
Capa_1
 62
7
100
AcDbLine
 10
148.090557
 20
65.162188
 30
0.0
 11
148.158166
 21
65.338879
 31
0.0
  0
LINE
  5
1d9
100
AcDbEntity
  8
Capa_1
 62
7
100
AcDbLine
 10
145.537301
 20
68.342658
 30
0.0
 11
145.537301
 21
71.240420
 31
0.0
  0
LINE
  5
1da
100
AcDbEntity
  8
Capa_1
 62
7
100
AcDbLine
 10
145.537301
 20
71.240420
 30
0.0
 11
144.060037
 21
71.240420
 31
0.0
  0
SPLINE
  5
1db
100
AcDbEntity
  8
Capa_1
 62
7
100
AcDbSpline
 70
0
 71
3
 72
10
 73
6
 74
4
 40
0.000000
 40
0.000000
 40
0.000000
 40
0.000000
 40
0.532267
 40
1.178695
 40
1.803382
 40
1.803382
 40
1.803382
 40
1.803382
 10
138.912919
 20
72.441337
 30
0.0
 10
139.051581
 20
72.330501
 30
0.0
 10
139.358646
 20
72.085055
 30
0.0
 10
139.869268
 20
71.764929
 30
0.0
 10
140.245976
 20
71.570904
 30
0.0
 10
140.431108
 20
71.475550
 30
0.0
 11
138.912919
 21
72.441337
 31
0.0
 11
139.334346
 21
72.116211
 31
0.0
 11
139.879768
 21
71.769246
 31
0.0
 11
140.431108
 21
71.475550
 31
0.0
  0
LINE
  5
1dc
100
AcDbEntity
  8
Capa_1
 62
7
100
AcDbLine
 10
139.092087
 20
72.864919
 30
0.0
 11
138.371718
 21
73.581526
 31
0.0
  0
LINE
  5
1dd
100
AcDbEntity
  8
Capa_1
 62
7
100
AcDbLine
 10
138.371718
 20
73.581526
 30
0.0
 11
138.067268
 21
74.395232
 31
0.0
  0
LINE
  5
1de
100
AcDbEntity
  8
Capa_1
 62
7
100
AcDbLine
 10
138.067268
 20
74.395232
 30
0.0
 11
137.762821
 21
75.208941
 31
0.0
  0
LINE
  5
1df
100
AcDbEntity
  8
Capa_1
 62
7
100
AcDbLine
 10
137.762821
 20
75.208941
 30
0.0
 11
137.762934
 21
76.369811
 31
0.0
  0
LINE
  5
1e0
100
AcDbEntity
  8
Capa_1
 62
7
100
AcDbLine
 10
137.762934
 20
76.369811
 30
0.0
 11
137.763047
 21
77.530679
 31
0.0
  0
LINE
  5
1e1
100
AcDbEntity
  8
Capa_1
 62
7
100
AcDbLine
 10
137.763047
 20
77.530679
 30
0.0
 11
138.167149
 21
78.384884
 31
0.0
  0
LINE
  5
1e2
100
AcDbEntity
  8
Capa_1
 62
7
100
AcDbLine
 10
138.167149
 20
78.384884
 30
0.0
 11
138.571269
 21
79.239086
 31
0.0
  0
LINE
  5
1e3
100
AcDbEntity
  8
Capa_1
 62
7
100
AcDbLine
 10
138.571269
 20
79.239086
 30
0.0
 11
139.050502
 21
79.644323
 31
0.0
  0
SPLINE
  5
1e4
100
AcDbEntity
  8
Capa_1
 62
7
100
AcDbSpline
 70
0
 71
3
 72
10
 73
6
 74
4
 40
0.000000
 40
0.000000
 40
0.000000
 40
0.000000
 40
2.130233
 40
3.778408
 40
5.376239
 40
5.376239
 40
5.376239
 40
5.376239
 10
144.060037
 20
71.240420
 30
0.0
 10
143.349945
 20
71.255660
 30
0.0
 10
142.090450
 20
71.282692
 30
0.0
 10
140.322595
 20
71.793575
 30
0.0
 10
139.497993
 20
72.511516
 30
0.0
 10
139.092087
 20
72.864919
 30
0.0
 11
144.060037
 21
71.240420
 31
0.0
 11
141.935180
 21
71.391675
 31
0.0
 11
140.368631
 21
71.903930
 31
0.0
 11
139.092087
 21
72.864919
 31
0.0
  0
LINE
  5
1e5
100
AcDbEntity
  8
Capa_1
 62
7
100
AcDbLine
 10
145.289933
 20
80.992786
 30
0.0
 11
147.798970
 21
80.994197
 31
0.0
  0
LINE
  5
1e6
100
AcDbEntity
  8
Capa_1
 62
7
100
AcDbLine
 10
147.798970
 20
80.994197
 30
0.0
 11
147.798970
 21
73.219715
 31
0.0
  0
LINE
  5
1e7
100
AcDbEntity
  8
Capa_1
 62
7
100
AcDbLine
 10
147.798970
 20
73.219715
 30
0.0
 11
147.798970
 21
65.445235
 31
0.0
  0
LINE
  5
1e8
100
AcDbEntity
  8
Capa_1
 62
7
100
AcDbLine
 10
147.798970
 20
65.445235
 30
0.0
 11
146.668137
 21
65.445235
 31
0.0
  0
LINE
  5
1e9
100
AcDbEntity
  8
Capa_1
 62
7
100
AcDbLine
 10
146.668137
 20
65.445235
 30
0.0
 11
145.537301
 21
65.445235
 31
0.0
  0
LINE
  5
1ea
100
AcDbEntity
  8
Capa_1
 62
7
100
AcDbLine
 10
145.537301
 20
65.445235
 30
0.0
 11
145.537301
 21
68.342997
 31
0.0
  0
LINE
  5
1eb
100
AcDbEntity
  8
Capa_1
 62
7
100
AcDbLine
 10
145.537301
 20
68.342997
 30
0.0
 11
145.537301
 21
68.342658
 31
0.0
  0
LINE
  5
1ec
100
AcDbEntity
  8
Capa_1
 62
7
100
AcDbLine
 10
135.218446
 20
70.957712
 30
0.0
 11
135.218446
 21
76.753236
 31
0.0
  0
LINE
  5
1ed
100
AcDbEntity
  8
Capa_1
 62
7
100
AcDbLine
 10
135.218446
 20
76.753236
 30
0.0
 11
133.804902
 21
76.753236
 31
0.0
  0
LINE
  5
1ee
100
AcDbEntity
  8
Capa_1
 62
7
100
AcDbLine
 10
133.804902
 20
76.753236
 30
0.0
 11
132.391361
 21
76.753236
 31
0.0
  0
LINE
  5
1ef
100
AcDbEntity
  8
Capa_1
 62
7
100
AcDbLine
 10
132.391361
 20
76.753236
 30
0.0
 11
132.391361
 21
70.957712
 31
0.0
  0
LINE
  5
1f0
100
AcDbEntity
  8
Capa_1
 62
7
100
AcDbLine
 10
132.391361
 20
70.957712
 30
0.0
 11
132.391361
 21
65.162188
 31
0.0
  0
LINE
  5
1f1
100
AcDbEntity
  8
Capa_1
 62
7
100
AcDbLine
 10
132.391361
 20
65.162188
 30
0.0
 11
133.804902
 21
65.162188
 31
0.0
  0
LINE
  5
1f2
100
AcDbEntity
  8
Capa_1
 62
7
100
AcDbLine
 10
133.804902
 20
65.162188
 30
0.0
 11
135.218446
 21
65.162188
 31
0.0
  0
LINE
  5
1f3
100
AcDbEntity
  8
Capa_1
 62
7
100
AcDbLine
 10
135.218446
 20
65.162188
 30
0.0
 11
135.218446
 21
70.957712
 31
0.0
  0
LINE
  5
1f4
100
AcDbEntity
  8
Capa_1
 62
7
100
AcDbLine
 10
132.674069
 20
70.957712
 30
0.0
 11
132.674069
 21
76.470525
 31
0.0
  0
LINE
  5
1f5
100
AcDbEntity
  8
Capa_1
 62
7
100
AcDbLine
 10
132.674069
 20
76.470525
 30
0.0
 11
133.804902
 21
76.470525
 31
0.0
  0
LINE
  5
1f6
100
AcDbEntity
  8
Capa_1
 62
7
100
AcDbLine
 10
133.804902
 20
76.470525
 30
0.0
 11
134.935736
 21
76.470525
 31
0.0
  0
LINE
  5
1f7
100
AcDbEntity
  8
Capa_1
 62
7
100
AcDbLine
 10
134.935736
 20
76.470525
 30
0.0
 11
134.935736
 21
70.957712
 31
0.0
  0
LINE
  5
1f8
100
AcDbEntity
  8
Capa_1
 62
7
100
AcDbLine
 10
134.935736
 20
70.957712
 30
0.0
 11
134.935736
 21
65.444896
 31
0.0
  0
LINE
  5
1f9
100
AcDbEntity
  8
Capa_1
 62
7
100
AcDbLine
 10
134.935736
 20
65.444896
 30
0.0
 11
133.804902
 21
65.444896
 31
0.0
  0
LINE
  5
1fa
100
AcDbEntity
  8
Capa_1
 62
7
100
AcDbLine
 10
133.804902
 20
65.444896
 30
0.0
 11
132.674069
 21
65.444896
 31
0.0
  0
LINE
  5
1fb
100
AcDbEntity
  8
Capa_1
 62
7
100
AcDbLine
 10
132.674069
 20
65.444896
 30
0.0
 11
132.674069
 21
70.957712
 31
0.0
  0
LINE
  5
1fc
100
AcDbEntity
  8
Capa_1
 62
7
100
AcDbLine
 10
119.952194
 20
73.225145
 30
0.0
 11
119.952194
 21
81.297998
 31
0.0
  0
LINE
  5
1fd
100
AcDbEntity
  8
Capa_1
 62
7
100
AcDbLine
 10
119.952194
 20
81.297998
 30
0.0
 11
116.382997
 21
81.247167
 31
0.0
  0
LINE
  5
1fe
100
AcDbEntity
  8
Capa_1
 62
7
100
AcDbLine
 10
116.382997
 20
81.247167
 30
0.0
 11
112.813803
 21
81.196334
 31
0.0
  0
LINE
  5
1ff
100
AcDbEntity
  8
Capa_1
 62
7
100
AcDbLine
 10
112.813803
 20
81.196334
 30
0.0
 11
111.999378
 21
80.872294
 31
0.0
  0
LINE
  5
200
100
AcDbEntity
  8
Capa_1
 62
7
100
AcDbLine
 10
111.999378
 20
80.872294
 30
0.0
 11
111.184963
 21
80.548269
 31
0.0
  0
LINE
  5
201
100
AcDbEntity
  8
Capa_1
 62
7
100
AcDbLine
 10
111.184963
 20
80.548269
 30
0.0
 11
110.504387
 21
79.885358
 31
0.0
  0
LINE
  5
202
100
AcDbEntity
  8
Capa_1
 62
7
100
AcDbLine
 10
110.504387
 20
79.885358
 30
0.0
 11
109.823823
 21
79.222463
 31
0.0
  0
LINE
  5
203
100
AcDbEntity
  8
Capa_1
 62
7
100
AcDbLine
 10
109.823823
 20
79.222463
 30
0.0
 11
109.587224
 21
78.528089
 31
0.0
  0
LINE
  5
204
100
AcDbEntity
  8
Capa_1
 62
7
100
AcDbLine
 10
109.587224
 20
78.528089
 30
0.0
 11
109.350623
 21
77.833704
 31
0.0
  0
LINE
  5
205
100
AcDbEntity
  8
Capa_1
 62
7
100
AcDbLine
 10
109.350623
 20
77.833704
 30
0.0
 11
109.350623
 21
76.823913
 31
0.0
  0
LINE
  5
206
100
AcDbEntity
  8
Capa_1
 62
7
100
AcDbLine
 10
109.350623
 20
76.823913
 30
0.0
 11
109.350623
 21
75.814119
 31
0.0
  0
LINE
  5
207
100
AcDbEntity
  8
Capa_1
 62
7
100
AcDbLine
 10
109.350623
 20
75.814119
 30
0.0
 11
109.575662
 21
75.153657
 31
0.0
  0
LINE
  5
208
100
AcDbEntity
  8
Capa_1
 62
7
100
AcDbLine
 10
109.575662
 20
75.153657
 30
0.0
 11
109.800697
 21
74.493209
 31
0.0
  0
LINE
  5
209
100
AcDbEntity
  8
Capa_1
 62
7
100
AcDbLine
 10
109.800697
 20
74.493209
 30
0.0
 11
110.426909
 21
73.796712
 31
0.0
  0
LINE
  5
20a
100
AcDbEntity
  8
Capa_1
 62
7
100
AcDbLine
 10
110.426909
 20
73.796712
 30
0.0
 11
111.053109
 21
73.100219
 31
0.0
  0
LINE
  5
20b
100
AcDbEntity
  8
Capa_1
 62
7
100
AcDbLine
 10
111.053109
 20
73.100219
 30
0.0
 11
111.721434
 21
72.783540
 31
0.0
  0
SPLINE
  5
20c
100
AcDbEntity
  8
Capa_1
 62
7
100
AcDbSpline
 70
0
 71
3
 72
10
 73
6
 74
4
 40
0.000000
 40
0.000000
 40
0.000000
 40
0.000000
 40
1.589624
 40
3.555937
 40
6.511744
 40
6.511744
 40
6.511744
 40
6.511744
 10
139.050502
 20
79.644323
 30
0.0
 10
139.490746
 20
79.950038
 30
0.0
 10
140.475557
 20
80.633914
 30
0.0
 10
142.675369
 20
80.962653
 30
0.0
 10
144.308946
 20
80.981480
 30
0.0
 10
145.289933
 20
80.992786
 30
0.0
 11
139.050502
 21
79.644323
 31
0.0
 11
140.414492
 21
80.460679
 31
0.0
 11
142.336432
 21
80.876048
 31
0.0
 11
145.289933
 21
80.992786
 31
0.0
  0
LINE
  5
20d
100
AcDbEntity
  8
Capa_1
 62
7
100
AcDbLine
 10
107.513571
 20
65.334400
 30
0.0
 11
107.513571
 21
65.153211
 31
0.0
  0
LINE
  5
20e
100
AcDbEntity
  8
Capa_1
 62
7
100
AcDbLine
 10
107.513571
 20
65.153211
 30
0.0
 11
109.163516
 21
65.193047
 31
0.0
  0
LINE
  5
20f
100
AcDbEntity
  8
Capa_1
 62
7
100
AcDbLine
 10
109.163516
 20
65.193047
 30
0.0
 11
110.813472
 21
65.232865
 31
0.0
  0
LINE
  5
210
100
AcDbEntity
  8
Capa_1
 62
7
100
AcDbLine
 10
110.813472
 20
65.232865
 30
0.0
 11
112.246974
 21
67.588013
 31
0.0
  0
SPLINE
  5
211
100
AcDbEntity
  8
Capa_1
 62
7
100
AcDbSpline
 70
0
 71
3
 72
19
 73
15
 74
13
 40
0.000000
 40
0.000000
 40
0.000000
 40
0.000000
 40
0.381020
 40
0.669054
 40
0.801858
 40
0.893684
 40
1.132346
 40
1.469961
 40
1.930555
 40
2.493152
 40
3.037838
 40
5.322858
 40
8.055394
 40
9.471255
 40
9.471255
 40
9.471255
 40
9.471255
 10
111.721434
 20
72.783540
 30
0.0
 10
111.841636
 20
72.730394
 30
0.0
 10
112.052705
 20
72.637071
 30
0.0
 10
112.242466
 20
72.505150
 30
0.0
 10
112.477840
 20
72.450046
 30
0.0
 10
112.355787
 20
72.294784
 30
0.0
 10
112.216268
 20
72.154893
 30
0.0
 10
111.949306
 20
71.916321
 30
0.0
 10
111.629297
 20
71.601607
 30
0.0
 10
111.282344
 20
71.207875
 30
0.0
 10
110.582386
 20
70.320144
 30
0.0
 10
109.594459
 20
68.747034
 30
0.0
 10
108.410715
 20
66.958471
 30
0.0
 10
107.741855
 20
65.747655
 30
0.0
 10
107.513571
 20
65.334400
 30
0.0
 11
111.721434
 21
72.783540
 31
0.0
 11
112.064936
 21
72.618669
 31
0.0
 11
112.323059
 21
72.490855
 31
0.0
 11
112.439921
 21
72.427768
 31
0.0
 11
112.395864
 21
72.347201
 31
0.0
 11
112.232125
 21
72.173566
 31
0.0
 11
111.984155
 21
71.944448
 31
0.0
 11
111.656161
 21
71.621081
 31
0.0
 11
111.282655
 21
71.200357
 31
0.0
 11
110.944493
 21
70.773356
 31
0.0
 11
109.667298
 21
68.878604
 31
0.0
 11
108.209424
 21
66.567466
 31
0.0
 11
107.513571
 21
65.334400
 31
0.0
  0
LINE
  5
212
100
AcDbEntity
  8
Capa_1
 62
7
100
AcDbLine
 10
115.059612
 20
71.252705
 30
0.0
 11
115.641439
 21
71.516921
 31
0.0
  0
LINE
  5
213
100
AcDbEntity
  8
Capa_1
 62
7
100
AcDbLine
 10
115.641439
 20
71.516921
 30
0.0
 11
116.310173
 21
71.520054
 31
0.0
  0
LINE
  5
214
100
AcDbEntity
  8
Capa_1
 62
7
100
AcDbLine
 10
116.310173
 20
71.520054
 30
0.0
 11
116.978907
 21
71.523187
 31
0.0
  0
LINE
  5
215
100
AcDbEntity
  8
Capa_1
 62
7
100
AcDbLine
 10
116.978907
 20
71.523187
 30
0.0
 11
117.016942
 21
68.378057
 31
0.0
  0
LINE
  5
216
100
AcDbEntity
  8
Capa_1
 62
7
100
AcDbLine
 10
117.016942
 20
68.378057
 30
0.0
 11
117.054982
 21
65.232925
 31
0.0
  0
LINE
  5
217
100
AcDbEntity
  8
Capa_1
 62
7
100
AcDbLine
 10
117.054982
 20
65.232925
 30
0.0
 11
118.503863
 21
65.192637
 31
0.0
  0
LINE
  5
218
100
AcDbEntity
  8
Capa_1
 62
7
100
AcDbLine
 10
118.503863
 20
65.192637
 30
0.0
 11
119.952741
 21
65.152350
 31
0.0
  0
LINE
  5
219
100
AcDbEntity
  8
Capa_1
 62
7
100
AcDbLine
 10
119.952741
 20
65.152350
 30
0.0
 11
119.952741
 21
73.225204
 31
0.0
  0
LINE
  5
21a
100
AcDbEntity
  8
Capa_1
 62
7
100
AcDbLine
 10
119.952741
 20
73.225204
 30
0.0
 11
119.952194
 21
73.225145
 31
0.0
  0
LINE
  5
21b
100
AcDbEntity
  8
Capa_1
 62
7
100
AcDbLine
 10
117.407817
 20
68.625366
 30
0.0
 11
117.407817
 21
71.805832
 31
0.0
  0
LINE
  5
21c
100
AcDbEntity
  8
Capa_1
 62
7
100
AcDbLine
 10
117.407817
 20
71.805832
 30
0.0
 11
116.392285
 21
71.805832
 31
0.0
  0
LINE
  5
21d
100
AcDbEntity
  8
Capa_1
 62
7
100
AcDbLine
 10
116.392285
 20
71.805832
 30
0.0
 11
115.376757
 21
71.805832
 31
0.0
  0
LINE
  5
21e
100
AcDbEntity
  8
Capa_1
 62
7
100
AcDbLine
 10
115.376757
 20
71.805832
 30
0.0
 11
114.769778
 21
71.512002
 31
0.0
  0
SPLINE
  5
21f
100
AcDbEntity
  8
Capa_1
 62
7
100
AcDbSpline
 70
0
 71
3
 72
10
 73
6
 74
4
 40
0.000000
 40
0.000000
 40
0.000000
 40
0.000000
 40
2.582082
 40
3.887551
 40
4.671818
 40
4.671818
 40
4.671818
 40
4.671818
 10
112.246974
 20
67.588013
 30
0.0
 10
112.699852
 20
68.312528
 30
0.0
 10
113.381700
 20
69.403349
 30
0.0
 10
114.226771
 20
70.758723
 30
0.0
 10
114.832344
 20
71.117905
 30
0.0
 10
115.059612
 20
71.252705
 30
0.0
 11
112.246974
 21
67.588013
 31
0.0
 11
113.615031
 21
69.777891
 31
0.0
 11
114.409860
 21
70.813506
 31
0.0
 11
115.059612
 21
71.252705
 31
0.0
  0
LINE
  5
220
100
AcDbEntity
  8
Capa_1
 62
7
100
AcDbLine
 10
110.553861
 20
65.615720
 30
0.0
 11
110.388959
 21
65.433175
 31
0.0
  0
LINE
  5
221
100
AcDbEntity
  8
Capa_1
 62
7
100
AcDbLine
 10
110.388959
 20
65.433175
 30
0.0
 11
109.179557
 21
65.474366
 31
0.0
  0
LINE
  5
222
100
AcDbEntity
  8
Capa_1
 62
7
100
AcDbLine
 10
109.179557
 20
65.474366
 30
0.0
 11
107.970148
 21
65.515573
 31
0.0
  0
LINE
  5
223
100
AcDbEntity
  8
Capa_1
 62
7
100
AcDbLine
 10
107.970148
 20
65.515573
 30
0.0
 11
109.331811
 21
67.641386
 31
0.0
  0
SPLINE
  5
224
100
AcDbEntity
  8
Capa_1
 62
7
100
AcDbSpline
 70
0
 71
3
 72
13
 73
9
 74
7
 40
0.000000
 40
0.000000
 40
0.000000
 40
0.000000
 40
0.827700
 40
2.103813
 40
4.509771
 40
5.830941
 40
6.836520
 40
7.309164
 40
7.309164
 40
7.309164
 40
7.309164
 10
114.769778
 20
71.512002
 30
0.0
 10
114.531612
 20
71.367313
 30
0.0
 10
113.926250
 20
70.999549
 30
0.0
 10
113.092883
 20
69.706757
 30
0.0
 10
112.225119
 20
68.301038
 30
0.0
 10
111.405540
 20
66.950049
 30
0.0
 10
110.919653
 20
66.153484
 30
0.0
 10
110.642483
 20
65.746006
 30
0.0
 10
110.553861
 20
65.615720
 30
0.0
 11
114.769778
 21
71.512002
 31
0.0
 11
114.088805
 21
71.041511
 31
0.0
 11
113.306689
 21
70.033166
 31
0.0
 11
112.037387
 21
67.989270
 31
0.0
 11
111.350592
 21
66.860643
 31
0.0
 11
110.817621
 21
66.007922
 31
0.0
 11
110.553861
 21
65.615720
 31
0.0
  0
LINE
  5
225
100
AcDbEntity
  8
Capa_1
 62
7
100
AcDbLine
 10
112.190064
 20
72.978765
 30
0.0
 11
111.354294
 21
73.362386
 31
0.0
  0
LINE
  5
226
100
AcDbEntity
  8
Capa_1
 62
7
100
AcDbLine
 10
111.354294
 20
73.362386
 30
0.0
 11
110.707246
 21
74.082064
 31
0.0
  0
LINE
  5
227
100
AcDbEntity
  8
Capa_1
 62
7
100
AcDbLine
 10
110.707246
 20
74.082064
 30
0.0
 11
110.060195
 21
74.801740
 31
0.0
  0
LINE
  5
228
100
AcDbEntity
  8
Capa_1
 62
7
100
AcDbLine
 10
110.060195
 20
74.801740
 30
0.0
 11
109.846764
 21
75.520441
 31
0.0
  0
SPLINE
  5
229
100
AcDbEntity
  8
Capa_1
 62
7
100
AcDbSpline
 70
0
 71
3
 72
16
 73
12
 74
10
 40
0.000000
 40
0.000000
 40
0.000000
 40
0.000000
 40
2.623656
 40
4.116113
 40
5.127890
 40
5.567894
 40
5.909722
 40
6.085242
 40
6.258107
 40
6.614868
 40
7.087188
 40
7.087188
 40
7.087188
 40
7.087188
 10
109.331811
 20
67.641386
 30
0.0
 10
109.804840
 20
68.375077
 30
0.0
 10
110.546949
 20
69.526124
 30
0.0
 10
111.522140
 20
70.944686
 30
0.0
 10
112.223987
 20
71.621980
 30
0.0
 10
112.692775
 20
72.017993
 30
0.0
 10
112.885514
 20
72.235720
 30
0.0
 10
113.079030
 20
72.446541
 30
0.0
 10
112.846602
 20
72.622871
 30
0.0
 10
112.588873
 20
72.785472
 30
0.0
 10
112.334805
 20
72.908613
 30
0.0
 10
112.190064
 20
72.978765
 30
0.0
 11
109.331811
 21
67.641386
 31
0.0
 11
110.767421
 21
69.837427
 31
0.0
 11
111.656431
 21
71.036214
 31
0.0
 11
112.376494
 21
71.746989
 31
0.0
 11
112.703567
 21
72.041312
 31
0.0
 11
112.936850
 21
72.291164
 31
0.0
 11
113.025834
 21
72.442455
 31
0.0
 11
112.911302
 21
72.571933
 31
0.0
 11
112.611043
 21
72.764606
 31
0.0
 11
112.190064
 21
72.978765
 31
0.0
  0
LINE
  5
22a
100
AcDbEntity
  8
Capa_1
 62
7
100
AcDbLine
 10
113.115792
 20
80.783397
 30
0.0
 11
114.085991
 21
80.988957
 31
0.0
  0
LINE
  5
22b
100
AcDbEntity
  8
Capa_1
 62
7
100
AcDbLine
 10
114.085991
 20
80.988957
 30
0.0
 11
116.877738
 21
80.991214
 31
0.0
  0
LINE
  5
22c
100
AcDbEntity
  8
Capa_1
 62
7
100
AcDbLine
 10
116.877738
 20
80.991214
 30
0.0
 11
119.669484
 21
80.993472
 31
0.0
  0
LINE
  5
22d
100
AcDbEntity
  8
Capa_1
 62
7
100
AcDbLine
 10
119.669484
 20
80.993472
 30
0.0
 11
119.669484
 21
73.218987
 31
0.0
  0
LINE
  5
22e
100
AcDbEntity
  8
Capa_1
 62
7
100
AcDbLine
 10
119.669484
 20
73.218987
 30
0.0
 11
119.669484
 21
65.444507
 31
0.0
  0
LINE
  5
22f
100
AcDbEntity
  8
Capa_1
 62
7
100
AcDbLine
 10
119.669484
 20
65.444507
 30
0.0
 11
118.538650
 21
65.444507
 31
0.0
  0
LINE
  5
230
100
AcDbEntity
  8
Capa_1
 62
7
100
AcDbLine
 10
118.538650
 20
65.444507
 30
0.0
 11
117.407817
 21
65.444507
 31
0.0
  0
LINE
  5
231
100
AcDbEntity
  8
Capa_1
 62
7
100
AcDbLine
 10
117.407817
 20
65.444507
 30
0.0
 11
117.407817
 21
68.624976
 31
0.0
  0
LINE
  5
232
100
AcDbEntity
  8
Capa_1
 62
7
100
AcDbLine
 10
117.407817
 20
68.624976
 30
0.0
 11
117.407817
 21
68.625366
 31
0.0
  0
LINE
  5
233
100
AcDbEntity
  8
Capa_1
 62
7
100
AcDbLine
 10
105.816769
 20
73.217412
 30
0.0
 11
105.816769
 21
81.276566
 31
0.0
  0
LINE
  5
234
100
AcDbEntity
  8
Capa_1
 62
7
100
AcDbLine
 10
105.816769
 20
81.276566
 30
0.0
 11
101.434790
 21
81.276566
 31
0.0
  0
LINE
  5
235
100
AcDbEntity
  8
Capa_1
 62
7
100
AcDbLine
 10
101.434790
 20
81.276566
 30
0.0
 11
97.052807
 21
81.276566
 31
0.0
  0
LINE
  5
236
100
AcDbEntity
  8
Capa_1
 62
7
100
AcDbLine
 10
97.052807
 20
81.276566
 30
0.0
 11
97.052807
 21
80.004382
 31
0.0
  0
LINE
  5
237
100
AcDbEntity
  8
Capa_1
 62
7
100
AcDbLine
 10
97.052807
 20
80.004382
 30
0.0
 11
97.052807
 21
78.732195
 31
0.0
  0
LINE
  5
238
100
AcDbEntity
  8
Capa_1
 62
7
100
AcDbLine
 10
97.052807
 20
78.732195
 30
0.0
 11
100.021246
 21
78.732195
 31
0.0
  0
LINE
  5
239
100
AcDbEntity
  8
Capa_1
 62
7
100
AcDbLine
 10
100.021246
 20
78.732195
 30
0.0
 11
102.989685
 21
78.732195
 31
0.0
  0
LINE
  5
23a
100
AcDbEntity
  8
Capa_1
 62
7
100
AcDbLine
 10
102.989685
 20
78.732195
 30
0.0
 11
102.989685
 21
76.682559
 31
0.0
  0
LINE
  5
23b
100
AcDbEntity
  8
Capa_1
 62
7
100
AcDbLine
 10
102.989685
 20
76.682559
 30
0.0
 11
102.989685
 21
74.632920
 31
0.0
  0
LINE
  5
23c
100
AcDbEntity
  8
Capa_1
 62
7
100
AcDbLine
 10
102.989685
 20
74.632920
 30
0.0
 11
100.227782
 21
74.632920
 31
0.0
  0
LINE
  5
23d
100
AcDbEntity
  8
Capa_1
 62
7
100
AcDbLine
 10
100.227782
 20
74.632920
 30
0.0
 11
97.465862
 21
74.632920
 31
0.0
  0
LINE
  5
23e
100
AcDbEntity
  8
Capa_1
 62
7
100
AcDbLine
 10
97.465862
 20
74.632920
 30
0.0
 11
97.506705
 21
73.396073
 31
0.0
  0
LINE
  5
23f
100
AcDbEntity
  8
Capa_1
 62
7
100
AcDbLine
 10
97.506705
 20
73.396073
 30
0.0
 11
97.547548
 21
72.159222
 31
0.0
  0
LINE
  5
240
100
AcDbEntity
  8
Capa_1
 62
7
100
AcDbLine
 10
97.547548
 20
72.159222
 30
0.0
 11
100.268619
 21
72.120829
 31
0.0
  0
LINE
  5
241
100
AcDbEntity
  8
Capa_1
 62
7
100
AcDbLine
 10
100.268619
 20
72.120829
 30
0.0
 11
102.989685
 21
72.082438
 31
0.0
  0
LINE
  5
242
100
AcDbEntity
  8
Capa_1
 62
7
100
AcDbLine
 10
102.989685
 20
72.082438
 30
0.0
 11
102.989685
 21
69.897200
 31
0.0
  0
LINE
  5
243
100
AcDbEntity
  8
Capa_1
 62
7
100
AcDbLine
 10
102.989685
 20
69.897200
 30
0.0
 11
102.989685
 21
67.711979
 31
0.0
  0
LINE
  5
244
100
AcDbEntity
  8
Capa_1
 62
7
100
AcDbLine
 10
102.989685
 20
67.711979
 30
0.0
 11
99.844552
 21
67.673924
 31
0.0
  0
LINE
  5
245
100
AcDbEntity
  8
Capa_1
 62
7
100
AcDbLine
 10
99.844552
 20
67.673924
 30
0.0
 11
96.699422
 21
67.635889
 31
0.0
  0
LINE
  5
246
100
AcDbEntity
  8
Capa_1
 62
7
100
AcDbLine
 10
96.699422
 20
67.635889
 30
0.0
 11
96.699422
 21
66.434376
 31
0.0
  0
LINE
  5
247
100
AcDbEntity
  8
Capa_1
 62
7
100
AcDbLine
 10
96.699422
 20
66.434376
 30
0.0
 11
96.699422
 21
65.232865
 31
0.0
  0
LINE
  5
248
100
AcDbEntity
  8
Capa_1
 62
7
100
AcDbLine
 10
96.699422
 20
65.232865
 30
0.0
 11
101.258096
 21
65.195561
 31
0.0
  0
LINE
  5
249
100
AcDbEntity
  8
Capa_1
 62
7
100
AcDbLine
 10
101.258096
 20
65.195561
 30
0.0
 11
105.816769
 21
65.158274
 31
0.0
  0
LINE
  5
24a
100
AcDbEntity
  8
Capa_1
 62
7
100
AcDbLine
 10
105.816769
 20
65.158274
 30
0.0
 11
105.816769
 21
73.217412
 31
0.0
  0
LINE
  5
24b
100
AcDbEntity
  8
Capa_1
 62
7
100
AcDbLine
 10
97.052807
 20
66.434376
 30
0.0
 11
97.052807
 21
67.423855
 31
0.0
  0
LINE
  5
24c
100
AcDbEntity
  8
Capa_1
 62
7
100
AcDbLine
 10
97.052807
 20
67.423855
 30
0.0
 11
100.162602
 21
67.423855
 31
0.0
  0
LINE
  5
24d
100
AcDbEntity
  8
Capa_1
 62
7
100
AcDbLine
 10
100.162602
 20
67.423855
 30
0.0
 11
103.272395
 21
67.423855
 31
0.0
  0
LINE
  5
24e
100
AcDbEntity
  8
Capa_1
 62
7
100
AcDbLine
 10
103.272395
 20
67.423855
 30
0.0
 11
103.272395
 21
69.897553
 31
0.0
  0
LINE
  5
24f
100
AcDbEntity
  8
Capa_1
 62
7
100
AcDbLine
 10
103.272395
 20
69.897553
 30
0.0
 11
103.272395
 21
72.371253
 31
0.0
  0
LINE
  5
250
100
AcDbEntity
  8
Capa_1
 62
7
100
AcDbLine
 10
103.272395
 20
72.371253
 30
0.0
 11
100.586664
 21
72.371253
 31
0.0
  0
LINE
  5
251
100
AcDbEntity
  8
Capa_1
 62
7
100
AcDbLine
 10
100.586664
 20
72.371253
 30
0.0
 11
97.900933
 21
72.371253
 31
0.0
  0
LINE
  5
252
100
AcDbEntity
  8
Capa_1
 62
7
100
AcDbLine
 10
97.900933
 20
72.371253
 30
0.0
 11
97.900933
 21
73.360735
 31
0.0
  0
LINE
  5
253
100
AcDbEntity
  8
Capa_1
 62
7
100
AcDbLine
 10
97.900933
 20
73.360735
 30
0.0
 11
97.900933
 21
74.350215
 31
0.0
  0
LINE
  5
254
100
AcDbEntity
  8
Capa_1
 62
7
100
AcDbLine
 10
97.900933
 20
74.350215
 30
0.0
 11
100.586664
 21
74.350215
 31
0.0
  0
LINE
  5
255
100
AcDbEntity
  8
Capa_1
 62
7
100
AcDbLine
 10
100.586664
 20
74.350215
 30
0.0
 11
103.272395
 21
74.350215
 31
0.0
  0
LINE
  5
256
100
AcDbEntity
  8
Capa_1
 62
7
100
AcDbLine
 10
103.272395
 20
74.350215
 30
0.0
 11
103.272395
 21
76.679686
 31
0.0
  0
LINE
  5
257
100
AcDbEntity
  8
Capa_1
 62
7
100
AcDbLine
 10
103.272395
 20
76.679686
 30
0.0
 11
103.272395
 21
79.009159
 31
0.0
  0
LINE
  5
258
100
AcDbEntity
  8
Capa_1
 62
7
100
AcDbLine
 10
103.272395
 20
79.009159
 30
0.0
 11
100.339296
 21
79.047369
 31
0.0
  0
LINE
  5
259
100
AcDbEntity
  8
Capa_1
 62
7
100
AcDbLine
 10
100.339296
 20
79.047369
 30
0.0
 11
97.406194
 21
79.085577
 31
0.0
  0
LINE
  5
25a
100
AcDbEntity
  8
Capa_1
 62
7
100
AcDbLine
 10
97.406194
 20
79.085577
 30
0.0
 11
97.364394
 21
80.039716
 31
0.0
  0
LINE
  5
25b
100
AcDbEntity
  8
Capa_1
 62
7
100
AcDbLine
 10
97.364394
 20
80.039716
 30
0.0
 11
97.322600
 21
80.993859
 31
0.0
  0
LINE
  5
25c
100
AcDbEntity
  8
Capa_1
 62
7
100
AcDbLine
 10
97.322600
 20
80.993859
 30
0.0
 11
101.428330
 21
80.993859
 31
0.0
  0
LINE
  5
25d
100
AcDbEntity
  8
Capa_1
 62
7
100
AcDbLine
 10
101.428330
 20
80.993859
 30
0.0
 11
105.534062
 21
80.993859
 31
0.0
  0
LINE
  5
25e
100
AcDbEntity
  8
Capa_1
 62
7
100
AcDbLine
 10
105.534062
 20
80.993859
 30
0.0
 11
105.534062
 21
73.219376
 31
0.0
  0
LINE
  5
25f
100
AcDbEntity
  8
Capa_1
 62
7
100
AcDbLine
 10
105.534062
 20
73.219376
 30
0.0
 11
105.534062
 21
65.444893
 31
0.0
  0
LINE
  5
260
100
AcDbEntity
  8
Capa_1
 62
7
100
AcDbLine
 10
105.534062
 20
65.444893
 30
0.0
 11
101.293436
 21
65.444893
 31
0.0
  0
LINE
  5
261
100
AcDbEntity
  8
Capa_1
 62
7
100
AcDbLine
 10
101.293436
 20
65.444893
 30
0.0
 11
97.052807
 21
65.444893
 31
0.0
  0
LINE
  5
262
100
AcDbEntity
  8
Capa_1
 62
7
100
AcDbLine
 10
97.052807
 20
65.444893
 30
0.0
 11
97.052807
 21
66.434376
 31
0.0
  0
SPLINE
  5
263
100
AcDbEntity
  8
Capa_1
 62
7
100
AcDbSpline
 70
0
 71
3
 72
13
 73
9
 74
7
 40
0.000000
 40
0.000000
 40
0.000000
 40
0.000000
 40
1.867270
 40
3.602019
 40
5.353777
 40
5.840547
 40
6.443057
 40
7.035256
 40
7.035256
 40
7.035256
 40
7.035256
 10
109.846764
 20
75.520441
 30
0.0
 10
109.732618
 20
76.142554
 30
0.0
 10
109.512427
 20
77.342628
 30
0.0
 10
110.159076
 20
79.090420
 30
0.0
 10
111.145850
 20
80.055816
 30
0.0
 10
112.008830
 20
80.450597
 30
0.0
 10
112.537533
 20
80.639364
 30
0.0
 10
112.924151
 20
80.735663
 30
0.0
 10
113.115792
 20
80.783397
 30
0.0
 11
109.846764
 21
75.520441
 31
0.0
 11
109.680416
 21
77.380286
 31
0.0
 11
110.267132
 21
79.012806
 31
0.0
 11
111.535960
 21
80.220584
 31
0.0
 11
111.975995
 21
80.428707
 31
0.0
 11
112.543565
 21
80.630902
 31
0.0
 11
113.115792
 21
80.783397
 31
0.0
  0
LINE
  5
264
100
AcDbEntity
  8
Capa_1
 62
7
100
AcDbLine
 10
94.191760
 20
73.360735
 30
0.0
 11
94.155045
 21
81.205890
 31
0.0
  0
LINE
  5
265
100
AcDbEntity
  8
Capa_1
 62
7
100
AcDbLine
 10
94.155045
 20
81.205890
 30
0.0
 11
90.621188
 21
81.199398
 31
0.0
  0
LINE
  5
266
100
AcDbEntity
  8
Capa_1
 62
7
100
AcDbLine
 10
90.621188
 20
81.199398
 30
0.0
 11
87.087334
 21
81.192907
 31
0.0
  0
LINE
  5
267
100
AcDbEntity
  8
Capa_1
 62
7
100
AcDbLine
 10
87.087334
 20
81.192907
 30
0.0
 11
86.112053
 21
80.949211
 31
0.0
  0
SPLINE
  5
268
100
AcDbEntity
  8
Capa_1
 62
7
100
AcDbSpline
 70
0
 71
3
 72
10
 73
6
 74
4
 40
0.000000
 40
0.000000
 40
0.000000
 40
0.000000
 40
1.171907
 40
4.059139
 40
8.037015
 40
8.037015
 40
8.037015
 40
8.037015
 10
94.155223
 20
65.324192
 30
0.0
 10
94.167140
 20
65.714662
 30
0.0
 10
94.208417
 20
67.067132
 30
0.0
 10
94.197880
 20
69.746551
 30
0.0
 10
94.194005
 20
72.034830
 30
0.0
 10
94.191760
 20
73.360735
 30
0.0
 11
94.155223
 21
65.324192
 31
0.0
 11
94.187090
 21
66.495666
 31
0.0
 11
94.200216
 21
69.382868
 31
0.0
 11
94.191760
 21
73.360735
 31
0.0
  0
LINE
  5
269
100
AcDbEntity
  8
Capa_1
 62
7
100
AcDbLine
 10
84.207660
 20
80.262105
 30
0.0
 11
83.278551
 21
79.818674
 31
0.0
  0
LINE
  5
26a
100
AcDbEntity
  8
Capa_1
 62
7
100
AcDbLine
 10
83.278551
 20
79.818674
 30
0.0
 11
82.546853
 21
79.086985
 31
0.0
  0
SPLINE
  5
26b
100
AcDbEntity
  8
Capa_1
 62
7
100
AcDbSpline
 70
0
 71
3
 72
10
 73
6
 74
4
 40
0.000000
 40
0.000000
 40
0.000000
 40
0.000000
 40
0.645222
 40
1.372563
 40
2.026702
 40
2.026702
 40
2.026702
 40
2.026702
 10
86.112053
 20
80.949211
 30
0.0
 10
85.905180
 20
80.890268
 30
0.0
 10
85.465103
 20
80.764879
 30
0.0
 10
84.828969
 20
80.535081
 30
0.0
 10
84.407315
 20
80.349825
 30
0.0
 10
84.207660
 20
80.262105
 30
0.0
 11
86.112053
 21
80.949211
 31
0.0
 11
85.493479
 21
80.765698
 31
0.0
 11
84.809307
 21
80.518849
 31
0.0
 11
84.207660
 21
80.262105
 31
0.0
  0
LINE
  5
26c
100
AcDbEntity
  8
Capa_1
 62
7
100
AcDbLine
 10
80.840537
 20
76.009066
 30
0.0
 11
80.608263
 21
75.127766
 31
0.0
  0
LINE
  5
26d
100
AcDbEntity
  8
Capa_1
 62
7
100
AcDbLine
 10
80.608263
 20
75.127766
 30
0.0
 11
80.597228
 21
73.572868
 31
0.0
  0
LINE
  5
26e
100
AcDbEntity
  8
Capa_1
 62
7
100
AcDbLine
 10
80.597228
 20
73.572868
 30
0.0
 11
80.586193
 21
72.017973
 31
0.0
  0
LINE
  5
26f
100
AcDbEntity
  8
Capa_1
 62
7
100
AcDbLine
 10
80.586193
 20
72.017973
 30
0.0
 11
80.778846
 21
71.240524
 31
0.0
  0
SPLINE
  5
270
100
AcDbEntity
  8
Capa_1
 62
7
100
AcDbSpline
 70
0
 71
3
 72
10
 73
6
 74
4
 40
0.000000
 40
0.000000
 40
0.000000
 40
0.000000
 40
1.151855
 40
2.310366
 40
3.558663
 40
3.558663
 40
3.558663
 40
3.558663
 10
82.546853
 20
79.086985
 30
0.0
 10
82.288954
 20
78.801269
 30
0.0
 10
81.771667
 20
78.228187
 30
0.0
 10
81.197254
 20
77.175743
 30
0.0
 10
80.962364
 20
76.407512
 30
0.0
 10
80.840537
 20
76.009066
 30
0.0
 11
82.546853
 21
79.086985
 31
0.0
 11
81.809041
 21
78.202450
 31
0.0
 11
81.247335
 21
77.189220
 31
0.0
 11
80.840537
 21
76.009066
 31
0.0
  0
LINE
  5
271
100
AcDbEntity
  8
Capa_1
 62
7
100
AcDbLine
 10
81.393865
 20
69.563526
 30
0.0
 11
81.816245
 21
68.663962
 31
0.0
  0
LINE
  5
272
100
AcDbEntity
  8
Capa_1
 62
7
100
AcDbLine
 10
81.816245
 20
68.663962
 30
0.0
 11
82.755474
 21
67.709255
 31
0.0
  0
LINE
  5
273
100
AcDbEntity
  8
Capa_1
 62
7
100
AcDbLine
 10
82.755474
 20
67.709255
 30
0.0
 11
83.694716
 21
66.754548
 31
0.0
  0
LINE
  5
274
100
AcDbEntity
  8
Capa_1
 62
7
100
AcDbLine
 10
83.694716
 20
66.754548
 30
0.0
 11
84.694025
 21
66.252204
 31
0.0
  0
SPLINE
  5
275
100
AcDbEntity
  8
Capa_1
 62
7
100
AcDbSpline
 70
0
 71
3
 72
10
 73
6
 74
4
 40
0.000000
 40
0.000000
 40
0.000000
 40
0.000000
 40
0.537678
 40
1.179393
 40
1.787993
 40
1.787993
 40
1.787993
 40
1.787993
 10
80.778846
 20
71.240524
 30
0.0
 10
80.828567
 20
71.068293
 30
0.0
 10
80.937629
 20
70.690506
 30
0.0
 10
81.144974
 20
70.131020
 30
0.0
 10
81.312379
 20
69.749321
 30
0.0
 10
81.393865
 20
69.563526
 30
0.0
 11
80.778846
 21
71.240524
 31
0.0
 11
80.933767
 21
70.725648
 31
0.0
 11
81.154718
 21
70.123171
 31
0.0
 11
81.393865
 21
69.563526
 31
0.0
  0
LINE
  5
276
100
AcDbEntity
  8
Capa_1
 62
7
100
AcDbLine
 10
86.531630
 20
65.509457
 30
0.0
 11
87.369926
 21
65.269057
 31
0.0
  0
LINE
  5
277
100
AcDbEntity
  8
Capa_1
 62
7
100
AcDbLine
 10
87.369926
 20
65.269057
 30
0.0
 11
90.725890
 21
65.200997
 31
0.0
  0
LINE
  5
278
100
AcDbEntity
  8
Capa_1
 62
7
100
AcDbLine
 10
90.725890
 20
65.200997
 30
0.0
 11
94.081854
 21
65.132933
 31
0.0
  0
LINE
  5
279
100
AcDbEntity
  8
Capa_1
 62
7
100
AcDbLine
 10
94.081854
 20
65.132933
 30
0.0
 11
94.155104
 21
65.324311
 31
0.0
  0
LINE
  5
27a
100
AcDbEntity
  8
Capa_1
 62
7
100
AcDbLine
 10
94.155104
 20
65.324311
 30
0.0
 11
94.155223
 21
65.324192
 31
0.0
  0
SPLINE
  5
27b
100
AcDbEntity
  8
Capa_1
 62
7
100
AcDbSpline
 70
0
 71
3
 72
10
 73
6
 74
4
 40
0.000000
 40
0.000000
 40
0.000000
 40
0.000000
 40
0.681172
 40
1.393236
 40
1.983807
 40
1.983807
 40
1.983807
 40
1.983807
 10
84.694025
 20
66.252204
 30
0.0
 10
84.899259
 20
66.155054
 30
0.0
 10
85.319036
 20
65.956347
 30
0.0
 10
85.931820
 20
65.706014
 30
0.0
 10
86.344524
 20
65.570772
 30
0.0
 10
86.531630
 20
65.509457
 30
0.0
 11
84.694025
 21
66.252204
 31
0.0
 11
85.312258
 21
65.966226
 31
0.0
 11
85.972435
 21
65.699389
 31
0.0
 11
86.531630
 21
65.509457
 31
0.0
  0
LINE
  5
27c
100
AcDbEntity
  8
Capa_1
 62
7
100
AcDbLine
 10
81.337215
 20
70.615729
 30
0.0
 11
81.028001
 21
71.452450
 31
0.0
  0
LINE
  5
27d
100
AcDbEntity
  8
Capa_1
 62
7
100
AcDbLine
 10
81.028001
 20
71.452450
 30
0.0
 11
81.028001
 21
73.502084
 31
0.0
  0
LINE
  5
27e
100
AcDbEntity
  8
Capa_1
 62
7
100
AcDbLine
 10
81.028001
 20
73.502084
 30
0.0
 11
81.028001
 21
75.551720
 31
0.0
  0
LINE
  5
27f
100
AcDbEntity
  8
Capa_1
 62
7
100
AcDbLine
 10
81.028001
 20
75.551720
 30
0.0
 11
81.337257
 21
76.388554
 31
0.0
  0
SPLINE
  5
280
100
AcDbEntity
  8
Capa_1
 62
7
100
AcDbSpline
 70
0
 71
3
 72
10
 73
6
 74
4
 40
0.000000
 40
0.000000
 40
0.000000
 40
0.000000
 40
2.625468
 40
5.145881
 40
7.642498
 40
7.642498
 40
7.642498
 40
7.642498
 10
86.911391
 20
65.783269
 30
0.0
 10
86.080885
 20
66.072787
 30
0.0
 10
84.453103
 20
66.640238
 30
0.0
 10
82.450018
 20
68.351830
 30
0.0
 10
81.706974
 20
69.863486
 30
0.0
 10
81.337215
 20
70.615729
 30
0.0
 11
86.911391
 21
65.783269
 31
0.0
 11
84.492513
 21
66.804107
 31
0.0
 11
82.588119
 21
68.455096
 31
0.0
 11
81.337215
 21
70.615729
 31
0.0
  0
LINE
  5
281
100
AcDbEntity
  8
Capa_1
 62
7
100
AcDbLine
 10
86.416506
 20
80.661819
 30
0.0
 11
87.370042
 21
80.880168
 31
0.0
  0
LINE
  5
282
100
AcDbEntity
  8
Capa_1
 62
7
100
AcDbLine
 10
87.370042
 20
80.880168
 30
0.0
 11
90.585851
 21
80.953659
 31
0.0
  0
LINE
  5
283
100
AcDbEntity
  8
Capa_1
 62
7
100
AcDbLine
 10
90.585851
 20
80.953659
 30
0.0
 11
93.801661
 21
81.027164
 31
0.0
  0
LINE
  5
284
100
AcDbEntity
  8
Capa_1
 62
7
100
AcDbLine
 10
93.801661
 20
81.027164
 30
0.0
 11
93.801661
 21
73.218699
 31
0.0
  0
LINE
  5
285
100
AcDbEntity
  8
Capa_1
 62
7
100
AcDbLine
 10
93.801661
 20
73.218699
 30
0.0
 11
93.801661
 21
65.410236
 31
0.0
  0
LINE
  5
286
100
AcDbEntity
  8
Capa_1
 62
7
100
AcDbLine
 10
93.801661
 20
65.410236
 30
0.0
 11
90.797882
 21
65.485053
 31
0.0
  0
LINE
  5
287
100
AcDbEntity
  8
Capa_1
 62
7
100
AcDbLine
 10
90.797882
 20
65.485053
 30
0.0
 11
87.794106
 21
65.559859
 31
0.0
  0
LINE
  5
288
100
AcDbEntity
  8
Capa_1
 62
7
100
AcDbLine
 10
87.794106
 20
65.559859
 30
0.0
 11
86.911391
 21
65.783269
 31
0.0
  0
LINE
  5
289
100
AcDbEntity
  8
Capa_1
 62
7
100
AcDbLine
 10
129.422923
 20
71.452453
 30
0.0
 11
129.422923
 21
72.512610
 31
0.0
  0
LINE
  5
28a
100
AcDbEntity
  8
Capa_1
 62
7
100
AcDbLine
 10
129.422923
 20
72.512610
 30
0.0
 11
126.242453
 21
72.512610
 31
0.0
  0
LINE
  5
28b
100
AcDbEntity
  8
Capa_1
 62
7
100
AcDbLine
 10
126.242453
 20
72.512610
 30
0.0
 11
123.061981
 21
72.512610
 31
0.0
  0
LINE
  5
28c
100
AcDbEntity
  8
Capa_1
 62
7
100
AcDbLine
 10
123.061981
 20
72.512610
 30
0.0
 11
123.061981
 21
71.452453
 31
0.0
  0
LINE
  5
28d
100
AcDbEntity
  8
Capa_1
 62
7
100
AcDbLine
 10
123.061981
 20
71.452453
 30
0.0
 11
123.061981
 21
70.392294
 31
0.0
  0
LINE
  5
28e
100
AcDbEntity
  8
Capa_1
 62
7
100
AcDbLine
 10
123.061981
 20
70.392294
 30
0.0
 11
126.242453
 21
70.392294
 31
0.0
  0
LINE
  5
28f
100
AcDbEntity
  8
Capa_1
 62
7
100
AcDbLine
 10
126.242453
 20
70.392294
 30
0.0
 11
129.422923
 21
70.392294
 31
0.0
  0
LINE
  5
290
100
AcDbEntity
  8
Capa_1
 62
7
100
AcDbLine
 10
129.422923
 20
70.392294
 30
0.0
 11
129.422923
 21
71.452453
 31
0.0
  0
LINE
  5
291
100
AcDbEntity
  8
Capa_1
 62
7
100
AcDbLine
 10
123.486045
 20
71.452453
 30
0.0
 11
123.486045
 21
72.229899
 31
0.0
  0
LINE
  5
292
100
AcDbEntity
  8
Capa_1
 62
7
100
AcDbLine
 10
123.486045
 20
72.229899
 30
0.0
 11
126.313130
 21
72.229899
 31
0.0
  0
LINE
  5
293
100
AcDbEntity
  8
Capa_1
 62
7
100
AcDbLine
 10
126.313130
 20
72.229899
 30
0.0
 11
129.140212
 21
72.229899
 31
0.0
  0
LINE
  5
294
100
AcDbEntity
  8
Capa_1
 62
7
100
AcDbLine
 10
129.140212
 20
72.229899
 30
0.0
 11
129.140212
 21
71.452453
 31
0.0
  0
LINE
  5
295
100
AcDbEntity
  8
Capa_1
 62
7
100
AcDbLine
 10
129.140212
 20
71.452453
 30
0.0
 11
129.140212
 21
70.675004
 31
0.0
  0
LINE
  5
296
100
AcDbEntity
  8
Capa_1
 62
7
100
AcDbLine
 10
129.140212
 20
70.675004
 30
0.0
 11
126.313130
 21
70.675004
 31
0.0
  0
LINE
  5
297
100
AcDbEntity
  8
Capa_1
 62
7
100
AcDbLine
 10
126.313130
 20
70.675004
 30
0.0
 11
123.486045
 21
70.675004
 31
0.0
  0
LINE
  5
298
100
AcDbEntity
  8
Capa_1
 62
7
100
AcDbLine
 10
123.486045
 20
70.675004
 30
0.0
 11
123.486045
 21
71.452453
 31
0.0
  0
SPLINE
  5
299
100
AcDbEntity
  8
Capa_1
 62
7
100
AcDbSpline
 70
0
 71
3
 72
13
 73
9
 74
7
 40
0.000000
 40
0.000000
 40
0.000000
 40
0.000000
 40
0.543155
 40
1.110537
 40
1.580568
 40
3.178377
 40
5.002791
 40
6.948034
 40
6.948034
 40
6.948034
 40
6.948034
 10
81.337257
 20
76.388554
 30
0.0
 10
81.403551
 20
76.557089
 30
0.0
 10
81.539097
 20
76.901676
 30
0.0
 10
81.761290
 20
77.379401
 30
0.0
 10
82.158142
 20
78.164848
 30
0.0
 10
83.061580
 20
79.133717
 30
0.0
 10
84.584192
 20
80.110998
 30
0.0
 10
85.792821
 20
80.474330
 30
0.0
 10
86.416506
 20
80.661819
 30
0.0
 11
81.337257
 21
76.388554
 31
0.0
 11
81.541061
 21
76.892023
 31
0.0
 11
81.778084
 21
77.407525
 31
0.0
 11
81.997013
 21
77.823456
 31
0.0
 11
83.047448
 21
79.027442
 31
0.0
 11
84.582538
 21
80.013335
 31
0.0
 11
86.416506
 21
80.661819
 31
0.0
  0
LINE
  5
29a
100
AcDbEntity
  8
Capa_1
 62
7
100
AcDbLine
 10
135.459100
 20
80.261464
 30
0.0
 11
135.534442
 21
80.823205
 31
0.0
  0
LINE
  5
29b
100
AcDbEntity
  8
Capa_1
 62
7
100
AcDbLine
 10
135.534442
 20
80.823205
 30
0.0
 11
135.276641
 21
81.259633
 31
0.0
  0
SPLINE
  5
29c
100
AcDbEntity
  8
Capa_1
 62
7
100
AcDbSpline
 70
0
 71
3
 72
10
 73
6
 74
4
 40
0.000000
 40
0.000000
 40
0.000000
 40
0.000000
 40
0.509912
 40
1.034082
 40
1.599641
 40
1.599641
 40
1.599641
 40
1.599641
 10
134.582351
 20
78.999496
 30
0.0
 10
134.730790
 20
79.085615
 30
0.0
 10
135.031817
 20
79.260261
 30
0.0
 10
135.340776
 20
79.720021
 30
0.0
 10
135.418672
 20
80.076470
 30
0.0
 10
135.459100
 20
80.261464
 30
0.0
 11
134.582351
 21
78.999496
 31
0.0
 11
135.003035
 21
79.287655
 31
0.0
 11
135.302108
 21
79.718131
 31
0.0
 11
135.459100
 21
80.261464
 31
0.0
  0
LINE
  5
29d
100
AcDbEntity
  8
Capa_1
 62
7
100
AcDbLine
 10
133.032302
 20
81.923804
 30
0.0
 11
132.551486
 21
81.722909
 31
0.0
  0
LINE
  5
29e
100
AcDbEntity
  8
Capa_1
 62
7
100
AcDbLine
 10
132.551486
 20
81.722909
 30
0.0
 11
132.330068
 21
81.294719
 31
0.0
  0
SPLINE
  5
29f
100
AcDbEntity
  8
Capa_1
 62
7
100
AcDbSpline
 70
0
 71
3
 72
13
 73
9
 74
7
 40
0.000000
 40
0.000000
 40
0.000000
 40
0.000000
 40
0.577900
 40
1.195143
 40
1.752260
 40
1.971607
 40
2.261681
 40
2.562664
 40
2.562664
 40
2.562664
 40
2.562664
 10
135.276641
 20
81.259633
 30
0.0
 10
135.155492
 20
81.411783
 30
0.0
 10
134.904949
 20
81.726442
 30
0.0
 10
134.386915
 20
82.014108
 30
0.0
 10
133.926677
 20
82.151323
 30
0.0
 10
133.572330
 20
82.096554
 30
0.0
 10
133.310724
 20
82.029000
 30
0.0
 10
133.126245
 20
81.959298
 30
0.0
 10
133.032302
 20
81.923804
 30
0.0
 11
135.276641
 21
81.259633
 31
0.0
 11
134.889164
 21
81.688388
 31
0.0
 11
134.357918
 21
82.002659
 31
0.0
 11
133.814331
 21
82.124695
 31
0.0
 11
133.596719
 21
82.097163
 31
0.0
 11
133.315768
 21
82.024988
 31
0.0
 11
133.032302
 21
81.923804
 31
0.0
  0
LINE
  5
2a0
100
AcDbEntity
  8
Capa_1
 62
7
100
AcDbLine
 10
132.108651
 20
80.367007
 30
0.0
 11
132.108651
 21
79.867482
 31
0.0
  0
LINE
  5
2a1
100
AcDbEntity
  8
Capa_1
 62
7
100
AcDbLine
 10
132.108651
 20
79.867482
 30
0.0
 11
132.505771
 21
79.423033
 31
0.0
  0
LINE
  5
2a2
100
AcDbEntity
  8
Capa_1
 62
7
100
AcDbLine
 10
132.505771
 20
79.423033
 30
0.0
 11
132.902892
 21
78.978575
 31
0.0
  0
LINE
  5
2a3
100
AcDbEntity
  8
Capa_1
 62
7
100
AcDbLine
 10
132.902892
 20
78.978575
 30
0.0
 11
133.601268
 21
78.927329
 31
0.0
  0
SPLINE
  5
2a4
100
AcDbEntity
  8
Capa_1
 62
7
100
AcDbSpline
 70
0
 71
3
 72
10
 73
6
 74
4
 40
0.000000
 40
0.000000
 40
0.000000
 40
0.000000
 40
0.305230
 40
0.647879
 40
0.959659
 40
0.959659
 40
0.959659
 40
0.959659
 10
132.330068
 20
81.294719
 30
0.0
 10
132.290371
 20
81.200935
 30
0.0
 10
132.206109
 20
81.001871
 30
0.0
 10
132.131786
 20
80.688496
 30
0.0
 10
132.116116
 20
80.470746
 30
0.0
 10
132.108651
 20
80.367007
 30
0.0
 11
132.330068
 21
81.294719
 31
0.0
 11
132.218541
 21
81.010594
 31
0.0
 11
132.138994
 21
80.677307
 31
0.0
 11
132.108651
 21
80.367007
 31
0.0
  0
LINE
  5
2a5
100
AcDbEntity
  8
Capa_1
 62
7
100
AcDbLine
 10
134.582351
 20
78.999496
 30
0.0
 11
134.582351
 21
78.999496
 31
0.0
  0
SPLINE
  5
2a6
100
AcDbEntity
  8
Capa_1
 62
7
100
AcDbSpline
 70
0
 71
3
 72
10
 73
6
 74
4
 40
0.000000
 40
0.000000
 40
0.000000
 40
0.000000
 40
0.390615
 40
0.744030
 40
0.988440
 40
0.988440
 40
0.988440
 40
0.988440
 10
133.601268
 20
78.927329
 30
0.0
 10
133.731277
 20
78.922485
 30
0.0
 10
133.978915
 20
78.913258
 30
0.0
 10
134.310237
 20
78.928156
 30
0.0
 10
134.503386
 20
78.978794
 30
0.0
 10
134.582351
 20
78.999496
 30
0.0
 11
133.601268
 21
78.927329
 31
0.0
 11
133.991781
 21
78.918431
 31
0.0
 11
134.344245
 21
78.944347
 31
0.0
 11
134.582351
 21
78.999496
 31
0.0
  0
LINE
  5
2a7
100
AcDbEntity
  8
Capa_1
 62
7
100
AcDbLine
 10
132.517419
 20
80.117155
 30
0.0
 11
132.393210
 21
80.441973
 31
0.0
  0
LINE
  5
2a8
100
AcDbEntity
  8
Capa_1
 62
7
100
AcDbLine
 10
132.393210
 20
80.441973
 30
0.0
 11
132.592352
 21
80.918562
 31
0.0
  0
SPLINE
  5
2a9
100
AcDbEntity
  8
Capa_1
 62
7
100
AcDbSpline
 70
0
 71
3
 72
10
 73
6
 74
4
 40
0.000000
 40
0.000000
 40
0.000000
 40
0.000000
 40
0.228406
 40
0.478117
 40
0.699271
 40
0.699271
 40
0.699271
 40
0.699271
 10
132.914483
 20
79.546663
 30
0.0
 10
132.861562
 20
79.601475
 30
0.0
 10
132.750785
 20
79.716213
 30
0.0
 10
132.616331
 20
79.908519
 30
0.0
 10
132.549029
 20
80.050480
 30
0.0
 10
132.517419
 20
80.117155
 30
0.0
 11
132.914483
 21
79.546663
 31
0.0
 11
132.760022
 21
79.714923
 31
0.0
 11
132.617375
 21
79.919879
 31
0.0
 11
132.517419
 21
80.117155
 31
0.0
  0
LINE
  5
2aa
100
AcDbEntity
  8
Capa_1
 62
7
100
AcDbLine
 10
133.872709
 20
81.700631
 30
0.0
 11
134.383170
 21
81.700631
 31
0.0
  0
LINE
  5
2ab
100
AcDbEntity
  8
Capa_1
 62
7
100
AcDbLine
 10
134.383170
 20
81.700631
 30
0.0
 11
134.730123
 21
81.353667
 31
0.0
  0
LINE
  5
2ac
100
AcDbEntity
  8
Capa_1
 62
7
100
AcDbLine
 10
134.730123
 20
81.353667
 30
0.0
 11
135.077090
 21
81.006711
 31
0.0
  0
LINE
  5
2ad
100
AcDbEntity
  8
Capa_1
 62
7
100
AcDbLine
 10
135.077090
 20
81.006711
 30
0.0
 11
135.077090
 21
80.459516
 31
0.0
  0
LINE
  5
2ae
100
AcDbEntity
  8
Capa_1
 62
7
100
AcDbLine
 10
135.077090
 20
80.459516
 30
0.0
 11
135.077090
 21
79.912304
 31
0.0
  0
LINE
  5
2af
100
AcDbEntity
  8
Capa_1
 62
7
100
AcDbLine
 10
135.077090
 20
79.912304
 30
0.0
 11
134.759042
 21
79.622950
 31
0.0
  0
SPLINE
  5
2b0
100
AcDbEntity
  8
Capa_1
 62
7
100
AcDbSpline
 70
0
 71
3
 72
10
 73
6
 74
4
 40
0.000000
 40
0.000000
 40
0.000000
 40
0.000000
 40
0.535998
 40
1.016588
 40
1.608223
 40
1.608223
 40
1.608223
 40
1.608223
 10
132.592352
 20
80.918562
 30
0.0
 10
132.672290
 20
81.082087
 30
0.0
 10
132.823903
 20
81.392233
 30
0.0
 10
133.312835
 20
81.679479
 30
0.0
 10
133.673629
 20
81.693110
 30
0.0
 10
133.872709
 20
81.700631
 30
0.0
 11
132.592352
 21
80.918562
 31
0.0
 11
132.875937
 21
81.373395
 31
0.0
 11
133.286070
 21
81.623909
 31
0.0
 11
133.872709
 21
81.700631
 31
0.0
  0
LINE
  5
2b1
100
AcDbEntity
  8
Capa_1
 62
7
100
AcDbLine
 10
132.914483
 20
79.546663
 30
0.0
 11
132.914483
 21
79.546663
 31
0.0
  0
SPLINE
  5
2b2
100
AcDbEntity
  8
Capa_1
 62
7
100
AcDbSpline
 70
0
 71
3
 72
13
 73
9
 74
7
 40
0.000000
 40
0.000000
 40
0.000000
 40
0.000000
 40
0.245960
 40
0.478633
 40
0.649604
 40
1.072297
 40
1.577229
 40
2.037564
 40
2.037564
 40
2.037564
 40
2.037564
 10
134.759042
 20
79.622950
 30
0.0
 10
134.696777
 20
79.569458
 30
0.0
 10
134.575611
 20
79.465362
 30
0.0
 10
134.398511
 20
79.341478
 30
0.0
 10
134.158826
 20
79.199058
 30
0.0
 10
133.776069
 20
79.197013
 30
0.0
 10
133.317918
 20
79.286986
 30
0.0
 10
133.044754
 20
79.462812
 30
0.0
 10
132.914483
 20
79.546663
 30
0.0
 11
134.759042
 21
79.622950
 31
0.0
 11
134.569786
 21
79.465857
 31
0.0
 11
134.379351
 21
79.332173
 31
0.0
 11
134.228967
 21
79.250837
 31
0.0
 11
133.808249
 21
79.210011
 31
0.0
 11
133.315637
 21
79.320867
 31
0.0
 11
132.914483
 21
79.546663
 31
0.0
  0
ENDSEC
  0
SECTION
  2
OBJECTS
  0
DICTIONARY
  5
C
330
0
100
AcDbDictionary
  3
ACAD_GROUP
350
D
  3
ACAD_MLINESTYLE
350
17
  0
DICTIONARY
  5
D
330
C
100
AcDbDictionary
  0
DICTIONARY
  5
1A
330
C
100
AcDbDictionary
  0
DICTIONARY
  5
17
330
C
100
AcDbDictionary
  3
STANDARD
350
18
  0
DICTIONARY
  5
19
330
C
100
AcDbDictionary
  0
ENDSEC
  0
EOF
