  0
SECTION
  2
HEADER
  9
$ACADVER
  1
AC1014
  9
$HANDSEED
  5
FFFF
  9
$MEASUREMENT
 70
     1
  0
ENDSEC
  0
SECTION
  2
TABLES
  0
TABLE
  2
VPORT
  5
8
330
0
100
AcDbSymbolTable
 70
     4
  0
VPORT
  5
2E
330
8
100
AcDbSymbolTableRecord
100
AcDbViewportTableRecord
  2
*ACTIVE
 70
     0
 10
0.0
 20
0.0
 11
1.0
 21
1.0
 12
210.0
 22
148.5
 13
0.0
 23
0.0
 14
10.0
 24
10.0
 15
10.0
 25
10.0
 16
0.0
 26
0.0
 36
1.0
 17
0.0
 27
0.0
 37
0.0
 40
341.0
 41
1.24
 42
50.0
 43
0.0
 44
0.0
 50
0.0
 51
0.0
 71
     0
 72
   100
 73
     1
 74
     3
 75
     0
 76
     0
 77
     0
 78
     0
  0
ENDTAB
  0
TABLE
  2
LTYPE
  5
5
330
0
100
AcDbSymbolTable
 70
     1
  0
LTYPE
  5
14
330
5
100
AcDbSymbolTableRecord
100
AcDbLinetypeTableRecord
  2
BYBLOCK
 70
     0
  3

 72
    65
 73
     0
 40
0.0
  0
LTYPE
  5
15
330
5
100
AcDbSymbolTableRecord
100
AcDbLinetypeTableRecord
  2
BYLAYER
 70
     0
  3

 72
    65
 73
     0
 40
0.0
  0
LTYPE
  5
16
330
5
100
AcDbSymbolTableRecord
100
AcDbLinetypeTableRecord
  2
CONTINUOUS
 70
     0
  3
Solid line
 72
    65
 73
     0
 40
0.0
  0
ENDTAB
  0
TABLE
  2
LAYER
  5
2
100
AcDbSymbolTable
 70
2
  0
LAYER
  5
50
100
AcDbSymbolTableRecord
100
AcDbLayerTableRecord
  2
0
 70
0
  6
CONTINUOUS
  0
LAYER
  5
51
100
AcDbSymbolTableRecord
100
AcDbLayerTableRecord
  2
Capa_1
 70
0
  6
CONTINUOUS
  0
ENDTAB
  0
TABLE
  2
STYLE
  5
3
330
0
100
AcDbSymbolTable
 70
     1
  0
STYLE
  5
11
330
3
100
AcDbSymbolTableRecord
100
AcDbTextStyleTableRecord
  2
STANDARD
 70
     0
 40
0.0
 41
1.0
 50
0.0
 71
     0
 42
2.5
  3
txt
  4

  0
ENDTAB
  0
TABLE
  2
VIEW
  5
6
330
0
100
AcDbSymbolTable
 70
     0
  0
ENDTAB
  0
TABLE
  2
UCS
  5
7
330
0
100
AcDbSymbolTable
 70
     0
  0
ENDTAB
  0
TABLE
  2
APPID
  5
9
330
0
100
AcDbSymbolTable
 70
     2
  0
APPID
  5
12
330
9
100
AcDbSymbolTableRecord
100
AcDbRegAppTableRecord
  2
ACAD
 70
     0
  0
ENDTAB
  0
TABLE
  2
DIMSTYLE
  5
A
330
0
100
AcDbSymbolTable
 70
     1
  0
DIMSTYLE
105
27
330
A
100
AcDbSymbolTableRecord
100
AcDbDimStyleTableRecord
  2
ISO-25
 70
     0
  3

  4

  5

  6

  7

 40
1.0
 41
2.5
 42
0.625
 43
3.75
 44
1.25
 45
0.0
 46
0.0
 47
0.0
 48
0.0
140
2.5
141
2.5
142
0.0
143
0.03937007874016
144
1.0
145
0.0
146
1.0
147
0.625
 71
     0
 72
     0
 73
     0
 74
     0
 75
     0
 76
     0
 77
     1
 78
     8
170
     0
171
     3
172
     1
173
     0
174
     0
175
     0
176
     0
177
     0
178
     0
270
     2
271
     2
272
     2
273
     2
274
     3
340
11
275
     0
280
     0
281
     0
282
     0
283
     0
284
     8
285
     0
286
     0
287
     3
288
     0
  0
ENDTAB
  0
TABLE
  2
BLOCK_RECORD
  5
1
330
0
100
AcDbSymbolTable
 70
     1
  0
BLOCK_RECORD
  5
1F
330
1
100
AcDbSymbolTableRecord
100
AcDbBlockTableRecord
  2
*MODEL_SPACE
  0
BLOCK_RECORD
  5
1B
330
1
100
AcDbSymbolTableRecord
100
AcDbBlockTableRecord
  2
*PAPER_SPACE
  0
ENDTAB
  0
ENDSEC
  0
SECTION
  2
BLOCKS
  0
BLOCK
  5
20
330
1F
100
AcDbEntity
  8
0
100
AcDbBlockBegin
  2
*MODEL_SPACE
 70
     0
 10
0.0
 20
0.0
 30
0.0
  3
*MODEL_SPACE
  1

  0
ENDBLK
  5
21
330
1F
100
AcDbEntity
  8
0
100
AcDbBlockEnd
  0
BLOCK
  5
1C
330
1B
100
AcDbEntity
 67
     1
  8
0
100
AcDbBlockBegin
  2
*PAPER_SPACE
  1

  0
ENDBLK
  5
1D
330
1B
100
AcDbEntity
 67
     1
  8
0
100
AcDbBlockEnd
  0
ENDSEC
  0
SECTION
  2
ENTITIES
  0
LINE
  5
100
100
AcDbEntity
  8
Capa_1
 62
7
100
AcDbLine
 10
141.128809
 20
56.128816
 30
0.0
 11
141.128809
 21
106.128820
 31
0.0
  0
LINE
  5
101
100
AcDbEntity
  8
Capa_1
 62
7
100
AcDbLine
 10
147.128809
 20
56.128816
 30
0.0
 11
141.128809
 21
56.128816
 31
0.0
  0
LINE
  5
102
100
AcDbEntity
  8
Capa_1
 62
7
100
AcDbLine
 10
147.128809
 20
56.128816
 30
0.0
 11
147.128809
 21
0.128815
 31
0.0
  0
LINE
  5
103
100
AcDbEntity
  8
Capa_1
 62
7
100
AcDbLine
 10
147.128809
 20
0.128815
 30
0.0
 11
98.628809
 21
0.128815
 31
0.0
  0
LINE
  5
104
100
AcDbEntity
  8
Capa_1
 62
7
100
AcDbLine
 10
98.628809
 20
0.128815
 30
0.0
 11
98.628809
 21
6.128831
 31
0.0
  0
LINE
  5
105
100
AcDbEntity
  8
Capa_1
 62
7
100
AcDbLine
 10
48.628809
 20
6.128831
 30
0.0
 11
98.628809
 21
6.128831
 31
0.0
  0
LINE
  5
106
100
AcDbEntity
  8
Capa_1
 62
7
100
AcDbLine
 10
48.628809
 20
0.128815
 30
0.0
 11
48.628809
 21
6.128831
 31
0.0
  0
LINE
  5
107
100
AcDbEntity
  8
Capa_1
 62
7
100
AcDbLine
 10
48.628809
 20
0.128815
 30
0.0
 11
0.128809
 21
0.128815
 31
0.0
  0
LINE
  5
108
100
AcDbEntity
  8
Capa_1
 62
7
100
AcDbLine
 10
0.128809
 20
56.128816
 30
0.0
 11
0.128809
 21
0.128815
 31
0.0
  0
LINE
  5
109
100
AcDbEntity
  8
Capa_1
 62
7
100
AcDbLine
 10
0.128809
 20
56.128816
 30
0.0
 11
6.128808
 21
56.128816
 31
0.0
  0
LINE
  5
10a
100
AcDbEntity
  8
Capa_1
 62
7
100
AcDbLine
 10
6.128808
 20
106.128820
 30
0.0
 11
6.128808
 21
56.128816
 31
0.0
  0
LINE
  5
10b
100
AcDbEntity
  8
Capa_1
 62
7
100
AcDbLine
 10
0.128809
 20
106.128820
 30
0.0
 11
6.128808
 21
106.128820
 31
0.0
  0
LINE
  5
10c
100
AcDbEntity
  8
Capa_1
 62
7
100
AcDbLine
 10
0.128809
 20
162.128821
 30
0.0
 11
0.128809
 21
106.128820
 31
0.0
  0
LINE
  5
10d
100
AcDbEntity
  8
Capa_1
 62
7
100
AcDbLine
 10
48.628809
 20
162.128821
 30
0.0
 11
0.128809
 21
162.128821
 31
0.0
  0
LINE
  5
10e
100
AcDbEntity
  8
Capa_1
 62
7
100
AcDbLine
 10
48.628809
 20
162.128821
 30
0.0
 11
48.628809
 21
156.128822
 31
0.0
  0
LINE
  5
10f
100
AcDbEntity
  8
Capa_1
 62
7
100
AcDbLine
 10
48.628809
 20
156.128822
 30
0.0
 11
98.628809
 21
156.128822
 31
0.0
  0
LINE
  5
110
100
AcDbEntity
  8
Capa_1
 62
7
100
AcDbLine
 10
98.628809
 20
162.128821
 30
0.0
 11
98.628809
 21
156.128822
 31
0.0
  0
LINE
  5
111
100
AcDbEntity
  8
Capa_1
 62
7
100
AcDbLine
 10
147.128809
 20
162.128821
 30
0.0
 11
98.628809
 21
162.128821
 31
0.0
  0
LINE
  5
112
100
AcDbEntity
  8
Capa_1
 62
7
100
AcDbLine
 10
147.128809
 20
162.128821
 30
0.0
 11
147.128809
 21
106.128820
 31
0.0
  0
LINE
  5
113
100
AcDbEntity
  8
Capa_1
 62
7
100
AcDbLine
 10
147.128809
 20
106.128820
 30
0.0
 11
141.128809
 21
106.128820
 31
0.0
  0
LINE
  5
114
100
AcDbEntity
  8
Capa_1
 62
7
100
AcDbLine
 10
86.890262
 20
63.112884
 30
0.0
 11
86.890262
 21
63.113025
 31
0.0
  0
SPLINE
  5
115
100
AcDbEntity
  8
Capa_1
 62
7
100
AcDbSpline
 70
0
 71
3
 72
25
 73
21
 74
19
 40
0.000000
 40
0.000000
 40
0.000000
 40
0.000000
 40
2.515567
 40
4.726469
 40
6.554691
 40
6.811843
 40
7.049712
 40
7.933142
 40
9.506678
 40
10.957904
 40
12.516458
 40
13.033407
 40
13.448053
 40
13.670786
 40
13.826624
 40
14.155433
 40
15.201295
 40
16.258167
 40
16.614057
 40
16.887586
 40
16.887586
 40
16.887586
 40
16.887586
 10
86.890262
 20
63.113025
 30
0.0
 10
87.636769
 20
63.470251
 30
0.0
 10
89.039373
 20
64.141438
 30
0.0
 10
90.896432
 20
65.603555
 30
0.0
 10
91.514907
 20
66.519192
 30
0.0
 10
92.109034
 20
67.441983
 30
0.0
 10
91.470708
 20
67.342260
 30
0.0
 10
90.779557
 20
67.084901
 30
0.0
 10
89.432031
 20
66.735277
 30
0.0
 10
87.997856
 20
66.294540
 30
0.0
 10
86.867038
 20
65.938582
 30
0.0
 10
86.081256
 20
65.690068
 30
0.0
 10
85.703492
 20
65.577452
 30
0.0
 10
85.466200
 20
65.509640
 30
0.0
 10
85.183281
 20
65.454380
 30
0.0
 10
85.609079
 20
64.844808
 30
0.0
 10
85.860265
 20
64.228006
 30
0.0
 10
86.245138
 20
63.545354
 30
0.0
 10
86.587454
 20
62.947180
 30
0.0
 10
86.798532
 20
63.062688
 30
0.0
 10
86.890262
 20
63.112884
 30
0.0
 11
86.890262
 21
63.113025
 31
0.0
 11
89.111793
 21
64.293228
 31
0.0
 11
90.836199
 21
65.676887
 31
0.0
 11
91.920224
 21
67.149057
 31
0.0
 11
92.017944
 21
67.386918
 31
0.0
 11
91.780076
 21
67.387794
 31
0.0
 11
90.928495
 21
67.152726
 31
0.0
 11
89.415958
 21
66.718849
 31
0.0
 11
88.026032
 21
66.301523
 31
0.0
 11
86.539008
 21
65.834777
 31
0.0
 11
86.045617
 21
65.680500
 31
0.0
 11
85.648269
 21
65.561985
 31
0.0
 11
85.432979
 21
65.504887
 31
0.0
 11
85.286444
 21
65.451849
 31
0.0
 11
85.395834
 21
65.141769
 31
0.0
 11
85.886821
 21
64.218321
 31
0.0
 11
86.391602
 21
63.289786
 31
0.0
 11
86.630806
 21
63.026274
 31
0.0
 11
86.890262
 21
63.112884
 31
0.0
  0
LINE
  5
116
100
AcDbEntity
  8
Capa_1
 62
7
100
AcDbLine
 10
85.963952
 20
64.228622
 30
0.0
 11
85.963952
 21
64.228622
 31
0.0
  0
SPLINE
  5
117
100
AcDbEntity
  8
Capa_1
 62
7
100
AcDbSpline
 70
0
 71
3
 72
28
 73
24
 74
22
 40
0.000000
 40
0.000000
 40
0.000000
 40
0.000000
 40
1.005015
 40
1.319676
 40
1.429810
 40
1.585857
 40
1.871363
 40
2.224798
 40
4.706555
 40
7.069583
 40
8.138166
 40
8.169529
 40
8.241881
 40
8.340597
 40
9.832138
 40
11.612798
 40
13.717081
 40
14.239976
 40
14.789242
 40
15.075462
 40
15.231301
 40
15.671611
 40
16.394138
 40
16.394138
 40
16.394138
 40
16.394138
 10
85.963952
 20
64.228622
 30
0.0
 10
85.859646
 20
64.489082
 30
0.0
 10
85.722682
 20
64.831090
 30
0.0
 10
85.275954
 20
65.398862
 30
0.0
 10
85.499703
 20
65.449409
 30
0.0
 10
85.668635
 20
65.489330
 30
0.0
 10
85.927967
 20
65.567655
 30
0.0
 10
86.909893
 20
65.871729
 30
0.0
 10
88.728854
 20
66.567117
 30
0.0
 10
90.061837
 20
66.512425
 30
0.0
 10
91.959780
 20
67.691654
 30
0.0
 10
91.907346
 20
67.293116
 30
0.0
 10
91.878499
 20
67.231881
 30
0.0
 10
91.649996
 20
66.727333
 30
0.0
 10
90.957297
 20
65.816722
 30
0.0
 10
89.584965
 20
64.644451
 30
0.0
 10
88.335456
 20
63.903101
 30
0.0
 10
87.371795
 20
63.394729
 30
0.0
 10
86.987222
 20
63.283946
 30
0.0
 10
86.631981
 20
63.004766
 30
0.0
 10
86.477463
 20
63.315544
 30
0.0
 10
86.261874
 20
63.661320
 30
0.0
 10
86.078124
 20
64.011215
 30
0.0
 10
85.963952
 20
64.228622
 30
0.0
 11
85.963952
 21
64.228622
 31
0.0
 11
85.491334
 21
65.115576
 31
0.0
 11
85.374661
 21
65.407807
 31
0.0
 11
85.478417
 21
65.444745
 31
0.0
 11
85.630096
 21
65.481405
 31
0.0
 11
85.904334
 21
65.560824
 31
0.0
 11
86.241771
 21
65.665951
 31
0.0
 11
88.612122
 21
66.401177
 31
0.0
 11
90.878641
 21
67.069603
 31
0.0
 11
91.912858
 21
67.338428
 31
0.0
 11
91.908252
 21
67.307406
 31
0.0
 11
91.882411
 21
67.239826
 31
0.0
 11
91.841004
 21
67.150214
 31
0.0
 11
90.982882
 21
65.930246
 31
0.0
 11
89.644531
 21
64.755697
 31
0.0
 11
87.853627
 21
63.650856
 31
0.0
 11
87.384964
 21
63.418966
 31
0.0
 11
86.885582
 21
63.190249
 31
0.0
 11
86.619215
 21
63.085509
 31
0.0
 11
86.527752
 21
63.211685
 31
0.0
 11
86.308926
 21
63.593768
 31
0.0
 11
85.963952
 21
64.228622
 31
0.0
  0
LINE
  5
118
100
AcDbEntity
  8
Capa_1
 62
7
100
AcDbLine
 10
88.281843
 20
82.949917
 30
0.0
 11
88.768225
 21
83.207163
 31
0.0
  0
LINE
  5
119
100
AcDbEntity
  8
Capa_1
 62
7
100
AcDbLine
 10
88.768225
 20
83.207163
 30
0.0
 11
89.347317
 21
83.347427
 31
0.0
  0
SPLINE
  5
11a
100
AcDbEntity
  8
Capa_1
 62
7
100
AcDbSpline
 70
0
 71
3
 72
40
 73
36
 74
34
 40
0.000000
 40
0.000000
 40
0.000000
 40
0.000000
 40
0.887544
 40
1.728825
 40
2.139307
 40
2.171191
 40
2.242569
 40
2.352938
 40
2.773102
 40
3.192663
 40
3.612642
 40
4.782176
 40
6.546924
 40
8.416964
 40
8.957744
 40
9.181239
 40
9.244490
 40
9.545382
 40
10.276077
 40
11.278493
 40
12.276876
 40
12.996938
 40
13.282789
 40
14.000614
 40
15.491953
 40
16.929125
 40
19.331678
 40
21.378480
 40
23.921452
 40
24.033879
 40
24.153809
 40
24.332325
 40
25.776473
 40
27.792059
 40
30.311108
 40
30.311108
 40
30.311108
 40
30.311108
 10
75.757667
 20
63.031031
 30
0.0
 10
76.065909
 20
63.049043
 30
0.0
 10
76.666324
 20
63.084127
 30
0.0
 10
77.213192
 20
63.297027
 30
0.0
 10
77.883143
 20
63.191418
 30
0.0
 10
77.873374
 20
63.372176
 30
0.0
 10
77.824330
 20
63.428175
 30
0.0
 10
77.696338
 20
63.579036
 30
0.0
 10
77.508060
 20
63.840587
 30
0.0
 10
77.383809
 20
64.249624
 30
0.0
 10
77.392516
 20
64.927377
 30
0.0
 10
77.803222
 20
65.986015
 30
0.0
 10
78.348658
 20
67.479209
 30
0.0
 10
78.989788
 20
68.738809
 30
0.0
 10
79.323191
 20
69.527536
 30
0.0
 10
79.497588
 20
69.771394
 30
0.0
 10
79.452744
 20
69.973174
 30
0.0
 10
79.033141
 20
70.074025
 30
0.0
 10
78.528670
 20
70.483589
 30
0.0
 10
77.715575
 20
70.918775
 30
0.0
 10
76.918158
 20
71.377428
 30
0.0
 10
76.398338
 20
71.735772
 30
0.0
 10
75.786750
 20
71.989398
 30
0.0
 10
76.493683
 20
72.946352
 30
0.0
 10
76.820470
 20
73.920537
 30
0.0
 10
77.783546
 20
75.501524
 30
0.0
 10
78.905157
 20
77.093054
 30
0.0
 10
80.797271
 20
78.542454
 30
0.0
 10
82.286521
 20
79.043070
 30
0.0
 10
83.154852
 20
79.380603
 30
0.0
 10
83.259616
 20
79.471917
 30
0.0
 10
83.630858
 20
79.917773
 30
0.0
 10
84.560110
 20
80.713566
 30
0.0
 10
86.218422
 20
81.819470
 30
0.0
 10
87.544943
 20
82.546206
 30
0.0
 10
88.281843
 20
82.949917
 30
0.0
 11
75.757667
 21
63.031031
 31
0.0
 11
76.640623
 21
63.121165
 31
0.0
 11
77.473875
 21
63.237114
 31
0.0
 11
77.874701
 21
63.325623
 31
0.0
 11
77.872052
 21
63.357397
 31
0.0
 11
77.833756
 21
63.417632
 31
0.0
 11
77.762546
 21
63.501956
 31
0.0
 11
77.528866
 21
63.851142
 31
0.0
 11
77.405441
 21
64.252138
 31
0.0
 11
77.402374
 21
64.672106
 31
0.0
 11
77.726187
 21
65.795919
 31
0.0
 11
78.370988
 21
67.438651
 31
0.0
 11
79.154748
 21
69.136523
 31
0.0
 11
79.395559
 21
69.620726
 31
0.0
 11
79.481355
 21
69.827097
 31
0.0
 11
79.467507
 21
69.888814
 31
0.0
 11
79.209734
 21
70.044022
 31
0.0
 11
78.580765
 21
70.415926
 31
0.0
 11
77.716685
 21
70.924062
 31
0.0
 11
76.856150
 21
71.430272
 31
0.0
 11
76.236525
 21
71.797090
 31
0.0
 11
75.991968
 21
71.945085
 31
0.0
 11
76.229334
 21
72.622529
 31
0.0
 11
76.894461
 21
73.957332
 31
0.0
 11
77.614464
 21
75.201139
 31
0.0
 11
79.076806
 21
77.107398
 31
0.0
 11
80.705100
 21
78.347581
 31
0.0
 11
83.046959
 21
79.338743
 31
0.0
 11
83.149355
 21
79.385164
 31
0.0
 11
83.242657
 21
79.460517
 31
0.0
 11
83.362061
 21
79.593223
 31
0.0
 11
84.427392
 21
80.568225
 31
0.0
 11
86.092364
 21
81.704207
 31
0.0
 11
88.281843
 21
82.949917
 31
0.0
  0
SPLINE
  5
11b
100
AcDbEntity
  8
Capa_1
 62
7
100
AcDbSpline
 70
0
 71
3
 72
40
 73
36
 74
34
 40
0.000000
 40
0.000000
 40
0.000000
 40
0.000000
 40
0.962391
 40
1.954717
 40
2.747934
 40
3.036207
 40
3.326516
 40
4.116372
 40
12.594901
 40
20.880479
 40
29.357092
 40
33.403330
 40
37.433185
 40
41.270896
 40
43.794071
 40
46.069012
 40
48.369250
 40
50.495465
 40
52.573977
 40
54.685992
 40
56.216987
 40
57.861535
 40
59.044302
 40
59.701050
 40
60.405786
 40
60.849831
 40
60.998378
 40
61.224718
 40
61.479861
 40
67.584854
 40
73.648395
 40
79.770180
 40
80.970871
 40
82.188912
 40
83.643714
 40
83.643714
 40
83.643714
 40
83.643714
 10
89.347317
 20
83.347427
 30
0.0
 10
89.658050
 20
83.420817
 30
0.0
 10
90.289181
 20
83.569880
 30
0.0
 10
91.211605
 20
83.744448
 30
0.0
 10
91.828218
 20
83.897552
 30
0.0
 10
92.376129
 20
83.927392
 30
0.0
 10
92.351666
 20
84.478890
 30
0.0
 10
91.585948
 20
87.354968
 30
0.0
 10
89.080169
 20
93.136742
 30
0.0
 10
82.086520
 20
98.280725
 30
0.0
 10
74.992370
 20
99.629873
 30
0.0
 10
69.522214
 20
98.663564
 30
0.0
 10
65.798704
 20
97.193086
 30
0.0
 10
62.934683
 20
95.188137
 30
0.0
 10
60.903748
 20
93.139477
 30
0.0
 10
59.432392
 20
91.277570
 30
0.0
 10
58.320291
 20
89.332625
 30
0.0
 10
57.443529
 20
87.344964
 30
0.0
 10
56.838384
 20
85.322779
 30
0.0
 10
56.507676
 20
83.439313
 30
0.0
 10
56.397205
 20
81.678271
 30
0.0
 10
56.376905
 20
80.226866
 30
0.0
 10
56.412152
 20
79.061649
 30
0.0
 10
56.577768
 20
78.228568
 30
0.0
 10
56.693216
 20
77.638345
 30
0.0
 10
56.785215
 20
77.215325
 30
0.0
 10
56.863416
 20
76.953736
 30
0.0
 10
56.917477
 20
76.750780
 30
0.0
 10
57.467180
 20
74.625559
 30
0.0
 10
59.203772
 20
70.764927
 30
0.0
 10
63.500195
 20
66.282572
 30
0.0
 10
67.571513
 20
64.234298
 30
0.0
 10
70.312850
 20
63.466006
 30
0.0
 10
71.579363
 20
63.205388
 30
0.0
 10
72.465293
 20
63.107201
 30
0.0
 10
72.947496
 20
63.053759
 30
0.0
 11
89.347317
 21
83.347427
 31
0.0
 11
90.285582
 21
83.561565
 31
0.0
 11
91.257294
 21
83.762777
 31
0.0
 11
92.037741
 21
83.904534
 31
0.0
 11
92.315381
 21
83.982108
 31
0.0
 11
92.355741
 21
84.269598
 31
0.0
 11
92.197648
 21
85.043470
 31
0.0
 11
88.476608
 21
92.661824
 31
0.0
 11
81.877954
 21
97.672670
 31
0.0
 11
73.541941
 21
99.210151
 31
0.0
 11
69.553151
 21
98.530739
 31
0.0
 11
65.814830
 21
97.025853
 31
0.0
 11
62.666028
 21
94.831981
 31
0.0
 11
60.882381
 21
93.047321
 31
0.0
 11
59.484388
 21
91.252613
 31
0.0
 11
58.328667
 21
89.263793
 31
0.0
 11
57.479013
 21
87.314722
 31
0.0
 11
56.880769
 21
85.324165
 31
0.0
 11
56.519284
 21
83.243316
 31
0.0
 11
56.411561
 21
81.716115
 31
0.0
 11
56.388887
 21
80.071723
 31
0.0
 11
56.459284
 21
78.891054
 31
0.0
 11
56.574279
 21
78.244451
 31
0.0
 11
56.712899
 21
77.553484
 31
0.0
 11
56.814347
 21
77.121182
 31
0.0
 11
56.855417
 21
76.978426
 31
0.0
 11
56.914756
 21
76.760002
 31
0.0
 11
56.979532
 21
76.513219
 31
0.0
 11
59.500911
 21
70.953219
 31
0.0
 11
63.695447
 21
66.574590
 31
0.0
 11
69.154401
 21
63.804018
 31
0.0
 11
70.310849
 21
63.481083
 31
0.0
 11
71.504443
 21
63.238274
 31
0.0
 11
72.947496
 21
63.053759
 31
0.0
  0
LINE
  5
11c
100
AcDbEntity
  8
Capa_1
 62
7
100
AcDbLine
 10
75.757667
 20
63.031040
 30
0.0
 11
75.757667
 21
63.031031
 31
0.0
  0
SPLINE
  5
11d
100
AcDbEntity
  8
Capa_1
 62
7
100
AcDbSpline
 70
0
 71
3
 72
10
 73
6
 74
4
 40
0.000000
 40
0.000000
 40
0.000000
 40
0.000000
 40
0.776692
 40
1.974392
 40
2.810874
 40
2.810874
 40
2.810874
 40
2.810874
 10
72.947496
 20
63.053759
 30
0.0
 10
73.206182
 20
63.043113
 30
0.0
 10
73.863774
 20
63.016049
 30
0.0
 10
74.801013
 20
63.009538
 30
0.0
 10
75.478908
 20
63.024774
 30
0.0
 10
75.757667
 20
63.031040
 30
0.0
 11
72.947496
 21
63.053759
 31
0.0
 11
73.723667
 21
63.025300
 31
0.0
 11
74.921327
 21
63.015617
 31
0.0
 11
75.757667
 21
63.031040
 31
0.0
  0
SPLINE
  5
11e
100
AcDbEntity
  8
Capa_1
 62
7
100
AcDbSpline
 70
0
 71
3
 72
10
 73
6
 74
4
 40
0.000000
 40
0.000000
 40
0.000000
 40
0.000000
 40
0.111696
 40
0.472861
 40
1.126102
 40
1.126102
 40
1.126102
 40
1.126102
 10
73.002501
 20
63.110373
 30
0.0
 10
72.965262
 20
63.110053
 30
0.0
 10
72.807613
 20
63.108698
 30
0.0
 10
72.433057
 20
63.143994
 30
0.0
 10
72.099433
 20
63.198820
 30
0.0
 10
71.884591
 20
63.234127
 30
0.0
 11
73.002501
 21
63.110373
 31
0.0
 11
72.890805
 21
63.110315
 31
0.0
 11
72.530684
 21
63.137759
 31
0.0
 11
71.884591
 21
63.234127
 31
0.0
  0
LINE
  5
11f
100
AcDbEntity
  8
Capa_1
 62
7
100
AcDbLine
 10
56.870058
 20
77.204466
 30
0.0
 11
56.859616
 21
77.318709
 31
0.0
  0
SPLINE
  5
120
100
AcDbEntity
  8
Capa_1
 62
7
100
AcDbSpline
 70
0
 71
3
 72
25
 73
21
 74
19
 40
0.000000
 40
0.000000
 40
0.000000
 40
0.000000
 40
2.051139
 40
4.139540
 40
6.186793
 40
6.711148
 40
7.010394
 40
7.117218
 40
7.144536
 40
7.196927
 40
7.265350
 40
7.611177
 40
8.210959
 40
8.850198
 40
13.002426
 40
17.113549
 40
21.249145
 40
21.505115
 40
21.696301
 40
21.781364
 40
21.781364
 40
21.781364
 40
21.781364
 10
71.884591
 20
63.234127
 30
0.0
 10
71.211079
 20
63.356066
 30
0.0
 10
69.851822
 20
63.602158
 30
0.0
 10
67.890319
 20
64.259956
 30
0.0
 10
66.472933
 20
64.902084
 30
0.0
 10
65.635697
 20
65.367052
 30
0.0
 10
65.363889
 20
65.514999
 30
0.0
 10
65.247497
 20
65.603982
 30
0.0
 10
65.212451
 20
65.656412
 30
0.0
 10
65.166218
 20
65.678466
 30
0.0
 10
65.024235
 20
65.738480
 30
0.0
 10
64.735379
 20
65.920025
 30
0.0
 10
64.294908
 20
66.208682
 30
0.0
 10
62.826611
 20
67.247301
 30
0.0
 10
60.638410
 20
69.295548
 30
0.0
 10
58.312907
 20
72.751534
 30
0.0
 10
57.298427
 20
75.430329
 30
0.0
 10
56.936063
 20
76.914046
 30
0.0
 10
56.893153
 20
77.086252
 30
0.0
 10
56.875495
 20
77.176635
 30
0.0
 10
56.870058
 20
77.204466
 30
0.0
 11
71.884591
 21
63.234127
 31
0.0
 11
69.875554
 21
63.647583
 31
0.0
 11
67.890864
 21
64.297521
 31
0.0
 11
66.030145
 21
65.151319
 31
0.0
 11
65.569881
 21
65.402526
 31
0.0
 11
65.312874
 21
65.555808
 31
0.0
 11
65.233008
 21
65.626751
 31
0.0
 11
65.215998
 21
65.648127
 31
0.0
 11
65.171400
 21
65.675619
 31
0.0
 11
65.108859
 21
65.703374
 31
0.0
 11
64.808597
 21
65.874951
 31
0.0
 11
64.307494
 21
66.204548
 31
0.0
 11
63.785631
 21
66.573719
 31
0.0
 11
60.749815
 21
69.406530
 31
0.0
 11
58.457360
 21
72.819150
 31
0.0
 11
56.992260
 21
76.686531
 31
0.0
 11
56.930713
 21
76.934992
 31
0.0
 11
56.886807
 21
77.121068
 31
0.0
 11
56.870058
 21
77.204466
 31
0.0
  0
LINE
  5
121
100
AcDbEntity
  8
Capa_1
 62
7
100
AcDbLine
 10
68.656448
 20
98.209617
 30
0.0
 11
68.757145
 21
98.241818
 31
0.0
  0
LINE
  5
122
100
AcDbEntity
  8
Capa_1
 62
7
100
AcDbLine
 10
68.757145
 20
98.241818
 30
0.0
 11
68.842376
 21
98.277745
 31
0.0
  0
SPLINE
  5
123
100
AcDbEntity
  8
Capa_1
 62
7
100
AcDbSpline
 70
0
 71
3
 72
34
 73
30
 74
28
 40
0.000000
 40
0.000000
 40
0.000000
 40
0.000000
 40
0.352190
 40
1.041155
 40
1.643919
 40
2.422198
 40
3.551163
 40
4.504949
 40
4.684451
 40
4.822203
 40
4.889050
 40
5.128203
 40
5.629936
 40
6.191439
 40
7.091942
 40
8.055217
 40
8.829191
 40
8.935818
 40
9.092760
 40
9.266062
 40
12.565867
 40
16.017714
 40
19.392064
 40
19.481626
 40
19.619330
 40
19.775356
 40
21.911710
 40
24.162730
 40
26.232826
 40
26.232826
 40
26.232826
 40
26.232826
 10
56.859616
 20
77.318709
 30
0.0
 10
56.832824
 20
77.433029
 30
0.0
 10
56.753621
 20
77.770986
 30
0.0
 10
56.656845
 20
78.310246
 30
0.0
 10
56.517064
 20
78.987143
 30
0.0
 10
56.481587
 20
79.825398
 30
0.0
 10
56.457652
 20
80.777840
 30
0.0
 10
56.471757
 20
81.532838
 30
0.0
 10
56.491523
 20
81.955481
 30
0.0
 10
56.497424
 20
82.084041
 30
0.0
 10
56.473810
 20
82.230482
 30
0.0
 10
56.490764
 20
82.501088
 30
0.0
 10
56.524534
 20
82.932734
 30
0.0
 10
56.595015
 20
83.584201
 30
0.0
 10
56.729908
 20
84.381567
 30
0.0
 10
56.907169
 20
85.242875
 30
0.0
 10
57.058433
 20
85.839145
 30
0.0
 10
57.160658
 20
86.169548
 30
0.0
 10
57.201796
 20
86.309245
 30
0.0
 10
57.536632
 20
87.471970
 30
0.0
 10
58.440697
 20
89.616484
 30
0.0
 10
60.308735
 20
92.445433
 30
0.0
 10
61.910346
 20
94.127953
 30
0.0
 10
62.830790
 20
94.898692
 30
0.0
 10
62.928661
 20
94.980819
 30
0.0
 10
63.547795
 20
95.503185
 30
0.0
 10
64.788284
 20
96.378305
 30
0.0
 10
66.662555
 20
97.451299
 30
0.0
 10
68.010632
 20
97.963999
 30
0.0
 10
68.656448
 20
98.209617
 30
0.0
 11
56.859616
 21
77.318709
 31
0.0
 11
56.781290
 21
77.662079
 31
0.0
 11
56.648589
 21
78.338144
 31
0.0
 11
56.542963
 21
78.931581
 31
0.0
 11
56.488376
 21
79.707943
 31
0.0
 11
56.465122
 21
80.836669
 31
0.0
 11
56.484063
 21
81.790266
 31
0.0
 11
56.492153
 21
81.969586
 31
0.0
 11
56.492153
 21
82.107338
 31
0.0
 11
56.484063
 21
82.173693
 31
0.0
 11
56.485634
 21
82.412841
 31
0.0
 11
56.525343
 21
82.913001
 31
0.0
 11
56.587102
 21
83.471097
 31
0.0
 11
56.731456
 21
84.359954
 31
0.0
 11
56.927813
 21
85.303004
 31
0.0
 11
57.124397
 21
86.051596
 31
0.0
 11
57.155512
 21
86.153582
 31
0.0
 11
57.200112
 21
86.304053
 31
0.0
 11
57.248575
 21
86.470442
 31
0.0
 11
58.507819
 21
89.520526
 31
0.0
 11
60.405261
 21
92.404093
 31
0.0
 11
62.749876
 21
94.830824
 31
0.0
 11
62.818479
 21
94.888399
 31
0.0
 11
62.923946
 21
94.976938
 31
0.0
 11
63.043443
 21
95.077260
 31
0.0
 11
64.774887
 21
96.328704
 31
0.0
 11
66.740544
 21
97.425646
 31
0.0
 11
68.656448
 21
98.209617
 31
0.0
  0
LINE
  5
124
100
AcDbEntity
  8
Capa_1
 62
7
100
AcDbLine
 10
72.697617
 20
99.089162
 30
0.0
 11
72.746215
 21
99.089190
 31
0.0
  0
LINE
  5
125
100
AcDbEntity
  8
Capa_1
 62
7
100
AcDbLine
 10
72.746215
 20
99.089190
 30
0.0
 11
72.907223
 21
99.106124
 31
0.0
  0
SPLINE
  5
126
100
AcDbEntity
  8
Capa_1
 62
7
100
AcDbSpline
 70
0
 71
3
 72
13
 73
9
 74
7
 40
0.000000
 40
0.000000
 40
0.000000
 40
0.000000
 40
0.572841
 40
1.358107
 40
2.107848
 40
2.867839
 40
3.601513
 40
3.947497
 40
3.947497
 40
3.947497
 40
3.947497
 10
68.842376
 20
98.277745
 30
0.0
 10
69.024275
 20
98.335956
 30
0.0
 10
69.455524
 20
98.473966
 30
0.0
 10
70.136715
 20
98.647142
 30
0.0
 10
70.881229
 20
98.824432
 30
0.0
 10
71.618702
 20
98.948467
 30
0.0
 10
72.223524
 20
99.054029
 30
0.0
 10
72.582561
 20
99.080636
 30
0.0
 10
72.697617
 20
99.089162
 30
0.0
 11
68.842376
 21
98.277745
 31
0.0
 11
69.389432
 21
98.447677
 31
0.0
 11
70.148693
 21
98.648090
 31
0.0
 11
70.879513
 21
98.815463
 31
0.0
 11
71.627369
 21
98.950731
 31
0.0
 11
72.352867
 21
99.059953
 31
0.0
 11
72.697617
 21
99.089162
 31
0.0
  0
LINE
  5
127
100
AcDbEntity
  8
Capa_1
 62
7
100
AcDbLine
 10
87.010742
 20
82.329903
 30
0.0
 11
86.953903
 21
82.298323
 31
0.0
  0
SPLINE
  5
128
100
AcDbEntity
  8
Capa_1
 62
7
100
AcDbSpline
 70
0
 71
3
 72
31
 73
27
 74
25
 40
0.000000
 40
0.000000
 40
0.000000
 40
0.000000
 40
5.587564
 40
11.256331
 40
16.910263
 40
17.038063
 40
17.134493
 40
17.178692
 40
17.415395
 40
17.849455
 40
18.288071
 40
21.083797
 40
23.826049
 40
26.657778
 40
26.897141
 40
27.032103
 40
27.388036
 40
28.331629
 40
29.379652
 40
30.292102
 40
30.650600
 40
31.219310
 40
32.070203
 40
32.310681
 40
32.482326
 40
32.548068
 40
32.548068
 40
32.548068
 40
32.548068
 10
72.907223
 20
99.106124
 30
0.0
 10
74.785736
 20
99.104661
 30
0.0
 10
78.570063
 20
99.101715
 30
0.0
 10
83.886988
 20
96.853848
 30
0.0
 10
86.886825
 20
94.401550
 30
0.0
 10
88.168747
 20
92.919798
 30
0.0
 10
88.227342
 20
92.852160
 30
0.0
 10
88.312914
 20
92.759967
 30
0.0
 10
88.466212
 20
92.577311
 30
0.0
 10
88.695403
 20
92.287221
 30
0.0
 10
89.441644
 20
91.317399
 30
0.0
 10
90.488927
 20
89.638698
 30
0.0
 10
91.734277
 20
87.032585
 30
0.0
 10
91.891869
 20
85.250049
 30
0.0
 10
92.366960
 20
84.111552
 30
0.0
 10
92.156664
 20
83.936539
 30
0.0
 10
91.664108
 20
83.950692
 30
0.0
 10
90.909119
 20
83.742736
 30
0.0
 10
89.959722
 20
83.555403
 30
0.0
 10
89.200014
 20
83.402092
 30
0.0
 10
88.622354
 20
83.192472
 30
0.0
 10
88.094858
 20
82.920051
 30
0.0
 10
87.610026
 20
82.653861
 30
0.0
 10
87.241176
 20
82.450981
 30
0.0
 10
87.101993
 20
82.373329
 30
0.0
 10
87.030533
 20
82.339322
 30
0.0
 10
87.010742
 20
82.329903
 30
0.0
 11
72.907223
 21
99.106124
 31
0.0
 11
78.482366
 21
98.733766
 31
0.0
 11
83.742832
 21
96.621320
 31
0.0
 11
88.091851
 21
93.008430
 31
0.0
 11
88.175603
 21
92.911898
 31
0.0
 11
88.239305
 21
92.839505
 31
0.0
 11
88.269171
 21
92.806924
 31
0.0
 11
88.423243
 21
92.627229
 31
0.0
 11
88.693778
 21
92.287789
 31
0.0
 11
88.960475
 21
91.939570
 31
0.0
 11
90.460983
 21
89.580639
 31
0.0
 11
91.556798
 21
87.066849
 31
0.0
 11
92.278279
 21
84.328573
 31
0.0
 11
92.315671
 21
84.092149
 31
0.0
 11
92.218243
 21
83.998756
 31
0.0
 11
91.868013
 21
83.935296
 31
0.0
 11
90.940329
 21
83.762751
 31
0.0
 11
89.915016
 21
83.545759
 31
0.0
 11
89.027446
 21
83.334135
 31
0.0
 11
88.690765
 21
83.210982
 31
0.0
 11
88.179621
 21
82.961658
 31
0.0
 11
87.431761
 21
82.555794
 31
0.0
 11
87.221184
 21
82.439663
 31
0.0
 11
87.069936
 21
82.358508
 31
0.0
 11
87.010742
 21
82.329903
 31
0.0
  0
LINE
  5
129
100
AcDbEntity
  8
Capa_1
 62
7
100
AcDbLine
 10
83.338777
 20
79.672047
 30
0.0
 11
83.132106
 21
79.439637
 31
0.0
  0
LINE
  5
12a
100
AcDbEntity
  8
Capa_1
 62
7
100
AcDbLine
 10
83.132106
 20
79.439637
 30
0.0
 11
82.423502
 21
79.188770
 31
0.0
  0
SPLINE
  5
12b
100
AcDbEntity
  8
Capa_1
 62
7
100
AcDbSpline
 70
0
 71
3
 72
13
 73
9
 74
7
 40
0.000000
 40
0.000000
 40
0.000000
 40
0.000000
 40
0.097704
 40
0.323506
 40
0.628591
 40
2.200400
 40
3.466317
 40
4.483085
 40
4.483085
 40
4.483085
 40
4.483085
 10
86.953903
 20
82.298323
 30
0.0
 10
86.926469
 20
82.280769
 30
0.0
 10
86.835633
 20
82.222648
 30
0.0
 10
86.655736
 20
82.115175
 30
0.0
 10
86.053659
 20
81.756310
 30
0.0
 10
85.165467
 20
81.201844
 30
0.0
 10
84.116137
 20
80.452293
 30
0.0
 10
83.578331
 20
79.912490
 30
0.0
 10
83.338777
 20
79.672047
 30
0.0
 11
86.953903
 21
82.298323
 31
0.0
 11
86.871442
 21
82.245918
 31
0.0
 11
86.678412
 21
82.128759
 31
0.0
 11
86.416552
 21
81.972215
 31
0.0
 11
85.088051
 21
81.132173
 31
0.0
 11
84.074028
 21
80.374346
 31
0.0
 11
83.338777
 21
79.672047
 31
0.0
  0
LINE
  5
12c
100
AcDbEntity
  8
Capa_1
 62
7
100
AcDbLine
 10
79.370705
 20
69.876368
 30
0.0
 11
79.431326
 21
69.838127
 31
0.0
  0
LINE
  5
12d
100
AcDbEntity
  8
Capa_1
 62
7
100
AcDbLine
 10
79.431326
 20
69.838127
 30
0.0
 11
79.092800
 21
69.161471
 31
0.0
  0
SPLINE
  5
12e
100
AcDbEntity
  8
Capa_1
 62
7
100
AcDbSpline
 70
0
 71
3
 72
22
 73
18
 74
16
 40
0.000000
 40
0.000000
 40
0.000000
 40
0.000000
 40
0.791522
 40
1.309317
 40
1.700293
 40
3.930630
 40
6.506788
 40
9.431237
 40
9.770839
 40
10.016372
 40
10.115401
 40
10.399299
 40
11.113797
 40
12.104221
 40
13.100245
 40
13.829384
 40
14.133777
 40
14.133777
 40
14.133777
 40
14.133777
 10
82.423502
 20
79.188770
 30
0.0
 10
82.174998
 20
79.100225
 30
0.0
 10
81.763929
 20
78.953756
 30
0.0
 10
81.235662
 20
78.747078
 30
0.0
 10
80.299708
 20
78.276596
 30
0.0
 10
78.939321
 20
77.157998
 30
0.0
 10
77.364068
 20
75.095279
 30
0.0
 10
76.485159
 20
73.364247
 30
0.0
 10
76.027691
 20
72.270960
 30
0.0
 10
75.955036
 20
72.066821
 30
0.0
 10
75.869602
 20
71.847433
 30
0.0
 10
76.366605
 20
71.734536
 30
0.0
 10
76.800087
 20
71.341251
 30
0.0
 10
77.637182
 20
70.910042
 30
0.0
 10
78.400676
 20
70.444845
 30
0.0
 10
78.987174
 20
70.103682
 30
0.0
 10
79.283447
 20
69.928085
 30
0.0
 10
79.370705
 20
69.876368
 30
0.0
 11
82.423502
 21
79.188770
 31
0.0
 11
81.679553
 21
78.918499
 31
0.0
 11
81.199958
 21
78.723306
 31
0.0
 11
80.850255
 21
78.548464
 31
0.0
 11
79.089842
 21
77.179029
 31
0.0
 11
77.499303
 21
75.152511
 31
0.0
 11
76.148940
 21
72.558495
 31
0.0
 11
76.020190
 21
72.244245
 31
0.0
 11
75.934274
 21
72.014235
 31
0.0
 11
75.909813
 21
71.918274
 31
0.0
 11
76.152630
 21
71.771175
 31
0.0
 11
76.767485
 21
71.407222
 31
0.0
 11
77.621237
 21
70.905181
 31
0.0
 11
78.480212
 21
70.400971
 31
0.0
 11
79.108724
 21
70.031356
 31
0.0
 11
79.370705
 21
69.876368
 31
0.0
  0
LINE
  5
12f
100
AcDbEntity
  8
Capa_1
 62
7
100
AcDbLine
 10
73.001626
 20
63.110598
 30
0.0
 11
73.002501
 21
63.110373
 31
0.0
  0
SPLINE
  5
130
100
AcDbEntity
  8
Capa_1
 62
7
100
AcDbSpline
 70
0
 71
3
 72
22
 73
18
 74
16
 40
0.000000
 40
0.000000
 40
0.000000
 40
0.000000
 40
1.839505
 40
3.576846
 40
4.752949
 40
5.215482
 40
5.670853
 40
6.116674
 40
6.237241
 40
6.358149
 40
6.793813
 40
7.318118
 40
7.865217
 40
8.398246
 40
9.228154
 40
10.356365
 40
11.045773
 40
11.045773
 40
11.045773
 40
11.045773
 10
79.092800
 20
69.161471
 30
0.0
 10
78.828274
 20
68.607478
 30
0.0
 10
78.313911
 20
67.530259
 30
0.0
 10
77.753145
 20
66.053612
 30
0.0
 10
77.349734
 20
64.989772
 30
0.0
 10
77.309786
 20
64.286963
 30
0.0
 10
77.459218
 20
63.832810
 30
0.0
 10
77.582307
 20
63.568605
 30
0.0
 10
77.832590
 20
63.369907
 30
0.0
 10
77.525871
 20
63.291241
 30
0.0
 10
77.234583
 20
63.266520
 30
0.0
 10
76.710104
 20
63.183732
 30
0.0
 10
76.186272
 20
63.130510
 30
0.0
 10
75.549793
 20
63.067564
 30
0.0
 10
74.719421
 20
63.075909
 30
0.0
 10
73.836920
 20
63.084738
 30
0.0
 10
73.231324
 20
63.103487
 30
0.0
 10
73.001626
 20
63.110598
 30
0.0
 11
79.092800
 21
69.161471
 31
0.0
 11
78.323647
 21
67.490489
 31
0.0
 11
77.685362
 21
65.874646
 31
0.0
 11
77.349231
 21
64.747600
 31
0.0
 11
77.339635
 21
64.285166
 31
0.0
 11
77.462771
 21
63.846759
 31
0.0
 11
77.707005
 21
63.473790
 31
0.0
 11
77.783277
 21
63.380415
 31
0.0
 11
77.673263
 21
63.330258
 31
0.0
 11
77.242947
 21
63.262208
 31
0.0
 11
76.723558
 21
63.190568
 31
0.0
 11
76.179811
 21
63.130103
 31
0.0
 11
75.648701
 21
63.084916
 31
0.0
 11
74.818853
 21
63.074905
 31
0.0
 11
73.690759
 21
63.091089
 31
0.0
 11
73.001626
 21
63.110598
 31
0.0
  0
LINE
  5
131
100
AcDbEntity
  8
Capa_1
 62
7
100
AcDbLine
 10
65.281183
 20
65.623815
 30
0.0
 11
65.281183
 21
65.623815
 31
0.0
  0
SPLINE
  5
132
100
AcDbEntity
  8
Capa_1
 62
7
100
AcDbSpline
 70
0
 71
3
 72
10
 73
6
 74
4
 40
0.000000
 40
0.000000
 40
0.000000
 40
0.000000
 40
0.196789
 40
0.393577
 40
0.787154
 40
0.787154
 40
0.787154
 40
0.787154
 10
65.281183
 20
65.623815
 30
0.0
 10
65.331838
 20
65.591859
 30
0.0
 10
65.433147
 20
65.527947
 30
0.0
 10
65.751546
 20
65.327079
 30
0.0
 10
65.469328
 20
65.505121
 30
0.0
 10
65.281183
 20
65.623815
 30
0.0
 11
65.281183
 21
65.623815
 31
0.0
 11
65.447619
 21
65.518816
 31
0.0
 11
65.614055
 21
65.413817
 31
0.0
 11
65.281183
 21
65.623815
 31
0.0
  0
LINE
  5
133
100
AcDbEntity
  8
Capa_1
 62
7
100
AcDbLine
 10
79.675815
 20
64.459367
 30
0.0
 11
79.675702
 21
64.459367
 31
0.0
  0
SPLINE
  5
134
100
AcDbEntity
  8
Capa_1
 62
7
100
AcDbSpline
 70
0
 71
3
 72
22
 73
18
 74
16
 40
0.000000
 40
0.000000
 40
0.000000
 40
0.000000
 40
1.094909
 40
2.134416
 40
3.087749
 40
3.394917
 40
3.455812
 40
3.708687
 40
5.121155
 40
6.421497
 40
7.819779
 40
7.967518
 40
9.133341
 40
10.652186
 40
12.088488
 40
12.528865
 40
13.465591
 40
13.465591
 40
13.465591
 40
13.465591
 10
79.675702
 20
64.459367
 30
0.0
 10
80.017580
 20
64.581581
 30
0.0
 10
80.684037
 20
64.819827
 30
0.0
 10
81.678722
 20
65.172265
 30
0.0
 10
82.264610
 20
65.590234
 30
0.0
 10
82.793765
 20
65.671432
 30
0.0
 10
82.826172
 20
65.910554
 30
0.0
 10
81.976033
 20
65.617814
 30
0.0
 10
81.267940
 20
66.128125
 30
0.0
 10
79.950487
 20
66.835795
 30
0.0
 10
80.665753
 20
68.780941
 30
0.0
 10
79.805263
 20
68.274906
 30
0.0
 10
79.650796
 20
67.246869
 30
0.0
 10
79.126261
 20
66.024120
 30
0.0
 10
78.450839
 20
65.027274
 30
0.0
 10
78.790342
 20
63.958493
 30
0.0
 10
79.317342
 20
64.256594
 30
0.0
 10
79.675815
 20
64.459367
 30
0.0
 11
79.675702
 21
64.459367
 31
0.0
 11
80.706894
 21
64.827426
 31
0.0
 11
81.669932
 21
65.218747
 31
0.0
 11
82.534275
 21
65.620937
 31
0.0
 11
82.803109
 21
65.769532
 31
0.0
 11
82.809715
 21
65.830068
 31
0.0
 11
82.556852
 21
65.827580
 31
0.0
 11
81.181084
 21
66.147466
 31
0.0
 11
80.340120
 21
67.139267
 31
0.0
 11
80.260918
 21
68.535305
 31
0.0
 11
80.132676
 21
68.461952
 31
0.0
 11
79.633218
 21
67.408535
 31
0.0
 11
79.059837
 21
66.002078
 31
0.0
 11
78.604046
 21
64.640014
 31
0.0
 11
78.767344
 21
64.231033
 31
0.0
 11
79.675815
 21
64.459367
 31
0.0
  0
LINE
  5
135
100
AcDbEntity
  8
Capa_1
 62
7
100
AcDbLine
 10
79.934754
 20
67.906626
 30
0.0
 11
80.148565
 21
68.365548
 31
0.0
  0
LINE
  5
136
100
AcDbEntity
  8
Capa_1
 62
7
100
AcDbLine
 10
80.148565
 20
68.365548
 30
0.0
 11
80.165781
 21
67.920145
 31
0.0
  0
SPLINE
  5
137
100
AcDbEntity
  8
Capa_1
 62
7
100
AcDbSpline
 70
0
 71
3
 72
13
 73
9
 74
7
 40
0.000000
 40
0.000000
 40
0.000000
 40
0.000000
 40
0.138098
 40
0.364593
 40
0.826541
 40
1.832641
 40
2.850901
 40
3.874477
 40
3.874477
 40
3.874477
 40
3.874477
 10
78.748433
 20
64.303834
 30
0.0
 10
78.711757
 20
64.336241
 30
0.0
 10
78.614930
 20
64.421799
 30
0.0
 10
78.700536
 20
64.724808
 30
0.0
 10
78.853334
 20
65.238857
 30
0.0
 10
79.142506
 20
66.034244
 30
0.0
 10
79.512639
 20
66.974669
 30
0.0
 10
79.793805
 20
67.595435
 30
0.0
 10
79.934754
 20
67.906626
 30
0.0
 11
78.748433
 21
64.303834
 31
0.0
 11
78.657715
 21
64.407956
 31
0.0
 11
78.675151
 21
64.633779
 31
0.0
 11
78.808066
 21
65.076191
 31
0.0
 11
79.143658
 21
66.024672
 31
0.0
 11
79.520253
 21
66.970732
 31
0.0
 11
79.934754
 21
67.906626
 31
0.0
  0
LINE
  5
138
100
AcDbEntity
  8
Capa_1
 62
7
100
AcDbLine
 10
82.241046
 20
65.765830
 30
0.0
 11
82.631161
 21
65.751154
 31
0.0
  0
LINE
  5
139
100
AcDbEntity
  8
Capa_1
 62
7
100
AcDbLine
 10
82.631161
 20
65.751154
 30
0.0
 11
82.424123
 21
65.646986
 31
0.0
  0
SPLINE
  5
13a
100
AcDbEntity
  8
Capa_1
 62
7
100
AcDbSpline
 70
0
 71
3
 72
10
 73
6
 74
4
 40
0.000000
 40
0.000000
 40
0.000000
 40
0.000000
 40
1.182117
 40
2.188720
 40
3.328324
 40
3.328324
 40
3.328324
 40
3.328324
 10
80.165781
 20
67.920145
 30
0.0
 10
80.211564
 20
67.520764
 30
0.0
 10
80.296334
 20
66.781301
 30
0.0
 10
81.127095
 20
65.905689
 30
0.0
 10
81.854699
 20
65.814337
 30
0.0
 10
82.241046
 20
65.765830
 30
0.0
 11
80.165781
 21
67.920145
 31
0.0
 11
80.437765
 21
66.769742
 31
0.0
 11
81.136111
 21
66.044786
 31
0.0
 11
82.241046
 21
65.765830
 31
0.0
  0
LINE
  5
13b
100
AcDbEntity
  8
Capa_1
 62
7
100
AcDbLine
 10
78.748517
 20
64.303890
 30
0.0
 11
78.748433
 21
64.303834
 31
0.0
  0
SPLINE
  5
13c
100
AcDbEntity
  8
Capa_1
 62
7
100
AcDbSpline
 70
0
 71
3
 72
13
 73
9
 74
7
 40
0.000000
 40
0.000000
 40
0.000000
 40
0.000000
 40
1.020765
 40
2.196067
 40
3.353432
 40
3.708824
 40
3.856762
 40
3.936782
 40
3.936782
 40
3.936782
 40
3.936782
 10
82.424123
 20
65.646986
 30
0.0
 10
82.115993
 20
65.501973
 30
0.0
 10
81.453085
 20
65.189995
 30
0.0
 10
80.413055
 20
64.788163
 30
0.0
 10
79.560578
 20
64.479869
 30
0.0
 10
79.039843
 20
64.333104
 30
0.0
 10
78.845266
 20
64.262371
 30
0.0
 10
78.773655
 20
64.293103
 30
0.0
 10
78.748517
 20
64.303890
 30
0.0
 11
82.424123
 21
65.646986
 31
0.0
 11
81.495807
 21
65.222499
 31
0.0
 11
80.403349
 21
64.789055
 31
0.0
 11
79.309406
 21
64.411191
 31
0.0
 11
78.969778
 21
64.306520
 31
0.0
 11
78.824475
 21
64.278720
 31
0.0
 11
78.748517
 21
64.303890
 31
0.0
  0
LINE
  5
13d
100
AcDbEntity
  8
Capa_1
 62
7
100
AcDbLine
 10
88.126762
 20
69.371303
 30
0.0
 11
88.119706
 21
71.065257
 31
0.0
  0
LINE
  5
13e
100
AcDbEntity
  8
Capa_1
 62
7
100
AcDbLine
 10
88.119706
 20
71.065257
 30
0.0
 11
87.906403
 21
71.140046
 31
0.0
  0
SPLINE
  5
13f
100
AcDbEntity
  8
Capa_1
 62
7
100
AcDbSpline
 70
0
 71
3
 72
16
 73
12
 74
10
 40
0.000000
 40
0.000000
 40
0.000000
 40
0.000000
 40
1.519216
 40
3.055150
 40
4.566750
 40
4.844337
 40
5.045670
 40
5.127146
 40
5.359351
 40
5.967917
 40
6.821149
 40
6.821149
 40
6.821149
 40
6.821149
 10
83.053309
 20
66.938181
 30
0.0
 10
83.558377
 20
66.973421
 30
0.0
 10
84.574068
 20
67.044289
 30
0.0
 10
86.086651
 20
67.251794
 30
0.0
 10
87.164750
 20
67.472648
 30
0.0
 10
87.823118
 20
67.609036
 30
0.0
 10
87.993705
 20
67.659676
 30
0.0
 10
88.188444
 20
67.671765
 30
0.0
 10
88.062292
 20
68.092158
 30
0.0
 10
88.161511
 20
68.571442
 30
0.0
 10
88.139569
 20
69.076505
 30
0.0
 10
88.126762
 20
69.371303
 30
0.0
 11
83.053309
 21
66.938181
 31
0.0
 11
84.567577
 21
67.060704
 31
0.0
 11
86.089301
 21
67.269142
 31
0.0
 11
87.573183
 21
67.557292
 31
0.0
 11
87.844101
 21
67.617776
 31
0.0
 11
88.040756
 21
67.660919
 31
0.0
 11
88.120553
 21
67.677377
 31
0.0
 11
88.126302
 21
67.909511
 31
0.0
 11
88.128539
 21
68.518073
 31
0.0
 11
88.126762
 21
69.371303
 31
0.0
  0
LINE
  5
140
100
AcDbEntity
  8
Capa_1
 62
7
100
AcDbLine
 10
87.903581
 20
78.344389
 30
0.0
 11
88.119735
 21
78.420477
 31
0.0
  0
LINE
  5
141
100
AcDbEntity
  8
Capa_1
 62
7
100
AcDbLine
 10
88.119735
 20
78.420477
 30
0.0
 11
88.126790
 21
79.659065
 31
0.0
  0
LINE
  5
142
100
AcDbEntity
  8
Capa_1
 62
7
100
AcDbLine
 10
88.126790
 20
79.659065
 30
0.0
 11
88.133846
 21
80.897654
 31
0.0
  0
LINE
  5
143
100
AcDbEntity
  8
Capa_1
 62
7
100
AcDbLine
 10
88.133846
 20
80.897654
 30
0.0
 11
87.972527
 21
80.879592
 31
0.0
  0
SPLINE
  5
144
100
AcDbEntity
  8
Capa_1
 62
7
100
AcDbSpline
 70
0
 71
3
 72
10
 73
6
 74
4
 40
0.000000
 40
0.000000
 40
0.000000
 40
0.000000
 40
3.122063
 40
6.057076
 40
9.179970
 40
9.179970
 40
9.179970
 40
9.179970
 10
87.906403
 20
71.140046
 30
0.0
 10
86.988954
 20
71.739044
 30
0.0
 10
85.209024
 20
72.901153
 30
0.0
 10
85.207835
 20
76.580147
 30
0.0
 10
86.986610
 20
77.744274
 30
0.0
 10
87.903581
 20
78.344389
 30
0.0
 11
87.906403
 21
71.140046
 31
0.0
 11
85.626739
 21
73.273216
 31
0.0
 11
85.625581
 21
76.208229
 31
0.0
 11
87.903581
 21
78.344389
 31
0.0
  0
LINE
  5
145
100
AcDbEntity
  8
Capa_1
 62
7
100
AcDbLine
 10
83.053394
 20
66.938407
 30
0.0
 11
83.053309
 21
66.938181
 31
0.0
  0
SPLINE
  5
146
100
AcDbEntity
  8
Capa_1
 62
7
100
AcDbSpline
 70
0
 71
3
 72
16
 73
12
 74
10
 40
0.000000
 40
0.000000
 40
0.000000
 40
0.000000
 40
1.648044
 40
3.413146
 40
5.184731
 40
7.757742
 40
10.983809
 40
14.454502
 40
16.049284
 40
16.841546
 40
18.045791
 40
18.045791
 40
18.045791
 40
18.045791
 10
87.972527
 20
80.879592
 30
0.0
 10
87.433355
 20
80.754889
 30
0.0
 10
86.316712
 20
80.496628
 30
0.0
 10
84.859583
 20
79.506291
 30
0.0
 10
83.470931
 20
77.984547
 30
0.0
 10
82.508900
 20
75.614295
 30
0.0
 10
81.683033
 20
72.619037
 30
0.0
 10
81.513348
 20
69.887017
 30
0.0
 10
81.151669
 20
67.897550
 30
0.0
 10
81.884703
 20
66.762314
 30
0.0
 10
82.613688
 20
66.872154
 30
0.0
 10
83.053394
 20
66.938407
 30
0.0
 11
87.972527
 21
80.879592
 31
0.0
 11
86.391707
 21
80.413699
 31
0.0
 11
84.908761
 21
79.456383
 31
0.0
 11
83.725478
 21
78.137916
 31
0.0
 11
82.635246
 21
75.807297
 31
0.0
 11
81.811483
 21
72.688175
 31
0.0
 11
81.376797
 21
69.244811
 31
0.0
 11
81.385383
 21
67.650052
 31
0.0
 11
81.851233
 21
67.009222
 31
0.0
 11
83.053394
 21
66.938407
 31
0.0
  0
LINE
  5
147
100
AcDbEntity
  8
Capa_1
 62
7
100
AcDbLine
 10
88.018389
 20
80.825066
 30
0.0
 11
88.079179
 21
80.837484
 31
0.0
  0
LINE
  5
148
100
AcDbEntity
  8
Capa_1
 62
7
100
AcDbLine
 10
88.079179
 20
80.837484
 30
0.0
 11
88.079179
 21
79.648030
 31
0.0
  0
SPLINE
  5
149
100
AcDbEntity
  8
Capa_1
 62
7
100
AcDbSpline
 70
0
 71
3
 72
16
 73
12
 74
10
 40
0.000000
 40
0.000000
 40
0.000000
 40
0.000000
 40
0.687514
 40
1.988355
 40
4.196357
 40
9.307240
 40
13.067455
 40
16.356148
 40
16.475799
 40
16.577374
 40
16.638865
 40
16.638865
 40
16.638865
 40
16.638865
 10
81.875511
 20
67.057053
 30
0.0
 10
81.727254
 20
67.239692
 30
0.0
 10
81.298480
 20
67.767902
 30
0.0
 10
81.446207
 20
69.263844
 30
0.0
 10
81.672399
 20
72.058942
 30
0.0
 10
82.419861
 20
75.733319
 30
0.0
 10
84.429545
 20
79.415889
 30
0.0
 10
86.705973
 20
80.561829
 30
0.0
 10
87.852750
 20
80.791024
 30
0.0
 10
87.945062
 20
80.810037
 30
0.0
 10
87.998310
 20
80.820951
 30
0.0
 10
88.018389
 20
80.825066
 30
0.0
 11
81.875511
 21
67.057053
 31
0.0
 11
81.490371
 21
67.626564
 31
0.0
 11
81.409949
 21
68.924916
 31
0.0
 11
81.623685
 21
71.122549
 31
0.0
 11
82.798979
 21
76.096461
 31
0.0
 11
84.812938
 21
79.271866
 31
0.0
 11
87.741416
 21
80.768368
 31
0.0
 11
87.858642
 21
80.792331
 31
0.0
 11
87.958152
 21
80.812712
 31
0.0
 11
88.018389
 21
80.825066
 31
0.0
  0
LINE
  5
14a
100
AcDbEntity
  8
Capa_1
 62
7
100
AcDbLine
 10
87.869291
 20
71.080526
 30
0.0
 11
88.078220
 21
71.014345
 31
0.0
  0
LINE
  5
14b
100
AcDbEntity
  8
Capa_1
 62
7
100
AcDbLine
 10
88.078220
 20
71.014345
 30
0.0
 11
88.078220
 21
69.377456
 31
0.0
  0
LINE
  5
14c
100
AcDbEntity
  8
Capa_1
 62
7
100
AcDbLine
 10
88.078220
 20
69.377456
 30
0.0
 11
88.078220
 21
67.740567
 31
0.0
  0
LINE
  5
14d
100
AcDbEntity
  8
Capa_1
 62
7
100
AcDbLine
 10
88.078220
 20
67.740567
 30
0.0
 11
87.936347
 21
67.707208
 31
0.0
  0
SPLINE
  5
14e
100
AcDbEntity
  8
Capa_1
 62
7
100
AcDbSpline
 70
0
 71
3
 72
16
 73
12
 74
10
 40
0.000000
 40
0.000000
 40
0.000000
 40
0.000000
 40
0.772643
 40
1.113412
 40
1.194193
 40
1.686196
 40
2.424890
 40
3.152094
 40
5.749912
 40
8.253340
 40
10.811080
 40
10.811080
 40
10.811080
 40
10.811080
 10
88.079179
 20
79.648030
 30
0.0
 10
88.071686
 20
79.390598
 30
0.0
 10
88.060889
 20
79.019628
 30
0.0
 10
88.093621
 20
78.620978
 30
0.0
 10
87.999824
 20
78.318118
 30
0.0
 10
87.425860
 20
78.358866
 30
0.0
 10
86.954338
 20
77.908464
 30
0.0
 10
85.845929
 20
77.115655
 30
0.0
 10
85.015440
 20
75.162180
 30
0.0
 10
85.583263
 20
72.415189
 30
0.0
 10
87.101849
 20
71.528585
 30
0.0
 10
87.869291
 20
71.080526
 30
0.0
 11
88.079179
 21
79.648030
 31
0.0
 11
88.076596
 21
78.875392
 31
0.0
 11
88.064913
 21
78.534823
 31
0.0
 11
88.038229
 21
78.458577
 31
0.0
 11
87.572536
 21
78.299842
 31
0.0
 11
86.939686
 21
77.918830
 31
0.0
 11
86.376871
 21
77.458325
 31
0.0
 11
85.288575
 21
75.099454
 31
0.0
 11
85.858975
 21
72.661874
 31
0.0
 11
87.869291
 21
71.080526
 31
0.0
  0
LINE
  5
14f
100
AcDbEntity
  8
Capa_1
 62
7
100
AcDbLine
 10
81.874552
 20
67.056940
 30
0.0
 11
81.875511
 21
67.057053
 31
0.0
  0
SPLINE
  5
150
100
AcDbEntity
  8
Capa_1
 62
7
100
AcDbSpline
 70
0
 71
3
 72
10
 73
6
 74
4
 40
0.000000
 40
0.000000
 40
0.000000
 40
0.000000
 40
2.509835
 40
4.830485
 40
6.118290
 40
6.118290
 40
6.118290
 40
6.118290
 10
87.936347
 20
67.707208
 30
0.0
 10
87.116005
 20
67.548128
 30
0.0
 10
85.537158
 20
67.241960
 30
0.0
 10
83.505827
 20
66.945915
 30
0.0
 10
82.303607
 20
67.027738
 30
0.0
 10
81.874552
 20
67.056940
 30
0.0
 11
87.936347
 21
67.707208
 31
0.0
 11
85.468595
 21
67.249524
 31
0.0
 11
83.161184
 21
67.001995
 31
0.0
 11
81.874552
 21
67.056940
 31
0.0
  0
LINE
  5
151
100
AcDbEntity
  8
Capa_1
 62
7
100
AcDbLine
 10
90.274388
 20
79.604286
 30
0.0
 11
90.281444
 21
78.372047
 31
0.0
  0
LINE
  5
152
100
AcDbEntity
  8
Capa_1
 62
7
100
AcDbLine
 10
90.281444
 20
78.372047
 30
0.0
 11
90.484108
 21
78.297879
 31
0.0
  0
SPLINE
  5
153
100
AcDbEntity
  8
Capa_1
 62
7
100
AcDbSpline
 70
0
 71
3
 72
16
 73
12
 74
10
 40
0.000000
 40
0.000000
 40
0.000000
 40
0.000000
 40
4.335767
 40
8.224104
 40
12.419146
 40
14.015828
 40
15.586202
 40
16.768703
 40
16.834978
 40
17.166048
 40
18.010412
 40
18.010412
 40
18.010412
 40
18.010412
 10
90.686715
 20
68.417872
 30
0.0
 10
92.011341
 20
69.122918
 30
0.0
 10
94.523899
 20
70.460254
 30
0.0
 10
95.792832
 20
74.823928
 30
0.0
 10
94.665748
 20
78.021181
 30
0.0
 10
92.834716
 20
79.859082
 30
0.0
 10
91.709053
 20
80.325590
 30
0.0
 10
90.515922
 20
81.167007
 30
0.0
 10
90.233248
 20
80.702250
 30
0.0
 10
90.312114
 20
80.266212
 30
0.0
 10
90.290159
 20
79.881000
 30
0.0
 10
90.274388
 20
79.604286
 30
0.0
 11
90.686715
 21
68.417872
 31
0.0
 11
94.195803
 21
70.964473
 31
0.0
 11
95.352607
 21
74.676745
 31
0.0
 11
93.961283
 21
78.634345
 31
0.0
 11
92.820052
 21
79.751030
 31
0.0
 11
91.461377
 21
80.538481
 31
0.0
 11
90.317060
 21
80.836553
 31
0.0
 11
90.283307
 21
80.779518
 31
0.0
 11
90.271848
 21
80.448646
 31
0.0
 11
90.274388
 21
79.604286
 31
0.0
  0
LINE
  5
154
100
AcDbEntity
  8
Capa_1
 62
7
100
AcDbLine
 10
90.463788
 20
71.176425
 30
0.0
 11
90.267897
 21
71.100507
 31
0.0
  0
LINE
  5
155
100
AcDbEntity
  8
Capa_1
 62
7
100
AcDbLine
 10
90.267897
 20
71.100507
 30
0.0
 11
90.267897
 21
69.699669
 31
0.0
  0
SPLINE
  5
156
100
AcDbEntity
  8
Capa_1
 62
7
100
AcDbSpline
 70
0
 71
3
 72
10
 73
6
 74
4
 40
0.000000
 40
0.000000
 40
0.000000
 40
0.000000
 40
3.012977
 40
5.896421
 40
8.952035
 40
8.952035
 40
8.952035
 40
8.952035
 10
90.484108
 20
78.297879
 30
0.0
 10
91.355863
 20
77.702561
 30
0.0
 10
93.061894
 20
76.537518
 30
0.0
 10
93.038083
 20
72.973605
 30
0.0
 10
91.338311
 20
71.786952
 30
0.0
 10
90.463788
 20
71.176425
 30
0.0
 11
90.484108
 21
78.297879
 31
0.0
 11
92.649825
 21
76.203196
 31
0.0
 11
92.641603
 21
73.319764
 31
0.0
 11
90.463788
 21
71.176425
 31
0.0
  0
LINE
  5
157
100
AcDbEntity
  8
Capa_1
 62
7
100
AcDbLine
 10
90.686715
 20
68.417872
 30
0.0
 11
90.686715
 21
68.417872
 31
0.0
  0
LINE
  5
158
100
AcDbEntity
  8
Capa_1
 62
7
100
AcDbLine
 10
90.321915
 20
69.712905
 30
0.0
 11
90.321915
 21
71.045869
 31
0.0
  0
LINE
  5
159
100
AcDbEntity
  8
Capa_1
 62
7
100
AcDbLine
 10
90.321915
 20
71.045869
 30
0.0
 11
90.572810
 21
71.145183
 31
0.0
  0
SPLINE
  5
15a
100
AcDbEntity
  8
Capa_1
 62
7
100
AcDbSpline
 70
0
 71
3
 72
13
 73
9
 74
7
 40
0.000000
 40
0.000000
 40
0.000000
 40
0.000000
 40
0.948260
 40
1.329995
 40
1.406686
 40
1.476833
 40
1.616895
 40
1.796639
 40
1.796639
 40
1.796639
 40
1.796639
 10
90.267897
 20
69.699669
 30
0.0
 10
90.276782
 20
69.372404
 30
0.0
 10
90.289242
 20
68.913395
 30
0.0
 10
90.251917
 20
68.497695
 30
0.0
 10
90.303314
 20
68.278879
 30
0.0
 10
90.411778
 20
68.332327
 30
0.0
 10
90.527231
 20
68.358395
 30
0.0
 10
90.629331
 20
68.396471
 30
0.0
 10
90.686715
 20
68.417872
 30
0.0
 11
90.267897
 21
69.699669
 31
0.0
 11
90.270276
 21
68.751411
 31
0.0
 11
90.283167
 21
68.369894
 31
0.0
 11
90.315198
 21
68.300213
 31
0.0
 11
90.383426
 21
68.316506
 31
0.0
 11
90.516905
 21
68.358945
 31
0.0
 11
90.686715
 21
68.417872
 31
0.0
  0
LINE
  5
15b
100
AcDbEntity
  8
Capa_1
 62
7
100
AcDbLine
 10
90.321915
 20
79.595763
 30
0.0
 11
90.321915
 21
80.761510
 31
0.0
  0
LINE
  5
15c
100
AcDbEntity
  8
Capa_1
 62
7
100
AcDbLine
 10
90.321915
 20
80.761510
 30
0.0
 11
90.423261
 21
80.743448
 31
0.0
  0
SPLINE
  5
15d
100
AcDbEntity
  8
Capa_1
 62
7
100
AcDbSpline
 70
0
 71
3
 72
16
 73
12
 74
10
 40
0.000000
 40
0.000000
 40
0.000000
 40
0.000000
 40
1.685049
 40
3.244875
 40
4.782131
 40
6.250891
 40
7.747613
 40
9.364656
 40
9.443103
 40
9.767713
 40
10.553507
 40
10.553507
 40
10.553507
 40
10.553507
 10
90.572810
 20
71.145183
 30
0.0
 10
91.075650
 20
71.418083
 30
0.0
 10
92.043961
 20
71.943602
 30
0.0
 10
92.863546
 20
73.390182
 30
0.0
 10
93.082449
 20
74.938408
 30
0.0
 10
92.690281
 20
76.391267
 30
0.0
 10
91.922142
 20
77.832300
 30
0.0
 10
90.588325
 20
77.941622
 30
0.0
 10
90.299335
 20
78.560441
 30
0.0
 10
90.348945
 20
78.970468
 30
0.0
 10
90.333116
 20
79.336637
 30
0.0
 10
90.321915
 20
79.595763
 30
0.0
 11
90.572810
 21
71.145183
 31
0.0
 11
91.970175
 21
72.086863
 31
0.0
 11
92.770439
 21
73.425756
 31
0.0
 11
92.979573
 21
74.948720
 31
0.0
 11
92.634136
 21
76.376280
 31
0.0
 11
91.762298
 21
77.592864
 31
0.0
 11
90.369215
 21
78.413929
 31
0.0
 11
90.337372
 21
78.485622
 31
0.0
 11
90.324388
 21
78.809972
 31
0.0
 11
90.321915
 21
79.595763
 31
0.0
  0
LINE
  5
15e
100
AcDbEntity
  8
Capa_1
 62
7
100
AcDbLine
 10
90.321915
 20
69.713046
 30
0.0
 11
90.321915
 21
69.712905
 31
0.0
  0
SPLINE
  5
15f
100
AcDbEntity
  8
Capa_1
 62
7
100
AcDbSpline
 70
0
 71
3
 72
16
 73
12
 74
10
 40
0.000000
 40
0.000000
 40
0.000000
 40
0.000000
 40
4.680205
 40
9.291945
 40
14.154330
 40
15.042563
 40
16.027349
 40
16.629006
 40
16.743134
 40
17.151537
 40
17.963040
 40
17.963040
 40
17.963040
 40
17.963040
 10
90.423261
 20
80.743448
 30
0.0
 10
91.916835
 20
80.038692
 30
0.0
 10
94.882136
 20
78.639489
 30
0.0
 10
95.679603
 20
73.322481
 30
0.0
 10
93.810631
 20
70.118570
 30
0.0
 10
91.773160
 20
68.906427
 30
0.0
 10
91.154534
 20
68.752819
 30
0.0
 10
90.367947
 20
68.188433
 30
0.0
 10
90.322004
 20
68.603100
 30
0.0
 10
90.327268
 20
69.026825
 30
0.0
 10
90.324053
 20
69.438916
 30
0.0
 10
90.321915
 20
69.713046
 30
0.0
 11
90.423261
 21
80.743448
 31
0.0
 11
94.284510
 21
78.098628
 31
0.0
 11
95.134116
 21
73.565824
 31
0.0
 11
92.591687
 21
69.421087
 31
0.0
 11
91.824490
 21
68.973463
 31
0.0
 11
90.928819
 21
68.564102
 31
0.0
 11
90.355697
 21
68.381014
 31
0.0
 11
90.335148
 21
68.493277
 31
0.0
 11
90.324778
 21
68.901548
 31
0.0
 11
90.321915
 21
69.713046
 31
0.0
  0
LINE
  5
160
100
AcDbEntity
  8
Capa_1
 62
7
100
AcDbLine
 10
79.901198
 20
71.102285
 30
0.0
 11
79.901198
 21
71.102285
 31
0.0
  0
SPLINE
  5
161
100
AcDbEntity
  8
Capa_1
 62
7
100
AcDbSpline
 70
0
 71
3
 72
25
 73
21
 74
19
 40
0.000000
 40
0.000000
 40
0.000000
 40
0.000000
 40
0.038771
 40
0.093429
 40
0.152144
 40
0.301095
 40
0.593230
 40
0.965501
 40
4.144668
 40
6.238574
 40
6.956391
 40
8.556971
 40
10.840925
 40
13.460392
 40
13.938704
 40
14.301181
 40
15.373221
 40
16.352373
 40
16.728992
 40
16.806051
 40
16.806051
 40
16.806051
 40
16.806051
 10
79.901198
 20
71.102285
 30
0.0
 10
79.904202
 20
71.114855
 30
0.0
 10
79.911443
 20
71.145147
 30
0.0
 10
79.921500
 20
71.194859
 30
0.0
 10
79.935069
 20
71.281353
 30
0.0
 10
79.989146
 20
71.439609
 30
0.0
 10
80.074653
 20
71.696685
 30
0.0
 10
80.511003
 20
72.898065
 30
0.0
 10
81.179659
 20
74.773378
 30
0.0
 10
81.720861
 20
76.401566
 30
0.0
 10
82.257081
 20
78.269670
 30
0.0
 10
80.123407
 20
76.547219
 30
0.0
 10
78.996616
 20
75.283447
 30
0.0
 10
78.245387
 20
73.668174
 30
0.0
 10
77.397399
 20
72.602436
 30
0.0
 10
77.911831
 20
72.074767
 30
0.0
 10
78.624218
 20
71.746842
 30
0.0
 10
79.316184
 20
71.430268
 30
0.0
 10
79.734446
 20
71.028753
 30
0.0
 10
79.876987
 20
71.091609
 30
0.0
 10
79.901198
 20
71.102285
 30
0.0
 11
79.901198
 21
71.102285
 31
0.0
 11
79.910028
 21
71.140037
 31
0.0
 11
79.920853
 21
71.193612
 31
0.0
 11
79.931339
 21
71.251383
 31
0.0
 11
79.973500
 21
71.394243
 31
0.0
 11
80.067307
 21
71.670907
 31
0.0
 11
80.192536
 21
72.021483
 31
0.0
 11
81.254329
 21
75.018097
 31
0.0
 11
81.893811
 21
77.011964
 31
0.0
 11
82.019755
 21
77.718646
 31
0.0
 11
80.631715
 21
76.921651
 31
0.0
 11
79.090548
 21
75.236050
 31
0.0
 11
77.712875
 21
73.008132
 31
0.0
 11
77.508874
 21
72.575504
 31
0.0
 11
77.723403
 21
72.283329
 31
0.0
 11
78.645958
 21
71.737285
 31
0.0
 11
79.492793
 21
71.245748
 31
0.0
 11
79.828856
 21
71.075737
 31
0.0
 11
79.901198
 21
71.102285
 31
0.0
  0
LINE
  5
162
100
AcDbEntity
  8
Capa_1
 62
7
100
AcDbLine
 10
78.687134
 20
71.798922
 30
0.0
 11
78.687134
 21
71.798922
 31
0.0
  0
SPLINE
  5
163
100
AcDbEntity
  8
Capa_1
 62
7
100
AcDbSpline
 70
0
 71
3
 72
28
 73
24
 74
22
 40
0.000000
 40
0.000000
 40
0.000000
 40
0.000000
 40
0.662144
 40
1.138864
 40
1.326952
 40
1.405771
 40
1.606017
 40
1.884607
 40
3.939561
 40
5.794144
 40
7.386483
 40
7.745107
 40
8.123791
 40
8.306013
 40
9.283897
 40
11.487221
 40
13.894733
 40
14.410494
 40
14.816254
 40
15.024262
 40
15.142187
 40
15.432016
 40
16.455888
 40
16.455888
 40
16.455888
 40
16.455888
 10
78.687134
 20
71.798922
 30
0.0
 10
78.485552
 20
71.906804
 30
0.0
 10
78.138837
 20
72.092356
 30
0.0
 10
77.851890
 20
72.349765
 30
0.0
 10
77.509454
 20
72.431786
 30
0.0
 10
77.596593
 20
72.590506
 30
0.0
 10
77.663091
 20
72.751168
 30
0.0
 10
78.049667
 20
73.518548
 30
0.0
 10
78.736195
 20
74.722669
 30
0.0
 10
79.887247
 20
76.165717
 30
0.0
 10
80.829198
 20
77.025191
 30
0.0
 10
81.514799
 20
77.414263
 30
0.0
 10
81.768974
 20
77.546873
 30
0.0
 10
82.315984
 20
77.787140
 30
0.0
 10
81.258735
 20
75.928074
 30
0.0
 10
81.152950
 20
74.710040
 30
0.0
 10
80.441837
 20
72.925726
 30
0.0
 10
80.070823
 20
71.898970
 30
0.0
 10
79.952845
 20
71.530679
 30
0.0
 10
79.866384
 20
71.319626
 30
0.0
 10
79.840584
 20
71.069178
 30
0.0
 10
79.266004
 20
71.531585
 30
0.0
 10
78.940683
 20
71.681827
 30
0.0
 10
78.687134
 20
71.798922
 30
0.0
 11
78.687134
 21
71.798922
 31
0.0
 11
78.116340
 21
72.134523
 31
0.0
 11
77.705979
 21
72.377148
 31
0.0
 11
77.544896
 21
72.474252
 31
0.0
 11
77.572445
 21
72.548100
 31
0.0
 11
77.656539
 21
72.729832
 31
0.0
 11
77.779028
 21
72.980051
 31
0.0
 11
78.817958
 21
74.753030
 31
0.0
 11
79.980338
 21
76.198143
 31
0.0
 11
81.195356
 21
77.227354
 31
0.0
 11
81.505777
 21
77.406937
 31
0.0
 11
81.843493
 21
77.578254
 31
0.0
 11
82.013970
 21
77.642616
 31
0.0
 11
81.732734
 21
76.706046
 31
0.0
 11
81.030699
 21
74.617557
 31
0.0
 11
80.233486
 21
72.345869
 31
0.0
 11
80.060584
 21
71.859953
 31
0.0
 11
79.928511
 21
71.476290
 31
0.0
 11
79.865863
 21
71.277940
 31
0.0
 11
79.835528
 21
71.163983
 31
0.0
 11
79.570440
 21
71.281153
 31
0.0
 11
78.687134
 21
71.798922
 31
0.0
  0
LINE
  5
164
100
AcDbEntity
  8
Capa_1
 62
7
100
AcDbLine
 10
89.146515
 20
82.052197
 30
0.0
 11
89.227570
 21
82.045988
 31
0.0
  0
LINE
  5
165
100
AcDbEntity
  8
Capa_1
 62
7
100
AcDbLine
 10
89.227570
 20
82.045988
 30
0.0
 11
89.146515
 21
82.024257
 31
0.0
  0
SPLINE
  5
166
100
AcDbEntity
  8
Capa_1
 62
7
100
AcDbSpline
 70
0
 71
3
 72
22
 73
18
 74
16
 40
0.000000
 40
0.000000
 40
0.000000
 40
0.000000
 40
0.225797
 40
0.701325
 40
1.232736
 40
3.222131
 40
5.460074
 40
7.775273
 40
8.771565
 40
9.176277
 40
9.677246
 40
11.261650
 40
13.173560
 40
14.999743
 40
16.404725
 40
17.707624
 40
18.171562
 40
18.171562
 40
18.171562
 40
18.171562
 10
96.570907
 20
74.315413
 30
0.0
 10
96.594017
 20
74.387048
 30
0.0
 10
96.665794
 20
74.609547
 30
0.0
 10
96.775625
 20
75.005611
 30
0.0
 10
97.044697
 20
75.967370
 30
0.0
 10
97.392130
 20
77.517727
 30
0.0
 10
97.809850
 20
79.650534
 30
0.0
 10
97.982871
 20
81.524391
 30
0.0
 10
98.252411
 20
82.690048
 30
0.0
 10
98.070880
 20
83.415272
 30
0.0
 10
97.088351
 20
83.272974
 30
0.0
 10
95.872783
 20
83.246387
 30
0.0
 10
94.065109
 20
83.008124
 30
0.0
 10
92.377317
 20
82.782519
 30
0.0
 10
90.895148
 20
82.477021
 30
0.0
 10
89.852819
 20
82.286203
 30
0.0
 10
89.293407
 20
82.100863
 30
0.0
 10
89.146515
 20
82.052197
 30
0.0
 11
96.570907
 21
74.315413
 31
0.0
 11
96.639272
 21
74.530612
 31
0.0
 11
96.770804
 21
74.987587
 31
0.0
 11
96.911888
 21
75.499928
 31
0.0
 11
97.365406
 21
77.436939
 31
0.0
 11
97.768982
 21
79.638192
 31
0.0
 11
98.090928
 21
81.930898
 31
0.0
 11
98.176311
 21
82.923524
 31
0.0
 11
98.025969
 21
83.299276
 31
0.0
 11
97.526737
 21
83.340965
 31
0.0
 11
95.946867
 21
83.221200
 31
0.0
 11
94.047201
 21
83.005166
 31
0.0
 11
92.240405
 21
82.739775
 31
0.0
 11
90.860520
 21
82.475405
 31
0.0
 11
89.588651
 21
82.192747
 31
0.0
 11
89.146515
 21
82.052197
 31
0.0
  0
SPLINE
  5
167
100
AcDbEntity
  8
Capa_1
 62
7
100
AcDbSpline
 70
0
 71
3
 72
10
 73
6
 74
4
 40
0.000000
 40
0.000000
 40
0.000000
 40
0.000000
 40
0.010398
 40
0.073385
 40
0.192128
 40
0.192128
 40
0.192128
 40
0.192128
 10
89.146515
 20
82.024257
 30
0.0
 10
89.144122
 20
82.021201
 30
0.0
 10
89.127226
 20
81.999634
 30
0.0
 10
89.245981
 20
82.025031
 30
0.0
 10
89.292044
 20
82.022344
 30
0.0
 10
89.322142
 20
82.020588
 30
0.0
 11
89.146515
 21
82.024257
 31
0.0
 11
89.140584
 21
82.015717
 31
0.0
 11
89.203558
 21
82.014452
 31
0.0
 11
89.322142
 21
82.020588
 31
0.0
  0
LINE
  5
168
100
AcDbEntity
  8
Capa_1
 62
7
100
AcDbLine
 10
96.570907
 20
74.315357
 30
0.0
 11
96.570907
 21
74.315413
 31
0.0
  0
SPLINE
  5
169
100
AcDbEntity
  8
Capa_1
 62
7
100
AcDbSpline
 70
0
 71
3
 72
13
 73
9
 74
7
 40
0.000000
 40
0.000000
 40
0.000000
 40
0.000000
 40
3.973893
 40
7.764260
 40
11.641314
 40
11.853120
 40
11.966343
 40
12.005884
 40
12.005884
 40
12.005884
 40
12.005884
 10
89.322142
 20
82.020588
 30
0.0
 10
90.673079
 20
81.877639
 30
0.0
 10
93.312562
 20
81.598342
 30
0.0
 10
96.270792
 20
78.673329
 30
0.0
 10
96.587018
 20
75.626378
 30
0.0
 10
96.532589
 20
74.478469
 30
0.0
 10
96.503021
 20
74.283019
 30
0.0
 10
96.556948
 20
74.308707
 30
0.0
 10
96.570907
 20
74.315357
 30
0.0
 11
89.322142
 21
82.020588
 31
0.0
 11
93.200365
 21
81.153860
 31
0.0
 11
95.847816
 21
78.441318
 31
0.0
 11
96.538960
 21
74.626366
 31
0.0
 11
96.521905
 21
74.415247
 31
0.0
 11
96.533474
 21
74.302617
 31
0.0
 11
96.570907
 21
74.315357
 31
0.0
  0
LINE
  5
16a
100
AcDbEntity
  8
Capa_1
 62
7
100
AcDbLine
 10
96.544661
 20
74.410635
 30
0.0
 11
96.545225
 21
74.410663
 31
0.0
  0
SPLINE
  5
16b
100
AcDbEntity
  8
Capa_1
 62
7
100
AcDbSpline
 70
0
 71
3
 72
16
 73
12
 74
10
 40
0.000000
 40
0.000000
 40
0.000000
 40
0.000000
 40
0.014567
 40
0.022608
 40
0.045712
 40
0.069556
 40
0.083393
 40
0.091768
 40
0.106343
 40
0.124964
 40
0.145556
 40
0.145556
 40
0.145556
 40
0.145556
 10
96.545225
 20
74.410663
 30
0.0
 10
96.547456
 20
74.417162
 30
0.0
 10
96.550919
 20
74.427248
 30
0.0
 10
96.563707
 20
74.412352
 30
0.0
 10
96.560539
 20
74.393565
 30
0.0
 10
96.562449
 20
74.375344
 30
0.0
 10
96.559113
 20
74.355768
 30
0.0
 10
96.543921
 20
74.358373
 30
0.0
 10
96.540379
 20
74.373740
 30
0.0
 10
96.539015
 20
74.391177
 30
0.0
 10
96.542717
 20
74.403935
 30
0.0
 10
96.544661
 20
74.410635
 30
0.0
 11
96.545225
 21
74.410663
 31
0.0
 11
96.553106
 21
74.422914
 31
0.0
 11
96.558793
 21
74.417227
 31
0.0
 11
96.561594
 21
74.394294
 31
0.0
 11
96.561197
 21
74.370454
 31
0.0
 11
96.555782
 21
74.357720
 31
0.0
 11
96.547483
 21
74.358847
 31
0.0
 11
96.541107
 21
74.371954
 31
0.0
 11
96.540124
 21
74.390548
 31
0.0
 11
96.544661
 21
74.410635
 31
0.0
  0
LINE
  5
16c
100
AcDbEntity
  8
Capa_1
 62
7
100
AcDbLine
 10
89.932137
 20
82.108980
 30
0.0
 11
89.578795
 21
82.111802
 31
0.0
  0
LINE
  5
16d
100
AcDbEntity
  8
Capa_1
 62
7
100
AcDbLine
 10
89.578795
 20
82.111802
 30
0.0
 11
89.821986
 21
82.176233
 31
0.0
  0
SPLINE
  5
16e
100
AcDbEntity
  8
Capa_1
 62
7
100
AcDbSpline
 70
0
 71
3
 72
10
 73
6
 74
4
 40
0.000000
 40
0.000000
 40
0.000000
 40
0.000000
 40
3.568616
 40
7.007612
 40
10.583049
 40
10.583049
 40
10.583049
 40
10.583049
 10
96.640757
 20
75.233059
 30
0.0
 10
96.480331
 20
76.434069
 30
0.0
 10
96.165304
 20
78.792468
 30
0.0
 10
93.481788
 20
81.540694
 30
0.0
 10
91.130599
 20
81.917111
 30
0.0
 10
89.932137
 20
82.108980
 30
0.0
 11
96.640757
 21
75.233059
 31
0.0
 11
95.780363
 21
78.696401
 31
0.0
 11
93.378760
 21
81.157905
 31
0.0
 11
89.932137
 21
82.108980
 31
0.0
  0
LINE
  5
16f
100
AcDbEntity
  8
Capa_1
 62
7
100
AcDbLine
 10
96.640814
 20
75.233369
 30
0.0
 11
96.640757
 21
75.233059
 31
0.0
  0
SPLINE
  5
170
100
AcDbEntity
  8
Capa_1
 62
7
100
AcDbSpline
 70
0
 71
3
 72
25
 73
21
 74
19
 40
0.000000
 40
0.000000
 40
0.000000
 40
0.000000
 40
2.154950
 40
4.846522
 40
7.673518
 40
8.163133
 40
8.421738
 40
8.828173
 40
11.428070
 40
14.021750
 40
16.357579
 40
16.620203
 40
16.811407
 40
16.889809
 40
16.897653
 40
16.903757
 40
16.907765
 40
16.973058
 40
17.144146
 40
17.384059
 40
17.384059
 40
17.384059
 40
17.384059
 10
89.821986
 20
82.176233
 30
0.0
 10
90.522832
 20
82.329884
 30
0.0
 10
92.099049
 20
82.675445
 30
0.0
 10
94.649700
 20
83.060254
 30
0.0
 10
96.604487
 20
83.120874
 30
0.0
 10
97.833947
 20
83.342942
 30
0.0
 10
98.179865
 20
83.078351
 30
0.0
 10
97.943563
 20
81.893998
 30
0.0
 10
97.833034
 20
80.142192
 30
0.0
 10
97.343794
 20
77.633250
 30
0.0
 10
96.970547
 20
75.953225
 30
0.0
 10
96.716702
 20
75.056753
 30
0.0
 10
96.676543
 20
74.885018
 30
0.0
 10
96.646305
 20
74.795870
 30
0.0
 10
96.644209
 20
74.765511
 30
0.0
 10
96.642396
 20
74.759377
 30
0.0
 10
96.618276
 20
74.746493
 30
0.0
 10
96.656902
 20
74.895007
 30
0.0
 10
96.626086
 20
74.998035
 30
0.0
 10
96.635385
 20
75.146630
 30
0.0
 10
96.640814
 20
75.233369
 30
0.0
 11
89.821986
 21
82.176233
 31
0.0
 11
91.931396
 21
82.616915
 31
0.0
 11
94.595441
 21
83.000876
 31
0.0
 11
97.409615
 21
83.269816
 31
0.0
 11
97.899194
 21
83.263972
 31
0.0
 11
98.098173
 21
83.098792
 31
0.0
 11
98.105208
 21
82.692418
 31
0.0
 11
97.774031
 21
80.113700
 31
0.0
 11
97.317610
 21
77.560495
 31
0.0
 11
96.781389
 21
75.287048
 31
0.0
 11
96.712565
 21
75.033602
 31
0.0
 11
96.663484
 21
74.848805
 31
0.0
 11
96.644765
 21
74.772670
 31
0.0
 11
96.643824
 21
74.764882
 31
0.0
 11
96.641378
 21
74.759290
 31
0.0
 11
96.637991
 21
74.757147
 31
0.0
 11
96.635838
 21
74.822406
 31
0.0
 11
96.636758
 21
74.993491
 31
0.0
 11
96.640814
 21
75.233369
 31
0.0
  0
LINE
  5
171
100
AcDbEntity
  8
Capa_1
 62
7
100
AcDbLine
 10
55.411759
 20
85.600803
 30
0.0
 11
55.723389
 21
85.584434
 31
0.0
  0
LINE
  5
172
100
AcDbEntity
  8
Capa_1
 62
7
100
AcDbLine
 10
55.723389
 20
85.584434
 30
0.0
 11
55.840850
 21
86.027523
 31
0.0
  0
SPLINE
  5
173
100
AcDbEntity
  8
Capa_1
 62
7
100
AcDbSpline
 70
0
 71
3
 72
19
 73
15
 74
13
 40
0.000000
 40
0.000000
 40
0.000000
 40
0.000000
 40
3.860712
 40
7.739386
 40
11.440597
 40
11.968452
 40
13.082541
 40
14.335298
 40
19.155261
 40
23.738326
 40
28.567748
 40
32.178053
 40
35.716391
 40
39.283526
 40
39.283526
 40
39.283526
 40
39.283526
 10
55.840850
 20
86.027523
 30
0.0
 10
56.293818
 20
87.236487
 30
0.0
 10
57.201860
 20
89.660042
 30
0.0
 10
58.614512
 20
93.137357
 30
0.0
 10
62.153000
 20
94.541892
 30
0.0
 10
61.615920
 20
96.343912
 30
0.0
 10
60.928109
 20
97.041992
 30
0.0
 10
59.223496
 20
98.717574
 30
0.0
 10
55.432128
 20
99.808575
 30
0.0
 10
50.770695
 20
97.746579
 30
0.0
 10
48.685741
 20
93.460267
 30
0.0
 10
49.461080
 20
89.385569
 30
0.0
 10
51.858279
 20
86.415880
 30
0.0
 10
54.224070
 20
85.873228
 30
0.0
 10
55.411759
 20
85.600803
 30
0.0
 11
55.840850
 21
86.027523
 31
0.0
 11
57.211596
 21
89.636698
 31
0.0
 11
59.257562
 21
92.931868
 31
0.0
 11
61.798646
 21
95.622937
 31
0.0
 11
61.651583
 21
96.129892
 31
0.0
 11
60.961280
 21
97.004350
 31
0.0
 11
60.038934
 21
97.852097
 31
0.0
 11
55.417715
 21
99.221911
 31
0.0
 11
51.224992
 21
97.371086
 31
0.0
 11
49.111882
 21
93.028496
 31
0.0
 11
49.755606
 21
89.476044
 31
0.0
 11
52.044328
 21
86.777602
 31
0.0
 11
55.411759
 21
85.600803
 31
0.0
  0
LINE
  5
174
100
AcDbEntity
  8
Capa_1
 62
7
100
AcDbLine
 10
55.745911
 20
85.934813
 30
0.0
 11
55.673436
 21
85.642402
 31
0.0
  0
LINE
  5
175
100
AcDbEntity
  8
Capa_1
 62
7
100
AcDbLine
 10
55.673436
 20
85.642402
 30
0.0
 11
55.467837
 21
85.659618
 31
0.0
  0
SPLINE
  5
176
100
AcDbEntity
  8
Capa_1
 62
7
100
AcDbSpline
 70
0
 71
3
 72
19
 73
15
 74
13
 40
0.000000
 40
0.000000
 40
0.000000
 40
0.000000
 40
3.844024
 40
7.587026
 40
11.418754
 40
16.562558
 40
21.414982
 40
26.542864
 40
26.864663
 40
27.011717
 40
27.299971
 40
31.042444
 40
34.862109
 40
38.595942
 40
38.595942
 40
38.595942
 40
38.595942
 10
55.046084
 20
85.703616
 30
0.0
 10
53.787905
 20
86.093210
 30
0.0
 10
51.304611
 20
86.862160
 30
0.0
 10
49.105570
 20
90.327729
 30
0.0
 10
49.011296
 20
94.769654
 30
0.0
 10
52.113417
 20
98.797509
 30
0.0
 10
57.709371
 20
99.715268
 30
0.0
 10
60.441611
 20
97.336369
 30
0.0
 10
61.763689
 20
95.887697
 30
0.0
 10
61.746467
 20
95.612892
 30
0.0
 10
60.449083
 20
94.836010
 30
0.0
 10
58.995324
 20
92.703878
 30
0.0
 10
56.871178
 20
89.543673
 30
0.0
 10
56.118148
 20
87.128619
 30
0.0
 10
55.745911
 20
85.934813
 30
0.0
 11
55.046084
 21
85.703616
 31
0.0
 11
51.533939
 21
87.266102
 31
0.0
 11
49.465142
 21
90.385419
 31
0.0
 11
49.400116
 21
94.216595
 31
0.0
 11
52.564341
 21
98.272011
 31
0.0
 11
57.360225
 21
99.010606
 31
0.0
 11
61.576368
 21
96.091821
 31
0.0
 11
61.747770
 21
95.819468
 31
0.0
 11
61.735382
 21
95.672936
 31
0.0
 11
61.524354
 21
95.476577
 31
0.0
 11
59.004319
 21
92.709714
 31
0.0
 11
57.025692
 21
89.442471
 31
0.0
 11
55.745911
 21
85.934813
 31
0.0
  0
LINE
  5
177
100
AcDbEntity
  8
Capa_1
 62
7
100
AcDbLine
 10
55.046084
 20
85.703644
 30
0.0
 11
55.046084
 21
85.703616
 31
0.0
  0
SPLINE
  5
178
100
AcDbEntity
  8
Capa_1
 62
7
100
AcDbSpline
 70
0
 71
3
 72
10
 73
6
 74
4
 40
0.000000
 40
0.000000
 40
0.000000
 40
0.000000
 40
0.133745
 40
0.286085
 40
0.424061
 40
0.424061
 40
0.424061
 40
0.424061
 10
55.467837
 20
85.659618
 30
0.0
 10
55.423439
 20
85.663661
 30
0.0
 10
55.328470
 20
85.672311
 30
0.0
 10
55.187870
 20
85.686950
 30
0.0
 10
55.091761
 20
85.698266
 30
0.0
 10
55.046084
 20
85.703644
 30
0.0
 11
55.467837
 21
85.659618
 31
0.0
 11
55.334668
 21
85.672017
 31
0.0
 11
55.183148
 21
85.687802
 31
0.0
 11
55.046084
 21
85.703644
 31
0.0
  0
ENDSEC
  0
SECTION
  2
OBJECTS
  0
DICTIONARY
  5
C
330
0
100
AcDbDictionary
  3
ACAD_GROUP
350
D
  3
ACAD_MLINESTYLE
350
17
  0
DICTIONARY
  5
D
330
C
100
AcDbDictionary
  0
DICTIONARY
  5
1A
330
C
100
AcDbDictionary
  0
DICTIONARY
  5
17
330
C
100
AcDbDictionary
  3
STANDARD
350
18
  0
DICTIONARY
  5
19
330
C
100
AcDbDictionary
  0
ENDSEC
  0
EOF
