0
SECTION
2
HEADER
9
$INSUNITS
70
4
9
$ACADVER
1
AC1014
9
$HANDSEED
5
FFFF
0
ENDSEC
0
SECTION
2
TABLES
0
TABLE
2
VPORT
5
8
100
AcDbSymbolTable
0
ENDTAB
0
TABLE
2
LTYPE
5
5
100
AcDbSymbolTable
0
LTYPE
5
14
100
AcDbSymbolTableRecord
100
AcDbLinetypeTableRecord
2
BYBLOCK
70
0
0
LTYPE
5
15
100
AcDbSymbolTableRecord
100
AcDbLinetypeTableRecord
2
BYLAYER
70
0
0
ENDTAB
0
TABLE
2
LAYER
5
2
100
AcDbSymbolTable
70
2
0
LAYER
5
50
100
AcDbSymbolTableRecord
100
AcDbLayerTableRecord
2
0
70
0
6
CONTINUOUS
0
ENDTAB
0
TABLE
2
STYLE
5
3
100
AcDbSymbolTable
70
1
0
STYLE
5
11
100
AcDbSymbolTableRecord
100
AcDbTextStyleTableRecord
2
STANDARD
70
0
0
ENDTAB
0
TABLE
2
VIEW
5
6
100
AcDbSymbolTable
70
0
0
ENDTAB
0
TABLE
2
UCS
5
7
100
AcDbSymbolTable
70
0
0
ENDTAB
0
TABLE
2
APPID
5
9
100
AcDbSymbolTable
70
2
0
APPID
5
12
100
AcDbSymbolTableRecord
100
AcDbRegAppTableRecord
2
ACAD
70
0
0
ENDTAB
0
TABLE
2
DIMSTYLE
5
A
100
AcDbSymbolTable
70
1
0
ENDTAB
0
TABLE
2
BLOCK_RECORD
5
1
100
AcDbSymbolTable
70
1
0
BLOCK_RECORD
5
1F
100
AcDbSymbolTableRecord
100
AcDbBlockTableRecord
2
*MODEL_SPACE
0
BLOCK_RECORD
5
1B
100
AcDbSymbolTableRecord
100
AcDbBlockTableRecord
2
*PAPER_SPACE
0
ENDTAB
0
ENDSEC
0
SECTION
2
BLOCKS
0
BLOCK
5
20
100
AcDbEntity
100
AcDbBlockBegin
2
*MODEL_SPACE
0
ENDBLK
5
21
100
AcDbEntity
100
AcDbBlockEnd
0
BLOCK
5
1C
100
AcDbEntity
100
AcDbBlockBegin
2
*PAPER_SPACE
0
ENDBLK
5
1D
100
AcDbEntity
100
AcDbBlockEnd
0
ENDSEC
0
SECTION
2
ENTITIES
0
LWPOLYLINE
5
100
100
AcDbEntity
8
0
100
AcDbPolyline
90
4
70
1
43
0.0
10
-58.499999999995573
20
38.999999999994571
10
-48.499999999995573
20
38.999999999994564
10
-48.499999999995573
20
41.999999999994564
10
-58.499999999995573
20
41.999999999994571
0
LWPOLYLINE
5
101
100
AcDbEntity
8
0
100
AcDbPolyline
90
4
70
1
43
0.0
10
-8.4999999999949605
20
31.999999999994174
10
-8.4999999999949605
20
28.999999999994166
10
1.5000000000086366
20
28.999999999994166
10
1.5000000000086366
20
31.999999999994174
0
LWPOLYLINE
5
102
100
AcDbEntity
8
0
100
AcDbPolyline
90
4
70
1
43
0.0
10
1.4999999999963887
20
38.999999999994174
10
1.4999999999963887
20
41.999999999994174
10
-8.5000000000051514
20
41.999999999994174
10
-8.4999999999955733
20
38.999999999994188
0
LWPOLYLINE
5
103
100
AcDbEntity
8
0
100
AcDbPolyline
90
4
70
1
43
0.0
10
-58.499999999995573
20
31.999999999994561
10
-58.499999999995573
20
28.999999999994557
10
-48.500000000001975
20
28.999999999994564
10
-48.500000000001968
20
31.999999999994561
0
LWPOLYLINE
5
104
100
AcDbEntity
8
0
100
AcDbPolyline
90
4
70
1
43
0.0
10
1.5000000000060876
20
-28.999999999994181
10
-8.4999999999994458
20
-28.999999999994181
10
-8.4999999999994458
20
-31.99999999999417
10
1.5000000000060876
20
-31.99999999999417
0
LWPOLYLINE
5
105
100
AcDbEntity
8
0
100
AcDbPolyline
90
4
70
1
43
0.0
10
1.4999999999980318
20
-38.999999999994181
10
-8.4999999999955644
20
-38.999999999994181
10
-8.4999999999955644
20
-41.999999999994188
10
1.4999999999980318
20
-41.999999999994166
0
LWPOLYLINE
5
106
100
AcDbEntity
8
0
100
AcDbPolyline
90
4
70
1
43
0.0
10
-48.500000000001975
20
-28.999999999994571
10
-58.499999999995573
20
-28.999999999994571
10
-58.499999999995573
20
-31.999999999994571
10
-48.500000000001968
20
-31.999999999994571
0
LWPOLYLINE
5
107
100
AcDbEntity
8
0
100
AcDbPolyline
90
4
70
1
43
0.0
10
-48.499999999995573
20
-38.999999999994571
10
-58.499999999995573
20
-38.999999999994571
10
-58.499999999995573
20
-41.999999999994571
10
-48.499999999995573
20
-41.999999999994557
0
LWPOLYLINE
5
108
100
AcDbEntity
8
0
100
AcDbPolyline
90
4
70
1
43
0.0
10
103.5000000000005
20
59.999999999999275
10
100.50000000000048
20
59.999999999999275
10
100.50000000000048
20
-60.000000000000725
10
103.5000000000005
20
-60.000000000000725
0
LWPOLYLINE
5
109
100
AcDbEntity
8
0
100
AcDbPolyline
90
4
70
1
43
0.0
10
-142.49999999999952
20
59.999999999999801
10
-142.49999999999955
20
-60.000000000000199
10
-139.49999999999952
20
-60.000000000000199
10
-139.49999999999952
20
59.999999999999801
0
LWPOLYLINE
5
110
100
AcDbEntity
8
0
100
AcDbPolyline
90
32
70
1
43
0.0
10
148.50000000000432
20
21.999999999999901
10
151.50000000000438
20
21.999999999996675
10
151.49999999995967
20
-21.999999999998799
10
148.49999999996228
20
-21.999999999998536
10
148.4999999998949
20
-71.999999999998536
10
96.499999999999261
20
-71.999999999994216
10
96.499999999999275
20
-74.999999999992767
10
36.499999999999261
20
-74.999999999992681
10
36.499999999999261
20
-71.999999999994216
10
-18.500000000000732
20
-71.999999999994174
10
-18.499999999999908
20
-74.999999999992767
10
-78.499999999999474
20
-74.999999999992681
10
-78.49999999999946
20
-71.999999999994188
10
-122.4999999999996
20
-71.999999999994571
10
-122.4999999999996
20
-74.999999999992681
10
-142.49999999999963
20
-74.999999999992681
10
-142.4999999999996
20
-71.999999999994145
10
-148.49999999999557
20
-71.999999999999901
10
-148.49999999999557
20
71.999999999999915
10
-142.49999999999963
20
71.999999999994145
10
-142.4999999999996
20
74.999999999992838
10
-122.49999999999957
20
74.999999999992838
10
-122.49999999999959
20
71.999999999994571
10
-78.499999999999474
20
71.999999999994159
10
-78.499999999999488
20
74.999999999993292
10
-18.499999999999915
20
74.999999999993832
10
-18.500000000000743
20
71.999999999994174
10
36.49999999999924
20
71.999999999994216
10
36.49999999999924
20
74.999999999994628
10
96.499999999999275
20
74.999999999992966
10
96.499999999999261
20
71.99999999999423
10
148.49999999999557
20
71.999999999999901
0
ENDSEC
0
SECTION
2
OBJECTS
0
DICTIONARY
5
C
100
AcDbDictionary
3
ACAD_GROUP
350
D
3
ACAD_MLINESTYLE
350
17
0
DICTIONARY
5
D
100
AcDbDictionary
0
DICTIONARY
5
1A
330
C
100
AcDbDictionary
0
DICTIONARY
5
17
100
AcDbDictionary
0
ENDSEC
0
EOF
