0
SECTION
2
HEADER
9
$INSUNITS
70
4
9
$ACADVER
1
AC1014
9
$HANDSEED
5
FFFF
0
ENDSEC
0
SECTION
2
TABLES
0
TABLE
2
VPORT
5
8
100
AcDbSymbolTable
0
ENDTAB
0
TABLE
2
LTYPE
5
5
100
AcDbSymbolTable
0
LTYPE
5
14
100
AcDbSymbolTableRecord
100
AcDbLinetypeTableRecord
2
BYBLOCK
70
0
0
LTYPE
5
15
100
AcDbSymbolTableRecord
100
AcDbLinetypeTableRecord
2
BYLAYER
70
0
0
ENDTAB
0
TABLE
2
LAYER
5
2
100
AcDbSymbolTable
70
2
0
LAYER
5
50
100
AcDbSymbolTableRecord
100
AcDbLayerTableRecord
2
0
70
0
6
CONTINUOUS
0
ENDTAB
0
TABLE
2
STYLE
5
3
100
AcDbSymbolTable
70
1
0
STYLE
5
11
100
AcDbSymbolTableRecord
100
AcDbTextStyleTableRecord
2
STANDARD
70
0
0
ENDTAB
0
TABLE
2
VIEW
5
6
100
AcDbSymbolTable
70
0
0
ENDTAB
0
TABLE
2
UCS
5
7
100
AcDbSymbolTable
70
0
0
ENDTAB
0
TABLE
2
APPID
5
9
100
AcDbSymbolTable
70
2
0
APPID
5
12
100
AcDbSymbolTableRecord
100
AcDbRegAppTableRecord
2
ACAD
70
0
0
ENDTAB
0
TABLE
2
DIMSTYLE
5
A
100
AcDbSymbolTable
70
1
0
ENDTAB
0
TABLE
2
BLOCK_RECORD
5
1
100
AcDbSymbolTable
70
1
0
BLOCK_RECORD
5
1F
100
AcDbSymbolTableRecord
100
AcDbBlockTableRecord
2
*MODEL_SPACE
0
BLOCK_RECORD
5
1B
100
AcDbSymbolTableRecord
100
AcDbBlockTableRecord
2
*PAPER_SPACE
0
ENDTAB
0
ENDSEC
0
SECTION
2
BLOCKS
0
BLOCK
5
20
100
AcDbEntity
100
AcDbBlockBegin
2
*MODEL_SPACE
0
ENDBLK
5
21
100
AcDbEntity
100
AcDbBlockEnd
0
BLOCK
5
1C
100
AcDbEntity
100
AcDbBlockBegin
2
*PAPER_SPACE
0
ENDBLK
5
1D
100
AcDbEntity
100
AcDbBlockEnd
0
ENDSEC
0
SECTION
2
ENTITIES
0
LWPOLYLINE
5
100
100
AcDbEntity
8
0
100
AcDbPolyline
90
186
70
1
43
0.0
10
212.93402297398529
20
-58.271737570063507
10
212.51308658258586
20
-58.343142486467926
10
212.10508643363653
20
-58.434577909897349
10
211.71015588353418
20
-58.545878120119887
10
211.32842828867609
20
-58.676877396903606
10
210.96003700545901
20
-58.827410020016572
10
210.60511539028013
20
-58.997310269226887
10
210.26379679953649
20
-59.186412424302603
10
209.93621458962514
20
-59.394550765011864
10
209.62250211694317
20
-59.621559571122624
10
209.32279273788751
20
-59.867273122403034
10
209.03721980885507
20
-60.131525698621182
10
208.76591668624329
20
-60.414151579545091
10
208.50901672644886
20
-60.714985044942878
10
208.26665328586901
20
-61.033860374582588
10
208.03895972090072
20
-61.37061184823235
10
207.82606938794089
20
-61.725073745660204
10
207.62811564338682
20
-62.097080346634179
10
207.44523184363544
20
-62.486465930922428
10
207.27755134508362
20
-62.89306477829296
10
206.98833367716745
20
-63.757239381353315
10
206.7615294908147
20
-64.688278393959834
10
206.59820563720143
20
-65.684856054257082
10
206.49942896750423
20
-66.745646600389705
10
206.46626633289935
20
-67.869324270502304
10
206.46626633289935
20
-85.150918686484843
10
206.49942896750423
20
-86.274473249386148
10
206.59820563720143
20
-87.335151055916441
10
206.7615294908147
20
-88.331626009584767
10
206.98833367716745
20
-89.262572013900225
10
207.27755134508362
20
-90.126662972371804
10
207.44523184363538
20
-90.533223404262714
10
207.62811564338682
20
-90.922572788508532
10
207.82606938794089
20
-91.294545363047916
10
208.03895972090072
20
-91.648975365819481
10
208.26665328586901
20
-91.98569703476187
10
208.50901672644881
20
-92.304544607813682
10
208.76591668624329
20
-92.605352322913589
10
209.03721980885513
20
-92.887954418000206
10
209.32279273788751
20
-93.152185131012175
10
209.62250211694317
20
-93.397878699888054
10
209.93621458962514
20
-93.624869362566585
10
210.26379679953646
20
-93.832991356986327
10
210.60511539028013
20
-94.022078921085935
10
210.96003700545901
20
-94.19196629280404
10
211.32842828867609
20
-94.34248771007924
10
211.71015588353418
20
-94.473477410850165
10
212.10508643363653
20
-94.584769633055501
10
212.51308658258586
20
-94.676198614633847
10
212.93402297398529
20
-94.747598593523861
10
213.36776225143765
20
-94.798803807664086
10
213.81417105854604
20
-94.829648494993251
10
214.27311603891323
20
-94.839966893449969
10
214.72563642480071
20
-94.829388456684029
10
215.16643633374045
20
-94.79779720775727
10
215.59534229169628
20
-94.745409238726509
10
216.01218082463214
20
-94.672440641648365
10
216.41677845851177
20
-94.579107508579611
10
216.80896171929905
20
-94.465625931576881
10
217.1885571329579
20
-94.332212002696991
10
217.55539122545201
20
-94.179081813996561
10
217.90929052274521
20
-94.006451457532378
10
218.25008155080155
20
-93.814537025361076
10
218.57759083558463
20
-93.60355460953943
10
218.89164490305845
20
-93.373720302124156
10
219.19207027918696
20
-93.125250195171873
10
219.47869348993373
20
-92.85836038073937
10
219.75134106126276
20
-92.573266950883323
10
220.00983951913787
20
-92.270185997660477
10
220.25401538952286
20
-91.949333613127521
10
220.48369519838164
20
-91.610925889341303
10
220.69870547167801
20
-91.255178918358268
10
220.89887273537585
20
-90.882308792235307
10
221.25398433783124
20
-90.086063442796302
10
221.54764221345857
20
-89.223918577477889
10
221.77845856996854
20
-88.297602932733867
10
221.94504561507182
20
-87.308845245017892
10
222.04601555647926
20
-86.259374250783679
10
222.07998060190158
20
-85.150918686484843
10
222.07998060190158
20
-84.06832254149073
10
218.63708480925828
20
-84.06832254149073
10
218.63708480925828
20
-85.150918686484914
10
218.60531891522277
20
-86.099048434198536
10
218.55975815371394
20
-86.609000294979651
10
218.48920916568702
20
-87.132024243767617
10
218.3897696884992
20
-87.659980853105509
10
218.25753745950732
20
-88.184730695536302
10
218.08861021606845
20
-88.698134343602902
10
217.87908569553974
20
-89.192052369848426
10
217.62506163527775
20
-89.65834534681585
10
217.32263577264018
20
-90.088873847048063
10
216.96790584498365
20
-90.475498443088156
10
216.55696958966527
20
-90.810079707479019
10
216.32920463205679
20
-90.955310519225762
10
216.08592474404185
20
-91.084478212763827
10
215.82664214278998
20
-91.196565359661079
10
215.5508690454709
20
-91.29055453148537
10
215.25811766925401
20
-91.365428299804705
10
214.94790023130895
20
-91.42016923618678
10
214.61972894880552
20
-91.453759912199629
10
214.27311603891323
20
-91.465182899411062
10
213.62960851591424
20
-91.42591303366882
10
213.33194520355653
20
-91.377921059328003
10
213.0498313406753
20
-91.311998042084795
10
212.78288378980682
20
-91.228874220497232
10
212.53071941348762
20
-91.129279833123348
10
212.06920763464245
20
-90.883600315248543
10
211.66223090443117
20
-90.580801396924628
10
211.30672412314487
20
-90.226724986615849
10
210.99962219107499
20
-89.827212992786372
10
210.73786000851271
20
-89.3881073239004
10
210.51837247574926
20
-88.91524988842221
10
210.33809449307591
20
-88.414482594815937
10
210.1939609607841
20
-87.891647351545828
10
210.08290677916477
20
-87.352586067076047
10
210.00186684850951
20
-86.803140649870841
10
209.94777606910935
20
-86.249153008394472
10
209.91756934125576
20
-85.696465051111062
10
209.90818156523977
20
-85.150918686484843
10
209.90818156523977
20
-67.869324270502304
10
209.94777606910935
20
-66.770442746184401
10
210.00186684850951
20
-66.216160432505632
10
210.08290677916477
20
-65.666440076150607
10
210.19396096078401
20
-65.127123920871924
10
210.33809449307591
20
-64.60405421042222
10
210.51837247574926
20
-64.103073188554248
10
210.73786000851271
20
-63.630023099020683
10
210.99962219107499
20
-63.190746185574227
10
211.30672412314487
20
-62.791084691967463
10
211.66223090443114
20
-62.436880861953163
10
212.06920763464245
20
-62.133976939283869
10
212.53071941348762
20
-61.888215167712374
10
213.04983134067527
20
-61.705437790991375
10
213.62960851591419
20
-61.591487052873447
10
214.2731160389132
20
-61.552205197111348
10
214.61972894880546
20
-61.563631190130579
10
214.94790023130889
20
-61.597230855456182
10
215.25811766925403
20
-61.651986722489944
10
215.55086904547082
20
-61.726881320633566
10
215.82664214279009
20
-61.820897179288906
10
216.0859247440419
20
-61.933016827857713
10
216.32920463205681
20
-62.062222795741761
10
216.55696958966524
20
-62.20749761234282
10
216.9679058449837
20
-62.542183909303155
10
217.32263577264021
20
-62.928935953952951
10
217.6250616352778
20
-63.359613981506442
10
217.87908569553969
20
-63.826078227177817
10
218.08861021606845
20
-64.320188926181388
10
218.25753745950732
20
-64.833806313731344
10
218.3897696884992
20
-65.358790625041948
10
218.4892091656871
20
-65.887002095327333
10
218.55975815371394
20
-66.410300959801845
10
218.60531891522277
20
-66.920547453679703
10
218.63708480925828
20
-67.869324270502304
10
218.63708480925828
20
-68.951235137557518
10
222.07998060190158
20
-68.951235137557518
10
222.07998060190158
20
-67.869324270502304
10
222.04601555647926
20
-66.76038840710909
10
221.94504561507182
20
-65.71053955751934
10
221.77845856996854
20
-64.721496598434186
10
221.54764221345857
20
-63.794978406554975
10
221.25398433783124
20
-62.93270385858289
10
221.08402351543901
20
-62.526195100031202
10
220.89887273537587
20
-62.136391831219235
10
220.6987054716781
20
-61.763508911734689
10
220.48369519838167
20
-61.407761201165258
10
220.25401538952283
20
-61.069363559098505
10
220.00983951913787
20
-60.748530845122133
10
219.75134106126276
20
-60.445477918823833
10
219.47869348993373
20
-60.160419639791201
10
219.19207027918696
20
-59.893570867611899
10
218.89164490305853
20
-59.645146461873665
10
218.57759083558466
20
-59.415361282164056
10
218.25008155080155
20
-59.204430188070774
10
217.90929052274521
20
-59.01256803918146
10
217.55539122545198
20
-58.839989695083794
10
217.1885571329579
20
-58.686910015365399
10
216.80896171929908
20
-58.553543859613967
10
216.4167784585118
20
-58.440106087417107
10
216.01218082463217
20
-58.346811558362539
10
215.59534229169634
20
-58.273875132037873
10
215.16643633374053
20
-58.221511668030779
10
214.72563642480077
20
-58.189936025928866
10
214.27311603891326
20
-58.179363065319905
10
213.81417105854604
20
-58.189682139257606
10
213.36776225143765
20
-58.220528880916135
0
LWPOLYLINE
5
101
100
AcDbEntity
8
0
100
AcDbPolyline
90
86
70
1
43
0.0
10
166.18473595722998
20
-89.884150073387289
10
165.80262077026416
20
-90.328361601192739
10
165.58912195788039
20
-90.528625760650456
10
165.35996179536457
20
-90.71277076247884
10
165.11461487956836
20
-90.879628040678483
10
164.85255580734309
20
-91.028029029249751
10
164.5732591755405
20
-91.15680516219328
10
164.52015967622179
20
-91.17610710702715
10
164.52015967622179
20
-94.707835668835614
10
165.03063101869304
20
-94.614893302939578
10
165.73920486731808
20
-94.42000761606846
10
166.43437749299878
20
-94.152946468832695
10
166.77458455418758
20
-93.990047101923579
10
167.10861675798358
20
-93.806340275137927
10
167.43553258716787
20
-93.600904790213974
10
167.75439052452123
20
-93.372819448889928
10
168.06424905282489
20
-93.121163052904024
10
168.36416665485979
20
-92.845014403994412
10
168.65320181340707
20
-92.543452303899414
10
168.93041301124771
20
-92.215555554357152
10
169.19485873116281
20
-91.860402957105904
10
169.4455974559333
20
-91.477073313883864
10
169.6816876683406
20
-91.064645426429138
10
169.90218785116554
20
-90.622198096480105
10
170.10615648718897
20
-90.148810125774872
10
170.29265205919222
20
-89.643560316051619
10
170.46073304995627
20
-89.105527469048752
10
170.60945794226203
20
-88.533790386504322
10
170.73788521889071
20
-87.927427870156535
10
170.8450733626234
20
-87.285518721743784
10
170.93008085624106
20
-86.607141743004107
10
170.99196618252478
20
-85.891375735675766
10
171.02978782425552
20
-85.137299501496969
10
171.04260426421439
20
-84.343991842205952
10
171.04260426421439
20
-68.675793334261186
10
171.00886765928044
20
-67.442576165965292
10
170.90817220917816
20
-66.281614694373005
10
170.74128946095681
20
-65.193917114167462
10
170.50899096166575
20
-64.180491620031447
10
170.36855191382182
20
-63.701945966078029
10
170.212048258354
20
-63.242346406648068
10
170.03957643864339
20
-62.801818966077114
10
169.8512328980712
20
-62.380489668700406
10
169.64711408001847
20
-61.978484538853266
10
169.4273164278664
20
-61.595929600871244
10
169.19193638499615
20
-61.232950879089572
10
168.94107039478897
20
-60.889674397843727
10
168.6748149006259
20
-60.566226181468949
10
168.39326634588809
20
-60.26273225430073
10
168.09652117395686
20
-59.97931864067445
10
167.78467582821327
20
-59.716111364925396
10
167.45782675203833
20
-59.473236451388985
10
167.11607038881345
20
-59.25081992440056
10
166.75950318191985
20
-59.048987808295578
10
166.3882215747384
20
-58.867866127409357
10
166.00232201065037
20
-58.70758090607724
10
165.60190093303689
20
-58.568258168634664
10
165.18705478527932
20
-58.450023939416965
10
164.75788001075856
20
-58.353004242759496
10
164.52015967622179
20
-58.31243097231124
10
164.52015967622179
20
-61.77829302488643
10
164.57325917554044
20
-61.797777134640924
10
164.85255580734304
20
-61.927767801102846
10
165.11461487956831
20
-62.077567430055666
10
165.35996179536454
20
-62.245996131438076
10
165.58912195788039
20
-62.431874015188583
10
165.80262077026416
20
-62.634021191245765
10
166.18473595722998
20
-63.082403860034631
10
166.51051058144972
20
-63.581705017313524
10
166.78414786811152
20
-64.122485542590994
10
167.00985104240334
20
-64.695306315375859
10
167.19182332951306
20
-65.290728215176898
10
167.33426795462876
20
-65.899312121502703
10
167.44138814293819
20
-66.511618913862179
10
167.51738711962957
20
-67.118209471763947
10
167.56646810989059
20
-67.709644674716827
10
167.60068903187388
20
-68.80929253381052
10
167.60068903187388
20
-84.20958079585985
10
167.56646810989059
20
-85.299396015751483
10
167.51738711962955
20
-85.885479467860449
10
167.44138814293819
20
-86.486548777416942
10
167.33426795462873
20
-87.093255416425265
10
167.19182332951308
20
-87.696250856889321
10
167.00985104240334
20
-88.286186570813499
10
166.78414786811146
20
-88.8537140302018
10
166.51051058144972
20
-89.38948470705833
0
LWPOLYLINE
5
102
100
AcDbEntity
8
0
100
AcDbPolyline
90
47
70
1
43
0.0
10
112.18335066516026
20
-79.355294052432271
10
115.35169672738988
20
-80.939200474357179
10
115.35169672738988
20
-84.209580795859864
10
115.31747612459941
20
-85.299330432511169
10
115.26839550068466
20
-85.885394644638922
10
115.19239699915533
20
-86.486452410206766
10
115.08527737306046
20
-87.093154197393687
10
114.94283337544883
20
-87.696150474378783
10
114.76086175936939
20
-88.286091709341022
10
114.53515927787106
20
-88.853628370459433
10
114.26152268400273
20
-89.389410925913069
10
113.93574873081332
20
-89.884089843880943
10
113.55363417135166
20
-90.328315592542083
10
113.3401356495965
20
-90.528586799688554
10
113.11097575866657
20
-90.712738640075486
10
112.8656290926931
20
-90.879602422225247
10
112.60357024580721
20
-91.028009454660207
10
112.32427381213984
20
-91.156791045902764
10
112.18335066516026
20
-91.20801962560148
10
112.18335066516026
20
-94.722332390881775
10
112.50865083619442
20
-94.666818002320156
10
112.93780109135741
20
-94.5698173144294
10
113.35263554097075
20
-94.451604941390229
10
113.75305684120299
20
-94.312306405207224
10
114.13896764822283
20
-94.152047227884907
10
114.51027061819903
20
-93.970952931427803
10
114.86686840730019
20
-93.769149037840563
10
115.20866367169496
20
-93.546761069127655
10
115.53555906755214
20
-93.303914547293687
10
115.84745725104021
20
-93.040734994343183
10
116.14426087832804
20
-92.757347932280766
10
116.42587260558417
20
-92.453878883110917
10
116.6921950889774
20
-92.130453368838175
10
116.94313098467634
20
-91.787196911467191
10
117.17858294884965
20
-91.424235033002475
10
117.39845363766608
20
-91.041693255448536
10
117.60264570729416
20
-90.639697100810025
10
117.79106181390273
20
-90.218372091091439
10
117.96360461366032
20
-89.7778437482973
10
118.12017676273581
20
-89.318237594432262
10
118.26068091729766
20
-88.839679151500803
10
118.49309586755541
20
-87.82620748645698
10
118.66007071378313
20
-86.738432929202247
10
118.76082670533016
20
-85.577359655773051
10
118.79458509154605
20
-84.343991842205895
10
118.794585091546
20
-78.73567161935128
10
112.18335066516026
20
-75.447548386683337
0
LWPOLYLINE
5
103
100
AcDbEntity
8
0
100
AcDbPolyline
90
6
70
1
43
0.0
10
56.647300811404868
20
-100.20695971164662
10
51.605653444563302
20
-100.20695971164662
10
54.914171619052645
20
-103.5145381825125
10
60.090181747073856
20
-103.5145381825125
10
60.090181747073785
20
-58.716096787468203
10
56.647300811404868
20
-58.716096787468217
0
LWPOLYLINE
5
104
100
AcDbEntity
8
0
100
AcDbPolyline
90
139
70
1
43
0.0
10
103.04276909485942
20
-64.180348993081537
10
102.81042470616154
20
-65.193832875125125
10
102.64350199899067
20
-66.281575471961801
10
102.54277832027448
20
-67.442565914653272
10
102.50903101694075
20
-68.675793334261158
10
102.50903101694075
20
-84.343991842205895
10
102.54277832027452
20
-85.577359655773051
10
102.64350199899067
20
-86.738432929202247
10
102.81042470616154
20
-87.82620748645698
10
103.04276909485942
20
-88.839679151500803
10
103.18323149886612
20
-89.318237594432262
10
103.33975781815674
20
-89.777843748297315
10
103.51225088436524
20
-90.218372091091439
10
103.70061352912572
20
-90.639697100810025
10
103.90474858407219
20
-91.041693255448536
10
104.12455888083872
20
-91.424235033002475
10
104.35994725105935
20
-91.787196911467191
10
104.6108165263681
20
-92.130453368838204
10
104.87706953839907
20
-92.453878883110917
10
105.15860911878619
20
-92.757347932280766
10
105.45533809916364
20
-93.040734994343183
10
105.76715931116527
20
-93.303914547293687
10
106.09397558642527
20
-93.546761069127655
10
106.43568975657769
20
-93.769149037840563
10
106.79220465325653
20
-93.970952931427803
10
107.1634231080958
20
-94.152047227884907
10
107.54924795272956
20
-94.312306405207224
10
107.94958201879186
20
-94.451604941390229
10
108.36432813791671
20
-94.5698173144294
10
108.58335066516022
20
-94.619333200555076
10
108.58335066516022
20
-90.962810296387474
10
108.43643705111518
20
-90.879602422225247
10
108.19111089395963
20
-90.712738640075486
10
107.96196436265426
20
-90.528586799688554
10
107.74847258860788
20
-90.328315592542083
10
107.36635383792699
20
-89.884089843880943
10
107.04055569318729
20
-89.389410925913069
10
106.76687920565885
20
-88.853628370459433
10
106.54112542661196
20
-88.286091709341022
10
106.359095407317
20
-87.696150474378797
10
106.21659019904382
20
-87.093154197393716
10
106.10941085306294
20
-86.486452410206766
10
106.03335842064446
20
-85.885394644638922
10
105.98423395305855
20
-85.299330432511184
10
105.94997311746565
20
-84.209580795859864
10
105.94997311746565
20
-76.239129803275631
10
108.58335066516022
20
-77.555596984329469
10
108.58335066516022
20
-73.657074342931125
10
105.94997311746565
20
-72.347353746668063
10
105.94997311746565
20
-68.809064107830906
10
105.98423395305855
20
-67.709491647156227
10
106.03335842064446
20
-67.118086949332991
10
106.10941085306294
20
-66.511522546652031
10
106.21659019904382
20
-65.899237894212945
10
106.35909540731691
20
-65.290672447115426
10
106.54112542661207
20
-64.695265660459086
10
106.76687920565885
20
-64.122456989343561
10
107.04055569318729
20
-63.581685888868442
10
107.36635383792699
20
-63.08239181413343
10
107.74847258860788
20
-62.6340142202381
10
107.96196436265426
20
-62.431868933323997
10
108.19111089395967
20
-62.245992562282183
10
108.43643705111518
20
-62.077565039000078
10
108.69846770271207
20
-61.927766295365231
10
108.97772771734165
20
-61.797776263264993
10
109.27474196359501
20
-61.688774874586905
10
109.59003531006343
20
-61.601942061218352
10
109.92413262533813
20
-61.538457755046835
10
110.27755877801035
20
-61.499501887959767
10
110.6508386366713
20
-61.486254391844653
10
111.09298387437548
20
-61.505081600516988
10
111.51583442921915
20
-61.561479431167818
10
111.91899090394853
20
-61.655322190747896
10
112.30205390130955
20
-61.786484186207829
10
112.66462402404824
20
-61.954839724498463
10
113.00630187491059
20
-62.160263112570448
10
113.32668805664258
20
-62.402628657374507
10
113.62538317199028
20
-62.681810665861363
10
113.84238870138653
20
-62.923021020272749
10
114.04564780081785
20
-63.185773162889888
10
114.23499215411371
20
-63.469476752737322
10
114.41025344510358
20
-63.773541448839595
10
114.57126335761674
20
-64.097376910221314
10
114.71785357548271
20
-64.440392795906988
10
114.96710166259095
20
-65.181604476288555
10
115.15665117706341
20
-65.992453762180773
10
115.28515558953569
20
-66.868217925780101
10
115.35126837064311
20
-67.804174239283071
10
115.35364299102106
20
-68.795599974886159
10
115.33806545348443
20
-69.28623669363617
10
118.78484634490295
20
-69.28623669363617
10
118.79458509154605
20
-68.819789914702937
10
118.79838417148702
20
-68.130292053351909
10
118.77920792003951
20
-67.459738610629572
10
118.73719747120496
20
-66.808594907079325
10
118.67249395898466
20
-66.177326263244524
10
118.58523851737982
20
-65.566397999668609
10
118.4755722803919
20
-64.976275436894909
10
118.34363638202203
20
-64.407423895466877
10
118.18957195627171
20
-63.860308695927834
10
118.01352013714219
20
-63.335395158821214
10
117.81562205863469
20
-62.833148604690372
10
117.59601885475078
20
-62.354034354078692
10
117.35485165949146
20
-61.898517727529594
10
117.0922616068583
20
-61.467064045586412
10
116.80838983085241
20
-61.0601386287926
10
116.50337746547514
20
-60.678206797691487
10
116.17736564472793
20
-60.321733872826485
10
115.63411282097277
20
-59.821202455446013
10
115.04753488389139
20
-59.386714436278645
10
114.4182139541108
20
-59.018483757685175
10
113.74673215225823
20
-58.716724362026667
10
113.03367159896081
20
-58.481650191664002
10
112.27961441484578
20
-58.313475188958094
10
111.48514272054018
20
-58.212413296269844
10
110.6508386366713
20
-58.178678455960231
10
110.16548977772291
20
-58.189582397564536
10
109.69406713000726
20
-58.222209983299336
10
109.23666786189038
20
-58.276434854547347
10
108.79338914173822
20
-58.352130652691159
10
108.36432813791671
20
-58.449171019113621
10
107.94958201879186
20
-58.56742959519741
10
107.54924795272956
20
-58.706780022325162
10
107.1634231080958
20
-58.867095941879711
10
106.79220465325653
20
-59.04825099524372
10
106.43568975657769
20
-59.250118823799838
10
106.09397558642527
20
-59.472573068930821
10
105.76715931116527
20
-59.715487372019439
10
105.45533809916364
20
-59.978735374448334
10
105.15860911878619
20
-60.262190717600248
10
104.87706953839901
20
-60.565727042857858
10
104.61081652636814
20
-60.889217991603957
10
104.35994725105935
20
-61.232537205221135
10
104.12455888083872
20
-61.595558325092213
10
103.90474858407219
20
-61.978154992599848
10
103.70061352912572
20
-62.380200849126766
10
103.51225088436524
20
-62.801569536055709
10
103.33975781815674
20
-63.242134694769319
10
103.18323149886612
20
-63.70176996665036
0
LWPOLYLINE
5
105
100
AcDbEntity
8
0
100
AcDbPolyline
90
81
70
1
43
0.0
10
154.95462809959534
20
-87.285518721743756
10
155.06183628537184
20
-87.927427870156549
10
155.19028659647685
20
-88.533790386504307
10
155.33903698249455
20
-89.105527469048695
10
155.50714539300876
20
-89.643560316051605
10
155.69366977760362
20
-90.148810125774759
10
155.89766808586296
20
-90.622198096479991
10
156.11819826737087
20
-91.064645426429024
10
156.35431827171124
20
-91.477073313883722
10
156.60508604846808
20
-91.860402957105848
10
156.86955954722544
20
-92.215555554357124
10
157.14679671756716
20
-92.543452303899386
10
157.43585550907727
20
-92.845014403994412
10
157.73579387133978
20
-93.121163052904009
10
158.04566975393868
20
-93.372819448889871
10
158.36454110645792
20
-93.600904790213946
10
158.69146587848138
20
-93.806340275137899
10
159.02550201959326
20
-93.990047101923551
10
159.36570747937736
20
-94.152946468832653
10
160.06085815329826
20
-94.42000761606846
10
160.76938149691591
20
-94.614893302939578
10
160.92015967622183
20
-94.642348938776507
10
160.92015967622183
20
-91.012774059924539
10
160.68503991838492
20
-90.879628040678483
10
160.43969381916
20
-90.71277076247884
10
160.2105344079261
20
-90.528625760650456
10
159.99703628425524
20
-90.328361601192739
10
159.61492229788976
20
-89.884150073387289
10
159.28914865663873
20
-89.38948470705833
10
159.01551215707735
20
-88.8537140302018
10
158.78980959578084
20
-88.286186570813499
10
158.60783776932436
20
-87.696250856889321
10
158.46539347428308
20
-87.093255416425208
10
158.3582735072323
20
-86.486548777416914
10
158.28227466474698
20
-85.885479467860378
10
158.23319374340252
20
-85.299396015751398
10
158.19897285043669
20
-84.20958079585985
10
158.19897285043669
20
-68.809292533810535
10
158.23319374340252
20
-67.709644674716799
10
158.28227466474698
20
-67.118209471763933
10
158.35827350723221
20
-66.511618913862179
10
158.46539347428308
20
-65.899312121502703
10
158.60783776932436
20
-65.290728215176898
10
158.78980959578084
20
-64.695306315375859
10
159.01551215707735
20
-64.122485542590994
10
159.28914865663882
20
-63.581705017313524
10
159.61492229788976
20
-63.082403860034674
10
159.99703628425524
20
-62.634021191245765
10
160.2105344079261
20
-62.431874015188583
10
160.43969381916
20
-62.245996131438105
10
160.68503991838492
20
-62.07756743005568
10
160.92015967622183
20
-61.943166544511556
10
160.92015967622183
20
-58.380629266727354
10
160.61325261778308
20
-58.450023939417015
10
160.19848121872388
20
-58.568258168634685
10
159.79811830085097
20
-58.707580906077283
10
159.41226138754163
20
-58.867866127409378
10
159.04100800217293
20
-59.048987808295685
10
158.68445566812241
20
-59.250819924400687
10
158.3427019087674
20
-59.47323645138907
10
158.01584424748489
20
-59.716111364925425
10
157.70398020765239
20
-59.979318640674407
10
157.40720731264705
20
-60.262732254300758
10
157.12562308584612
20
-60.566226181468998
10
156.85932505062698
20
-60.889674397843727
10
156.60841073036681
20
-61.232950879089572
10
156.372977648443
20
-61.59592960087123
10
156.15312332823271
20
-61.978484538853387
10
155.94894529311327
20
-62.380489668700498
10
155.76054106646203
20
-62.801818966077207
10
155.5880081716563
20
-63.242346406648124
10
155.43144413207312
20
-63.701945966078014
10
155.29094647108994
20
-64.180491620031461
10
155.05854037843255
20
-65.193917114167462
10
154.89157008070234
20
-66.281614694373033
10
154.79081576491751
20
-67.442576165965278
10
154.75705761809633
20
-68.675793334261144
10
154.75705761809633
20
-84.343991842205966
10
154.769876798398
20
-85.137299501496969
10
154.80770630569239
20
-85.891375735675751
10
154.86960408956355
20
-86.607141743004121
0
LWPOLYLINE
5
106
100
AcDbEntity
8
0
100
AcDbPolyline
90
46
70
1
43
0.0
10
197.47170536531371
20
-94.31230640520721
10
197.85756227862308
20
-94.152047227884864
10
198.22881566399167
20
-93.970952931427775
10
198.58536799804222
20
-93.769149037840521
10
198.92712175739734
20
-93.546761069127641
10
199.25397941867985
20
-93.303914547293644
10
199.56584345851246
20
-93.040734994343168
10
199.86261635351781
20
-92.757347932280751
10
200.14420058031868
20
-92.453878883110889
10
200.41049861553779
20
-92.130453368838161
10
200.66141293579801
20
-91.787196911467134
10
200.89684601772183
20
-91.424235033002446
10
201.11670033793212
20
-91.041693255448521
10
201.32087837305147
20
-90.639697100809983
10
201.50928259970271
20
-90.218372091091425
10
201.68181549450856
20
-89.7778437482973
10
201.83837953409167
20
-89.318237594432262
10
201.97887719507492
20
-88.839679151500789
10
202.2112832877323
20
-87.826207486456966
10
202.37825358546252
20
-86.738432929202233
10
202.47900790124737
20
-85.577359655773023
10
202.51276604806858
20
-84.343991842205881
10
202.51276604806858
20
-78.73567161935128
10
196.06274406624536
20
-75.527483111116766
10
196.06274406624536
20
-79.43539903684507
10
199.07085081572802
20
-80.939200474357165
10
199.07085081572802
20
-84.20958079585985
10
199.0365903138366
20
-85.299330432511141
10
198.98746624705538
20
-85.885394644638907
10
198.91141435690196
20
-86.486452410206738
10
198.804235683765
20
-87.093154197393673
10
198.66173126803312
20
-87.696150474378754
10
198.47970215009497
20
-88.286091709341008
10
198.25394937033928
20
-88.853628370459404
10
197.9802739691545
20
-89.389410925913069
10
197.6544769869295
20
-89.884089843880901
10
197.27235946405273
20
-90.328315592542069
10
197.05886832499152
20
-90.528586799688526
10
196.82972244091303
20
-90.712738640075486
10
196.58439694186598
20
-90.879602422225233
10
196.32236695789882
20
-91.028009454660179
10
196.06274406624536
20
-91.14773561762108
10
196.06274406624536
20
-94.694937267211117
10
196.22748869151343
20
-94.666818002320127
10
196.65657104838161
20
-94.5698173144294
10
197.07134244744083
20
-94.451604941390201
0
LWPOLYLINE
5
107
100
AcDbEntity
8
0
100
AcDbPolyline
90
83
70
1
43
0.0
10
228.44411039188969
20
-92.845014403994412
10
228.74404875415223
20
-93.121163052903995
10
229.05392463675105
20
-93.372819448889885
10
229.37279598927032
20
-93.60090479021396
10
229.69972076129383
20
-93.806340275137899
10
230.03375690240571
20
-93.990047101923551
10
230.37396236218981
20
-94.152946468832667
10
231.06911303611074
20
-94.420007616068432
10
231.77763637972842
20
-94.614893302939578
10
231.98107551330264
20
-94.651938124624706
10
231.98107551330264
20
-91.039808406267696
10
231.95553260008461
20
-91.028029029249723
10
231.69353345132157
20
-90.879628040678455
10
231.44825280566479
20
-90.712770762478826
10
231.2191645499434
20
-90.528625760650456
10
231.00574257098606
20
-90.328361601192725
10
230.62379299067928
20
-89.884150073387289
10
230.29819515937547
20
-89.389484707058358
10
230.02474017170542
20
-88.8537140302018
10
229.79921912230031
20
-88.286186570813484
10
229.617423105791
20
-87.69625085688935
10
229.47514321680842
20
-87.093255416425251
10
229.36817054998355
20
-86.486548777416914
10
229.29229619994726
20
-85.885479467860392
10
229.2433112613308
20
-85.299396015751441
10
229.20917399688037
20
-84.209580795859864
10
229.20917399688037
20
-68.809292533810563
10
229.21926388462853
20
-68.176677107161225
10
229.2517376032221
20
-67.535756445086847
10
229.30990123568444
20
-66.893308113543611
10
229.39706086503924
20
-66.25610967848759
10
229.51652257431016
20
-65.630938705874925
10
229.67159244652061
20
-65.024572761661631
10
229.86557656469415
20
-64.44378941180392
10
230.10178101185429
20
-63.895366222257991
10
230.38351187102464
20
-63.386080758979816
10
230.71407522522878
20
-62.922710587925543
10
231.09677715749012
20
-62.512033275051273
10
231.30871324133716
20
-62.328572429792963
10
231.53492375083238
20
-62.16082638631319
10
231.77582194635366
20
-62.009642340356486
10
231.98107551330264
20
-61.902385083648483
10
231.98107551330264
20
-58.357211132495465
10
231.5739422395441
20
-58.450023939417086
10
231.16254833700475
20
-58.56825816863477
10
230.76544458398666
20
-58.70758090607724
10
230.38272778840334
20
-58.867866127409343
10
230.01449475816887
20
-59.048987808295578
10
229.66084230119705
20
-59.250819924400574
10
229.32186722540166
20
-59.473236451388971
10
228.99766633869675
20
-59.716111364925354
10
228.68833644899604
20
-59.979318640674428
10
228.39397436421331
20
-60.262732254300772
10
228.11467689226251
20
-60.566226181469005
10
227.85054084105764
20
-60.889674397843706
10
227.60166301851226
20
-61.232950879089572
10
227.36814023254041
20
-61.595929600871258
10
227.1500692910559
20
-61.97848453885328
10
226.94754700197251
20
-62.380489668700449
10
226.7606701732042
20
-62.80181896607715
10
226.58953561266483
20
-63.242346406648089
10
226.43424012826819
20
-63.701945966078029
10
226.2948805279282
20
-64.180491620031503
10
226.0643562110734
20
-65.193917114167519
10
225.89873712541134
20
-66.281614694373104
10
225.79879773425284
20
-67.442576165965278
10
225.76531250090875
20
-68.675793334261186
10
225.76531250090875
20
-84.343991842205881
10
225.7781316812104
20
-85.137299501496884
10
225.81596118850487
20
-85.891375735675723
10
225.87785897237592
20
-86.607141743003979
10
225.96288298240782
20
-87.285518721743699
10
226.07009116818421
20
-87.927427870156535
10
226.19854147928925
20
-88.533790386504293
10
226.34729186530691
20
-89.105527469048695
10
226.51540027582126
20
-89.643560316051577
10
226.70192466041607
20
-90.148810125774759
10
226.90592296867544
20
-90.622198096479977
10
227.12645315018324
20
-91.064645426429038
10
227.36257315452363
20
-91.477073313883722
10
227.61334093128056
20
-91.860402957105833
10
227.87781443003786
20
-92.215555554357124
10
228.15505160037958
20
-92.543452303899386
0
LWPOLYLINE
5
108
100
AcDbEntity
8
0
100
AcDbPolyline
90
51
70
1
43
0.0
10
183.95410233652072
20
-90.926851578966321
10
178.77614965911187
20
-90.926851578966321
10
178.77614965911187
20
-68.338737801487838
10
178.79119968700883
20
-67.493671469435952
10
178.83721693050342
20
-66.717879707436779
10
178.91550212930122
20
-66.009507251847083
10
179.0273560231077
20
-65.366698839023059
10
179.17407935162856
20
-64.787599205321257
10
179.35697285456928
20
-64.270353087098115
10
179.57733727163543
20
-63.813105220710128
10
179.83647334253263
20
-63.414000342513731
10
180.1356818069664
20
-63.071183188865341
10
180.47626340464231
20
-62.782798496121316
10
180.85951887526585
20
-62.546991000638315
10
181.28674895854266
20
-62.361905438772638
10
181.7592543941783
20
-62.225686546880837
10
182.27833592187835
20
-62.136479061319307
10
182.84529428134832
20
-62.092427718444455
10
183.46143021229378
20
-62.091677254612812
10
183.95410233652072
20
-62.107195364252306
10
183.95410233652072
20
-58.721801865593179
10
183.31829812204319
20
-58.715868593628784
10
182.34308087112851
20
-58.75228938852657
10
181.43240368758114
20
-58.861723370864787
10
181.0011976457551
20
-58.943900743720107
10
180.5860426503927
20
-59.044427937110854
10
180.18691071136786
20
-59.163337125595419
10
179.80377383855452
20
-59.300660483732194
10
179.4366040418268
20
-59.456430186079594
10
179.08537333105855
20
-59.630678407196029
10
178.7500537161236
20
-59.823437321640043
10
178.4306172068961
20
-60.034739103969898
10
178.12703581324993
20
-60.264615928744156
10
177.83928154505895
20
-60.513099970521154
10
177.56732641219719
20
-60.780223403859317
10
177.31114242453856
20
-61.066018403317116
10
177.070701591957
20
-61.370517143452915
10
176.84597592432647
20
-61.693751798825275
10
176.63693743152106
20
-62.035754543992425
10
176.44355812341456
20
-62.396557553512849
10
176.26581000988085
20
-62.776193001944947
10
176.1036651007941
20
-63.174693063847215
10
175.82607293545686
20
-64.028415726295947
10
175.61055770639442
20
-64.957982937326307
10
175.45689549259822
20
-65.963652093405599
10
175.36486237306008
20
-67.045680591001457
10
175.33423442677139
20
-68.20432582658097
10
175.33423442677139
20
-102.50564934406233
10
178.77614965911187
20
-102.50564934406233
10
178.77614965911187
20
-94.301520431454549
10
183.95410233652072
20
-94.301520431454549
0
LWPOLYLINE
5
109
100
AcDbEntity
8
0
100
AcDbPolyline
90
100
70
1
43
0.0
10
135.59582966926922
20
-87.093100787006392
10
135.4533025436946
20
-87.696077611366235
10
135.27124214123421
20
-88.285998044388165
10
135.04544813119853
20
-88.853513228908724
10
134.77172018289798
20
-89.389274307764566
10
134.445857965643
20
-89.883932423792089
10
134.06366114874416
20
-90.328138719827962
10
133.85012466208781
20
-90.528400917485442
10
133.62092940151177
20
-90.712544338708682
10
133.37555032567997
20
-90.87940037635228
10
133.11346239325633
20
-91.027800423270804
10
132.83414056290454
20
-91.156575872318797
10
132.53705979328839
20
-91.264558116350898
10
132.22169504307163
20
-91.350578548221577
10
131.8875212709182
20
-91.413468560785446
10
131.53401343549183
20
-91.45205954689709
10
131.16064649545635
20
-91.465182899411062
10
130.78728101853901
20
-91.45205954689709
10
130.43378011694162
20
-91.413468560785446
10
130.09961838751568
20
-91.350578548221577
10
129.78427042711263
20
-91.264558116350898
10
129.48721083258405
20
-91.156575872318797
10
129.20791420078135
20
-91.027800423270804
10
128.94585512855616
20
-90.87940037635228
10
128.70050821275998
20
-90.712544338708682
10
128.47134805024413
20
-90.528400917485442
10
128.25784923786043
20
-90.328138719827962
10
127.87573405089464
20
-89.883932423792089
10
127.54995942667485
20
-89.389274307764566
10
127.27632214001301
20
-88.853513228908724
10
127.05061896572121
20
-88.285998044388165
10
126.86864667861147
20
-87.696077611366235
10
126.72620205349581
20
-87.093100787006392
10
126.61908186518633
20
-86.486416428472182
10
126.54308288849504
20
-85.885373392926923
10
126.49400189823393
20
-85.299320537534186
10
126.45978097625058
20
-84.209580795859864
10
126.45978097625058
20
-58.715868593628784
10
123.01786574391009
20
-58.715868593628784
10
123.01786574391009
20
-84.343763416226295
10
123.03068492466525
20
-85.137070917451126
10
123.06851443513345
20
-85.8911470245082
10
123.13041222761913
20
-86.606912933959066
10
123.21543625442675
20
-87.285289842365259
10
123.32264446786041
20
-87.927198946288314
10
123.4510948202248
20
-88.533561442289752
10
123.59984526382416
20
-89.105298526931165
10
123.76795375096282
20
-89.643331396774002
10
123.95447823394527
20
-90.148581248379926
10
124.15847666507567
20
-90.62196927831036
10
124.37900699665863
20
-91.064416683126922
10
124.61512718099833
20
-91.476844659391134
10
124.86589517039928
20
-91.860174403664445
10
125.13036891716574
20
-92.215327112508561
10
125.40760637360215
20
-92.543223982484903
10
125.6966654920129
20
-92.844786210155036
10
125.99660422470237
20
-93.120934992080521
10
126.30648052397478
20
-93.372591524822894
10
126.62535234213465
20
-93.600677004943634
10
126.95227763148625
20
-93.806112629004375
10
127.28631434433407
20
-93.989819593566594
10
127.62652043298249
20
-94.152719095191841
10
128.32167254689818
20
-94.419780495877617
10
129.03019759166841
20
-94.614666403553997
10
129.74455918572826
20
-94.744746390713303
10
130.45722094751258
20
-94.817390029847871
10
131.16064649545635
20
-94.839966893449983
10
131.86408027349646
20
-94.817390029847871
10
132.57677039628709
20
-94.744746390713303
10
133.29117763129113
20
-94.614666403553997
10
133.99976274597134
20
-94.419780495877617
10
134.69498650779059
20
-94.152719095191841
10
135.03523187120953
20
-93.989819593566594
10
135.36930968421186
20
-93.806112629004375
10
135.69627754273031
20
-93.600677004943634
10
136.01519304269786
20
-93.372591524822894
10
136.32511378004719
20
-93.120934992080521
10
136.62509735071143
20
-92.844786210155036
10
136.91420135062319
20
-92.543223982484903
10
137.19148337571551
20
-92.215327112508561
10
137.45600102192114
20
-91.860174403664445
10
137.70681188517298
20
-91.476844659391134
10
137.94297356140379
20
-91.064416683126922
10
138.16354364654649
20
-90.62196927831036
10
138.36757973653403
20
-90.148581248379926
10
138.55413942729911
20
-89.643331396774002
10
138.72228031477471
20
-89.105298526931165
10
138.87105999489361
20
-88.533561442289752
10
138.99953606358866
20
-87.927198946288314
10
139.10676611679281
20
-87.285289842365259
10
139.19180775043878
20
-86.606912933959066
10
139.25371856045953
20
-85.8911470245082
10
139.29155614278787
20
-85.137070917451126
10
139.30437809335672
20
-84.343763416226295
10
139.30437809335672
20
-58.715868593628784
10
135.86247771799052
20
-58.715868593628784
10
135.86247771799052
20
-84.209580795859864
10
135.8282146915742
20
-85.299320537534186
10
135.77908541251952
20
-85.885373392926923
10
135.70302384864772
20
-86.486416428472182
0
LWPOLYLINE
5
110
100
AcDbEntity
8
0
100
AcDbPolyline
90
100
70
1
43
0.0
10
78.534987440233294
20
-85.2993205375342
10
78.485906449972191
20
-85.885373392926937
10
78.409907473280853
20
-86.486416428472182
10
78.302787284971373
20
-87.093100787006392
10
78.160342659855758
20
-87.696077611366235
10
77.978370372746042
20
-88.285998044388165
10
77.752667198454191
20
-88.853513228908724
10
77.479029911792423
20
-89.389274307764566
10
77.153255287572591
20
-89.883932423792103
10
76.771140100606885
20
-90.328138719827962
10
76.557641288223124
20
-90.528400917485442
10
76.32848112570727
20
-90.712544338708696
10
76.083134209911066
20
-90.879400376352294
10
75.821075137685838
20
-91.027800423270833
10
75.541778505883201
20
-91.156575872318825
10
75.244718911354624
20
-91.264558116350912
10
74.929370950951551
20
-91.350578548221591
10
74.595209221525565
20
-91.413468560785475
10
74.241708319928222
20
-91.452059546897118
10
73.868342843010907
20
-91.465182899411104
10
73.495063659234148
20
-91.452059546897118
10
73.141638139280047
20
-91.413468560785475
10
72.807541415917541
20
-91.350578548221591
10
72.492248621915607
20
-91.264558116350912
10
72.195234890043281
20
-91.156575872318825
10
71.915975353069427
20
-91.027800423270833
10
71.653945143763167
20
-90.879400376352294
10
71.408619394893293
20
-90.712544338708696
10
71.179473239228884
20
-90.528400917485442
10
70.965981809538931
20
-90.328138719827962
10
70.583863659158197
20
-89.883932423792103
10
70.258066005902833
20
-89.389274307764566
10
69.984389911924652
20
-88.853513228908724
10
69.758636439375437
20
-88.285998044388165
10
69.576606650406944
20
-87.696077611366235
10
69.434101607171073
20
-87.093100787006392
10
69.326922371819464
20
-86.486416428472182
10
69.250870006504002
20
-85.885373392926937
10
69.201745573376485
20
-85.2993205375342
10
69.167484752292296
20
-84.209580795859893
10
69.167484752292296
20
-58.715868593628784
10
65.726542651767446
20
-58.715868593628784
10
65.726542651767446
20
-84.343763416226309
10
65.739359061802034
20
-85.137070917451155
10
65.777180494062463
20
-85.8911470245082
10
65.83906525178395
20
-86.60691293395908
10
65.924071638201582
20
-87.285289842365259
10
66.031257956550391
20
-87.927198946288328
10
66.159682510065466
20
-88.533561442289752
10
66.308403601981894
20
-89.105298526931165
10
66.476479535534878
20
-89.643331396774045
10
66.662968613959421
20
-90.148581248379941
10
66.86692914049064
20
-90.62196927831036
10
67.08741941836368
20
-91.064416683126922
10
67.32349775081363
20
-91.476844659391134
10
67.574222441075619
20
-91.860174403664502
10
67.838651792384582
20
-92.215327112508575
10
68.115844107975818
20
-92.543223982484918
10
68.40485769108426
20
-92.844786210155064
10
68.704750844945082
20
-93.120934992080535
10
69.014581872793428
20
-93.372591524822909
10
69.333409077864275
20
-93.600677004943662
10
69.660290763392936
20
-93.806112629004389
10
69.994285232614288
20
-93.989819593566594
10
70.334450788763519
20
-94.152719095191884
10
71.02952837478604
20
-94.419780495877632
10
71.737989947341248
20
-94.614666403553997
10
72.452301932309922
20
-94.744746390713303
10
73.164930755572868
20
-94.817390029847886
10
73.868342843010907
20
-94.839966893449983
10
74.5720878177153
20
-94.817390029847886
10
75.284986491292585
20
-94.744746390713303
10
75.999511024212268
20
-94.614666403553997
10
76.708133576944348
20
-94.419780495877632
10
77.403326309958345
20
-94.152719095191884
10
77.743534044217881
20
-93.989819593566594
10
78.077561383724046
20
-93.806112629004389
10
78.40446734853569
20
-93.600677004943662
10
78.723310958711295
20
-93.372591524822909
10
79.033151234309742
20
-93.120934992080535
10
79.333047195389696
20
-92.844786210155064
10
79.622057862009996
20
-92.543223982484918
10
79.899242254229137
20
-92.215327112508575
10
80.163659392105984
20
-91.860174403664502
10
80.414368295699177
20
-91.476844659391134
10
80.650427985067594
20
-91.064416683126922
10
80.870897480269804
20
-90.62196927831036
10
81.074835801364486
20
-90.148581248379941
10
81.261301968410493
20
-89.643331396774045
10
81.429355001466462
20
-89.105298526931165
10
81.578053920591145
20
-88.533561442289752
10
81.706457745843153
20
-87.927198946288328
10
81.813625497281379
20
-87.285289842365259
10
81.898616194964475
20
-86.60691293395908
10
81.960488858951123
20
-85.8911470245082
10
81.998302509300032
20
-85.137070917451155
10
82.011116166069939
20
-84.343763416226309
10
82.011116166069939
20
-58.715868593628784
10
78.569208362216642
20
-58.715868593628784
10
78.569208362216642
20
-84.209580795859893
0
LWPOLYLINE
5
111
100
AcDbEntity
8
0
100
AcDbPolyline
90
11
70
1
43
0.0
10
92.293524069105473
20
-67.609172150865774
10
92.450282790457052
20
-68.782706906890468
10
92.630413389479003
20
-69.902157633717451
10
97.208597443535751
20
-94.302203852271589
10
100.67192900430638
20
-94.302203852271589
10
93.761816552117267
20
-58.716781427021445
10
90.823285322462368
20
-58.716781427021445
10
84.049493037814713
20
-94.302203852271617
10
87.579027275994292
20
-94.302203852271617
10
91.956634748731886
20
-69.902157633717451
10
92.135670574461301
20
-68.782706906890468
0
LWPOLYLINE
5
112
100
AcDbEntity
8
0
100
AcDbPolyline
90
51
70
1
43
0.0
10
147.30500731495499
20
-90.926851578966321
10
147.30500731495499
20
-68.338737801487838
10
147.32010027065729
20
-67.493671469435895
10
147.36623485015318
20
-66.717879707436808
10
147.44469462202596
20
-66.009507251847083
10
147.5567631548592
20
-65.366698839023044
10
147.70372401723625
20
-64.787599205321257
10
147.88686077774048
20
-64.270353087098115
10
148.10745700495542
20
-63.813105220710128
10
148.36679626746457
20
-63.414000342513702
10
148.66616213385126
20
-63.071183188865291
10
149.00683817269882
20
-62.782798496121316
10
149.39010795259082
20
-62.546991000638315
10
149.81725504211067
20
-62.361905438772652
10
150.28956300984177
20
-62.225686546880837
10
150.80831542436758
20
-62.136479061319307
10
151.3747958542715
20
-62.092427718444455
10
151.99028786813702
20
-62.091677254612833
10
152.48394055266661
20
-62.107195364252306
10
152.48394055266661
20
-58.721801865593179
10
151.84717063486065
20
-58.715868593628784
10
150.87212598745629
20
-58.752289388526563
10
149.96159986190486
20
-58.86172337086478
10
149.53046171837354
20
-58.943900743720121
10
149.11536977356531
20
-59.044427937110875
10
148.71629621689982
20
-59.163337125595419
10
148.33321323779703
20
-59.300660483732166
10
147.96609302567688
20
-59.456430186079565
10
147.61490776995925
20
-59.630678407196044
10
147.27962966006399
20
-59.823437321640043
10
146.96023088541114
20
-60.034739103969912
10
146.65668363542042
20
-60.264615928744178
10
146.3689600995119
20
-60.513099970521154
10
146.09703246710541
20
-60.780223403859338
10
145.84087292762081
20
-61.066018403317116
10
145.60045367047806
20
-61.370517143452915
10
145.3757468850971
20
-61.693751798825183
10
145.16672476089778
20
-62.03575454399234
10
144.97335948729986
20
-62.396557553512778
10
144.79562325372356
20
-62.776193001944911
10
144.63348824958859
20
-63.174693063847229
10
144.35591068732225
20
-64.028415726295947
10
144.14040431586014
20
-64.957982937326307
10
143.98674665056151
20
-65.963652093405614
10
143.89471520678563
20
-67.045680591001386
10
143.86408749989153
20
-68.204325826580913
10
143.86408749989153
20
-102.50564934406235
10
147.30500731495499
20
-102.50564934406235
10
147.30500731495499
20
-94.301520431454549
10
152.48394055266661
20
-94.301520431454549
10
152.48394055266661
20
-90.926851578966321
0
LWPOLYLINE
5
113
100
AcDbEntity
8
0
100
AcDbPolyline
90
140
70
1
43
0.0
10
192.46274406624536
20
-77.635700546764994
10
192.46274406624536
20
-73.736872371774851
10
189.66913463429094
20
-72.347353746668048
10
189.66913463429094
20
-68.809064107830892
10
189.70335555627426
20
-67.709491647156199
10
189.75243654653531
20
-67.118086949332977
10
189.82843552322663
20
-66.511522546652003
10
189.93555571153621
20
-65.899237894212931
10
190.0780003366518
20
-65.290672447115398
10
190.25997262376151
20
-64.695265660459057
10
190.48567579805331
20
-64.122456989343533
10
190.7593130847151
20
-63.581685888868407
10
191.08508770893494
20
-63.082391814133402
10
191.46720289590058
20
-62.634014220238079
10
191.68070170828435
20
-62.431868933323983
10
191.90986187080023
20
-62.245992562282154
10
192.15520878659646
20
-62.077565039000064
10
192.41726785882156
20
-61.92776629536521
10
192.69656449062424
20
-61.797776263264979
10
192.99362408515293
20
-61.688774874586869
10
193.30897204555598
20
-61.601942061218331
10
193.64313377498192
20
-61.538457755046814
10
193.99663467657922
20
-61.499501887959752
10
194.37000015349662
20
-61.486254391844639
10
194.81146098378773
20
-61.505081600516966
10
195.23374378168063
20
-61.561479431167797
10
195.63647108717242
20
-61.655322190747874
10
196.01926544026009
20
-61.786484186207801
10
196.38174938094096
20
-61.954839724498427
10
196.72354544921194
20
-62.160263112570426
10
197.0442761850702
20
-62.402628657374493
10
197.34356412851284
20
-62.681810665861342
10
197.56054705325496
20
-62.923021020272714
10
197.76374681184168
20
-63.185773162889873
10
197.95300361925592
20
-63.469476752737286
10
198.12815769048007
20
-63.77354144883958
10
198.28904924049698
20
-64.097376910221286
10
198.43551848428913
20
-64.440392795906973
10
198.68455091312998
20
-65.181604476288513
10
198.87397669686351
20
-65.992453762180759
10
199.00251755535089
20
-66.868217925780087
10
199.06889520845283
20
-67.804174239283057
10
199.07183137603079
20
-68.79559997488613
10
199.05528070667856
20
-69.286236693636155
10
202.50205416960989
20
-69.286236693636155
10
202.51276604806858
20
-68.819789914702909
10
202.51638550951182
20
-68.130292053351866
10
202.49703172882874
20
-67.459738610629529
10
202.45484879980833
20
-66.808594907079296
10
202.38998081623981
20
-66.17732626324451
10
202.30257187191251
20
-65.566397999668595
10
202.19276606061541
20
-64.976275436894895
10
202.06070747613757
20
-64.407423895466863
10
201.90654021226834
20
-63.860308695927813
10
201.73040836279688
20
-63.335395158821193
10
201.5324560215123
20
-62.833148604690351
10
201.31282728220373
20
-62.354034354078678
10
201.07166623866027
20
-61.89851772752958
10
200.80911698467133
20
-61.46706404558639
10
200.52532361402592
20
-61.060138628792586
10
200.22043022051307
20
-60.678206797691473
10
199.89458089792203
20
-60.321733872826456
10
199.35165270776022
20
-59.821202455445984
10
198.76532897873199
20
-59.386714436278623
10
198.13621542271451
20
-59.018483757685161
10
197.46491775158523
20
-58.716724362026639
10
196.75204167722143
20
-58.48165019166396
10
195.99819291150044
20
-58.313475188958051
10
195.20397716629981
20
-58.212413296269801
10
194.37000015349662
20
-58.178678455960195
10
193.8844738426171
20
-58.189582397564514
10
193.41288491426502
20
-58.222209983299308
10
192.95533017363425
20
-58.276434854547304
10
192.51190642591791
20
-58.352130652691145
10
192.08271047630959
20
-58.449171019113578
10
191.66783913000279
20
-58.567429595197389
10
191.26738919219082
20
-58.706780022325127
10
190.88145746806737
20
-58.867095941879683
10
190.51014076282576
20
-59.048250995243677
10
190.15353588165942
20
-59.250118823799824
10
189.81173962976192
20
-59.472573068930799
10
189.48484881232659
20
-59.715487372019425
10
189.17296023454702
20
-59.97873537444832
10
188.87617070161662
20
-60.262190717600234
10
188.5945770187287
20
-60.565727042857844
10
188.32827599107696
20
-60.889217991603942
10
188.07736442385482
20
-61.232537205221114
10
187.84193912225567
20
-61.595558325092199
10
187.62209689147298
20
-61.978154992599826
10
187.41793453670022
20
-62.380200849126751
10
187.22954886313084
20
-62.801569536055695
10
187.05703667595833
20
-63.242134694769291
10
186.90049478037622
20
-63.701769966650339
10
186.76001998157778
20
-64.180348993081523
10
186.52765889510616
20
-65.193832875125111
10
186.36072785809114
20
-66.281575471961787
10
186.26000131208048
20
-67.442565914653244
10
186.22625369862195
20
-68.675793334261144
10
186.22625369862195
20
-84.343991842205881
10
186.26000131208048
20
-85.577359655773051
10
186.36072785809114
20
-86.738432929202233
10
186.52765889510616
20
-87.82620748645698
10
186.76001998157778
20
-88.839679151500789
10
186.90049478037616
20
-89.318237594432262
10
187.05703667595833
20
-89.7778437482973
10
187.22954886313084
20
-90.218372091091439
10
187.41793453670022
20
-90.639697100809997
10
187.62209689147298
20
-91.041693255448536
10
187.84193912225567
20
-91.424235033002446
10
188.07736442385482
20
-91.787196911467177
10
188.32827599107702
20
-92.130453368838161
10
188.59457701872878
20
-92.453878883110889
10
188.87617070161653
20
-92.757347932280766
10
189.17296023454699
20
-93.040734994343183
10
189.48484881232659
20
-93.303914547293658
10
189.81173962976192
20
-93.546761069127641
10
190.15353588165942
20
-93.769149037840521
10
190.51014076282576
20
-93.970952931427775
10
190.88145746806737
20
-94.152047227884864
10
191.26738919219082
20
-94.31230640520721
10
191.66783913000273
20
-94.451604941390201
10
192.08271047630959
20
-94.5698173144294
10
192.46274406624536
20
-94.655707033749906
10
192.46274406624536
20
-91.048978194304169
10
192.41726785882156
20
-91.028009454660179
10
192.15520878659646
20
-90.879602422225233
10
191.90986187080023
20
-90.712738640075486
10
191.68070170828435
20
-90.528586799688526
10
191.46720289590058
20
-90.328315592542069
10
191.08508770893494
20
-89.884089843880901
10
190.7593130847151
20
-89.389410925913069
10
190.48567579805331
20
-88.853628370459404
10
190.25997262376151
20
-88.286091709341008
10
190.07800033665183
20
-87.696150474378783
10
189.93555571153621
20
-87.093154197393687
10
189.82843552322663
20
-86.486452410206738
10
189.75243654653531
20
-85.885394644638907
10
189.70335555627426
20
-85.299330432511169
10
189.66913463429094
20
-84.20958079585985
10
189.66913463429094
20
-76.239129803275631
0
LWPOLYLINE
5
114
100
AcDbEntity
8
0
100
AcDbPolyline
90
69
70
1
43
0.0
10
235.95798787744309
20
-58.513538895911395
10
235.58107551330264
20
-58.413056423671385
10
235.58107551330264
20
-61.789184215151359
10
235.78488217527635
20
-61.875867487667392
10
236.04096989501912
20
-62.009642340356486
10
236.28195546050341
20
-62.16082638631319
10
236.50825194712019
20
-62.328572429792942
10
236.72027243026065
20
-62.512033275051273
10
237.1031376876779
20
-62.922710587925522
10
237.43385583588449
20
-63.386080758979787
10
237.71573147801035
20
-63.895366222257977
10
237.95206921718489
20
-64.443789411803962
10
238.14617365653777
20
-65.024572761661659
10
238.30134939919873
20
-65.630938705874868
10
238.4209010482974
20
-66.256109678487576
10
238.50813320696324
20
-66.893308113543554
10
238.56635047832589
20
-67.535756445086804
10
238.59885746551521
20
-68.176677107161197
10
238.60895877166061
20
-68.809292533810563
10
238.60895877166061
20
-84.209580795859935
10
238.57473721129168
20
-85.299396015751483
10
238.52565548833803
20
-85.885479467860435
10
238.44965556132266
20
-86.486548777416928
10
238.342534248584
20
-87.093255416425194
10
238.20008836846026
20
-87.696250856889378
10
238.01811473928981
20
-88.286186570813527
10
237.79241017941109
20
-88.853714030201814
10
237.51877150716234
20
-89.389484707058372
10
237.1929955408819
20
-89.884150073387275
10
236.81087909890806
20
-90.328361601192753
10
236.59737970526692
20
-90.528625760650471
10
236.36821899957923
20
-90.712770762478883
10
236.12287158413744
20
-90.879628040678483
10
235.86081206123379
20
-91.028029029249709
10
235.58151503316051
20
-91.15680516219328
10
235.58107551330264
20
-91.156964929772087
10
235.58107551330264
20
-94.698304254653749
10
236.03925002069982
20
-94.614893302939606
10
236.74787342400819
20
-94.420007616068432
10
237.44306687701959
20
-94.152946468832681
10
237.78327492571125
20
-93.990047101923523
10
238.11730255108546
20
-93.806340275137899
10
238.4442087745611
20
-93.600904790213946
10
238.76305261755701
20
-93.372819448889913
10
239.07289310149224
20
-93.121163052904038
10
239.37278924778568
20
-92.845014403994412
10
239.66180007785618
20
-92.543452303899443
10
239.93898461312259
20
-92.215555554357195
10
240.20340187500412
20
-91.860402957105862
10
240.45411088491934
20
-91.47707331388375
10
240.69017066428739
20
-91.064645426429053
10
240.91064023452708
20
-90.62219809648002
10
241.11457861705748
20
-90.148810125774816
10
241.30104483329723
20
-89.643560316051577
10
241.46909790466538
20
-89.10552746904871
10
241.61779685258091
20
-88.533790386504336
10
241.74620069846264
20
-87.927427870156563
10
241.85336846372957
20
-87.285518721743713
10
241.93835916980044
20
-86.607141743004021
10
242.00023183809441
20
-85.891375735675709
10
242.03804549003024
20
-85.137299501496926
10
242.0508591470269
20
-84.343991842205881
10
242.0508591470269
20
-58.71609678746816
10
238.81047877084683
20
-58.71609678746816
10
238.81047877084683
20
-60.330405703003777
10
238.33952974835506
20
-59.860596970634887
10
237.81192481513287
20
-59.439807344059723
10
237.23454530381622
20
-59.072235402959791
10
236.61427254704103
20
-58.762079727016499
0
LWPOLYLINE
5
115
100
AcDbEntity
8
0
100
AcDbPolyline
90
4
70
1
43
0.0
10
245
20
-5.9999999999999831
10
185
20
-6.0000000000000009
10
185
20
-9
10
245
20
-8.9999999999999822
0
LWPOLYLINE
5
116
100
AcDbEntity
8
0
100
AcDbPolyline
90
4
70
1
43
0.0
10
130
20
-6.0000000000000009
10
70
20
-6.0000000000000009
10
70
20
-9
10
130
20
-9.0000000000000178
0
LWPOLYLINE
5
117
100
AcDbEntity
8
0
100
AcDbPolyline
90
4
70
1
43
0.0
10
5.9999999999999787
20
-9
10
25.999999999999996
20
-9
10
25.999999999999979
20
-6.0000000000000009
10
5.9999999999999787
20
-6.0000000000000009
0
LWPOLYLINE
5
118
100
AcDbEntity
8
0
100
AcDbPolyline
90
18
70
1
43
0.0
10
297
20
-105.00000000000007
10
297
20
-160.00000000000006
10
247
20
-160.00000000000006
10
247
20
-157.00000000000006
10
192
20
-157.00000000000006
10
192
20
-160.00000000000006
10
142
20
-160.00000000000006
10
142
20
-157.00000000000006
10
87
20
-157.00000000000006
10
87
20
-160.00000000000006
10
36.999999999999993
20
-160.00000000000006
10
36.999999999999993
20
-157.00000000000006
10
0
20
-157.00000000000006
10
0
20
0
10
297
20
-5.3290705182007514e-14
10
297
20
-55.000000000000057
10
300
20
-55.000000000000057
10
300
20
-105.00000000000007
0
ENDSEC
0
SECTION
2
OBJECTS
0
DICTIONARY
5
C
100
AcDbDictionary
3
ACAD_GROUP
350
D
3
ACAD_MLINESTYLE
350
17
0
DICTIONARY
5
D
100
AcDbDictionary
0
DICTIONARY
5
1A
330
C
100
AcDbDictionary
0
DICTIONARY
5
17
100
AcDbDictionary
0
ENDSEC
0
EOF
